<svg version="1.1" viewBox="0.0 0.0 600.0 371.0" fill="none" stroke="none" stroke-linecap="square" stroke-miterlimit="10" width="600" height="371" xmlns:xlink="http://www.w3.org/1999/xlink" xmlns="http://www.w3.org/2000/svg"><path fill="#ffffff" d="M0 0L600.0 0L600.0 371.0L0 371.0L0 0Z" fill-rule="nonzero"/><path stroke="#333333" stroke-width="1.0" stroke-linecap="butt" d="M77.5 300.5L581.5 300.5" fill-rule="nonzero"/><path stroke="#cccccc" stroke-width="1.0" stroke-linecap="butt" d="M77.5 228.5L581.5 228.5" fill-rule="nonzero"/><path stroke="#cccccc" stroke-width="1.0" stroke-linecap="butt" d="M77.5 157.5L581.5 157.5" fill-rule="nonzero"/><path stroke="#cccccc" stroke-width="1.0" stroke-linecap="butt" d="M77.5 85.5L581.5 85.5" fill-rule="nonzero"/><clipPath id="id_0"><path d="M77.55 85.916664L581.45 85.916664L581.45 300.45L77.55 300.45L77.55 85.916664Z" clip-rule="nonzero"/></clipPath><path stroke="#000000" stroke-width="2.0" stroke-linecap="butt" stroke-opacity="0.0" clip-path="url(#id_0)" d="M172.0 300.0L111.0 300.0L111.0 88.0C111.0 86.89543 111.89543 86.0 113.0 86.0L170.0 86.0C171.10457 86.0 172.0 86.89543 172.0 88.0Z" fill-rule="nonzero"/><path fill="#4285f4" clip-path="url(#id_0)" d="M172.0 300.0L111.0 300.0L111.0 88.0C111.0 86.89543 111.89543 86.0 113.0 86.0L170.0 86.0C171.10457 86.0 172.0 86.89543 172.0 88.0Z" fill-rule="nonzero"/><path stroke="#000000" stroke-width="2.0" stroke-linecap="butt" stroke-opacity="0.0" clip-path="url(#id_0)" d="M266.0 300.0L205.0 300.0L205.0 159.0C205.0 157.89543 205.89543 157.0 207.0 157.0L264.0 157.0C265.10458 157.0 266.0 157.89543 266.0 159.0Z" fill-rule="nonzero"/><path fill="#4285f4" clip-path="url(#id_0)" d="M266.0 300.0L205.0 300.0L205.0 159.0C205.0 157.89543 205.89543 157.0 207.0 157.0L264.0 157.0C265.10458 157.0 266.0 157.89543 266.0 159.0Z" fill-rule="nonzero"/><path stroke="#000000" stroke-width="2.0" stroke-linecap="butt" stroke-opacity="0.0" clip-path="url(#id_0)" d="M361.0 300.0L300.0 300.0L300.0 231.0C300.0 229.89543 300.89542 229.0 302.0 229.0L359.0 229.0C360.10458 229.0 361.0 229.89543 361.0 231.0Z" fill-rule="nonzero"/><path fill="#4285f4" clip-path="url(#id_0)" d="M361.0 300.0L300.0 300.0L300.0 231.0C300.0 229.89543 300.89542 229.0 302.0 229.0L359.0 229.0C360.10458 229.0 361.0 229.89543 361.0 231.0Z" fill-rule="nonzero"/><path stroke="#000000" stroke-width="2.0" stroke-linecap="butt" stroke-opacity="0.0" clip-path="url(#id_0)" d="M455.0 300.0L394.0 300.0L394.0 231.0C394.0 229.89543 394.89542 229.0 396.0 229.0L453.0 229.0C454.10458 229.0 455.0 229.89543 455.0 231.0Z" fill-rule="nonzero"/><path fill="#4285f4" clip-path="url(#id_0)" d="M455.0 300.0L394.0 300.0L394.0 231.0C394.0 229.89543 394.89542 229.0 396.0 229.0L453.0 229.0C454.10458 229.0 455.0 229.89543 455.0 231.0Z" fill-rule="nonzero"/><path stroke="#000000" stroke-width="2.0" stroke-linecap="butt" stroke-opacity="0.0" clip-path="url(#id_0)" d="M549.0 300.0L488.0 300.0L488.0 231.0C488.0 229.89543 488.89542 229.0 490.0 229.0L547.0 229.0C548.10455 229.0 549.0 229.89543 549.0 231.0Z" fill-rule="nonzero"/><path fill="#4285f4" clip-path="url(#id_0)" d="M549.0 300.0L488.0 300.0L488.0 231.0C488.0 229.89543 488.89542 229.0 490.0 229.0L547.0 229.0C548.10455 229.0 549.0 229.89543 549.0 231.0Z" fill-rule="nonzero"/><path fill="#000000" d="M315.5625 346.4344L316.6875 346.73126Q316.32812 348.1219 315.40625 348.85626Q314.48438 349.59064 313.14062 349.59064Q311.75 349.59064 310.875 349.02814Q310.0 348.46564 309.54688 347.40314Q309.09375 346.325 309.09375 345.09064Q309.09375 343.7469 309.60938 342.7469Q310.125 341.7469 311.0625 341.23126Q312.01562 340.71564 313.15625 340.71564Q314.4375 340.71564 315.3125 341.3719Q316.20312 342.02814 316.54688 343.21564L315.42188 343.48126Q315.125 342.54376 314.54688 342.1219Q313.98438 341.6844 313.125 341.6844Q312.14062 341.6844 311.46875 342.16876Q310.8125 342.6375 310.53125 343.4344Q310.26562 344.23126 310.26562 345.09064Q310.26562 346.1844 310.57812 346.9969Q310.90625 347.8094 311.57812 348.21564Q312.25 348.6219 313.04688 348.6219Q314.0 348.6219 314.65625 348.075Q315.32812 347.52814 315.5625 346.4344ZM317.90625 346.34064Q317.90625 344.60626 318.85938 343.77814Q319.65625 343.09064 320.8125 343.09064Q322.09375 343.09064 322.90625 343.9344Q323.73438 344.7625 323.73438 346.2469Q323.73438 347.45 323.375 348.1375Q323.01562 348.825 322.3125 349.21564Q321.625 349.59064 320.8125 349.59064Q319.51562 349.59064 318.70312 348.7625Q317.90625 347.91876 317.90625 346.34064ZM318.98438 346.34064Q318.98438 347.52814 319.5 348.1219Q320.03125 348.71564 320.8125 348.71564Q321.60938 348.71564 322.125 348.1219Q322.64062 347.52814 322.64062 346.3094Q322.64062 345.15314 322.10938 344.5594Q321.59375 343.96564 320.8125 343.96564Q320.03125 343.96564 319.5 344.5594Q318.98438 345.1375 318.98438 346.34064ZM329.375 349.45L329.375 348.52814Q328.64062 349.59064 327.39062 349.59064Q326.84375 349.59064 326.35938 349.3875Q325.89062 349.16876 325.65625 348.85626Q325.42188 348.52814 325.32812 348.0594Q325.26562 347.7625 325.26562 347.075L325.26562 343.23126L326.32812 343.23126L326.32812 346.6844Q326.32812 347.4969 326.39062 347.79376Q326.48438 348.2 326.79688 348.45Q327.125 348.6844 327.60938 348.6844Q328.07812 348.6844 328.48438 348.45Q328.90625 348.2 329.07812 347.77814Q329.26562 347.35626 329.26562 346.5594L329.26562 343.23126L330.3125 343.23126L330.3125 349.45L329.375 349.45ZM332.29688 349.45L332.29688 343.23126L333.23438 343.23126L333.23438 344.10626Q333.92188 343.09064 335.21875 343.09064Q335.78125 343.09064 336.25 343.29376Q336.73438 343.4969 336.96875 343.825Q337.20312 344.15314 337.29688 344.59064Q337.34375 344.8875 337.34375 345.6219L337.34375 349.45L336.29688 349.45L336.29688 345.66876Q336.29688 345.0125 336.17188 344.7Q336.04688 344.3875 335.73438 344.2Q335.42188 343.9969 335.0 343.9969Q334.32812 343.9969 333.82812 344.4344Q333.34375 344.85626 333.34375 346.04376L333.34375 349.45L332.29688 349.45ZM341.59375 348.5125L341.75 349.4344Q341.29688 349.52814 340.95312 349.52814Q340.375 349.52814 340.0625 349.35626Q339.75 349.16876 339.60938 348.8719Q339.48438 348.575 339.48438 347.6219L339.48438 344.04376L338.71875 344.04376L338.71875 343.23126L339.48438 343.23126L339.48438 341.6844L340.53125 341.0594L340.53125 343.23126L341.59375 343.23126L341.59375 344.04376L340.53125 344.04376L340.53125 347.6844Q340.53125 348.1375 340.57812 348.2625Q340.64062 348.3875 340.76562 348.46564Q340.89062 348.54376 341.125 348.54376Q341.3125 348.54376 341.59375 348.5125ZM342.28125 349.45L342.28125 343.23126L343.23438 343.23126L343.23438 344.16876Q343.59375 343.5125 343.89062 343.3094Q344.20312 343.09064 344.57812 343.09064Q345.10938 343.09064 345.65625 343.41876L345.29688 344.40314Q344.90625 344.16876 344.53125 344.16876Q344.17188 344.16876 343.89062 344.3875Q343.625 344.59064 343.51562 344.96564Q343.32812 345.52814 343.32812 346.1844L343.32812 349.45L342.28125 349.45ZM346.25 351.84064L346.125 350.85626Q346.46875 350.95 346.73438 350.95Q347.07812 350.95 347.28125 350.825Q347.5 350.71564 347.64062 350.5125Q347.73438 350.34064 347.96875 349.71564Q347.98438 349.6375 348.0625 349.46564L345.6875 343.23126L346.82812 343.23126L348.125 346.825Q348.375 347.5125 348.57812 348.27814Q348.76562 347.54376 349.01562 346.85626L350.34375 343.23126L351.39062 343.23126L349.03125 349.5594Q348.64062 350.575 348.4375 350.96564Q348.15625 351.4969 347.78125 351.73126Q347.42188 351.98126 346.92188 351.98126Q346.625 351.98126 346.25 351.84064Z" fill-rule="nonzero"/><path fill="#000000" d="M26.534388 209.12083L26.831263 207.99583Q28.221888 208.35521 28.956263 209.27708Q29.690638 210.19896 29.690638 211.54271Q29.690638 212.93333 29.128138 213.80833Q28.565638 214.68333 27.503138 215.13646Q26.425013 215.58958 25.190638 215.58958Q23.846888 215.58958 22.846888 215.07396Q21.846888 214.55833 21.331263 213.62083Q20.815638 212.66771 20.815638 211.52708Q20.815638 210.24583 21.471888 209.37083Q22.128138 208.48021 23.315638 208.13646L23.581263 209.26146Q22.643763 209.55833 22.221888 210.13646Q21.784388 210.69896 21.784388 211.55833Q21.784388 212.54271 22.268763 213.21458Q22.737513 213.87083 23.534388 214.15208Q24.331263 214.41771 25.190638 214.41771Q26.284388 214.41771 27.096888 214.10521Q27.909388 213.77708 28.315638 213.10521Q28.721888 212.43333 28.721888 211.63646Q28.721888 210.68333 28.175013 210.02708Q27.628138 209.35521 26.534388 209.12083ZM26.440638 206.77708Q24.706263 206.77708 23.878138 205.82396Q23.190638 205.02708 23.190638 203.87083Q23.190638 202.58958 24.034388 201.77708Q24.862513 200.94896 26.346888 200.94896Q27.550013 200.94896 28.237513 201.30833Q28.925013 201.66771 29.315638 202.37083Q29.690638 203.05833 29.690638 203.87083Q29.690638 205.16771 28.862513 205.98021Q28.018763 206.77708 26.440638 206.77708ZM26.440638 205.69896Q27.628138 205.69896 28.221888 205.18333Q28.815638 204.65208 28.815638 203.87083Q28.815638 203.07396 28.221888 202.55833Q27.628138 202.04271 26.409388 202.04271Q25.253138 202.04271 24.659388 202.57396Q24.065638 203.08958 24.065638 203.87083Q24.065638 204.65208 24.659388 205.18333Q25.237513 205.69896 26.440638 205.69896ZM29.550013 195.30833L28.628138 195.30833Q29.690638 196.04271 29.690638 197.29271Q29.690638 197.83958 29.487513 198.32396Q29.268763 198.79271 28.956263 199.02708Q28.628138 199.26146 28.159388 199.35521Q27.862513 199.41771 27.175013 199.41771L23.331263 199.41771L23.331263 198.35521L26.784388 198.35521Q27.596888 198.35521 27.893763 198.29271Q28.300013 198.19896 28.550013 197.88646Q28.784388 197.55833 28.784388 197.07396Q28.784388 196.60521 28.550013 196.19896Q28.300013 195.77708 27.878138 195.60521Q27.456263 195.41771 26.659388 195.41771L23.331263 195.41771L23.331263 194.37083L29.550013 194.37083L29.550013 195.30833ZM29.550013 192.38646L23.331263 192.38646L23.331263 191.44896L24.206263 191.44896Q23.190638 190.76146 23.190638 189.46458Q23.190638 188.90208 23.393763 188.43333Q23.596888 187.94896 23.925013 187.71458Q24.253138 187.48021 24.690638 187.38646Q24.987513 187.33958 25.721888 187.33958L29.550013 187.33958L29.550013 188.38646L25.768763 188.38646Q25.112513 188.38646 24.800013 188.51146Q24.487513 188.63646 24.300013 188.94896Q24.096888 189.26146 24.096888 189.68333Q24.096888 190.35521 24.534388 190.85521Q24.956263 191.33958 26.143763 191.33958L29.550013 191.33958L29.550013 192.38646ZM28.612513 183.08958L29.534388 182.93333Q29.628138 183.38646 29.628138 183.73021Q29.628138 184.30833 29.456263 184.62083Q29.268763 184.93333 28.971888 185.07396Q28.675013 185.19896 27.721888 185.19896L24.143763 185.19896L24.143763 185.96458L23.331263 185.96458L23.331263 185.19896L21.784388 185.19896L21.159388 184.15208L23.331263 184.15208L23.331263 183.08958L24.143763 183.08958L24.143763 184.15208L27.784388 184.15208Q28.237513 184.15208 28.362513 184.10521Q28.487513 184.04271 28.565638 183.91771Q28.643763 183.79271 28.643763 183.55833Q28.643763 183.37083 28.612513 183.08958Z" fill-rule="nonzero"/><path fill="#000000" d="M65.05 300.21564Q65.05 298.6844 65.3625 297.7625Q65.675 296.825 66.28438 296.325Q66.90938 295.825 67.84688 295.825Q68.53438 295.825 69.05 296.10626Q69.58125 296.3875 69.925 296.91876Q70.26875 297.4344 70.45625 298.1844Q70.64375 298.9344 70.64375 300.21564Q70.64375 301.73126 70.33125 302.65314Q70.03438 303.575 69.40938 304.09064Q68.8 304.59064 67.84688 304.59064Q66.6125 304.59064 65.89375 303.7Q65.05 302.6375 65.05 300.21564ZM66.12813 300.21564Q66.12813 302.325 66.62813 303.02814Q67.12813 303.73126 67.84688 303.73126Q68.58125 303.73126 69.06563 303.02814Q69.56563 302.325 69.56563 300.21564Q69.56563 298.09064 69.06563 297.40314Q68.58125 296.7 67.83125 296.7Q67.1125 296.7 66.675 297.3094Q66.12813 298.09064 66.12813 300.21564Z" fill-rule="nonzero"/><path fill="#000000" d="M69.01875 232.93889L67.97188 232.93889L67.97188 226.22014Q67.58125 226.57951 66.95625 226.95451Q66.34688 227.31389 65.8625 227.48576L65.8625 226.47014Q66.7375 226.04826 67.39375 225.47014Q68.06563 224.87639 68.34688 224.31389L69.01875 224.31389L69.01875 232.93889Z" fill-rule="nonzero"/><path fill="#000000" d="M70.59688 160.41216L70.59688 161.42778L64.90938 161.42778Q64.90938 161.05278 65.03438 160.6934Q65.25313 160.11528 65.72188 159.55278Q66.20625 158.99028 67.1125 158.2559Q68.51875 157.09966 69.00313 156.42778Q69.50313 155.7559 69.50313 155.16216Q69.50313 154.53716 69.05 154.11528Q68.59688 153.67778 67.87813 153.67778Q67.1125 153.67778 66.65938 154.1309Q66.20625 154.58403 66.19063 155.39653L65.1125 155.28716Q65.22188 154.0684 65.94063 153.4434Q66.675 152.80278 67.90938 152.80278Q69.14375 152.80278 69.8625 153.49028Q70.58125 154.17778 70.58125 155.1934Q70.58125 155.70903 70.3625 156.20903Q70.15938 156.6934 69.65938 157.2559Q69.175 157.80278 68.05 158.7559Q67.09688 159.55278 66.81563 159.84966Q66.55 160.1309 66.37813 160.41216L70.59688 160.41216Z" fill-rule="nonzero"/><path fill="#000000" d="M65.05 87.65104L66.1125 87.510414Q66.28438 88.40104 66.72188 88.80729Q67.15938 89.197914 67.78438 89.197914Q68.53438 89.197914 69.05 88.68229Q69.56563 88.166664 69.56563 87.40104Q69.56563 86.68229 69.08125 86.21354Q68.6125 85.729164 67.87813 85.729164Q67.58125 85.729164 67.12813 85.854164L67.25313 84.916664Q67.3625 84.93229 67.425 84.93229Q68.09688 84.93229 68.62813 84.58854Q69.175 84.229164 69.175 83.49479Q69.175 82.916664 68.78438 82.541664Q68.39375 82.15104 67.76875 82.15104Q67.15938 82.15104 66.7375 82.541664Q66.33125 82.93229 66.22188 83.697914L65.15938 83.510414Q65.34688 82.46354 66.03438 81.885414Q66.72188 81.291664 67.7375 81.291664Q68.44063 81.291664 69.03438 81.604164Q69.62813 81.90104 69.94063 82.416664Q70.25313 82.93229 70.25313 83.52604Q70.25313 84.072914 69.95625 84.541664Q69.65938 84.99479 69.08125 85.260414Q69.83125 85.43229 70.25313 85.99479Q70.675 86.541664 70.675 87.385414Q70.675 88.510414 69.84688 89.291664Q69.03438 90.072914 67.78438 90.072914Q66.65938 90.072914 65.90938 89.40104Q65.15938 88.71354 65.05 87.65104Z" fill-rule="nonzero"/><path fill="#000000" d="M131.68866 314.4344L132.81366 314.73126Q132.45428 316.1219 131.53241 316.85626Q130.61053 317.59064 129.26678 317.59064Q127.87617 317.59064 127.00117 317.02814Q126.12617 316.46564 125.67304 315.40314Q125.21992 314.325 125.21992 313.09064Q125.21992 311.7469 125.73554 310.7469Q126.25117 309.7469 127.18867 309.23126Q128.14178 308.71564 129.28241 308.71564Q130.56366 308.71564 131.43866 309.3719Q132.32928 310.02814 132.67303 311.21564L131.54803 311.48126Q131.25116 310.54376 130.67303 310.1219Q130.11053 309.6844 129.25116 309.6844Q128.26678 309.6844 127.59492 310.16876Q126.93867 310.6375 126.65742 311.4344Q126.39179 312.23126 126.39179 313.09064Q126.39179 314.1844 126.70429 314.9969Q127.03242 315.8094 127.70429 316.21564Q128.37616 316.6219 129.17303 316.6219Q130.12616 316.6219 130.78241 316.075Q131.45428 315.52814 131.68866 314.4344ZM134.42303 317.45L134.42303 308.85626L135.46991 308.85626L135.46991 311.9344Q136.20428 311.09064 137.32928 311.09064Q138.03241 311.09064 138.53241 311.3719Q139.04803 311.6375 139.26678 312.1219Q139.48553 312.59064 139.48553 313.5125L139.48553 317.45L138.43866 317.45L138.43866 313.5125Q138.43866 312.71564 138.09491 312.35626Q137.75116 311.9969 137.12616 311.9969Q136.65741 311.9969 136.23553 312.2469Q135.82928 312.48126 135.64178 312.90314Q135.46991 313.3094 135.46991 314.04376L135.46991 317.45L134.42303 317.45ZM141.42303 310.075L141.42303 308.85626L142.48553 308.85626L142.48553 310.075L141.42303 310.075ZM141.42303 317.45L141.42303 311.23126L142.48553 311.23126L142.48553 317.45L141.42303 317.45ZM144.42303 317.45L144.42303 311.23126L145.36053 311.23126L145.36053 312.10626Q146.04803 311.09064 147.34491 311.09064Q147.90741 311.09064 148.37616 311.29376Q148.86053 311.4969 149.09491 311.825Q149.32928 312.15314 149.42303 312.59064Q149.46991 312.8875 149.46991 313.6219L149.46991 317.45L148.42303 317.45L148.42303 313.66876Q148.42303 313.0125 148.29803 312.7Q148.17303 312.3875 147.86053 312.2Q147.54803 311.9969 147.12616 311.9969Q146.45428 311.9969 145.95428 312.4344Q145.46991 312.85626 145.46991 314.04376L145.46991 317.45L144.42303 317.45ZM155.48553 316.6844Q154.89178 317.1844 154.34491 317.3875Q153.81366 317.59064 153.18866 317.59064Q152.15741 317.59064 151.61053 317.09064Q151.06366 316.59064 151.06366 315.8094Q151.06366 315.35626 151.26678 314.98126Q151.46991 314.59064 151.81366 314.3719Q152.15741 314.1375 152.57928 314.02814Q152.87616 313.9344 153.51678 313.85626Q154.78241 313.71564 155.39178 313.4969Q155.39178 313.27814 155.39178 313.23126Q155.39178 312.575 155.09491 312.3094Q154.68866 311.96564 153.89178 311.96564Q153.15741 311.96564 152.79803 312.23126Q152.43866 312.48126 152.26678 313.1375L151.23553 312.9969Q151.37616 312.34064 151.70428 311.9344Q152.03241 311.52814 152.64178 311.3094Q153.25116 311.09064 154.04803 311.09064Q154.84491 311.09064 155.34491 311.27814Q155.84491 311.46564 156.07928 311.7469Q156.31366 312.02814 156.40741 312.46564Q156.45428 312.73126 156.45428 313.4344L156.45428 314.84064Q156.45428 316.3094 156.51678 316.7Q156.59491 317.09064 156.79803 317.45L155.68866 317.45Q155.53241 317.1219 155.48553 316.6844ZM155.39178 314.325Q154.81366 314.5594 153.67303 314.73126Q153.01678 314.825 152.75116 314.95Q152.48553 315.0594 152.32928 315.27814Q152.18866 315.4969 152.18866 315.77814Q152.18866 316.2 152.50116 316.48126Q152.82928 316.7625 153.43866 316.7625Q154.04803 316.7625 154.51678 316.4969Q155.00116 316.23126 155.21991 315.7625Q155.39178 315.40314 155.39178 314.71564L155.39178 314.325Z" fill-rule="nonzero"/><path fill="#000000" d="M222.93808 317.45L222.93808 308.85626L224.06308 308.85626L224.06308 317.45L222.93808 317.45ZM225.60995 317.45L225.60995 311.23126L226.54745 311.23126L226.54745 312.10626Q227.23495 311.09064 228.53183 311.09064Q229.09433 311.09064 229.56308 311.29376Q230.04745 311.4969 230.28183 311.825Q230.5162 312.15314 230.60995 312.59064Q230.65683 312.8875 230.65683 313.6219L230.65683 317.45L229.60995 317.45L229.60995 313.66876Q229.60995 313.0125 229.48495 312.7Q229.35995 312.3875 229.04745 312.2Q228.73495 311.9969 228.31308 311.9969Q227.6412 311.9969 227.1412 312.4344Q226.65683 312.85626 226.65683 314.04376L226.65683 317.45L225.60995 317.45ZM236.6412 317.45L236.6412 316.66876Q236.04745 317.59064 234.90683 317.59064Q234.15683 317.59064 233.53183 317.1844Q232.90683 316.7625 232.56308 316.02814Q232.21933 315.29376 232.21933 314.34064Q232.21933 313.41876 232.53183 312.65314Q232.84433 311.8875 233.46933 311.4969Q234.09433 311.09064 234.85995 311.09064Q235.42245 311.09064 235.85995 311.325Q236.29745 311.5594 236.5787 311.9344L236.5787 308.85626L237.62558 308.85626L237.62558 317.45L236.6412 317.45ZM233.31308 314.34064Q233.31308 315.54376 233.81308 316.1375Q234.31308 316.71564 235.00058 316.71564Q235.68808 316.71564 236.17245 316.15314Q236.65683 315.59064 236.65683 314.4344Q236.65683 313.15314 236.15683 312.5594Q235.67245 311.96564 234.9537 311.96564Q234.25058 311.96564 233.78183 312.54376Q233.31308 313.10626 233.31308 314.34064ZM239.60995 310.075L239.60995 308.85626L240.67245 308.85626L240.67245 310.075L239.60995 310.075ZM239.60995 317.45L239.60995 311.23126L240.67245 311.23126L240.67245 317.45L239.60995 317.45ZM246.67245 316.6844Q246.0787 317.1844 245.53183 317.3875Q245.00058 317.59064 244.37558 317.59064Q243.34433 317.59064 242.79745 317.09064Q242.25058 316.59064 242.25058 315.8094Q242.25058 315.35626 242.4537 314.98126Q242.65683 314.59064 243.00058 314.3719Q243.34433 314.1375 243.7662 314.02814Q244.06308 313.9344 244.7037 313.85626Q245.96933 313.71564 246.5787 313.4969Q246.5787 313.27814 246.5787 313.23126Q246.5787 312.575 246.28183 312.3094Q245.87558 311.96564 245.0787 311.96564Q244.34433 311.96564 243.98495 312.23126Q243.62558 312.48126 243.4537 313.1375L242.42245 312.9969Q242.56308 312.34064 242.8912 311.9344Q243.21933 311.52814 243.8287 311.3094Q244.43808 311.09064 245.23495 311.09064Q246.03183 311.09064 246.53183 311.27814Q247.03183 311.46564 247.2662 311.7469Q247.50058 312.02814 247.59433 312.46564Q247.6412 312.73126 247.6412 313.4344L247.6412 314.84064Q247.6412 316.3094 247.7037 316.7Q247.78183 317.09064 247.98495 317.45L246.87558 317.45Q246.71933 317.1219 246.67245 316.6844ZM246.5787 314.325Q246.00058 314.5594 244.85995 314.73126Q244.2037 314.825 243.93808 314.95Q243.67245 315.0594 243.5162 315.27814Q243.37558 315.4969 243.37558 315.77814Q243.37558 316.2 243.68808 316.48126Q244.0162 316.7625 244.62558 316.7625Q245.23495 316.7625 245.7037 316.4969Q246.18808 316.23126 246.40683 315.7625Q246.5787 315.40314 246.5787 314.71564L246.5787 314.325Z" fill-rule="nonzero"/><path fill="#000000" d="M314.5625 308.85626L315.70312 308.85626L315.70312 313.825Q315.70312 315.1219 315.40625 315.8875Q315.10938 316.6375 314.34375 317.1219Q313.57812 317.59064 312.34375 317.59064Q311.14062 317.59064 310.35938 317.1844Q309.59375 316.7625 309.26562 315.98126Q308.9375 315.1844 308.9375 313.825L308.9375 308.85626L310.07812 308.85626L310.07812 313.8094Q310.07812 314.9344 310.28125 315.46564Q310.5 315.9969 311.0 316.29376Q311.51562 316.575 312.25 316.575Q313.5 316.575 314.03125 316.0125Q314.5625 315.4344 314.5625 313.8094L314.5625 308.85626ZM317.79688 317.45L317.79688 308.85626L318.85938 308.85626L318.85938 313.7625L321.34375 311.23126L322.71875 311.23126L320.32812 313.52814L322.95312 317.45L321.65625 317.45L319.59375 314.2625L318.85938 314.98126L318.85938 317.45L317.79688 317.45ZM323.78125 317.45L323.78125 311.23126L324.73438 311.23126L324.73438 312.16876Q325.09375 311.5125 325.39062 311.3094Q325.70312 311.09064 326.07812 311.09064Q326.60938 311.09064 327.15625 311.41876L326.79688 312.40314Q326.40625 312.16876 326.03125 312.16876Q325.67188 312.16876 325.39062 312.3875Q325.125 312.59064 325.01562 312.96564Q324.82812 313.52814 324.82812 314.1844L324.82812 317.45L323.78125 317.45ZM331.85938 316.6844Q331.26562 317.1844 330.71875 317.3875Q330.1875 317.59064 329.5625 317.59064Q328.53125 317.59064 327.98438 317.09064Q327.4375 316.59064 327.4375 315.8094Q327.4375 315.35626 327.64062 314.98126Q327.84375 314.59064 328.1875 314.3719Q328.53125 314.1375 328.95312 314.02814Q329.25 313.9344 329.89062 313.85626Q331.15625 313.71564 331.76562 313.4969Q331.76562 313.27814 331.76562 313.23126Q331.76562 312.575 331.46875 312.3094Q331.0625 311.96564 330.26562 311.96564Q329.53125 311.96564 329.17188 312.23126Q328.8125 312.48126 328.64062 313.1375L327.60938 312.9969Q327.75 312.34064 328.07812 311.9344Q328.40625 311.52814 329.01562 311.3094Q329.625 311.09064 330.42188 311.09064Q331.21875 311.09064 331.71875 311.27814Q332.21875 311.46564 332.45312 311.7469Q332.6875 312.02814 332.78125 312.46564Q332.82812 312.73126 332.82812 313.4344L332.82812 314.84064Q332.82812 316.3094 332.89062 316.7Q332.96875 317.09064 333.17188 317.45L332.0625 317.45Q331.90625 317.1219 331.85938 316.6844ZM331.76562 314.325Q331.1875 314.5594 330.04688 314.73126Q329.39062 314.825 329.125 314.95Q328.85938 315.0594 328.70312 315.27814Q328.5625 315.4969 328.5625 315.77814Q328.5625 316.2 328.875 316.48126Q329.20312 316.7625 329.8125 316.7625Q330.42188 316.7625 330.89062 316.4969Q331.375 316.23126 331.59375 315.7625Q331.76562 315.40314 331.76562 314.71564L331.76562 314.325ZM334.79688 310.075L334.79688 308.85626L335.85938 308.85626L335.85938 310.075L334.79688 310.075ZM334.79688 317.45L334.79688 311.23126L335.85938 311.23126L335.85938 317.45L334.79688 317.45ZM337.79688 317.45L337.79688 311.23126L338.73438 311.23126L338.73438 312.10626Q339.42188 311.09064 340.71875 311.09064Q341.28125 311.09064 341.75 311.29376Q342.23438 311.4969 342.46875 311.825Q342.70312 312.15314 342.79688 312.59064Q342.84375 312.8875 342.84375 313.6219L342.84375 317.45L341.79688 317.45L341.79688 313.66876Q341.79688 313.0125 341.67188 312.7Q341.54688 312.3875 341.23438 312.2Q340.92188 311.9969 340.5 311.9969Q339.82812 311.9969 339.32812 312.4344Q338.84375 312.85626 338.84375 314.04376L338.84375 317.45L337.79688 317.45ZM349.04688 315.45L350.14062 315.575Q349.89062 316.52814 349.1875 317.0594Q348.48438 317.59064 347.40625 317.59064Q346.04688 317.59064 345.23438 316.7469Q344.4375 315.90314 344.4375 314.3875Q344.4375 312.825 345.25 311.96564Q346.0625 311.09064 347.34375 311.09064Q348.59375 311.09064 349.375 311.9344Q350.17188 312.77814 350.17188 314.325Q350.17188 314.41876 350.17188 314.60626L345.53125 314.60626Q345.59375 315.6375 346.10938 316.1844Q346.625 316.71564 347.40625 316.71564Q347.98438 316.71564 348.39062 316.41876Q348.8125 316.10626 349.04688 315.45ZM345.59375 313.7469L349.0625 313.7469Q349.0 312.95 348.67188 312.5594Q348.15625 311.95 347.35938 311.95Q346.625 311.95 346.125 312.4344Q345.64062 312.91876 345.59375 313.7469Z" fill-rule="nonzero"/><path fill="#000000" d="M406.06192 317.45L406.06192 308.85626L409.2963 308.85626Q410.28067 308.85626 410.87442 309.1219Q411.46817 309.3875 411.7963 309.9344Q412.14005 310.46564 412.14005 311.0594Q412.14005 311.60626 411.84317 312.09064Q411.5463 312.575 410.93692 312.8719Q411.71817 313.10626 412.12442 313.66876Q412.5463 314.21564 412.5463 314.96564Q412.5463 315.5594 412.2963 316.09064Q412.0463 316.60626 411.6713 316.8875Q411.2963 317.16876 410.71817 317.3094Q410.15567 317.45 409.34317 317.45L406.06192 317.45ZM407.20255 312.46564L409.06192 312.46564Q409.81192 312.46564 410.14005 312.3719Q410.57755 312.2469 410.7963 311.95Q411.01505 311.6375 411.01505 311.1844Q411.01505 310.7625 410.81192 310.4344Q410.6088 310.10626 410.21817 309.9969Q409.84317 309.8719 408.9213 309.8719L407.20255 309.8719L407.20255 312.46564ZM407.20255 316.4344L409.34317 316.4344Q409.89005 316.4344 410.1088 316.3875Q410.51505 316.325 410.76505 316.16876Q411.03067 315.9969 411.20255 315.6844Q411.37442 315.3719 411.37442 314.96564Q411.37442 314.48126 411.12442 314.1219Q410.89005 313.7625 410.45255 313.6219Q410.01505 313.48126 409.18692 313.48126L407.20255 313.48126L407.20255 316.4344ZM418.06192 317.45L418.06192 316.52814Q417.32755 317.59064 416.07755 317.59064Q415.53067 317.59064 415.0463 317.3875Q414.57755 317.16876 414.34317 316.85626Q414.1088 316.52814 414.01505 316.0594Q413.95255 315.7625 413.95255 315.075L413.95255 311.23126L415.01505 311.23126L415.01505 314.6844Q415.01505 315.4969 415.07755 315.79376Q415.1713 316.2 415.4838 316.45Q415.81192 316.6844 416.2963 316.6844Q416.76505 316.6844 417.1713 316.45Q417.59317 316.2 417.76505 315.77814Q417.95255 315.35626 417.95255 314.5594L417.95255 311.23126L418.99942 311.23126L418.99942 317.45L418.06192 317.45ZM420.96817 317.45L420.96817 311.23126L421.9213 311.23126L421.9213 312.16876Q422.28067 311.5125 422.57755 311.3094Q422.89005 311.09064 423.26505 311.09064Q423.7963 311.09064 424.34317 311.41876L423.9838 312.40314Q423.59317 312.16876 423.21817 312.16876Q422.8588 312.16876 422.57755 312.3875Q422.31192 312.59064 422.20255 312.96564Q422.01505 313.52814 422.01505 314.1844L422.01505 317.45L420.96817 317.45ZM424.9838 317.45L424.9838 311.23126L425.9213 311.23126L425.9213 312.10626Q426.21817 311.6375 426.70255 311.3719Q427.18692 311.09064 427.81192 311.09064Q428.49942 311.09064 428.93692 311.3719Q429.39005 311.65314 429.56192 312.16876Q430.31192 311.09064 431.4838 311.09064Q432.4213 311.09064 432.90567 311.60626Q433.40567 312.10626 433.40567 313.1844L433.40567 317.45L432.3588 317.45L432.3588 313.52814Q432.3588 312.90314 432.24942 312.6219Q432.15567 312.34064 431.89005 312.16876Q431.62442 311.9969 431.24942 311.9969Q430.59317 311.9969 430.15567 312.4344Q429.7338 312.8719 429.7338 313.84064L429.7338 317.45L428.6713 317.45L428.6713 313.40314Q428.6713 312.7 428.40567 312.35626Q428.15567 311.9969 427.57755 311.9969Q427.12442 311.9969 426.74942 312.23126Q426.37442 312.46564 426.20255 312.91876Q426.03067 313.3719 426.03067 314.21564L426.03067 317.45L424.9838 317.45ZM440.0463 316.6844Q439.45255 317.1844 438.90567 317.3875Q438.37442 317.59064 437.74942 317.59064Q436.71817 317.59064 436.1713 317.09064Q435.62442 316.59064 435.62442 315.8094Q435.62442 315.35626 435.82755 314.98126Q436.03067 314.59064 436.37442 314.3719Q436.71817 314.1375 437.14005 314.02814Q437.43692 313.9344 438.07755 313.85626Q439.34317 313.71564 439.95255 313.4969Q439.95255 313.27814 439.95255 313.23126Q439.95255 312.575 439.65567 312.3094Q439.24942 311.96564 438.45255 311.96564Q437.71817 311.96564 437.3588 312.23126Q436.99942 312.48126 436.82755 313.1375L435.7963 312.9969Q435.93692 312.34064 436.26505 311.9344Q436.59317 311.52814 437.20255 311.3094Q437.81192 311.09064 438.6088 311.09064Q439.40567 311.09064 439.90567 311.27814Q440.40567 311.46564 440.64005 311.7469Q440.87442 312.02814 440.96817 312.46564Q441.01505 312.73126 441.01505 313.4344L441.01505 314.84064Q441.01505 316.3094 441.07755 316.7Q441.15567 317.09064 441.3588 317.45L440.24942 317.45Q440.09317 317.1219 440.0463 316.6844ZM439.95255 314.325Q439.37442 314.5594 438.2338 314.73126Q437.57755 314.825 437.31192 314.95Q437.0463 315.0594 436.89005 315.27814Q436.74942 315.4969 436.74942 315.77814Q436.74942 316.2 437.06192 316.48126Q437.39005 316.7625 437.99942 316.7625Q438.6088 316.7625 439.07755 316.4969Q439.56192 316.23126 439.78067 315.7625Q439.95255 315.40314 439.95255 314.71564L439.95255 314.325Z" fill-rule="nonzero"/><path fill="#000000" d="M508.49884 317.45L508.49884 308.85626L509.62384 308.85626L509.62384 317.45L508.49884 317.45ZM511.1551 317.45L511.1551 311.23126L512.1082 311.23126L512.1082 312.16876Q512.4676 311.5125 512.76447 311.3094Q513.07697 311.09064 513.45197 311.09064Q513.9832 311.09064 514.5301 311.41876L514.1707 312.40314Q513.7801 312.16876 513.4051 312.16876Q513.0457 312.16876 512.76447 312.3875Q512.49884 312.59064 512.38947 312.96564Q512.20197 313.52814 512.20197 314.1844L512.20197 317.45L511.1551 317.45ZM519.2332 316.6844Q518.63947 317.1844 518.0926 317.3875Q517.56134 317.59064 516.93634 317.59064Q515.9051 317.59064 515.3582 317.09064Q514.81134 316.59064 514.81134 315.8094Q514.81134 315.35626 515.01447 314.98126Q515.2176 314.59064 515.56134 314.3719Q515.9051 314.1375 516.32697 314.02814Q516.62384 313.9344 517.26447 313.85626Q518.5301 313.71564 519.13947 313.4969Q519.13947 313.27814 519.13947 313.23126Q519.13947 312.575 518.8426 312.3094Q518.43634 311.96564 517.63947 311.96564Q516.9051 311.96564 516.5457 312.23126Q516.18634 312.48126 516.01447 313.1375L514.9832 312.9969Q515.12384 312.34064 515.45197 311.9344Q515.7801 311.52814 516.38947 311.3094Q516.99884 311.09064 517.7957 311.09064Q518.5926 311.09064 519.0926 311.27814Q519.5926 311.46564 519.82697 311.7469Q520.06134 312.02814 520.1551 312.46564Q520.20197 312.73126 520.20197 313.4344L520.20197 314.84064Q520.20197 316.3094 520.26447 316.7Q520.3426 317.09064 520.5457 317.45L519.43634 317.45Q519.2801 317.1219 519.2332 316.6844ZM519.13947 314.325Q518.56134 314.5594 517.4207 314.73126Q516.76447 314.825 516.49884 314.95Q516.2332 315.0594 516.07697 315.27814Q515.93634 315.4969 515.93634 315.77814Q515.93634 316.2 516.24884 316.48126Q516.57697 316.7625 517.18634 316.7625Q517.7957 316.7625 518.26447 316.4969Q518.74884 316.23126 518.9676 315.7625Q519.13947 315.40314 519.13947 314.71564L519.13947 314.325ZM522.1707 317.45L522.1707 311.23126L523.1082 311.23126L523.1082 312.10626Q523.7957 311.09064 525.0926 311.09064Q525.6551 311.09064 526.12384 311.29376Q526.6082 311.4969 526.8426 311.825Q527.07697 312.15314 527.1707 312.59064Q527.2176 312.8875 527.2176 313.6219L527.2176 317.45L526.1707 317.45L526.1707 313.66876Q526.1707 313.0125 526.0457 312.7Q525.9207 312.3875 525.6082 312.2Q525.2957 311.9969 524.87384 311.9969Q524.20197 311.9969 523.70197 312.4344Q523.2176 312.85626 523.2176 314.04376L523.2176 317.45L522.1707 317.45Z" fill-rule="nonzero"/><path fill="#757575" d="M20.190624 37.55L20.190624 23.2375L29.846874 23.2375L29.846874 24.925L22.08125 24.925L22.08125 29.3625L28.8 29.3625L28.8 31.05L22.08125 31.05L22.08125 37.55L20.190624 37.55ZM31.221874 32.3625Q31.221874 29.4875 32.815624 28.096874Q34.159374 26.940624 36.08125 26.940624Q38.221874 26.940624 39.565624 28.346874Q40.925 29.753124 40.925 32.221874Q40.925 34.221874 40.33125 35.378124Q39.7375 36.51875 38.58125 37.159374Q37.440624 37.784374 36.08125 37.784374Q33.89375 37.784374 32.55 36.39375Q31.221874 34.9875 31.221874 32.3625ZM33.01875 32.3625Q33.01875 34.3625 33.878124 35.346874Q34.753124 36.33125 36.08125 36.33125Q37.39375 36.33125 38.253124 35.346874Q39.128124 34.346874 39.128124 32.3Q39.128124 30.378124 38.253124 29.39375Q37.378124 28.39375 36.08125 28.39375Q34.753124 28.39375 33.878124 29.39375Q33.01875 30.378124 33.01875 32.3625ZM42.846874 37.55L42.846874 27.175L44.425 27.175L44.425 28.753124Q45.034374 27.64375 45.55 27.3Q46.065624 26.940624 46.675 26.940624Q47.565624 26.940624 48.4875 27.503124L47.878124 29.14375Q47.2375 28.753124 46.596874 28.753124Q46.01875 28.753124 45.55 29.1125Q45.096874 29.45625 44.89375 30.065624Q44.6125 31.003124 44.6125 32.1125L44.6125 37.55L42.846874 37.55ZM55.878124 25.253124L55.878124 23.2375L57.64375 23.2375L57.64375 25.253124L55.878124 25.253124ZM55.878124 37.55L55.878124 27.175L57.64375 27.175L57.64375 37.55L55.878124 37.55ZM59.8625 37.55L59.8625 27.175L61.45625 27.175L61.45625 28.659374Q62.596874 26.940624 64.75313 26.940624Q65.69063 26.940624 66.47188 27.284374Q67.26875 27.6125 67.65938 28.159374Q68.05 28.70625 68.20625 29.45625Q68.3 29.95625 68.3 31.175L68.3 37.55L66.53438 37.55L66.53438 31.2375Q66.53438 30.159374 66.33125 29.628124Q66.12813 29.096874 65.59688 28.784374Q65.08125 28.471874 64.37813 28.471874Q63.253124 28.471874 62.440624 29.190624Q61.628124 29.89375 61.628124 31.878124L61.628124 37.55L59.8625 37.55ZM73.70625 35.971874L73.95625 37.534374Q73.22188 37.690624 72.62813 37.690624Q71.675 37.690624 71.14375 37.39375Q70.62813 37.08125 70.40938 36.596874Q70.19063 36.096874 70.19063 34.51875L70.19063 28.55L68.90938 28.55L68.90938 27.175L70.19063 27.175L70.19063 24.6125L71.94063 23.55L71.94063 27.175L73.70625 27.175L73.70625 28.55L71.94063 28.55L71.94063 34.6125Q71.94063 35.3625 72.03438 35.58125Q72.12813 35.784374 72.33125 35.925Q72.55 36.05 72.94063 36.05Q73.22188 36.05 73.70625 35.971874ZM82.97188 34.20625L84.78438 34.440624Q84.3625 36.01875 83.19063 36.909374Q82.03438 37.784374 80.22188 37.784374Q77.95625 37.784374 76.6125 36.39375Q75.28438 34.9875 75.28438 32.45625Q75.28438 29.83125 76.62813 28.39375Q77.97188 26.940624 80.12813 26.940624Q82.20625 26.940624 83.51875 28.3625Q84.84688 29.76875 84.84688 32.346874Q84.84688 32.503124 84.83125 32.815624L77.09688 32.815624Q77.19063 34.51875 78.06563 35.425Q78.94063 36.33125 80.2375 36.33125Q81.20625 36.33125 81.87813 35.83125Q82.56563 35.315624 82.97188 34.20625ZM77.19063 31.3625L82.9875 31.3625Q82.87813 30.065624 82.33125 29.409374Q81.4875 28.39375 80.14375 28.39375Q78.94063 28.39375 78.1125 29.20625Q77.28438 30.003124 77.19063 31.3625ZM86.84688 37.55L86.84688 27.175L88.425 27.175L88.425 28.753124Q89.03438 27.64375 89.55 27.3Q90.06563 26.940624 90.675 26.940624Q91.56563 26.940624 92.4875 27.503124L91.87813 29.14375Q91.2375 28.753124 90.59688 28.753124Q90.01875 28.753124 89.55 29.1125Q89.09688 29.45625 88.89375 30.065624Q88.6125 31.003124 88.6125 32.1125L88.6125 37.55L86.84688 37.55ZM93.8625 37.55L93.8625 27.175L95.45625 27.175L95.45625 28.659374Q96.59688 26.940624 98.75313 26.940624Q99.69063 26.940624 100.47188 27.284374Q101.26875 27.6125 101.65938 28.159374Q102.05 28.70625 102.20625 29.45625Q102.3 29.95625 102.3 31.175L102.3 37.55L100.53438 37.55L100.53438 31.2375Q100.53438 30.159374 100.33125 29.628124Q100.12813 29.096874 99.59688 28.784374Q99.08125 28.471874 98.37813 28.471874Q97.25313 28.471874 96.44063 29.190624Q95.62813 29.89375 95.62813 31.878124L95.62813 37.55L93.8625 37.55ZM110.64375 36.26875Q109.65938 37.096874 108.75313 37.440624Q107.84688 37.784374 106.81563 37.784374Q105.1125 37.784374 104.19063 36.95625Q103.26875 36.1125 103.26875 34.815624Q103.26875 34.05 103.6125 33.425Q103.97188 32.8 104.53438 32.425Q105.09688 32.034374 105.8 31.83125Q106.31563 31.70625 107.3625 31.565624Q109.4875 31.315624 110.4875 30.971874Q110.50313 30.6125 110.50313 30.503124Q110.50313 29.440624 110.00313 28.9875Q109.33125 28.39375 108.00313 28.39375Q106.75313 28.39375 106.15938 28.83125Q105.58125 29.26875 105.3 30.378124L103.58125 30.14375Q103.81563 29.034374 104.34688 28.3625Q104.87813 27.675 105.89375 27.315624Q106.90938 26.940624 108.25313 26.940624Q109.58125 26.940624 110.40938 27.253124Q111.2375 27.565624 111.62813 28.05Q112.01875 28.51875 112.175 29.2375Q112.26875 29.690624 112.26875 30.8625L112.26875 33.20625Q112.26875 35.659374 112.37813 36.315624Q112.4875 36.95625 112.83125 37.55L110.9875 37.55Q110.72188 37.003124 110.64375 36.26875ZM110.4875 32.346874Q109.53438 32.7375 107.6125 33.003124Q106.53438 33.159374 106.08125 33.3625Q105.64375 33.55 105.39375 33.925Q105.14375 34.3 105.14375 34.76875Q105.14375 35.471874 105.675 35.940624Q106.20625 36.409374 107.2375 36.409374Q108.25313 36.409374 109.03438 35.971874Q109.83125 35.51875 110.20625 34.753124Q110.4875 34.14375 110.4875 32.9875L110.4875 32.346874ZM118.70625 35.971874L118.95625 37.534374Q118.22188 37.690624 117.62813 37.690624Q116.675 37.690624 116.14375 37.39375Q115.62813 37.08125 115.40938 36.596874Q115.19063 36.096874 115.19063 34.51875L115.19063 28.55L113.90938 28.55L113.90938 27.175L115.19063 27.175L115.19063 24.6125L116.94063 23.55L116.94063 27.175L118.70625 27.175L118.70625 28.55L116.94063 28.55L116.94063 34.6125Q116.94063 35.3625 117.03438 35.58125Q117.12813 35.784374 117.33125 35.925Q117.55 36.05 117.94063 36.05Q118.22188 36.05 118.70625 35.971874ZM120.87813 25.253124L120.87813 23.2375L122.64375 23.2375L122.64375 25.253124L120.87813 25.253124ZM120.87813 37.55L120.87813 27.175L122.64375 27.175L122.64375 37.55L120.87813 37.55ZM124.22188 32.3625Q124.22188 29.4875 125.81563 28.096874Q127.15938 26.940624 129.08125 26.940624Q131.22188 26.940624 132.56563 28.346874Q133.925 29.753124 133.925 32.221874Q133.925 34.221874 133.33125 35.378124Q132.7375 36.51875 131.58125 37.159374Q130.44063 37.784374 129.08125 37.784374Q126.89375 37.784374 125.55 36.39375Q124.22188 34.9875 124.22188 32.3625ZM126.01875 32.3625Q126.01875 34.3625 126.87813 35.346874Q127.75313 36.33125 129.08125 36.33125Q130.39375 36.33125 131.25313 35.346874Q132.12813 34.346874 132.12813 32.3Q132.12813 30.378124 131.25313 29.39375Q130.37813 28.39375 129.08125 28.39375Q127.75313 28.39375 126.87813 29.39375Q126.01875 30.378124 126.01875 32.3625ZM135.8625 37.55L135.8625 27.175L137.45625 27.175L137.45625 28.659374Q138.59688 26.940624 140.75313 26.940624Q141.69063 26.940624 142.47188 27.284374Q143.26875 27.6125 143.65938 28.159374Q144.05 28.70625 144.20625 29.45625Q144.3 29.95625 144.3 31.175L144.3 37.55L142.53438 37.55L142.53438 31.2375Q142.53438 30.159374 142.33125 29.628124Q142.12813 29.096874 141.59688 28.784374Q141.08125 28.471874 140.37813 28.471874Q139.25313 28.471874 138.44063 29.190624Q137.62813 29.89375 137.62813 31.878124L137.62813 37.55L135.8625 37.55ZM152.64375 36.26875Q151.65938 37.096874 150.75313 37.440624Q149.84688 37.784374 148.81563 37.784374Q147.1125 37.784374 146.19063 36.95625Q145.26875 36.1125 145.26875 34.815624Q145.26875 34.05 145.6125 33.425Q145.97188 32.8 146.53438 32.425Q147.09688 32.034374 147.8 31.83125Q148.31563 31.70625 149.3625 31.565624Q151.4875 31.315624 152.4875 30.971874Q152.50313 30.6125 152.50313 30.503124Q152.50313 29.440624 152.00313 28.9875Q151.33125 28.39375 150.00313 28.39375Q148.75313 28.39375 148.15938 28.83125Q147.58125 29.26875 147.3 30.378124L145.58125 30.14375Q145.81563 29.034374 146.34688 28.3625Q146.87813 27.675 147.89375 27.315624Q148.90938 26.940624 150.25313 26.940624Q151.58125 26.940624 152.40938 27.253124Q153.2375 27.565624 153.62813 28.05Q154.01875 28.51875 154.175 29.2375Q154.26875 29.690624 154.26875 30.8625L154.26875 33.20625Q154.26875 35.659374 154.37813 36.315624Q154.4875 36.95625 154.83125 37.55L152.9875 37.55Q152.72188 37.003124 152.64375 36.26875ZM152.4875 32.346874Q151.53438 32.7375 149.6125 33.003124Q148.53438 33.159374 148.08125 33.3625Q147.64375 33.55 147.39375 33.925Q147.14375 34.3 147.14375 34.76875Q147.14375 35.471874 147.675 35.940624Q148.20625 36.409374 149.2375 36.409374Q150.25313 36.409374 151.03438 35.971874Q151.83125 35.51875 152.20625 34.753124Q152.4875 34.14375 152.4875 32.9875L152.4875 32.346874ZM156.83125 37.55L156.83125 23.2375L158.58125 23.2375L158.58125 37.55L156.83125 37.55ZM166.15938 34.45625L167.90938 34.175Q168.05 35.221874 168.72188 35.784374Q169.39375 36.33125 170.59688 36.33125Q171.8 36.33125 172.37813 35.846874Q172.97188 35.346874 172.97188 34.690624Q172.97188 34.096874 172.45625 33.753124Q172.09688 33.51875 170.65938 33.159374Q168.72188 32.659374 167.97188 32.315624Q167.2375 31.95625 166.84688 31.33125Q166.45625 30.690624 166.45625 29.925Q166.45625 29.2375 166.76875 28.64375Q167.09688 28.05 167.64375 27.659374Q168.05 27.3625 168.75313 27.159374Q169.47188 26.940624 170.28438 26.940624Q171.50313 26.940624 172.425 27.3Q173.34688 27.64375 173.78438 28.253124Q174.22188 28.846874 174.39375 29.846874L172.675 30.08125Q172.55 29.284374 171.9875 28.846874Q171.425 28.39375 170.40938 28.39375Q169.19063 28.39375 168.675 28.8Q168.15938 29.190624 168.15938 29.721874Q168.15938 30.065624 168.37813 30.346874Q168.58125 30.628124 169.05 30.815624Q169.31563 30.909374 170.59688 31.253124Q172.47188 31.753124 173.20625 32.08125Q173.94063 32.39375 174.3625 33.003124Q174.78438 33.596874 174.78438 34.503124Q174.78438 35.378124 174.26875 36.159374Q173.75313 36.940624 172.78438 37.3625Q171.81563 37.784374 170.59688 37.784374Q168.58125 37.784374 167.51875 36.940624Q166.45625 36.096874 166.15938 34.45625ZM180.70625 35.971874L180.95625 37.534374Q180.22188 37.690624 179.62813 37.690624Q178.675 37.690624 178.14375 37.39375Q177.62813 37.08125 177.40938 36.596874Q177.19063 36.096874 177.19063 34.51875L177.19063 28.55L175.90938 28.55L175.90938 27.175L177.19063 27.175L177.19063 24.6125L178.94063 23.55L178.94063 27.175L180.70625 27.175L180.70625 28.55L178.94063 28.55L178.94063 34.6125Q178.94063 35.3625 179.03438 35.58125Q179.12813 35.784374 179.33125 35.925Q179.55 36.05 179.94063 36.05Q180.22188 36.05 180.70625 35.971874ZM189.65938 37.55L189.65938 36.01875Q188.45625 37.784374 186.37813 37.784374Q185.45625 37.784374 184.65938 37.440624Q183.8625 37.08125 183.47188 36.55Q183.09688 36.01875 182.94063 35.2375Q182.83125 34.721874 182.83125 33.596874L182.83125 27.175L184.58125 27.175L184.58125 32.925Q184.58125 34.3 184.69063 34.784374Q184.8625 35.471874 185.39375 35.878124Q185.94063 36.26875 186.72188 36.26875Q187.51875 36.26875 188.20625 35.8625Q188.90938 35.45625 189.19063 34.76875Q189.4875 34.065624 189.4875 32.7375L189.4875 27.175L191.2375 27.175L191.2375 37.55L189.65938 37.55ZM199.59688 37.55L199.59688 36.2375Q198.6125 37.784374 196.69063 37.784374Q195.45625 37.784374 194.40938 37.096874Q193.37813 36.409374 192.8 35.190624Q192.2375 33.971874 192.2375 32.378124Q192.2375 30.815624 192.75313 29.55Q193.26875 28.284374 194.3 27.6125Q195.34688 26.940624 196.6125 26.940624Q197.55 26.940624 198.28438 27.346874Q199.01875 27.7375 199.4875 28.3625L199.4875 23.2375L201.22188 23.2375L201.22188 37.55L199.59688 37.55ZM194.03438 32.378124Q194.03438 34.3625 194.87813 35.346874Q195.72188 36.33125 196.8625 36.33125Q198.01875 36.33125 198.81563 35.39375Q199.62813 34.45625 199.62813 32.51875Q199.62813 30.39375 198.8 29.39375Q197.9875 28.39375 196.78438 28.39375Q195.6125 28.39375 194.81563 29.3625Q194.03438 30.315624 194.03438 32.378124ZM210.97188 34.20625L212.78438 34.440624Q212.3625 36.01875 211.19063 36.909374Q210.03438 37.784374 208.22188 37.784374Q205.95625 37.784374 204.6125 36.39375Q203.28438 34.9875 203.28438 32.45625Q203.28438 29.83125 204.62813 28.39375Q205.97188 26.940624 208.12813 26.940624Q210.20625 26.940624 211.51875 28.3625Q212.84688 29.76875 212.84688 32.346874Q212.84688 32.503124 212.83125 32.815624L205.09688 32.815624Q205.19063 34.51875 206.06563 35.425Q206.94063 36.33125 208.2375 36.33125Q209.20625 36.33125 209.87813 35.83125Q210.56563 35.315624 210.97188 34.20625ZM205.19063 31.3625L210.9875 31.3625Q210.87813 30.065624 210.33125 29.409374Q209.4875 28.39375 208.14375 28.39375Q206.94063 28.39375 206.1125 29.20625Q205.28438 30.003124 205.19063 31.3625ZM214.8625 37.55L214.8625 27.175L216.45625 27.175L216.45625 28.659374Q217.59688 26.940624 219.75313 26.940624Q220.69063 26.940624 221.47188 27.284374Q222.26875 27.6125 222.65938 28.159374Q223.05 28.70625 223.20625 29.45625Q223.3 29.95625 223.3 31.175L223.3 37.55L221.53438 37.55L221.53438 31.2375Q221.53438 30.159374 221.33125 29.628124Q221.12813 29.096874 220.59688 28.784374Q220.08125 28.471874 219.37813 28.471874Q218.25313 28.471874 217.44063 29.190624Q216.62813 29.89375 216.62813 31.878124L216.62813 37.55L214.8625 37.55ZM228.70625 35.971874L228.95625 37.534374Q228.22188 37.690624 227.62813 37.690624Q226.675 37.690624 226.14375 37.39375Q225.62813 37.08125 225.40938 36.596874Q225.19063 36.096874 225.19063 34.51875L225.19063 28.55L223.90938 28.55L223.90938 27.175L225.19063 27.175L225.19063 24.6125L226.94063 23.55L226.94063 27.175L228.70625 27.175L228.70625 28.55L226.94063 28.55L226.94063 34.6125Q226.94063 35.3625 227.03438 35.58125Q227.12813 35.784374 227.33125 35.925Q227.55 36.05 227.94063 36.05Q228.22188 36.05 228.70625 35.971874ZM230.15938 34.45625L231.90938 34.175Q232.05 35.221874 232.72188 35.784374Q233.39375 36.33125 234.59688 36.33125Q235.8 36.33125 236.37813 35.846874Q236.97188 35.346874 236.97188 34.690624Q236.97188 34.096874 236.45625 33.753124Q236.09688 33.51875 234.65938 33.159374Q232.72188 32.659374 231.97188 32.315624Q231.2375 31.95625 230.84688 31.33125Q230.45625 30.690624 230.45625 29.925Q230.45625 29.2375 230.76875 28.64375Q231.09688 28.05 231.64375 27.659374Q232.05 27.3625 232.75313 27.159374Q233.47188 26.940624 234.28438 26.940624Q235.50313 26.940624 236.425 27.3Q237.34688 27.64375 237.78438 28.253124Q238.22188 28.846874 238.39375 29.846874L236.675 30.08125Q236.55 29.284374 235.9875 28.846874Q235.425 28.39375 234.40938 28.39375Q233.19063 28.39375 232.675 28.8Q232.15938 29.190624 232.15938 29.721874Q232.15938 30.065624 232.37813 30.346874Q232.58125 30.628124 233.05 30.815624Q233.31563 30.909374 234.59688 31.253124Q236.47188 31.753124 237.20625 32.08125Q237.94063 32.39375 238.3625 33.003124Q238.78438 33.596874 238.78438 34.503124Q238.78438 35.378124 238.26875 36.159374Q237.75313 36.940624 236.78438 37.3625Q235.81563 37.784374 234.59688 37.784374Q232.58125 37.784374 231.51875 36.940624Q230.45625 36.096874 230.15938 34.45625ZM241.3625 29.175L241.3625 27.175L243.3625 27.175L243.3625 29.175L241.3625 29.175ZM241.3625 37.55L241.3625 35.55L243.3625 35.55L243.3625 37.55L241.3625 37.55ZM254.78438 37.55L251.6125 27.175L253.425 27.175L255.08125 33.159374L255.69063 35.39375Q255.7375 35.221874 256.22186 33.253124L257.8781 27.175L259.6906 27.175L261.2375 33.190624L261.7531 35.175L262.34686 33.175L264.1281 27.175L265.83124 27.175L262.59686 37.55L260.76874 37.55L259.1125 31.33125L258.72186 29.565624L256.6125 37.55L254.78438 37.55ZM267.8625 37.55L267.8625 23.2375L269.6281 23.2375L269.6281 28.3625Q270.8625 26.940624 272.7375 26.940624Q273.8781 26.940624 274.72186 27.39375Q275.58124 27.846874 275.9406 28.659374Q276.3156 29.45625 276.3156 30.971874L276.3156 37.55L274.5656 37.55L274.5656 30.971874Q274.5656 29.659374 273.9875 29.065624Q273.40936 28.45625 272.3781 28.45625Q271.59686 28.45625 270.89374 28.8625Q270.20624 29.26875 269.90936 29.971874Q269.6281 30.659374 269.6281 31.878124L269.6281 37.55L267.8625 37.55ZM284.64374 36.26875Q283.65936 37.096874 282.7531 37.440624Q281.84686 37.784374 280.8156 37.784374Q279.1125 37.784374 278.1906 36.95625Q277.26874 36.1125 277.26874 34.815624Q277.26874 34.05 277.6125 33.425Q277.97186 32.8 278.53436 32.425Q279.09686 32.034374 279.8 31.83125Q280.3156 31.70625 281.3625 31.565624Q283.4875 31.315624 284.4875 30.971874Q284.5031 30.6125 284.5031 30.503124Q284.5031 29.440624 284.0031 28.9875Q283.33124 28.39375 282.0031 28.39375Q280.7531 28.39375 280.15936 28.83125Q279.58124 29.26875 279.3 30.378124L277.58124 30.14375Q277.8156 29.034374 278.34686 28.3625Q278.8781 27.675 279.89374 27.315624Q280.90936 26.940624 282.2531 26.940624Q283.58124 26.940624 284.40936 27.253124Q285.2375 27.565624 285.6281 28.05Q286.01874 28.51875 286.175 29.2375Q286.26874 29.690624 286.26874 30.8625L286.26874 33.20625Q286.26874 35.659374 286.3781 36.315624Q286.4875 36.95625 286.83124 37.55L284.9875 37.55Q284.72186 37.003124 284.64374 36.26875ZM284.4875 32.346874Q283.53436 32.7375 281.6125 33.003124Q280.53436 33.159374 280.08124 33.3625Q279.64374 33.55 279.39374 33.925Q279.14374 34.3 279.14374 34.76875Q279.14374 35.471874 279.675 35.940624Q280.20624 36.409374 281.2375 36.409374Q282.2531 36.409374 283.03436 35.971874Q283.83124 35.51875 284.20624 34.753124Q284.4875 34.14375 284.4875 32.9875L284.4875 32.346874ZM292.70624 35.971874L292.95624 37.534374Q292.22186 37.690624 291.6281 37.690624Q290.675 37.690624 290.14374 37.39375Q289.6281 37.08125 289.40936 36.596874Q289.1906 36.096874 289.1906 34.51875L289.1906 28.55L287.90936 28.55L287.90936 27.175L289.1906 27.175L289.1906 24.6125L290.9406 23.55L290.9406 27.175L292.70624 27.175L292.70624 28.55L290.9406 28.55L290.9406 34.6125Q290.9406 35.3625 291.03436 35.58125Q291.1281 35.784374 291.33124 35.925Q291.55 36.05 291.9406 36.05Q292.22186 36.05 292.70624 35.971874ZM302.78436 37.55L299.6125 27.175L301.425 27.175L303.08124 33.159374L303.6906 35.39375Q303.7375 35.221874 304.22186 33.253124L305.8781 27.175L307.6906 27.175L309.2375 33.190624L309.7531 35.175L310.34686 33.175L312.1281 27.175L313.83124 27.175L310.59686 37.55L308.76874 37.55L307.1125 31.33125L306.72186 29.565624L304.6125 37.55L302.78436 37.55ZM315.22186 32.3625Q315.22186 29.4875 316.8156 28.096874Q318.15936 26.940624 320.08124 26.940624Q322.22186 26.940624 323.5656 28.346874Q324.925 29.753124 324.925 32.221874Q324.925 34.221874 324.33124 35.378124Q323.7375 36.51875 322.58124 37.159374Q321.4406 37.784374 320.08124 37.784374Q317.89374 37.784374 316.55 36.39375Q315.22186 34.9875 315.22186 32.3625ZM317.01874 32.3625Q317.01874 34.3625 317.8781 35.346874Q318.7531 36.33125 320.08124 36.33125Q321.39374 36.33125 322.2531 35.346874Q323.1281 34.346874 323.1281 32.3Q323.1281 30.378124 322.2531 29.39375Q321.3781 28.39375 320.08124 28.39375Q318.7531 28.39375 317.8781 29.39375Q317.01874 30.378124 317.01874 32.3625ZM333.65936 37.55L333.65936 36.01875Q332.45624 37.784374 330.3781 37.784374Q329.45624 37.784374 328.65936 37.440624Q327.8625 37.08125 327.47186 36.55Q327.09686 36.01875 326.9406 35.2375Q326.83124 34.721874 326.83124 33.596874L326.83124 27.175L328.58124 27.175L328.58124 32.925Q328.58124 34.3 328.6906 34.784374Q328.8625 35.471874 329.39374 35.878124Q329.9406 36.26875 330.72186 36.26875Q331.51874 36.26875 332.20624 35.8625Q332.90936 35.45625 333.1906 34.76875Q333.4875 34.065624 333.4875 32.7375L333.4875 27.175L335.2375 27.175L335.2375 37.55L333.65936 37.55ZM336.83124 37.55L336.83124 23.2375L338.58124 23.2375L338.58124 37.55L336.83124 37.55ZM347.59686 37.55L347.59686 36.2375Q346.6125 37.784374 344.6906 37.784374Q343.45624 37.784374 342.40936 37.096874Q341.3781 36.409374 340.8 35.190624Q340.2375 33.971874 340.2375 32.378124Q340.2375 30.815624 340.7531 29.55Q341.26874 28.284374 342.3 27.6125Q343.34686 26.940624 344.6125 26.940624Q345.55 26.940624 346.28436 27.346874Q347.01874 27.7375 347.4875 28.3625L347.4875 23.2375L349.22186 23.2375L349.22186 37.55L347.59686 37.55ZM342.03436 32.378124Q342.03436 34.3625 342.8781 35.346874Q343.72186 36.33125 344.8625 36.33125Q346.01874 36.33125 346.8156 35.39375Q347.6281 34.45625 347.6281 32.51875Q347.6281 30.39375 346.8 29.39375Q345.9875 28.39375 344.78436 28.39375Q343.6125 28.39375 342.8156 29.3625Q342.03436 30.315624 342.03436 32.378124ZM357.78436 41.55L357.59686 39.89375Q358.175 40.05 358.59686 40.05Q359.1906 40.05 359.53436 39.846874Q359.89374 39.659374 360.1125 39.315624Q360.28436 39.05 360.65936 38.003124Q360.70624 37.846874 360.8156 37.565624L356.8781 27.175L358.76874 27.175L360.925 33.190624Q361.34686 34.33125 361.675 35.58125Q361.9875 34.378124 362.39374 33.221874L364.6125 27.175L366.3781 27.175L362.425 37.721874Q361.8 39.440624 361.4406 40.08125Q360.97186 40.95625 360.3625 41.346874Q359.76874 41.753124 358.925 41.753124Q358.40936 41.753124 357.78436 41.55ZM367.22186 32.3625Q367.22186 29.4875 368.8156 28.096874Q370.15936 26.940624 372.08124 26.940624Q374.22186 26.940624 375.5656 28.346874Q376.925 29.753124 376.925 32.221874Q376.925 34.221874 376.33124 35.378124Q375.7375 36.51875 374.58124 37.159374Q373.4406 37.784374 372.08124 37.784374Q369.89374 37.784374 368.55 36.39375Q367.22186 34.9875 367.22186 32.3625ZM369.01874 32.3625Q369.01874 34.3625 369.8781 35.346874Q370.7531 36.33125 372.08124 36.33125Q373.39374 36.33125 374.2531 35.346874Q375.1281 34.346874 375.1281 32.3Q375.1281 30.378124 374.2531 29.39375Q373.3781 28.39375 372.08124 28.39375Q370.7531 28.39375 369.8781 29.39375Q369.01874 30.378124 369.01874 32.3625ZM385.65936 37.55L385.65936 36.01875Q384.45624 37.784374 382.3781 37.784374Q381.45624 37.784374 380.65936 37.440624Q379.8625 37.08125 379.47186 36.55Q379.09686 36.01875 378.9406 35.2375Q378.83124 34.721874 378.83124 33.596874L378.83124 27.175L380.58124 27.175L380.58124 32.925Q380.58124 34.3 380.6906 34.784374Q380.8625 35.471874 381.39374 35.878124Q381.9406 36.26875 382.72186 36.26875Q383.51874 36.26875 384.20624 35.8625Q384.90936 35.45625 385.1906 34.76875Q385.4875 34.065624 385.4875 32.7375L385.4875 27.175L387.2375 27.175L387.2375 37.55L385.65936 37.55ZM401.64374 33.753124L403.3625 33.971874Q403.08124 35.76875 401.90936 36.784374Q400.7531 37.784374 399.05 37.784374Q396.925 37.784374 395.6281 36.39375Q394.33124 35.003124 394.33124 32.409374Q394.33124 30.721874 394.8781 29.471874Q395.4406 28.20625 396.58124 27.58125Q397.72186 26.940624 399.0656 26.940624Q400.7531 26.940624 401.8156 27.8Q402.89374 28.659374 403.20624 30.221874L401.4875 30.4875Q401.2531 29.440624 400.6281 28.925Q400.0031 28.39375 399.1281 28.39375Q397.8 28.39375 396.97186 29.346874Q396.14374 30.3 396.14374 32.346874Q396.14374 34.440624 396.9406 35.39375Q397.7375 36.33125 399.03436 36.33125Q400.0656 36.33125 400.7531 35.70625Q401.45624 35.065624 401.64374 33.753124ZM411.64374 36.26875Q410.65936 37.096874 409.7531 37.440624Q408.84686 37.784374 407.8156 37.784374Q406.1125 37.784374 405.1906 36.95625Q404.26874 36.1125 404.26874 34.815624Q404.26874 34.05 404.6125 33.425Q404.97186 32.8 405.53436 32.425Q406.09686 32.034374 406.8 31.83125Q407.3156 31.70625 408.3625 31.565624Q410.4875 31.315624 411.4875 30.971874Q411.5031 30.6125 411.5031 30.503124Q411.5031 29.440624 411.0031 28.9875Q410.33124 28.39375 409.0031 28.39375Q407.7531 28.39375 407.15936 28.83125Q406.58124 29.26875 406.3 30.378124L404.58124 30.14375Q404.8156 29.034374 405.34686 28.3625Q405.8781 27.675 406.89374 27.315624Q407.90936 26.940624 409.2531 26.940624Q410.58124 26.940624 411.40936 27.253124Q412.2375 27.565624 412.6281 28.05Q413.01874 28.51875 413.175 29.2375Q413.26874 29.690624 413.26874 30.8625L413.26874 33.20625Q413.26874 35.659374 413.3781 36.315624Q413.4875 36.95625 413.83124 37.55L411.9875 37.55Q411.72186 37.003124 411.64374 36.26875ZM411.4875 32.346874Q410.53436 32.7375 408.6125 33.003124Q407.53436 33.159374 407.08124 33.3625Q406.64374 33.55 406.39374 33.925Q406.14374 34.3 406.14374 34.76875Q406.14374 35.471874 406.675 35.940624Q407.20624 36.409374 408.2375 36.409374Q409.2531 36.409374 410.03436 35.971874Q410.83124 35.51875 411.20624 34.753124Q411.4875 34.14375 411.4875 32.9875L411.4875 32.346874ZM415.83124 37.55L415.83124 23.2375L417.58124 23.2375L417.58124 37.55L415.83124 37.55ZM419.83124 37.55L419.83124 23.2375L421.58124 23.2375L421.58124 37.55L419.83124 37.55ZM429.78436 41.55L429.59686 39.89375Q430.175 40.05 430.59686 40.05Q431.1906 40.05 431.53436 39.846874Q431.89374 39.659374 432.1125 39.315624Q432.28436 39.05 432.65936 38.003124Q432.70624 37.846874 432.8156 37.565624L428.8781 27.175L430.76874 27.175L432.925 33.190624Q433.34686 34.33125 433.675 35.58125Q433.9875 34.378124 434.39374 33.221874L436.6125 27.175L438.3781 27.175L434.425 37.721874Q433.8 39.440624 433.4406 40.08125Q432.97186 40.95625 432.3625 41.346874Q431.76874 41.753124 430.925 41.753124Q430.40936 41.753124 429.78436 41.55ZM439.22186 32.3625Q439.22186 29.4875 440.8156 28.096874Q442.15936 26.940624 444.08124 26.940624Q446.22186 26.940624 447.5656 28.346874Q448.925 29.753124 448.925 32.221874Q448.925 34.221874 448.33124 35.378124Q447.7375 36.51875 446.58124 37.159374Q445.4406 37.784374 444.08124 37.784374Q441.89374 37.784374 440.55 36.39375Q439.22186 34.9875 439.22186 32.3625ZM441.01874 32.3625Q441.01874 34.3625 441.8781 35.346874Q442.7531 36.33125 444.08124 36.33125Q445.39374 36.33125 446.2531 35.346874Q447.1281 34.346874 447.1281 32.3Q447.1281 30.378124 446.2531 29.39375Q445.3781 28.39375 444.08124 28.39375Q442.7531 28.39375 441.8781 29.39375Q441.01874 30.378124 441.01874 32.3625ZM457.65936 37.55L457.65936 36.01875Q456.45624 37.784374 454.3781 37.784374Q453.45624 37.784374 452.65936 37.440624Q451.8625 37.08125 451.47186 36.55Q451.09686 36.01875 450.9406 35.2375Q450.83124 34.721874 450.83124 33.596874L450.83124 27.175L452.58124 27.175L452.58124 32.925Q452.58124 34.3 452.6906 34.784374Q452.8625 35.471874 453.39374 35.878124Q453.9406 36.26875 454.72186 36.26875Q455.51874 36.26875 456.20624 35.8625Q456.90936 35.45625 457.1906 34.76875Q457.4875 34.065624 457.4875 32.7375L457.4875 27.175L459.2375 27.175L459.2375 37.55L457.65936 37.55ZM460.84686 37.55L460.84686 27.175L462.425 27.175L462.425 28.753124Q463.03436 27.64375 463.55 27.3Q464.0656 26.940624 464.675 26.940624Q465.5656 26.940624 466.4875 27.503124L465.8781 29.14375Q465.2375 28.753124 464.59686 28.753124Q464.01874 28.753124 463.55 29.1125Q463.09686 29.45625 462.89374 30.065624Q462.6125 31.003124 462.6125 32.1125L462.6125 37.55L460.84686 37.55ZM480.64374 33.753124L482.3625 33.971874Q482.08124 35.76875 480.90936 36.784374Q479.7531 37.784374 478.05 37.784374Q475.925 37.784374 474.6281 36.39375Q473.33124 35.003124 473.33124 32.409374Q473.33124 30.721874 473.8781 29.471874Q474.4406 28.20625 475.58124 27.58125Q476.72186 26.940624 478.0656 26.940624Q479.7531 26.940624 480.8156 27.8Q481.89374 28.659374 482.20624 30.221874L480.4875 30.4875Q480.2531 29.440624 479.6281 28.925Q479.0031 28.39375 478.1281 28.39375Q476.8 28.39375 475.97186 29.346874Q475.14374 30.3 475.14374 32.346874Q475.14374 34.440624 475.9406 35.39375Q476.7375 36.33125 478.03436 36.33125Q479.0656 36.33125 479.7531 35.70625Q480.45624 35.065624 480.64374 33.753124ZM483.22186 32.3625Q483.22186 29.4875 484.8156 28.096874Q486.15936 26.940624 488.08124 26.940624Q490.22186 26.940624 491.5656 28.346874Q492.925 29.753124 492.925 32.221874Q492.925 34.221874 492.33124 35.378124Q491.7375 36.51875 490.58124 37.159374Q489.4406 37.784374 488.08124 37.784374Q485.89374 37.784374 484.55 36.39375Q483.22186 34.9875 483.22186 32.3625ZM485.01874 32.3625Q485.01874 34.3625 485.8781 35.346874Q486.7531 36.33125 488.08124 36.33125Q489.39374 36.33125 490.2531 35.346874Q491.1281 34.346874 491.1281 32.3Q491.1281 30.378124 490.2531 29.39375Q489.3781 28.39375 488.08124 28.39375Q486.7531 28.39375 485.8781 29.39375Q485.01874 30.378124 485.01874 32.3625ZM501.65936 37.55L501.65936 36.01875Q500.45624 37.784374 498.3781 37.784374Q497.45624 37.784374 496.65936 37.440624Q495.8625 37.08125 495.47186 36.55Q495.09686 36.01875 494.9406 35.2375Q494.83124 34.721874 494.83124 33.596874L494.83124 27.175L496.58124 27.175L496.58124 32.925Q496.58124 34.3 496.6906 34.784374Q496.8625 35.471874 497.39374 35.878124Q497.9406 36.26875 498.72186 36.26875Q499.51874 36.26875 500.20624 35.8625Q500.90936 35.45625 501.1906 34.76875Q501.4875 34.065624 501.4875 32.7375L501.4875 27.175L503.2375 27.175L503.2375 37.55L501.65936 37.55ZM504.8625 37.55L504.8625 27.175L506.45624 27.175L506.45624 28.659374Q507.59686 26.940624 509.7531 26.940624Q510.6906 26.940624 511.47186 27.284374Q512.26874 27.6125 512.65936 28.159374Q513.05 28.70625 513.20624 29.45625Q513.3 29.95625 513.3 31.175L513.3 37.55L511.53436 37.55L511.53436 31.2375Q511.53436 30.159374 511.33124 29.628124Q511.1281 29.096874 510.59686 28.784374Q510.08124 28.471874 509.3781 28.471874Q508.2531 28.471874 507.4406 29.190624Q506.6281 29.89375 506.6281 31.878124L506.6281 37.55L504.8625 37.55ZM518.70624 35.971874L518.95624 37.534374Q518.22186 37.690624 517.6281 37.690624Q516.675 37.690624 516.14374 37.39375Q515.6281 37.08125 515.40936 36.596874Q515.1906 36.096874 515.1906 34.51875L515.1906 28.55L513.90936 28.55L513.90936 27.175L515.1906 27.175L515.1906 24.6125L516.9406 23.55L516.9406 27.175L518.70624 27.175L518.70624 28.55L516.9406 28.55L516.9406 34.6125Q516.9406 35.3625 517.03436 35.58125Q517.1281 35.784374 517.33124 35.925Q517.55 36.05 517.9406 36.05Q518.22186 36.05 518.70624 35.971874ZM520.84686 37.55L520.84686 27.175L522.425 27.175L522.425 28.753124Q523.03436 27.64375 523.55 27.3Q524.0656 26.940624 524.675 26.940624Q525.5656 26.940624 526.4875 27.503124L525.8781 29.14375Q525.2375 28.753124 524.59686 28.753124Q524.01874 28.753124 523.55 29.1125Q523.09686 29.45625 522.89374 30.065624Q522.6125 31.003124 522.6125 32.1125L522.6125 37.55L520.84686 37.55ZM527.78436 41.55L527.59686 39.89375Q528.175 40.05 528.59686 40.05Q529.1906 40.05 529.53436 39.846874Q529.89374 39.659374 530.1125 39.315624Q530.28436 39.05 530.65936 38.003124Q530.70624 37.846874 530.8156 37.565624L526.8781 27.175L528.76874 27.175L530.925 33.190624Q531.34686 34.33125 531.675 35.58125Q531.9875 34.378124 532.39374 33.221874L534.6125 27.175L536.3781 27.175L532.425 37.721874Q531.8 39.440624 531.4406 40.08125Q530.97186 40.95625 530.3625 41.346874Q529.76874 41.753124 528.925 41.753124Q528.40936 41.753124 527.78436 41.55ZM543.22186 32.3625Q543.22186 29.4875 544.8156 28.096874Q546.15936 26.940624 548.08124 26.940624Q550.22186 26.940624 551.5656 28.346874Q552.925 29.753124 552.925 32.221874Q552.925 34.221874 552.33124 35.378124Q551.7375 36.51875 550.58124 37.159374Q549.4406 37.784374 548.08124 37.784374Q545.89374 37.784374 544.55 36.39375Q543.22186 34.9875 543.22186 32.3625ZM545.01874 32.3625Q545.01874 34.3625 545.8781 35.346874Q546.7531 36.33125 548.08124 36.33125Q549.39374 36.33125 550.2531 35.346874Q551.1281 34.346874 551.1281 32.3Q551.1281 30.378124 550.2531 29.39375Q549.3781 28.39375 548.08124 28.39375Q546.7531 28.39375 545.8781 29.39375Q545.01874 30.378124 545.01874 32.3625ZM555.28436 37.55L555.28436 28.55L553.7375 28.55L553.7375 27.175L555.28436 27.175L555.28436 26.08125Q555.28436 25.034374 555.47186 24.51875Q555.72186 23.83125 556.3625 23.409374Q557.0031 22.9875 558.15936 22.9875Q558.90936 22.9875 559.8 23.159374L559.53436 24.690624Q558.9875 24.596874 558.5031 24.596874Q557.70624 24.596874 557.3625 24.940624Q557.03436 25.284374 557.03436 26.221874L557.03436 27.175L559.0656 27.175L559.0656 28.55L557.03436 28.55L557.03436 37.55L555.28436 37.55Z" fill-rule="nonzero"/><path fill="#757575" d="M19.221874 56.3625Q19.221874 53.4875 20.815624 52.096874Q22.159374 50.940624 24.08125 50.940624Q26.221874 50.940624 27.565624 52.346874Q28.925 53.753124 28.925 56.221874Q28.925 58.221874 28.33125 59.378124Q27.7375 60.51875 26.58125 61.159374Q25.440624 61.784374 24.08125 61.784374Q21.89375 61.784374 20.55 60.39375Q19.221874 58.9875 19.221874 56.3625ZM21.01875 56.3625Q21.01875 58.3625 21.878124 59.346874Q22.753124 60.33125 24.08125 60.33125Q25.39375 60.33125 26.253124 59.346874Q27.128124 58.346874 27.128124 56.3Q27.128124 54.378124 26.253124 53.39375Q25.378124 52.39375 24.08125 52.39375Q22.753124 52.39375 21.878124 53.39375Q21.01875 54.378124 21.01875 56.3625ZM30.846874 61.55L30.846874 51.175L32.425 51.175L32.425 52.753124Q33.034374 51.64375 33.55 51.3Q34.065624 50.940624 34.675 50.940624Q35.565624 50.940624 36.4875 51.503124L35.878124 53.14375Q35.2375 52.753124 34.596874 52.753124Q34.01875 52.753124 33.55 53.1125Q33.096874 53.45625 32.89375 54.065624Q32.6125 55.003124 32.6125 56.1125L32.6125 61.55L30.846874 61.55ZM37.878124 49.253124L37.878124 47.2375L39.64375 47.2375L39.64375 49.253124L37.878124 49.253124ZM37.878124 61.55L37.878124 51.175L39.64375 51.175L39.64375 61.55L37.878124 61.55ZM41.55 62.409374L43.253124 62.659374Q43.3625 63.45625 43.846874 63.815624Q44.503124 64.3 45.64375 64.3Q46.8625 64.3 47.51875 63.815624Q48.190624 63.33125 48.425 62.45625Q48.565624 61.909374 48.55 60.190624Q47.39375 61.55 45.675 61.55Q43.534374 61.55 42.3625 60.003124Q41.190624 58.45625 41.190624 56.3Q41.190624 54.815624 41.721874 53.565624Q42.26875 52.315624 43.284374 51.628124Q44.315624 50.940624 45.690624 50.940624Q47.51875 50.940624 48.721874 52.425L48.721874 51.175L50.33125 51.175L50.33125 60.14375Q50.33125 62.565624 49.83125 63.565624Q49.346874 64.58125 48.26875 65.15938Q47.20625 65.75313 45.64375 65.75313Q43.8 65.75313 42.64375 64.925Q41.503124 64.09688 41.55 62.409374ZM43.003124 56.175Q43.003124 58.221874 43.815624 59.159374Q44.628124 60.096874 45.846874 60.096874Q47.05 60.096874 47.8625 59.159374Q48.690624 58.221874 48.690624 56.2375Q48.690624 54.33125 47.846874 53.3625Q47.003124 52.39375 45.815624 52.39375Q44.64375 52.39375 43.815624 53.346874Q43.003124 54.3 43.003124 56.175ZM52.878124 49.253124L52.878124 47.2375L54.64375 47.2375L54.64375 49.253124L52.878124 49.253124ZM52.878124 61.55L52.878124 51.175L54.64375 51.175L54.64375 61.55L52.878124 61.55ZM56.8625 61.55L56.8625 51.175L58.45625 51.175L58.45625 52.659374Q59.596874 50.940624 61.753124 50.940624Q62.690624 50.940624 63.471874 51.284374Q64.26875 51.6125 64.65938 52.159374Q65.05 52.70625 65.20625 53.45625Q65.3 53.95625 65.3 55.175L65.3 61.55L63.534374 61.55L63.534374 55.2375Q63.534374 54.159374 63.33125 53.628124Q63.128124 53.096874 62.596874 52.784374Q62.08125 52.471874 61.378124 52.471874Q60.253124 52.471874 59.440624 53.190624Q58.628124 53.89375 58.628124 55.878124L58.628124 61.55L56.8625 61.55ZM70.15938 58.01875Q70.14375 57.675 70.14375 57.503124Q70.14375 56.45625 70.44063 55.70625Q70.65938 55.14375 71.14375 54.565624Q71.4875 54.14375 72.39375 53.346874Q73.31563 52.534374 73.58125 52.065624Q73.8625 51.58125 73.8625 51.01875Q73.8625 49.9875 73.05 49.221874Q72.25313 48.440624 71.09688 48.440624Q69.97188 48.440624 69.22188 49.14375Q68.47188 49.846874 68.2375 51.33125L66.425 51.1125Q66.675 49.1125 67.87813 48.05Q69.08125 46.9875 71.06563 46.9875Q73.175 46.9875 74.425 48.128124Q75.675 49.26875 75.675 50.89375Q75.675 51.83125 75.22188 52.628124Q74.78438 53.409374 73.50313 54.55Q72.64375 55.315624 72.37813 55.675Q72.12813 56.034374 71.9875 56.503124Q71.8625 56.971874 71.84688 58.01875L70.15938 58.01875ZM70.05 61.55L70.05 59.55L72.05 59.55L72.05 61.55L70.05 61.55Z" fill-rule="nonzero"/></svg>