<svg version="1.1" viewBox="0.0 0.0 600.0 371.0" fill="none" stroke="none" stroke-linecap="square" stroke-miterlimit="10" width="600" height="371" xmlns:xlink="http://www.w3.org/1999/xlink" xmlns="http://www.w3.org/2000/svg"><path fill="#ffffff" d="M0 0L600.0 0L600.0 371.0L0 371.0L0 0Z" fill-rule="nonzero"/><path stroke="#333333" stroke-width="1.0" stroke-linecap="butt" d="M45.5 286.5L581.5 286.5" fill-rule="nonzero"/><path stroke="#cccccc" stroke-width="1.0" stroke-linecap="butt" d="M45.5 230.5L581.5 230.5" fill-rule="nonzero"/><path stroke="#cccccc" stroke-width="1.0" stroke-linecap="butt" d="M45.5 174.5L581.5 174.5" fill-rule="nonzero"/><path stroke="#cccccc" stroke-width="1.0" stroke-linecap="butt" d="M45.5 118.5L581.5 118.5" fill-rule="nonzero"/><path stroke="#cccccc" stroke-width="1.0" stroke-linecap="butt" d="M45.5 61.5L581.5 61.5" fill-rule="nonzero"/><clipPath id="id_0"><path d="M45.55 61.916668L581.45 61.916668L581.45 286.45L45.55 286.45L45.55 61.916668Z" clip-rule="nonzero"/></clipPath><path stroke="#000000" stroke-width="2.0" stroke-linecap="butt" stroke-opacity="0.0" clip-path="url(#id_0)" d="M169.0 286.0L89.0 286.0L89.0 75.0C89.0 73.89543 89.89543 73.0 91.0 73.0L167.0 73.0C168.10457 73.0 169.0 73.89543 169.0 75.0Z" fill-rule="nonzero"/><path fill="#4285f4" clip-path="url(#id_0)" d="M169.0 286.0L89.0 286.0L89.0 75.0C89.0 73.89543 89.89543 73.0 91.0 73.0L167.0 73.0C168.10457 73.0 169.0 73.89543 169.0 75.0Z" fill-rule="nonzero"/><path stroke="#000000" stroke-width="2.0" stroke-linecap="butt" stroke-opacity="0.0" clip-path="url(#id_0)" d="M292.0 286.0L212.0 286.0L212.0 266.0C212.0 264.89542 212.89543 264.0 214.0 264.0L290.0 264.0C291.10458 264.0 292.0 264.89542 292.0 266.0Z" fill-rule="nonzero"/><path fill="#4285f4" clip-path="url(#id_0)" d="M292.0 286.0L212.0 286.0L212.0 266.0C212.0 264.89542 212.89543 264.0 214.0 264.0L290.0 264.0C291.10458 264.0 292.0 264.89542 292.0 266.0Z" fill-rule="nonzero"/><path stroke="#000000" stroke-width="2.0" stroke-linecap="butt" stroke-opacity="0.0" clip-path="url(#id_0)" d="M415.0 286.0L335.0 286.0L335.0 165.0C335.0 163.89543 335.89542 163.0 337.0 163.0L413.0 163.0C414.10458 163.0 415.0 163.89543 415.0 165.0Z" fill-rule="nonzero"/><path fill="#4285f4" clip-path="url(#id_0)" d="M415.0 286.0L335.0 286.0L335.0 165.0C335.0 163.89543 335.89542 163.0 337.0 163.0L413.0 163.0C414.10458 163.0 415.0 163.89543 415.0 165.0Z" fill-rule="nonzero"/><path stroke="#000000" stroke-width="2.0" stroke-linecap="butt" stroke-opacity="0.0" clip-path="url(#id_0)" d="M538.0 286.0L458.0 286.0L458.0 266.0C458.0 264.89542 458.89542 264.0 460.0 264.0L536.0 264.0C537.10455 264.0 538.0 264.89542 538.0 266.0Z" fill-rule="nonzero"/><path fill="#4285f4" clip-path="url(#id_0)" d="M538.0 286.0L458.0 286.0L458.0 266.0C458.0 264.89542 458.89542 264.0 460.0 264.0L536.0 264.0C537.10455 264.0 538.0 264.89542 538.0 266.0Z" fill-rule="nonzero"/><path fill="#000000" d="M291.95312 349.45L291.95312 340.85626L298.15625 340.85626L298.15625 341.8719L293.09375 341.8719L293.09375 344.4969L297.84375 344.4969L297.84375 345.5125L293.09375 345.5125L293.09375 348.4344L298.35938 348.4344L298.35938 349.45L291.95312 349.45ZM302.09375 348.5125L302.25 349.4344Q301.79688 349.52814 301.45312 349.52814Q300.875 349.52814 300.5625 349.35626Q300.25 349.16876 300.10938 348.8719Q299.98438 348.575 299.98438 347.6219L299.98438 344.04376L299.21875 344.04376L299.21875 343.23126L299.98438 343.23126L299.98438 341.6844L301.03125 341.0594L301.03125 343.23126L302.09375 343.23126L302.09375 344.04376L301.03125 344.04376L301.03125 347.6844Q301.03125 348.1375 301.07812 348.2625Q301.14062 348.3875 301.26562 348.46564Q301.39062 348.54376 301.625 348.54376Q301.8125 348.54376 302.09375 348.5125ZM302.79688 349.45L302.79688 340.85626L303.84375 340.85626L303.84375 343.9344Q304.57812 343.09064 305.70312 343.09064Q306.40625 343.09064 306.90625 343.3719Q307.42188 343.6375 307.64062 344.1219Q307.85938 344.59064 307.85938 345.5125L307.85938 349.45L306.8125 349.45L306.8125 345.5125Q306.8125 344.71564 306.46875 344.35626Q306.125 343.9969 305.5 343.9969Q305.03125 343.9969 304.60938 344.2469Q304.20312 344.48126 304.01562 344.90314Q303.84375 345.3094 303.84375 346.04376L303.84375 349.45L302.79688 349.45ZM309.79688 349.45L309.79688 343.23126L310.73438 343.23126L310.73438 344.10626Q311.42188 343.09064 312.71875 343.09064Q313.28125 343.09064 313.75 343.29376Q314.23438 343.4969 314.46875 343.825Q314.70312 344.15314 314.79688 344.59064Q314.84375 344.8875 314.84375 345.6219L314.84375 349.45L313.79688 349.45L313.79688 345.66876Q313.79688 345.0125 313.67188 344.7Q313.54688 344.3875 313.23438 344.2Q312.92188 343.9969 312.5 343.9969Q311.82812 343.9969 311.32812 344.4344Q310.84375 344.85626 310.84375 346.04376L310.84375 349.45L309.79688 349.45ZM316.79688 342.075L316.79688 340.85626L317.85938 340.85626L317.85938 342.075L316.79688 342.075ZM316.79688 349.45L316.79688 343.23126L317.85938 343.23126L317.85938 349.45L316.79688 349.45ZM323.85938 347.16876L324.89062 347.3094Q324.71875 348.3719 324.01562 348.98126Q323.3125 349.59064 322.29688 349.59064Q321.01562 349.59064 320.23438 348.7625Q319.46875 347.91876 319.46875 346.35626Q319.46875 345.35626 319.79688 344.60626Q320.14062 343.84064 320.8125 343.46564Q321.5 343.09064 322.3125 343.09064Q323.3125 343.09064 323.95312 343.60626Q324.60938 344.10626 324.79688 345.0594L323.76562 345.21564Q323.625 344.59064 323.25 344.27814Q322.875 343.95 322.34375 343.95Q321.54688 343.95 321.04688 344.52814Q320.54688 345.09064 320.54688 346.325Q320.54688 347.59064 321.03125 348.15314Q321.51562 348.71564 322.28125 348.71564Q322.90625 348.71564 323.3125 348.34064Q323.73438 347.96564 323.85938 347.16876ZM325.79688 342.075L325.79688 340.85626L326.85938 340.85626L326.85938 342.075L325.79688 342.075ZM325.79688 349.45L325.79688 343.23126L326.85938 343.23126L326.85938 349.45L325.79688 349.45ZM331.09375 348.5125L331.25 349.4344Q330.79688 349.52814 330.45312 349.52814Q329.875 349.52814 329.5625 349.35626Q329.25 349.16876 329.10938 348.8719Q328.98438 348.575 328.98438 347.6219L328.98438 344.04376L328.21875 344.04376L328.21875 343.23126L328.98438 343.23126L328.98438 341.6844L330.03125 341.0594L330.03125 343.23126L331.09375 343.23126L331.09375 344.04376L330.03125 344.04376L330.03125 347.6844Q330.03125 348.1375 330.07812 348.2625Q330.14062 348.3875 330.26562 348.46564Q330.39062 348.54376 330.625 348.54376Q330.8125 348.54376 331.09375 348.5125ZM331.75 351.84064L331.625 350.85626Q331.96875 350.95 332.23438 350.95Q332.57812 350.95 332.78125 350.825Q333.0 350.71564 333.14062 350.5125Q333.23438 350.34064 333.46875 349.71564Q333.48438 349.6375 333.5625 349.46564L331.1875 343.23126L332.32812 343.23126L333.625 346.825Q333.875 347.5125 334.07812 348.27814Q334.26562 347.54376 334.51562 346.85626L335.84375 343.23126L336.89062 343.23126L334.53125 349.5594Q334.14062 350.575 333.9375 350.96564Q333.65625 351.4969 333.28125 351.73126Q332.92188 351.98126 332.42188 351.98126Q332.125 351.98126 331.75 351.84064Z" fill-rule="nonzero"/><path fill="#000000" d="M33.05 286.21564Q33.05 284.6844 33.3625 283.7625Q33.675 282.825 34.284374 282.325Q34.909374 281.825 35.846874 281.825Q36.534374 281.825 37.05 282.10626Q37.58125 282.3875 37.925 282.91876Q38.26875 283.4344 38.45625 284.1844Q38.64375 284.9344 38.64375 286.21564Q38.64375 287.73126 38.33125 288.65314Q38.034374 289.575 37.409374 290.09064Q36.8 290.59064 35.846874 290.59064Q34.6125 290.59064 33.89375 289.7Q33.05 288.6375 33.05 286.21564ZM34.128124 286.21564Q34.128124 288.325 34.628124 289.02814Q35.128124 289.73126 35.846874 289.73126Q36.58125 289.73126 37.065624 289.02814Q37.565624 288.325 37.565624 286.21564Q37.565624 284.09064 37.065624 283.40314Q36.58125 282.7 35.83125 282.7Q35.1125 282.7 34.675 283.3094Q34.128124 284.09064 34.128124 286.21564Z" fill-rule="nonzero"/><path fill="#000000" d="M33.05 232.06667L34.159374 231.97292Q34.284374 232.78542 34.721874 233.19167Q35.175 233.59792 35.815624 233.59792Q36.565624 233.59792 37.096874 233.01979Q37.628124 232.44167 37.628124 231.50417Q37.628124 230.59792 37.1125 230.08229Q36.6125 229.55104 35.784374 229.55104Q35.284374 229.55104 34.8625 229.78542Q34.45625 230.01979 34.221874 230.37917L33.2375 230.25417L34.065624 225.84792L38.346874 225.84792L38.346874 226.84792L34.909374 226.84792L34.45625 229.16042Q35.221874 228.61354 36.065624 228.61354Q37.190624 228.61354 37.95625 229.39479Q38.7375 230.17604 38.7375 231.41042Q38.7375 232.56667 38.065624 233.42604Q37.2375 234.45729 35.815624 234.45729Q34.64375 234.45729 33.89375 233.80104Q33.159374 233.14479 33.05 232.06667Z" fill-rule="nonzero"/><path fill="#000000" d="M30.01875 178.18333L28.971874 178.18333L28.971874 171.46458Q28.58125 171.82396 27.95625 172.19896Q27.346874 172.55833 26.8625 172.73021L26.8625 171.71458Q27.7375 171.29271 28.39375 170.71458Q29.065624 170.12083 29.346874 169.55833L30.01875 169.55833L30.01875 178.18333ZM33.05 173.94896Q33.05 172.41771 33.3625 171.49583Q33.675 170.55833 34.284374 170.05833Q34.909374 169.55833 35.846874 169.55833Q36.534374 169.55833 37.05 169.83958Q37.58125 170.12083 37.925 170.65208Q38.26875 171.16771 38.45625 171.91771Q38.64375 172.66771 38.64375 173.94896Q38.64375 175.46458 38.33125 176.38646Q38.034374 177.30833 37.409374 177.82396Q36.8 178.32396 35.846874 178.32396Q34.6125 178.32396 33.89375 177.43333Q33.05 176.37083 33.05 173.94896ZM34.128124 173.94896Q34.128124 176.05833 34.628124 176.76146Q35.128124 177.46458 35.846874 177.46458Q36.58125 177.46458 37.065624 176.76146Q37.565624 176.05833 37.565624 173.94896Q37.565624 171.82396 37.065624 171.13646Q36.58125 170.43333 35.83125 170.43333Q35.1125 170.43333 34.675 171.04271Q34.128124 171.82396 34.128124 173.94896Z" fill-rule="nonzero"/><path fill="#000000" d="M30.01875 122.05L28.971874 122.05L28.971874 115.33125Q28.58125 115.69063 27.95625 116.06563Q27.346874 116.425 26.8625 116.59688L26.8625 115.58125Q27.7375 115.15938 28.39375 114.58125Q29.065624 113.9875 29.346874 113.425L30.01875 113.425L30.01875 122.05ZM33.05 119.8L34.159374 119.70625Q34.284374 120.51875 34.721874 120.925Q35.175 121.33125 35.815624 121.33125Q36.565624 121.33125 37.096874 120.75313Q37.628124 120.175 37.628124 119.2375Q37.628124 118.33125 37.1125 117.81563Q36.6125 117.28438 35.784374 117.28438Q35.284374 117.28438 34.8625 117.51875Q34.45625 117.75313 34.221874 118.1125L33.2375 117.9875L34.065624 113.58125L38.346874 113.58125L38.346874 114.58125L34.909374 114.58125L34.45625 116.89375Q35.221874 116.34688 36.065624 116.34688Q37.190624 116.34688 37.95625 117.12813Q38.7375 117.90938 38.7375 119.14375Q38.7375 120.3 38.065624 121.15938Q37.2375 122.19063 35.815624 122.19063Q34.64375 122.19063 33.89375 121.53438Q33.159374 120.87813 33.05 119.8Z" fill-rule="nonzero"/><path fill="#000000" d="M31.596874 64.90104L31.596874 65.916664L25.909374 65.916664Q25.909374 65.541664 26.034374 65.18229Q26.253124 64.604164 26.721874 64.041664Q27.20625 63.479164 28.1125 62.74479Q29.51875 61.58854 30.003124 60.916664Q30.503124 60.24479 30.503124 59.65104Q30.503124 59.02604 30.05 58.604164Q29.596874 58.166664 28.878124 58.166664Q28.1125 58.166664 27.659374 58.61979Q27.20625 59.072914 27.190624 59.885414L26.1125 59.77604Q26.221874 58.55729 26.940624 57.93229Q27.675 57.291664 28.909374 57.291664Q30.14375 57.291664 30.8625 57.979164Q31.58125 58.666664 31.58125 59.68229Q31.58125 60.197914 31.3625 60.697914Q31.159374 61.18229 30.659374 61.74479Q30.175 62.291664 29.05 63.24479Q28.096874 64.041664 27.815624 64.33854Q27.55 64.61979 27.378124 64.90104L31.596874 64.90104ZM33.05 61.68229Q33.05 60.15104 33.3625 59.229164Q33.675 58.291664 34.284374 57.791664Q34.909374 57.291664 35.846874 57.291664Q36.534374 57.291664 37.05 57.572914Q37.58125 57.854164 37.925 58.385414Q38.26875 58.90104 38.45625 59.65104Q38.64375 60.40104 38.64375 61.68229Q38.64375 63.197914 38.33125 64.11979Q38.034374 65.041664 37.409374 65.55729Q36.8 66.05729 35.846874 66.05729Q34.6125 66.05729 33.89375 65.166664Q33.05 64.104164 33.05 61.68229ZM34.128124 61.68229Q34.128124 63.791664 34.628124 64.49479Q35.128124 65.197914 35.846874 65.197914Q36.58125 65.197914 37.065624 64.49479Q37.565624 63.791664 37.565624 61.68229Q37.565624 59.55729 37.065624 58.86979Q36.58125 58.166664 35.83125 58.166664Q35.1125 58.166664 34.675 58.77604Q34.128124 59.55729 34.128124 61.68229Z" fill-rule="nonzero"/><path fill="#000000" d="M78.69127 303.45L81.988144 294.85626L83.206894 294.85626L86.72252 303.45L85.44127 303.45L84.425644 300.84064L80.84752 300.84064L79.894394 303.45L78.69127 303.45ZM81.175644 299.91876L84.081894 299.91876L83.19127 297.54376Q82.769394 296.46564 82.581894 295.7625Q82.41002 296.59064 82.113144 297.40314L81.175644 299.91876ZM86.081894 301.59064L87.113144 301.4344Q87.206894 302.0594 87.59752 302.3875Q88.00377 302.71564 88.738144 302.71564Q89.456894 302.71564 89.800644 302.4344Q90.16002 302.1375 90.16002 301.73126Q90.16002 301.3719 89.84752 301.16876Q89.62877 301.02814 88.769394 300.8094Q87.613144 300.5125 87.16002 300.3094Q86.72252 300.09064 86.488144 299.71564Q86.25377 299.34064 86.25377 298.8719Q86.25377 298.46564 86.44127 298.10626Q86.62877 297.7469 86.956894 297.5125Q87.206894 297.34064 87.62877 297.21564Q88.050644 297.09064 88.550644 297.09064Q89.269394 297.09064 89.81627 297.3094Q90.37877 297.5125 90.644394 297.8719Q90.91002 298.23126 91.00377 298.825L89.97252 298.96564Q89.91002 298.4969 89.56627 298.23126Q89.238144 297.95 88.613144 297.95Q87.894394 297.95 87.581894 298.2Q87.269394 298.4344 87.269394 298.7625Q87.269394 298.96564 87.394394 299.1219Q87.53502 299.29376 87.800644 299.40314Q87.956894 299.46564 88.738144 299.66876Q89.863144 299.98126 90.300644 300.16876Q90.738144 300.35626 90.988144 300.71564Q91.238144 301.075 91.238144 301.6219Q91.238144 302.15314 90.925644 302.6219Q90.62877 303.075 90.050644 303.34064Q89.47252 303.59064 88.738144 303.59064Q87.519394 303.59064 86.87877 303.09064Q86.25377 302.575 86.081894 301.59064ZM93.50377 296.075L93.50377 294.85626L94.56627 294.85626L94.56627 296.075L93.50377 296.075ZM93.50377 303.45L93.50377 297.23126L94.56627 297.23126L94.56627 303.45L93.50377 303.45ZM100.56627 302.6844Q99.97252 303.1844 99.425644 303.3875Q98.894394 303.59064 98.269394 303.59064Q97.238144 303.59064 96.69127 303.09064Q96.144394 302.59064 96.144394 301.8094Q96.144394 301.35626 96.34752 300.98126Q96.550644 300.59064 96.894394 300.3719Q97.238144 300.1375 97.66002 300.02814Q97.956894 299.9344 98.59752 299.85626Q99.863144 299.71564 100.47252 299.4969Q100.47252 299.27814 100.47252 299.23126Q100.47252 298.575 100.175644 298.3094Q99.769394 297.96564 98.97252 297.96564Q98.238144 297.96564 97.87877 298.23126Q97.519394 298.48126 97.34752 299.1375L96.31627 298.9969Q96.456894 298.34064 96.78502 297.9344Q97.113144 297.52814 97.72252 297.3094Q98.331894 297.09064 99.12877 297.09064Q99.925644 297.09064 100.425644 297.27814Q100.925644 297.46564 101.16002 297.7469Q101.394394 298.02814 101.488144 298.46564Q101.53502 298.73126 101.53502 299.4344L101.53502 300.84064Q101.53502 302.3094 101.59752 302.7Q101.675644 303.09064 101.87877 303.45L100.769394 303.45Q100.613144 303.1219 100.56627 302.6844ZM100.47252 300.325Q99.894394 300.5594 98.75377 300.73126Q98.09752 300.825 97.831894 300.95Q97.56627 301.0594 97.41002 301.27814Q97.269394 301.4969 97.269394 301.77814Q97.269394 302.2 97.581894 302.48126Q97.91002 302.7625 98.519394 302.7625Q99.12877 302.7625 99.59752 302.4969Q100.081894 302.23126 100.300644 301.7625Q100.47252 301.40314 100.47252 300.71564L100.47252 300.325ZM103.50377 303.45L103.50377 297.23126L104.44127 297.23126L104.44127 298.10626Q105.12877 297.09064 106.425644 297.09064Q106.988144 297.09064 107.456894 297.29376Q107.94127 297.4969 108.175644 297.825Q108.41002 298.15314 108.50377 298.59064Q108.550644 298.8875 108.550644 299.6219L108.550644 303.45L107.50377 303.45L107.50377 299.66876Q107.50377 299.0125 107.37877 298.7Q107.25377 298.3875 106.94127 298.2Q106.62877 297.9969 106.206894 297.9969Q105.53502 297.9969 105.03502 298.4344Q104.550644 298.85626 104.550644 300.04376L104.550644 303.45L103.50377 303.45ZM112.69127 303.45L115.988144 294.85626L117.206894 294.85626L120.72252 303.45L119.44127 303.45L118.425644 300.84064L114.84752 300.84064L113.894394 303.45L112.69127 303.45ZM115.175644 299.91876L118.081894 299.91876L117.19127 297.54376Q116.769394 296.46564 116.581894 295.7625Q116.41002 296.59064 116.113144 297.40314L115.175644 299.91876ZM120.50377 303.45L120.50377 297.23126L121.44127 297.23126L121.44127 298.10626Q121.738144 297.6375 122.22252 297.3719Q122.706894 297.09064 123.331894 297.09064Q124.019394 297.09064 124.456894 297.3719Q124.91002 297.65314 125.081894 298.16876Q125.831894 297.09064 127.00377 297.09064Q127.94127 297.09064 128.42564 297.60626Q128.92564 298.10626 128.92564 299.1844L128.92564 303.45L127.87877 303.45L127.87877 299.52814Q127.87877 298.90314 127.769394 298.6219Q127.675644 298.34064 127.41002 298.16876Q127.144394 297.9969 126.769394 297.9969Q126.113144 297.9969 125.675644 298.4344Q125.25377 298.8719 125.25377 299.84064L125.25377 303.45L124.19127 303.45L124.19127 299.40314Q124.19127 298.7 123.925644 298.35626Q123.675644 297.9969 123.09752 297.9969Q122.644394 297.9969 122.269394 298.23126Q121.894394 298.46564 121.72252 298.91876Q121.550644 299.3719 121.550644 300.21564L121.550644 303.45L120.50377 303.45ZM135.75377 301.45L136.84752 301.575Q136.59752 302.52814 135.8944 303.0594Q135.19127 303.59064 134.11314 303.59064Q132.75377 303.59064 131.94127 302.7469Q131.1444 301.90314 131.1444 300.3875Q131.1444 298.825 131.9569 297.96564Q132.7694 297.09064 134.05064 297.09064Q135.30064 297.09064 136.0819 297.9344Q136.87877 298.77814 136.87877 300.325Q136.87877 300.41876 136.87877 300.60626L132.23814 300.60626Q132.30064 301.6375 132.81627 302.1844Q133.3319 302.71564 134.11314 302.71564Q134.69127 302.71564 135.09752 302.41876Q135.5194 302.10626 135.75377 301.45ZM132.30064 299.7469L135.7694 299.7469Q135.7069 298.95 135.37877 298.5594Q134.86314 297.95 134.06627 297.95Q133.3319 297.95 132.8319 298.4344Q132.34752 298.91876 132.30064 299.7469ZM138.48814 303.45L138.48814 297.23126L139.44127 297.23126L139.44127 298.16876Q139.80064 297.5125 140.09752 297.3094Q140.41002 297.09064 140.78502 297.09064Q141.31627 297.09064 141.86314 297.41876L141.50377 298.40314Q141.11314 298.16876 140.73814 298.16876Q140.37877 298.16876 140.09752 298.3875Q139.8319 298.59064 139.72252 298.96564Q139.53502 299.52814 139.53502 300.1844L139.53502 303.45L138.48814 303.45ZM142.50377 296.075L142.50377 294.85626L143.56627 294.85626L143.56627 296.075L142.50377 296.075ZM142.50377 303.45L142.50377 297.23126L143.56627 297.23126L143.56627 303.45L142.50377 303.45ZM149.56627 301.16876L150.59752 301.3094Q150.42564 302.3719 149.72252 302.98126Q149.0194 303.59064 148.00377 303.59064Q146.72252 303.59064 145.94127 302.7625Q145.17564 301.91876 145.17564 300.35626Q145.17564 299.35626 145.50377 298.60626Q145.84752 297.84064 146.5194 297.46564Q147.2069 297.09064 148.0194 297.09064Q149.0194 297.09064 149.66002 297.60626Q150.31627 298.10626 150.50377 299.0594L149.47252 299.21564Q149.3319 298.59064 148.9569 298.27814Q148.5819 297.95 148.05064 297.95Q147.25377 297.95 146.75377 298.52814Q146.25377 299.09064 146.25377 300.325Q146.25377 301.59064 146.73814 302.15314Q147.22252 302.71564 147.98814 302.71564Q148.61314 302.71564 149.0194 302.34064Q149.44127 301.96564 149.56627 301.16876ZM155.56627 302.6844Q154.97252 303.1844 154.42564 303.3875Q153.8944 303.59064 153.2694 303.59064Q152.23814 303.59064 151.69127 303.09064Q151.1444 302.59064 151.1444 301.8094Q151.1444 301.35626 151.34752 300.98126Q151.55064 300.59064 151.8944 300.3719Q152.23814 300.1375 152.66002 300.02814Q152.9569 299.9344 153.59752 299.85626Q154.86314 299.71564 155.47252 299.4969Q155.47252 299.27814 155.47252 299.23126Q155.47252 298.575 155.17564 298.3094Q154.7694 297.96564 153.97252 297.96564Q153.23814 297.96564 152.87877 298.23126Q152.5194 298.48126 152.34752 299.1375L151.31627 298.9969Q151.4569 298.34064 151.78502 297.9344Q152.11314 297.52814 152.72252 297.3094Q153.3319 297.09064 154.12877 297.09064Q154.92564 297.09064 155.42564 297.27814Q155.92564 297.46564 156.16002 297.7469Q156.3944 298.02814 156.48814 298.46564Q156.53502 298.73126 156.53502 299.4344L156.53502 300.84064Q156.53502 302.3094 156.59752 302.7Q156.67564 303.09064 156.87877 303.45L155.7694 303.45Q155.61314 303.1219 155.56627 302.6844ZM155.47252 300.325Q154.8944 300.5594 153.75377 300.73126Q153.09752 300.825 152.8319 300.95Q152.56627 301.0594 152.41002 301.27814Q152.2694 301.4969 152.2694 301.77814Q152.2694 302.2 152.5819 302.48126Q152.91002 302.7625 153.5194 302.7625Q154.12877 302.7625 154.59752 302.4969Q155.0819 302.23126 155.30064 301.7625Q155.47252 301.40314 155.47252 300.71564L155.47252 300.325ZM158.50377 303.45L158.50377 297.23126L159.44127 297.23126L159.44127 298.10626Q160.12877 297.09064 161.42564 297.09064Q161.98814 297.09064 162.4569 297.29376Q162.94127 297.4969 163.17564 297.825Q163.41002 298.15314 163.50377 298.59064Q163.55064 298.8875 163.55064 299.6219L163.55064 303.45L162.50377 303.45L162.50377 299.66876Q162.50377 299.0125 162.37877 298.7Q162.25377 298.3875 161.94127 298.2Q161.62877 297.9969 161.2069 297.9969Q160.53502 297.9969 160.03502 298.4344Q159.55064 298.85626 159.55064 300.04376L159.55064 303.45L158.50377 303.45ZM168.11314 300.34064Q168.11314 298.60626 169.06627 297.77814Q169.86314 297.09064 171.0194 297.09064Q172.30064 297.09064 173.11314 297.9344Q173.94127 298.7625 173.94127 300.2469Q173.94127 301.45 173.5819 302.1375Q173.22252 302.825 172.5194 303.21564Q171.8319 303.59064 171.0194 303.59064Q169.72252 303.59064 168.91002 302.7625Q168.11314 301.91876 168.11314 300.34064ZM169.19127 300.34064Q169.19127 301.52814 169.7069 302.1219Q170.23814 302.71564 171.0194 302.71564Q171.81627 302.71564 172.3319 302.1219Q172.84752 301.52814 172.84752 300.3094Q172.84752 299.15314 172.31627 298.5594Q171.80064 297.96564 171.0194 297.96564Q170.23814 297.96564 169.7069 298.5594Q169.19127 299.1375 169.19127 300.34064ZM175.48814 303.45L175.48814 297.23126L176.44127 297.23126L176.44127 298.16876Q176.80064 297.5125 177.09752 297.3094Q177.41002 297.09064 177.78502 297.09064Q178.31627 297.09064 178.86314 297.41876L178.50377 298.40314Q178.11314 298.16876 177.73814 298.16876Q177.37877 298.16876 177.09752 298.3875Q176.8319 298.59064 176.72252 298.96564Q176.53502 299.52814 176.53502 300.1844L176.53502 303.45L175.48814 303.45Z" fill-rule="nonzero"/><path fill="#000000" d="M113.19127 317.45L116.488144 308.85626L117.706894 308.85626L121.22252 317.45L119.94127 317.45L118.925644 314.84064L115.34752 314.84064L114.394394 317.45L113.19127 317.45ZM115.675644 313.91876L118.581894 313.91876L117.69127 311.54376Q117.269394 310.46564 117.081894 309.7625Q116.91002 310.59064 116.613144 311.40314L115.675644 313.91876ZM120.581894 315.59064L121.613144 315.4344Q121.706894 316.0594 122.09752 316.3875Q122.50377 316.71564 123.238144 316.71564Q123.956894 316.71564 124.300644 316.4344Q124.66002 316.1375 124.66002 315.73126Q124.66002 315.3719 124.34752 315.16876Q124.12877 315.02814 123.269394 314.8094Q122.113144 314.5125 121.66002 314.3094Q121.22252 314.09064 120.988144 313.71564Q120.75377 313.34064 120.75377 312.8719Q120.75377 312.46564 120.94127 312.10626Q121.12877 311.7469 121.456894 311.5125Q121.706894 311.34064 122.12877 311.21564Q122.550644 311.09064 123.050644 311.09064Q123.769394 311.09064 124.31627 311.3094Q124.87877 311.5125 125.144394 311.8719Q125.41002 312.23126 125.50377 312.825L124.47252 312.96564Q124.41002 312.4969 124.06627 312.23126Q123.738144 311.95 123.113144 311.95Q122.394394 311.95 122.081894 312.2Q121.769394 312.4344 121.769394 312.7625Q121.769394 312.96564 121.894394 313.1219Q122.03502 313.29376 122.300644 313.40314Q122.456894 313.46564 123.238144 313.66876Q124.363144 313.98126 124.800644 314.16876Q125.238144 314.35626 125.488144 314.71564Q125.738144 315.075 125.738144 315.6219Q125.738144 316.15314 125.425644 316.6219Q125.12877 317.075 124.550644 317.34064Q123.97252 317.59064 123.238144 317.59064Q122.019394 317.59064 121.37877 317.09064Q120.75377 316.575 120.581894 315.59064ZM128.00377 310.075L128.00377 308.85626L129.06627 308.85626L129.06627 310.075L128.00377 310.075ZM128.00377 317.45L128.00377 311.23126L129.06627 311.23126L129.06627 317.45L128.00377 317.45ZM135.06627 316.6844Q134.47252 317.1844 133.92564 317.3875Q133.3944 317.59064 132.7694 317.59064Q131.73814 317.59064 131.19127 317.09064Q130.6444 316.59064 130.6444 315.8094Q130.6444 315.35626 130.84752 314.98126Q131.05064 314.59064 131.3944 314.3719Q131.73814 314.1375 132.16002 314.02814Q132.4569 313.9344 133.09752 313.85626Q134.36314 313.71564 134.97252 313.4969Q134.97252 313.27814 134.97252 313.23126Q134.97252 312.575 134.67564 312.3094Q134.2694 311.96564 133.47252 311.96564Q132.73814 311.96564 132.37877 312.23126Q132.0194 312.48126 131.84752 313.1375L130.81627 312.9969Q130.9569 312.34064 131.28502 311.9344Q131.61314 311.52814 132.22252 311.3094Q132.8319 311.09064 133.62877 311.09064Q134.42564 311.09064 134.92564 311.27814Q135.42564 311.46564 135.66002 311.7469Q135.8944 312.02814 135.98814 312.46564Q136.03502 312.73126 136.03502 313.4344L136.03502 314.84064Q136.03502 316.3094 136.09752 316.7Q136.17564 317.09064 136.37877 317.45L135.2694 317.45Q135.11314 317.1219 135.06627 316.6844ZM134.97252 314.325Q134.3944 314.5594 133.25377 314.73126Q132.59752 314.825 132.3319 314.95Q132.06627 315.0594 131.91002 315.27814Q131.7694 315.4969 131.7694 315.77814Q131.7694 316.2 132.0819 316.48126Q132.41002 316.7625 133.0194 316.7625Q133.62877 316.7625 134.09752 316.4969Q134.5819 316.23126 134.80064 315.7625Q134.97252 315.40314 134.97252 314.71564L134.97252 314.325ZM138.00377 317.45L138.00377 311.23126L138.94127 311.23126L138.94127 312.10626Q139.62877 311.09064 140.92564 311.09064Q141.48814 311.09064 141.9569 311.29376Q142.44127 311.4969 142.67564 311.825Q142.91002 312.15314 143.00377 312.59064Q143.05064 312.8875 143.05064 313.6219L143.05064 317.45L142.00377 317.45L142.00377 313.66876Q142.00377 313.0125 141.87877 312.7Q141.75377 312.3875 141.44127 312.2Q141.12877 311.9969 140.7069 311.9969Q140.03502 311.9969 139.53502 312.4344Q139.05064 312.85626 139.05064 314.04376L139.05064 317.45L138.00377 317.45Z" fill-rule="nonzero"/><path fill="#000000" d="M198.88667 303.45L202.18355 294.85626L203.4023 294.85626L206.91792 303.45L205.63667 303.45L204.62105 300.84064L201.04292 300.84064L200.0898 303.45L198.88667 303.45ZM201.37105 299.91876L204.2773 299.91876L203.38667 297.54376Q202.9648 296.46564 202.7773 295.7625Q202.60542 296.59064 202.30855 297.40314L201.37105 299.91876ZM206.94917 303.45L206.94917 298.04376L206.01167 298.04376L206.01167 297.23126L206.94917 297.23126L206.94917 296.5594Q206.94917 295.9344 207.05855 295.6375Q207.2148 295.21564 207.5898 294.96564Q207.98042 294.71564 208.66792 294.71564Q209.12105 294.71564 209.6523 294.825L209.49605 295.73126Q209.16792 295.6844 208.87105 295.6844Q208.38667 295.6844 208.18355 295.8875Q207.99605 296.09064 207.99605 296.65314L207.99605 297.23126L209.2148 297.23126L209.2148 298.04376L207.99605 298.04376L207.99605 303.45L206.94917 303.45ZM209.68355 303.45L209.68355 297.23126L210.63667 297.23126L210.63667 298.16876Q210.99605 297.5125 211.29292 297.3094Q211.60542 297.09064 211.98042 297.09064Q212.51167 297.09064 213.05855 297.41876L212.69917 298.40314Q212.30855 298.16876 211.93355 298.16876Q211.57417 298.16876 211.29292 298.3875Q211.0273 298.59064 210.91792 298.96564Q210.73042 299.52814 210.73042 300.1844L210.73042 303.45L209.68355 303.45ZM213.69917 296.075L213.69917 294.85626L214.76167 294.85626L214.76167 296.075L213.69917 296.075ZM213.69917 303.45L213.69917 297.23126L214.76167 297.23126L214.76167 303.45L213.69917 303.45ZM220.76167 301.16876L221.79292 301.3094Q221.62105 302.3719 220.91792 302.98126Q220.2148 303.59064 219.19917 303.59064Q217.91792 303.59064 217.13667 302.7625Q216.37105 301.91876 216.37105 300.35626Q216.37105 299.35626 216.69917 298.60626Q217.04292 297.84064 217.7148 297.46564Q218.4023 297.09064 219.2148 297.09064Q220.2148 297.09064 220.85542 297.60626Q221.51167 298.10626 221.69917 299.0594L220.66792 299.21564Q220.5273 298.59064 220.1523 298.27814Q219.7773 297.95 219.24605 297.95Q218.44917 297.95 217.94917 298.52814Q217.44917 299.09064 217.44917 300.325Q217.44917 301.59064 217.93355 302.15314Q218.41792 302.71564 219.18355 302.71564Q219.80855 302.71564 220.2148 302.34064Q220.63667 301.96564 220.76167 301.16876ZM226.76167 302.6844Q226.16792 303.1844 225.62105 303.3875Q225.0898 303.59064 224.4648 303.59064Q223.43355 303.59064 222.88667 303.09064Q222.3398 302.59064 222.3398 301.8094Q222.3398 301.35626 222.54292 300.98126Q222.74605 300.59064 223.0898 300.3719Q223.43355 300.1375 223.85542 300.02814Q224.1523 299.9344 224.79292 299.85626Q226.05855 299.71564 226.66792 299.4969Q226.66792 299.27814 226.66792 299.23126Q226.66792 298.575 226.37105 298.3094Q225.9648 297.96564 225.16792 297.96564Q224.43355 297.96564 224.07417 298.23126Q223.7148 298.48126 223.54292 299.1375L222.51167 298.9969Q222.6523 298.34064 222.98042 297.9344Q223.30855 297.52814 223.91792 297.3094Q224.5273 297.09064 225.32417 297.09064Q226.12105 297.09064 226.62105 297.27814Q227.12105 297.46564 227.35542 297.7469Q227.5898 298.02814 227.68355 298.46564Q227.73042 298.73126 227.73042 299.4344L227.73042 300.84064Q227.73042 302.3094 227.79292 302.7Q227.87105 303.09064 228.07417 303.45L226.9648 303.45Q226.80855 303.1219 226.76167 302.6844ZM226.66792 300.325Q226.0898 300.5594 224.94917 300.73126Q224.29292 300.825 224.0273 300.95Q223.76167 301.0594 223.60542 301.27814Q223.4648 301.4969 223.4648 301.77814Q223.4648 302.2 223.7773 302.48126Q224.10542 302.7625 224.7148 302.7625Q225.32417 302.7625 225.79292 302.4969Q226.2773 302.23126 226.49605 301.7625Q226.66792 301.40314 226.66792 300.71564L226.66792 300.325ZM229.69917 303.45L229.69917 297.23126L230.63667 297.23126L230.63667 298.10626Q231.32417 297.09064 232.62105 297.09064Q233.18355 297.09064 233.6523 297.29376Q234.13667 297.4969 234.37105 297.825Q234.60542 298.15314 234.69917 298.59064Q234.74605 298.8875 234.74605 299.6219L234.74605 303.45L233.69917 303.45L233.69917 299.66876Q233.69917 299.0125 233.57417 298.7Q233.44917 298.3875 233.13667 298.2Q232.82417 297.9969 232.4023 297.9969Q231.73042 297.9969 231.23042 298.4344Q230.74605 298.85626 230.74605 300.04376L230.74605 303.45L229.69917 303.45ZM238.88667 303.45L242.18355 294.85626L243.4023 294.85626L246.91792 303.45L245.63667 303.45L244.62105 300.84064L241.04292 300.84064L240.0898 303.45L238.88667 303.45ZM241.37105 299.91876L244.2773 299.91876L243.38667 297.54376Q242.9648 296.46564 242.7773 295.7625Q242.60542 296.59064 242.30855 297.40314L241.37105 299.91876ZM246.69917 303.45L246.69917 297.23126L247.63667 297.23126L247.63667 298.10626Q247.93355 297.6375 248.41792 297.3719Q248.9023 297.09064 249.5273 297.09064Q250.2148 297.09064 250.6523 297.3719Q251.10542 297.65314 251.2773 298.16876Q252.0273 297.09064 253.19917 297.09064Q254.13667 297.09064 254.62105 297.60626Q255.12105 298.10626 255.12105 299.1844L255.12105 303.45L254.07417 303.45L254.07417 299.52814Q254.07417 298.90314 253.9648 298.6219Q253.87105 298.34064 253.60542 298.16876Q253.3398 297.9969 252.9648 297.9969Q252.30855 297.9969 251.87105 298.4344Q251.44917 298.8719 251.44917 299.84064L251.44917 303.45L250.38667 303.45L250.38667 299.40314Q250.38667 298.7 250.12105 298.35626Q249.87105 297.9969 249.29292 297.9969Q248.8398 297.9969 248.4648 298.23126Q248.0898 298.46564 247.91792 298.91876Q247.74605 299.3719 247.74605 300.21564L247.74605 303.45L246.69917 303.45ZM261.94916 301.45L263.0429 301.575Q262.7929 302.52814 262.08978 303.0594Q261.38666 303.59064 260.30853 303.59064Q258.94916 303.59064 258.13666 302.7469Q257.33978 301.90314 257.33978 300.3875Q257.33978 298.825 258.15228 297.96564Q258.96478 297.09064 260.24603 297.09064Q261.49603 297.09064 262.27728 297.9344Q263.07416 298.77814 263.07416 300.325Q263.07416 300.41876 263.07416 300.60626L258.43353 300.60626Q258.49603 301.6375 259.01166 302.1844Q259.52728 302.71564 260.30853 302.71564Q260.88666 302.71564 261.2929 302.41876Q261.71478 302.10626 261.94916 301.45ZM258.49603 299.7469L261.96478 299.7469Q261.90228 298.95 261.57416 298.5594Q261.05853 297.95 260.26166 297.95Q259.52728 297.95 259.02728 298.4344Q258.5429 298.91876 258.49603 299.7469ZM264.68353 303.45L264.68353 297.23126L265.63666 297.23126L265.63666 298.16876Q265.99603 297.5125 266.2929 297.3094Q266.6054 297.09064 266.9804 297.09064Q267.51166 297.09064 268.05853 297.41876L267.69916 298.40314Q267.30853 298.16876 266.93353 298.16876Q266.57416 298.16876 266.2929 298.3875Q266.02728 298.59064 265.9179 298.96564Q265.7304 299.52814 265.7304 300.1844L265.7304 303.45L264.68353 303.45ZM268.69916 296.075L268.69916 294.85626L269.76166 294.85626L269.76166 296.075L268.69916 296.075ZM268.69916 303.45L268.69916 297.23126L269.76166 297.23126L269.76166 303.45L268.69916 303.45ZM275.76166 301.16876L276.7929 301.3094Q276.62103 302.3719 275.9179 302.98126Q275.21478 303.59064 274.19916 303.59064Q272.9179 303.59064 272.13666 302.7625Q271.37103 301.91876 271.37103 300.35626Q271.37103 299.35626 271.69916 298.60626Q272.0429 297.84064 272.71478 297.46564Q273.40228 297.09064 274.21478 297.09064Q275.21478 297.09064 275.8554 297.60626Q276.51166 298.10626 276.69916 299.0594L275.6679 299.21564Q275.52728 298.59064 275.15228 298.27814Q274.77728 297.95 274.24603 297.95Q273.44916 297.95 272.94916 298.52814Q272.44916 299.09064 272.44916 300.325Q272.44916 301.59064 272.93353 302.15314Q273.4179 302.71564 274.18353 302.71564Q274.80853 302.71564 275.21478 302.34064Q275.63666 301.96564 275.76166 301.16876ZM281.76166 302.6844Q281.1679 303.1844 280.62103 303.3875Q280.08978 303.59064 279.46478 303.59064Q278.43353 303.59064 277.88666 303.09064Q277.33978 302.59064 277.33978 301.8094Q277.33978 301.35626 277.5429 300.98126Q277.74603 300.59064 278.08978 300.3719Q278.43353 300.1375 278.8554 300.02814Q279.15228 299.9344 279.7929 299.85626Q281.05853 299.71564 281.6679 299.4969Q281.6679 299.27814 281.6679 299.23126Q281.6679 298.575 281.37103 298.3094Q280.96478 297.96564 280.1679 297.96564Q279.43353 297.96564 279.07416 298.23126Q278.71478 298.48126 278.5429 299.1375L277.51166 298.9969Q277.65228 298.34064 277.9804 297.9344Q278.30853 297.52814 278.9179 297.3094Q279.52728 297.09064 280.32416 297.09064Q281.12103 297.09064 281.62103 297.27814Q282.12103 297.46564 282.3554 297.7469Q282.58978 298.02814 282.68353 298.46564Q282.7304 298.73126 282.7304 299.4344L282.7304 300.84064Q282.7304 302.3094 282.7929 302.7Q282.87103 303.09064 283.07416 303.45L281.96478 303.45Q281.80853 303.1219 281.76166 302.6844ZM281.6679 300.325Q281.08978 300.5594 279.94916 300.73126Q279.2929 300.825 279.02728 300.95Q278.76166 301.0594 278.6054 301.27814Q278.46478 301.4969 278.46478 301.77814Q278.46478 302.2 278.77728 302.48126Q279.1054 302.7625 279.71478 302.7625Q280.32416 302.7625 280.7929 302.4969Q281.27728 302.23126 281.49603 301.7625Q281.6679 301.40314 281.6679 300.71564L281.6679 300.325ZM284.69916 303.45L284.69916 297.23126L285.63666 297.23126L285.63666 298.10626Q286.32416 297.09064 287.62103 297.09064Q288.18353 297.09064 288.65228 297.29376Q289.13666 297.4969 289.37103 297.825Q289.6054 298.15314 289.69916 298.59064Q289.74603 298.8875 289.74603 299.6219L289.74603 303.45L288.69916 303.45L288.69916 299.66876Q288.69916 299.0125 288.57416 298.7Q288.44916 298.3875 288.13666 298.2Q287.82416 297.9969 287.40228 297.9969Q286.7304 297.9969 286.2304 298.4344Q285.74603 298.85626 285.74603 300.04376L285.74603 303.45L284.69916 303.45ZM294.30853 300.34064Q294.30853 298.60626 295.26166 297.77814Q296.05853 297.09064 297.21478 297.09064Q298.49603 297.09064 299.30853 297.9344Q300.13666 298.7625 300.13666 300.2469Q300.13666 301.45 299.77728 302.1375Q299.4179 302.825 298.71478 303.21564Q298.02728 303.59064 297.21478 303.59064Q295.9179 303.59064 295.1054 302.7625Q294.30853 301.91876 294.30853 300.34064ZM295.38666 300.34064Q295.38666 301.52814 295.90228 302.1219Q296.43353 302.71564 297.21478 302.71564Q298.01166 302.71564 298.52728 302.1219Q299.0429 301.52814 299.0429 300.3094Q299.0429 299.15314 298.51166 298.5594Q297.99603 297.96564 297.21478 297.96564Q296.43353 297.96564 295.90228 298.5594Q295.38666 299.1375 295.38666 300.34064ZM301.68353 303.45L301.68353 297.23126L302.63666 297.23126L302.63666 298.16876Q302.99603 297.5125 303.2929 297.3094Q303.6054 297.09064 303.9804 297.09064Q304.51166 297.09064 305.05853 297.41876L304.69916 298.40314Q304.30853 298.16876 303.93353 298.16876Q303.57416 298.16876 303.2929 298.3875Q303.02728 298.59064 302.9179 298.96564Q302.7304 299.52814 302.7304 300.1844L302.7304 303.45L301.68353 303.45Z" fill-rule="nonzero"/><path fill="#000000" d="M237.7773 317.45L237.7773 308.85626L241.01167 308.85626Q241.99605 308.85626 242.5898 309.1219Q243.18355 309.3875 243.51167 309.9344Q243.85542 310.46564 243.85542 311.0594Q243.85542 311.60626 243.55855 312.09064Q243.26167 312.575 242.6523 312.8719Q243.43355 313.10626 243.8398 313.66876Q244.26167 314.21564 244.26167 314.96564Q244.26167 315.5594 244.01167 316.09064Q243.76167 316.60626 243.38667 316.8875Q243.01167 317.16876 242.43355 317.3094Q241.87105 317.45 241.05855 317.45L237.7773 317.45ZM238.91792 312.46564L240.7773 312.46564Q241.5273 312.46564 241.85542 312.3719Q242.29292 312.2469 242.51167 311.95Q242.73042 311.6375 242.73042 311.1844Q242.73042 310.7625 242.5273 310.4344Q242.32417 310.10626 241.93355 309.9969Q241.55855 309.8719 240.63667 309.8719L238.91792 309.8719L238.91792 312.46564ZM238.91792 316.4344L241.05855 316.4344Q241.60542 316.4344 241.82417 316.3875Q242.23042 316.325 242.48042 316.16876Q242.74605 315.9969 242.91792 315.6844Q243.0898 315.3719 243.0898 314.96564Q243.0898 314.48126 242.8398 314.1219Q242.60542 313.7625 242.16792 313.6219Q241.73042 313.48126 240.9023 313.48126L238.91792 313.48126L238.91792 316.4344ZM245.66792 317.45L245.66792 308.85626L246.73042 308.85626L246.73042 317.45L245.66792 317.45ZM252.76167 316.6844Q252.16792 317.1844 251.62105 317.3875Q251.0898 317.59064 250.4648 317.59064Q249.43355 317.59064 248.88667 317.09064Q248.3398 316.59064 248.3398 315.8094Q248.3398 315.35626 248.54292 314.98126Q248.74605 314.59064 249.0898 314.3719Q249.43355 314.1375 249.85542 314.02814Q250.1523 313.9344 250.79292 313.85626Q252.05855 313.71564 252.66792 313.4969Q252.66792 313.27814 252.66792 313.23126Q252.66792 312.575 252.37105 312.3094Q251.9648 311.96564 251.16792 311.96564Q250.43355 311.96564 250.07417 312.23126Q249.7148 312.48126 249.54292 313.1375L248.51167 312.9969Q248.6523 312.34064 248.98042 311.9344Q249.30855 311.52814 249.91792 311.3094Q250.5273 311.09064 251.32417 311.09064Q252.12105 311.09064 252.62105 311.27814Q253.12105 311.46564 253.35542 311.7469Q253.5898 312.02814 253.68355 312.46564Q253.73042 312.73126 253.73042 313.4344L253.73042 314.84064Q253.73042 316.3094 253.79292 316.7Q253.87105 317.09064 254.07417 317.45L252.9648 317.45Q252.80855 317.1219 252.76167 316.6844ZM252.66792 314.325Q252.0898 314.5594 250.94917 314.73126Q250.29292 314.825 250.0273 314.95Q249.76167 315.0594 249.60542 315.27814Q249.4648 315.4969 249.4648 315.77814Q249.4648 316.2 249.7773 316.48126Q250.10542 316.7625 250.7148 316.7625Q251.32417 316.7625 251.79292 316.4969Q252.2773 316.23126 252.49605 315.7625Q252.66792 315.40314 252.66792 314.71564L252.66792 314.325ZM259.76166 315.16876L260.7929 315.3094Q260.62103 316.3719 259.9179 316.98126Q259.21478 317.59064 258.19916 317.59064Q256.9179 317.59064 256.13666 316.7625Q255.37105 315.91876 255.37105 314.35626Q255.37105 313.35626 255.69917 312.60626Q256.0429 311.84064 256.71478 311.46564Q257.40228 311.09064 258.21478 311.09064Q259.21478 311.09064 259.8554 311.60626Q260.51166 312.10626 260.69916 313.0594L259.6679 313.21564Q259.52728 312.59064 259.15228 312.27814Q258.77728 311.95 258.24603 311.95Q257.44916 311.95 256.94916 312.52814Q256.44916 313.09064 256.44916 314.325Q256.44916 315.59064 256.93353 316.15314Q257.4179 316.71564 258.18353 316.71564Q258.80853 316.71564 259.21478 316.34064Q259.63666 315.96564 259.76166 315.16876ZM261.69916 317.45L261.69916 308.85626L262.76166 308.85626L262.76166 313.7625L265.24603 311.23126L266.62103 311.23126L264.2304 313.52814L266.8554 317.45L265.55853 317.45L263.49603 314.2625L262.76166 314.98126L262.76166 317.45L261.69916 317.45Z" fill-rule="nonzero"/><path fill="#000000" d="M323.51956 303.45L321.2383 294.85626L322.4102 294.85626L323.7227 300.4969Q323.9258 301.3719 324.08206 302.2469Q324.4102 300.8719 324.4727 300.65314L326.0977 294.85626L327.4727 294.85626L328.70706 299.2Q329.1602 300.825 329.37894 302.2469Q329.5352 301.4344 329.8008 300.3719L331.14456 294.85626L332.2852 294.85626L329.94144 303.45L328.83206 303.45L327.0352 296.90314Q326.8008 296.09064 326.75394 295.90314Q326.62894 296.48126 326.50394 296.90314L324.69144 303.45L323.51956 303.45ZM332.89456 303.45L332.89456 294.85626L333.94144 294.85626L333.94144 297.9344Q334.6758 297.09064 335.8008 297.09064Q336.50394 297.09064 337.00394 297.3719Q337.51956 297.6375 337.7383 298.1219Q337.95706 298.59064 337.95706 299.5125L337.95706 303.45L336.9102 303.45L336.9102 299.5125Q336.9102 298.71564 336.56644 298.35626Q336.2227 297.9969 335.5977 297.9969Q335.12894 297.9969 334.70706 298.2469Q334.3008 298.48126 334.1133 298.90314Q333.94144 299.3094 333.94144 300.04376L333.94144 303.45L332.89456 303.45ZM339.89456 296.075L339.89456 294.85626L340.95706 294.85626L340.95706 296.075L339.89456 296.075ZM339.89456 303.45L339.89456 297.23126L340.95706 297.23126L340.95706 303.45L339.89456 303.45ZM345.19144 302.5125L345.3477 303.4344Q344.89456 303.52814 344.5508 303.52814Q343.9727 303.52814 343.6602 303.35626Q343.3477 303.16876 343.20706 302.8719Q343.08206 302.575 343.08206 301.6219L343.08206 298.04376L342.31644 298.04376L342.31644 297.23126L343.08206 297.23126L343.08206 295.6844L344.12894 295.0594L344.12894 297.23126L345.19144 297.23126L345.19144 298.04376L344.12894 298.04376L344.12894 301.6844Q344.12894 302.1375 344.1758 302.2625Q344.2383 302.3875 344.3633 302.46564Q344.4883 302.54376 344.7227 302.54376Q344.9102 302.54376 345.19144 302.5125ZM350.14456 301.45L351.2383 301.575Q350.9883 302.52814 350.2852 303.0594Q349.58206 303.59064 348.50394 303.59064Q347.14456 303.59064 346.33206 302.7469Q345.5352 301.90314 345.5352 300.3875Q345.5352 298.825 346.3477 297.96564Q347.1602 297.09064 348.44144 297.09064Q349.69144 297.09064 350.4727 297.9344Q351.26956 298.77814 351.26956 300.325Q351.26956 300.41876 351.26956 300.60626L346.62894 300.60626Q346.69144 301.6375 347.20706 302.1844Q347.7227 302.71564 348.50394 302.71564Q349.08206 302.71564 349.4883 302.41876Q349.9102 302.10626 350.14456 301.45ZM346.69144 299.7469L350.1602 299.7469Q350.0977 298.95 349.76956 298.5594Q349.25394 297.95 348.45706 297.95Q347.7227 297.95 347.2227 298.4344Q346.7383 298.91876 346.69144 299.7469ZM355.50394 300.34064Q355.50394 298.60626 356.45706 297.77814Q357.25394 297.09064 358.4102 297.09064Q359.69144 297.09064 360.50394 297.9344Q361.33206 298.7625 361.33206 300.2469Q361.33206 301.45 360.9727 302.1375Q360.6133 302.825 359.9102 303.21564Q359.2227 303.59064 358.4102 303.59064Q357.1133 303.59064 356.3008 302.7625Q355.50394 301.91876 355.50394 300.34064ZM356.58206 300.34064Q356.58206 301.52814 357.0977 302.1219Q357.62894 302.71564 358.4102 302.71564Q359.20706 302.71564 359.7227 302.1219Q360.2383 301.52814 360.2383 300.3094Q360.2383 299.15314 359.70706 298.5594Q359.19144 297.96564 358.4102 297.96564Q357.62894 297.96564 357.0977 298.5594Q356.58206 299.1375 356.58206 300.34064ZM362.87894 303.45L362.87894 297.23126L363.83206 297.23126L363.83206 298.16876Q364.19144 297.5125 364.4883 297.3094Q364.8008 297.09064 365.1758 297.09064Q365.70706 297.09064 366.25394 297.41876L365.89456 298.40314Q365.50394 298.16876 365.12894 298.16876Q364.76956 298.16876 364.4883 298.3875Q364.2227 298.59064 364.1133 298.96564Q363.9258 299.52814 363.9258 300.1844L363.9258 303.45L362.87894 303.45ZM376.1602 300.4344L377.2852 300.73126Q376.9258 302.1219 376.00394 302.85626Q375.08206 303.59064 373.7383 303.59064Q372.3477 303.59064 371.4727 303.02814Q370.5977 302.46564 370.14456 301.40314Q369.69144 300.325 369.69144 299.09064Q369.69144 297.7469 370.20706 296.7469Q370.7227 295.7469 371.6602 295.23126Q372.6133 294.71564 373.75394 294.71564Q375.0352 294.71564 375.9102 295.3719Q376.8008 296.02814 377.14456 297.21564L376.01956 297.48126Q375.7227 296.54376 375.14456 296.1219Q374.58206 295.6844 373.7227 295.6844Q372.7383 295.6844 372.06644 296.16876Q371.4102 296.6375 371.12894 297.4344Q370.8633 298.23126 370.8633 299.09064Q370.8633 300.1844 371.1758 300.9969Q371.50394 301.8094 372.1758 302.21564Q372.8477 302.6219 373.64456 302.6219Q374.5977 302.6219 375.25394 302.075Q375.9258 301.52814 376.1602 300.4344ZM382.95706 302.6844Q382.3633 303.1844 381.81644 303.3875Q381.2852 303.59064 380.6602 303.59064Q379.62894 303.59064 379.08206 303.09064Q378.5352 302.59064 378.5352 301.8094Q378.5352 301.35626 378.7383 300.98126Q378.94144 300.59064 379.2852 300.3719Q379.62894 300.1375 380.0508 300.02814Q380.3477 299.9344 380.9883 299.85626Q382.25394 299.71564 382.8633 299.4969Q382.8633 299.27814 382.8633 299.23126Q382.8633 298.575 382.56644 298.3094Q382.1602 297.96564 381.3633 297.96564Q380.62894 297.96564 380.26956 298.23126Q379.9102 298.48126 379.7383 299.1375L378.70706 298.9969Q378.8477 298.34064 379.1758 297.9344Q379.50394 297.52814 380.1133 297.3094Q380.7227 297.09064 381.51956 297.09064Q382.31644 297.09064 382.81644 297.27814Q383.31644 297.46564 383.5508 297.7469Q383.7852 298.02814 383.87894 298.46564Q383.9258 298.73126 383.9258 299.4344L383.9258 300.84064Q383.9258 302.3094 383.9883 302.7Q384.06644 303.09064 384.26956 303.45L383.1602 303.45Q383.00394 303.1219 382.95706 302.6844ZM382.8633 300.325Q382.2852 300.5594 381.14456 300.73126Q380.4883 300.825 380.2227 300.95Q379.95706 301.0594 379.8008 301.27814Q379.6602 301.4969 379.6602 301.77814Q379.6602 302.2 379.9727 302.48126Q380.3008 302.7625 380.9102 302.7625Q381.51956 302.7625 381.9883 302.4969Q382.4727 302.23126 382.69144 301.7625Q382.8633 301.40314 382.8633 300.71564L382.8633 300.325ZM389.9727 303.45L389.9727 302.52814Q389.2383 303.59064 387.9883 303.59064Q387.44144 303.59064 386.95706 303.3875Q386.4883 303.16876 386.25394 302.85626Q386.01956 302.52814 385.9258 302.0594Q385.8633 301.7625 385.8633 301.075L385.8633 297.23126L386.9258 297.23126L386.9258 300.6844Q386.9258 301.4969 386.9883 301.79376Q387.08206 302.2 387.39456 302.45Q387.7227 302.6844 388.20706 302.6844Q388.6758 302.6844 389.08206 302.45Q389.50394 302.2 389.6758 301.77814Q389.8633 301.35626 389.8633 300.5594L389.8633 297.23126L390.9102 297.23126L390.9102 303.45L389.9727 303.45ZM396.95706 301.16876L397.9883 301.3094Q397.81644 302.3719 397.1133 302.98126Q396.4102 303.59064 395.39456 303.59064Q394.1133 303.59064 393.33206 302.7625Q392.56644 301.91876 392.56644 300.35626Q392.56644 299.35626 392.89456 298.60626Q393.2383 297.84064 393.9102 297.46564Q394.5977 297.09064 395.4102 297.09064Q396.4102 297.09064 397.0508 297.60626Q397.70706 298.10626 397.89456 299.0594L396.8633 299.21564Q396.7227 298.59064 396.3477 298.27814Q395.9727 297.95 395.44144 297.95Q394.64456 297.95 394.14456 298.52814Q393.64456 299.09064 393.64456 300.325Q393.64456 301.59064 394.12894 302.15314Q394.6133 302.71564 395.37894 302.71564Q396.00394 302.71564 396.4102 302.34064Q396.83206 301.96564 396.95706 301.16876ZM402.95706 302.6844Q402.3633 303.1844 401.81644 303.3875Q401.2852 303.59064 400.6602 303.59064Q399.62894 303.59064 399.08206 303.09064Q398.5352 302.59064 398.5352 301.8094Q398.5352 301.35626 398.7383 300.98126Q398.94144 300.59064 399.2852 300.3719Q399.62894 300.1375 400.0508 300.02814Q400.3477 299.9344 400.9883 299.85626Q402.25394 299.71564 402.8633 299.4969Q402.8633 299.27814 402.8633 299.23126Q402.8633 298.575 402.56644 298.3094Q402.1602 297.96564 401.3633 297.96564Q400.62894 297.96564 400.26956 298.23126Q399.9102 298.48126 399.7383 299.1375L398.70706 298.9969Q398.8477 298.34064 399.1758 297.9344Q399.50394 297.52814 400.1133 297.3094Q400.7227 297.09064 401.51956 297.09064Q402.31644 297.09064 402.81644 297.27814Q403.31644 297.46564 403.5508 297.7469Q403.7852 298.02814 403.87894 298.46564Q403.9258 298.73126 403.9258 299.4344L403.9258 300.84064Q403.9258 302.3094 403.9883 302.7Q404.06644 303.09064 404.26956 303.45L403.1602 303.45Q403.00394 303.1219 402.95706 302.6844ZM402.8633 300.325Q402.2852 300.5594 401.14456 300.73126Q400.4883 300.825 400.2227 300.95Q399.95706 301.0594 399.8008 301.27814Q399.6602 301.4969 399.6602 301.77814Q399.6602 302.2 399.9727 302.48126Q400.3008 302.7625 400.9102 302.7625Q401.51956 302.7625 401.9883 302.4969Q402.4727 302.23126 402.69144 301.7625Q402.8633 301.40314 402.8633 300.71564L402.8633 300.325ZM405.4727 301.59064L406.50394 301.4344Q406.5977 302.0594 406.9883 302.3875Q407.39456 302.71564 408.12894 302.71564Q408.8477 302.71564 409.19144 302.4344Q409.5508 302.1375 409.5508 301.73126Q409.5508 301.3719 409.2383 301.16876Q409.01956 301.02814 408.1602 300.8094Q407.00394 300.5125 406.5508 300.3094Q406.1133 300.09064 405.87894 299.71564Q405.64456 299.34064 405.64456 298.8719Q405.64456 298.46564 405.83206 298.10626Q406.01956 297.7469 406.3477 297.5125Q406.5977 297.34064 407.01956 297.21564Q407.44144 297.09064 407.94144 297.09064Q408.6602 297.09064 409.20706 297.3094Q409.76956 297.5125 410.0352 297.8719Q410.3008 298.23126 410.39456 298.825L409.3633 298.96564Q409.3008 298.4969 408.95706 298.23126Q408.62894 297.95 408.00394 297.95Q407.2852 297.95 406.9727 298.2Q406.6602 298.4344 406.6602 298.7625Q406.6602 298.96564 406.7852 299.1219Q406.9258 299.29376 407.19144 299.40314Q407.3477 299.46564 408.12894 299.66876Q409.25394 299.98126 409.69144 300.16876Q410.12894 300.35626 410.37894 300.71564Q410.62894 301.075 410.62894 301.6219Q410.62894 302.15314 410.31644 302.6219Q410.01956 303.075 409.44144 303.34064Q408.8633 303.59064 408.12894 303.59064Q406.9102 303.59064 406.26956 303.09064Q405.64456 302.575 405.4727 301.59064ZM412.89456 296.075L412.89456 294.85626L413.95706 294.85626L413.95706 296.075L412.89456 296.075ZM412.89456 303.45L412.89456 297.23126L413.95706 297.23126L413.95706 303.45L412.89456 303.45ZM419.95706 302.6844Q419.3633 303.1844 418.81644 303.3875Q418.2852 303.59064 417.6602 303.59064Q416.62894 303.59064 416.08206 303.09064Q415.5352 302.59064 415.5352 301.8094Q415.5352 301.35626 415.7383 300.98126Q415.94144 300.59064 416.2852 300.3719Q416.62894 300.1375 417.0508 300.02814Q417.3477 299.9344 417.9883 299.85626Q419.25394 299.71564 419.8633 299.4969Q419.8633 299.27814 419.8633 299.23126Q419.8633 298.575 419.56644 298.3094Q419.1602 297.96564 418.3633 297.96564Q417.62894 297.96564 417.26956 298.23126Q416.9102 298.48126 416.7383 299.1375L415.70706 298.9969Q415.8477 298.34064 416.1758 297.9344Q416.50394 297.52814 417.1133 297.3094Q417.7227 297.09064 418.51956 297.09064Q419.31644 297.09064 419.81644 297.27814Q420.31644 297.46564 420.5508 297.7469Q420.7852 298.02814 420.87894 298.46564Q420.9258 298.73126 420.9258 299.4344L420.9258 300.84064Q420.9258 302.3094 420.9883 302.7Q421.06644 303.09064 421.26956 303.45L420.1602 303.45Q420.00394 303.1219 419.95706 302.6844ZM419.8633 300.325Q419.2852 300.5594 418.14456 300.73126Q417.4883 300.825 417.2227 300.95Q416.95706 301.0594 416.8008 301.27814Q416.6602 301.4969 416.6602 301.77814Q416.6602 302.2 416.9727 302.48126Q417.3008 302.7625 417.9102 302.7625Q418.51956 302.7625 418.9883 302.4969Q419.4727 302.23126 419.69144 301.7625Q419.8633 301.40314 419.8633 300.71564L419.8633 300.325ZM422.89456 303.45L422.89456 297.23126L423.83206 297.23126L423.83206 298.10626Q424.51956 297.09064 425.81644 297.09064Q426.37894 297.09064 426.8477 297.29376Q427.33206 297.4969 427.56644 297.825Q427.8008 298.15314 427.89456 298.59064Q427.94144 298.8875 427.94144 299.6219L427.94144 303.45L426.89456 303.45L426.89456 299.66876Q426.89456 299.0125 426.76956 298.7Q426.64456 298.3875 426.33206 298.2Q426.01956 297.9969 425.5977 297.9969Q424.9258 297.9969 424.4258 298.4344Q423.94144 298.85626 423.94144 300.04376L423.94144 303.45L422.89456 303.45Z" fill-rule="nonzero"/><path fill="#000000" d="M451.18372 303.45L451.18372 294.85626L452.90247 294.85626L454.93372 300.9344Q455.21497 301.79376 455.33997 302.21564Q455.4806 301.7469 455.7931 300.84064L457.8556 294.85626L459.38684 294.85626L459.38684 303.45L458.2931 303.45L458.2931 296.2625L455.7931 303.45L454.76184 303.45L452.27747 296.1375L452.27747 303.45L451.18372 303.45ZM460.08997 296.075L460.08997 294.85626L461.15247 294.85626L461.15247 296.075L460.08997 296.075ZM460.08997 303.45L460.08997 297.23126L461.15247 297.23126L461.15247 303.45L460.08997 303.45ZM467.12122 303.45L467.12122 302.66876Q466.52747 303.59064 465.38684 303.59064Q464.63684 303.59064 464.01184 303.1844Q463.38684 302.7625 463.0431 302.02814Q462.69934 301.29376 462.69934 300.34064Q462.69934 299.41876 463.01184 298.65314Q463.32434 297.8875 463.94934 297.4969Q464.57434 297.09064 465.33997 297.09064Q465.90247 297.09064 466.33997 297.325Q466.77747 297.5594 467.05872 297.9344L467.05872 294.85626L468.1056 294.85626L468.1056 303.45L467.12122 303.45ZM463.7931 300.34064Q463.7931 301.54376 464.2931 302.1375Q464.7931 302.71564 465.4806 302.71564Q466.1681 302.71564 466.65247 302.15314Q467.13684 301.59064 467.13684 300.4344Q467.13684 299.15314 466.63684 298.5594Q466.15247 297.96564 465.43372 297.96564Q464.7306 297.96564 464.26184 298.54376Q463.7931 299.10626 463.7931 300.34064ZM474.12122 303.45L474.12122 302.66876Q473.52747 303.59064 472.38684 303.59064Q471.63684 303.59064 471.01184 303.1844Q470.38684 302.7625 470.0431 302.02814Q469.69934 301.29376 469.69934 300.34064Q469.69934 299.41876 470.01184 298.65314Q470.32434 297.8875 470.94934 297.4969Q471.57434 297.09064 472.33997 297.09064Q472.90247 297.09064 473.33997 297.325Q473.77747 297.5594 474.05872 297.9344L474.05872 294.85626L475.1056 294.85626L475.1056 303.45L474.12122 303.45ZM470.7931 300.34064Q470.7931 301.54376 471.2931 302.1375Q471.7931 302.71564 472.4806 302.71564Q473.1681 302.71564 473.65247 302.15314Q474.13684 301.59064 474.13684 300.4344Q474.13684 299.15314 473.63684 298.5594Q473.15247 297.96564 472.43372 297.96564Q471.7306 297.96564 471.26184 298.54376Q470.7931 299.10626 470.7931 300.34064ZM477.05872 303.45L477.05872 294.85626L478.12122 294.85626L478.12122 303.45L477.05872 303.45ZM484.33997 301.45L485.43372 301.575Q485.18372 302.52814 484.4806 303.0594Q483.77747 303.59064 482.69934 303.59064Q481.33997 303.59064 480.52747 302.7469Q479.7306 301.90314 479.7306 300.3875Q479.7306 298.825 480.5431 297.96564Q481.3556 297.09064 482.63684 297.09064Q483.88684 297.09064 484.6681 297.9344Q485.46497 298.77814 485.46497 300.325Q485.46497 300.41876 485.46497 300.60626L480.82434 300.60626Q480.88684 301.6375 481.40247 302.1844Q481.9181 302.71564 482.69934 302.71564Q483.27747 302.71564 483.68372 302.41876Q484.1056 302.10626 484.33997 301.45ZM480.88684 299.7469L484.3556 299.7469Q484.2931 298.95 483.96497 298.5594Q483.44934 297.95 482.65247 297.95Q481.9181 297.95 481.4181 298.4344Q480.93372 298.91876 480.88684 299.7469ZM490.24622 303.45L490.24622 294.85626L496.44934 294.85626L496.44934 295.8719L491.38684 295.8719L491.38684 298.4969L496.13684 298.4969L496.13684 299.5125L491.38684 299.5125L491.38684 302.4344L496.65247 302.4344L496.65247 303.45L490.24622 303.45ZM502.15247 302.6844Q501.55872 303.1844 501.01184 303.3875Q500.4806 303.59064 499.8556 303.59064Q498.82434 303.59064 498.27747 303.09064Q497.7306 302.59064 497.7306 301.8094Q497.7306 301.35626 497.93372 300.98126Q498.13684 300.59064 498.4806 300.3719Q498.82434 300.1375 499.24622 300.02814Q499.5431 299.9344 500.18372 299.85626Q501.44934 299.71564 502.05872 299.4969Q502.05872 299.27814 502.05872 299.23126Q502.05872 298.575 501.76184 298.3094Q501.3556 297.96564 500.55872 297.96564Q499.82434 297.96564 499.46497 298.23126Q499.1056 298.48126 498.93372 299.1375L497.90247 298.9969Q498.0431 298.34064 498.37122 297.9344Q498.69934 297.52814 499.30872 297.3094Q499.9181 297.09064 500.71497 297.09064Q501.51184 297.09064 502.01184 297.27814Q502.51184 297.46564 502.74622 297.7469Q502.9806 298.02814 503.07434 298.46564Q503.12122 298.73126 503.12122 299.4344L503.12122 300.84064Q503.12122 302.3094 503.18372 302.7Q503.26184 303.09064 503.46497 303.45L502.3556 303.45Q502.19934 303.1219 502.15247 302.6844ZM502.05872 300.325Q501.4806 300.5594 500.33997 300.73126Q499.68372 300.825 499.4181 300.95Q499.15247 301.0594 498.99622 301.27814Q498.8556 301.4969 498.8556 301.77814Q498.8556 302.2 499.1681 302.48126Q499.49622 302.7625 500.1056 302.7625Q500.71497 302.7625 501.18372 302.4969Q501.6681 302.23126 501.88684 301.7625Q502.05872 301.40314 502.05872 300.71564L502.05872 300.325ZM504.6681 301.59064L505.69934 301.4344Q505.7931 302.0594 506.18372 302.3875Q506.58997 302.71564 507.32434 302.71564Q508.0431 302.71564 508.38684 302.4344Q508.74622 302.1375 508.74622 301.73126Q508.74622 301.3719 508.43372 301.16876Q508.21497 301.02814 507.3556 300.8094Q506.19934 300.5125 505.74622 300.3094Q505.30872 300.09064 505.07434 299.71564Q504.83997 299.34064 504.83997 298.8719Q504.83997 298.46564 505.02747 298.10626Q505.21497 297.7469 505.5431 297.5125Q505.7931 297.34064 506.21497 297.21564Q506.63684 297.09064 507.13684 297.09064Q507.8556 297.09064 508.40247 297.3094Q508.96497 297.5125 509.2306 297.8719Q509.49622 298.23126 509.58997 298.825L508.55872 298.96564Q508.49622 298.4969 508.15247 298.23126Q507.82434 297.95 507.19934 297.95Q506.4806 297.95 506.1681 298.2Q505.8556 298.4344 505.8556 298.7625Q505.8556 298.96564 505.9806 299.1219Q506.12122 299.29376 506.38684 299.40314Q506.5431 299.46564 507.32434 299.66876Q508.44934 299.98126 508.88684 300.16876Q509.32434 300.35626 509.57434 300.71564Q509.82434 301.075 509.82434 301.6219Q509.82434 302.15314 509.51184 302.6219Q509.21497 303.075 508.63684 303.34064Q508.05872 303.59064 507.32434 303.59064Q506.1056 303.59064 505.46497 303.09064Q504.83997 302.575 504.6681 301.59064ZM514.38684 302.5125L514.5431 303.4344Q514.08997 303.52814 513.7462 303.52814Q513.1681 303.52814 512.8556 303.35626Q512.5431 303.16876 512.40247 302.8719Q512.27747 302.575 512.27747 301.6219L512.27747 298.04376L511.51184 298.04376L511.51184 297.23126L512.27747 297.23126L512.27747 295.6844L513.32434 295.0594L513.32434 297.23126L514.38684 297.23126L514.38684 298.04376L513.32434 298.04376L513.32434 301.6844Q513.32434 302.1375 513.3712 302.2625Q513.4337 302.3875 513.5587 302.46564Q513.6837 302.54376 513.9181 302.54376Q514.1056 302.54376 514.38684 302.5125ZM519.33997 301.45L520.4337 301.575Q520.1837 302.52814 519.4806 303.0594Q518.77747 303.59064 517.69934 303.59064Q516.33997 303.59064 515.52747 302.7469Q514.7306 301.90314 514.7306 300.3875Q514.7306 298.825 515.5431 297.96564Q516.3556 297.09064 517.63684 297.09064Q518.88684 297.09064 519.6681 297.9344Q520.46497 298.77814 520.46497 300.325Q520.46497 300.41876 520.46497 300.60626L515.82434 300.60626Q515.88684 301.6375 516.40247 302.1844Q516.9181 302.71564 517.69934 302.71564Q518.27747 302.71564 518.6837 302.41876Q519.1056 302.10626 519.33997 301.45ZM515.88684 299.7469L519.3556 299.7469Q519.2931 298.95 518.96497 298.5594Q518.44934 297.95 517.65247 297.95Q516.9181 297.95 516.4181 298.4344Q515.9337 298.91876 515.88684 299.7469ZM522.07434 303.45L522.07434 297.23126L523.02747 297.23126L523.02747 298.16876Q523.38684 297.5125 523.6837 297.3094Q523.9962 297.09064 524.3712 297.09064Q524.90247 297.09064 525.44934 297.41876L525.08997 298.40314Q524.69934 298.16876 524.32434 298.16876Q523.96497 298.16876 523.6837 298.3875Q523.4181 298.59064 523.3087 298.96564Q523.1212 299.52814 523.1212 300.1844L523.1212 303.45L522.07434 303.45ZM526.08997 303.45L526.08997 297.23126L527.02747 297.23126L527.02747 298.10626Q527.71497 297.09064 529.01184 297.09064Q529.57434 297.09064 530.0431 297.29376Q530.52747 297.4969 530.76184 297.825Q530.9962 298.15314 531.08997 298.59064Q531.13684 298.8875 531.13684 299.6219L531.13684 303.45L530.08997 303.45L530.08997 299.66876Q530.08997 299.0125 529.96497 298.7Q529.83997 298.3875 529.52747 298.2Q529.21497 297.9969 528.7931 297.9969Q528.1212 297.9969 527.6212 298.4344Q527.13684 298.85626 527.13684 300.04376L527.13684 303.45L526.08997 303.45ZM535.69934 300.34064Q535.69934 298.60626 536.65247 297.77814Q537.44934 297.09064 538.6056 297.09064Q539.88684 297.09064 540.69934 297.9344Q541.52747 298.7625 541.52747 300.2469Q541.52747 301.45 541.1681 302.1375Q540.8087 302.825 540.1056 303.21564Q539.4181 303.59064 538.6056 303.59064Q537.3087 303.59064 536.4962 302.7625Q535.69934 301.91876 535.69934 300.34064ZM536.77747 300.34064Q536.77747 301.52814 537.2931 302.1219Q537.82434 302.71564 538.6056 302.71564Q539.40247 302.71564 539.9181 302.1219Q540.4337 301.52814 540.4337 300.3094Q540.4337 299.15314 539.90247 298.5594Q539.38684 297.96564 538.6056 297.96564Q537.82434 297.96564 537.2931 298.5594Q536.77747 299.1375 536.77747 300.34064ZM543.07434 303.45L543.07434 297.23126L544.02747 297.23126L544.02747 298.16876Q544.38684 297.5125 544.6837 297.3094Q544.9962 297.09064 545.3712 297.09064Q545.90247 297.09064 546.44934 297.41876L546.08997 298.40314Q545.69934 298.16876 545.32434 298.16876Q544.96497 298.16876 544.6837 298.3875Q544.4181 298.59064 544.3087 298.96564Q544.1212 299.52814 544.1212 300.1844L544.1212 303.45L543.07434 303.45Z" fill-rule="nonzero"/><path fill="#000000" d="M464.21497 317.45L464.21497 308.85626L465.37122 308.85626L469.88684 315.60626L469.88684 308.85626L470.9806 308.85626L470.9806 317.45L469.80872 317.45L465.2931 310.7L465.2931 317.45L464.21497 317.45ZM472.69934 314.34064Q472.69934 312.60626 473.65247 311.77814Q474.44934 311.09064 475.6056 311.09064Q476.88684 311.09064 477.69934 311.9344Q478.52747 312.7625 478.52747 314.2469Q478.52747 315.45 478.1681 316.1375Q477.80872 316.825 477.1056 317.21564Q476.4181 317.59064 475.6056 317.59064Q474.30872 317.59064 473.49622 316.7625Q472.69934 315.91876 472.69934 314.34064ZM473.77747 314.34064Q473.77747 315.52814 474.2931 316.1219Q474.82434 316.71564 475.6056 316.71564Q476.40247 316.71564 476.9181 316.1219Q477.43372 315.52814 477.43372 314.3094Q477.43372 313.15314 476.90247 312.5594Q476.38684 311.96564 475.6056 311.96564Q474.82434 311.96564 474.2931 312.5594Q473.77747 313.1375 473.77747 314.34064ZM480.07434 317.45L480.07434 311.23126L481.02747 311.23126L481.02747 312.16876Q481.38684 311.5125 481.68372 311.3094Q481.99622 311.09064 482.37122 311.09064Q482.90247 311.09064 483.44934 311.41876L483.08997 312.40314Q482.69934 312.16876 482.32434 312.16876Q481.96497 312.16876 481.68372 312.3875Q481.4181 312.59064 481.30872 312.96564Q481.12122 313.52814 481.12122 314.1844L481.12122 317.45L480.07434 317.45ZM486.38684 316.5125L486.5431 317.4344Q486.08997 317.52814 485.74622 317.52814Q485.1681 317.52814 484.8556 317.35626Q484.5431 317.16876 484.40247 316.8719Q484.27747 316.575 484.27747 315.6219L484.27747 312.04376L483.51184 312.04376L483.51184 311.23126L484.27747 311.23126L484.27747 309.6844L485.32434 309.0594L485.32434 311.23126L486.38684 311.23126L486.38684 312.04376L485.32434 312.04376L485.32434 315.6844Q485.32434 316.1375 485.37122 316.2625Q485.43372 316.3875 485.55872 316.46564Q485.68372 316.54376 485.9181 316.54376Q486.1056 316.54376 486.38684 316.5125ZM487.08997 317.45L487.08997 308.85626L488.13684 308.85626L488.13684 311.9344Q488.87122 311.09064 489.99622 311.09064Q490.69934 311.09064 491.19934 311.3719Q491.71497 311.6375 491.93372 312.1219Q492.15247 312.59064 492.15247 313.5125L492.15247 317.45L491.1056 317.45L491.1056 313.5125Q491.1056 312.71564 490.76184 312.35626Q490.4181 311.9969 489.7931 311.9969Q489.32434 311.9969 488.90247 312.2469Q488.49622 312.48126 488.30872 312.90314Q488.13684 313.3094 488.13684 314.04376L488.13684 317.45L487.08997 317.45ZM496.27747 317.45L499.57434 308.85626L500.7931 308.85626L504.30872 317.45L503.02747 317.45L502.01184 314.84064L498.43372 314.84064L497.4806 317.45L496.27747 317.45ZM498.76184 313.91876L501.6681 313.91876L500.77747 311.54376Q500.3556 310.46564 500.1681 309.7625Q499.99622 310.59064 499.69934 311.40314L498.76184 313.91876ZM504.33997 317.45L504.33997 312.04376L503.40247 312.04376L503.40247 311.23126L504.33997 311.23126L504.33997 310.5594Q504.33997 309.9344 504.44934 309.6375Q504.6056 309.21564 504.9806 308.96564Q505.37122 308.71564 506.05872 308.71564Q506.51184 308.71564 507.0431 308.825L506.88684 309.73126Q506.55872 309.6844 506.26184 309.6844Q505.77747 309.6844 505.57434 309.8875Q505.38684 310.09064 505.38684 310.65314L505.38684 311.23126L506.6056 311.23126L506.6056 312.04376L505.38684 312.04376L505.38684 317.45L504.33997 317.45ZM507.07434 317.45L507.07434 311.23126L508.02747 311.23126L508.02747 312.16876Q508.38684 311.5125 508.68372 311.3094Q508.99622 311.09064 509.37122 311.09064Q509.90247 311.09064 510.44934 311.41876L510.08997 312.40314Q509.69934 312.16876 509.32434 312.16876Q508.96497 312.16876 508.68372 312.3875Q508.4181 312.59064 508.30872 312.96564Q508.12122 313.52814 508.12122 314.1844L508.12122 317.45L507.07434 317.45ZM511.08997 310.075L511.08997 308.85626L512.15247 308.85626L512.15247 310.075L511.08997 310.075ZM511.08997 317.45L511.08997 311.23126L512.15247 311.23126L512.15247 317.45L511.08997 317.45ZM518.15247 315.16876L519.1837 315.3094Q519.01184 316.3719 518.3087 316.98126Q517.6056 317.59064 516.58997 317.59064Q515.3087 317.59064 514.52747 316.7625Q513.76184 315.91876 513.76184 314.35626Q513.76184 313.35626 514.08997 312.60626Q514.4337 311.84064 515.1056 311.46564Q515.7931 311.09064 516.6056 311.09064Q517.6056 311.09064 518.2462 311.60626Q518.90247 312.10626 519.08997 313.0594L518.0587 313.21564Q517.9181 312.59064 517.5431 312.27814Q517.1681 311.95 516.63684 311.95Q515.83997 311.95 515.33997 312.52814Q514.83997 313.09064 514.83997 314.325Q514.83997 315.59064 515.32434 316.15314Q515.8087 316.71564 516.57434 316.71564Q517.19934 316.71564 517.6056 316.34064Q518.02747 315.96564 518.15247 315.16876ZM524.15247 316.6844Q523.5587 317.1844 523.01184 317.3875Q522.4806 317.59064 521.8556 317.59064Q520.82434 317.59064 520.27747 317.09064Q519.7306 316.59064 519.7306 315.8094Q519.7306 315.35626 519.9337 314.98126Q520.13684 314.59064 520.4806 314.3719Q520.82434 314.1375 521.2462 314.02814Q521.5431 313.9344 522.1837 313.85626Q523.44934 313.71564 524.0587 313.4969Q524.0587 313.27814 524.0587 313.23126Q524.0587 312.575 523.76184 312.3094Q523.3556 311.96564 522.5587 311.96564Q521.82434 311.96564 521.46497 312.23126Q521.1056 312.48126 520.9337 313.1375L519.90247 312.9969Q520.0431 312.34064 520.3712 311.9344Q520.69934 311.52814 521.3087 311.3094Q521.9181 311.09064 522.71497 311.09064Q523.51184 311.09064 524.01184 311.27814Q524.51184 311.46564 524.7462 311.7469Q524.9806 312.02814 525.07434 312.46564Q525.1212 312.73126 525.1212 313.4344L525.1212 314.84064Q525.1212 316.3094 525.1837 316.7Q525.26184 317.09064 525.46497 317.45L524.3556 317.45Q524.19934 317.1219 524.15247 316.6844ZM524.0587 314.325Q523.4806 314.5594 522.33997 314.73126Q521.6837 314.825 521.4181 314.95Q521.15247 315.0594 520.9962 315.27814Q520.8556 315.4969 520.8556 315.77814Q520.8556 316.2 521.1681 316.48126Q521.4962 316.7625 522.1056 316.7625Q522.71497 316.7625 523.1837 316.4969Q523.6681 316.23126 523.88684 315.7625Q524.0587 315.40314 524.0587 314.71564L524.0587 314.325ZM527.08997 317.45L527.08997 311.23126L528.02747 311.23126L528.02747 312.10626Q528.71497 311.09064 530.01184 311.09064Q530.57434 311.09064 531.0431 311.29376Q531.52747 311.4969 531.76184 311.825Q531.9962 312.15314 532.08997 312.59064Q532.13684 312.8875 532.13684 313.6219L532.13684 317.45L531.08997 317.45L531.08997 313.66876Q531.08997 313.0125 530.96497 312.7Q530.83997 312.3875 530.52747 312.2Q530.21497 311.9969 529.7931 311.9969Q529.1212 311.9969 528.6212 312.4344Q528.13684 312.85626 528.13684 314.04376L528.13684 317.45L527.08997 317.45Z" fill-rule="nonzero"/><path fill="#757575" d="M20.159374 37.55L20.159374 23.2375L22.05 23.2375L22.05 29.1125L29.4875 29.1125L29.4875 23.2375L31.378124 23.2375L31.378124 37.55L29.4875 37.55L29.4875 30.8L22.05 30.8L22.05 37.55L20.159374 37.55ZM32.221874 32.3625Q32.221874 29.4875 33.815624 28.096874Q35.159374 26.940624 37.08125 26.940624Q39.221874 26.940624 40.565624 28.346874Q41.925 29.753124 41.925 32.221874Q41.925 34.221874 41.33125 35.378124Q40.7375 36.51875 39.58125 37.159374Q38.440624 37.784374 37.08125 37.784374Q34.89375 37.784374 33.55 36.39375Q32.221874 34.9875 32.221874 32.3625ZM34.01875 32.3625Q34.01875 34.3625 34.878124 35.346874Q35.753124 36.33125 37.08125 36.33125Q38.39375 36.33125 39.253124 35.346874Q40.128124 34.346874 40.128124 32.3Q40.128124 30.378124 39.253124 29.39375Q38.378124 28.39375 37.08125 28.39375Q35.753124 28.39375 34.878124 29.39375Q34.01875 30.378124 34.01875 32.3625ZM45.784374 37.55L42.6125 27.175L44.425 27.175L46.08125 33.159374L46.690624 35.39375Q46.7375 35.221874 47.221874 33.253124L48.878124 27.175L50.690624 27.175L52.2375 33.190624L52.753124 35.175L53.346874 33.175L55.128124 27.175L56.83125 27.175L53.596874 37.55L51.76875 37.55L50.1125 31.33125L49.721874 29.565624L47.6125 37.55L45.784374 37.55ZM66.78438 37.55L63.6125 27.175L65.425 27.175L67.08125 33.159374L67.69063 35.39375Q67.7375 35.221874 68.22188 33.253124L69.87813 27.175L71.69063 27.175L73.2375 33.190624L73.75313 35.175L74.34688 33.175L76.12813 27.175L77.83125 27.175L74.59688 37.55L72.76875 37.55L71.1125 31.33125L70.72188 29.565624L68.6125 37.55L66.78438 37.55ZM79.22188 32.3625Q79.22188 29.4875 80.81563 28.096874Q82.15938 26.940624 84.08125 26.940624Q86.22188 26.940624 87.56563 28.346874Q88.925 29.753124 88.925 32.221874Q88.925 34.221874 88.33125 35.378124Q87.7375 36.51875 86.58125 37.159374Q85.44063 37.784374 84.08125 37.784374Q81.89375 37.784374 80.55 36.39375Q79.22188 34.9875 79.22188 32.3625ZM81.01875 32.3625Q81.01875 34.3625 81.87813 35.346874Q82.75313 36.33125 84.08125 36.33125Q85.39375 36.33125 86.25313 35.346874Q87.12813 34.346874 87.12813 32.3Q87.12813 30.378124 86.25313 29.39375Q85.37813 28.39375 84.08125 28.39375Q82.75313 28.39375 81.87813 29.39375Q81.01875 30.378124 81.01875 32.3625ZM97.65938 37.55L97.65938 36.01875Q96.45625 37.784374 94.37813 37.784374Q93.45625 37.784374 92.65938 37.440624Q91.8625 37.08125 91.47188 36.55Q91.09688 36.01875 90.94063 35.2375Q90.83125 34.721874 90.83125 33.596874L90.83125 27.175L92.58125 27.175L92.58125 32.925Q92.58125 34.3 92.69063 34.784374Q92.8625 35.471874 93.39375 35.878124Q93.94063 36.26875 94.72188 36.26875Q95.51875 36.26875 96.20625 35.8625Q96.90938 35.45625 97.19063 34.76875Q97.4875 34.065624 97.4875 32.7375L97.4875 27.175L99.2375 27.175L99.2375 37.55L97.65938 37.55ZM100.83125 37.55L100.83125 23.2375L102.58125 23.2375L102.58125 37.55L100.83125 37.55ZM111.59688 37.55L111.59688 36.2375Q110.6125 37.784374 108.69063 37.784374Q107.45625 37.784374 106.40938 37.096874Q105.37813 36.409374 104.8 35.190624Q104.2375 33.971874 104.2375 32.378124Q104.2375 30.815624 104.75313 29.55Q105.26875 28.284374 106.3 27.6125Q107.34688 26.940624 108.6125 26.940624Q109.55 26.940624 110.28438 27.346874Q111.01875 27.7375 111.4875 28.3625L111.4875 23.2375L113.22188 23.2375L113.22188 37.55L111.59688 37.55ZM106.03438 32.378124Q106.03438 34.3625 106.87813 35.346874Q107.72188 36.33125 108.8625 36.33125Q110.01875 36.33125 110.81563 35.39375Q111.62813 34.45625 111.62813 32.51875Q111.62813 30.39375 110.8 29.39375Q109.9875 28.39375 108.78438 28.39375Q107.6125 28.39375 106.81563 29.3625Q106.03438 30.315624 106.03438 32.378124ZM121.78438 41.55L121.59688 39.89375Q122.175 40.05 122.59688 40.05Q123.19063 40.05 123.53438 39.846874Q123.89375 39.659374 124.1125 39.315624Q124.28438 39.05 124.65938 38.003124Q124.70625 37.846874 124.81563 37.565624L120.87813 27.175L122.76875 27.175L124.925 33.190624Q125.34688 34.33125 125.675 35.58125Q125.9875 34.378124 126.39375 33.221874L128.6125 27.175L130.37813 27.175L126.425 37.721874Q125.8 39.440624 125.44063 40.08125Q124.97188 40.95625 124.3625 41.346874Q123.76875 41.753124 122.925 41.753124Q122.40938 41.753124 121.78438 41.55ZM131.22188 32.3625Q131.22188 29.4875 132.81563 28.096874Q134.15938 26.940624 136.08125 26.940624Q138.22188 26.940624 139.56563 28.346874Q140.925 29.753124 140.925 32.221874Q140.925 34.221874 140.33125 35.378124Q139.7375 36.51875 138.58125 37.159374Q137.44063 37.784374 136.08125 37.784374Q133.89375 37.784374 132.55 36.39375Q131.22188 34.9875 131.22188 32.3625ZM133.01875 32.3625Q133.01875 34.3625 133.87813 35.346874Q134.75313 36.33125 136.08125 36.33125Q137.39375 36.33125 138.25313 35.346874Q139.12813 34.346874 139.12813 32.3Q139.12813 30.378124 138.25313 29.39375Q137.37813 28.39375 136.08125 28.39375Q134.75313 28.39375 133.87813 29.39375Q133.01875 30.378124 133.01875 32.3625ZM149.65938 37.55L149.65938 36.01875Q148.45625 37.784374 146.37813 37.784374Q145.45625 37.784374 144.65938 37.440624Q143.8625 37.08125 143.47188 36.55Q143.09688 36.01875 142.94063 35.2375Q142.83125 34.721874 142.83125 33.596874L142.83125 27.175L144.58125 27.175L144.58125 32.925Q144.58125 34.3 144.69063 34.784374Q144.8625 35.471874 145.39375 35.878124Q145.94063 36.26875 146.72188 36.26875Q147.51875 36.26875 148.20625 35.8625Q148.90938 35.45625 149.19063 34.76875Q149.4875 34.065624 149.4875 32.7375L149.4875 27.175L151.2375 27.175L151.2375 37.55L149.65938 37.55ZM165.59688 37.55L165.59688 36.2375Q164.6125 37.784374 162.69063 37.784374Q161.45625 37.784374 160.40938 37.096874Q159.37813 36.409374 158.8 35.190624Q158.2375 33.971874 158.2375 32.378124Q158.2375 30.815624 158.75313 29.55Q159.26875 28.284374 160.3 27.6125Q161.34688 26.940624 162.6125 26.940624Q163.55 26.940624 164.28438 27.346874Q165.01875 27.7375 165.4875 28.3625L165.4875 23.2375L167.22188 23.2375L167.22188 37.55L165.59688 37.55ZM160.03438 32.378124Q160.03438 34.3625 160.87813 35.346874Q161.72188 36.33125 162.8625 36.33125Q164.01875 36.33125 164.81563 35.39375Q165.62813 34.45625 165.62813 32.51875Q165.62813 30.39375 164.8 29.39375Q163.9875 28.39375 162.78438 28.39375Q161.6125 28.39375 160.81563 29.3625Q160.03438 30.315624 160.03438 32.378124ZM176.97188 34.20625L178.78438 34.440624Q178.3625 36.01875 177.19063 36.909374Q176.03438 37.784374 174.22188 37.784374Q171.95625 37.784374 170.6125 36.39375Q169.28438 34.9875 169.28438 32.45625Q169.28438 29.83125 170.62813 28.39375Q171.97188 26.940624 174.12813 26.940624Q176.20625 26.940624 177.51875 28.3625Q178.84688 29.76875 178.84688 32.346874Q178.84688 32.503124 178.83125 32.815624L171.09688 32.815624Q171.19063 34.51875 172.06563 35.425Q172.94063 36.33125 174.2375 36.33125Q175.20625 36.33125 175.87813 35.83125Q176.56563 35.315624 176.97188 34.20625ZM171.19063 31.3625L176.9875 31.3625Q176.87813 30.065624 176.33125 29.409374Q175.4875 28.39375 174.14375 28.39375Q172.94063 28.39375 172.1125 29.20625Q171.28438 30.003124 171.19063 31.3625ZM180.15938 34.45625L181.90938 34.175Q182.05 35.221874 182.72188 35.784374Q183.39375 36.33125 184.59688 36.33125Q185.8 36.33125 186.37813 35.846874Q186.97188 35.346874 186.97188 34.690624Q186.97188 34.096874 186.45625 33.753124Q186.09688 33.51875 184.65938 33.159374Q182.72188 32.659374 181.97188 32.315624Q181.2375 31.95625 180.84688 31.33125Q180.45625 30.690624 180.45625 29.925Q180.45625 29.2375 180.76875 28.64375Q181.09688 28.05 181.64375 27.659374Q182.05 27.3625 182.75313 27.159374Q183.47188 26.940624 184.28438 26.940624Q185.50313 26.940624 186.425 27.3Q187.34688 27.64375 187.78438 28.253124Q188.22188 28.846874 188.39375 29.846874L186.675 30.08125Q186.55 29.284374 185.9875 28.846874Q185.425 28.39375 184.40938 28.39375Q183.19063 28.39375 182.675 28.8Q182.15938 29.190624 182.15938 29.721874Q182.15938 30.065624 182.37813 30.346874Q182.58125 30.628124 183.05 30.815624Q183.31563 30.909374 184.59688 31.253124Q186.47188 31.753124 187.20625 32.08125Q187.94063 32.39375 188.3625 33.003124Q188.78438 33.596874 188.78438 34.503124Q188.78438 35.378124 188.26875 36.159374Q187.75313 36.940624 186.78438 37.3625Q185.81563 37.784374 184.59688 37.784374Q182.58125 37.784374 181.51875 36.940624Q180.45625 36.096874 180.15938 34.45625ZM197.64375 33.753124L199.3625 33.971874Q199.08125 35.76875 197.90938 36.784374Q196.75313 37.784374 195.05 37.784374Q192.925 37.784374 191.62813 36.39375Q190.33125 35.003124 190.33125 32.409374Q190.33125 30.721874 190.87813 29.471874Q191.44063 28.20625 192.58125 27.58125Q193.72188 26.940624 195.06563 26.940624Q196.75313 26.940624 197.81563 27.8Q198.89375 28.659374 199.20625 30.221874L197.4875 30.4875Q197.25313 29.440624 196.62813 28.925Q196.00313 28.39375 195.12813 28.39375Q193.8 28.39375 192.97188 29.346874Q192.14375 30.3 192.14375 32.346874Q192.14375 34.440624 192.94063 35.39375Q193.7375 36.33125 195.03438 36.33125Q196.06563 36.33125 196.75313 35.70625Q197.45625 35.065624 197.64375 33.753124ZM200.84688 37.55L200.84688 27.175L202.425 27.175L202.425 28.753124Q203.03438 27.64375 203.55 27.3Q204.06563 26.940624 204.675 26.940624Q205.56563 26.940624 206.4875 27.503124L205.87813 29.14375Q205.2375 28.753124 204.59688 28.753124Q204.01875 28.753124 203.55 29.1125Q203.09688 29.45625 202.89375 30.065624Q202.6125 31.003124 202.6125 32.1125L202.6125 37.55L200.84688 37.55ZM207.87813 25.253124L207.87813 23.2375L209.64375 23.2375L209.64375 25.253124L207.87813 25.253124ZM207.87813 37.55L207.87813 27.175L209.64375 27.175L209.64375 37.55L207.87813 37.55ZM213.4875 37.55L211.8625 37.55L211.8625 23.2375L213.6125 23.2375L213.6125 28.346874Q214.7375 26.940624 216.45625 26.940624Q217.40938 26.940624 218.26875 27.33125Q219.12813 27.721874 219.675 28.425Q220.22188 29.1125 220.53438 30.096874Q220.84688 31.08125 220.84688 32.20625Q220.84688 34.878124 219.53438 36.33125Q218.22188 37.784374 216.37813 37.784374Q214.53438 37.784374 213.4875 36.253124L213.4875 37.55ZM213.47188 32.284374Q213.47188 34.14375 213.97188 34.9875Q214.81563 36.33125 216.22188 36.33125Q217.37813 36.33125 218.20625 35.33125Q219.05 34.33125 219.05 32.346874Q219.05 30.315624 218.2375 29.3625Q217.44063 28.39375 216.3 28.39375Q215.14375 28.39375 214.3 29.39375Q213.47188 30.39375 213.47188 32.284374ZM229.97188 34.20625L231.78438 34.440624Q231.3625 36.01875 230.19063 36.909374Q229.03438 37.784374 227.22188 37.784374Q224.95625 37.784374 223.6125 36.39375Q222.28438 34.9875 222.28438 32.45625Q222.28438 29.83125 223.62813 28.39375Q224.97188 26.940624 227.12813 26.940624Q229.20625 26.940624 230.51875 28.3625Q231.84688 29.76875 231.84688 32.346874Q231.84688 32.503124 231.83125 32.815624L224.09688 32.815624Q224.19063 34.51875 225.06563 35.425Q225.94063 36.33125 227.2375 36.33125Q228.20625 36.33125 228.87813 35.83125Q229.56563 35.315624 229.97188 34.20625ZM224.19063 31.3625L229.9875 31.3625Q229.87813 30.065624 229.33125 29.409374Q228.4875 28.39375 227.14375 28.39375Q225.94063 28.39375 225.1125 29.20625Q224.28438 30.003124 224.19063 31.3625ZM239.78438 41.55L239.59688 39.89375Q240.175 40.05 240.59688 40.05Q241.19063 40.05 241.53438 39.846874Q241.89375 39.659374 242.1125 39.315624Q242.28438 39.05 242.65938 38.003124Q242.70625 37.846874 242.81563 37.565624L238.87813 27.175L240.76875 27.175L242.925 33.190624Q243.34688 34.33125 243.675 35.58125Q243.9875 34.378124 244.39375 33.221874L246.6125 27.175L248.37813 27.175L244.425 37.721874Q243.8 39.440624 243.44063 40.08125Q242.97188 40.95625 242.3625 41.346874Q241.76875 41.753124 240.925 41.753124Q240.40938 41.753124 239.78438 41.55ZM249.22188 32.3625Q249.22188 29.4875 250.81563 28.096874Q252.15938 26.940624 254.08125 26.940624Q256.22186 26.940624 257.5656 28.346874Q258.925 29.753124 258.925 32.221874Q258.925 34.221874 258.33124 35.378124Q257.7375 36.51875 256.58124 37.159374Q255.44063 37.784374 254.08125 37.784374Q251.89375 37.784374 250.55 36.39375Q249.22188 34.9875 249.22188 32.3625ZM251.01875 32.3625Q251.01875 34.3625 251.87813 35.346874Q252.75313 36.33125 254.08125 36.33125Q255.39375 36.33125 256.2531 35.346874Q257.1281 34.346874 257.1281 32.3Q257.1281 30.378124 256.2531 29.39375Q255.37813 28.39375 254.08125 28.39375Q252.75313 28.39375 251.87813 29.39375Q251.01875 30.378124 251.01875 32.3625ZM267.65936 37.55L267.65936 36.01875Q266.45624 37.784374 264.3781 37.784374Q263.45624 37.784374 262.65936 37.440624Q261.8625 37.08125 261.47186 36.55Q261.09686 36.01875 260.9406 35.2375Q260.83124 34.721874 260.83124 33.596874L260.83124 27.175L262.58124 27.175L262.58124 32.925Q262.58124 34.3 262.6906 34.784374Q262.8625 35.471874 263.39374 35.878124Q263.9406 36.26875 264.72186 36.26875Q265.51874 36.26875 266.20624 35.8625Q266.90936 35.45625 267.1906 34.76875Q267.4875 34.065624 267.4875 32.7375L267.4875 27.175L269.2375 27.175L269.2375 37.55L267.65936 37.55ZM270.84686 37.55L270.84686 27.175L272.425 27.175L272.425 28.753124Q273.03436 27.64375 273.55 27.3Q274.0656 26.940624 274.675 26.940624Q275.5656 26.940624 276.4875 27.503124L275.8781 29.14375Q275.2375 28.753124 274.59686 28.753124Q274.01874 28.753124 273.55 29.1125Q273.09686 29.45625 272.89374 30.065624Q272.6125 31.003124 272.6125 32.1125L272.6125 37.55L270.84686 37.55ZM290.97186 34.20625L292.78436 34.440624Q292.3625 36.01875 291.1906 36.909374Q290.03436 37.784374 288.22186 37.784374Q285.95624 37.784374 284.6125 36.39375Q283.28436 34.9875 283.28436 32.45625Q283.28436 29.83125 284.6281 28.39375Q285.97186 26.940624 288.1281 26.940624Q290.20624 26.940624 291.51874 28.3625Q292.84686 29.76875 292.84686 32.346874Q292.84686 32.503124 292.83124 32.815624L285.09686 32.815624Q285.1906 34.51875 286.0656 35.425Q286.9406 36.33125 288.2375 36.33125Q289.20624 36.33125 289.8781 35.83125Q290.5656 35.315624 290.97186 34.20625ZM285.1906 31.3625L290.9875 31.3625Q290.8781 30.065624 290.33124 29.409374Q289.4875 28.39375 288.14374 28.39375Q286.9406 28.39375 286.1125 29.20625Q285.28436 30.003124 285.1906 31.3625ZM298.70624 35.971874L298.95624 37.534374Q298.22186 37.690624 297.6281 37.690624Q296.675 37.690624 296.14374 37.39375Q295.6281 37.08125 295.40936 36.596874Q295.1906 36.096874 295.1906 34.51875L295.1906 28.55L293.90936 28.55L293.90936 27.175L295.1906 27.175L295.1906 24.6125L296.9406 23.55L296.9406 27.175L298.70624 27.175L298.70624 28.55L296.9406 28.55L296.9406 34.6125Q296.9406 35.3625 297.03436 35.58125Q297.1281 35.784374 297.33124 35.925Q297.55 36.05 297.9406 36.05Q298.22186 36.05 298.70624 35.971874ZM300.8625 37.55L300.8625 23.2375L302.6281 23.2375L302.6281 28.3625Q303.8625 26.940624 305.7375 26.940624Q306.8781 26.940624 307.72186 27.39375Q308.58124 27.846874 308.9406 28.659374Q309.3156 29.45625 309.3156 30.971874L309.3156 37.55L307.5656 37.55L307.5656 30.971874Q307.5656 29.659374 306.9875 29.065624Q306.40936 28.45625 305.3781 28.45625Q304.59686 28.45625 303.89374 28.8625Q303.20624 29.26875 302.90936 29.971874Q302.6281 30.659374 302.6281 31.878124L302.6281 37.55L300.8625 37.55ZM310.8625 37.55L310.8625 27.175L312.45624 27.175L312.45624 28.659374Q313.59686 26.940624 315.7531 26.940624Q316.6906 26.940624 317.47186 27.284374Q318.26874 27.6125 318.65936 28.159374Q319.05 28.70625 319.20624 29.45625Q319.3 29.95625 319.3 31.175L319.3 37.55L317.53436 37.55L317.53436 31.2375Q317.53436 30.159374 317.33124 29.628124Q317.1281 29.096874 316.59686 28.784374Q316.08124 28.471874 315.3781 28.471874Q314.2531 28.471874 313.4406 29.190624Q312.6281 29.89375 312.6281 31.878124L312.6281 37.55L310.8625 37.55ZM320.8781 25.253124L320.8781 23.2375L322.64374 23.2375L322.64374 25.253124L320.8781 25.253124ZM320.8781 37.55L320.8781 27.175L322.64374 27.175L322.64374 37.55L320.8781 37.55ZM331.64374 33.753124L333.3625 33.971874Q333.08124 35.76875 331.90936 36.784374Q330.7531 37.784374 329.05 37.784374Q326.925 37.784374 325.6281 36.39375Q324.33124 35.003124 324.33124 32.409374Q324.33124 30.721874 324.8781 29.471874Q325.4406 28.20625 326.58124 27.58125Q327.72186 26.940624 329.0656 26.940624Q330.7531 26.940624 331.8156 27.8Q332.89374 28.659374 333.20624 30.221874L331.4875 30.4875Q331.2531 29.440624 330.6281 28.925Q330.0031 28.39375 329.1281 28.39375Q327.8 28.39375 326.97186 29.346874Q326.14374 30.3 326.14374 32.346874Q326.14374 34.440624 326.9406 35.39375Q327.7375 36.33125 329.03436 36.33125Q330.0656 36.33125 330.7531 35.70625Q331.45624 35.065624 331.64374 33.753124ZM334.8781 25.253124L334.8781 23.2375L336.64374 23.2375L336.64374 25.253124L334.8781 25.253124ZM334.8781 37.55L334.8781 27.175L336.64374 27.175L336.64374 37.55L334.8781 37.55ZM342.70624 35.971874L342.95624 37.534374Q342.22186 37.690624 341.6281 37.690624Q340.675 37.690624 340.14374 37.39375Q339.6281 37.08125 339.40936 36.596874Q339.1906 36.096874 339.1906 34.51875L339.1906 28.55L337.90936 28.55L337.90936 27.175L339.1906 27.175L339.1906 24.6125L340.9406 23.55L340.9406 27.175L342.70624 27.175L342.70624 28.55L340.9406 28.55L340.9406 34.6125Q340.9406 35.3625 341.03436 35.58125Q341.1281 35.784374 341.33124 35.925Q341.55 36.05 341.9406 36.05Q342.22186 36.05 342.70624 35.971874ZM344.78436 41.55L344.59686 39.89375Q345.175 40.05 345.59686 40.05Q346.1906 40.05 346.53436 39.846874Q346.89374 39.659374 347.1125 39.315624Q347.28436 39.05 347.65936 38.003124Q347.70624 37.846874 347.8156 37.565624L343.8781 27.175L345.76874 27.175L347.925 33.190624Q348.34686 34.33125 348.675 35.58125Q348.9875 34.378124 349.39374 33.221874L351.6125 27.175L353.3781 27.175L349.425 37.721874Q348.8 39.440624 348.4406 40.08125Q347.97186 40.95625 347.3625 41.346874Q346.76874 41.753124 345.925 41.753124Q345.40936 41.753124 344.78436 41.55ZM358.15936 34.01875Q358.14374 33.675 358.14374 33.503124Q358.14374 32.45625 358.4406 31.70625Q358.65936 31.14375 359.14374 30.565624Q359.4875 30.14375 360.39374 29.346874Q361.3156 28.534374 361.58124 28.065624Q361.8625 27.58125 361.8625 27.01875Q361.8625 25.9875 361.05 25.221874Q360.2531 24.440624 359.09686 24.440624Q357.97186 24.440624 357.22186 25.14375Q356.47186 25.846874 356.2375 27.33125L354.425 27.1125Q354.675 25.1125 355.8781 24.05Q357.08124 22.9875 359.0656 22.9875Q361.175 22.9875 362.425 24.128124Q363.675 25.26875 363.675 26.89375Q363.675 27.83125 363.22186 28.628124Q362.78436 29.409374 361.5031 30.55Q360.64374 31.315624 360.3781 31.675Q360.1281 32.034374 359.9875 32.503124Q359.8625 32.971874 359.84686 34.01875L358.15936 34.01875ZM358.05 37.55L358.05 35.55L360.05 35.55L360.05 37.55L358.05 37.55Z" fill-rule="nonzero"/></svg>