<svg version="1.1" viewBox="0.0 0.0 600.0 371.0" fill="none" stroke="none" stroke-linecap="square" stroke-miterlimit="10" width="600" height="371" xmlns:xlink="http://www.w3.org/1999/xlink" xmlns="http://www.w3.org/2000/svg"><path fill="#ffffff" d="M0 0L600.0 0L600.0 371.0L0 371.0L0 0Z" fill-rule="nonzero"/><path stroke="#333333" stroke-width="1.0" stroke-linecap="butt" d="M45.5 332.5L581.5 332.5" fill-rule="nonzero"/><path stroke="#cccccc" stroke-width="1.0" stroke-linecap="butt" d="M45.5 250.5L581.5 250.5" fill-rule="nonzero"/><path stroke="#cccccc" stroke-width="1.0" stroke-linecap="butt" d="M45.5 168.5L581.5 168.5" fill-rule="nonzero"/><path stroke="#cccccc" stroke-width="1.0" stroke-linecap="butt" d="M45.5 85.5L581.5 85.5" fill-rule="nonzero"/><clipPath id="id_0"><path d="M45.55 85.916664L581.45 85.916664L581.45 332.45L45.55 332.45L45.55 85.916664Z" clip-rule="nonzero"/></clipPath><path stroke="#000000" stroke-width="2.0" stroke-linecap="butt" stroke-opacity="0.0" clip-path="url(#id_0)" d="M273.0 332.0L125.0 332.0L125.0 88.0C125.0 86.89543 125.89543 86.0 127.0 86.0L271.0 86.0C272.10458 86.0 273.0 86.89543 273.0 88.0Z" fill-rule="nonzero"/><path fill="#4285f4" clip-path="url(#id_0)" d="M273.0 332.0L125.0 332.0L125.0 88.0C125.0 86.89543 125.89543 86.0 127.0 86.0L271.0 86.0C272.10458 86.0 273.0 86.89543 273.0 88.0Z" fill-rule="nonzero"/><path stroke="#000000" stroke-width="2.0" stroke-linecap="butt" stroke-opacity="0.0" clip-path="url(#id_0)" d="M502.0 332.0L354.0 332.0L354.0 293.0C354.0 291.89542 354.89542 291.0 356.0 291.0L500.0 291.0C501.10458 291.0 502.0 291.89542 502.0 293.0Z" fill-rule="nonzero"/><path fill="#4285f4" clip-path="url(#id_0)" d="M502.0 332.0L354.0 332.0L354.0 293.0C354.0 291.89542 354.89542 291.0 356.0 291.0L500.0 291.0C501.10458 291.0 502.0 291.89542 502.0 293.0Z" fill-rule="nonzero"/><path fill="#000000" d="M33.05 332.21564Q33.05 330.6844 33.3625 329.7625Q33.675 328.825 34.284374 328.325Q34.909374 327.825 35.846874 327.825Q36.534374 327.825 37.05 328.10626Q37.58125 328.3875 37.925 328.91876Q38.26875 329.4344 38.45625 330.1844Q38.64375 330.9344 38.64375 332.21564Q38.64375 333.73126 38.33125 334.65314Q38.034374 335.575 37.409374 336.09064Q36.8 336.59064 35.846874 336.59064Q34.6125 336.59064 33.89375 335.7Q33.05 334.6375 33.05 332.21564ZM34.128124 332.21564Q34.128124 334.325 34.628124 335.02814Q35.128124 335.73126 35.846874 335.73126Q36.58125 335.73126 37.065624 335.02814Q37.565624 334.325 37.565624 332.21564Q37.565624 330.09064 37.065624 329.40314Q36.58125 328.7 35.83125 328.7Q35.1125 328.7 34.675 329.3094Q34.128124 330.09064 34.128124 332.21564Z" fill-rule="nonzero"/><path fill="#000000" d="M30.01875 254.27222L28.971874 254.27222L28.971874 247.55347Q28.58125 247.91284 27.95625 248.28784Q27.346874 248.64722 26.8625 248.81909L26.8625 247.80347Q27.7375 247.38159 28.39375 246.80347Q29.065624 246.20972 29.346874 245.64722L30.01875 245.64722L30.01875 254.27222ZM33.05 250.03784Q33.05 248.50659 33.3625 247.58472Q33.675 246.64722 34.284374 246.14722Q34.909374 245.64722 35.846874 245.64722Q36.534374 245.64722 37.05 245.92847Q37.58125 246.20972 37.925 246.74097Q38.26875 247.25659 38.45625 248.00659Q38.64375 248.75659 38.64375 250.03784Q38.64375 251.55347 38.33125 252.47534Q38.034374 253.39722 37.409374 253.91284Q36.8 254.41284 35.846874 254.41284Q34.6125 254.41284 33.89375 253.52222Q33.05 252.45972 33.05 250.03784ZM34.128124 250.03784Q34.128124 252.14722 34.628124 252.85034Q35.128124 253.55347 35.846874 253.55347Q36.58125 253.55347 37.065624 252.85034Q37.565624 252.14722 37.565624 250.03784Q37.565624 247.91284 37.065624 247.22534Q36.58125 246.52222 35.83125 246.52222Q35.1125 246.52222 34.675 247.13159Q34.128124 247.91284 34.128124 250.03784Z" fill-rule="nonzero"/><path fill="#000000" d="M31.596874 171.07883L31.596874 172.09445L25.909374 172.09445Q25.909374 171.71945 26.034374 171.36008Q26.253124 170.78195 26.721874 170.21945Q27.20625 169.65695 28.1125 168.92258Q29.51875 167.76633 30.003124 167.09445Q30.503124 166.42258 30.503124 165.82883Q30.503124 165.20383 30.05 164.78195Q29.596874 164.34445 28.878124 164.34445Q28.1125 164.34445 27.659374 164.79758Q27.20625 165.2507 27.190624 166.0632L26.1125 165.95383Q26.221874 164.73508 26.940624 164.11008Q27.675 163.46945 28.909374 163.46945Q30.14375 163.46945 30.8625 164.15695Q31.58125 164.84445 31.58125 165.86008Q31.58125 166.3757 31.3625 166.8757Q31.159374 167.36008 30.659374 167.92258Q30.175 168.46945 29.05 169.42258Q28.096874 170.21945 27.815624 170.51633Q27.55 170.79758 27.378124 171.07883L31.596874 171.07883ZM33.05 167.86008Q33.05 166.32883 33.3625 165.40695Q33.675 164.46945 34.284374 163.96945Q34.909374 163.46945 35.846874 163.46945Q36.534374 163.46945 37.05 163.7507Q37.58125 164.03195 37.925 164.5632Q38.26875 165.07883 38.45625 165.82883Q38.64375 166.57883 38.64375 167.86008Q38.64375 169.3757 38.33125 170.29758Q38.034374 171.21945 37.409374 171.73508Q36.8 172.23508 35.846874 172.23508Q34.6125 172.23508 33.89375 171.34445Q33.05 170.28195 33.05 167.86008ZM34.128124 167.86008Q34.128124 169.96945 34.628124 170.67258Q35.128124 171.3757 35.846874 171.3757Q36.58125 171.3757 37.065624 170.67258Q37.565624 169.96945 37.565624 167.86008Q37.565624 165.73508 37.065624 165.04758Q36.58125 164.34445 35.83125 164.34445Q35.1125 164.34445 34.675 164.95383Q34.128124 165.73508 34.128124 167.86008Z" fill-rule="nonzero"/><path fill="#000000" d="M26.05 87.65104L27.1125 87.510414Q27.284374 88.40104 27.721874 88.80729Q28.159374 89.197914 28.784374 89.197914Q29.534374 89.197914 30.05 88.68229Q30.565624 88.166664 30.565624 87.40104Q30.565624 86.68229 30.08125 86.21354Q29.6125 85.729164 28.878124 85.729164Q28.58125 85.729164 28.128124 85.854164L28.253124 84.916664Q28.3625 84.93229 28.425 84.93229Q29.096874 84.93229 29.628124 84.58854Q30.175 84.229164 30.175 83.49479Q30.175 82.916664 29.784374 82.541664Q29.39375 82.15104 28.76875 82.15104Q28.159374 82.15104 27.7375 82.541664Q27.33125 82.93229 27.221874 83.697914L26.159374 83.510414Q26.346874 82.46354 27.034374 81.885414Q27.721874 81.291664 28.7375 81.291664Q29.440624 81.291664 30.034374 81.604164Q30.628124 81.90104 30.940624 82.416664Q31.253124 82.93229 31.253124 83.52604Q31.253124 84.072914 30.95625 84.541664Q30.659374 84.99479 30.08125 85.260414Q30.83125 85.43229 31.253124 85.99479Q31.675 86.541664 31.675 87.385414Q31.675 88.510414 30.846874 89.291664Q30.034374 90.072914 28.784374 90.072914Q27.659374 90.072914 26.909374 89.40104Q26.159374 88.71354 26.05 87.65104ZM33.05 85.68229Q33.05 84.15104 33.3625 83.229164Q33.675 82.291664 34.284374 81.791664Q34.909374 81.291664 35.846874 81.291664Q36.534374 81.291664 37.05 81.572914Q37.58125 81.854164 37.925 82.385414Q38.26875 82.90104 38.45625 83.65104Q38.64375 84.40104 38.64375 85.68229Q38.64375 87.197914 38.33125 88.11979Q38.034374 89.041664 37.409374 89.55729Q36.8 90.05729 35.846874 90.05729Q34.6125 90.05729 33.89375 89.166664Q33.05 88.104164 33.05 85.68229ZM34.128124 85.68229Q34.128124 87.791664 34.628124 88.49479Q35.128124 89.197914 35.846874 89.197914Q36.58125 89.197914 37.065624 88.49479Q37.565624 87.791664 37.565624 85.68229Q37.565624 83.55729 37.065624 82.86979Q36.58125 82.166664 35.83125 82.166664Q35.1125 82.166664 34.675 82.77604Q34.128124 83.55729 34.128124 85.68229Z" fill-rule="nonzero"/><path fill="#000000" d="M192.32248 349.45L192.32248 345.8094L189.00998 340.85626L190.4006 340.85626L192.0881 343.45Q192.55685 344.16876 192.9631 344.90314Q193.35373 344.23126 193.9006 343.3875L195.57248 340.85626L196.88498 340.85626L193.4631 345.8094L193.4631 349.45L192.32248 349.45ZM201.0256 347.45L202.11935 347.575Q201.86935 348.52814 201.16623 349.0594Q200.4631 349.59064 199.38498 349.59064Q198.0256 349.59064 197.2131 348.7469Q196.41623 347.90314 196.41623 346.3875Q196.41623 344.825 197.22873 343.96564Q198.04123 343.09064 199.32248 343.09064Q200.57248 343.09064 201.35373 343.9344Q202.1506 344.77814 202.1506 346.325Q202.1506 346.41876 202.1506 346.60626L197.50998 346.60626Q197.57248 347.6375 198.0881 348.1844Q198.60373 348.71564 199.38498 348.71564Q199.9631 348.71564 200.36935 348.41876Q200.79123 348.10626 201.0256 347.45ZM197.57248 345.7469L201.04123 345.7469Q200.97873 344.95 200.6506 344.5594Q200.13498 343.95 199.3381 343.95Q198.60373 343.95 198.10373 344.4344Q197.61935 344.91876 197.57248 345.7469ZM203.35373 347.59064L204.38498 347.4344Q204.47873 348.0594 204.86935 348.3875Q205.2756 348.71564 206.00998 348.71564Q206.72873 348.71564 207.07248 348.4344Q207.43185 348.1375 207.43185 347.73126Q207.43185 347.3719 207.11935 347.16876Q206.9006 347.02814 206.04123 346.8094Q204.88498 346.5125 204.43185 346.3094Q203.99435 346.09064 203.75998 345.71564Q203.5256 345.34064 203.5256 344.8719Q203.5256 344.46564 203.7131 344.10626Q203.9006 343.7469 204.22873 343.5125Q204.47873 343.34064 204.9006 343.21564Q205.32248 343.09064 205.82248 343.09064Q206.54123 343.09064 207.0881 343.3094Q207.6506 343.5125 207.91623 343.8719Q208.18185 344.23126 208.2756 344.825L207.24435 344.96564Q207.18185 344.4969 206.8381 344.23126Q206.50998 343.95 205.88498 343.95Q205.16623 343.95 204.85373 344.2Q204.54123 344.4344 204.54123 344.7625Q204.54123 344.96564 204.66623 345.1219Q204.80685 345.29376 205.07248 345.40314Q205.22873 345.46564 206.00998 345.66876Q207.13498 345.98126 207.57248 346.16876Q208.00998 346.35626 208.25998 346.71564Q208.50998 347.075 208.50998 347.6219Q208.50998 348.15314 208.19748 348.6219Q207.9006 349.075 207.32248 349.34064Q206.74435 349.59064 206.00998 349.59064Q204.79123 349.59064 204.1506 349.09064Q203.5256 348.575 203.35373 347.59064Z" fill-rule="nonzero"/><path fill="#000000" d="M420.44315 349.45L420.44315 340.85626L421.5994 340.85626L426.11502 347.60626L426.11502 340.85626L427.20877 340.85626L427.20877 349.45L426.0369 349.45L421.52127 342.7L421.52127 349.45L420.44315 349.45ZM428.92752 346.34064Q428.92752 344.60626 429.88065 343.77814Q430.67752 343.09064 431.83377 343.09064Q433.11502 343.09064 433.92752 343.9344Q434.75565 344.7625 434.75565 346.2469Q434.75565 347.45 434.39627 348.1375Q434.0369 348.825 433.33377 349.21564Q432.64627 349.59064 431.83377 349.59064Q430.5369 349.59064 429.7244 348.7625Q428.92752 347.91876 428.92752 346.34064ZM430.00565 346.34064Q430.00565 347.52814 430.52127 348.1219Q431.05252 348.71564 431.83377 348.71564Q432.63065 348.71564 433.14627 348.1219Q433.6619 347.52814 433.6619 346.3094Q433.6619 345.15314 433.13065 344.5594Q432.61502 343.96564 431.83377 343.96564Q431.05252 343.96564 430.52127 344.5594Q430.00565 345.1375 430.00565 346.34064Z" fill-rule="nonzero"/><path fill="#757575" d="M20.096874 37.55L20.096874 23.2375L25.01875 23.2375Q26.690624 23.2375 27.58125 23.440624Q28.8 23.721874 29.675 24.45625Q30.8 25.425 31.3625 26.909374Q31.925 28.39375 31.925 30.315624Q31.925 31.940624 31.55 33.20625Q31.175 34.45625 30.565624 35.284374Q29.971874 36.1125 29.26875 36.596874Q28.565624 37.065624 27.565624 37.315624Q26.565624 37.55 25.253124 37.55L20.096874 37.55ZM21.9875 35.8625L25.05 35.8625Q26.45625 35.8625 27.253124 35.596874Q28.065624 35.33125 28.55 34.846874Q29.221874 34.175 29.596874 33.05Q29.971874 31.909374 29.971874 30.284374Q29.971874 28.034374 29.2375 26.83125Q28.503124 25.628124 27.440624 25.221874Q26.690624 24.925 25.003124 24.925L21.9875 24.925L21.9875 35.8625ZM33.878124 25.253124L33.878124 23.2375L35.64375 23.2375L35.64375 25.253124L33.878124 25.253124ZM33.878124 37.55L33.878124 27.175L35.64375 27.175L35.64375 37.55L33.878124 37.55ZM44.596874 37.55L44.596874 36.2375Q43.6125 37.784374 41.690624 37.784374Q40.45625 37.784374 39.409374 37.096874Q38.378124 36.409374 37.8 35.190624Q37.2375 33.971874 37.2375 32.378124Q37.2375 30.815624 37.753124 29.55Q38.26875 28.284374 39.3 27.6125Q40.346874 26.940624 41.6125 26.940624Q42.55 26.940624 43.284374 27.346874Q44.01875 27.7375 44.4875 28.3625L44.4875 23.2375L46.221874 23.2375L46.221874 37.55L44.596874 37.55ZM39.034374 32.378124Q39.034374 34.3625 39.878124 35.346874Q40.721874 36.33125 41.8625 36.33125Q43.01875 36.33125 43.815624 35.39375Q44.628124 34.45625 44.628124 32.51875Q44.628124 30.39375 43.8 29.39375Q42.9875 28.39375 41.784374 28.39375Q40.6125 28.39375 39.815624 29.3625Q39.034374 30.315624 39.034374 32.378124ZM61.971874 34.20625L63.784374 34.440624Q63.3625 36.01875 62.190624 36.909374Q61.034374 37.784374 59.221874 37.784374Q56.95625 37.784374 55.6125 36.39375Q54.284374 34.9875 54.284374 32.45625Q54.284374 29.83125 55.628124 28.39375Q56.971874 26.940624 59.128124 26.940624Q61.20625 26.940624 62.51875 28.3625Q63.846874 29.76875 63.846874 32.346874Q63.846874 32.503124 63.83125 32.815624L56.096874 32.815624Q56.190624 34.51875 57.065624 35.425Q57.940624 36.33125 59.2375 36.33125Q60.20625 36.33125 60.878124 35.83125Q61.565624 35.315624 61.971874 34.20625ZM56.190624 31.3625L61.9875 31.3625Q61.878124 30.065624 61.33125 29.409374Q60.4875 28.39375 59.14375 28.39375Q57.940624 28.39375 57.1125 29.20625Q56.284374 30.003124 56.190624 31.3625ZM65.87813 25.253124L65.87813 23.2375L67.64375 23.2375L67.64375 25.253124L65.87813 25.253124ZM65.87813 37.55L65.87813 27.175L67.64375 27.175L67.64375 37.55L65.87813 37.55ZM73.70625 35.971874L73.95625 37.534374Q73.22188 37.690624 72.62813 37.690624Q71.675 37.690624 71.14375 37.39375Q70.62813 37.08125 70.40938 36.596874Q70.19063 36.096874 70.19063 34.51875L70.19063 28.55L68.90938 28.55L68.90938 27.175L70.19063 27.175L70.19063 24.6125L71.94063 23.55L71.94063 27.175L73.70625 27.175L73.70625 28.55L71.94063 28.55L71.94063 34.6125Q71.94063 35.3625 72.03438 35.58125Q72.12813 35.784374 72.33125 35.925Q72.55 36.05 72.94063 36.05Q73.22188 36.05 73.70625 35.971874ZM75.8625 37.55L75.8625 23.2375L77.62813 23.2375L77.62813 28.3625Q78.8625 26.940624 80.7375 26.940624Q81.87813 26.940624 82.72188 27.39375Q83.58125 27.846874 83.94063 28.659374Q84.31563 29.45625 84.31563 30.971874L84.31563 37.55L82.56563 37.55L82.56563 30.971874Q82.56563 29.659374 81.9875 29.065624Q81.40938 28.45625 80.37813 28.45625Q79.59688 28.45625 78.89375 28.8625Q78.20625 29.26875 77.90938 29.971874Q77.62813 30.659374 77.62813 31.878124L77.62813 37.55L75.8625 37.55ZM92.97188 34.20625L94.78438 34.440624Q94.3625 36.01875 93.19063 36.909374Q92.03438 37.784374 90.22188 37.784374Q87.95625 37.784374 86.6125 36.39375Q85.28438 34.9875 85.28438 32.45625Q85.28438 29.83125 86.62813 28.39375Q87.97188 26.940624 90.12813 26.940624Q92.20625 26.940624 93.51875 28.3625Q94.84688 29.76875 94.84688 32.346874Q94.84688 32.503124 94.83125 32.815624L87.09688 32.815624Q87.19063 34.51875 88.06563 35.425Q88.94063 36.33125 90.2375 36.33125Q91.20625 36.33125 91.87813 35.83125Q92.56563 35.315624 92.97188 34.20625ZM87.19063 31.3625L92.9875 31.3625Q92.87813 30.065624 92.33125 29.409374Q91.4875 28.39375 90.14375 28.39375Q88.94063 28.39375 88.1125 29.20625Q87.28438 30.003124 87.19063 31.3625ZM96.84688 37.55L96.84688 27.175L98.425 27.175L98.425 28.753124Q99.03438 27.64375 99.55 27.3Q100.06563 26.940624 100.675 26.940624Q101.56563 26.940624 102.4875 27.503124L101.87813 29.14375Q101.2375 28.753124 100.59688 28.753124Q100.01875 28.753124 99.55 29.1125Q99.09688 29.45625 98.89375 30.065624Q98.6125 31.003124 98.6125 32.1125L98.6125 37.55L96.84688 37.55ZM109.22188 32.3625Q109.22188 29.4875 110.81563 28.096874Q112.15938 26.940624 114.08125 26.940624Q116.22188 26.940624 117.56563 28.346874Q118.925 29.753124 118.925 32.221874Q118.925 34.221874 118.33125 35.378124Q117.7375 36.51875 116.58125 37.159374Q115.44063 37.784374 114.08125 37.784374Q111.89375 37.784374 110.55 36.39375Q109.22188 34.9875 109.22188 32.3625ZM111.01875 32.3625Q111.01875 34.3625 111.87813 35.346874Q112.75313 36.33125 114.08125 36.33125Q115.39375 36.33125 116.25313 35.346874Q117.12813 34.346874 117.12813 32.3Q117.12813 30.378124 116.25313 29.39375Q115.37813 28.39375 114.08125 28.39375Q112.75313 28.39375 111.87813 29.39375Q111.01875 30.378124 111.01875 32.3625ZM121.28438 37.55L121.28438 28.55L119.7375 28.55L119.7375 27.175L121.28438 27.175L121.28438 26.08125Q121.28438 25.034374 121.47188 24.51875Q121.72188 23.83125 122.3625 23.409374Q123.00313 22.9875 124.15938 22.9875Q124.90938 22.9875 125.8 23.159374L125.53438 24.690624Q124.9875 24.596874 124.50313 24.596874Q123.70625 24.596874 123.3625 24.940624Q123.03438 25.284374 123.03438 26.221874L123.03438 27.175L125.06563 27.175L125.06563 28.55L123.03438 28.55L123.03438 37.55L121.28438 37.55ZM132.78438 41.55L132.59688 39.89375Q133.175 40.05 133.59688 40.05Q134.19063 40.05 134.53438 39.846874Q134.89375 39.659374 135.1125 39.315624Q135.28438 39.05 135.65938 38.003124Q135.70625 37.846874 135.81563 37.565624L131.87813 27.175L133.76875 27.175L135.925 33.190624Q136.34688 34.33125 136.675 35.58125Q136.9875 34.378124 137.39375 33.221874L139.6125 27.175L141.37813 27.175L137.425 37.721874Q136.8 39.440624 136.44063 40.08125Q135.97188 40.95625 135.3625 41.346874Q134.76875 41.753124 133.925 41.753124Q133.40938 41.753124 132.78438 41.55ZM142.22188 32.3625Q142.22188 29.4875 143.81563 28.096874Q145.15938 26.940624 147.08125 26.940624Q149.22188 26.940624 150.56563 28.346874Q151.925 29.753124 151.925 32.221874Q151.925 34.221874 151.33125 35.378124Q150.7375 36.51875 149.58125 37.159374Q148.44063 37.784374 147.08125 37.784374Q144.89375 37.784374 143.55 36.39375Q142.22188 34.9875 142.22188 32.3625ZM144.01875 32.3625Q144.01875 34.3625 144.87813 35.346874Q145.75313 36.33125 147.08125 36.33125Q148.39375 36.33125 149.25313 35.346874Q150.12813 34.346874 150.12813 32.3Q150.12813 30.378124 149.25313 29.39375Q148.37813 28.39375 147.08125 28.39375Q145.75313 28.39375 144.87813 29.39375Q144.01875 30.378124 144.01875 32.3625ZM160.65938 37.55L160.65938 36.01875Q159.45625 37.784374 157.37813 37.784374Q156.45625 37.784374 155.65938 37.440624Q154.8625 37.08125 154.47188 36.55Q154.09688 36.01875 153.94063 35.2375Q153.83125 34.721874 153.83125 33.596874L153.83125 27.175L155.58125 27.175L155.58125 32.925Q155.58125 34.3 155.69063 34.784374Q155.8625 35.471874 156.39375 35.878124Q156.94063 36.26875 157.72188 36.26875Q158.51875 36.26875 159.20625 35.8625Q159.90938 35.45625 160.19063 34.76875Q160.4875 34.065624 160.4875 32.7375L160.4875 27.175L162.2375 27.175L162.2375 37.55L160.65938 37.55ZM163.84688 37.55L163.84688 27.175L165.425 27.175L165.425 28.753124Q166.03438 27.64375 166.55 27.3Q167.06563 26.940624 167.675 26.940624Q168.56563 26.940624 169.4875 27.503124L168.87813 29.14375Q168.2375 28.753124 167.59688 28.753124Q167.01875 28.753124 166.55 29.1125Q166.09688 29.45625 165.89375 30.065624Q165.6125 31.003124 165.6125 32.1125L165.6125 37.55L163.84688 37.55ZM176.8625 41.51875L176.8625 27.175L178.47188 27.175L178.47188 28.51875Q179.03438 27.7375 179.7375 27.346874Q180.45625 26.940624 181.47188 26.940624Q182.8 26.940624 183.81563 27.628124Q184.83125 28.315624 185.34688 29.565624Q185.87813 30.8 185.87813 32.284374Q185.87813 33.878124 185.3 35.159374Q184.7375 36.425 183.64375 37.1125Q182.55 37.784374 181.34688 37.784374Q180.47188 37.784374 179.76875 37.409374Q179.08125 37.034374 178.62813 36.471874L178.62813 41.51875L176.8625 41.51875ZM178.45625 32.425Q178.45625 34.425 179.26875 35.378124Q180.08125 36.33125 181.2375 36.33125Q182.40938 36.33125 183.2375 35.346874Q184.08125 34.3625 184.08125 32.26875Q184.08125 30.3 183.25313 29.315624Q182.44063 28.315624 181.31563 28.315624Q180.19063 28.315624 179.31563 29.378124Q178.45625 30.425 178.45625 32.425ZM194.64375 36.26875Q193.65938 37.096874 192.75313 37.440624Q191.84688 37.784374 190.81563 37.784374Q189.1125 37.784374 188.19063 36.95625Q187.26875 36.1125 187.26875 34.815624Q187.26875 34.05 187.6125 33.425Q187.97188 32.8 188.53438 32.425Q189.09688 32.034374 189.8 31.83125Q190.31563 31.70625 191.3625 31.565624Q193.4875 31.315624 194.4875 30.971874Q194.50313 30.6125 194.50313 30.503124Q194.50313 29.440624 194.00313 28.9875Q193.33125 28.39375 192.00313 28.39375Q190.75313 28.39375 190.15938 28.83125Q189.58125 29.26875 189.3 30.378124L187.58125 30.14375Q187.81563 29.034374 188.34688 28.3625Q188.87813 27.675 189.89375 27.315624Q190.90938 26.940624 192.25313 26.940624Q193.58125 26.940624 194.40938 27.253124Q195.2375 27.565624 195.62813 28.05Q196.01875 28.51875 196.175 29.2375Q196.26875 29.690624 196.26875 30.8625L196.26875 33.20625Q196.26875 35.659374 196.37813 36.315624Q196.4875 36.95625 196.83125 37.55L194.9875 37.55Q194.72188 37.003124 194.64375 36.26875ZM194.4875 32.346874Q193.53438 32.7375 191.6125 33.003124Q190.53438 33.159374 190.08125 33.3625Q189.64375 33.55 189.39375 33.925Q189.14375 34.3 189.14375 34.76875Q189.14375 35.471874 189.675 35.940624Q190.20625 36.409374 191.2375 36.409374Q192.25313 36.409374 193.03438 35.971874Q193.83125 35.51875 194.20625 34.753124Q194.4875 34.14375 194.4875 32.9875L194.4875 32.346874ZM198.84688 37.55L198.84688 27.175L200.425 27.175L200.425 28.753124Q201.03438 27.64375 201.55 27.3Q202.06563 26.940624 202.675 26.940624Q203.56563 26.940624 204.4875 27.503124L203.87813 29.14375Q203.2375 28.753124 202.59688 28.753124Q202.01875 28.753124 201.55 29.1125Q201.09688 29.45625 200.89375 30.065624Q200.6125 31.003124 200.6125 32.1125L200.6125 37.55L198.84688 37.55ZM212.97188 34.20625L214.78438 34.440624Q214.3625 36.01875 213.19063 36.909374Q212.03438 37.784374 210.22188 37.784374Q207.95625 37.784374 206.6125 36.39375Q205.28438 34.9875 205.28438 32.45625Q205.28438 29.83125 206.62813 28.39375Q207.97188 26.940624 210.12813 26.940624Q212.20625 26.940624 213.51875 28.3625Q214.84688 29.76875 214.84688 32.346874Q214.84688 32.503124 214.83125 32.815624L207.09688 32.815624Q207.19063 34.51875 208.06563 35.425Q208.94063 36.33125 210.2375 36.33125Q211.20625 36.33125 211.87813 35.83125Q212.56563 35.315624 212.97188 34.20625ZM207.19063 31.3625L212.9875 31.3625Q212.87813 30.065624 212.33125 29.409374Q211.4875 28.39375 210.14375 28.39375Q208.94063 28.39375 208.1125 29.20625Q207.28438 30.003124 207.19063 31.3625ZM216.8625 37.55L216.8625 27.175L218.45625 27.175L218.45625 28.659374Q219.59688 26.940624 221.75313 26.940624Q222.69063 26.940624 223.47188 27.284374Q224.26875 27.6125 224.65938 28.159374Q225.05 28.70625 225.20625 29.45625Q225.3 29.95625 225.3 31.175L225.3 37.55L223.53438 37.55L223.53438 31.2375Q223.53438 30.159374 223.33125 29.628124Q223.12813 29.096874 222.59688 28.784374Q222.08125 28.471874 221.37813 28.471874Q220.25313 28.471874 219.44063 29.190624Q218.62813 29.89375 218.62813 31.878124L218.62813 37.55L216.8625 37.55ZM230.70625 35.971874L230.95625 37.534374Q230.22188 37.690624 229.62813 37.690624Q228.675 37.690624 228.14375 37.39375Q227.62813 37.08125 227.40938 36.596874Q227.19063 36.096874 227.19063 34.51875L227.19063 28.55L225.90938 28.55L225.90938 27.175L227.19063 27.175L227.19063 24.6125L228.94063 23.55L228.94063 27.175L230.70625 27.175L230.70625 28.55L228.94063 28.55L228.94063 34.6125Q228.94063 35.3625 229.03438 35.58125Q229.12813 35.784374 229.33125 35.925Q229.55 36.05 229.94063 36.05Q230.22188 36.05 230.70625 35.971874ZM232.15938 34.45625L233.90938 34.175Q234.05 35.221874 234.72188 35.784374Q235.39375 36.33125 236.59688 36.33125Q237.8 36.33125 238.37813 35.846874Q238.97188 35.346874 238.97188 34.690624Q238.97188 34.096874 238.45625 33.753124Q238.09688 33.51875 236.65938 33.159374Q234.72188 32.659374 233.97188 32.315624Q233.2375 31.95625 232.84688 31.33125Q232.45625 30.690624 232.45625 29.925Q232.45625 29.2375 232.76875 28.64375Q233.09688 28.05 233.64375 27.659374Q234.05 27.3625 234.75313 27.159374Q235.47188 26.940624 236.28438 26.940624Q237.50313 26.940624 238.425 27.3Q239.34688 27.64375 239.78438 28.253124Q240.22188 28.846874 240.39375 29.846874L238.675 30.08125Q238.55 29.284374 237.9875 28.846874Q237.425 28.39375 236.40938 28.39375Q235.19063 28.39375 234.675 28.8Q234.15938 29.190624 234.15938 29.721874Q234.15938 30.065624 234.37813 30.346874Q234.58125 30.628124 235.05 30.815624Q235.31563 30.909374 236.59688 31.253124Q238.47188 31.753124 239.20625 32.08125Q239.94063 32.39375 240.3625 33.003124Q240.78438 33.596874 240.78438 34.503124Q240.78438 35.378124 240.26875 36.159374Q239.75313 36.940624 238.78438 37.3625Q237.81563 37.784374 236.59688 37.784374Q234.58125 37.784374 233.51875 36.940624Q232.45625 36.096874 232.15938 34.45625ZM255.64375 33.753124L257.3625 33.971874Q257.08124 35.76875 255.90938 36.784374Q254.75313 37.784374 253.05 37.784374Q250.925 37.784374 249.62813 36.39375Q248.33125 35.003124 248.33125 32.409374Q248.33125 30.721874 248.87813 29.471874Q249.44063 28.20625 250.58125 27.58125Q251.72188 26.940624 253.06563 26.940624Q254.75313 26.940624 255.81563 27.8Q256.89374 28.659374 257.20624 30.221874L255.4875 30.4875Q255.25313 29.440624 254.62813 28.925Q254.00313 28.39375 253.12813 28.39375Q251.8 28.39375 250.97188 29.346874Q250.14375 30.3 250.14375 32.346874Q250.14375 34.440624 250.94063 35.39375Q251.7375 36.33125 253.03438 36.33125Q254.06563 36.33125 254.75313 35.70625Q255.45625 35.065624 255.64375 33.753124ZM258.22186 32.3625Q258.22186 29.4875 259.8156 28.096874Q261.15936 26.940624 263.08124 26.940624Q265.22186 26.940624 266.5656 28.346874Q267.925 29.753124 267.925 32.221874Q267.925 34.221874 267.33124 35.378124Q266.7375 36.51875 265.58124 37.159374Q264.4406 37.784374 263.08124 37.784374Q260.89374 37.784374 259.55 36.39375Q258.22186 34.9875 258.22186 32.3625ZM260.01874 32.3625Q260.01874 34.3625 260.8781 35.346874Q261.7531 36.33125 263.08124 36.33125Q264.39374 36.33125 265.2531 35.346874Q266.1281 34.346874 266.1281 32.3Q266.1281 30.378124 265.2531 29.39375Q264.3781 28.39375 263.08124 28.39375Q261.7531 28.39375 260.8781 29.39375Q260.01874 30.378124 260.01874 32.3625ZM269.8625 37.55L269.8625 27.175L271.4406 27.175L271.4406 28.628124Q271.925 27.878124 272.7375 27.409374Q273.55 26.940624 274.58124 26.940624Q275.7375 26.940624 276.47186 27.425Q277.20624 27.89375 277.51874 28.753124Q278.7531 26.940624 280.72186 26.940624Q282.26874 26.940624 283.09686 27.8Q283.925 28.659374 283.925 30.425L283.925 37.55L282.175 37.55L282.175 31.01875Q282.175 29.95625 282.0031 29.503124Q281.83124 29.034374 281.3781 28.753124Q280.9406 28.471874 280.33124 28.471874Q279.2375 28.471874 278.5031 29.20625Q277.78436 29.925 277.78436 31.51875L277.78436 37.55L276.03436 37.55L276.03436 30.815624Q276.03436 29.64375 275.59686 29.065624Q275.175 28.471874 274.1906 28.471874Q273.45624 28.471874 272.8156 28.8625Q272.1906 29.253124 271.90936 30.003124Q271.6281 30.753124 271.6281 32.175L271.6281 37.55L269.8625 37.55ZM285.8625 41.51875L285.8625 27.175L287.47186 27.175L287.47186 28.51875Q288.03436 27.7375 288.7375 27.346874Q289.45624 26.940624 290.47186 26.940624Q291.8 26.940624 292.8156 27.628124Q293.83124 28.315624 294.34686 29.565624Q294.8781 30.8 294.8781 32.284374Q294.8781 33.878124 294.3 35.159374Q293.7375 36.425 292.64374 37.1125Q291.55 37.784374 290.34686 37.784374Q289.47186 37.784374 288.76874 37.409374Q288.08124 37.034374 287.6281 36.471874L287.6281 41.51875L285.8625 41.51875ZM287.45624 32.425Q287.45624 34.425 288.26874 35.378124Q289.08124 36.33125 290.2375 36.33125Q291.40936 36.33125 292.2375 35.346874Q293.08124 34.3625 293.08124 32.26875Q293.08124 30.3 292.2531 29.315624Q291.4406 28.315624 290.3156 28.315624Q289.1906 28.315624 288.3156 29.378124Q287.45624 30.425 287.45624 32.425ZM296.83124 37.55L296.83124 23.2375L298.58124 23.2375L298.58124 37.55L296.83124 37.55ZM307.97186 34.20625L309.78436 34.440624Q309.3625 36.01875 308.1906 36.909374Q307.03436 37.784374 305.22186 37.784374Q302.95624 37.784374 301.6125 36.39375Q300.28436 34.9875 300.28436 32.45625Q300.28436 29.83125 301.6281 28.39375Q302.97186 26.940624 305.1281 26.940624Q307.20624 26.940624 308.51874 28.3625Q309.84686 29.76875 309.84686 32.346874Q309.84686 32.503124 309.83124 32.815624L302.09686 32.815624Q302.1906 34.51875 303.0656 35.425Q303.9406 36.33125 305.2375 36.33125Q306.20624 36.33125 306.8781 35.83125Q307.5656 35.315624 307.97186 34.20625ZM302.1906 31.3625L307.9875 31.3625Q307.8781 30.065624 307.33124 29.409374Q306.4875 28.39375 305.14374 28.39375Q303.9406 28.39375 303.1125 29.20625Q302.28436 30.003124 302.1906 31.3625ZM315.70624 35.971874L315.95624 37.534374Q315.22186 37.690624 314.6281 37.690624Q313.675 37.690624 313.14374 37.39375Q312.6281 37.08125 312.40936 36.596874Q312.1906 36.096874 312.1906 34.51875L312.1906 28.55L310.90936 28.55L310.90936 27.175L312.1906 27.175L312.1906 24.6125L313.9406 23.55L313.9406 27.175L315.70624 27.175L315.70624 28.55L313.9406 28.55L313.9406 34.6125Q313.9406 35.3625 314.03436 35.58125Q314.1281 35.784374 314.33124 35.925Q314.55 36.05 314.9406 36.05Q315.22186 36.05 315.70624 35.971874ZM324.97186 34.20625L326.78436 34.440624Q326.3625 36.01875 325.1906 36.909374Q324.03436 37.784374 322.22186 37.784374Q319.95624 37.784374 318.6125 36.39375Q317.28436 34.9875 317.28436 32.45625Q317.28436 29.83125 318.6281 28.39375Q319.97186 26.940624 322.1281 26.940624Q324.20624 26.940624 325.51874 28.3625Q326.84686 29.76875 326.84686 32.346874Q326.84686 32.503124 326.83124 32.815624L319.09686 32.815624Q319.1906 34.51875 320.0656 35.425Q320.9406 36.33125 322.2375 36.33125Q323.20624 36.33125 323.8781 35.83125Q324.5656 35.315624 324.97186 34.20625ZM319.1906 31.3625L324.9875 31.3625Q324.8781 30.065624 324.33124 29.409374Q323.4875 28.39375 322.14374 28.39375Q320.9406 28.39375 320.1125 29.20625Q319.28436 30.003124 319.1906 31.3625ZM341.64374 36.26875Q340.65936 37.096874 339.7531 37.440624Q338.84686 37.784374 337.8156 37.784374Q336.1125 37.784374 335.1906 36.95625Q334.26874 36.1125 334.26874 34.815624Q334.26874 34.05 334.6125 33.425Q334.97186 32.8 335.53436 32.425Q336.09686 32.034374 336.8 31.83125Q337.3156 31.70625 338.3625 31.565624Q340.4875 31.315624 341.4875 30.971874Q341.5031 30.6125 341.5031 30.503124Q341.5031 29.440624 341.0031 28.9875Q340.33124 28.39375 339.0031 28.39375Q337.7531 28.39375 337.15936 28.83125Q336.58124 29.26875 336.3 30.378124L334.58124 30.14375Q334.8156 29.034374 335.34686 28.3625Q335.8781 27.675 336.89374 27.315624Q337.90936 26.940624 339.2531 26.940624Q340.58124 26.940624 341.40936 27.253124Q342.2375 27.565624 342.6281 28.05Q343.01874 28.51875 343.175 29.2375Q343.26874 29.690624 343.26874 30.8625L343.26874 33.20625Q343.26874 35.659374 343.3781 36.315624Q343.4875 36.95625 343.83124 37.55L341.9875 37.55Q341.72186 37.003124 341.64374 36.26875ZM341.4875 32.346874Q340.53436 32.7375 338.6125 33.003124Q337.53436 33.159374 337.08124 33.3625Q336.64374 33.55 336.39374 33.925Q336.14374 34.3 336.14374 34.76875Q336.14374 35.471874 336.675 35.940624Q337.20624 36.409374 338.2375 36.409374Q339.2531 36.409374 340.03436 35.971874Q340.83124 35.51875 341.20624 34.753124Q341.4875 34.14375 341.4875 32.9875L341.4875 32.346874ZM352.28436 37.55L352.28436 28.55L350.7375 28.55L350.7375 27.175L352.28436 27.175L352.28436 26.08125Q352.28436 25.034374 352.47186 24.51875Q352.72186 23.83125 353.3625 23.409374Q354.0031 22.9875 355.15936 22.9875Q355.90936 22.9875 356.8 23.159374L356.53436 24.690624Q355.9875 24.596874 355.5031 24.596874Q354.70624 24.596874 354.3625 24.940624Q354.03436 25.284374 354.03436 26.221874L354.03436 27.175L356.0656 27.175L356.0656 28.55L354.03436 28.55L354.03436 37.55L352.28436 37.55ZM357.22186 32.3625Q357.22186 29.4875 358.8156 28.096874Q360.15936 26.940624 362.08124 26.940624Q364.22186 26.940624 365.5656 28.346874Q366.925 29.753124 366.925 32.221874Q366.925 34.221874 366.33124 35.378124Q365.7375 36.51875 364.58124 37.159374Q363.4406 37.784374 362.08124 37.784374Q359.89374 37.784374 358.55 36.39375Q357.22186 34.9875 357.22186 32.3625ZM359.01874 32.3625Q359.01874 34.3625 359.8781 35.346874Q360.7531 36.33125 362.08124 36.33125Q363.39374 36.33125 364.2531 35.346874Q365.1281 34.346874 365.1281 32.3Q365.1281 30.378124 364.2531 29.39375Q363.3781 28.39375 362.08124 28.39375Q360.7531 28.39375 359.8781 29.39375Q359.01874 30.378124 359.01874 32.3625ZM375.65936 37.55L375.65936 36.01875Q374.45624 37.784374 372.3781 37.784374Q371.45624 37.784374 370.65936 37.440624Q369.8625 37.08125 369.47186 36.55Q369.09686 36.01875 368.9406 35.2375Q368.83124 34.721874 368.83124 33.596874L368.83124 27.175L370.58124 27.175L370.58124 32.925Q370.58124 34.3 370.6906 34.784374Q370.8625 35.471874 371.39374 35.878124Q371.9406 36.26875 372.72186 36.26875Q373.51874 36.26875 374.20624 35.8625Q374.90936 35.45625 375.1906 34.76875Q375.4875 34.065624 375.4875 32.7375L375.4875 27.175L377.2375 27.175L377.2375 37.55L375.65936 37.55ZM378.84686 37.55L378.84686 27.175L380.425 27.175L380.425 28.753124Q381.03436 27.64375 381.55 27.3Q382.0656 26.940624 382.675 26.940624Q383.5656 26.940624 384.4875 27.503124L383.8781 29.14375Q383.2375 28.753124 382.59686 28.753124Q382.01874 28.753124 381.55 29.1125Q381.09686 29.45625 380.89374 30.065624Q380.6125 31.003124 380.6125 32.1125L380.6125 37.55L378.84686 37.55ZM385.1906 33.253124L385.1906 31.4875L390.58124 31.4875L390.58124 33.253124L385.1906 33.253124ZM392.78436 41.55L392.59686 39.89375Q393.175 40.05 393.59686 40.05Q394.1906 40.05 394.53436 39.846874Q394.89374 39.659374 395.1125 39.315624Q395.28436 39.05 395.65936 38.003124Q395.70624 37.846874 395.8156 37.565624L391.8781 27.175L393.76874 27.175L395.925 33.190624Q396.34686 34.33125 396.675 35.58125Q396.9875 34.378124 397.39374 33.221874L399.6125 27.175L401.3781 27.175L397.425 37.721874Q396.8 39.440624 396.4406 40.08125Q395.97186 40.95625 395.3625 41.346874Q394.76874 41.753124 393.925 41.753124Q393.40936 41.753124 392.78436 41.55ZM409.97186 34.20625L411.78436 34.440624Q411.3625 36.01875 410.1906 36.909374Q409.03436 37.784374 407.22186 37.784374Q404.95624 37.784374 403.6125 36.39375Q402.28436 34.9875 402.28436 32.45625Q402.28436 29.83125 403.6281 28.39375Q404.97186 26.940624 407.1281 26.940624Q409.20624 26.940624 410.51874 28.3625Q411.84686 29.76875 411.84686 32.346874Q411.84686 32.503124 411.83124 32.815624L404.09686 32.815624Q404.1906 34.51875 405.0656 35.425Q405.9406 36.33125 407.2375 36.33125Q408.20624 36.33125 408.8781 35.83125Q409.5656 35.315624 409.97186 34.20625ZM404.1906 31.3625L409.9875 31.3625Q409.8781 30.065624 409.33124 29.409374Q408.4875 28.39375 407.14374 28.39375Q405.9406 28.39375 405.1125 29.20625Q404.28436 30.003124 404.1906 31.3625ZM420.64374 36.26875Q419.65936 37.096874 418.7531 37.440624Q417.84686 37.784374 416.8156 37.784374Q415.1125 37.784374 414.1906 36.95625Q413.26874 36.1125 413.26874 34.815624Q413.26874 34.05 413.6125 33.425Q413.97186 32.8 414.53436 32.425Q415.09686 32.034374 415.8 31.83125Q416.3156 31.70625 417.3625 31.565624Q419.4875 31.315624 420.4875 30.971874Q420.5031 30.6125 420.5031 30.503124Q420.5031 29.440624 420.0031 28.9875Q419.33124 28.39375 418.0031 28.39375Q416.7531 28.39375 416.15936 28.83125Q415.58124 29.26875 415.3 30.378124L413.58124 30.14375Q413.8156 29.034374 414.34686 28.3625Q414.8781 27.675 415.89374 27.315624Q416.90936 26.940624 418.2531 26.940624Q419.58124 26.940624 420.40936 27.253124Q421.2375 27.565624 421.6281 28.05Q422.01874 28.51875 422.175 29.2375Q422.26874 29.690624 422.26874 30.8625L422.26874 33.20625Q422.26874 35.659374 422.3781 36.315624Q422.4875 36.95625 422.83124 37.55L420.9875 37.55Q420.72186 37.003124 420.64374 36.26875ZM420.4875 32.346874Q419.53436 32.7375 417.6125 33.003124Q416.53436 33.159374 416.08124 33.3625Q415.64374 33.55 415.39374 33.925Q415.14374 34.3 415.14374 34.76875Q415.14374 35.471874 415.675 35.940624Q416.20624 36.409374 417.2375 36.409374Q418.2531 36.409374 419.03436 35.971874Q419.83124 35.51875 420.20624 34.753124Q420.4875 34.14375 420.4875 32.9875L420.4875 32.346874ZM424.84686 37.55L424.84686 27.175L426.425 27.175L426.425 28.753124Q427.03436 27.64375 427.55 27.3Q428.0656 26.940624 428.675 26.940624Q429.5656 26.940624 430.4875 27.503124L429.8781 29.14375Q429.2375 28.753124 428.59686 28.753124Q428.01874 28.753124 427.55 29.1125Q427.09686 29.45625 426.89374 30.065624Q426.6125 31.003124 426.6125 32.1125L426.6125 37.55L424.84686 37.55ZM444.64374 33.753124L446.3625 33.971874Q446.08124 35.76875 444.90936 36.784374Q443.7531 37.784374 442.05 37.784374Q439.925 37.784374 438.6281 36.39375Q437.33124 35.003124 437.33124 32.409374Q437.33124 30.721874 437.8781 29.471874Q438.4406 28.20625 439.58124 27.58125Q440.72186 26.940624 442.0656 26.940624Q443.7531 26.940624 444.8156 27.8Q445.89374 28.659374 446.20624 30.221874L444.4875 30.4875Q444.2531 29.440624 443.6281 28.925Q443.0031 28.39375 442.1281 28.39375Q440.8 28.39375 439.97186 29.346874Q439.14374 30.3 439.14374 32.346874Q439.14374 34.440624 439.9406 35.39375Q440.7375 36.33125 442.03436 36.33125Q443.0656 36.33125 443.7531 35.70625Q444.45624 35.065624 444.64374 33.753124ZM447.22186 32.3625Q447.22186 29.4875 448.8156 28.096874Q450.15936 26.940624 452.08124 26.940624Q454.22186 26.940624 455.5656 28.346874Q456.925 29.753124 456.925 32.221874Q456.925 34.221874 456.33124 35.378124Q455.7375 36.51875 454.58124 37.159374Q453.4406 37.784374 452.08124 37.784374Q449.89374 37.784374 448.55 36.39375Q447.22186 34.9875 447.22186 32.3625ZM449.01874 32.3625Q449.01874 34.3625 449.8781 35.346874Q450.7531 36.33125 452.08124 36.33125Q453.39374 36.33125 454.2531 35.346874Q455.1281 34.346874 455.1281 32.3Q455.1281 30.378124 454.2531 29.39375Q453.3781 28.39375 452.08124 28.39375Q450.7531 28.39375 449.8781 29.39375Q449.01874 30.378124 449.01874 32.3625ZM458.83124 37.55L458.83124 23.2375L460.58124 23.2375L460.58124 37.55L458.83124 37.55ZM462.83124 37.55L462.83124 23.2375L464.58124 23.2375L464.58124 37.55L462.83124 37.55ZM473.97186 34.20625L475.78436 34.440624Q475.3625 36.01875 474.1906 36.909374Q473.03436 37.784374 471.22186 37.784374Q468.95624 37.784374 467.6125 36.39375Q466.28436 34.9875 466.28436 32.45625Q466.28436 29.83125 467.6281 28.39375Q468.97186 26.940624 471.1281 26.940624Q473.20624 26.940624 474.51874 28.3625Q475.84686 29.76875 475.84686 32.346874Q475.84686 32.503124 475.83124 32.815624L468.09686 32.815624Q468.1906 34.51875 469.0656 35.425Q469.9406 36.33125 471.2375 36.33125Q472.20624 36.33125 472.8781 35.83125Q473.5656 35.315624 473.97186 34.20625ZM468.1906 31.3625L473.9875 31.3625Q473.8781 30.065624 473.33124 29.409374Q472.4875 28.39375 471.14374 28.39375Q469.9406 28.39375 469.1125 29.20625Q468.28436 30.003124 468.1906 31.3625ZM477.55 38.409374L479.2531 38.659374Q479.3625 39.45625 479.84686 39.815624Q480.5031 40.3 481.64374 40.3Q482.8625 40.3 483.51874 39.815624Q484.1906 39.33125 484.425 38.45625Q484.5656 37.909374 484.55 36.190624Q483.39374 37.55 481.675 37.55Q479.53436 37.55 478.3625 36.003124Q477.1906 34.45625 477.1906 32.3Q477.1906 30.815624 477.72186 29.565624Q478.26874 28.315624 479.28436 27.628124Q480.3156 26.940624 481.6906 26.940624Q483.51874 26.940624 484.72186 28.425L484.72186 27.175L486.33124 27.175L486.33124 36.14375Q486.33124 38.565624 485.83124 39.565624Q485.34686 40.58125 484.26874 41.159374Q483.20624 41.753124 481.64374 41.753124Q479.8 41.753124 478.64374 40.925Q477.5031 40.096874 477.55 38.409374ZM479.0031 32.175Q479.0031 34.221874 479.8156 35.159374Q480.6281 36.096874 481.84686 36.096874Q483.05 36.096874 483.8625 35.159374Q484.6906 34.221874 484.6906 32.2375Q484.6906 30.33125 483.84686 29.3625Q483.0031 28.39375 481.8156 28.39375Q480.64374 28.39375 479.8156 29.346874Q479.0031 30.3 479.0031 32.175ZM495.97186 34.20625L497.78436 34.440624Q497.3625 36.01875 496.1906 36.909374Q495.03436 37.784374 493.22186 37.784374Q490.95624 37.784374 489.6125 36.39375Q488.28436 34.9875 488.28436 32.45625Q488.28436 29.83125 489.6281 28.39375Q490.97186 26.940624 493.1281 26.940624Q495.20624 26.940624 496.51874 28.3625Q497.84686 29.76875 497.84686 32.346874Q497.84686 32.503124 497.83124 32.815624L490.09686 32.815624Q490.1906 34.51875 491.0656 35.425Q491.9406 36.33125 493.2375 36.33125Q494.20624 36.33125 494.8781 35.83125Q495.5656 35.315624 495.97186 34.20625ZM490.1906 31.3625L495.9875 31.3625Q495.8781 30.065624 495.33124 29.409374Q494.4875 28.39375 493.14374 28.39375Q491.9406 28.39375 491.1125 29.20625Q490.28436 30.003124 490.1906 31.3625ZM512.59686 37.55L512.59686 36.2375Q511.6125 37.784374 509.6906 37.784374Q508.45624 37.784374 507.40936 37.096874Q506.3781 36.409374 505.8 35.190624Q505.2375 33.971874 505.2375 32.378124Q505.2375 30.815624 505.7531 29.55Q506.26874 28.284374 507.3 27.6125Q508.34686 26.940624 509.6125 26.940624Q510.55 26.940624 511.28436 27.346874Q512.01874 27.7375 512.4875 28.3625L512.4875 23.2375L514.22186 23.2375L514.22186 37.55L512.59686 37.55ZM507.03436 32.378124Q507.03436 34.3625 507.8781 35.346874Q508.72186 36.33125 509.8625 36.33125Q511.01874 36.33125 511.8156 35.39375Q512.6281 34.45625 512.6281 32.51875Q512.6281 30.39375 511.8 29.39375Q510.9875 28.39375 509.78436 28.39375Q508.6125 28.39375 507.8156 29.3625Q507.03436 30.315624 507.03436 32.378124ZM523.97186 34.20625L525.78436 34.440624Q525.3625 36.01875 524.1906 36.909374Q523.03436 37.784374 521.22186 37.784374Q518.95624 37.784374 517.6125 36.39375Q516.28436 34.9875 516.28436 32.45625Q516.28436 29.83125 517.6281 28.39375Q518.97186 26.940624 521.1281 26.940624Q523.20624 26.940624 524.51874 28.3625Q525.84686 29.76875 525.84686 32.346874Q525.84686 32.503124 525.83124 32.815624L518.09686 32.815624Q518.1906 34.51875 519.0656 35.425Q519.9406 36.33125 521.2375 36.33125Q522.20624 36.33125 522.8781 35.83125Q523.5656 35.315624 523.97186 34.20625ZM518.1906 31.3625L523.9875 31.3625Q523.8781 30.065624 523.33124 29.409374Q522.4875 28.39375 521.14374 28.39375Q519.9406 28.39375 519.1125 29.20625Q518.28436 30.003124 518.1906 31.3625ZM527.55 38.409374L529.2531 38.659374Q529.3625 39.45625 529.84686 39.815624Q530.5031 40.3 531.64374 40.3Q532.8625 40.3 533.51874 39.815624Q534.1906 39.33125 534.425 38.45625Q534.5656 37.909374 534.55 36.190624Q533.39374 37.55 531.675 37.55Q529.53436 37.55 528.3625 36.003124Q527.1906 34.45625 527.1906 32.3Q527.1906 30.815624 527.72186 29.565624Q528.26874 28.315624 529.28436 27.628124Q530.3156 26.940624 531.6906 26.940624Q533.51874 26.940624 534.72186 28.425L534.72186 27.175L536.33124 27.175L536.33124 36.14375Q536.33124 38.565624 535.83124 39.565624Q535.34686 40.58125 534.26874 41.159374Q533.20624 41.753124 531.64374 41.753124Q529.8 41.753124 528.64374 40.925Q527.5031 40.096874 527.55 38.409374ZM529.0031 32.175Q529.0031 34.221874 529.8156 35.159374Q530.6281 36.096874 531.84686 36.096874Q533.05 36.096874 533.8625 35.159374Q534.6906 34.221874 534.6906 32.2375Q534.6906 30.33125 533.84686 29.3625Q533.0031 28.39375 531.8156 28.39375Q530.64374 28.39375 529.8156 29.346874Q529.0031 30.3 529.0031 32.175ZM538.84686 37.55L538.84686 27.175L540.425 27.175L540.425 28.753124Q541.03436 27.64375 541.55 27.3Q542.0656 26.940624 542.675 26.940624Q543.5656 26.940624 544.4875 27.503124L543.8781 29.14375Q543.2375 28.753124 542.59686 28.753124Q542.01874 28.753124 541.55 29.1125Q541.09686 29.45625 540.89374 30.065624Q540.6125 31.003124 540.6125 32.1125L540.6125 37.55L538.84686 37.55ZM552.97186 34.20625L554.78436 34.440624Q554.3625 36.01875 553.1906 36.909374Q552.03436 37.784374 550.22186 37.784374Q547.95624 37.784374 546.6125 36.39375Q545.28436 34.9875 545.28436 32.45625Q545.28436 29.83125 546.6281 28.39375Q547.97186 26.940624 550.1281 26.940624Q552.20624 26.940624 553.51874 28.3625Q554.84686 29.76875 554.84686 32.346874Q554.84686 32.503124 554.83124 32.815624L547.09686 32.815624Q547.1906 34.51875 548.0656 35.425Q548.9406 36.33125 550.2375 36.33125Q551.20624 36.33125 551.8781 35.83125Q552.5656 35.315624 552.97186 34.20625ZM547.1906 31.3625L552.9875 31.3625Q552.8781 30.065624 552.33124 29.409374Q551.4875 28.39375 550.14374 28.39375Q548.9406 28.39375 548.1125 29.20625Q547.28436 30.003124 547.1906 31.3625ZM563.97186 34.20625L565.78436 34.440624Q565.3625 36.01875 564.1906 36.909374Q563.03436 37.784374 561.22186 37.784374Q558.95624 37.784374 557.6125 36.39375Q556.28436 34.9875 556.28436 32.45625Q556.28436 29.83125 557.6281 28.39375Q558.97186 26.940624 561.1281 26.940624Q563.20624 26.940624 564.51874 28.3625Q565.84686 29.76875 565.84686 32.346874Q565.84686 32.503124 565.83124 32.815624L558.09686 32.815624Q558.1906 34.51875 559.0656 35.425Q559.9406 36.33125 561.2375 36.33125Q562.20624 36.33125 562.8781 35.83125Q563.5656 35.315624 563.97186 34.20625ZM558.1906 31.3625L563.9875 31.3625Q563.8781 30.065624 563.33124 29.409374Q562.4875 28.39375 561.14374 28.39375Q559.9406 28.39375 559.1125 29.20625Q558.28436 30.003124 558.1906 31.3625Z" fill-rule="nonzero"/><path fill="#757575" d="M19.221874 56.3625Q19.221874 53.4875 20.815624 52.096874Q22.159374 50.940624 24.08125 50.940624Q26.221874 50.940624 27.565624 52.346874Q28.925 53.753124 28.925 56.221874Q28.925 58.221874 28.33125 59.378124Q27.7375 60.51875 26.58125 61.159374Q25.440624 61.784374 24.08125 61.784374Q21.89375 61.784374 20.55 60.39375Q19.221874 58.9875 19.221874 56.3625ZM21.01875 56.3625Q21.01875 58.3625 21.878124 59.346874Q22.753124 60.33125 24.08125 60.33125Q25.39375 60.33125 26.253124 59.346874Q27.128124 58.346874 27.128124 56.3Q27.128124 54.378124 26.253124 53.39375Q25.378124 52.39375 24.08125 52.39375Q22.753124 52.39375 21.878124 53.39375Q21.01875 54.378124 21.01875 56.3625ZM30.846874 61.55L30.846874 51.175L32.425 51.175L32.425 52.753124Q33.034374 51.64375 33.55 51.3Q34.065624 50.940624 34.675 50.940624Q35.565624 50.940624 36.4875 51.503124L35.878124 53.14375Q35.2375 52.753124 34.596874 52.753124Q34.01875 52.753124 33.55 53.1125Q33.096874 53.45625 32.89375 54.065624Q32.6125 55.003124 32.6125 56.1125L32.6125 61.55L30.846874 61.55ZM43.8625 61.55L43.8625 47.2375L45.628124 47.2375L45.628124 52.3625Q46.8625 50.940624 48.7375 50.940624Q49.878124 50.940624 50.721874 51.39375Q51.58125 51.846874 51.940624 52.659374Q52.315624 53.45625 52.315624 54.971874L52.315624 61.55L50.565624 61.55L50.565624 54.971874Q50.565624 53.659374 49.9875 53.065624Q49.409374 52.45625 48.378124 52.45625Q47.596874 52.45625 46.89375 52.8625Q46.20625 53.26875 45.909374 53.971874Q45.628124 54.659374 45.628124 55.878124L45.628124 61.55L43.8625 61.55ZM53.878124 49.253124L53.878124 47.2375L55.64375 47.2375L55.64375 49.253124L53.878124 49.253124ZM53.878124 61.55L53.878124 51.175L55.64375 51.175L55.64375 61.55L53.878124 61.55ZM57.55 62.409374L59.253124 62.659374Q59.3625 63.45625 59.846874 63.815624Q60.503124 64.3 61.64375 64.3Q62.8625 64.3 63.51875 63.815624Q64.19063 63.33125 64.425 62.45625Q64.56563 61.909374 64.55 60.190624Q63.39375 61.55 61.675 61.55Q59.534374 61.55 58.3625 60.003124Q57.190624 58.45625 57.190624 56.3Q57.190624 54.815624 57.721874 53.565624Q58.26875 52.315624 59.284374 51.628124Q60.315624 50.940624 61.690624 50.940624Q63.51875 50.940624 64.72188 52.425L64.72188 51.175L66.33125 51.175L66.33125 60.14375Q66.33125 62.565624 65.83125 63.565624Q65.34688 64.58125 64.26875 65.15938Q63.20625 65.75313 61.64375 65.75313Q59.8 65.75313 58.64375 64.925Q57.503124 64.09688 57.55 62.409374ZM59.003124 56.175Q59.003124 58.221874 59.815624 59.159374Q60.628124 60.096874 61.846874 60.096874Q63.05 60.096874 63.8625 59.159374Q64.69063 58.221874 64.69063 56.2375Q64.69063 54.33125 63.846874 53.3625Q63.003124 52.39375 61.815624 52.39375Q60.64375 52.39375 59.815624 53.346874Q59.003124 54.3 59.003124 56.175ZM68.8625 61.55L68.8625 47.2375L70.62813 47.2375L70.62813 52.3625Q71.8625 50.940624 73.7375 50.940624Q74.87813 50.940624 75.72188 51.39375Q76.58125 51.846874 76.94063 52.659374Q77.31563 53.45625 77.31563 54.971874L77.31563 61.55L75.56563 61.55L75.56563 54.971874Q75.56563 53.659374 74.9875 53.065624Q74.40938 52.45625 73.37813 52.45625Q72.59688 52.45625 71.89375 52.8625Q71.20625 53.26875 70.90938 53.971874Q70.62813 54.659374 70.62813 55.878124L70.62813 61.55L68.8625 61.55ZM85.97188 58.20625L87.78438 58.440624Q87.3625 60.01875 86.19063 60.909374Q85.03438 61.784374 83.22188 61.784374Q80.95625 61.784374 79.6125 60.39375Q78.28438 58.9875 78.28438 56.45625Q78.28438 53.83125 79.62813 52.39375Q80.97188 50.940624 83.12813 50.940624Q85.20625 50.940624 86.51875 52.3625Q87.84688 53.76875 87.84688 56.346874Q87.84688 56.503124 87.83125 56.815624L80.09688 56.815624Q80.19063 58.51875 81.06563 59.425Q81.94063 60.33125 83.2375 60.33125Q84.20625 60.33125 84.87813 59.83125Q85.56563 59.315624 85.97188 58.20625ZM80.19063 55.3625L85.9875 55.3625Q85.87813 54.065624 85.33125 53.409374Q84.4875 52.39375 83.14375 52.39375Q81.94063 52.39375 81.1125 53.20625Q80.28438 54.003124 80.19063 55.3625ZM89.84688 61.55L89.84688 51.175L91.425 51.175L91.425 52.753124Q92.03438 51.64375 92.55 51.3Q93.06563 50.940624 93.675 50.940624Q94.56563 50.940624 95.4875 51.503124L94.87813 53.14375Q94.2375 52.753124 93.59688 52.753124Q93.01875 52.753124 92.55 53.1125Q92.09688 53.45625 91.89375 54.065624Q91.6125 55.003124 91.6125 56.1125L91.6125 61.55L89.84688 61.55ZM100.15938 58.01875Q100.14375 57.675 100.14375 57.503124Q100.14375 56.45625 100.44063 55.70625Q100.65938 55.14375 101.14375 54.565624Q101.4875 54.14375 102.39375 53.346874Q103.31563 52.534374 103.58125 52.065624Q103.8625 51.58125 103.8625 51.01875Q103.8625 49.9875 103.05 49.221874Q102.25313 48.440624 101.09688 48.440624Q99.97188 48.440624 99.22188 49.14375Q98.47188 49.846874 98.2375 51.33125L96.425 51.1125Q96.675 49.1125 97.87813 48.05Q99.08125 46.9875 101.06563 46.9875Q103.175 46.9875 104.425 48.128124Q105.675 49.26875 105.675 50.89375Q105.675 51.83125 105.22188 52.628124Q104.78438 53.409374 103.50313 54.55Q102.64375 55.315624 102.37813 55.675Q102.12813 56.034374 101.9875 56.503124Q101.8625 56.971874 101.84688 58.01875L100.15938 58.01875ZM100.05 61.55L100.05 59.55L102.05 59.55L102.05 61.55L100.05 61.55Z" fill-rule="nonzero"/></svg>