<svg version="1.1" viewBox="0.0 0.0 600.0 371.0" fill="none" stroke="none" stroke-linecap="square" stroke-miterlimit="10" width="600" height="371" xmlns:xlink="http://www.w3.org/1999/xlink" xmlns="http://www.w3.org/2000/svg"><path fill="#ffffff" d="M0 0L600.0 0L600.0 371.0L0 371.0L0 0Z" fill-rule="nonzero"/><path stroke="#333333" stroke-width="1.0" stroke-linecap="butt" d="M45.5 300.5L581.5 300.5" fill-rule="nonzero"/><path stroke="#cccccc" stroke-width="1.0" stroke-linecap="butt" d="M45.5 220.5L581.5 220.5" fill-rule="nonzero"/><path stroke="#cccccc" stroke-width="1.0" stroke-linecap="butt" d="M45.5 141.5L581.5 141.5" fill-rule="nonzero"/><path stroke="#cccccc" stroke-width="1.0" stroke-linecap="butt" d="M45.5 61.5L581.5 61.5" fill-rule="nonzero"/><clipPath id="id_0"><path d="M45.55 61.916668L581.45 61.916668L581.45 300.45L45.55 300.45L45.55 61.916668Z" clip-rule="nonzero"/></clipPath><path stroke="#000000" stroke-width="2.0" stroke-linecap="butt" stroke-opacity="0.0" clip-path="url(#id_0)" d="M273.0 300.0L125.0 300.0L125.0 80.0C125.0 78.89543 125.89543 78.0 127.0 78.0L271.0 78.0C272.10458 78.0 273.0 78.89543 273.0 80.0Z" fill-rule="nonzero"/><path fill="#4285f4" clip-path="url(#id_0)" d="M273.0 300.0L125.0 300.0L125.0 80.0C125.0 78.89543 125.89543 78.0 127.0 78.0L271.0 78.0C272.10458 78.0 273.0 78.89543 273.0 80.0Z" fill-rule="nonzero"/><path stroke="#000000" stroke-width="2.0" stroke-linecap="butt" stroke-opacity="0.0" clip-path="url(#id_0)" d="M502.0 300.0L354.0 300.0L354.0 247.0C354.0 245.89543 354.89542 245.0 356.0 245.0L500.0 245.0C501.10458 245.0 502.0 245.89543 502.0 247.0Z" fill-rule="nonzero"/><path fill="#4285f4" clip-path="url(#id_0)" d="M502.0 300.0L354.0 300.0L354.0 247.0C354.0 245.89543 354.89542 245.0 356.0 245.0L500.0 245.0C501.10458 245.0 502.0 245.89543 502.0 247.0Z" fill-rule="nonzero"/><path fill="#000000" d="M271.45312 346.075L271.45312 345.075L275.07812 345.0594L275.07812 348.2469Q274.25 348.91876 273.35938 349.2625Q272.46875 349.59064 271.53125 349.59064Q270.26562 349.59064 269.21875 349.0594Q268.1875 348.5125 267.65625 347.4969Q267.14062 346.46564 267.14062 345.2Q267.14062 343.9344 267.65625 342.85626Q268.1875 341.7625 269.17188 341.2469Q270.15625 340.71564 271.4375 340.71564Q272.375 340.71564 273.125 341.0125Q273.875 341.3094 274.29688 341.85626Q274.73438 342.3875 274.95312 343.2625L273.9375 343.54376Q273.73438 342.8875 273.4375 342.5125Q273.15625 342.1375 272.625 341.91876Q272.09375 341.6844 271.45312 341.6844Q270.67188 341.6844 270.09375 341.91876Q269.53125 342.15314 269.17188 342.54376Q268.82812 342.9344 268.64062 343.40314Q268.3125 344.2 268.3125 345.1219Q268.3125 346.27814 268.70312 347.0594Q269.10938 347.825 269.85938 348.2Q270.60938 348.575 271.46875 348.575Q272.20312 348.575 272.90625 348.29376Q273.60938 347.9969 273.96875 347.6844L273.96875 346.075L271.45312 346.075ZM280.54688 347.45L281.64062 347.575Q281.39062 348.52814 280.6875 349.0594Q279.98438 349.59064 278.90625 349.59064Q277.54688 349.59064 276.73438 348.7469Q275.9375 347.90314 275.9375 346.3875Q275.9375 344.825 276.75 343.96564Q277.5625 343.09064 278.84375 343.09064Q280.09375 343.09064 280.875 343.9344Q281.67188 344.77814 281.67188 346.325Q281.67188 346.41876 281.67188 346.60626L277.03125 346.60626Q277.09375 347.6375 277.60938 348.1844Q278.125 348.71564 278.90625 348.71564Q279.48438 348.71564 279.89062 348.41876Q280.3125 348.10626 280.54688 347.45ZM277.09375 345.7469L280.5625 345.7469Q280.5 344.95 280.17188 344.5594Q279.65625 343.95 278.85938 343.95Q278.125 343.95 277.625 344.4344Q277.14062 344.91876 277.09375 345.7469ZM283.29688 349.45L283.29688 343.23126L284.23438 343.23126L284.23438 344.10626Q284.92188 343.09064 286.21875 343.09064Q286.78125 343.09064 287.25 343.29376Q287.73438 343.4969 287.96875 343.825Q288.20312 344.15314 288.29688 344.59064Q288.34375 344.8875 288.34375 345.6219L288.34375 349.45L287.29688 349.45L287.29688 345.66876Q287.29688 345.0125 287.17188 344.7Q287.04688 344.3875 286.73438 344.2Q286.42188 343.9969 286.0 343.9969Q285.32812 343.9969 284.82812 344.4344Q284.34375 344.85626 284.34375 346.04376L284.34375 349.45L283.29688 349.45ZM294.32812 349.45L294.32812 348.66876Q293.73438 349.59064 292.59375 349.59064Q291.84375 349.59064 291.21875 349.1844Q290.59375 348.7625 290.25 348.02814Q289.90625 347.29376 289.90625 346.34064Q289.90625 345.41876 290.21875 344.65314Q290.53125 343.8875 291.15625 343.4969Q291.78125 343.09064 292.54688 343.09064Q293.10938 343.09064 293.54688 343.325Q293.98438 343.5594 294.26562 343.9344L294.26562 340.85626L295.3125 340.85626L295.3125 349.45L294.32812 349.45ZM291.0 346.34064Q291.0 347.54376 291.5 348.1375Q292.0 348.71564 292.6875 348.71564Q293.375 348.71564 293.85938 348.15314Q294.34375 347.59064 294.34375 346.4344Q294.34375 345.15314 293.84375 344.5594Q293.35938 343.96564 292.64062 343.96564Q291.9375 343.96564 291.46875 344.54376Q291.0 345.10626 291.0 346.34064ZM301.54688 347.45L302.64062 347.575Q302.39062 348.52814 301.6875 349.0594Q300.98438 349.59064 299.90625 349.59064Q298.54688 349.59064 297.73438 348.7469Q296.9375 347.90314 296.9375 346.3875Q296.9375 344.825 297.75 343.96564Q298.5625 343.09064 299.84375 343.09064Q301.09375 343.09064 301.875 343.9344Q302.67188 344.77814 302.67188 346.325Q302.67188 346.41876 302.67188 346.60626L298.03125 346.60626Q298.09375 347.6375 298.60938 348.1844Q299.125 348.71564 299.90625 348.71564Q300.48438 348.71564 300.89062 348.41876Q301.3125 348.10626 301.54688 347.45ZM298.09375 345.7469L301.5625 345.7469Q301.5 344.95 301.17188 344.5594Q300.65625 343.95 299.85938 343.95Q299.125 343.95 298.625 344.4344Q298.14062 344.91876 298.09375 345.7469ZM304.28125 349.45L304.28125 343.23126L305.23438 343.23126L305.23438 344.16876Q305.59375 343.5125 305.89062 343.3094Q306.20312 343.09064 306.57812 343.09064Q307.10938 343.09064 307.65625 343.41876L307.29688 344.40314Q306.90625 344.16876 306.53125 344.16876Q306.17188 344.16876 305.89062 344.3875Q305.625 344.59064 305.51562 344.96564Q305.32812 345.52814 305.32812 346.1844L305.32812 349.45L304.28125 349.45ZM311.29688 342.075L311.29688 340.85626L312.35938 340.85626L312.35938 342.075L311.29688 342.075ZM311.29688 349.45L311.29688 343.23126L312.35938 343.23126L312.35938 349.45L311.29688 349.45ZM318.32812 349.45L318.32812 348.66876Q317.73438 349.59064 316.59375 349.59064Q315.84375 349.59064 315.21875 349.1844Q314.59375 348.7625 314.25 348.02814Q313.90625 347.29376 313.90625 346.34064Q313.90625 345.41876 314.21875 344.65314Q314.53125 343.8875 315.15625 343.4969Q315.78125 343.09064 316.54688 343.09064Q317.10938 343.09064 317.54688 343.325Q317.98438 343.5594 318.26562 343.9344L318.26562 340.85626L319.3125 340.85626L319.3125 349.45L318.32812 349.45ZM315.0 346.34064Q315.0 347.54376 315.5 348.1375Q316.0 348.71564 316.6875 348.71564Q317.375 348.71564 317.85938 348.15314Q318.34375 347.59064 318.34375 346.4344Q318.34375 345.15314 317.84375 344.5594Q317.35938 343.96564 316.64062 343.96564Q315.9375 343.96564 315.46875 344.54376Q315.0 345.10626 315.0 346.34064ZM325.54688 347.45L326.64062 347.575Q326.39062 348.52814 325.6875 349.0594Q324.98438 349.59064 323.90625 349.59064Q322.54688 349.59064 321.73438 348.7469Q320.9375 347.90314 320.9375 346.3875Q320.9375 344.825 321.75 343.96564Q322.5625 343.09064 323.84375 343.09064Q325.09375 343.09064 325.875 343.9344Q326.67188 344.77814 326.67188 346.325Q326.67188 346.41876 326.67188 346.60626L322.03125 346.60626Q322.09375 347.6375 322.60938 348.1844Q323.125 348.71564 323.90625 348.71564Q324.48438 348.71564 324.89062 348.41876Q325.3125 348.10626 325.54688 347.45ZM322.09375 345.7469L325.5625 345.7469Q325.5 344.95 325.17188 344.5594Q324.65625 343.95 323.85938 343.95Q323.125 343.95 322.625 344.4344Q322.14062 344.91876 322.09375 345.7469ZM328.29688 349.45L328.29688 343.23126L329.23438 343.23126L329.23438 344.10626Q329.92188 343.09064 331.21875 343.09064Q331.78125 343.09064 332.25 343.29376Q332.73438 343.4969 332.96875 343.825Q333.20312 344.15314 333.29688 344.59064Q333.34375 344.8875 333.34375 345.6219L333.34375 349.45L332.29688 349.45L332.29688 345.66876Q332.29688 345.0125 332.17188 344.7Q332.04688 344.3875 331.73438 344.2Q331.42188 343.9969 331.0 343.9969Q330.32812 343.9969 329.82812 344.4344Q329.34375 344.85626 329.34375 346.04376L329.34375 349.45L328.29688 349.45ZM337.59375 348.5125L337.75 349.4344Q337.29688 349.52814 336.95312 349.52814Q336.375 349.52814 336.0625 349.35626Q335.75 349.16876 335.60938 348.8719Q335.48438 348.575 335.48438 347.6219L335.48438 344.04376L334.71875 344.04376L334.71875 343.23126L335.48438 343.23126L335.48438 341.6844L336.53125 341.0594L336.53125 343.23126L337.59375 343.23126L337.59375 344.04376L336.53125 344.04376L336.53125 347.6844Q336.53125 348.1375 336.57812 348.2625Q336.64062 348.3875 336.76562 348.46564Q336.89062 348.54376 337.125 348.54376Q337.3125 348.54376 337.59375 348.5125ZM338.29688 342.075L338.29688 340.85626L339.35938 340.85626L339.35938 342.075L338.29688 342.075ZM338.29688 349.45L338.29688 343.23126L339.35938 343.23126L339.35938 349.45L338.29688 349.45ZM343.59375 348.5125L343.75 349.4344Q343.29688 349.52814 342.95312 349.52814Q342.375 349.52814 342.0625 349.35626Q341.75 349.16876 341.60938 348.8719Q341.48438 348.575 341.48438 347.6219L341.48438 344.04376L340.71875 344.04376L340.71875 343.23126L341.48438 343.23126L341.48438 341.6844L342.53125 341.0594L342.53125 343.23126L343.59375 343.23126L343.59375 344.04376L342.53125 344.04376L342.53125 347.6844Q342.53125 348.1375 342.57812 348.2625Q342.64062 348.3875 342.76562 348.46564Q342.89062 348.54376 343.125 348.54376Q343.3125 348.54376 343.59375 348.5125ZM344.29688 342.075L344.29688 340.85626L345.35938 340.85626L345.35938 342.075L344.29688 342.075ZM344.29688 349.45L344.29688 343.23126L345.35938 343.23126L345.35938 349.45L344.29688 349.45ZM351.54688 347.45L352.64062 347.575Q352.39062 348.52814 351.6875 349.0594Q350.98438 349.59064 349.90625 349.59064Q348.54688 349.59064 347.73438 348.7469Q346.9375 347.90314 346.9375 346.3875Q346.9375 344.825 347.75 343.96564Q348.5625 343.09064 349.84375 343.09064Q351.09375 343.09064 351.875 343.9344Q352.67188 344.77814 352.67188 346.325Q352.67188 346.41876 352.67188 346.60626L348.03125 346.60626Q348.09375 347.6375 348.60938 348.1844Q349.125 348.71564 349.90625 348.71564Q350.48438 348.71564 350.89062 348.41876Q351.3125 348.10626 351.54688 347.45ZM348.09375 345.7469L351.5625 345.7469Q351.5 344.95 351.17188 344.5594Q350.65625 343.95 349.85938 343.95Q349.125 343.95 348.625 344.4344Q348.14062 344.91876 348.09375 345.7469ZM353.875 347.59064L354.90625 347.4344Q355.0 348.0594 355.39062 348.3875Q355.79688 348.71564 356.53125 348.71564Q357.25 348.71564 357.59375 348.4344Q357.95312 348.1375 357.95312 347.73126Q357.95312 347.3719 357.64062 347.16876Q357.42188 347.02814 356.5625 346.8094Q355.40625 346.5125 354.95312 346.3094Q354.51562 346.09064 354.28125 345.71564Q354.04688 345.34064 354.04688 344.8719Q354.04688 344.46564 354.23438 344.10626Q354.42188 343.7469 354.75 343.5125Q355.0 343.34064 355.42188 343.21564Q355.84375 343.09064 356.34375 343.09064Q357.0625 343.09064 357.60938 343.3094Q358.17188 343.5125 358.4375 343.8719Q358.70312 344.23126 358.79688 344.825L357.76562 344.96564Q357.70312 344.4969 357.35938 344.23126Q357.03125 343.95 356.40625 343.95Q355.6875 343.95 355.375 344.2Q355.0625 344.4344 355.0625 344.7625Q355.0625 344.96564 355.1875 345.1219Q355.32812 345.29376 355.59375 345.40314Q355.75 345.46564 356.53125 345.66876Q357.65625 345.98126 358.09375 346.16876Q358.53125 346.35626 358.78125 346.71564Q359.03125 347.075 359.03125 347.6219Q359.03125 348.15314 358.71875 348.6219Q358.42188 349.075 357.84375 349.34064Q357.26562 349.59064 356.53125 349.59064Q355.3125 349.59064 354.67188 349.09064Q354.04688 348.575 353.875 347.59064Z" fill-rule="nonzero"/><path fill="#000000" d="M33.05 300.21564Q33.05 298.6844 33.3625 297.7625Q33.675 296.825 34.284374 296.325Q34.909374 295.825 35.846874 295.825Q36.534374 295.825 37.05 296.10626Q37.58125 296.3875 37.925 296.91876Q38.26875 297.4344 38.45625 298.1844Q38.64375 298.9344 38.64375 300.21564Q38.64375 301.73126 38.33125 302.65314Q38.034374 303.575 37.409374 304.09064Q36.8 304.59064 35.846874 304.59064Q34.6125 304.59064 33.89375 303.7Q33.05 302.6375 33.05 300.21564ZM34.128124 300.21564Q34.128124 302.325 34.628124 303.02814Q35.128124 303.73126 35.846874 303.73126Q36.58125 303.73126 37.065624 303.02814Q37.565624 302.325 37.565624 300.21564Q37.565624 298.09064 37.065624 297.40314Q36.58125 296.7 35.83125 296.7Q35.1125 296.7 34.675 297.3094Q34.128124 298.09064 34.128124 300.21564Z" fill-rule="nonzero"/><path fill="#000000" d="M30.01875 224.93889L28.971874 224.93889L28.971874 218.22014Q28.58125 218.57951 27.95625 218.95451Q27.346874 219.31389 26.8625 219.48576L26.8625 218.47014Q27.7375 218.04826 28.39375 217.47014Q29.065624 216.87639 29.346874 216.31389L30.01875 216.31389L30.01875 224.93889ZM33.05 220.70451Q33.05 219.17326 33.3625 218.25139Q33.675 217.31389 34.284374 216.81389Q34.909374 216.31389 35.846874 216.31389Q36.534374 216.31389 37.05 216.59514Q37.58125 216.87639 37.925 217.40764Q38.26875 217.92326 38.45625 218.67326Q38.64375 219.42326 38.64375 220.70451Q38.64375 222.22014 38.33125 223.14201Q38.034374 224.06389 37.409374 224.57951Q36.8 225.07951 35.846874 225.07951Q34.6125 225.07951 33.89375 224.18889Q33.05 223.12639 33.05 220.70451ZM34.128124 220.70451Q34.128124 222.81389 34.628124 223.51701Q35.128124 224.22014 35.846874 224.22014Q36.58125 224.22014 37.065624 223.51701Q37.565624 222.81389 37.565624 220.70451Q37.565624 218.57951 37.065624 217.89201Q36.58125 217.18889 35.83125 217.18889Q35.1125 217.18889 34.675 217.79826Q34.128124 218.57951 34.128124 220.70451Z" fill-rule="nonzero"/><path fill="#000000" d="M31.596874 144.41216L31.596874 145.42778L25.909374 145.42778Q25.909374 145.05278 26.034374 144.6934Q26.253124 144.11528 26.721874 143.55278Q27.20625 142.99028 28.1125 142.2559Q29.51875 141.09966 30.003124 140.42778Q30.503124 139.7559 30.503124 139.16216Q30.503124 138.53716 30.05 138.11528Q29.596874 137.67778 28.878124 137.67778Q28.1125 137.67778 27.659374 138.1309Q27.20625 138.58403 27.190624 139.39653L26.1125 139.28716Q26.221874 138.0684 26.940624 137.4434Q27.675 136.80278 28.909374 136.80278Q30.14375 136.80278 30.8625 137.49028Q31.58125 138.17778 31.58125 139.1934Q31.58125 139.70903 31.3625 140.20903Q31.159374 140.6934 30.659374 141.2559Q30.175 141.80278 29.05 142.7559Q28.096874 143.55278 27.815624 143.84966Q27.55 144.1309 27.378124 144.41216L31.596874 144.41216ZM33.05 141.1934Q33.05 139.66216 33.3625 138.74028Q33.675 137.80278 34.284374 137.30278Q34.909374 136.80278 35.846874 136.80278Q36.534374 136.80278 37.05 137.08403Q37.58125 137.36528 37.925 137.89653Q38.26875 138.41216 38.45625 139.16216Q38.64375 139.91216 38.64375 141.1934Q38.64375 142.70903 38.33125 143.6309Q38.034374 144.55278 37.409374 145.0684Q36.8 145.5684 35.846874 145.5684Q34.6125 145.5684 33.89375 144.67778Q33.05 143.61528 33.05 141.1934ZM34.128124 141.1934Q34.128124 143.30278 34.628124 144.0059Q35.128124 144.70903 35.846874 144.70903Q36.58125 144.70903 37.065624 144.0059Q37.565624 143.30278 37.565624 141.1934Q37.565624 139.0684 37.065624 138.3809Q36.58125 137.67778 35.83125 137.67778Q35.1125 137.67778 34.675 138.28716Q34.128124 139.0684 34.128124 141.1934Z" fill-rule="nonzero"/><path fill="#000000" d="M26.05 63.65104L27.1125 63.510414Q27.284374 64.40104 27.721874 64.80729Q28.159374 65.197914 28.784374 65.197914Q29.534374 65.197914 30.05 64.68229Q30.565624 64.166664 30.565624 63.40104Q30.565624 62.68229 30.08125 62.21354Q29.6125 61.729164 28.878124 61.729164Q28.58125 61.729164 28.128124 61.854164L28.253124 60.916664Q28.3625 60.93229 28.425 60.93229Q29.096874 60.93229 29.628124 60.58854Q30.175 60.229164 30.175 59.49479Q30.175 58.916664 29.784374 58.541664Q29.39375 58.15104 28.76875 58.15104Q28.159374 58.15104 27.7375 58.541664Q27.33125 58.93229 27.221874 59.697914L26.159374 59.510414Q26.346874 58.46354 27.034374 57.885414Q27.721874 57.291664 28.7375 57.291664Q29.440624 57.291664 30.034374 57.604164Q30.628124 57.90104 30.940624 58.416664Q31.253124 58.93229 31.253124 59.52604Q31.253124 60.072914 30.95625 60.541664Q30.659374 60.99479 30.08125 61.260414Q30.83125 61.43229 31.253124 61.99479Q31.675 62.541664 31.675 63.385414Q31.675 64.510414 30.846874 65.291664Q30.034374 66.072914 28.784374 66.072914Q27.659374 66.072914 26.909374 65.40104Q26.159374 64.71354 26.05 63.65104ZM33.05 61.68229Q33.05 60.15104 33.3625 59.229164Q33.675 58.291664 34.284374 57.791664Q34.909374 57.291664 35.846874 57.291664Q36.534374 57.291664 37.05 57.572914Q37.58125 57.854164 37.925 58.385414Q38.26875 58.90104 38.45625 59.65104Q38.64375 60.40104 38.64375 61.68229Q38.64375 63.197914 38.33125 64.11979Q38.034374 65.041664 37.409374 65.55729Q36.8 66.05729 35.846874 66.05729Q34.6125 66.05729 33.89375 65.166664Q33.05 64.104164 33.05 61.68229ZM34.128124 61.68229Q34.128124 63.791664 34.628124 64.49479Q35.128124 65.197914 35.846874 65.197914Q36.58125 65.197914 37.065624 64.49479Q37.565624 63.791664 37.565624 61.68229Q37.565624 59.55729 37.065624 58.86979Q36.58125 58.166664 35.83125 58.166664Q35.1125 58.166664 34.675 58.77604Q34.128124 59.55729 34.128124 61.68229Z" fill-rule="nonzero"/><path fill="#000000" d="M188.86935 317.45L188.86935 308.85626L190.5881 308.85626L192.61935 314.9344Q192.9006 315.79376 193.0256 316.21564Q193.16623 315.7469 193.47873 314.84064L195.54123 308.85626L197.07248 308.85626L197.07248 317.45L195.97873 317.45L195.97873 310.2625L193.47873 317.45L192.44748 317.45L189.9631 310.1375L189.9631 317.45L188.86935 317.45ZM201.8381 316.6844Q201.24435 317.1844 200.69748 317.3875Q200.16623 317.59064 199.54123 317.59064Q198.50998 317.59064 197.9631 317.09064Q197.41623 316.59064 197.41623 315.8094Q197.41623 315.35626 197.61935 314.98126Q197.82248 314.59064 198.16623 314.3719Q198.50998 314.1375 198.93185 314.02814Q199.22873 313.9344 199.86935 313.85626Q201.13498 313.71564 201.74435 313.4969Q201.74435 313.27814 201.74435 313.23126Q201.74435 312.575 201.44748 312.3094Q201.04123 311.96564 200.24435 311.96564Q199.50998 311.96564 199.1506 312.23126Q198.79123 312.48126 198.61935 313.1375L197.5881 312.9969Q197.72873 312.34064 198.05685 311.9344Q198.38498 311.52814 198.99435 311.3094Q199.60373 311.09064 200.4006 311.09064Q201.19748 311.09064 201.69748 311.27814Q202.19748 311.46564 202.43185 311.7469Q202.66623 312.02814 202.75998 312.46564Q202.80685 312.73126 202.80685 313.4344L202.80685 314.84064Q202.80685 316.3094 202.86935 316.7Q202.94748 317.09064 203.1506 317.45L202.04123 317.45Q201.88498 317.1219 201.8381 316.6844ZM201.74435 314.325Q201.16623 314.5594 200.0256 314.73126Q199.36935 314.825 199.10373 314.95Q198.8381 315.0594 198.68185 315.27814Q198.54123 315.4969 198.54123 315.77814Q198.54123 316.2 198.85373 316.48126Q199.18185 316.7625 199.79123 316.7625Q200.4006 316.7625 200.86935 316.4969Q201.35373 316.23126 201.57248 315.7625Q201.74435 315.40314 201.74435 314.71564L201.74435 314.325ZM204.7756 317.45L204.7756 311.23126L205.7131 311.23126L205.7131 312.10626Q206.4006 311.09064 207.69748 311.09064Q208.25998 311.09064 208.72873 311.29376Q209.2131 311.4969 209.44748 311.825Q209.68185 312.15314 209.7756 312.59064Q209.82248 312.8875 209.82248 313.6219L209.82248 317.45L208.7756 317.45L208.7756 313.66876Q208.7756 313.0125 208.6506 312.7Q208.5256 312.3875 208.2131 312.2Q207.9006 311.9969 207.47873 311.9969Q206.80685 311.9969 206.30685 312.4344Q205.82248 312.85626 205.82248 314.04376L205.82248 317.45L204.7756 317.45Z" fill-rule="nonzero"/><path fill="#000000" d="M408.44315 317.45L406.1619 308.85626L407.33377 308.85626L408.64627 314.4969Q408.8494 315.3719 409.00565 316.2469Q409.33377 314.8719 409.39627 314.65314L411.02127 308.85626L412.39627 308.85626L413.63065 313.2Q414.08377 314.825 414.30252 316.2469Q414.45877 315.4344 414.7244 314.3719L416.06815 308.85626L417.20877 308.85626L414.86502 317.45L413.75565 317.45L411.95877 310.90314Q411.7244 310.09064 411.67752 309.90314Q411.55252 310.48126 411.42752 310.90314L409.61502 317.45L408.44315 317.45ZM417.42752 314.34064Q417.42752 312.60626 418.38065 311.77814Q419.17752 311.09064 420.33377 311.09064Q421.61502 311.09064 422.42752 311.9344Q423.25565 312.7625 423.25565 314.2469Q423.25565 315.45 422.89627 316.1375Q422.5369 316.825 421.83377 317.21564Q421.14627 317.59064 420.33377 317.59064Q419.0369 317.59064 418.2244 316.7625Q417.42752 315.91876 417.42752 314.34064ZM418.50565 314.34064Q418.50565 315.52814 419.02127 316.1219Q419.55252 316.71564 420.33377 316.71564Q421.13065 316.71564 421.64627 316.1219Q422.1619 315.52814 422.1619 314.3094Q422.1619 313.15314 421.63065 312.5594Q421.11502 311.96564 420.33377 311.96564Q419.55252 311.96564 419.02127 312.5594Q418.50565 313.1375 418.50565 314.34064ZM424.81815 317.45L424.81815 311.23126L425.75565 311.23126L425.75565 312.10626Q426.05252 311.6375 426.5369 311.3719Q427.02127 311.09064 427.64627 311.09064Q428.33377 311.09064 428.77127 311.3719Q429.2244 311.65314 429.39627 312.16876Q430.14627 311.09064 431.31815 311.09064Q432.25565 311.09064 432.74002 311.60626Q433.24002 312.10626 433.24002 313.1844L433.24002 317.45L432.19315 317.45L432.19315 313.52814Q432.19315 312.90314 432.08377 312.6219Q431.99002 312.34064 431.7244 312.16876Q431.45877 311.9969 431.08377 311.9969Q430.42752 311.9969 429.99002 312.4344Q429.56815 312.8719 429.56815 313.84064L429.56815 317.45L428.50565 317.45L428.50565 313.40314Q428.50565 312.7 428.24002 312.35626Q427.99002 311.9969 427.4119 311.9969Q426.95877 311.9969 426.58377 312.23126Q426.20877 312.46564 426.0369 312.91876Q425.86502 313.3719 425.86502 314.21564L425.86502 317.45L424.81815 317.45ZM439.88065 316.6844Q439.2869 317.1844 438.74002 317.3875Q438.20877 317.59064 437.58377 317.59064Q436.55252 317.59064 436.00565 317.09064Q435.45877 316.59064 435.45877 315.8094Q435.45877 315.35626 435.6619 314.98126Q435.86502 314.59064 436.20877 314.3719Q436.55252 314.1375 436.9744 314.02814Q437.27127 313.9344 437.9119 313.85626Q439.17752 313.71564 439.7869 313.4969Q439.7869 313.27814 439.7869 313.23126Q439.7869 312.575 439.49002 312.3094Q439.08377 311.96564 438.2869 311.96564Q437.55252 311.96564 437.19315 312.23126Q436.83377 312.48126 436.6619 313.1375L435.63065 312.9969Q435.77127 312.34064 436.0994 311.9344Q436.42752 311.52814 437.0369 311.3094Q437.64627 311.09064 438.44315 311.09064Q439.24002 311.09064 439.74002 311.27814Q440.24002 311.46564 440.4744 311.7469Q440.70877 312.02814 440.80252 312.46564Q440.8494 312.73126 440.8494 313.4344L440.8494 314.84064Q440.8494 316.3094 440.9119 316.7Q440.99002 317.09064 441.19315 317.45L440.08377 317.45Q439.92752 317.1219 439.88065 316.6844ZM439.7869 314.325Q439.20877 314.5594 438.06815 314.73126Q437.4119 314.825 437.14627 314.95Q436.88065 315.0594 436.7244 315.27814Q436.58377 315.4969 436.58377 315.77814Q436.58377 316.2 436.89627 316.48126Q437.2244 316.7625 437.83377 316.7625Q438.44315 316.7625 438.9119 316.4969Q439.39627 316.23126 439.61502 315.7625Q439.7869 315.40314 439.7869 314.71564L439.7869 314.325ZM442.81815 317.45L442.81815 311.23126L443.75565 311.23126L443.75565 312.10626Q444.44315 311.09064 445.74002 311.09064Q446.30252 311.09064 446.77127 311.29376Q447.25565 311.4969 447.49002 311.825Q447.7244 312.15314 447.81815 312.59064Q447.86502 312.8875 447.86502 313.6219L447.86502 317.45L446.81815 317.45L446.81815 313.66876Q446.81815 313.0125 446.69315 312.7Q446.56815 312.3875 446.25565 312.2Q445.94315 311.9969 445.52127 311.9969Q444.8494 311.9969 444.3494 312.4344Q443.86502 312.85626 443.86502 314.04376L443.86502 317.45L442.81815 317.45Z" fill-rule="nonzero"/><path fill="#757575" d="M20.159374 37.55L20.159374 23.2375L22.05 23.2375L22.05 29.1125L29.4875 29.1125L29.4875 23.2375L31.378124 23.2375L31.378124 37.55L29.4875 37.55L29.4875 30.8L22.05 30.8L22.05 37.55L20.159374 37.55ZM32.221874 32.3625Q32.221874 29.4875 33.815624 28.096874Q35.159374 26.940624 37.08125 26.940624Q39.221874 26.940624 40.565624 28.346874Q41.925 29.753124 41.925 32.221874Q41.925 34.221874 41.33125 35.378124Q40.7375 36.51875 39.58125 37.159374Q38.440624 37.784374 37.08125 37.784374Q34.89375 37.784374 33.55 36.39375Q32.221874 34.9875 32.221874 32.3625ZM34.01875 32.3625Q34.01875 34.3625 34.878124 35.346874Q35.753124 36.33125 37.08125 36.33125Q38.39375 36.33125 39.253124 35.346874Q40.128124 34.346874 40.128124 32.3Q40.128124 30.378124 39.253124 29.39375Q38.378124 28.39375 37.08125 28.39375Q35.753124 28.39375 34.878124 29.39375Q34.01875 30.378124 34.01875 32.3625ZM45.784374 37.55L42.6125 27.175L44.425 27.175L46.08125 33.159374L46.690624 35.39375Q46.7375 35.221874 47.221874 33.253124L48.878124 27.175L50.690624 27.175L52.2375 33.190624L52.753124 35.175L53.346874 33.175L55.128124 27.175L56.83125 27.175L53.596874 37.55L51.76875 37.55L50.1125 31.33125L49.721874 29.565624L47.6125 37.55L45.784374 37.55ZM66.78438 37.55L63.6125 27.175L65.425 27.175L67.08125 33.159374L67.69063 35.39375Q67.7375 35.221874 68.22188 33.253124L69.87813 27.175L71.69063 27.175L73.2375 33.190624L73.75313 35.175L74.34688 33.175L76.12813 27.175L77.83125 27.175L74.59688 37.55L72.76875 37.55L71.1125 31.33125L70.72188 29.565624L68.6125 37.55L66.78438 37.55ZM79.22188 32.3625Q79.22188 29.4875 80.81563 28.096874Q82.15938 26.940624 84.08125 26.940624Q86.22188 26.940624 87.56563 28.346874Q88.925 29.753124 88.925 32.221874Q88.925 34.221874 88.33125 35.378124Q87.7375 36.51875 86.58125 37.159374Q85.44063 37.784374 84.08125 37.784374Q81.89375 37.784374 80.55 36.39375Q79.22188 34.9875 79.22188 32.3625ZM81.01875 32.3625Q81.01875 34.3625 81.87813 35.346874Q82.75313 36.33125 84.08125 36.33125Q85.39375 36.33125 86.25313 35.346874Q87.12813 34.346874 87.12813 32.3Q87.12813 30.378124 86.25313 29.39375Q85.37813 28.39375 84.08125 28.39375Q82.75313 28.39375 81.87813 29.39375Q81.01875 30.378124 81.01875 32.3625ZM97.65938 37.55L97.65938 36.01875Q96.45625 37.784374 94.37813 37.784374Q93.45625 37.784374 92.65938 37.440624Q91.8625 37.08125 91.47188 36.55Q91.09688 36.01875 90.94063 35.2375Q90.83125 34.721874 90.83125 33.596874L90.83125 27.175L92.58125 27.175L92.58125 32.925Q92.58125 34.3 92.69063 34.784374Q92.8625 35.471874 93.39375 35.878124Q93.94063 36.26875 94.72188 36.26875Q95.51875 36.26875 96.20625 35.8625Q96.90938 35.45625 97.19063 34.76875Q97.4875 34.065624 97.4875 32.7375L97.4875 27.175L99.2375 27.175L99.2375 37.55L97.65938 37.55ZM100.83125 37.55L100.83125 23.2375L102.58125 23.2375L102.58125 37.55L100.83125 37.55ZM111.59688 37.55L111.59688 36.2375Q110.6125 37.784374 108.69063 37.784374Q107.45625 37.784374 106.40938 37.096874Q105.37813 36.409374 104.8 35.190624Q104.2375 33.971874 104.2375 32.378124Q104.2375 30.815624 104.75313 29.55Q105.26875 28.284374 106.3 27.6125Q107.34688 26.940624 108.6125 26.940624Q109.55 26.940624 110.28438 27.346874Q111.01875 27.7375 111.4875 28.3625L111.4875 23.2375L113.22188 23.2375L113.22188 37.55L111.59688 37.55ZM106.03438 32.378124Q106.03438 34.3625 106.87813 35.346874Q107.72188 36.33125 108.8625 36.33125Q110.01875 36.33125 110.81563 35.39375Q111.62813 34.45625 111.62813 32.51875Q111.62813 30.39375 110.8 29.39375Q109.9875 28.39375 108.78438 28.39375Q107.6125 28.39375 106.81563 29.3625Q106.03438 30.315624 106.03438 32.378124ZM121.78438 41.55L121.59688 39.89375Q122.175 40.05 122.59688 40.05Q123.19063 40.05 123.53438 39.846874Q123.89375 39.659374 124.1125 39.315624Q124.28438 39.05 124.65938 38.003124Q124.70625 37.846874 124.81563 37.565624L120.87813 27.175L122.76875 27.175L124.925 33.190624Q125.34688 34.33125 125.675 35.58125Q125.9875 34.378124 126.39375 33.221874L128.6125 27.175L130.37813 27.175L126.425 37.721874Q125.8 39.440624 125.44063 40.08125Q124.97188 40.95625 124.3625 41.346874Q123.76875 41.753124 122.925 41.753124Q122.40938 41.753124 121.78438 41.55ZM131.22188 32.3625Q131.22188 29.4875 132.81563 28.096874Q134.15938 26.940624 136.08125 26.940624Q138.22188 26.940624 139.56563 28.346874Q140.925 29.753124 140.925 32.221874Q140.925 34.221874 140.33125 35.378124Q139.7375 36.51875 138.58125 37.159374Q137.44063 37.784374 136.08125 37.784374Q133.89375 37.784374 132.55 36.39375Q131.22188 34.9875 131.22188 32.3625ZM133.01875 32.3625Q133.01875 34.3625 133.87813 35.346874Q134.75313 36.33125 136.08125 36.33125Q137.39375 36.33125 138.25313 35.346874Q139.12813 34.346874 139.12813 32.3Q139.12813 30.378124 138.25313 29.39375Q137.37813 28.39375 136.08125 28.39375Q134.75313 28.39375 133.87813 29.39375Q133.01875 30.378124 133.01875 32.3625ZM149.65938 37.55L149.65938 36.01875Q148.45625 37.784374 146.37813 37.784374Q145.45625 37.784374 144.65938 37.440624Q143.8625 37.08125 143.47188 36.55Q143.09688 36.01875 142.94063 35.2375Q142.83125 34.721874 142.83125 33.596874L142.83125 27.175L144.58125 27.175L144.58125 32.925Q144.58125 34.3 144.69063 34.784374Q144.8625 35.471874 145.39375 35.878124Q145.94063 36.26875 146.72188 36.26875Q147.51875 36.26875 148.20625 35.8625Q148.90938 35.45625 149.19063 34.76875Q149.4875 34.065624 149.4875 32.7375L149.4875 27.175L151.2375 27.175L151.2375 37.55L149.65938 37.55ZM165.59688 37.55L165.59688 36.2375Q164.6125 37.784374 162.69063 37.784374Q161.45625 37.784374 160.40938 37.096874Q159.37813 36.409374 158.8 35.190624Q158.2375 33.971874 158.2375 32.378124Q158.2375 30.815624 158.75313 29.55Q159.26875 28.284374 160.3 27.6125Q161.34688 26.940624 162.6125 26.940624Q163.55 26.940624 164.28438 27.346874Q165.01875 27.7375 165.4875 28.3625L165.4875 23.2375L167.22188 23.2375L167.22188 37.55L165.59688 37.55ZM160.03438 32.378124Q160.03438 34.3625 160.87813 35.346874Q161.72188 36.33125 162.8625 36.33125Q164.01875 36.33125 164.81563 35.39375Q165.62813 34.45625 165.62813 32.51875Q165.62813 30.39375 164.8 29.39375Q163.9875 28.39375 162.78438 28.39375Q161.6125 28.39375 160.81563 29.3625Q160.03438 30.315624 160.03438 32.378124ZM176.97188 34.20625L178.78438 34.440624Q178.3625 36.01875 177.19063 36.909374Q176.03438 37.784374 174.22188 37.784374Q171.95625 37.784374 170.6125 36.39375Q169.28438 34.9875 169.28438 32.45625Q169.28438 29.83125 170.62813 28.39375Q171.97188 26.940624 174.12813 26.940624Q176.20625 26.940624 177.51875 28.3625Q178.84688 29.76875 178.84688 32.346874Q178.84688 32.503124 178.83125 32.815624L171.09688 32.815624Q171.19063 34.51875 172.06563 35.425Q172.94063 36.33125 174.2375 36.33125Q175.20625 36.33125 175.87813 35.83125Q176.56563 35.315624 176.97188 34.20625ZM171.19063 31.3625L176.9875 31.3625Q176.87813 30.065624 176.33125 29.409374Q175.4875 28.39375 174.14375 28.39375Q172.94063 28.39375 172.1125 29.20625Q171.28438 30.003124 171.19063 31.3625ZM180.15938 34.45625L181.90938 34.175Q182.05 35.221874 182.72188 35.784374Q183.39375 36.33125 184.59688 36.33125Q185.8 36.33125 186.37813 35.846874Q186.97188 35.346874 186.97188 34.690624Q186.97188 34.096874 186.45625 33.753124Q186.09688 33.51875 184.65938 33.159374Q182.72188 32.659374 181.97188 32.315624Q181.2375 31.95625 180.84688 31.33125Q180.45625 30.690624 180.45625 29.925Q180.45625 29.2375 180.76875 28.64375Q181.09688 28.05 181.64375 27.659374Q182.05 27.3625 182.75313 27.159374Q183.47188 26.940624 184.28438 26.940624Q185.50313 26.940624 186.425 27.3Q187.34688 27.64375 187.78438 28.253124Q188.22188 28.846874 188.39375 29.846874L186.675 30.08125Q186.55 29.284374 185.9875 28.846874Q185.425 28.39375 184.40938 28.39375Q183.19063 28.39375 182.675 28.8Q182.15938 29.190624 182.15938 29.721874Q182.15938 30.065624 182.37813 30.346874Q182.58125 30.628124 183.05 30.815624Q183.31563 30.909374 184.59688 31.253124Q186.47188 31.753124 187.20625 32.08125Q187.94063 32.39375 188.3625 33.003124Q188.78438 33.596874 188.78438 34.503124Q188.78438 35.378124 188.26875 36.159374Q187.75313 36.940624 186.78438 37.3625Q185.81563 37.784374 184.59688 37.784374Q182.58125 37.784374 181.51875 36.940624Q180.45625 36.096874 180.15938 34.45625ZM197.64375 33.753124L199.3625 33.971874Q199.08125 35.76875 197.90938 36.784374Q196.75313 37.784374 195.05 37.784374Q192.925 37.784374 191.62813 36.39375Q190.33125 35.003124 190.33125 32.409374Q190.33125 30.721874 190.87813 29.471874Q191.44063 28.20625 192.58125 27.58125Q193.72188 26.940624 195.06563 26.940624Q196.75313 26.940624 197.81563 27.8Q198.89375 28.659374 199.20625 30.221874L197.4875 30.4875Q197.25313 29.440624 196.62813 28.925Q196.00313 28.39375 195.12813 28.39375Q193.8 28.39375 192.97188 29.346874Q192.14375 30.3 192.14375 32.346874Q192.14375 34.440624 192.94063 35.39375Q193.7375 36.33125 195.03438 36.33125Q196.06563 36.33125 196.75313 35.70625Q197.45625 35.065624 197.64375 33.753124ZM200.84688 37.55L200.84688 27.175L202.425 27.175L202.425 28.753124Q203.03438 27.64375 203.55 27.3Q204.06563 26.940624 204.675 26.940624Q205.56563 26.940624 206.4875 27.503124L205.87813 29.14375Q205.2375 28.753124 204.59688 28.753124Q204.01875 28.753124 203.55 29.1125Q203.09688 29.45625 202.89375 30.065624Q202.6125 31.003124 202.6125 32.1125L202.6125 37.55L200.84688 37.55ZM207.87813 25.253124L207.87813 23.2375L209.64375 23.2375L209.64375 25.253124L207.87813 25.253124ZM207.87813 37.55L207.87813 27.175L209.64375 27.175L209.64375 37.55L207.87813 37.55ZM213.4875 37.55L211.8625 37.55L211.8625 23.2375L213.6125 23.2375L213.6125 28.346874Q214.7375 26.940624 216.45625 26.940624Q217.40938 26.940624 218.26875 27.33125Q219.12813 27.721874 219.675 28.425Q220.22188 29.1125 220.53438 30.096874Q220.84688 31.08125 220.84688 32.20625Q220.84688 34.878124 219.53438 36.33125Q218.22188 37.784374 216.37813 37.784374Q214.53438 37.784374 213.4875 36.253124L213.4875 37.55ZM213.47188 32.284374Q213.47188 34.14375 213.97188 34.9875Q214.81563 36.33125 216.22188 36.33125Q217.37813 36.33125 218.20625 35.33125Q219.05 34.33125 219.05 32.346874Q219.05 30.315624 218.2375 29.3625Q217.44063 28.39375 216.3 28.39375Q215.14375 28.39375 214.3 29.39375Q213.47188 30.39375 213.47188 32.284374ZM229.97188 34.20625L231.78438 34.440624Q231.3625 36.01875 230.19063 36.909374Q229.03438 37.784374 227.22188 37.784374Q224.95625 37.784374 223.6125 36.39375Q222.28438 34.9875 222.28438 32.45625Q222.28438 29.83125 223.62813 28.39375Q224.97188 26.940624 227.12813 26.940624Q229.20625 26.940624 230.51875 28.3625Q231.84688 29.76875 231.84688 32.346874Q231.84688 32.503124 231.83125 32.815624L224.09688 32.815624Q224.19063 34.51875 225.06563 35.425Q225.94063 36.33125 227.2375 36.33125Q228.20625 36.33125 228.87813 35.83125Q229.56563 35.315624 229.97188 34.20625ZM224.19063 31.3625L229.9875 31.3625Q229.87813 30.065624 229.33125 29.409374Q228.4875 28.39375 227.14375 28.39375Q225.94063 28.39375 225.1125 29.20625Q224.28438 30.003124 224.19063 31.3625ZM239.78438 41.55L239.59688 39.89375Q240.175 40.05 240.59688 40.05Q241.19063 40.05 241.53438 39.846874Q241.89375 39.659374 242.1125 39.315624Q242.28438 39.05 242.65938 38.003124Q242.70625 37.846874 242.81563 37.565624L238.87813 27.175L240.76875 27.175L242.925 33.190624Q243.34688 34.33125 243.675 35.58125Q243.9875 34.378124 244.39375 33.221874L246.6125 27.175L248.37813 27.175L244.425 37.721874Q243.8 39.440624 243.44063 40.08125Q242.97188 40.95625 242.3625 41.346874Q241.76875 41.753124 240.925 41.753124Q240.40938 41.753124 239.78438 41.55ZM249.22188 32.3625Q249.22188 29.4875 250.81563 28.096874Q252.15938 26.940624 254.08125 26.940624Q256.22186 26.940624 257.5656 28.346874Q258.925 29.753124 258.925 32.221874Q258.925 34.221874 258.33124 35.378124Q257.7375 36.51875 256.58124 37.159374Q255.44063 37.784374 254.08125 37.784374Q251.89375 37.784374 250.55 36.39375Q249.22188 34.9875 249.22188 32.3625ZM251.01875 32.3625Q251.01875 34.3625 251.87813 35.346874Q252.75313 36.33125 254.08125 36.33125Q255.39375 36.33125 256.2531 35.346874Q257.1281 34.346874 257.1281 32.3Q257.1281 30.378124 256.2531 29.39375Q255.37813 28.39375 254.08125 28.39375Q252.75313 28.39375 251.87813 29.39375Q251.01875 30.378124 251.01875 32.3625ZM267.65936 37.55L267.65936 36.01875Q266.45624 37.784374 264.3781 37.784374Q263.45624 37.784374 262.65936 37.440624Q261.8625 37.08125 261.47186 36.55Q261.09686 36.01875 260.9406 35.2375Q260.83124 34.721874 260.83124 33.596874L260.83124 27.175L262.58124 27.175L262.58124 32.925Q262.58124 34.3 262.6906 34.784374Q262.8625 35.471874 263.39374 35.878124Q263.9406 36.26875 264.72186 36.26875Q265.51874 36.26875 266.20624 35.8625Q266.90936 35.45625 267.1906 34.76875Q267.4875 34.065624 267.4875 32.7375L267.4875 27.175L269.2375 27.175L269.2375 37.55L267.65936 37.55ZM270.84686 37.55L270.84686 27.175L272.425 27.175L272.425 28.753124Q273.03436 27.64375 273.55 27.3Q274.0656 26.940624 274.675 26.940624Q275.5656 26.940624 276.4875 27.503124L275.8781 29.14375Q275.2375 28.753124 274.59686 28.753124Q274.01874 28.753124 273.55 29.1125Q273.09686 29.45625 272.89374 30.065624Q272.6125 31.003124 272.6125 32.1125L272.6125 37.55L270.84686 37.55ZM283.55 38.409374L285.2531 38.659374Q285.3625 39.45625 285.84686 39.815624Q286.5031 40.3 287.64374 40.3Q288.8625 40.3 289.51874 39.815624Q290.1906 39.33125 290.425 38.45625Q290.5656 37.909374 290.55 36.190624Q289.39374 37.55 287.675 37.55Q285.53436 37.55 284.3625 36.003124Q283.1906 34.45625 283.1906 32.3Q283.1906 30.815624 283.72186 29.565624Q284.26874 28.315624 285.28436 27.628124Q286.3156 26.940624 287.6906 26.940624Q289.51874 26.940624 290.72186 28.425L290.72186 27.175L292.33124 27.175L292.33124 36.14375Q292.33124 38.565624 291.83124 39.565624Q291.34686 40.58125 290.26874 41.159374Q289.20624 41.753124 287.64374 41.753124Q285.8 41.753124 284.64374 40.925Q283.5031 40.096874 283.55 38.409374ZM285.0031 32.175Q285.0031 34.221874 285.8156 35.159374Q286.6281 36.096874 287.84686 36.096874Q289.05 36.096874 289.8625 35.159374Q290.6906 34.221874 290.6906 32.2375Q290.6906 30.33125 289.84686 29.3625Q289.0031 28.39375 287.8156 28.39375Q286.64374 28.39375 285.8156 29.346874Q285.0031 30.3 285.0031 32.175ZM301.97186 34.20625L303.78436 34.440624Q303.3625 36.01875 302.1906 36.909374Q301.03436 37.784374 299.22186 37.784374Q296.95624 37.784374 295.6125 36.39375Q294.28436 34.9875 294.28436 32.45625Q294.28436 29.83125 295.6281 28.39375Q296.97186 26.940624 299.1281 26.940624Q301.20624 26.940624 302.51874 28.3625Q303.84686 29.76875 303.84686 32.346874Q303.84686 32.503124 303.83124 32.815624L296.09686 32.815624Q296.1906 34.51875 297.0656 35.425Q297.9406 36.33125 299.2375 36.33125Q300.20624 36.33125 300.8781 35.83125Q301.5656 35.315624 301.97186 34.20625ZM296.1906 31.3625L301.9875 31.3625Q301.8781 30.065624 301.33124 29.409374Q300.4875 28.39375 299.14374 28.39375Q297.9406 28.39375 297.1125 29.20625Q296.28436 30.003124 296.1906 31.3625ZM305.8625 37.55L305.8625 27.175L307.45624 27.175L307.45624 28.659374Q308.59686 26.940624 310.7531 26.940624Q311.6906 26.940624 312.47186 27.284374Q313.26874 27.6125 313.65936 28.159374Q314.05 28.70625 314.20624 29.45625Q314.3 29.95625 314.3 31.175L314.3 37.55L312.53436 37.55L312.53436 31.2375Q312.53436 30.159374 312.33124 29.628124Q312.1281 29.096874 311.59686 28.784374Q311.08124 28.471874 310.3781 28.471874Q309.2531 28.471874 308.4406 29.190624Q307.6281 29.89375 307.6281 31.878124L307.6281 37.55L305.8625 37.55ZM322.59686 37.55L322.59686 36.2375Q321.6125 37.784374 319.6906 37.784374Q318.45624 37.784374 317.40936 37.096874Q316.3781 36.409374 315.8 35.190624Q315.2375 33.971874 315.2375 32.378124Q315.2375 30.815624 315.7531 29.55Q316.26874 28.284374 317.3 27.6125Q318.34686 26.940624 319.6125 26.940624Q320.55 26.940624 321.28436 27.346874Q322.01874 27.7375 322.4875 28.3625L322.4875 23.2375L324.22186 23.2375L324.22186 37.55L322.59686 37.55ZM317.03436 32.378124Q317.03436 34.3625 317.8781 35.346874Q318.72186 36.33125 319.8625 36.33125Q321.01874 36.33125 321.8156 35.39375Q322.6281 34.45625 322.6281 32.51875Q322.6281 30.39375 321.8 29.39375Q320.9875 28.39375 319.78436 28.39375Q318.6125 28.39375 317.8156 29.3625Q317.03436 30.315624 317.03436 32.378124ZM333.97186 34.20625L335.78436 34.440624Q335.3625 36.01875 334.1906 36.909374Q333.03436 37.784374 331.22186 37.784374Q328.95624 37.784374 327.6125 36.39375Q326.28436 34.9875 326.28436 32.45625Q326.28436 29.83125 327.6281 28.39375Q328.97186 26.940624 331.1281 26.940624Q333.20624 26.940624 334.51874 28.3625Q335.84686 29.76875 335.84686 32.346874Q335.84686 32.503124 335.83124 32.815624L328.09686 32.815624Q328.1906 34.51875 329.0656 35.425Q329.9406 36.33125 331.2375 36.33125Q332.20624 36.33125 332.8781 35.83125Q333.5656 35.315624 333.97186 34.20625ZM328.1906 31.3625L333.9875 31.3625Q333.8781 30.065624 333.33124 29.409374Q332.4875 28.39375 331.14374 28.39375Q329.9406 28.39375 329.1125 29.20625Q328.28436 30.003124 328.1906 31.3625ZM337.84686 37.55L337.84686 27.175L339.425 27.175L339.425 28.753124Q340.03436 27.64375 340.55 27.3Q341.0656 26.940624 341.675 26.940624Q342.5656 26.940624 343.4875 27.503124L342.8781 29.14375Q342.2375 28.753124 341.59686 28.753124Q341.01874 28.753124 340.55 29.1125Q340.09686 29.45625 339.89374 30.065624Q339.6125 31.003124 339.6125 32.1125L339.6125 37.55L337.84686 37.55ZM350.8781 25.253124L350.8781 23.2375L352.64374 23.2375L352.64374 25.253124L350.8781 25.253124ZM350.8781 37.55L350.8781 27.175L352.64374 27.175L352.64374 37.55L350.8781 37.55ZM361.59686 37.55L361.59686 36.2375Q360.6125 37.784374 358.6906 37.784374Q357.45624 37.784374 356.40936 37.096874Q355.3781 36.409374 354.8 35.190624Q354.2375 33.971874 354.2375 32.378124Q354.2375 30.815624 354.7531 29.55Q355.26874 28.284374 356.3 27.6125Q357.34686 26.940624 358.6125 26.940624Q359.55 26.940624 360.28436 27.346874Q361.01874 27.7375 361.4875 28.3625L361.4875 23.2375L363.22186 23.2375L363.22186 37.55L361.59686 37.55ZM356.03436 32.378124Q356.03436 34.3625 356.8781 35.346874Q357.72186 36.33125 358.8625 36.33125Q360.01874 36.33125 360.8156 35.39375Q361.6281 34.45625 361.6281 32.51875Q361.6281 30.39375 360.8 29.39375Q359.9875 28.39375 358.78436 28.39375Q357.6125 28.39375 356.8156 29.3625Q356.03436 30.315624 356.03436 32.378124ZM372.97186 34.20625L374.78436 34.440624Q374.3625 36.01875 373.1906 36.909374Q372.03436 37.784374 370.22186 37.784374Q367.95624 37.784374 366.6125 36.39375Q365.28436 34.9875 365.28436 32.45625Q365.28436 29.83125 366.6281 28.39375Q367.97186 26.940624 370.1281 26.940624Q372.20624 26.940624 373.51874 28.3625Q374.84686 29.76875 374.84686 32.346874Q374.84686 32.503124 374.83124 32.815624L367.09686 32.815624Q367.1906 34.51875 368.0656 35.425Q368.9406 36.33125 370.2375 36.33125Q371.20624 36.33125 371.8781 35.83125Q372.5656 35.315624 372.97186 34.20625ZM367.1906 31.3625L372.9875 31.3625Q372.8781 30.065624 372.33124 29.409374Q371.4875 28.39375 370.14374 28.39375Q368.9406 28.39375 368.1125 29.20625Q367.28436 30.003124 367.1906 31.3625ZM376.8625 37.55L376.8625 27.175L378.45624 27.175L378.45624 28.659374Q379.59686 26.940624 381.7531 26.940624Q382.6906 26.940624 383.47186 27.284374Q384.26874 27.6125 384.65936 28.159374Q385.05 28.70625 385.20624 29.45625Q385.3 29.95625 385.3 31.175L385.3 37.55L383.53436 37.55L383.53436 31.2375Q383.53436 30.159374 383.33124 29.628124Q383.1281 29.096874 382.59686 28.784374Q382.08124 28.471874 381.3781 28.471874Q380.2531 28.471874 379.4406 29.190624Q378.6281 29.89375 378.6281 31.878124L378.6281 37.55L376.8625 37.55ZM390.70624 35.971874L390.95624 37.534374Q390.22186 37.690624 389.6281 37.690624Q388.675 37.690624 388.14374 37.39375Q387.6281 37.08125 387.40936 36.596874Q387.1906 36.096874 387.1906 34.51875L387.1906 28.55L385.90936 28.55L385.90936 27.175L387.1906 27.175L387.1906 24.6125L388.9406 23.55L388.9406 27.175L390.70624 27.175L390.70624 28.55L388.9406 28.55L388.9406 34.6125Q388.9406 35.3625 389.03436 35.58125Q389.1281 35.784374 389.33124 35.925Q389.55 36.05 389.9406 36.05Q390.22186 36.05 390.70624 35.971874ZM392.8781 25.253124L392.8781 23.2375L394.64374 23.2375L394.64374 25.253124L392.8781 25.253124ZM392.8781 37.55L392.8781 27.175L394.64374 27.175L394.64374 37.55L392.8781 37.55ZM400.70624 35.971874L400.95624 37.534374Q400.22186 37.690624 399.6281 37.690624Q398.675 37.690624 398.14374 37.39375Q397.6281 37.08125 397.40936 36.596874Q397.1906 36.096874 397.1906 34.51875L397.1906 28.55L395.90936 28.55L395.90936 27.175L397.1906 27.175L397.1906 24.6125L398.9406 23.55L398.9406 27.175L400.70624 27.175L400.70624 28.55L398.9406 28.55L398.9406 34.6125Q398.9406 35.3625 399.03436 35.58125Q399.1281 35.784374 399.33124 35.925Q399.55 36.05 399.9406 36.05Q400.22186 36.05 400.70624 35.971874ZM402.78436 41.55L402.59686 39.89375Q403.175 40.05 403.59686 40.05Q404.1906 40.05 404.53436 39.846874Q404.89374 39.659374 405.1125 39.315624Q405.28436 39.05 405.65936 38.003124Q405.70624 37.846874 405.8156 37.565624L401.8781 27.175L403.76874 27.175L405.925 33.190624Q406.34686 34.33125 406.675 35.58125Q406.9875 34.378124 407.39374 33.221874L409.6125 27.175L411.3781 27.175L407.425 37.721874Q406.8 39.440624 406.4406 40.08125Q405.97186 40.95625 405.3625 41.346874Q404.76874 41.753124 403.925 41.753124Q403.40936 41.753124 402.78436 41.55ZM416.15936 34.01875Q416.14374 33.675 416.14374 33.503124Q416.14374 32.45625 416.4406 31.70625Q416.65936 31.14375 417.14374 30.565624Q417.4875 30.14375 418.39374 29.346874Q419.3156 28.534374 419.58124 28.065624Q419.8625 27.58125 419.8625 27.01875Q419.8625 25.9875 419.05 25.221874Q418.2531 24.440624 417.09686 24.440624Q415.97186 24.440624 415.22186 25.14375Q414.47186 25.846874 414.2375 27.33125L412.425 27.1125Q412.675 25.1125 413.8781 24.05Q415.08124 22.9875 417.0656 22.9875Q419.175 22.9875 420.425 24.128124Q421.675 25.26875 421.675 26.89375Q421.675 27.83125 421.22186 28.628124Q420.78436 29.409374 419.5031 30.55Q418.64374 31.315624 418.3781 31.675Q418.1281 32.034374 417.9875 32.503124Q417.8625 32.971874 417.84686 34.01875L416.15936 34.01875ZM416.05 37.55L416.05 35.55L418.05 35.55L418.05 37.55L416.05 37.55Z" fill-rule="nonzero"/></svg>