<svg version="1.1" viewBox="0.0 0.0 1021.0 185.0" fill="none" stroke="none" stroke-linecap="square" stroke-miterlimit="10" width="1021" height="185" xmlns:xlink="http://www.w3.org/1999/xlink" xmlns="http://www.w3.org/2000/svg"><path fill="#ffffff" d="M0 0L1021.0 0L1021.0 185.0L0 185.0L0 0Z" fill-rule="nonzero"/><path stroke="#cccccc" stroke-width="1.0" stroke-linecap="butt" d="M36.5 46.5L36.5 117.5" fill-rule="nonzero"/><path stroke="#cccccc" stroke-width="1.0" stroke-linecap="butt" d="M229.5 46.5L229.5 117.5" fill-rule="nonzero"/><path stroke="#cccccc" stroke-width="1.0" stroke-linecap="butt" d="M423.5 46.5L423.5 117.5" fill-rule="nonzero"/><path stroke="#cccccc" stroke-width="1.0" stroke-linecap="butt" d="M617.5 46.5L617.5 117.5" fill-rule="nonzero"/><path stroke="#cccccc" stroke-width="1.0" stroke-linecap="butt" d="M811.5 46.5L811.5 117.5" fill-rule="nonzero"/><path stroke="#cccccc" stroke-width="1.0" stroke-linecap="butt" d="M1004.5 46.5L1004.5 117.5" fill-rule="nonzero"/><path stroke="#000000" stroke-width="1.0" stroke-linecap="butt" stroke-opacity="0.0" d="M133.5 46.5L133.5 117.5" fill-rule="nonzero"/><path stroke="#000000" stroke-width="1.0" stroke-linecap="butt" stroke-opacity="0.0" d="M326.5 46.5L326.5 117.5" fill-rule="nonzero"/><path stroke="#000000" stroke-width="1.0" stroke-linecap="butt" stroke-opacity="0.0" d="M520.5 46.5L520.5 117.5" fill-rule="nonzero"/><path stroke="#000000" stroke-width="1.0" stroke-linecap="butt" stroke-opacity="0.0" d="M714.5 46.5L714.5 117.5" fill-rule="nonzero"/><path stroke="#000000" stroke-width="1.0" stroke-linecap="butt" stroke-opacity="0.0" d="M907.5 46.5L907.5 117.5" fill-rule="nonzero"/><path stroke="#000000" stroke-width="1.0" stroke-linecap="butt" stroke-opacity="0.0" d="M36.5 109.5L1011.5 109.5" fill-rule="nonzero"/><path stroke="#000000" stroke-width="1.0" stroke-linecap="butt" stroke-opacity="0.0" d="M36.5 101.5L1011.5 101.5" fill-rule="nonzero"/><path stroke="#000000" stroke-width="1.0" stroke-linecap="butt" stroke-opacity="0.0" d="M36.5 86.5L1011.5 86.5" fill-rule="nonzero"/><path stroke="#000000" stroke-width="1.0" stroke-linecap="butt" stroke-opacity="0.0" d="M36.5 78.5L1011.5 78.5" fill-rule="nonzero"/><path stroke="#000000" stroke-width="1.0" stroke-linecap="butt" stroke-opacity="0.0" d="M36.5 62.5L1011.5 62.5" fill-rule="nonzero"/><path stroke="#000000" stroke-width="1.0" stroke-linecap="butt" stroke-opacity="0.0" d="M36.5 54.5L1011.5 54.5" fill-rule="nonzero"/><path stroke="#000000" stroke-width="1.0" stroke-linecap="butt" d="M1011.5 117.5L36.5 117.5" fill-rule="nonzero"/><clipPath id="id_0"><path d="M36.25 46.416668L1011.75 46.416668L1011.75 117.75L36.25 117.75L36.25 46.416668Z" clip-rule="nonzero"/></clipPath><path fill="#00274c" clip-path="url(#id_0)" d="M807.9079 90.790245L811.0899 92.84722L814.27185 90.790245L812.2149 93.97222L814.27185 97.154205L811.0899 95.09722L807.9079 97.154205L809.9649 93.97222Z" fill-rule="nonzero"/><path fill="#00274c" clip-path="url(#id_0)" d="M971.59283 90.790245L974.77484 92.84722L977.9568 90.790245L975.89984 93.97222L977.9568 97.154205L974.77484 95.09722L971.59283 97.154205L973.64984 93.97222Z" fill-rule="nonzero"/><path fill="#00274c" clip-path="url(#id_0)" d="M517.34296 90.790245L520.52496 92.84722L523.7069 90.790245L521.64996 93.97222L523.7069 97.154205L520.52496 95.09722L517.34296 97.154205L519.39996 93.97222Z" fill-rule="nonzero"/><path fill="#00274c" clip-path="url(#id_0)" d="M226.778 90.790245L229.95998 92.84722L233.14195 90.790245L231.08498 93.97222L233.14195 97.154205L229.95998 95.09722L226.778 97.154205L228.83498 93.97222Z" fill-rule="nonzero"/><path fill="#00274c" clip-path="url(#id_0)" d="M895.0774 90.790245L898.2594 92.84722L901.44135 90.790245L899.3844 93.97222L901.44135 97.154205L898.2594 95.09722L895.0774 97.154205L897.1344 93.97222Z" fill-rule="nonzero"/><path fill="#00274c" clip-path="url(#id_0)" d="M1001.6179 90.790245L1004.79987 92.84722L1007.9819 90.790245L1005.92487 93.97222L1007.9819 97.154205L1004.79987 95.09722L1001.6179 97.154205L1003.67487 93.97222Z" fill-rule="nonzero"/><path fill="#00274c" clip-path="url(#id_0)" d="M488.28647 90.790245L491.46844 92.84722L494.65042 90.790245L492.59344 93.97222L494.65042 97.154205L491.46844 95.09722L488.28647 97.154205L490.34344 93.97222Z" fill-rule="nonzero"/><path fill="#00274c" clip-path="url(#id_0)" d="M652.93994 90.790245L656.12195 92.84722L659.3039 90.790245L657.24695 93.97222L659.3039 97.154205L656.12195 95.09722L652.93994 97.154205L654.99695 93.97222Z" fill-rule="nonzero"/><path fill="#00274c" clip-path="url(#id_0)" d="M904.7629 67.01247L907.9449 69.06944L911.1269 67.01247L909.0699 70.19444L911.1269 73.37643L907.9449 71.31944L904.7629 73.37643L906.8199 70.19444Z" fill-rule="nonzero"/><path fill="#00274c" clip-path="url(#id_0)" d="M856.3354 90.790245L859.5174 92.84722L862.6994 90.790245L860.6424 93.97222L862.6994 97.154205L859.5174 95.09722L856.3354 97.154205L858.3924 93.97222Z" fill-rule="nonzero"/><path fill="#00274c" clip-path="url(#id_0)" d="M772.0716 90.790245L775.25354 92.84722L778.43555 90.790245L776.37854 93.97222L778.43555 97.154205L775.25354 95.09722L772.0716 97.154205L774.12854 93.97222Z" fill-rule="nonzero"/><path fill="#00274c" clip-path="url(#id_0)" d="M517.34296 78.90135L520.52496 80.958336L523.7069 78.90135L521.64996 82.083336L523.7069 85.26531L520.52496 83.208336L517.34296 85.26531L519.39996 82.083336Z" fill-rule="nonzero"/><path fill="#00274c" clip-path="url(#id_0)" d="M1001.6179 67.01247L1004.79987 69.06944L1007.9819 67.01247L1005.92487 70.19444L1007.9819 73.37643L1004.79987 71.31944L1001.6179 73.37643L1003.67487 70.19444Z" fill-rule="nonzero"/><path fill="#00274c" clip-path="url(#id_0)" d="M866.02094 90.790245L869.2029 92.84722L872.3849 90.790245L870.3279 93.97222L872.3849 97.154205L869.2029 95.09722L866.02094 97.154205L868.0779 93.97222Z" fill-rule="nonzero"/><path fill="#00274c" clip-path="url(#id_0)" d="M633.569 90.790245L636.7509 92.84722L639.9329 90.790245L637.8759 93.97222L639.9329 97.154205L636.7509 95.09722L633.569 97.154205L635.6259 93.97222Z" fill-rule="nonzero"/><path fill="#00274c" clip-path="url(#id_0)" d="M604.51245 90.790245L607.6944 92.84722L610.8764 90.790245L608.8194 93.97222L610.8764 97.154205L607.6944 95.09722L604.51245 97.154205L606.5694 93.97222Z" fill-rule="nonzero"/><path fill="#00274c" clip-path="url(#id_0)" d="M972.5614 67.01247L975.74335 69.06944L978.92535 67.01247L976.86835 70.19444L978.92535 73.37643L975.74335 71.31944L972.5614 73.37643L974.61835 70.19444Z" fill-rule="nonzero"/><path fill="#00274c" clip-path="url(#id_0)" d="M885.3919 90.790245L888.5739 92.84722L891.75586 90.790245L889.6989 93.97222L891.75586 97.154205L888.5739 95.09722L885.3919 97.154205L887.4489 93.97222Z" fill-rule="nonzero"/><path fill="#00274c" clip-path="url(#id_0)" d="M1001.6179 78.90135L1004.79987 80.958336L1007.9819 78.90135L1005.92487 82.083336L1007.9819 85.26531L1004.79987 83.208336L1001.6179 85.26531L1003.67487 82.083336Z" fill-rule="nonzero"/><path fill="#00274c" clip-path="url(#id_0)" d="M856.3354 78.90135L859.5174 80.958336L862.6994 78.90135L860.6424 82.083336L862.6994 85.26531L859.5174 83.208336L856.3354 85.26531L858.3924 82.083336Z" fill-rule="nonzero"/><path fill="#00274c" clip-path="url(#id_0)" d="M817.59344 90.790245L820.7754 92.84722L823.9574 90.790245L821.9004 93.97222L823.9574 97.154205L820.7754 95.09722L817.59344 97.154205L819.6504 93.97222Z" fill-rule="nonzero"/><path fill="#00274c" clip-path="url(#id_0)" d="M614.19794 90.790245L617.37994 92.84722L620.5619 90.790245L618.50494 93.97222L620.5619 97.154205L617.37994 95.09722L614.19794 97.154205L616.25494 93.97222Z" fill-rule="nonzero"/><path fill="#00274c" clip-path="url(#id_0)" d="M904.7629 78.90135L907.9449 80.958336L911.1269 78.90135L909.0699 82.083336L911.1269 85.26531L907.9449 83.208336L904.7629 85.26531L906.8199 82.083336Z" fill-rule="nonzero"/><path fill="#00274c" clip-path="url(#id_0)" d="M388.52582 90.790245L391.7078 92.84722L394.88977 90.790245L392.8328 93.97222L394.88977 97.154205L391.7078 95.09722L388.52582 97.154205L390.5828 93.97222Z" fill-rule="nonzero"/><path fill="#00274c" clip-path="url(#id_0)" d="M897.0145 78.90135L900.1965 80.958336L903.3785 78.90135L901.3215 82.083336L903.3785 85.26531L900.1965 83.208336L897.0145 85.26531L899.0715 82.083336Z" fill-rule="nonzero"/><path fill="#00274c" clip-path="url(#id_0)" d="M943.5049 90.790245L946.6869 92.84722L949.86884 90.790245L947.8119 93.97222L949.86884 97.154205L946.6869 95.09722L943.5049 97.154205L945.5619 93.97222Z" fill-rule="nonzero"/><path fill="#00274c" clip-path="url(#id_0)" d="M662.6254 90.790245L665.80743 92.84722L668.9894 90.790245L666.93243 93.97222L668.9894 97.154205L665.80743 95.09722L662.6254 97.154205L664.68243 93.97222Z" fill-rule="nonzero"/><path fill="#00274c" clip-path="url(#id_0)" d="M323.633 90.790245L326.81497 92.84722L329.99695 90.790245L327.93997 93.97222L329.99695 97.154205L326.81497 95.09722L323.633 97.154205L325.68997 93.97222Z" fill-rule="nonzero"/><path fill="#00274c" clip-path="url(#id_0)" d="M769.1659 78.90135L772.3479 80.958336L775.5299 78.90135L773.4729 82.083336L775.5299 85.26531L772.3479 83.208336L769.1659 85.26531L771.2229 82.083336Z" fill-rule="nonzero"/><path fill="#00274c" clip-path="url(#id_0)" d="M556.08496 90.790245L559.2669 92.84722L562.4489 90.790245L560.3919 93.97222L562.4489 97.154205L559.2669 95.09722L556.08496 97.154205L558.1419 93.97222Z" fill-rule="nonzero"/><path fill="#00274c" clip-path="url(#id_0)" d="M962.8759 90.790245L966.05786 92.84722L969.23987 90.790245L967.18286 93.97222L969.23987 97.154205L966.05786 95.09722L962.8759 97.154205L964.93286 93.97222Z" fill-rule="nonzero"/><path fill="#00274c" clip-path="url(#id_0)" d="M904.7629 90.790245L907.9449 92.84722L911.1269 90.790245L909.0699 93.97222L911.1269 97.154205L907.9449 95.09722L904.7629 97.154205L906.8199 93.97222Z" fill-rule="nonzero"/><path fill="#00274c" clip-path="url(#id_0)" d="M950.2847 90.790245L953.46674 92.84722L956.6487 90.790245L954.59174 93.97222L956.6487 97.154205L953.46674 95.09722L950.2847 97.154205L952.34174 93.97222Z" fill-rule="nonzero"/><path stroke="#000000" stroke-width="1.0" stroke-linecap="butt" d="M133.5 120.5L133.5 114.5" fill-rule="nonzero"/><path stroke="#000000" stroke-width="1.0" stroke-linecap="butt" d="M326.5 120.5L326.5 114.5" fill-rule="nonzero"/><path stroke="#000000" stroke-width="1.0" stroke-linecap="butt" d="M520.5 120.5L520.5 114.5" fill-rule="nonzero"/><path stroke="#000000" stroke-width="1.0" stroke-linecap="butt" d="M714.5 120.5L714.5 114.5" fill-rule="nonzero"/><path stroke="#000000" stroke-width="1.0" stroke-linecap="butt" d="M907.5 120.5L907.5 114.5" fill-rule="nonzero"/><path stroke="#000000" stroke-width="1.0" stroke-linecap="butt" d="M36.5 123.5L36.5 111.5" fill-rule="nonzero"/><path stroke="#000000" stroke-width="1.0" stroke-linecap="butt" d="M229.5 123.5L229.5 111.5" fill-rule="nonzero"/><path stroke="#000000" stroke-width="1.0" stroke-linecap="butt" d="M423.5 123.5L423.5 111.5" fill-rule="nonzero"/><path stroke="#000000" stroke-width="1.0" stroke-linecap="butt" d="M617.5 123.5L617.5 111.5" fill-rule="nonzero"/><path stroke="#000000" stroke-width="1.0" stroke-linecap="butt" d="M811.5 123.5L811.5 111.5" fill-rule="nonzero"/><path stroke="#000000" stroke-width="1.0" stroke-linecap="butt" d="M1004.5 123.5L1004.5 111.5" fill-rule="nonzero"/><path fill="#000000" d="M516.9531 169.375L516.9531 168.375L520.5781 168.35938L520.5781 171.54688Q519.75 172.21875 518.8594 172.5625Q517.96875 172.89062 517.03125 172.89062Q515.7656 172.89062 514.71875 172.35938Q513.6875 171.8125 513.15625 170.79688Q512.6406 169.76562 512.6406 168.5Q512.6406 167.23438 513.15625 166.15625Q513.6875 165.0625 514.6719 164.54688Q515.65625 164.01562 516.9375 164.01562Q517.875 164.01562 518.625 164.3125Q519.375 164.60938 519.7969 165.15625Q520.2344 165.6875 520.4531 166.5625L519.4375 166.84375Q519.2344 166.1875 518.9375 165.8125Q518.65625 165.4375 518.125 165.21875Q517.59375 164.98438 516.9531 164.98438Q516.1719 164.98438 515.59375 165.21875Q515.03125 165.45312 514.6719 165.84375Q514.3281 166.23438 514.1406 166.70312Q513.8125 167.5 513.8125 168.42188Q513.8125 169.57812 514.2031 170.35938Q514.6094 171.125 515.3594 171.5Q516.1094 171.875 516.96875 171.875Q517.7031 171.875 518.40625 171.59375Q519.1094 171.29688 519.46875 170.98438L519.46875 169.375L516.9531 169.375ZM521.9219 172.75L521.9219 164.15625L525.1719 164.15625Q526.0156 164.15625 526.46875 164.23438Q527.1094 164.34375 527.53125 164.64062Q527.96875 164.9375 528.21875 165.46875Q528.4844 166.0 528.4844 166.64062Q528.4844 167.73438 527.78125 168.5Q527.09375 169.25 525.2656 169.25L523.0625 169.25L523.0625 172.75L521.9219 172.75ZM523.0625 168.25L525.28125 168.25Q526.3906 168.25 526.84375 167.84375Q527.3125 167.42188 527.3125 166.67188Q527.3125 166.14062 527.03125 165.76562Q526.7656 165.375 526.3281 165.25Q526.03125 165.17188 525.2656 165.17188L523.0625 165.17188L523.0625 168.25ZM528.9844 172.75L532.28125 164.15625L533.5 164.15625L537.0156 172.75L535.7344 172.75L534.71875 170.14062L531.1406 170.14062L530.1875 172.75L528.9844 172.75ZM531.46875 169.21875L534.375 169.21875L533.4844 166.84375Q533.0625 165.76562 532.875 165.0625Q532.7031 165.89062 532.40625 166.70312L531.46875 169.21875Z" fill-rule="nonzero"/><path fill="#ffffff" d="M23.75 117.515625Q23.75 115.984375 24.0625 115.0625Q24.375 114.125 24.984375 113.625Q25.609375 113.125 26.546875 113.125Q27.234375 113.125 27.75 113.40625Q28.28125 113.6875 28.625 114.21875Q28.96875 114.734375 29.15625 115.484375Q29.34375 116.234375 29.34375 117.515625Q29.34375 119.03125 29.03125 119.953125Q28.734375 120.875 28.109375 121.390625Q27.5 121.890625 26.546875 121.890625Q25.3125 121.890625 24.59375 121.0Q23.75 119.9375 23.75 117.515625ZM24.828125 117.515625Q24.828125 119.625 25.328125 120.328125Q25.828125 121.03125 26.546875 121.03125Q27.28125 121.03125 27.765625 120.328125Q28.265625 119.625 28.265625 117.515625Q28.265625 115.390625 27.765625 114.703125Q27.28125 114.0 26.53125 114.0Q25.8125 114.0 25.375 114.609375Q24.828125 115.390625 24.828125 117.515625Z" fill-rule="nonzero"/><path fill="#ffffff" d="M13.75 93.73785Q13.75 92.2066 14.0625 91.28472Q14.375 90.34722 14.984375 89.84722Q15.609375 89.34722 16.546875 89.34722Q17.234375 89.34722 17.75 89.62847Q18.28125 89.90972 18.625 90.44097Q18.96875 90.9566 19.15625 91.7066Q19.34375 92.4566 19.34375 93.73785Q19.34375 95.25347 19.03125 96.17535Q18.734375 97.09722 18.109375 97.61285Q17.5 98.11285 16.546875 98.11285Q15.3125 98.11285 14.59375 97.22222Q13.75 96.15972 13.75 93.73785ZM14.828125 93.73785Q14.828125 95.84722 15.328125 96.55035Q15.828125 97.25347 16.546875 97.25347Q17.28125 97.25347 17.765625 96.55035Q18.265625 95.84722 18.265625 93.73785Q18.265625 91.61285 17.765625 90.92535Q17.28125 90.22222 16.53125 90.22222Q15.8125 90.22222 15.375 90.8316Q14.828125 91.61285 14.828125 93.73785ZM21.34375 97.97222L21.34375 96.7691L22.546875 96.7691L22.546875 97.97222L21.34375 97.97222ZM23.75 95.72222L24.859375 95.62847Q24.984375 96.44097 25.421875 96.84722Q25.875 97.25347 26.515625 97.25347Q27.265625 97.25347 27.796875 96.67535Q28.328125 96.09722 28.328125 95.15972Q28.328125 94.25347 27.8125 93.73785Q27.3125 93.2066 26.484375 93.2066Q25.984375 93.2066 25.5625 93.44097Q25.15625 93.67535 24.921875 94.03472L23.9375 93.90972L24.765625 89.50347L29.046875 89.50347L29.046875 90.50347L25.609375 90.50347L25.15625 92.81597Q25.921875 92.2691 26.765625 92.2691Q27.890625 92.2691 28.65625 93.05035Q29.4375 93.8316 29.4375 95.06597Q29.4375 96.22222 28.765625 97.0816Q27.9375 98.11285 26.515625 98.11285Q25.34375 98.11285 24.59375 97.4566Q23.859375 96.80035 23.75 95.72222Z" fill-rule="nonzero"/><path fill="#ffffff" d="M27.71875 74.19444L26.671875 74.19444L26.671875 67.47569Q26.28125 67.83507 25.65625 68.21007Q25.046875 68.56944 24.5625 68.74132L24.5625 67.72569Q25.4375 67.30382 26.09375 66.72569Q26.765625 66.13194 27.046875 65.56944L27.71875 65.56944L27.71875 74.19444Z" fill-rule="nonzero"/><path fill="#ffffff" d="M17.71875 50.416668L16.671875 50.416668L16.671875 43.697918Q16.28125 44.057293 15.65625 44.432293Q15.046875 44.791668 14.5625 44.963543L14.5625 43.947918Q15.4375 43.526043 16.09375 42.947918Q16.765625 42.354168 17.046875 41.791668L17.71875 41.791668L17.71875 50.416668ZM21.34375 50.416668L21.34375 49.213543L22.546875 49.213543L22.546875 50.416668L21.34375 50.416668ZM23.75 48.166668L24.859375 48.072918Q24.984375 48.885418 25.421875 49.291668Q25.875 49.697918 26.515625 49.697918Q27.265625 49.697918 27.796875 49.119793Q28.328125 48.541668 28.328125 47.604168Q28.328125 46.697918 27.8125 46.182293Q27.3125 45.651043 26.484375 45.651043Q25.984375 45.651043 25.5625 45.885418Q25.15625 46.119793 24.921875 46.479168L23.9375 46.354168L24.765625 41.947918L29.046875 41.947918L29.046875 42.947918L25.609375 42.947918L25.15625 45.260418Q25.921875 44.713543 26.765625 44.713543Q27.890625 44.713543 28.65625 45.494793Q29.4375 46.276043 29.4375 47.510418Q29.4375 48.666668 28.765625 49.526043Q27.9375 50.557293 26.515625 50.557293Q25.34375 50.557293 24.59375 49.901043Q23.859375 49.244793 23.75 48.166668Z" fill-rule="nonzero"/><path fill="#000000" d="M28.25 138.48438L29.3125 138.34375Q29.484375 139.23438 29.921875 139.64062Q30.359375 140.03125 30.984375 140.03125Q31.734375 140.03125 32.25 139.51562Q32.765625 139.0 32.765625 138.23438Q32.765625 137.51562 32.28125 137.04688Q31.8125 136.5625 31.078125 136.5625Q30.78125 136.5625 30.328125 136.6875L30.453125 135.75Q30.5625 135.76562 30.625 135.76562Q31.296875 135.76562 31.828125 135.42188Q32.375 135.0625 32.375 134.32812Q32.375 133.75 31.984375 133.375Q31.59375 132.98438 30.96875 132.98438Q30.359375 132.98438 29.9375 133.375Q29.53125 133.76562 29.421875 134.53125L28.359375 134.34375Q28.546875 133.29688 29.234375 132.71875Q29.921875 132.125 30.9375 132.125Q31.640625 132.125 32.234375 132.4375Q32.828125 132.73438 33.140625 133.25Q33.453125 133.76562 33.453125 134.35938Q33.453125 134.90625 33.15625 135.375Q32.859375 135.82812 32.28125 136.09375Q33.03125 136.26562 33.453125 136.82812Q33.875 137.375 33.875 138.21875Q33.875 139.34375 33.046875 140.125Q32.234375 140.90625 30.984375 140.90625Q29.859375 140.90625 29.109375 140.23438Q28.359375 139.54688 28.25 138.48438ZM35.84375 140.75L35.84375 139.54688L37.046875 139.54688L37.046875 140.75L35.84375 140.75ZM38.25 136.51562Q38.25 134.98438 38.5625 134.0625Q38.875 133.125 39.484375 132.625Q40.109375 132.125 41.046875 132.125Q41.734375 132.125 42.25 132.40625Q42.78125 132.6875 43.125 133.21875Q43.46875 133.73438 43.65625 134.48438Q43.84375 135.23438 43.84375 136.51562Q43.84375 138.03125 43.53125 138.95312Q43.234375 139.875 42.609375 140.39062Q42.0 140.89062 41.046875 140.89062Q39.8125 140.89062 39.09375 140.0Q38.25 138.9375 38.25 136.51562ZM39.328125 136.51562Q39.328125 138.625 39.828125 139.32812Q40.328125 140.03125 41.046875 140.03125Q41.78125 140.03125 42.265625 139.32812Q42.765625 138.625 42.765625 136.51562Q42.765625 134.39062 42.265625 133.70312Q41.78125 133.0 41.03125 133.0Q40.3125 133.0 39.875 133.60938Q39.328125 134.39062 39.328125 136.51562Z" fill-rule="nonzero"/><path fill="#000000" d="M221.95998 138.48438L223.02248 138.34375Q223.19435 139.23438 223.63185 139.64062Q224.06935 140.03125 224.69435 140.03125Q225.44435 140.03125 225.95998 139.51562Q226.4756 139.0 226.4756 138.23438Q226.4756 137.51562 225.99123 137.04688Q225.52248 136.5625 224.7881 136.5625Q224.49123 136.5625 224.0381 136.6875L224.1631 135.75Q224.27248 135.76562 224.33498 135.76562Q225.00685 135.76562 225.5381 135.42188Q226.08498 135.0625 226.08498 134.32812Q226.08498 133.75 225.69435 133.375Q225.30373 132.98438 224.67873 132.98438Q224.06935 132.98438 223.64748 133.375Q223.24123 133.76562 223.13185 134.53125L222.06935 134.34375Q222.25685 133.29688 222.94435 132.71875Q223.63185 132.125 224.64748 132.125Q225.3506 132.125 225.94435 132.4375Q226.5381 132.73438 226.8506 133.25Q227.1631 133.76562 227.1631 134.35938Q227.1631 134.90625 226.86623 135.375Q226.56935 135.82812 225.99123 136.09375Q226.74123 136.26562 227.1631 136.82812Q227.58498 137.375 227.58498 138.21875Q227.58498 139.34375 226.75685 140.125Q225.94435 140.90625 224.69435 140.90625Q223.56935 140.90625 222.81935 140.23438Q222.06935 139.54688 221.95998 138.48438ZM229.55373 140.75L229.55373 139.54688L230.75685 139.54688L230.75685 140.75L229.55373 140.75ZM237.50685 139.73438L237.50685 140.75L231.81935 140.75Q231.81935 140.375 231.94435 140.01562Q232.1631 139.4375 232.63185 138.875Q233.11623 138.3125 234.02248 137.57812Q235.42873 136.42188 235.9131 135.75Q236.4131 135.07812 236.4131 134.48438Q236.4131 133.85938 235.95998 133.4375Q235.50685 133.0 234.7881 133.0Q234.02248 133.0 233.56935 133.45312Q233.11623 133.90625 233.1006 134.71875L232.02248 134.60938Q232.13185 133.39062 232.8506 132.76562Q233.58498 132.125 234.81935 132.125Q236.05373 132.125 236.77248 132.8125Q237.49123 133.5 237.49123 134.51562Q237.49123 135.03125 237.27248 135.53125Q237.06935 136.01562 236.56935 136.57812Q236.08498 137.125 234.95998 138.07812Q234.00685 138.875 233.7256 139.17188Q233.45998 139.45312 233.2881 139.73438L237.50685 139.73438Z" fill-rule="nonzero"/><path fill="#000000" d="M415.66995 138.48438L416.73245 138.34375Q416.90433 139.23438 417.34183 139.64062Q417.77933 140.03125 418.40433 140.03125Q419.15433 140.03125 419.66995 139.51562Q420.18558 139.0 420.18558 138.23438Q420.18558 137.51562 419.7012 137.04688Q419.23245 136.5625 418.49808 136.5625Q418.2012 136.5625 417.74808 136.6875L417.87308 135.75Q417.98245 135.76562 418.04495 135.76562Q418.71683 135.76562 419.24808 135.42188Q419.79495 135.0625 419.79495 134.32812Q419.79495 133.75 419.40433 133.375Q419.0137 132.98438 418.3887 132.98438Q417.77933 132.98438 417.35745 133.375Q416.9512 133.76562 416.84183 134.53125L415.77933 134.34375Q415.96683 133.29688 416.65433 132.71875Q417.34183 132.125 418.35745 132.125Q419.06058 132.125 419.65433 132.4375Q420.24808 132.73438 420.56058 133.25Q420.87308 133.76562 420.87308 134.35938Q420.87308 134.90625 420.5762 135.375Q420.27933 135.82812 419.7012 136.09375Q420.4512 136.26562 420.87308 136.82812Q421.29495 137.375 421.29495 138.21875Q421.29495 139.34375 420.46683 140.125Q419.65433 140.90625 418.40433 140.90625Q417.27933 140.90625 416.52933 140.23438Q415.77933 139.54688 415.66995 138.48438ZM423.2637 140.75L423.2637 139.54688L424.46683 139.54688L424.46683 140.75L423.2637 140.75ZM429.04495 140.75L429.04495 138.6875L425.3262 138.6875L425.3262 137.71875L429.24808 132.15625L430.10745 132.15625L430.10745 137.71875L431.2637 137.71875L431.2637 138.6875L430.10745 138.6875L430.10745 140.75L429.04495 140.75ZM429.04495 137.71875L429.04495 133.85938L426.35745 137.71875L429.04495 137.71875Z" fill-rule="nonzero"/><path fill="#000000" d="M609.37994 138.48438L610.44244 138.34375Q610.6143 139.23438 611.0518 139.64062Q611.4893 140.03125 612.1143 140.03125Q612.8643 140.03125 613.37994 139.51562Q613.89557 139.0 613.89557 138.23438Q613.89557 137.51562 613.4112 137.04688Q612.94244 136.5625 612.20807 136.5625Q611.9112 136.5625 611.45807 136.6875L611.58307 135.75Q611.69244 135.76562 611.75494 135.76562Q612.4268 135.76562 612.95807 135.42188Q613.50494 135.0625 613.50494 134.32812Q613.50494 133.75 613.1143 133.375Q612.7237 132.98438 612.0987 132.98438Q611.4893 132.98438 611.06744 133.375Q610.6612 133.76562 610.5518 134.53125L609.4893 134.34375Q609.6768 133.29688 610.3643 132.71875Q611.0518 132.125 612.06744 132.125Q612.77057 132.125 613.3643 132.4375Q613.95807 132.73438 614.27057 133.25Q614.58307 133.76562 614.58307 134.35938Q614.58307 134.90625 614.2862 135.375Q613.9893 135.82812 613.4112 136.09375Q614.1612 136.26562 614.58307 136.82812Q615.00494 137.375 615.00494 138.21875Q615.00494 139.34375 614.1768 140.125Q613.3643 140.90625 612.1143 140.90625Q610.9893 140.90625 610.2393 140.23438Q609.4893 139.54688 609.37994 138.48438ZM616.9737 140.75L616.9737 139.54688L618.1768 139.54688L618.1768 140.75L616.9737 140.75ZM624.8487 134.26562L623.8018 134.34375Q623.6612 133.71875 623.4112 133.4375Q622.9737 132.98438 622.3487 132.98438Q621.8487 132.98438 621.45807 133.26562Q620.9737 133.64062 620.6768 134.34375Q620.39557 135.03125 620.37994 136.3125Q620.75494 135.73438 621.3018 135.45312Q621.8643 135.17188 622.4737 135.17188Q623.52057 135.17188 624.25494 135.95312Q625.00494 136.73438 625.00494 137.95312Q625.00494 138.76562 624.64557 139.46875Q624.3018 140.15625 623.69244 140.53125Q623.08307 140.89062 622.31744 140.89062Q620.9893 140.89062 620.1612 139.92188Q619.33307 138.95312 619.33307 136.73438Q619.33307 134.23438 620.25494 133.10938Q621.0518 132.125 622.4112 132.125Q623.4268 132.125 624.06744 132.70312Q624.7237 133.26562 624.8487 134.26562ZM620.5518 137.96875Q620.5518 138.51562 620.77057 139.01562Q621.00494 139.5 621.4112 139.76562Q621.83307 140.03125 622.3018 140.03125Q622.95807 140.03125 623.44244 139.5Q623.9268 138.95312 623.9268 138.03125Q623.9268 137.14062 623.44244 136.625Q622.9737 136.10938 622.25494 136.10938Q621.5362 136.10938 621.0362 136.625Q620.5518 137.14062 620.5518 137.96875Z" fill-rule="nonzero"/><path fill="#000000" d="M803.0899 138.48438L804.1524 138.34375Q804.3243 139.23438 804.7618 139.64062Q805.1993 140.03125 805.8243 140.03125Q806.5743 140.03125 807.0899 139.51562Q807.6055 139.0 807.6055 138.23438Q807.6055 137.51562 807.12115 137.04688Q806.6524 136.5625 805.918 136.5625Q805.62115 136.5625 805.168 136.6875L805.293 135.75Q805.4024 135.76562 805.4649 135.76562Q806.1368 135.76562 806.668 135.42188Q807.2149 135.0625 807.2149 134.32812Q807.2149 133.75 806.8243 133.375Q806.43365 132.98438 805.80865 132.98438Q805.1993 132.98438 804.7774 133.375Q804.37115 133.76562 804.2618 134.53125L803.1993 134.34375Q803.3868 133.29688 804.0743 132.71875Q804.7618 132.125 805.7774 132.125Q806.4805 132.125 807.0743 132.4375Q807.668 132.73438 807.9805 133.25Q808.293 133.76562 808.293 134.35938Q808.293 134.90625 807.99615 135.375Q807.6993 135.82812 807.12115 136.09375Q807.87115 136.26562 808.293 136.82812Q808.7149 137.375 808.7149 138.21875Q808.7149 139.34375 807.8868 140.125Q807.0743 140.90625 805.8243 140.90625Q804.6993 140.90625 803.9493 140.23438Q803.1993 139.54688 803.0899 138.48438ZM810.68365 140.75L810.68365 139.54688L811.8868 139.54688L811.8868 140.75L810.68365 140.75ZM814.7149 136.09375Q814.05865 135.84375 813.7305 135.40625Q813.418 134.95312 813.418 134.34375Q813.418 133.40625 814.0899 132.76562Q814.7774 132.125 815.8868 132.125Q817.0118 132.125 817.6993 132.78125Q818.3868 133.4375 818.3868 134.375Q818.3868 134.96875 818.0743 135.40625Q817.7618 135.84375 817.12115 136.09375Q817.918 136.34375 818.3243 136.92188Q818.7305 137.5 818.7305 138.29688Q818.7305 139.39062 817.9493 140.14062Q817.18365 140.89062 815.9024 140.89062Q814.6368 140.89062 813.8555 140.14062Q813.0743 139.39062 813.0743 138.26562Q813.0743 137.42188 813.49615 136.85938Q813.93365 136.29688 814.7149 136.09375ZM814.49615 134.29688Q814.49615 134.90625 814.8868 135.29688Q815.293 135.6875 815.918 135.6875Q816.5274 135.6875 816.918 135.3125Q817.30865 134.92188 817.30865 134.35938Q817.30865 133.78125 816.9024 133.39062Q816.49615 132.98438 815.9024 132.98438Q815.293 132.98438 814.8868 133.375Q814.49615 133.76562 814.49615 134.29688ZM814.168 138.26562Q814.168 138.71875 814.37115 139.14062Q814.5899 139.5625 815.0118 139.79688Q815.43365 140.03125 815.918 140.03125Q816.668 140.03125 817.1524 139.54688Q817.6524 139.0625 817.6524 138.3125Q817.6524 137.54688 817.1524 137.04688Q816.6524 136.54688 815.8868 136.54688Q815.1368 136.54688 814.6524 137.04688Q814.168 137.53125 814.168 138.26562Z" fill-rule="nonzero"/><path fill="#000000" d="M1000.17487 140.75L1000.17487 138.6875L996.4561 138.6875L996.4561 137.71875L1000.378 132.15625L1001.23737 132.15625L1001.23737 137.71875L1002.3936 137.71875L1002.3936 138.6875L1001.23737 138.6875L1001.23737 140.75L1000.17487 140.75ZM1000.17487 137.71875L1000.17487 133.85938L997.48737 137.71875L1000.17487 137.71875ZM1004.3936 140.75L1004.3936 139.54688L1005.59674 139.54688L1005.59674 140.75L1004.3936 140.75ZM1006.79987 136.51562Q1006.79987 134.98438 1007.11237 134.0625Q1007.42487 133.125 1008.03424 132.625Q1008.65924 132.125 1009.59674 132.125Q1010.28424 132.125 1010.79987 132.40625Q1011.3311 132.6875 1011.67487 133.21875Q1012.0186 133.73438 1012.2061 134.48438Q1012.3936 135.23438 1012.3936 136.51562Q1012.3936 138.03125 1012.0811 138.95312Q1011.78424 139.875 1011.15924 140.39062Q1010.54987 140.89062 1009.59674 140.89062Q1008.36237 140.89062 1007.6436 140.0Q1006.79987 138.9375 1006.79987 136.51562ZM1007.878 136.51562Q1007.878 138.625 1008.378 139.32812Q1008.878 140.03125 1009.59674 140.03125Q1010.3311 140.03125 1010.8155 139.32812Q1011.3155 138.625 1011.3155 136.51562Q1011.3155 134.39062 1010.8155 133.70312Q1010.3311 133.0 1009.5811 133.0Q1008.86237 133.0 1008.42487 133.60938Q1007.878 134.39062 1007.878 136.51562Z" fill-rule="nonzero"/><path fill="#757575" d="M427.06445 28.25L423.26758 13.9375L425.20508 13.9375L427.37695 23.3125Q427.73633 24.796875 427.98633 26.25Q428.5332 23.953125 428.62695 23.59375L431.36133 13.9375L433.64258 13.9375L435.68945 21.171875Q436.4707 23.875 436.81445 26.25Q437.08008 24.890625 437.51758 23.125L439.76758 13.9375L441.67383 13.9375L437.75195 28.25L435.92383 28.25L432.9082 17.34375Q432.51758 15.96875 432.45508 15.65625Q432.2207 16.640625 432.0332 17.34375L429.00195 28.25L427.06445 28.25ZM443.33008 28.25L443.33008 13.9375L445.0957 13.9375L445.0957 19.0625Q446.33008 17.640625 448.20508 17.640625Q449.3457 17.640625 450.18945 18.09375Q451.04883 18.546875 451.4082 19.359375Q451.7832 20.15625 451.7832 21.671875L451.7832 28.25L450.0332 28.25L450.0332 21.671875Q450.0332 20.359375 449.45508 19.765625Q448.87695 19.15625 447.8457 19.15625Q447.06445 19.15625 446.36133 19.5625Q445.67383 19.96875 445.37695 20.671875Q445.0957 21.359375 445.0957 22.578125L445.0957 28.25L443.33008 28.25ZM460.11133 26.96875Q459.12695 27.796875 458.2207 28.140625Q457.31445 28.484375 456.2832 28.484375Q454.58008 28.484375 453.6582 27.65625Q452.73633 26.8125 452.73633 25.515625Q452.73633 24.75 453.08008 24.125Q453.43945 23.5 454.00195 23.125Q454.56445 22.734375 455.26758 22.53125Q455.7832 22.40625 456.83008 22.265625Q458.95508 22.015625 459.95508 21.671875Q459.9707 21.3125 459.9707 21.203125Q459.9707 20.140625 459.4707 19.6875Q458.79883 19.09375 457.4707 19.09375Q456.2207 19.09375 455.62695 19.53125Q455.04883 19.96875 454.76758 21.078125L453.04883 20.84375Q453.2832 19.734375 453.81445 19.0625Q454.3457 18.375 455.36133 18.015625Q456.37695 17.640625 457.7207 17.640625Q459.04883 17.640625 459.87695 17.953125Q460.70508 18.265625 461.0957 18.75Q461.48633 19.21875 461.64258 19.9375Q461.73633 20.390625 461.73633 21.5625L461.73633 23.90625Q461.73633 26.359375 461.8457 27.015625Q461.95508 27.65625 462.29883 28.25L460.45508 28.25Q460.18945 27.703125 460.11133 26.96875ZM459.95508 23.046875Q459.00195 23.4375 457.08008 23.703125Q456.00195 23.859375 455.54883 24.0625Q455.11133 24.25 454.86133 24.625Q454.61133 25.0 454.61133 25.46875Q454.61133 26.171875 455.14258 26.640625Q455.67383 27.109375 456.70508 27.109375Q457.7207 27.109375 458.50195 26.671875Q459.29883 26.21875 459.67383 25.453125Q459.95508 24.84375 459.95508 23.6875L459.95508 23.046875ZM468.17383 26.671875L468.42383 28.234375Q467.68945 28.390625 467.0957 28.390625Q466.14258 28.390625 465.61133 28.09375Q465.0957 27.78125 464.87695 27.296875Q464.6582 26.796875 464.6582 25.21875L464.6582 19.25L463.37695 19.25L463.37695 17.875L464.6582 17.875L464.6582 15.3125L466.4082 14.25L466.4082 17.875L468.17383 17.875L468.17383 19.25L466.4082 19.25L466.4082 25.3125Q466.4082 26.0625 466.50195 26.28125Q466.5957 26.484375 466.79883 26.625Q467.01758 26.75 467.4082 26.75Q467.68945 26.75 468.17383 26.671875ZM476.3457 15.953125L476.3457 13.9375L478.11133 13.9375L478.11133 15.953125L476.3457 15.953125ZM476.3457 28.25L476.3457 17.875L478.11133 17.875L478.11133 28.25L476.3457 28.25ZM479.62695 25.15625L481.37695 24.875Q481.51758 25.921875 482.18945 26.484375Q482.86133 27.03125 484.06445 27.03125Q485.26758 27.03125 485.8457 26.546875Q486.43945 26.046875 486.43945 25.390625Q486.43945 24.796875 485.92383 24.453125Q485.56445 24.21875 484.12695 23.859375Q482.18945 23.359375 481.43945 23.015625Q480.70508 22.65625 480.31445 22.03125Q479.92383 21.390625 479.92383 20.625Q479.92383 19.9375 480.23633 19.34375Q480.56445 18.75 481.11133 18.359375Q481.51758 18.0625 482.2207 17.859375Q482.93945 17.640625 483.75195 17.640625Q484.9707 17.640625 485.89258 18.0Q486.81445 18.34375 487.25195 18.953125Q487.68945 19.546875 487.86133 20.546875L486.14258 20.78125Q486.01758 19.984375 485.45508 19.546875Q484.89258 19.09375 483.87695 19.09375Q482.6582 19.09375 482.14258 19.5Q481.62695 19.890625 481.62695 20.421875Q481.62695 20.765625 481.8457 21.046875Q482.04883 21.328125 482.51758 21.515625Q482.7832 21.609375 484.06445 21.953125Q485.93945 22.453125 486.67383 22.78125Q487.4082 23.09375 487.83008 23.703125Q488.25195 24.296875 488.25195 25.203125Q488.25195 26.078125 487.73633 26.859375Q487.2207 27.640625 486.25195 28.0625Q485.2832 28.484375 484.06445 28.484375Q482.04883 28.484375 480.98633 27.640625Q479.92383 26.796875 479.62695 25.15625ZM495.01758 28.5L499.17383 13.6875L500.58008 13.6875L496.43945 28.5L495.01758 28.5ZM510.25195 28.25L507.08008 17.875L508.89258 17.875L510.54883 23.859375L511.1582 26.09375Q511.20508 25.921875 511.68945 23.953125L513.3457 17.875L515.1582 17.875L516.7051 23.890625L517.2207 25.875L517.81445 23.875L519.5957 17.875L521.2988 17.875L518.06445 28.25L516.2363 28.25L514.5801 22.03125L514.18945 20.265625L512.0801 28.25L510.25195 28.25ZM530.1113 26.96875Q529.12695 27.796875 528.2207 28.140625Q527.31445 28.484375 526.2832 28.484375Q524.5801 28.484375 523.6582 27.65625Q522.7363 26.8125 522.7363 25.515625Q522.7363 24.75 523.0801 24.125Q523.43945 23.5 524.00195 23.125Q524.56445 22.734375 525.2676 22.53125Q525.7832 22.40625 526.8301 22.265625Q528.9551 22.015625 529.9551 21.671875Q529.9707 21.3125 529.9707 21.203125Q529.9707 20.140625 529.4707 19.6875Q528.7988 19.09375 527.4707 19.09375Q526.2207 19.09375 525.62695 19.53125Q525.0488 19.96875 524.7676 21.078125L523.0488 20.84375Q523.2832 19.734375 523.81445 19.0625Q524.3457 18.375 525.3613 18.015625Q526.37695 17.640625 527.7207 17.640625Q529.0488 17.640625 529.87695 17.953125Q530.7051 18.265625 531.0957 18.75Q531.4863 19.21875 531.6426 19.9375Q531.7363 20.390625 531.7363 21.5625L531.7363 23.90625Q531.7363 26.359375 531.8457 27.015625Q531.9551 27.65625 532.2988 28.25L530.4551 28.25Q530.18945 27.703125 530.1113 26.96875ZM529.9551 23.046875Q529.00195 23.4375 527.0801 23.703125Q526.00195 23.859375 525.5488 24.0625Q525.1113 24.25 524.8613 24.625Q524.6113 25.0 524.6113 25.46875Q524.6113 26.171875 525.1426 26.640625Q525.6738 27.109375 526.7051 27.109375Q527.7207 27.109375 528.50195 26.671875Q529.2988 26.21875 529.6738 25.453125Q529.9551 24.84375 529.9551 23.6875L529.9551 23.046875ZM533.62695 25.15625L535.37695 24.875Q535.5176 25.921875 536.18945 26.484375Q536.8613 27.03125 538.06445 27.03125Q539.2676 27.03125 539.8457 26.546875Q540.43945 26.046875 540.43945 25.390625Q540.43945 24.796875 539.9238 24.453125Q539.56445 24.21875 538.12695 23.859375Q536.18945 23.359375 535.43945 23.015625Q534.7051 22.65625 534.31445 22.03125Q533.9238 21.390625 533.9238 20.625Q533.9238 19.9375 534.2363 19.34375Q534.56445 18.75 535.1113 18.359375Q535.5176 18.0625 536.2207 17.859375Q536.93945 17.640625 537.75195 17.640625Q538.9707 17.640625 539.8926 18.0Q540.81445 18.34375 541.25195 18.953125Q541.68945 19.546875 541.8613 20.546875L540.1426 20.78125Q540.0176 19.984375 539.4551 19.546875Q538.8926 19.09375 537.87695 19.09375Q536.6582 19.09375 536.1426 19.5Q535.62695 19.890625 535.62695 20.421875Q535.62695 20.765625 535.8457 21.046875Q536.0488 21.328125 536.5176 21.515625Q536.7832 21.609375 538.06445 21.953125Q539.93945 22.453125 540.6738 22.78125Q541.4082 23.09375 541.8301 23.703125Q542.25195 24.296875 542.25195 25.203125Q542.25195 26.078125 541.7363 26.859375Q541.2207 27.640625 540.25195 28.0625Q539.2832 28.484375 538.06445 28.484375Q536.0488 28.484375 534.9863 27.640625Q533.9238 26.796875 533.62695 25.15625ZM550.25195 32.25L550.06445 30.59375Q550.6426 30.75 551.06445 30.75Q551.6582 30.75 552.00195 30.546875Q552.3613 30.359375 552.5801 30.015625Q552.75195 29.75 553.12695 28.703125Q553.1738 28.546875 553.2832 28.265625L549.3457 17.875L551.2363 17.875L553.3926 23.890625Q553.81445 25.03125 554.1426 26.28125Q554.4551 25.078125 554.8613 23.921875L557.0801 17.875L558.8457 17.875L554.8926 28.421875Q554.2676 30.140625 553.9082 30.78125Q553.43945 31.65625 552.8301 32.046875Q552.2363 32.453125 551.3926 32.453125Q550.87695 32.453125 550.25195 32.25ZM559.68945 23.0625Q559.68945 20.1875 561.2832 18.796875Q562.62695 17.640625 564.5488 17.640625Q566.68945 17.640625 568.0332 19.046875Q569.3926 20.453125 569.3926 22.921875Q569.3926 24.921875 568.7988 26.078125Q568.2051 27.21875 567.0488 27.859375Q565.9082 28.484375 564.5488 28.484375Q562.3613 28.484375 561.0176 27.09375Q559.68945 25.6875 559.68945 23.0625ZM561.4863 23.0625Q561.4863 25.0625 562.3457 26.046875Q563.2207 27.03125 564.5488 27.03125Q565.8613 27.03125 566.7207 26.046875Q567.5957 25.046875 567.5957 23.0Q567.5957 21.078125 566.7207 20.09375Q565.8457 19.09375 564.5488 19.09375Q563.2207 19.09375 562.3457 20.09375Q561.4863 21.078125 561.4863 23.0625ZM578.12695 28.25L578.12695 26.71875Q576.9238 28.484375 574.8457 28.484375Q573.9238 28.484375 573.12695 28.140625Q572.3301 27.78125 571.93945 27.25Q571.56445 26.71875 571.4082 25.9375Q571.2988 25.421875 571.2988 24.296875L571.2988 17.875L573.0488 17.875L573.0488 23.625Q573.0488 25.0 573.1582 25.484375Q573.3301 26.171875 573.8613 26.578125Q574.4082 26.96875 575.18945 26.96875Q575.9863 26.96875 576.6738 26.5625Q577.37695 26.15625 577.6582 25.46875Q577.9551 24.765625 577.9551 23.4375L577.9551 17.875L579.7051 17.875L579.7051 28.25L578.12695 28.25ZM581.31445 28.25L581.31445 17.875L582.8926 17.875L582.8926 19.453125Q583.50195 18.34375 584.0176 18.0Q584.5332 17.640625 585.1426 17.640625Q586.0332 17.640625 586.9551 18.203125L586.3457 19.84375Q585.7051 19.453125 585.06445 19.453125Q584.4863 19.453125 584.0176 19.8125Q583.56445 20.15625 583.3613 20.765625Q583.0801 21.703125 583.0801 22.8125L583.0801 28.25L581.31445 28.25ZM601.2676 22.640625L601.2676 20.953125L607.3301 20.9375L607.3301 26.25Q605.9238 27.375 604.43945 27.9375Q602.9551 28.5 601.3926 28.5Q599.2832 28.5 597.56445 27.59375Q595.8457 26.6875 594.9551 24.984375Q594.0801 23.265625 594.0801 21.15625Q594.0801 19.0625 594.9551 17.265625Q595.8301 15.453125 597.4707 14.578125Q599.1113 13.6875 601.25195 13.6875Q602.7988 13.6875 604.0488 14.1875Q605.31445 14.6875 606.0176 15.59375Q606.7363 16.484375 607.1113 17.9375L605.4082 18.40625Q605.0801 17.3125 604.5957 16.6875Q604.12695 16.0625 603.2363 15.6875Q602.3457 15.3125 601.2676 15.3125Q599.9551 15.3125 599.00195 15.703125Q598.06445 16.09375 597.4863 16.75Q596.9082 17.390625 596.5801 18.15625Q596.0332 19.484375 596.0332 21.046875Q596.0332 22.953125 596.68945 24.25Q597.3613 25.53125 598.6113 26.15625Q599.87695 26.78125 601.2832 26.78125Q602.5176 26.78125 603.68945 26.3125Q604.8613 25.84375 605.4707 25.296875L605.4707 22.640625L601.2676 22.640625ZM610.56445 28.25L610.56445 13.9375L615.9551 13.9375Q617.3926 13.9375 618.1426 14.0625Q619.18945 14.25 619.9082 14.75Q620.62695 15.234375 621.0488 16.125Q621.4863 17.015625 621.4863 18.078125Q621.4863 19.90625 620.31445 21.171875Q619.1582 22.421875 616.12695 22.421875L612.4551 22.421875L612.4551 28.25L610.56445 28.25ZM612.4551 20.734375L616.1582 20.734375Q617.9863 20.734375 618.75195 20.0625Q619.5332 19.375 619.5332 18.125Q619.5332 17.234375 619.0801 16.59375Q618.62695 15.953125 617.8926 15.75Q617.4082 15.625 616.1113 15.625L612.4551 15.625L612.4551 20.734375ZM621.9863 28.25L627.4863 13.9375L629.5332 13.9375L635.3926 28.25L633.2363 28.25L631.56445 23.90625L625.5801 23.90625L624.00195 28.25L621.9863 28.25ZM626.12695 22.375L630.9707 22.375L629.4863 18.40625Q628.7988 16.59375 628.4707 15.4375Q628.18945 16.8125 627.68945 18.171875L626.12695 22.375ZM639.62695 24.71875Q639.6113 24.375 639.6113 24.203125Q639.6113 23.15625 639.9082 22.40625Q640.12695 21.84375 640.6113 21.265625Q640.9551 20.84375 641.8613 20.046875Q642.7832 19.234375 643.0488 18.765625Q643.3301 18.28125 643.3301 17.71875Q643.3301 16.6875 642.5176 15.921875Q641.7207 15.140625 640.56445 15.140625Q639.43945 15.140625 638.68945 15.84375Q637.93945 16.546875 637.7051 18.03125L635.8926 17.8125Q636.1426 15.8125 637.3457 14.75Q638.5488 13.6875 640.5332 13.6875Q642.6426 13.6875 643.8926 14.828125Q645.1426 15.96875 645.1426 17.59375Q645.1426 18.53125 644.68945 19.328125Q644.25195 20.109375 642.9707 21.25Q642.1113 22.015625 641.8457 22.375Q641.5957 22.734375 641.4551 23.203125Q641.3301 23.671875 641.31445 24.71875L639.62695 24.71875ZM639.5176 28.25L639.5176 26.25L641.5176 26.25L641.5176 28.25L639.5176 28.25Z" fill-rule="nonzero"/></svg>