<svg version="1.1" viewBox="0.0 0.0 600.0 371.0" fill="none" stroke="none" stroke-linecap="square" stroke-miterlimit="10" width="600" height="371" xmlns:xlink="http://www.w3.org/1999/xlink" xmlns="http://www.w3.org/2000/svg"><path fill="#ffffff" d="M0 0L600.0 0L600.0 371.0L0 371.0L0 0Z" fill-rule="nonzero"/><path stroke="#333333" stroke-width="1.0" stroke-linecap="butt" d="M77.5 300.5L581.5 300.5" fill-rule="nonzero"/><path stroke="#cccccc" stroke-width="1.0" stroke-linecap="butt" d="M77.5 240.5L581.5 240.5" fill-rule="nonzero"/><path stroke="#cccccc" stroke-width="1.0" stroke-linecap="butt" d="M77.5 181.5L581.5 181.5" fill-rule="nonzero"/><path stroke="#cccccc" stroke-width="1.0" stroke-linecap="butt" d="M77.5 121.5L581.5 121.5" fill-rule="nonzero"/><path stroke="#cccccc" stroke-width="1.0" stroke-linecap="butt" d="M77.5 61.5L581.5 61.5" fill-rule="nonzero"/><clipPath id="id_0"><path d="M77.55 61.916668L581.45 61.916668L581.45 300.45L77.55 300.45L77.55 61.916668Z" clip-rule="nonzero"/></clipPath><path stroke="#000000" stroke-width="2.0" stroke-linecap="butt" stroke-opacity="0.0" clip-path="url(#id_0)" d="M147.0 300.0L102.0 300.0L102.0 94.0C102.0 92.89543 102.89543 92.0 104.0 92.0L145.0 92.0C146.10457 92.0 147.0 92.89543 147.0 94.0Z" fill-rule="nonzero"/><path fill="#4285f4" clip-path="url(#id_0)" d="M147.0 300.0L102.0 300.0L102.0 94.0C102.0 92.89543 102.89543 92.0 104.0 92.0L145.0 92.0C146.10457 92.0 147.0 92.89543 147.0 94.0Z" fill-rule="nonzero"/><path stroke="#000000" stroke-width="2.0" stroke-linecap="butt" stroke-opacity="0.0" clip-path="url(#id_0)" d="M215.0 300.0L170.0 300.0L170.0 273.0C170.0 271.89542 170.89543 271.0 172.0 271.0L213.0 271.0C214.10457 271.0 215.0 271.89542 215.0 273.0Z" fill-rule="nonzero"/><path fill="#4285f4" clip-path="url(#id_0)" d="M215.0 300.0L170.0 300.0L170.0 273.0C170.0 271.89542 170.89543 271.0 172.0 271.0L213.0 271.0C214.10457 271.0 215.0 271.89542 215.0 273.0Z" fill-rule="nonzero"/><path stroke="#000000" stroke-width="2.0" stroke-linecap="butt" stroke-opacity="0.0" clip-path="url(#id_0)" d="M284.0 300.0L239.0 300.0L239.0 243.0C239.0 241.89543 239.89543 241.0 241.0 241.0L282.0 241.0C283.10458 241.0 284.0 241.89543 284.0 243.0Z" fill-rule="nonzero"/><path fill="#4285f4" clip-path="url(#id_0)" d="M284.0 300.0L239.0 300.0L239.0 243.0C239.0 241.89543 239.89543 241.0 241.0 241.0L282.0 241.0C283.10458 241.0 284.0 241.89543 284.0 243.0Z" fill-rule="nonzero"/><path stroke="#000000" stroke-width="2.0" stroke-linecap="butt" stroke-opacity="0.0" clip-path="url(#id_0)" d="M353.0 300.0L308.0 300.0L308.0 243.0C308.0 241.89543 308.89542 241.0 310.0 241.0L351.0 241.0C352.10458 241.0 353.0 241.89543 353.0 243.0Z" fill-rule="nonzero"/><path fill="#4285f4" clip-path="url(#id_0)" d="M353.0 300.0L308.0 300.0L308.0 243.0C308.0 241.89543 308.89542 241.0 310.0 241.0L351.0 241.0C352.10458 241.0 353.0 241.89543 353.0 243.0Z" fill-rule="nonzero"/><path stroke="#000000" stroke-width="2.0" stroke-linecap="butt" stroke-opacity="0.0" clip-path="url(#id_0)" d="M421.0 300.0L376.0 300.0L376.0 124.0C376.0 122.89543 376.89542 122.0 378.0 122.0L419.0 122.0C420.10458 122.0 421.0 122.89543 421.0 124.0Z" fill-rule="nonzero"/><path fill="#4285f4" clip-path="url(#id_0)" d="M421.0 300.0L376.0 300.0L376.0 124.0C376.0 122.89543 376.89542 122.0 378.0 122.0L419.0 122.0C420.10458 122.0 421.0 122.89543 421.0 124.0Z" fill-rule="nonzero"/><path stroke="#000000" stroke-width="2.0" stroke-linecap="butt" stroke-opacity="0.0" clip-path="url(#id_0)" d="M490.0 300.0L445.0 300.0L445.0 213.0C445.0 211.89543 445.89542 211.0 447.0 211.0L488.0 211.0C489.10458 211.0 490.0 211.89543 490.0 213.0Z" fill-rule="nonzero"/><path fill="#4285f4" clip-path="url(#id_0)" d="M490.0 300.0L445.0 300.0L445.0 213.0C445.0 211.89543 445.89542 211.0 447.0 211.0L488.0 211.0C489.10458 211.0 490.0 211.89543 490.0 213.0Z" fill-rule="nonzero"/><path stroke="#000000" stroke-width="2.0" stroke-linecap="butt" stroke-opacity="0.0" clip-path="url(#id_0)" d="M558.0 300.0L513.0 300.0L513.0 273.0C513.0 271.89542 513.89545 271.0 515.0 271.0L556.0 271.0C557.10455 271.0 558.0 271.89542 558.0 273.0Z" fill-rule="nonzero"/><path fill="#4285f4" clip-path="url(#id_0)" d="M558.0 300.0L513.0 300.0L513.0 273.0C513.0 271.89542 513.89545 271.0 515.0 271.0L556.0 271.0C557.10455 271.0 558.0 271.89542 558.0 273.0Z" fill-rule="nonzero"/><path fill="#000000" d="M236.98438 349.45L240.28125 340.85626L241.5 340.85626L245.01562 349.45L243.73438 349.45L242.71875 346.84064L239.14062 346.84064L238.1875 349.45L236.98438 349.45ZM239.46875 345.91876L242.375 345.91876L241.48438 343.54376Q241.0625 342.46564 240.875 341.7625Q240.70312 342.59064 240.40625 343.40314L239.46875 345.91876ZM244.79688 349.45L244.79688 343.23126L245.73438 343.23126L245.73438 344.10626Q246.42188 343.09064 247.71875 343.09064Q248.28125 343.09064 248.75 343.29376Q249.23438 343.4969 249.46875 343.825Q249.70312 344.15314 249.79688 344.59064Q249.84375 344.8875 249.84375 345.6219L249.84375 349.45L248.79688 349.45L248.79688 345.66876Q248.79688 345.0125 248.67188 344.7Q248.54688 344.3875 248.23438 344.2Q247.92188 343.9969 247.5 343.9969Q246.82812 343.9969 246.32812 344.4344Q245.84375 344.85626 245.84375 346.04376L245.84375 349.45L244.79688 349.45ZM251.375 347.59064L252.40625 347.4344Q252.5 348.0594 252.89062 348.3875Q253.29688 348.71564 254.03125 348.71564Q254.75 348.71564 255.09375 348.4344Q255.45312 348.1375 255.45312 347.73126Q255.45312 347.3719 255.14062 347.16876Q254.92188 347.02814 254.0625 346.8094Q252.90625 346.5125 252.45312 346.3094Q252.01562 346.09064 251.78125 345.71564Q251.54688 345.34064 251.54688 344.8719Q251.54688 344.46564 251.73438 344.10626Q251.92188 343.7469 252.25 343.5125Q252.5 343.34064 252.92188 343.21564Q253.34375 343.09064 253.84375 343.09064Q254.5625 343.09064 255.10938 343.3094Q255.67188 343.5125 255.9375 343.8719Q256.20312 344.23126 256.29688 344.825L255.26562 344.96564Q255.20312 344.4969 254.85938 344.23126Q254.53125 343.95 253.90625 343.95Q253.1875 343.95 252.875 344.2Q252.5625 344.4344 252.5625 344.7625Q252.5625 344.96564 252.6875 345.1219Q252.82812 345.29376 253.09375 345.40314Q253.25 345.46564 254.03125 345.66876Q255.15625 345.98126 255.59375 346.16876Q256.03125 346.35626 256.28125 346.71564Q256.53125 347.075 256.53125 347.6219Q256.53125 348.15314 256.21875 348.6219Q255.92188 349.075 255.34375 349.34064Q254.76562 349.59064 254.03125 349.59064Q252.8125 349.59064 252.17188 349.09064Q251.54688 348.575 251.375 347.59064ZM259.9375 349.45L258.03125 343.23126L259.125 343.23126L260.10938 346.825L260.48438 348.15314Q260.51562 348.0594 260.8125 346.8719L261.79688 343.23126L262.875 343.23126L263.8125 346.84064L264.125 348.02814L264.48438 346.825L265.54688 343.23126L266.57812 343.23126L264.625 349.45L263.53125 349.45L262.54688 345.71564L262.29688 344.66876L261.04688 349.45L259.9375 349.45ZM272.04688 347.45L273.14062 347.575Q272.89062 348.52814 272.1875 349.0594Q271.48438 349.59064 270.40625 349.59064Q269.04688 349.59064 268.23438 348.7469Q267.4375 347.90314 267.4375 346.3875Q267.4375 344.825 268.25 343.96564Q269.0625 343.09064 270.34375 343.09064Q271.59375 343.09064 272.375 343.9344Q273.17188 344.77814 273.17188 346.325Q273.17188 346.41876 273.17188 346.60626L268.53125 346.60626Q268.59375 347.6375 269.10938 348.1844Q269.625 348.71564 270.40625 348.71564Q270.98438 348.71564 271.39062 348.41876Q271.8125 348.10626 272.04688 347.45ZM268.59375 345.7469L272.0625 345.7469Q272.0 344.95 271.67188 344.5594Q271.15625 343.95 270.35938 343.95Q269.625 343.95 269.125 344.4344Q268.64062 344.91876 268.59375 345.7469ZM274.78125 349.45L274.78125 343.23126L275.73438 343.23126L275.73438 344.16876Q276.09375 343.5125 276.39062 343.3094Q276.70312 343.09064 277.07812 343.09064Q277.60938 343.09064 278.15625 343.41876L277.79688 344.40314Q277.40625 344.16876 277.03125 344.16876Q276.67188 344.16876 276.39062 344.3875Q276.125 344.59064 276.01562 344.96564Q275.82812 345.52814 275.82812 346.1844L275.82812 349.45L274.78125 349.45ZM283.04688 347.45L284.14062 347.575Q283.89062 348.52814 283.1875 349.0594Q282.48438 349.59064 281.40625 349.59064Q280.04688 349.59064 279.23438 348.7469Q278.4375 347.90314 278.4375 346.3875Q278.4375 344.825 279.25 343.96564Q280.0625 343.09064 281.34375 343.09064Q282.59375 343.09064 283.375 343.9344Q284.17188 344.77814 284.17188 346.325Q284.17188 346.41876 284.17188 346.60626L279.53125 346.60626Q279.59375 347.6375 280.10938 348.1844Q280.625 348.71564 281.40625 348.71564Q281.98438 348.71564 282.39062 348.41876Q282.8125 348.10626 283.04688 347.45ZM279.59375 345.7469L283.0625 345.7469Q283.0 344.95 282.67188 344.5594Q282.15625 343.95 281.35938 343.95Q280.625 343.95 280.125 344.4344Q279.64062 344.91876 279.59375 345.7469ZM289.82812 349.45L289.82812 348.66876Q289.23438 349.59064 288.09375 349.59064Q287.34375 349.59064 286.71875 349.1844Q286.09375 348.7625 285.75 348.02814Q285.40625 347.29376 285.40625 346.34064Q285.40625 345.41876 285.71875 344.65314Q286.03125 343.8875 286.65625 343.4969Q287.28125 343.09064 288.04688 343.09064Q288.60938 343.09064 289.04688 343.325Q289.48438 343.5594 289.76562 343.9344L289.76562 340.85626L290.8125 340.85626L290.8125 349.45L289.82812 349.45ZM286.5 346.34064Q286.5 347.54376 287.0 348.1375Q287.5 348.71564 288.1875 348.71564Q288.875 348.71564 289.35938 348.15314Q289.84375 347.59064 289.84375 346.4344Q289.84375 345.15314 289.34375 344.5594Q288.85938 343.96564 288.14062 343.96564Q287.4375 343.96564 286.96875 344.54376Q286.5 345.10626 286.5 346.34064ZM295.78125 349.45L295.78125 343.23126L296.73438 343.23126L296.73438 344.16876Q297.09375 343.5125 297.39062 343.3094Q297.70312 343.09064 298.07812 343.09064Q298.60938 343.09064 299.15625 343.41876L298.79688 344.40314Q298.40625 344.16876 298.03125 344.16876Q297.67188 344.16876 297.39062 344.3875Q297.125 344.59064 297.01562 344.96564Q296.82812 345.52814 296.82812 346.1844L296.82812 349.45L295.78125 349.45ZM304.04688 347.45L305.14062 347.575Q304.89062 348.52814 304.1875 349.0594Q303.48438 349.59064 302.40625 349.59064Q301.04688 349.59064 300.23438 348.7469Q299.4375 347.90314 299.4375 346.3875Q299.4375 344.825 300.25 343.96564Q301.0625 343.09064 302.34375 343.09064Q303.59375 343.09064 304.375 343.9344Q305.17188 344.77814 305.17188 346.325Q305.17188 346.41876 305.17188 346.60626L300.53125 346.60626Q300.59375 347.6375 301.10938 348.1844Q301.625 348.71564 302.40625 348.71564Q302.98438 348.71564 303.39062 348.41876Q303.8125 348.10626 304.04688 347.45ZM300.59375 345.7469L304.0625 345.7469Q304.0 344.95 303.67188 344.5594Q303.15625 343.95 302.35938 343.95Q301.625 343.95 301.125 344.4344Q300.64062 344.91876 300.59375 345.7469ZM306.76562 349.45L306.76562 340.85626L307.82812 340.85626L307.82812 349.45L306.76562 349.45ZM309.79688 342.075L309.79688 340.85626L310.85938 340.85626L310.85938 342.075L309.79688 342.075ZM309.79688 349.45L309.79688 343.23126L310.85938 343.23126L310.85938 349.45L309.79688 349.45ZM312.59375 349.96564L313.625 350.1219Q313.6875 350.59064 313.98438 350.8094Q314.375 351.10626 315.04688 351.10626Q315.78125 351.10626 316.17188 350.8094Q316.57812 350.5125 316.71875 349.9969Q316.8125 349.66876 316.79688 348.6375Q316.10938 349.45 315.07812 349.45Q313.79688 349.45 313.09375 348.52814Q312.39062 347.59064 312.39062 346.3094Q312.39062 345.41876 312.70312 344.66876Q313.03125 343.90314 313.64062 343.4969Q314.25 343.09064 315.07812 343.09064Q316.1875 343.09064 316.90625 343.98126L316.90625 343.23126L317.875 343.23126L317.875 348.60626Q317.875 350.0594 317.57812 350.66876Q317.28125 351.27814 316.64062 351.6219Q316.0 351.98126 315.0625 351.98126Q313.95312 351.98126 313.26562 351.48126Q312.57812 350.98126 312.59375 349.96564ZM313.46875 346.23126Q313.46875 347.45 313.95312 348.0125Q314.4375 348.575 315.17188 348.575Q315.90625 348.575 316.39062 348.0125Q316.89062 347.45 316.89062 346.2625Q316.89062 345.1219 316.375 344.54376Q315.875 343.96564 315.15625 343.96564Q314.45312 343.96564 313.95312 344.54376Q313.46875 345.10626 313.46875 346.23126ZM319.79688 342.075L319.79688 340.85626L320.85938 340.85626L320.85938 342.075L319.79688 342.075ZM319.79688 349.45L319.79688 343.23126L320.85938 343.23126L320.85938 349.45L319.79688 349.45ZM322.40625 346.34064Q322.40625 344.60626 323.35938 343.77814Q324.15625 343.09064 325.3125 343.09064Q326.59375 343.09064 327.40625 343.9344Q328.23438 344.7625 328.23438 346.2469Q328.23438 347.45 327.875 348.1375Q327.51562 348.825 326.8125 349.21564Q326.125 349.59064 325.3125 349.59064Q324.01562 349.59064 323.20312 348.7625Q322.40625 347.91876 322.40625 346.34064ZM323.48438 346.34064Q323.48438 347.52814 324.0 348.1219Q324.53125 348.71564 325.3125 348.71564Q326.10938 348.71564 326.625 348.1219Q327.14062 347.52814 327.14062 346.3094Q327.14062 345.15314 326.60938 344.5594Q326.09375 343.96564 325.3125 343.96564Q324.53125 343.96564 324.0 344.5594Q323.48438 345.1375 323.48438 346.34064ZM333.875 349.45L333.875 348.52814Q333.14062 349.59064 331.89062 349.59064Q331.34375 349.59064 330.85938 349.3875Q330.39062 349.16876 330.15625 348.85626Q329.92188 348.52814 329.82812 348.0594Q329.76562 347.7625 329.76562 347.075L329.76562 343.23126L330.82812 343.23126L330.82812 346.6844Q330.82812 347.4969 330.89062 347.79376Q330.98438 348.2 331.29688 348.45Q331.625 348.6844 332.10938 348.6844Q332.57812 348.6844 332.98438 348.45Q333.40625 348.2 333.57812 347.77814Q333.76562 347.35626 333.76562 346.5594L333.76562 343.23126L334.8125 343.23126L334.8125 349.45L333.875 349.45ZM336.375 347.59064L337.40625 347.4344Q337.5 348.0594 337.89062 348.3875Q338.29688 348.71564 339.03125 348.71564Q339.75 348.71564 340.09375 348.4344Q340.45312 348.1375 340.45312 347.73126Q340.45312 347.3719 340.14062 347.16876Q339.92188 347.02814 339.0625 346.8094Q337.90625 346.5125 337.45312 346.3094Q337.01562 346.09064 336.78125 345.71564Q336.54688 345.34064 336.54688 344.8719Q336.54688 344.46564 336.73438 344.10626Q336.92188 343.7469 337.25 343.5125Q337.5 343.34064 337.92188 343.21564Q338.34375 343.09064 338.84375 343.09064Q339.5625 343.09064 340.10938 343.3094Q340.67188 343.5125 340.9375 343.8719Q341.20312 344.23126 341.29688 344.825L340.26562 344.96564Q340.20312 344.4969 339.85938 344.23126Q339.53125 343.95 338.90625 343.95Q338.1875 343.95 337.875 344.2Q337.5625 344.4344 337.5625 344.7625Q337.5625 344.96564 337.6875 345.1219Q337.82812 345.29376 338.09375 345.40314Q338.25 345.46564 339.03125 345.66876Q340.15625 345.98126 340.59375 346.16876Q341.03125 346.35626 341.28125 346.71564Q341.53125 347.075 341.53125 347.6219Q341.53125 348.15314 341.21875 348.6219Q340.92188 349.075 340.34375 349.34064Q339.76562 349.59064 339.03125 349.59064Q337.8125 349.59064 337.17188 349.09064Q336.54688 348.575 336.375 347.59064ZM346.79688 342.075L346.79688 340.85626L347.85938 340.85626L347.85938 342.075L346.79688 342.075ZM346.79688 349.45L346.79688 343.23126L347.85938 343.23126L347.85938 349.45L346.79688 349.45ZM353.82812 349.45L353.82812 348.66876Q353.23438 349.59064 352.09375 349.59064Q351.34375 349.59064 350.71875 349.1844Q350.09375 348.7625 349.75 348.02814Q349.40625 347.29376 349.40625 346.34064Q349.40625 345.41876 349.71875 344.65314Q350.03125 343.8875 350.65625 343.4969Q351.28125 343.09064 352.04688 343.09064Q352.60938 343.09064 353.04688 343.325Q353.48438 343.5594 353.76562 343.9344L353.76562 340.85626L354.8125 340.85626L354.8125 349.45L353.82812 349.45ZM350.5 346.34064Q350.5 347.54376 351.0 348.1375Q351.5 348.71564 352.1875 348.71564Q352.875 348.71564 353.35938 348.15314Q353.84375 347.59064 353.84375 346.4344Q353.84375 345.15314 353.34375 344.5594Q352.85938 343.96564 352.14062 343.96564Q351.4375 343.96564 350.96875 344.54376Q350.5 345.10626 350.5 346.34064ZM361.04688 347.45L362.14062 347.575Q361.89062 348.52814 361.1875 349.0594Q360.48438 349.59064 359.40625 349.59064Q358.04688 349.59064 357.23438 348.7469Q356.4375 347.90314 356.4375 346.3875Q356.4375 344.825 357.25 343.96564Q358.0625 343.09064 359.34375 343.09064Q360.59375 343.09064 361.375 343.9344Q362.17188 344.77814 362.17188 346.325Q362.17188 346.41876 362.17188 346.60626L357.53125 346.60626Q357.59375 347.6375 358.10938 348.1844Q358.625 348.71564 359.40625 348.71564Q359.98438 348.71564 360.39062 348.41876Q360.8125 348.10626 361.04688 347.45ZM357.59375 345.7469L361.0625 345.7469Q361.0 344.95 360.67188 344.5594Q360.15625 343.95 359.35938 343.95Q358.625 343.95 358.125 344.4344Q357.64062 344.91876 357.59375 345.7469ZM363.79688 349.45L363.79688 343.23126L364.73438 343.23126L364.73438 344.10626Q365.42188 343.09064 366.71875 343.09064Q367.28125 343.09064 367.75 343.29376Q368.23438 343.4969 368.46875 343.825Q368.70312 344.15314 368.79688 344.59064Q368.84375 344.8875 368.84375 345.6219L368.84375 349.45L367.79688 349.45L367.79688 345.66876Q367.79688 345.0125 367.67188 344.7Q367.54688 344.3875 367.23438 344.2Q366.92188 343.9969 366.5 343.9969Q365.82812 343.9969 365.32812 344.4344Q364.84375 344.85626 364.84375 346.04376L364.84375 349.45L363.79688 349.45ZM373.09375 348.5125L373.25 349.4344Q372.79688 349.52814 372.45312 349.52814Q371.875 349.52814 371.5625 349.35626Q371.25 349.16876 371.10938 348.8719Q370.98438 348.575 370.98438 347.6219L370.98438 344.04376L370.21875 344.04376L370.21875 343.23126L370.98438 343.23126L370.98438 341.6844L372.03125 341.0594L372.03125 343.23126L373.09375 343.23126L373.09375 344.04376L372.03125 344.04376L372.03125 347.6844Q372.03125 348.1375 372.07812 348.2625Q372.14062 348.3875 372.26562 348.46564Q372.39062 348.54376 372.625 348.54376Q372.8125 348.54376 373.09375 348.5125ZM373.79688 342.075L373.79688 340.85626L374.85938 340.85626L374.85938 342.075L373.79688 342.075ZM373.79688 349.45L373.79688 343.23126L374.85938 343.23126L374.85938 349.45L373.79688 349.45ZM377.04688 349.45L377.04688 344.04376L376.10938 344.04376L376.10938 343.23126L377.04688 343.23126L377.04688 342.5594Q377.04688 341.9344 377.15625 341.6375Q377.3125 341.21564 377.6875 340.96564Q378.07812 340.71564 378.76562 340.71564Q379.21875 340.71564 379.75 340.825L379.59375 341.73126Q379.26562 341.6844 378.96875 341.6844Q378.48438 341.6844 378.28125 341.8875Q378.09375 342.09064 378.09375 342.65314L378.09375 343.23126L379.3125 343.23126L379.3125 344.04376L378.09375 344.04376L378.09375 349.45L377.04688 349.45ZM379.79688 342.075L379.79688 340.85626L380.85938 340.85626L380.85938 342.075L379.79688 342.075ZM379.79688 349.45L379.79688 343.23126L380.85938 343.23126L380.85938 349.45L379.79688 349.45ZM386.85938 347.16876L387.89062 347.3094Q387.71875 348.3719 387.01562 348.98126Q386.3125 349.59064 385.29688 349.59064Q384.01562 349.59064 383.23438 348.7625Q382.46875 347.91876 382.46875 346.35626Q382.46875 345.35626 382.79688 344.60626Q383.14062 343.84064 383.8125 343.46564Q384.5 343.09064 385.3125 343.09064Q386.3125 343.09064 386.95312 343.60626Q387.60938 344.10626 387.79688 345.0594L386.76562 345.21564Q386.625 344.59064 386.25 344.27814Q385.875 343.95 385.34375 343.95Q384.54688 343.95 384.04688 344.52814Q383.54688 345.09064 383.54688 346.325Q383.54688 347.59064 384.03125 348.15314Q384.51562 348.71564 385.28125 348.71564Q385.90625 348.71564 386.3125 348.34064Q386.73438 347.96564 386.85938 347.16876ZM392.85938 348.6844Q392.26562 349.1844 391.71875 349.3875Q391.1875 349.59064 390.5625 349.59064Q389.53125 349.59064 388.98438 349.09064Q388.4375 348.59064 388.4375 347.8094Q388.4375 347.35626 388.64062 346.98126Q388.84375 346.59064 389.1875 346.3719Q389.53125 346.1375 389.95312 346.02814Q390.25 345.9344 390.89062 345.85626Q392.15625 345.71564 392.76562 345.4969Q392.76562 345.27814 392.76562 345.23126Q392.76562 344.575 392.46875 344.3094Q392.0625 343.96564 391.26562 343.96564Q390.53125 343.96564 390.17188 344.23126Q389.8125 344.48126 389.64062 345.1375L388.60938 344.9969Q388.75 344.34064 389.07812 343.9344Q389.40625 343.52814 390.01562 343.3094Q390.625 343.09064 391.42188 343.09064Q392.21875 343.09064 392.71875 343.27814Q393.21875 343.46564 393.45312 343.7469Q393.6875 344.02814 393.78125 344.46564Q393.82812 344.73126 393.82812 345.4344L393.82812 346.84064Q393.82812 348.3094 393.89062 348.7Q393.96875 349.09064 394.17188 349.45L393.0625 349.45Q392.90625 349.1219 392.85938 348.6844ZM392.76562 346.325Q392.1875 346.5594 391.04688 346.73126Q390.39062 346.825 390.125 346.95Q389.85938 347.0594 389.70312 347.27814Q389.5625 347.4969 389.5625 347.77814Q389.5625 348.2 389.875 348.48126Q390.20312 348.7625 390.8125 348.7625Q391.42188 348.7625 391.89062 348.4969Q392.375 348.23126 392.59375 347.7625Q392.76562 347.40314 392.76562 346.71564L392.76562 346.325ZM398.09375 348.5125L398.25 349.4344Q397.79688 349.52814 397.45312 349.52814Q396.875 349.52814 396.5625 349.35626Q396.25 349.16876 396.10938 348.8719Q395.98438 348.575 395.98438 347.6219L395.98438 344.04376L395.21875 344.04376L395.21875 343.23126L395.98438 343.23126L395.98438 341.6844L397.03125 341.0594L397.03125 343.23126L398.09375 343.23126L398.09375 344.04376L397.03125 344.04376L397.03125 347.6844Q397.03125 348.1375 397.07812 348.2625Q397.14062 348.3875 397.26562 348.46564Q397.39062 348.54376 397.625 348.54376Q397.8125 348.54376 398.09375 348.5125ZM398.79688 342.075L398.79688 340.85626L399.85938 340.85626L399.85938 342.075L398.79688 342.075ZM398.79688 349.45L398.79688 343.23126L399.85938 343.23126L399.85938 349.45L398.79688 349.45ZM401.40625 346.34064Q401.40625 344.60626 402.35938 343.77814Q403.15625 343.09064 404.3125 343.09064Q405.59375 343.09064 406.40625 343.9344Q407.23438 344.7625 407.23438 346.2469Q407.23438 347.45 406.875 348.1375Q406.51562 348.825 405.8125 349.21564Q405.125 349.59064 404.3125 349.59064Q403.01562 349.59064 402.20312 348.7625Q401.40625 347.91876 401.40625 346.34064ZM402.48438 346.34064Q402.48438 347.52814 403.0 348.1219Q403.53125 348.71564 404.3125 348.71564Q405.10938 348.71564 405.625 348.1219Q406.14062 347.52814 406.14062 346.3094Q406.14062 345.15314 405.60938 344.5594Q405.09375 343.96564 404.3125 343.96564Q403.53125 343.96564 403.0 344.5594Q402.48438 345.1375 402.48438 346.34064ZM408.79688 349.45L408.79688 343.23126L409.73438 343.23126L409.73438 344.10626Q410.42188 343.09064 411.71875 343.09064Q412.28125 343.09064 412.75 343.29376Q413.23438 343.4969 413.46875 343.825Q413.70312 344.15314 413.79688 344.59064Q413.84375 344.8875 413.84375 345.6219L413.84375 349.45L412.79688 349.45L412.79688 345.66876Q412.79688 345.0125 412.67188 344.7Q412.54688 344.3875 412.23438 344.2Q411.92188 343.9969 411.5 343.9969Q410.82812 343.9969 410.32812 344.4344Q409.84375 344.85626 409.84375 346.04376L409.84375 349.45L408.79688 349.45ZM415.375 347.59064L416.40625 347.4344Q416.5 348.0594 416.89062 348.3875Q417.29688 348.71564 418.03125 348.71564Q418.75 348.71564 419.09375 348.4344Q419.45312 348.1375 419.45312 347.73126Q419.45312 347.3719 419.14062 347.16876Q418.92188 347.02814 418.0625 346.8094Q416.90625 346.5125 416.45312 346.3094Q416.01562 346.09064 415.78125 345.71564Q415.54688 345.34064 415.54688 344.8719Q415.54688 344.46564 415.73438 344.10626Q415.92188 343.7469 416.25 343.5125Q416.5 343.34064 416.92188 343.21564Q417.34375 343.09064 417.84375 343.09064Q418.5625 343.09064 419.10938 343.3094Q419.67188 343.5125 419.9375 343.8719Q420.20312 344.23126 420.29688 344.825L419.26562 344.96564Q419.20312 344.4969 418.85938 344.23126Q418.53125 343.95 417.90625 343.95Q417.1875 343.95 416.875 344.2Q416.5625 344.4344 416.5625 344.7625Q416.5625 344.96564 416.6875 345.1219Q416.82812 345.29376 417.09375 345.40314Q417.25 345.46564 418.03125 345.66876Q419.15625 345.98126 419.59375 346.16876Q420.03125 346.35626 420.28125 346.71564Q420.53125 347.075 420.53125 347.6219Q420.53125 348.15314 420.21875 348.6219Q419.92188 349.075 419.34375 349.34064Q418.76562 349.59064 418.03125 349.59064Q416.8125 349.59064 416.17188 349.09064Q415.54688 348.575 415.375 347.59064Z" fill-rule="nonzero"/><path fill="#000000" d="M29.550013 241.26146L20.956263 241.26146L20.956263 240.10521L27.706263 235.58958L20.956263 235.58958L20.956263 234.49583L29.550013 234.49583L29.550013 235.66771L22.800013 240.18333L29.550013 240.18333L29.550013 241.26146ZM29.550013 228.30833L28.628138 228.30833Q29.690638 229.04271 29.690638 230.29271Q29.690638 230.83958 29.487513 231.32396Q29.268763 231.79271 28.956263 232.02708Q28.628138 232.26146 28.159388 232.35521Q27.862513 232.41771 27.175013 232.41771L23.331263 232.41771L23.331263 231.35521L26.784388 231.35521Q27.596888 231.35521 27.893763 231.29271Q28.300013 231.19896 28.550013 230.88646Q28.784388 230.55833 28.784388 230.07396Q28.784388 229.60521 28.550013 229.19896Q28.300013 228.77708 27.878138 228.60521Q27.456263 228.41771 26.659388 228.41771L23.331263 228.41771L23.331263 227.37083L29.550013 227.37083L29.550013 228.30833ZM29.550013 225.38646L23.331263 225.38646L23.331263 224.44896L24.206263 224.44896Q23.737513 224.15208 23.471888 223.66771Q23.190638 223.18333 23.190638 222.55833Q23.190638 221.87083 23.471888 221.43333Q23.753138 220.98021 24.268763 220.80833Q23.190638 220.05833 23.190638 218.88646Q23.190638 217.94896 23.706263 217.46458Q24.206263 216.96458 25.284388 216.96458L29.550013 216.96458L29.550013 218.01146L25.628138 218.01146Q25.003138 218.01146 24.721888 218.12083Q24.440638 218.21458 24.268763 218.48021Q24.096888 218.74583 24.096888 219.12083Q24.096888 219.77708 24.534388 220.21458Q24.971888 220.63646 25.940638 220.63646L29.550013 220.63646L29.550013 221.69896L25.503138 221.69896Q24.800013 221.69896 24.456263 221.96458Q24.096888 222.21458 24.096888 222.79271Q24.096888 223.24583 24.331263 223.62083Q24.565638 223.99583 25.018763 224.16771Q25.471888 224.33958 26.315638 224.33958L29.550013 224.33958L29.550013 225.38646ZM29.550013 213.41771L29.550013 214.40208L20.956263 214.40208L20.956263 213.33958L24.018763 213.33958Q23.190638 212.66771 23.190638 211.63646Q23.190638 211.05833 23.425013 210.55833Q23.643763 210.04271 24.065638 209.71458Q24.487513 209.37083 25.081263 209.18333Q25.675013 208.99583 26.346888 208.99583Q27.940638 208.99583 28.815638 209.79271Q29.690638 210.58958 29.690638 211.68333Q29.690638 212.79271 28.768763 213.41771L29.550013 213.41771ZM26.393763 213.43333Q27.503138 213.43333 28.003138 213.12083Q28.815638 212.62083 28.815638 211.77708Q28.815638 211.08958 28.221888 210.58958Q27.628138 210.07396 26.425013 210.07396Q25.206263 210.07396 24.628138 210.55833Q24.050013 211.04271 24.050013 211.73021Q24.050013 212.41771 24.659388 212.93333Q25.253138 213.43333 26.393763 213.43333ZM27.550013 203.13646L27.675013 202.04271Q28.628138 202.29271 29.159388 202.99583Q29.690638 203.69896 29.690638 204.77708Q29.690638 206.13646 28.846888 206.94896Q28.003138 207.74583 26.487513 207.74583Q24.925013 207.74583 24.065638 206.93333Q23.190638 206.12083 23.190638 204.83958Q23.190638 203.58958 24.034388 202.80833Q24.878138 202.01146 26.425013 202.01146Q26.518763 202.01146 26.706263 202.01146L26.706263 206.65208Q27.737513 206.58958 28.284388 206.07396Q28.815638 205.55833 28.815638 204.77708Q28.815638 204.19896 28.518763 203.79271Q28.206263 203.37083 27.550013 203.13646ZM25.846888 206.58958L25.846888 203.12083Q25.050013 203.18333 24.659388 203.51146Q24.050013 204.02708 24.050013 204.82396Q24.050013 205.55833 24.534388 206.05833Q25.018763 206.54271 25.846888 206.58958ZM29.550013 200.40208L23.331263 200.40208L23.331263 199.44896L24.268763 199.44896Q23.612513 199.08958 23.409388 198.79271Q23.190638 198.48021 23.190638 198.10521Q23.190638 197.57396 23.518763 197.02708L24.503138 197.38646Q24.268763 197.77708 24.268763 198.15208Q24.268763 198.51146 24.487513 198.79271Q24.690638 199.05833 25.065638 199.16771Q25.628138 199.35521 26.284388 199.35521L29.550013 199.35521L29.550013 200.40208ZM26.440638 193.77708Q24.706263 193.77708 23.878138 192.82396Q23.190638 192.02708 23.190638 190.87083Q23.190638 189.58958 24.034388 188.77708Q24.862513 187.94896 26.346888 187.94896Q27.550013 187.94896 28.237513 188.30833Q28.925013 188.66771 29.315638 189.37083Q29.690638 190.05833 29.690638 190.87083Q29.690638 192.16771 28.862513 192.98021Q28.018763 193.77708 26.440638 193.77708ZM26.440638 192.69896Q27.628138 192.69896 28.221888 192.18333Q28.815638 191.65208 28.815638 190.87083Q28.815638 190.07396 28.221888 189.55833Q27.628138 189.04271 26.409388 189.04271Q25.253138 189.04271 24.659388 189.57396Q24.065638 190.08958 24.065638 190.87083Q24.065638 191.65208 24.659388 192.18333Q25.237513 192.69896 26.440638 192.69896ZM29.550013 186.13646L24.143763 186.13646L24.143763 187.07396L23.331263 187.07396L23.331263 186.13646L22.659388 186.13646Q22.034388 186.13646 21.737513 186.02708Q21.315638 185.87083 21.065638 185.49583Q20.815638 185.10521 20.815638 184.41771Q20.815638 183.96458 20.925013 183.43333L21.831263 183.58958Q21.784388 183.91771 21.784388 184.21458Q21.784388 184.69896 21.987513 184.90208Q22.190638 185.08958 22.753138 185.08958L23.331263 185.08958L23.331263 183.87083L24.143763 183.87083L24.143763 185.08958L29.550013 185.08958L29.550013 186.13646ZM27.690638 180.80833L27.534388 179.77708Q28.159388 179.68333 28.487513 179.29271Q28.815638 178.88646 28.815638 178.15208Q28.815638 177.43333 28.534388 177.08958Q28.237513 176.73021 27.831263 176.73021Q27.471888 176.73021 27.268763 177.04271Q27.128138 177.26146 26.909388 178.12083Q26.612513 179.27708 26.409388 179.73021Q26.190638 180.16771 25.815638 180.40208Q25.440638 180.63646 24.971888 180.63646Q24.565638 180.63646 24.206263 180.44896Q23.846888 180.26146 23.612513 179.93333Q23.440638 179.68333 23.315638 179.26146Q23.190638 178.83958 23.190638 178.33958Q23.190638 177.62083 23.409388 177.07396Q23.612513 176.51146 23.971888 176.24583Q24.331263 175.98021 24.925013 175.88646L25.065638 176.91771Q24.596888 176.98021 24.331263 177.32396Q24.050013 177.65208 24.050013 178.27708Q24.050013 178.99583 24.300013 179.30833Q24.534388 179.62083 24.862513 179.62083Q25.065638 179.62083 25.221888 179.49583Q25.393763 179.35521 25.503138 179.08958Q25.565638 178.93333 25.768763 178.15208Q26.081263 177.02708 26.268763 176.58958Q26.456263 176.15208 26.815638 175.90208Q27.175013 175.65208 27.721888 175.65208Q28.253138 175.65208 28.721888 175.96458Q29.175013 176.26146 29.440638 176.83958Q29.690638 177.41771 29.690638 178.15208Q29.690638 179.37083 29.190638 180.01146Q28.675013 180.63646 27.690638 180.80833ZM28.612513 171.08958L29.534388 170.93333Q29.628138 171.38646 29.628138 171.73021Q29.628138 172.30833 29.456263 172.62083Q29.268763 172.93333 28.971888 173.07396Q28.675013 173.19896 27.721888 173.19896L24.143763 173.19896L24.143763 173.96458L23.331263 173.96458L23.331263 173.19896L21.784388 173.19896L21.159388 172.15208L23.331263 172.15208L23.331263 171.08958L24.143763 171.08958L24.143763 172.15208L27.784388 172.15208Q28.237513 172.15208 28.362513 172.10521Q28.487513 172.04271 28.565638 171.91771Q28.643763 171.79271 28.643763 171.55833Q28.643763 171.37083 28.612513 171.08958ZM29.550013 166.30833L28.628138 166.30833Q29.690638 167.04271 29.690638 168.29271Q29.690638 168.83958 29.487513 169.32396Q29.268763 169.79271 28.956263 170.02708Q28.628138 170.26146 28.159388 170.35521Q27.862513 170.41771 27.175013 170.41771L23.331263 170.41771L23.331263 169.35521L26.784388 169.35521Q27.596888 169.35521 27.893763 169.29271Q28.300013 169.19896 28.550013 168.88646Q28.784388 168.55833 28.784388 168.07396Q28.784388 167.60521 28.550013 167.19896Q28.300013 166.77708 27.878138 166.60521Q27.456263 166.41771 26.659388 166.41771L23.331263 166.41771L23.331263 165.37083L29.550013 165.37083L29.550013 166.30833ZM29.550013 159.35521L28.768763 159.35521Q29.690638 159.94896 29.690638 161.08958Q29.690638 161.83958 29.284388 162.46458Q28.862513 163.08958 28.128138 163.43333Q27.393763 163.77708 26.440638 163.77708Q25.518763 163.77708 24.753138 163.46458Q23.987513 163.15208 23.596888 162.52708Q23.190638 161.90208 23.190638 161.13646Q23.190638 160.57396 23.425013 160.13646Q23.659388 159.69896 24.034388 159.41771L20.956263 159.41771L20.956263 158.37083L29.550013 158.37083L29.550013 159.35521ZM26.440638 162.68333Q27.643763 162.68333 28.237513 162.18333Q28.815638 161.68333 28.815638 160.99583Q28.815638 160.30833 28.253138 159.82396Q27.690638 159.33958 26.534388 159.33958Q25.253138 159.33958 24.659388 159.83958Q24.065638 160.32396 24.065638 161.04271Q24.065638 161.74583 24.643763 162.21458Q25.206263 162.68333 26.440638 162.68333ZM27.550013 152.13646L27.675013 151.04271Q28.628138 151.29271 29.159388 151.99583Q29.690638 152.69896 29.690638 153.77708Q29.690638 155.13646 28.846888 155.94896Q28.003138 156.74583 26.487513 156.74583Q24.925013 156.74583 24.065638 155.93333Q23.190638 155.12083 23.190638 153.83958Q23.190638 152.58958 24.034388 151.80833Q24.878138 151.01146 26.425013 151.01146Q26.518763 151.01146 26.706263 151.01146L26.706263 155.65208Q27.737513 155.58958 28.284388 155.07396Q28.815638 154.55833 28.815638 153.77708Q28.815638 153.19896 28.518763 152.79271Q28.206263 152.37083 27.550013 152.13646ZM25.846888 155.58958L25.846888 152.12083Q25.050013 152.18333 24.659388 152.51146Q24.050013 153.02708 24.050013 153.82396Q24.050013 154.55833 24.534388 155.05833Q25.018763 155.54271 25.846888 155.58958ZM29.550013 149.38646L23.331263 149.38646L23.331263 148.44896L24.206263 148.44896Q23.190638 147.76146 23.190638 146.46458Q23.190638 145.90208 23.393763 145.43333Q23.596888 144.94896 23.925013 144.71458Q24.253138 144.48021 24.690638 144.38646Q24.987513 144.33958 25.721888 144.33958L29.550013 144.33958L29.550013 145.38646L25.768763 145.38646Q25.112513 145.38646 24.800013 145.51146Q24.487513 145.63646 24.300013 145.94896Q24.096888 146.26146 24.096888 146.68333Q24.096888 147.35521 24.534388 147.85521Q24.956263 148.33958 26.143763 148.33958L29.550013 148.33958L29.550013 149.38646ZM28.612513 140.08958L29.534388 139.93333Q29.628138 140.38646 29.628138 140.73021Q29.628138 141.30833 29.456263 141.62083Q29.268763 141.93333 28.971888 142.07396Q28.675013 142.19896 27.721888 142.19896L24.143763 142.19896L24.143763 142.96458L23.331263 142.96458L23.331263 142.19896L21.784388 142.19896L21.159388 141.15208L23.331263 141.15208L23.331263 140.08958L24.143763 140.08958L24.143763 141.15208L27.784388 141.15208Q28.237513 141.15208 28.362513 141.10521Q28.487513 141.04271 28.565638 140.91771Q28.643763 140.79271 28.643763 140.55833Q28.643763 140.37083 28.612513 140.08958ZM27.690638 139.80833L27.534388 138.77708Q28.159388 138.68333 28.487513 138.29271Q28.815638 137.88646 28.815638 137.15208Q28.815638 136.43333 28.534388 136.08958Q28.237513 135.73021 27.831263 135.73021Q27.471888 135.73021 27.268763 136.04271Q27.128138 136.26146 26.909388 137.12083Q26.612513 138.27708 26.409388 138.73021Q26.190638 139.16771 25.815638 139.40208Q25.440638 139.63646 24.971888 139.63646Q24.565638 139.63646 24.206263 139.44896Q23.846888 139.26146 23.612513 138.93333Q23.440638 138.68333 23.315638 138.26146Q23.190638 137.83958 23.190638 137.33958Q23.190638 136.62083 23.409388 136.07396Q23.612513 135.51146 23.971888 135.24583Q24.331263 134.98021 24.925013 134.88646L25.065638 135.91771Q24.596888 135.98021 24.331263 136.32396Q24.050013 136.65208 24.050013 137.27708Q24.050013 137.99583 24.300013 138.30833Q24.534388 138.62083 24.862513 138.62083Q25.065638 138.62083 25.221888 138.49583Q25.393763 138.35521 25.503138 138.08958Q25.565638 137.93333 25.768763 137.15208Q26.081263 136.02708 26.268763 135.58958Q26.456263 135.15208 26.815638 134.90208Q27.175013 134.65208 27.721888 134.65208Q28.253138 134.65208 28.721888 134.96458Q29.175013 135.26146 29.440638 135.83958Q29.690638 136.41771 29.690638 137.15208Q29.690638 138.37083 29.190638 139.01146Q28.675013 139.63646 27.690638 139.80833Z" fill-rule="nonzero"/><path fill="#000000" d="M65.05 300.21564Q65.05 298.6844 65.3625 297.7625Q65.675 296.825 66.28438 296.325Q66.90938 295.825 67.84688 295.825Q68.53438 295.825 69.05 296.10626Q69.58125 296.3875 69.925 296.91876Q70.26875 297.4344 70.45625 298.1844Q70.64375 298.9344 70.64375 300.21564Q70.64375 301.73126 70.33125 302.65314Q70.03438 303.575 69.40938 304.09064Q68.8 304.59064 67.84688 304.59064Q66.6125 304.59064 65.89375 303.7Q65.05 302.6375 65.05 300.21564ZM66.12813 300.21564Q66.12813 302.325 66.62813 303.02814Q67.12813 303.73126 67.84688 303.73126Q68.58125 303.73126 69.06563 303.02814Q69.56563 302.325 69.56563 300.21564Q69.56563 298.09064 69.06563 297.40314Q68.58125 296.7 67.83125 296.7Q67.1125 296.7 66.675 297.3094Q66.12813 298.09064 66.12813 300.21564Z" fill-rule="nonzero"/><path fill="#000000" d="M70.59688 243.80104L70.59688 244.81667L64.90938 244.81667Q64.90938 244.44167 65.03438 244.08229Q65.25313 243.50417 65.72188 242.94167Q66.20625 242.37917 67.1125 241.64479Q68.51875 240.48854 69.00313 239.81667Q69.50313 239.14479 69.50313 238.55104Q69.50313 237.92604 69.05 237.50417Q68.59688 237.06667 67.87813 237.06667Q67.1125 237.06667 66.65938 237.51979Q66.20625 237.97292 66.19063 238.78542L65.1125 238.67604Q65.22188 237.45729 65.94063 236.83229Q66.675 236.19167 67.90938 236.19167Q69.14375 236.19167 69.8625 236.87917Q70.58125 237.56667 70.58125 238.58229Q70.58125 239.09792 70.3625 239.59792Q70.15938 240.08229 69.65938 240.64479Q69.175 241.19167 68.05 242.14479Q67.09688 242.94167 66.81563 243.23854Q66.55 243.51979 66.37813 243.80104L70.59688 243.80104Z" fill-rule="nonzero"/><path fill="#000000" d="M68.425 185.18333L68.425 183.12083L64.70625 183.12083L64.70625 182.15208L68.62813 176.58958L69.4875 176.58958L69.4875 182.15208L70.64375 182.15208L70.64375 183.12083L69.4875 183.12083L69.4875 185.18333L68.425 185.18333ZM68.425 182.15208L68.425 178.29271L65.7375 182.15208L68.425 182.15208Z" fill-rule="nonzero"/><path fill="#000000" d="M70.51875 119.06563L69.47188 119.14375Q69.33125 118.51875 69.08125 118.2375Q68.64375 117.78438 68.01875 117.78438Q67.51875 117.78438 67.12813 118.06563Q66.64375 118.44063 66.34688 119.14375Q66.06563 119.83125 66.05 121.1125Q66.425 120.53438 66.97188 120.25313Q67.53438 119.97188 68.14375 119.97188Q69.19063 119.97188 69.925 120.75313Q70.675 121.53438 70.675 122.75313Q70.675 123.56563 70.31563 124.26875Q69.97188 124.95625 69.3625 125.33125Q68.75313 125.69063 67.9875 125.69063Q66.65938 125.69063 65.83125 124.72188Q65.00313 123.75313 65.00313 121.53438Q65.00313 119.03438 65.925 117.90938Q66.72188 116.925 68.08125 116.925Q69.09688 116.925 69.7375 117.50313Q70.39375 118.06563 70.51875 119.06563ZM66.22188 122.76875Q66.22188 123.31563 66.44063 123.81563Q66.675 124.3 67.08125 124.56563Q67.50313 124.83125 67.97188 124.83125Q68.62813 124.83125 69.1125 124.3Q69.59688 123.75313 69.59688 122.83125Q69.59688 121.94063 69.1125 121.425Q68.64375 120.90938 67.925 120.90938Q67.20625 120.90938 66.70625 121.425Q66.22188 121.94063 66.22188 122.76875Z" fill-rule="nonzero"/><path fill="#000000" d="M66.675 61.260414Q66.01875 61.010414 65.69063 60.572914Q65.37813 60.11979 65.37813 59.510414Q65.37813 58.572914 66.05 57.93229Q66.7375 57.291664 67.84688 57.291664Q68.97188 57.291664 69.65938 57.947914Q70.34688 58.604164 70.34688 59.541664Q70.34688 60.135414 70.03438 60.572914Q69.72188 61.010414 69.08125 61.260414Q69.87813 61.510414 70.28438 62.08854Q70.69063 62.666664 70.69063 63.46354Q70.69063 64.55729 69.90938 65.30729Q69.14375 66.05729 67.8625 66.05729Q66.59688 66.05729 65.81563 65.30729Q65.03438 64.55729 65.03438 63.43229Q65.03438 62.58854 65.45625 62.02604Q65.89375 61.46354 66.675 61.260414ZM66.45625 59.46354Q66.45625 60.072914 66.84688 60.46354Q67.25313 60.854164 67.87813 60.854164Q68.4875 60.854164 68.87813 60.479164Q69.26875 60.08854 69.26875 59.52604Q69.26875 58.947914 68.8625 58.55729Q68.45625 58.15104 67.8625 58.15104Q67.25313 58.15104 66.84688 58.541664Q66.45625 58.93229 66.45625 59.46354ZM66.12813 63.43229Q66.12813 63.885414 66.33125 64.30729Q66.55 64.729164 66.97188 64.96354Q67.39375 65.197914 67.87813 65.197914Q68.62813 65.197914 69.1125 64.71354Q69.6125 64.229164 69.6125 63.479164Q69.6125 62.71354 69.1125 62.21354Q68.6125 61.71354 67.84688 61.71354Q67.09688 61.71354 66.6125 62.21354Q66.12813 62.697914 66.12813 63.43229Z" fill-rule="nonzero"/><path fill="#000000" d="M105.88903 314.4344L107.01403 314.73126Q106.654655 316.1219 105.73278 316.85626Q104.810905 317.59064 103.467155 317.59064Q102.07653 317.59064 101.20153 317.02814Q100.32653 316.46564 99.873405 315.40314Q99.42028 314.325 99.42028 313.09064Q99.42028 311.7469 99.935905 310.7469Q100.45153 309.7469 101.38903 309.23126Q102.342155 308.71564 103.48278 308.71564Q104.76403 308.71564 105.63903 309.3719Q106.529655 310.02814 106.873405 311.21564L105.748405 311.48126Q105.45153 310.54376 104.873405 310.1219Q104.310905 309.6844 103.45153 309.6844Q102.467155 309.6844 101.79528 310.16876Q101.13903 310.6375 100.85778 311.4344Q100.592155 312.23126 100.592155 313.09064Q100.592155 314.1844 100.904655 314.9969Q101.23278 315.8094 101.904655 316.21564Q102.57653 316.6219 103.373405 316.6219Q104.32653 316.6219 104.98278 316.075Q105.654655 315.52814 105.88903 314.4344ZM108.623405 317.45L108.623405 308.85626L109.67028 308.85626L109.67028 311.9344Q110.404655 311.09064 111.529655 311.09064Q112.23278 311.09064 112.73278 311.3719Q113.248405 311.6375 113.467155 312.1219Q113.685905 312.59064 113.685905 313.5125L113.685905 317.45L112.63903 317.45L112.63903 313.5125Q112.63903 312.71564 112.29528 312.35626Q111.95153 311.9969 111.32653 311.9969Q110.85778 311.9969 110.435905 312.2469Q110.029655 312.48126 109.842155 312.90314Q109.67028 313.3094 109.67028 314.04376L109.67028 317.45L108.623405 317.45ZM115.60778 317.45L115.60778 311.23126L116.560905 311.23126L116.560905 312.16876Q116.92028 311.5125 117.217155 311.3094Q117.529655 311.09064 117.904655 311.09064Q118.435905 311.09064 118.98278 311.41876L118.623405 312.40314Q118.23278 312.16876 117.85778 312.16876Q117.498405 312.16876 117.217155 312.3875Q116.95153 312.59064 116.842155 312.96564Q116.654655 313.52814 116.654655 314.1844L116.654655 317.45L115.60778 317.45ZM119.623405 310.075L119.623405 308.85626L120.685905 308.85626L120.685905 310.075L119.623405 310.075ZM119.623405 317.45L119.623405 311.23126L120.685905 311.23126L120.685905 317.45L119.623405 317.45ZM122.20153 315.59064L123.23278 315.4344Q123.32653 316.0594 123.717155 316.3875Q124.123405 316.71564 124.85778 316.71564Q125.57653 316.71564 125.92028 316.4344Q126.279655 316.1375 126.279655 315.73126Q126.279655 315.3719 125.967155 315.16876Q125.748405 315.02814 124.88903 314.8094Q123.73278 314.5125 123.279655 314.3094Q122.842155 314.09064 122.60778 313.71564Q122.373405 313.34064 122.373405 312.8719Q122.373405 312.46564 122.560905 312.10626Q122.748405 311.7469 123.07653 311.5125Q123.32653 311.34064 123.748405 311.21564Q124.17028 311.09064 124.67028 311.09064Q125.38903 311.09064 125.935905 311.3094Q126.498405 311.5125 126.76403 311.8719Q127.029655 312.23126 127.123405 312.825L126.092155 312.96564Q126.029655 312.4969 125.685905 312.23126Q125.35778 311.95 124.73278 311.95Q124.01403 311.95 123.70153 312.2Q123.38903 312.4344 123.38903 312.7625Q123.38903 312.96564 123.51403 313.1219Q123.654655 313.29376 123.92028 313.40314Q124.07653 313.46564 124.85778 313.66876Q125.98278 313.98126 126.42028 314.16876Q126.85778 314.35626 127.10778 314.71564Q127.35778 315.075 127.35778 315.6219Q127.35778 316.15314 127.04528 316.6219Q126.748405 317.075 126.17028 317.34064Q125.592155 317.59064 124.85778 317.59064Q123.63903 317.59064 122.998405 317.09064Q122.373405 316.575 122.20153 315.59064ZM131.92029 316.5125L132.07654 317.4344Q131.62341 317.52814 131.27966 317.52814Q130.70154 317.52814 130.38904 317.35626Q130.07654 317.16876 129.93591 316.8719Q129.81091 316.575 129.81091 315.6219L129.81091 312.04376L129.04529 312.04376L129.04529 311.23126L129.81091 311.23126L129.81091 309.6844L130.85779 309.0594L130.85779 311.23126L131.92029 311.23126L131.92029 312.04376L130.85779 312.04376L130.85779 315.6844Q130.85779 316.1375 130.90466 316.2625Q130.96716 316.3875 131.09216 316.46564Q131.21716 316.54376 131.45154 316.54376Q131.63904 316.54376 131.92029 316.5125ZM132.62341 310.075L132.62341 308.85626L133.68591 308.85626L133.68591 310.075L132.62341 310.075ZM132.62341 317.45L132.62341 311.23126L133.68591 311.23126L133.68591 317.45L132.62341 317.45ZM139.68591 316.6844Q139.09216 317.1844 138.54529 317.3875Q138.01404 317.59064 137.38904 317.59064Q136.35779 317.59064 135.81091 317.09064Q135.26404 316.59064 135.26404 315.8094Q135.26404 315.35626 135.46716 314.98126Q135.67029 314.59064 136.01404 314.3719Q136.35779 314.1375 136.77966 314.02814Q137.07654 313.9344 137.71716 313.85626Q138.98279 313.71564 139.59216 313.4969Q139.59216 313.27814 139.59216 313.23126Q139.59216 312.575 139.29529 312.3094Q138.88904 311.96564 138.09216 311.96564Q137.35779 311.96564 136.99841 312.23126Q136.63904 312.48126 136.46716 313.1375L135.43591 312.9969Q135.57654 312.34064 135.90466 311.9344Q136.23279 311.52814 136.84216 311.3094Q137.45154 311.09064 138.24841 311.09064Q139.04529 311.09064 139.54529 311.27814Q140.04529 311.46564 140.27966 311.7469Q140.51404 312.02814 140.60779 312.46564Q140.65466 312.73126 140.65466 313.4344L140.65466 314.84064Q140.65466 316.3094 140.71716 316.7Q140.79529 317.09064 140.99841 317.45L139.88904 317.45Q139.73279 317.1219 139.68591 316.6844ZM139.59216 314.325Q139.01404 314.5594 137.87341 314.73126Q137.21716 314.825 136.95154 314.95Q136.68591 315.0594 136.52966 315.27814Q136.38904 315.4969 136.38904 315.77814Q136.38904 316.2 136.70154 316.48126Q137.02966 316.7625 137.63904 316.7625Q138.24841 316.7625 138.71716 316.4969Q139.20154 316.23126 139.42029 315.7625Q139.59216 315.40314 139.59216 314.71564L139.59216 314.325ZM142.62341 317.45L142.62341 311.23126L143.56091 311.23126L143.56091 312.10626Q144.24841 311.09064 145.54529 311.09064Q146.10779 311.09064 146.57654 311.29376Q147.06091 311.4969 147.29529 311.825Q147.52966 312.15314 147.62341 312.59064Q147.67029 312.8875 147.67029 313.6219L147.67029 317.45L146.62341 317.45L146.62341 313.66876Q146.62341 313.0125 146.49841 312.7Q146.37341 312.3875 146.06091 312.2Q145.74841 311.9969 145.32654 311.9969Q144.65466 311.9969 144.15466 312.4344Q143.67029 312.85626 143.67029 314.04376L143.67029 317.45L142.62341 317.45Z" fill-rule="nonzero"/><path fill="#000000" d="M173.2281 315.0125L174.25935 314.8719Q174.2906 315.85626 174.61873 316.21564Q174.94685 316.575 175.5406 316.575Q175.96248 316.575 176.27498 316.3875Q176.58748 316.1844 176.69685 315.85626Q176.82185 315.5125 176.82185 314.77814L176.82185 308.85626L177.94685 308.85626L177.94685 314.71564Q177.94685 315.79376 177.68123 316.3875Q177.43123 316.98126 176.86873 317.29376Q176.30623 317.59064 175.5406 317.59064Q174.4156 317.59064 173.80623 316.95Q173.21248 316.29376 173.2281 315.0125ZM183.93123 315.45L185.02498 315.575Q184.77498 316.52814 184.07185 317.0594Q183.36873 317.59064 182.2906 317.59064Q180.93123 317.59064 180.11873 316.7469Q179.32185 315.90314 179.32185 314.3875Q179.32185 312.825 180.13435 311.96564Q180.94685 311.09064 182.2281 311.09064Q183.4781 311.09064 184.25935 311.9344Q185.05623 312.77814 185.05623 314.325Q185.05623 314.41876 185.05623 314.60626L180.4156 314.60626Q180.4781 315.6375 180.99373 316.1844Q181.50935 316.71564 182.2906 316.71564Q182.86873 316.71564 183.27498 316.41876Q183.69685 316.10626 183.93123 315.45ZM180.4781 313.7469L183.94685 313.7469Q183.88435 312.95 183.55623 312.5594Q183.0406 311.95 182.24373 311.95Q181.50935 311.95 181.00935 312.4344Q180.52498 312.91876 180.4781 313.7469ZM187.82185 317.45L185.9156 311.23126L187.00935 311.23126L187.99373 314.825L188.36873 316.15314Q188.39998 316.0594 188.69685 314.8719L189.68123 311.23126L190.75935 311.23126L191.69685 314.84064L192.00935 316.02814L192.36873 314.825L193.43123 311.23126L194.46248 311.23126L192.50935 317.45L191.4156 317.45L190.43123 313.71564L190.18123 312.66876L188.93123 317.45L187.82185 317.45ZM195.68123 310.075L195.68123 308.85626L196.74373 308.85626L196.74373 310.075L195.68123 310.075ZM195.68123 317.45L195.68123 311.23126L196.74373 311.23126L196.74373 317.45L195.68123 317.45ZM198.25935 315.59064L199.2906 315.4344Q199.38435 316.0594 199.77498 316.3875Q200.18123 316.71564 200.9156 316.71564Q201.63435 316.71564 201.9781 316.4344Q202.33748 316.1375 202.33748 315.73126Q202.33748 315.3719 202.02498 315.16876Q201.80623 315.02814 200.94685 314.8094Q199.7906 314.5125 199.33748 314.3094Q198.89998 314.09064 198.6656 313.71564Q198.43123 313.34064 198.43123 312.8719Q198.43123 312.46564 198.61873 312.10626Q198.80623 311.7469 199.13435 311.5125Q199.38435 311.34064 199.80623 311.21564Q200.2281 311.09064 200.7281 311.09064Q201.44685 311.09064 201.99373 311.3094Q202.55623 311.5125 202.82185 311.8719Q203.08748 312.23126 203.18123 312.825L202.14998 312.96564Q202.08748 312.4969 201.74373 312.23126Q201.4156 311.95 200.7906 311.95Q200.07185 311.95 199.75935 312.2Q199.44685 312.4344 199.44685 312.7625Q199.44685 312.96564 199.57185 313.1219Q199.71248 313.29376 199.9781 313.40314Q200.13435 313.46564 200.9156 313.66876Q202.0406 313.98126 202.4781 314.16876Q202.9156 314.35626 203.1656 314.71564Q203.4156 315.075 203.4156 315.6219Q203.4156 316.15314 203.1031 316.6219Q202.80623 317.075 202.2281 317.34064Q201.64998 317.59064 200.9156 317.59064Q199.69685 317.59064 199.05623 317.09064Q198.43123 316.575 198.25935 315.59064ZM205.68123 317.45L205.68123 308.85626L206.7281 308.85626L206.7281 311.9344Q207.46248 311.09064 208.58748 311.09064Q209.2906 311.09064 209.7906 311.3719Q210.30623 311.6375 210.52498 312.1219Q210.74373 312.59064 210.74373 313.5125L210.74373 317.45L209.69685 317.45L209.69685 313.5125Q209.69685 312.71564 209.3531 312.35626Q209.00935 311.9969 208.38435 311.9969Q207.9156 311.9969 207.49373 312.2469Q207.08748 312.48126 206.89998 312.90314Q206.7281 313.3094 206.7281 314.04376L206.7281 317.45L205.68123 317.45Z" fill-rule="nonzero"/><path fill="#000000" d="M237.31718 317.45L237.31718 308.85626L240.55156 308.85626Q241.53593 308.85626 242.12968 309.1219Q242.72343 309.3875 243.05156 309.9344Q243.39531 310.46564 243.39531 311.0594Q243.39531 311.60626 243.09843 312.09064Q242.80156 312.575 242.19218 312.8719Q242.97343 313.10626 243.37968 313.66876Q243.80156 314.21564 243.80156 314.96564Q243.80156 315.5594 243.55156 316.09064Q243.30156 316.60626 242.92656 316.8875Q242.55156 317.16876 241.97343 317.3094Q241.41093 317.45 240.59843 317.45L237.31718 317.45ZM238.45781 312.46564L240.31718 312.46564Q241.06718 312.46564 241.39531 312.3719Q241.83281 312.2469 242.05156 311.95Q242.27031 311.6375 242.27031 311.1844Q242.27031 310.7625 242.06718 310.4344Q241.86406 310.10626 241.47343 309.9969Q241.09843 309.8719 240.17656 309.8719L238.45781 309.8719L238.45781 312.46564ZM238.45781 316.4344L240.59843 316.4344Q241.14531 316.4344 241.36406 316.3875Q241.77031 316.325 242.02031 316.16876Q242.28593 315.9969 242.45781 315.6844Q242.62968 315.3719 242.62968 314.96564Q242.62968 314.48126 242.37968 314.1219Q242.14531 313.7625 241.70781 313.6219Q241.27031 313.48126 240.44218 313.48126L238.45781 313.48126L238.45781 316.4344ZM249.31718 317.45L249.31718 316.52814Q248.58281 317.59064 247.33281 317.59064Q246.78593 317.59064 246.30156 317.3875Q245.83281 317.16876 245.59843 316.85626Q245.36406 316.52814 245.27031 316.0594Q245.20781 315.7625 245.20781 315.075L245.20781 311.23126L246.27031 311.23126L246.27031 314.6844Q246.27031 315.4969 246.33281 315.79376Q246.42656 316.2 246.73906 316.45Q247.06718 316.6844 247.55156 316.6844Q248.02031 316.6844 248.42656 316.45Q248.84843 316.2 249.02031 315.77814Q249.20781 315.35626 249.20781 314.5594L249.20781 311.23126L250.25468 311.23126L250.25468 317.45L249.31718 317.45ZM256.27032 317.45L256.27032 316.66876Q255.67656 317.59064 254.53593 317.59064Q253.78593 317.59064 253.16093 317.1844Q252.53593 316.7625 252.19218 316.02814Q251.84843 315.29376 251.84843 314.34064Q251.84843 313.41876 252.16093 312.65314Q252.47343 311.8875 253.09843 311.4969Q253.72343 311.09064 254.48906 311.09064Q255.05156 311.09064 255.48906 311.325Q255.92656 311.5594 256.20782 311.9344L256.20782 308.85626L257.2547 308.85626L257.2547 317.45L256.27032 317.45ZM252.94218 314.34064Q252.94218 315.54376 253.44218 316.1375Q253.94218 316.71564 254.62968 316.71564Q255.31718 316.71564 255.80156 316.15314Q256.28595 315.59064 256.28595 314.4344Q256.28595 313.15314 255.78593 312.5594Q255.30156 311.96564 254.58281 311.96564Q253.87968 311.96564 253.41093 312.54376Q252.94218 313.10626 252.94218 314.34064ZM263.27032 317.45L263.27032 316.66876Q262.67657 317.59064 261.53595 317.59064Q260.78595 317.59064 260.16095 317.1844Q259.53595 316.7625 259.1922 316.02814Q258.84845 315.29376 258.84845 314.34064Q258.84845 313.41876 259.16095 312.65314Q259.47345 311.8875 260.09845 311.4969Q260.72345 311.09064 261.48907 311.09064Q262.05157 311.09064 262.48907 311.325Q262.92657 311.5594 263.20782 311.9344L263.20782 308.85626L264.2547 308.85626L264.2547 317.45L263.27032 317.45ZM259.9422 314.34064Q259.9422 315.54376 260.4422 316.1375Q260.9422 316.71564 261.6297 316.71564Q262.3172 316.71564 262.80157 316.15314Q263.28595 315.59064 263.28595 314.4344Q263.28595 313.15314 262.78595 312.5594Q262.30157 311.96564 261.58282 311.96564Q260.8797 311.96564 260.41095 312.54376Q259.9422 313.10626 259.9422 314.34064ZM266.23907 317.45L266.23907 308.85626L267.28595 308.85626L267.28595 311.9344Q268.02032 311.09064 269.14532 311.09064Q269.84845 311.09064 270.34845 311.3719Q270.86407 311.6375 271.08282 312.1219Q271.30157 312.59064 271.30157 313.5125L271.30157 317.45L270.2547 317.45L270.2547 313.5125Q270.2547 312.71564 269.91095 312.35626Q269.5672 311.9969 268.9422 311.9969Q268.47345 311.9969 268.05157 312.2469Q267.64532 312.48126 267.45782 312.90314Q267.28595 313.3094 267.28595 314.04376L267.28595 317.45L266.23907 317.45ZM273.23907 310.075L273.23907 308.85626L274.30157 308.85626L274.30157 310.075L273.23907 310.075ZM273.23907 317.45L273.23907 311.23126L274.30157 311.23126L274.30157 317.45L273.23907 317.45ZM275.8172 315.59064L276.84845 315.4344Q276.9422 316.0594 277.33282 316.3875Q277.73907 316.71564 278.47345 316.71564Q279.1922 316.71564 279.53595 316.4344Q279.89532 316.1375 279.89532 315.73126Q279.89532 315.3719 279.58282 315.16876Q279.36407 315.02814 278.5047 314.8094Q277.34845 314.5125 276.89532 314.3094Q276.45782 314.09064 276.22345 313.71564Q275.98907 313.34064 275.98907 312.8719Q275.98907 312.46564 276.17657 312.10626Q276.36407 311.7469 276.6922 311.5125Q276.9422 311.34064 277.36407 311.21564Q277.78595 311.09064 278.28595 311.09064Q279.0047 311.09064 279.55157 311.3094Q280.11407 311.5125 280.3797 311.8719Q280.64532 312.23126 280.73907 312.825L279.70782 312.96564Q279.64532 312.4969 279.30157 312.23126Q278.97345 311.95 278.34845 311.95Q277.6297 311.95 277.3172 312.2Q277.0047 312.4344 277.0047 312.7625Q277.0047 312.96564 277.1297 313.1219Q277.27032 313.29376 277.53595 313.40314Q277.6922 313.46564 278.47345 313.66876Q279.59845 313.98126 280.03595 314.16876Q280.47345 314.35626 280.72345 314.71564Q280.97345 315.075 280.97345 315.6219Q280.97345 316.15314 280.66095 316.6219Q280.36407 317.075 279.78595 317.34064Q279.20782 317.59064 278.47345 317.59064Q277.2547 317.59064 276.61407 317.09064Q275.98907 316.575 275.8172 315.59064ZM285.53595 316.5125L285.6922 317.4344Q285.23907 317.52814 284.89532 317.52814Q284.3172 317.52814 284.0047 317.35626Q283.6922 317.16876 283.55157 316.8719Q283.42657 316.575 283.42657 315.6219L283.42657 312.04376L282.66095 312.04376L282.66095 311.23126L283.42657 311.23126L283.42657 309.6844L284.47345 309.0594L284.47345 311.23126L285.53595 311.23126L285.53595 312.04376L284.47345 312.04376L284.47345 315.6844Q284.47345 316.1375 284.52032 316.2625Q284.58282 316.3875 284.70782 316.46564Q284.83282 316.54376 285.0672 316.54376Q285.2547 316.54376 285.53595 316.5125Z" fill-rule="nonzero"/><path fill="#000000" d="M313.96875 317.45L313.96875 308.85626L315.09375 308.85626L315.09375 312.3875L319.5625 312.3875L319.5625 308.85626L320.70312 308.85626L320.70312 317.45L319.5625 317.45L319.5625 313.40314L315.09375 313.40314L315.09375 317.45L313.96875 317.45ZM322.79688 310.075L322.79688 308.85626L323.85938 308.85626L323.85938 310.075L322.79688 310.075ZM322.79688 317.45L322.79688 311.23126L323.85938 311.23126L323.85938 317.45L322.79688 317.45ZM325.79688 317.45L325.79688 311.23126L326.73438 311.23126L326.73438 312.10626Q327.42188 311.09064 328.71875 311.09064Q329.28125 311.09064 329.75 311.29376Q330.23438 311.4969 330.46875 311.825Q330.70312 312.15314 330.79688 312.59064Q330.84375 312.8875 330.84375 313.6219L330.84375 317.45L329.79688 317.45L329.79688 313.66876Q329.79688 313.0125 329.67188 312.7Q329.54688 312.3875 329.23438 312.2Q328.92188 311.9969 328.5 311.9969Q327.82812 311.9969 327.32812 312.4344Q326.84375 312.85626 326.84375 314.04376L326.84375 317.45L325.79688 317.45ZM336.82812 317.45L336.82812 316.66876Q336.23438 317.59064 335.09375 317.59064Q334.34375 317.59064 333.71875 317.1844Q333.09375 316.7625 332.75 316.02814Q332.40625 315.29376 332.40625 314.34064Q332.40625 313.41876 332.71875 312.65314Q333.03125 311.8875 333.65625 311.4969Q334.28125 311.09064 335.04688 311.09064Q335.60938 311.09064 336.04688 311.325Q336.48438 311.5594 336.76562 311.9344L336.76562 308.85626L337.8125 308.85626L337.8125 317.45L336.82812 317.45ZM333.5 314.34064Q333.5 315.54376 334.0 316.1375Q334.5 316.71564 335.1875 316.71564Q335.875 316.71564 336.35938 316.15314Q336.84375 315.59064 336.84375 314.4344Q336.84375 313.15314 336.34375 312.5594Q335.85938 311.96564 335.14062 311.96564Q334.4375 311.96564 333.96875 312.54376Q333.5 313.10626 333.5 314.34064ZM343.875 317.45L343.875 316.52814Q343.14062 317.59064 341.89062 317.59064Q341.34375 317.59064 340.85938 317.3875Q340.39062 317.16876 340.15625 316.85626Q339.92188 316.52814 339.82812 316.0594Q339.76562 315.7625 339.76562 315.075L339.76562 311.23126L340.82812 311.23126L340.82812 314.6844Q340.82812 315.4969 340.89062 315.79376Q340.98438 316.2 341.29688 316.45Q341.625 316.6844 342.10938 316.6844Q342.57812 316.6844 342.98438 316.45Q343.40625 316.2 343.57812 315.77814Q343.76562 315.35626 343.76562 314.5594L343.76562 311.23126L344.8125 311.23126L344.8125 317.45L343.875 317.45Z" fill-rule="nonzero"/><path fill="#000000" d="M374.5422 317.45L377.83908 308.85626L379.05783 308.85626L382.57346 317.45L381.2922 317.45L380.27658 314.84064L376.69846 314.84064L375.74533 317.45L374.5422 317.45ZM377.02658 313.91876L379.93283 313.91876L379.0422 311.54376Q378.62033 310.46564 378.43283 309.7625Q378.26096 310.59064 377.96408 311.40314L377.02658 313.91876ZM382.15158 317.96564L383.18283 318.1219Q383.24533 318.59064 383.5422 318.8094Q383.93283 319.10626 384.6047 319.10626Q385.33908 319.10626 385.7297 318.8094Q386.13596 318.5125 386.27658 317.9969Q386.37033 317.66876 386.3547 316.6375Q385.6672 317.45 384.63596 317.45Q383.3547 317.45 382.65158 316.52814Q381.94846 315.59064 381.94846 314.3094Q381.94846 313.41876 382.26096 312.66876Q382.58908 311.90314 383.19846 311.4969Q383.80783 311.09064 384.63596 311.09064Q385.74533 311.09064 386.46408 311.98126L386.46408 311.23126L387.43283 311.23126L387.43283 316.60626Q387.43283 318.0594 387.13596 318.66876Q386.83908 319.27814 386.19846 319.6219Q385.55783 319.98126 384.62033 319.98126Q383.51096 319.98126 382.82346 319.48126Q382.13596 318.98126 382.15158 317.96564ZM383.02658 314.23126Q383.02658 315.45 383.51096 316.0125Q383.99533 316.575 384.7297 316.575Q385.46408 316.575 385.94846 316.0125Q386.44846 315.45 386.44846 314.2625Q386.44846 313.1219 385.93283 312.54376Q385.43283 311.96564 384.71408 311.96564Q384.01096 311.96564 383.51096 312.54376Q383.02658 313.10626 383.02658 314.23126ZM389.3547 317.45L389.3547 311.23126L390.2922 311.23126L390.2922 312.10626Q390.9797 311.09064 392.27658 311.09064Q392.83908 311.09064 393.30783 311.29376Q393.7922 311.4969 394.02658 311.825Q394.26096 312.15314 394.3547 312.59064Q394.40158 312.8875 394.40158 313.6219L394.40158 317.45L393.3547 317.45L393.3547 313.66876Q393.3547 313.0125 393.2297 312.7Q393.1047 312.3875 392.7922 312.2Q392.4797 311.9969 392.05783 311.9969Q391.38596 311.9969 390.88596 312.4344Q390.40158 312.85626 390.40158 314.04376L390.40158 317.45L389.3547 317.45ZM395.96408 314.34064Q395.96408 312.60626 396.9172 311.77814Q397.71408 311.09064 398.87033 311.09064Q400.15158 311.09064 400.96408 311.9344Q401.7922 312.7625 401.7922 314.2469Q401.7922 315.45 401.43283 316.1375Q401.07346 316.825 400.37033 317.21564Q399.68283 317.59064 398.87033 317.59064Q397.57346 317.59064 396.76096 316.7625Q395.96408 315.91876 395.96408 314.34064ZM397.0422 314.34064Q397.0422 315.52814 397.55783 316.1219Q398.08908 316.71564 398.87033 316.71564Q399.6672 316.71564 400.18283 316.1219Q400.69846 315.52814 400.69846 314.3094Q400.69846 313.15314 400.1672 312.5594Q399.65158 311.96564 398.87033 311.96564Q398.08908 311.96564 397.55783 312.5594Q397.0422 313.1375 397.0422 314.34064ZM402.93283 315.59064L403.96408 315.4344Q404.05783 316.0594 404.44846 316.3875Q404.8547 316.71564 405.58908 316.71564Q406.30783 316.71564 406.65158 316.4344Q407.01096 316.1375 407.01096 315.73126Q407.01096 315.3719 406.69846 315.16876Q406.4797 315.02814 405.62033 314.8094Q404.46408 314.5125 404.01096 314.3094Q403.57346 314.09064 403.33908 313.71564Q403.1047 313.34064 403.1047 312.8719Q403.1047 312.46564 403.2922 312.10626Q403.4797 311.7469 403.80783 311.5125Q404.05783 311.34064 404.4797 311.21564Q404.90158 311.09064 405.40158 311.09064Q406.12033 311.09064 406.6672 311.3094Q407.2297 311.5125 407.49533 311.8719Q407.76096 312.23126 407.8547 312.825L406.82346 312.96564Q406.76096 312.4969 406.4172 312.23126Q406.08908 311.95 405.46408 311.95Q404.74533 311.95 404.43283 312.2Q404.12033 312.4344 404.12033 312.7625Q404.12033 312.96564 404.24533 313.1219Q404.38596 313.29376 404.65158 313.40314Q404.80783 313.46564 405.58908 313.66876Q406.71408 313.98126 407.15158 314.16876Q407.58908 314.35626 407.83908 314.71564Q408.08908 315.075 408.08908 315.6219Q408.08908 316.15314 407.77658 316.6219Q407.4797 317.075 406.90158 317.34064Q406.32346 317.59064 405.58908 317.59064Q404.37033 317.59064 403.7297 317.09064Q403.1047 316.575 402.93283 315.59064ZM412.65158 316.5125L412.80783 317.4344Q412.3547 317.52814 412.01096 317.52814Q411.43283 317.52814 411.12033 317.35626Q410.80783 317.16876 410.6672 316.8719Q410.5422 316.575 410.5422 315.6219L410.5422 312.04376L409.77658 312.04376L409.77658 311.23126L410.5422 311.23126L410.5422 309.6844L411.58908 309.0594L411.58908 311.23126L412.65158 311.23126L412.65158 312.04376L411.58908 312.04376L411.58908 315.6844Q411.58908 316.1375 411.63596 316.2625Q411.69846 316.3875 411.82346 316.46564Q411.94846 316.54376 412.18283 316.54376Q412.37033 316.54376 412.65158 316.5125ZM413.3547 310.075L413.3547 308.85626L414.4172 308.85626L414.4172 310.075L413.3547 310.075ZM413.3547 317.45L413.3547 311.23126L414.4172 311.23126L414.4172 317.45L413.3547 317.45ZM420.4172 315.16876L421.44846 315.3094Q421.27658 316.3719 420.57346 316.98126Q419.87033 317.59064 418.8547 317.59064Q417.57346 317.59064 416.7922 316.7625Q416.02658 315.91876 416.02658 314.35626Q416.02658 313.35626 416.3547 312.60626Q416.69846 311.84064 417.37033 311.46564Q418.05783 311.09064 418.87033 311.09064Q419.87033 311.09064 420.51096 311.60626Q421.1672 312.10626 421.3547 313.0594L420.32346 313.21564Q420.18283 312.59064 419.80783 312.27814Q419.43283 311.95 418.90158 311.95Q418.1047 311.95 417.6047 312.52814Q417.1047 313.09064 417.1047 314.325Q417.1047 315.59064 417.58908 316.15314Q418.07346 316.71564 418.83908 316.71564Q419.46408 316.71564 419.87033 316.34064Q420.2922 315.96564 420.4172 315.16876Z" fill-rule="nonzero"/><path fill="#000000" d="M448.1 317.45L451.39688 308.85626L452.61563 308.85626L456.13126 317.45L454.85 317.45L453.83438 314.84064L450.25626 314.84064L449.30313 317.45L448.1 317.45ZM450.58438 313.91876L453.49063 313.91876L452.6 311.54376Q452.17813 310.46564 451.99063 309.7625Q451.81876 310.59064 451.52188 311.40314L450.58438 313.91876ZM458.20938 316.5125L458.36563 317.4344Q457.9125 317.52814 457.56876 317.52814Q456.99063 317.52814 456.67813 317.35626Q456.36563 317.16876 456.225 316.8719Q456.1 316.575 456.1 315.6219L456.1 312.04376L455.33438 312.04376L455.33438 311.23126L456.1 311.23126L456.1 309.6844L457.14688 309.0594L457.14688 311.23126L458.20938 311.23126L458.20938 312.04376L457.14688 312.04376L457.14688 315.6844Q457.14688 316.1375 457.19376 316.2625Q457.25626 316.3875 457.38126 316.46564Q457.50626 316.54376 457.74063 316.54376Q457.92813 316.54376 458.20938 316.5125ZM458.9125 317.45L458.9125 308.85626L459.95938 308.85626L459.95938 311.9344Q460.69376 311.09064 461.81876 311.09064Q462.52188 311.09064 463.02188 311.3719Q463.5375 311.6375 463.75626 312.1219Q463.975 312.59064 463.975 313.5125L463.975 317.45L462.92813 317.45L462.92813 313.5125Q462.92813 312.71564 462.58438 312.35626Q462.24063 311.9969 461.61563 311.9969Q461.14688 311.9969 460.725 312.2469Q460.31876 312.48126 460.13126 312.90314Q459.95938 313.3094 459.95938 314.04376L459.95938 317.45L458.9125 317.45ZM470.1625 315.45L471.25626 315.575Q471.00626 316.52814 470.30313 317.0594Q469.6 317.59064 468.52188 317.59064Q467.1625 317.59064 466.35 316.7469Q465.55313 315.90314 465.55313 314.3875Q465.55313 312.825 466.36563 311.96564Q467.17813 311.09064 468.45938 311.09064Q469.70938 311.09064 470.49063 311.9344Q471.2875 312.77814 471.2875 314.325Q471.2875 314.41876 471.2875 314.60626L466.64688 314.60626Q466.70938 315.6375 467.225 316.1844Q467.74063 316.71564 468.52188 316.71564Q469.1 316.71564 469.50626 316.41876Q469.92813 316.10626 470.1625 315.45ZM466.70938 313.7469L470.17813 313.7469Q470.11563 312.95 469.7875 312.5594Q469.27188 311.95 468.475 311.95Q467.74063 311.95 467.24063 312.4344Q466.75626 312.91876 466.70938 313.7469ZM472.9125 310.075L472.9125 308.85626L473.975 308.85626L473.975 310.075L472.9125 310.075ZM472.9125 317.45L472.9125 311.23126L473.975 311.23126L473.975 317.45L472.9125 317.45ZM475.49063 315.59064L476.52188 315.4344Q476.61563 316.0594 477.00626 316.3875Q477.4125 316.71564 478.14688 316.71564Q478.86563 316.71564 479.20938 316.4344Q479.56876 316.1375 479.56876 315.73126Q479.56876 315.3719 479.25626 315.16876Q479.0375 315.02814 478.17813 314.8094Q477.02188 314.5125 476.56876 314.3094Q476.13126 314.09064 475.89688 313.71564Q475.6625 313.34064 475.6625 312.8719Q475.6625 312.46564 475.85 312.10626Q476.0375 311.7469 476.36563 311.5125Q476.61563 311.34064 477.0375 311.21564Q477.45938 311.09064 477.95938 311.09064Q478.67813 311.09064 479.225 311.3094Q479.7875 311.5125 480.05313 311.8719Q480.31876 312.23126 480.4125 312.825L479.38126 312.96564Q479.31876 312.4969 478.975 312.23126Q478.64688 311.95 478.02188 311.95Q477.30313 311.95 476.99063 312.2Q476.67813 312.4344 476.67813 312.7625Q476.67813 312.96564 476.80313 313.1219Q476.94376 313.29376 477.20938 313.40314Q477.36563 313.46564 478.14688 313.66876Q479.27188 313.98126 479.70938 314.16876Q480.14688 314.35626 480.39688 314.71564Q480.64688 315.075 480.64688 315.6219Q480.64688 316.15314 480.33438 316.6219Q480.0375 317.075 479.45938 317.34064Q478.88126 317.59064 478.14688 317.59064Q476.92813 317.59064 476.2875 317.09064Q475.6625 316.575 475.49063 315.59064ZM485.20938 316.5125L485.36563 317.4344Q484.9125 317.52814 484.56876 317.52814Q483.99063 317.52814 483.67813 317.35626Q483.36563 317.16876 483.225 316.8719Q483.1 316.575 483.1 315.6219L483.1 312.04376L482.33438 312.04376L482.33438 311.23126L483.1 311.23126L483.1 309.6844L484.14688 309.0594L484.14688 311.23126L485.20938 311.23126L485.20938 312.04376L484.14688 312.04376L484.14688 315.6844Q484.14688 316.1375 484.19376 316.2625Q484.25626 316.3875 484.38126 316.46564Q484.50626 316.54376 484.74063 316.54376Q484.92813 316.54376 485.20938 316.5125Z" fill-rule="nonzero"/><path fill="#000000" d="M521.23596 308.85626L522.3766 308.85626L522.3766 313.825Q522.3766 315.1219 522.0797 315.8875Q521.78284 316.6375 521.0172 317.1219Q520.2516 317.59064 519.0172 317.59064Q517.8141 317.59064 517.03284 317.1844Q516.2672 316.7625 515.9391 315.98126Q515.61096 315.1844 515.61096 313.825L515.61096 308.85626L516.7516 308.85626L516.7516 313.8094Q516.7516 314.9344 516.9547 315.46564Q517.17346 315.9969 517.67346 316.29376Q518.1891 316.575 518.92346 316.575Q520.17346 316.575 520.7047 316.0125Q521.23596 315.4344 521.23596 313.8094L521.23596 308.85626ZM524.47034 317.45L524.47034 311.23126L525.40784 311.23126L525.40784 312.10626Q526.09534 311.09064 527.3922 311.09064Q527.9547 311.09064 528.42346 311.29376Q528.90784 311.4969 529.1422 311.825Q529.3766 312.15314 529.47034 312.59064Q529.5172 312.8875 529.5172 313.6219L529.5172 317.45L528.47034 317.45L528.47034 313.66876Q528.47034 313.0125 528.34534 312.7Q528.22034 312.3875 527.90784 312.2Q527.59534 311.9969 527.17346 311.9969Q526.5016 311.9969 526.0016 312.4344Q525.5172 312.85626 525.5172 314.04376L525.5172 317.45L524.47034 317.45ZM531.04846 315.59064L532.0797 315.4344Q532.17346 316.0594 532.5641 316.3875Q532.97034 316.71564 533.7047 316.71564Q534.42346 316.71564 534.7672 316.4344Q535.1266 316.1375 535.1266 315.73126Q535.1266 315.3719 534.8141 315.16876Q534.59534 315.02814 533.73596 314.8094Q532.5797 314.5125 532.1266 314.3094Q531.6891 314.09064 531.4547 313.71564Q531.22034 313.34064 531.22034 312.8719Q531.22034 312.46564 531.40784 312.10626Q531.59534 311.7469 531.92346 311.5125Q532.17346 311.34064 532.59534 311.21564Q533.0172 311.09064 533.5172 311.09064Q534.23596 311.09064 534.78284 311.3094Q535.34534 311.5125 535.61096 311.8719Q535.8766 312.23126 535.97034 312.825L534.9391 312.96564Q534.8766 312.4969 534.53284 312.23126Q534.2047 311.95 533.5797 311.95Q532.86096 311.95 532.54846 312.2Q532.23596 312.4344 532.23596 312.7625Q532.23596 312.96564 532.36096 313.1219Q532.5016 313.29376 532.7672 313.40314Q532.92346 313.46564 533.7047 313.66876Q534.8297 313.98126 535.2672 314.16876Q535.7047 314.35626 535.9547 314.71564Q536.2047 315.075 536.2047 315.6219Q536.2047 316.15314 535.8922 316.6219Q535.59534 317.075 535.0172 317.34064Q534.4391 317.59064 533.7047 317.59064Q532.48596 317.59064 531.84534 317.09064Q531.22034 316.575 531.04846 315.59064ZM542.54846 317.45L542.54846 316.52814Q541.8141 317.59064 540.5641 317.59064Q540.0172 317.59064 539.53284 317.3875Q539.0641 317.16876 538.8297 316.85626Q538.59534 316.52814 538.5016 316.0594Q538.4391 315.7625 538.4391 315.075L538.4391 311.23126L539.5016 311.23126L539.5016 314.6844Q539.5016 315.4969 539.5641 315.79376Q539.65784 316.2 539.97034 316.45Q540.29846 316.6844 540.78284 316.6844Q541.2516 316.6844 541.65784 316.45Q542.0797 316.2 542.2516 315.77814Q542.4391 315.35626 542.4391 314.5594L542.4391 311.23126L543.48596 311.23126L543.48596 317.45L542.54846 317.45ZM545.4547 317.45L545.4547 311.23126L546.40784 311.23126L546.40784 312.16876Q546.7672 311.5125 547.0641 311.3094Q547.3766 311.09064 547.7516 311.09064Q548.28284 311.09064 548.8297 311.41876L548.47034 312.40314Q548.0797 312.16876 547.7047 312.16876Q547.34534 312.16876 547.0641 312.3875Q546.79846 312.59064 546.6891 312.96564Q546.5016 313.52814 546.5016 314.1844L546.5016 317.45L545.4547 317.45ZM553.72034 315.45L554.8141 315.575Q554.5641 316.52814 553.86096 317.0594Q553.15784 317.59064 552.0797 317.59064Q550.72034 317.59064 549.90784 316.7469Q549.11096 315.90314 549.11096 314.3875Q549.11096 312.825 549.92346 311.96564Q550.73596 311.09064 552.0172 311.09064Q553.2672 311.09064 554.04846 311.9344Q554.84534 312.77814 554.84534 314.325Q554.84534 314.41876 554.84534 314.60626L550.2047 314.60626Q550.2672 315.6375 550.78284 316.1844Q551.29846 316.71564 552.0797 316.71564Q552.65784 316.71564 553.0641 316.41876Q553.48596 316.10626 553.72034 315.45ZM550.2672 313.7469L553.73596 313.7469Q553.67346 312.95 553.34534 312.5594Q552.8297 311.95 552.03284 311.95Q551.29846 311.95 550.79846 312.4344Q550.3141 312.91876 550.2672 313.7469Z" fill-rule="nonzero"/><path fill="#757575" d="M22.596874 37.55L18.8 23.2375L20.7375 23.2375L22.909374 32.6125Q23.26875 34.096874 23.51875 35.55Q24.065624 33.253124 24.159374 32.89375L26.89375 23.2375L29.175 23.2375L31.221874 30.471874Q32.003124 33.175 32.346874 35.55Q32.6125 34.190624 33.05 32.425L35.3 23.2375L37.20625 23.2375L33.284374 37.55L31.45625 37.55L28.440624 26.64375Q28.05 25.26875 27.9875 24.95625Q27.753124 25.940624 27.565624 26.64375L24.534374 37.55L22.596874 37.55ZM38.8625 37.55L38.8625 23.2375L40.628124 23.2375L40.628124 28.3625Q41.8625 26.940624 43.7375 26.940624Q44.878124 26.940624 45.721874 27.39375Q46.58125 27.846874 46.940624 28.659374Q47.315624 29.45625 47.315624 30.971874L47.315624 37.55L45.565624 37.55L45.565624 30.971874Q45.565624 29.659374 44.9875 29.065624Q44.409374 28.45625 43.378124 28.45625Q42.596874 28.45625 41.89375 28.8625Q41.20625 29.26875 40.909374 29.971874Q40.628124 30.659374 40.628124 31.878124L40.628124 37.55L38.8625 37.55ZM55.64375 36.26875Q54.659374 37.096874 53.753124 37.440624Q52.846874 37.784374 51.815624 37.784374Q50.1125 37.784374 49.190624 36.95625Q48.26875 36.1125 48.26875 34.815624Q48.26875 34.05 48.6125 33.425Q48.971874 32.8 49.534374 32.425Q50.096874 32.034374 50.8 31.83125Q51.315624 31.70625 52.3625 31.565624Q54.4875 31.315624 55.4875 30.971874Q55.503124 30.6125 55.503124 30.503124Q55.503124 29.440624 55.003124 28.9875Q54.33125 28.39375 53.003124 28.39375Q51.753124 28.39375 51.159374 28.83125Q50.58125 29.26875 50.3 30.378124L48.58125 30.14375Q48.815624 29.034374 49.346874 28.3625Q49.878124 27.675 50.89375 27.315624Q51.909374 26.940624 53.253124 26.940624Q54.58125 26.940624 55.409374 27.253124Q56.2375 27.565624 56.628124 28.05Q57.01875 28.51875 57.175 29.2375Q57.26875 29.690624 57.26875 30.8625L57.26875 33.20625Q57.26875 35.659374 57.378124 36.315624Q57.4875 36.95625 57.83125 37.55L55.9875 37.55Q55.721874 37.003124 55.64375 36.26875ZM55.4875 32.346874Q54.534374 32.7375 52.6125 33.003124Q51.534374 33.159374 51.08125 33.3625Q50.64375 33.55 50.39375 33.925Q50.14375 34.3 50.14375 34.76875Q50.14375 35.471874 50.675 35.940624Q51.20625 36.409374 52.2375 36.409374Q53.253124 36.409374 54.034374 35.971874Q54.83125 35.51875 55.20625 34.753124Q55.4875 34.14375 55.4875 32.9875L55.4875 32.346874ZM63.70625 35.971874L63.95625 37.534374Q63.221874 37.690624 62.628124 37.690624Q61.675 37.690624 61.14375 37.39375Q60.628124 37.08125 60.409374 36.596874Q60.190624 36.096874 60.190624 34.51875L60.190624 28.55L58.909374 28.55L58.909374 27.175L60.190624 27.175L60.190624 24.6125L61.940624 23.55L61.940624 27.175L63.70625 27.175L63.70625 28.55L61.940624 28.55L61.940624 34.6125Q61.940624 35.3625 62.034374 35.58125Q62.128124 35.784374 62.33125 35.925Q62.55 36.05 62.940624 36.05Q63.221874 36.05 63.70625 35.971874ZM71.87813 25.253124L71.87813 23.2375L73.64375 23.2375L73.64375 25.253124L71.87813 25.253124ZM71.87813 37.55L71.87813 27.175L73.64375 27.175L73.64375 37.55L71.87813 37.55ZM75.15938 34.45625L76.90938 34.175Q77.05 35.221874 77.72188 35.784374Q78.39375 36.33125 79.59688 36.33125Q80.8 36.33125 81.37813 35.846874Q81.97188 35.346874 81.97188 34.690624Q81.97188 34.096874 81.45625 33.753124Q81.09688 33.51875 79.65938 33.159374Q77.72188 32.659374 76.97188 32.315624Q76.2375 31.95625 75.84688 31.33125Q75.45625 30.690624 75.45625 29.925Q75.45625 29.2375 75.76875 28.64375Q76.09688 28.05 76.64375 27.659374Q77.05 27.3625 77.75313 27.159374Q78.47188 26.940624 79.28438 26.940624Q80.50313 26.940624 81.425 27.3Q82.34688 27.64375 82.78438 28.253124Q83.22188 28.846874 83.39375 29.846874L81.675 30.08125Q81.55 29.284374 80.9875 28.846874Q80.425 28.39375 79.40938 28.39375Q78.19063 28.39375 77.675 28.8Q77.15938 29.190624 77.15938 29.721874Q77.15938 30.065624 77.37813 30.346874Q77.58125 30.628124 78.05 30.815624Q78.31563 30.909374 79.59688 31.253124Q81.47188 31.753124 82.20625 32.08125Q82.94063 32.39375 83.3625 33.003124Q83.78438 33.596874 83.78438 34.503124Q83.78438 35.378124 83.26875 36.159374Q82.75313 36.940624 81.78438 37.3625Q80.81563 37.784374 79.59688 37.784374Q77.58125 37.784374 76.51875 36.940624Q75.45625 36.096874 75.15938 34.45625ZM91.78438 41.55L91.59688 39.89375Q92.175 40.05 92.59688 40.05Q93.19063 40.05 93.53438 39.846874Q93.89375 39.659374 94.1125 39.315624Q94.28438 39.05 94.65938 38.003124Q94.70625 37.846874 94.81563 37.565624L90.87813 27.175L92.76875 27.175L94.925 33.190624Q95.34688 34.33125 95.675 35.58125Q95.9875 34.378124 96.39375 33.221874L98.6125 27.175L100.37813 27.175L96.425 37.721874Q95.8 39.440624 95.44063 40.08125Q94.97188 40.95625 94.3625 41.346874Q93.76875 41.753124 92.925 41.753124Q92.40938 41.753124 91.78438 41.55ZM101.22188 32.3625Q101.22188 29.4875 102.81563 28.096874Q104.15938 26.940624 106.08125 26.940624Q108.22188 26.940624 109.56563 28.346874Q110.925 29.753124 110.925 32.221874Q110.925 34.221874 110.33125 35.378124Q109.7375 36.51875 108.58125 37.159374Q107.44063 37.784374 106.08125 37.784374Q103.89375 37.784374 102.55 36.39375Q101.22188 34.9875 101.22188 32.3625ZM103.01875 32.3625Q103.01875 34.3625 103.87813 35.346874Q104.75313 36.33125 106.08125 36.33125Q107.39375 36.33125 108.25313 35.346874Q109.12813 34.346874 109.12813 32.3Q109.12813 30.378124 108.25313 29.39375Q107.37813 28.39375 106.08125 28.39375Q104.75313 28.39375 103.87813 29.39375Q103.01875 30.378124 103.01875 32.3625ZM119.65938 37.55L119.65938 36.01875Q118.45625 37.784374 116.37813 37.784374Q115.45625 37.784374 114.65938 37.440624Q113.8625 37.08125 113.47188 36.55Q113.09688 36.01875 112.94063 35.2375Q112.83125 34.721874 112.83125 33.596874L112.83125 27.175L114.58125 27.175L114.58125 32.925Q114.58125 34.3 114.69063 34.784374Q114.8625 35.471874 115.39375 35.878124Q115.94063 36.26875 116.72188 36.26875Q117.51875 36.26875 118.20625 35.8625Q118.90938 35.45625 119.19063 34.76875Q119.4875 34.065624 119.4875 32.7375L119.4875 27.175L121.2375 27.175L121.2375 37.55L119.65938 37.55ZM122.84688 37.55L122.84688 27.175L124.425 27.175L124.425 28.753124Q125.03438 27.64375 125.55 27.3Q126.06563 26.940624 126.675 26.940624Q127.56563 26.940624 128.4875 27.503124L127.87813 29.14375Q127.2375 28.753124 126.59688 28.753124Q126.01875 28.753124 125.55 29.1125Q125.09688 29.45625 124.89375 30.065624Q124.6125 31.003124 124.6125 32.1125L124.6125 37.55L122.84688 37.55ZM135.8625 41.51875L135.8625 27.175L137.47188 27.175L137.47188 28.51875Q138.03438 27.7375 138.7375 27.346874Q139.45625 26.940624 140.47188 26.940624Q141.8 26.940624 142.81563 27.628124Q143.83125 28.315624 144.34688 29.565624Q144.87813 30.8 144.87813 32.284374Q144.87813 33.878124 144.3 35.159374Q143.7375 36.425 142.64375 37.1125Q141.55 37.784374 140.34688 37.784374Q139.47188 37.784374 138.76875 37.409374Q138.08125 37.034374 137.62813 36.471874L137.62813 41.51875L135.8625 41.51875ZM137.45625 32.425Q137.45625 34.425 138.26875 35.378124Q139.08125 36.33125 140.2375 36.33125Q141.40938 36.33125 142.2375 35.346874Q143.08125 34.3625 143.08125 32.26875Q143.08125 30.3 142.25313 29.315624Q141.44063 28.315624 140.31563 28.315624Q139.19063 28.315624 138.31563 29.378124Q137.45625 30.425 137.45625 32.425ZM146.84688 37.55L146.84688 27.175L148.425 27.175L148.425 28.753124Q149.03438 27.64375 149.55 27.3Q150.06563 26.940624 150.675 26.940624Q151.56563 26.940624 152.4875 27.503124L151.87813 29.14375Q151.2375 28.753124 150.59688 28.753124Q150.01875 28.753124 149.55 29.1125Q149.09688 29.45625 148.89375 30.065624Q148.6125 31.003124 148.6125 32.1125L148.6125 37.55L146.84688 37.55ZM160.97188 34.20625L162.78438 34.440624Q162.3625 36.01875 161.19063 36.909374Q160.03438 37.784374 158.22188 37.784374Q155.95625 37.784374 154.6125 36.39375Q153.28438 34.9875 153.28438 32.45625Q153.28438 29.83125 154.62813 28.39375Q155.97188 26.940624 158.12813 26.940624Q160.20625 26.940624 161.51875 28.3625Q162.84688 29.76875 162.84688 32.346874Q162.84688 32.503124 162.83125 32.815624L155.09688 32.815624Q155.19063 34.51875 156.06563 35.425Q156.94063 36.33125 158.2375 36.33125Q159.20625 36.33125 159.87813 35.83125Q160.56563 35.315624 160.97188 34.20625ZM155.19063 31.3625L160.9875 31.3625Q160.87813 30.065624 160.33125 29.409374Q159.4875 28.39375 158.14375 28.39375Q156.94063 28.39375 156.1125 29.20625Q155.28438 30.003124 155.19063 31.3625ZM165.28438 37.55L165.28438 28.55L163.7375 28.55L163.7375 27.175L165.28438 27.175L165.28438 26.08125Q165.28438 25.034374 165.47188 24.51875Q165.72188 23.83125 166.3625 23.409374Q167.00313 22.9875 168.15938 22.9875Q168.90938 22.9875 169.8 23.159374L169.53438 24.690624Q168.9875 24.596874 168.50313 24.596874Q167.70625 24.596874 167.3625 24.940624Q167.03438 25.284374 167.03438 26.221874L167.03438 27.175L169.06563 27.175L169.06563 28.55L167.03438 28.55L167.03438 37.55L165.28438 37.55ZM177.97188 34.20625L179.78438 34.440624Q179.3625 36.01875 178.19063 36.909374Q177.03438 37.784374 175.22188 37.784374Q172.95625 37.784374 171.6125 36.39375Q170.28438 34.9875 170.28438 32.45625Q170.28438 29.83125 171.62813 28.39375Q172.97188 26.940624 175.12813 26.940624Q177.20625 26.940624 178.51875 28.3625Q179.84688 29.76875 179.84688 32.346874Q179.84688 32.503124 179.83125 32.815624L172.09688 32.815624Q172.19063 34.51875 173.06563 35.425Q173.94063 36.33125 175.2375 36.33125Q176.20625 36.33125 176.87813 35.83125Q177.56563 35.315624 177.97188 34.20625ZM172.19063 31.3625L177.9875 31.3625Q177.87813 30.065624 177.33125 29.409374Q176.4875 28.39375 175.14375 28.39375Q173.94063 28.39375 173.1125 29.20625Q172.28438 30.003124 172.19063 31.3625ZM181.84688 37.55L181.84688 27.175L183.425 27.175L183.425 28.753124Q184.03438 27.64375 184.55 27.3Q185.06563 26.940624 185.675 26.940624Q186.56563 26.940624 187.4875 27.503124L186.87813 29.14375Q186.2375 28.753124 185.59688 28.753124Q185.01875 28.753124 184.55 29.1125Q184.09688 29.45625 183.89375 30.065624Q183.6125 31.003124 183.6125 32.1125L183.6125 37.55L181.84688 37.55ZM188.84688 37.55L188.84688 27.175L190.425 27.175L190.425 28.753124Q191.03438 27.64375 191.55 27.3Q192.06563 26.940624 192.675 26.940624Q193.56563 26.940624 194.4875 27.503124L193.87813 29.14375Q193.2375 28.753124 192.59688 28.753124Q192.01875 28.753124 191.55 29.1125Q191.09688 29.45625 190.89375 30.065624Q190.6125 31.003124 190.6125 32.1125L190.6125 37.55L188.84688 37.55ZM202.97188 34.20625L204.78438 34.440624Q204.3625 36.01875 203.19063 36.909374Q202.03438 37.784374 200.22188 37.784374Q197.95625 37.784374 196.6125 36.39375Q195.28438 34.9875 195.28438 32.45625Q195.28438 29.83125 196.62813 28.39375Q197.97188 26.940624 200.12813 26.940624Q202.20625 26.940624 203.51875 28.3625Q204.84688 29.76875 204.84688 32.346874Q204.84688 32.503124 204.83125 32.815624L197.09688 32.815624Q197.19063 34.51875 198.06563 35.425Q198.94063 36.33125 200.2375 36.33125Q201.20625 36.33125 201.87813 35.83125Q202.56563 35.315624 202.97188 34.20625ZM197.19063 31.3625L202.9875 31.3625Q202.87813 30.065624 202.33125 29.409374Q201.4875 28.39375 200.14375 28.39375Q198.94063 28.39375 198.1125 29.20625Q197.28438 30.003124 197.19063 31.3625ZM213.59688 37.55L213.59688 36.2375Q212.6125 37.784374 210.69063 37.784374Q209.45625 37.784374 208.40938 37.096874Q207.37813 36.409374 206.8 35.190624Q206.2375 33.971874 206.2375 32.378124Q206.2375 30.815624 206.75313 29.55Q207.26875 28.284374 208.3 27.6125Q209.34688 26.940624 210.6125 26.940624Q211.55 26.940624 212.28438 27.346874Q213.01875 27.7375 213.4875 28.3625L213.4875 23.2375L215.22188 23.2375L215.22188 37.55L213.59688 37.55ZM208.03438 32.378124Q208.03438 34.3625 208.87813 35.346874Q209.72188 36.33125 210.8625 36.33125Q212.01875 36.33125 212.81563 35.39375Q213.62813 34.45625 213.62813 32.51875Q213.62813 30.39375 212.8 29.39375Q211.9875 28.39375 210.78438 28.39375Q209.6125 28.39375 208.81563 29.3625Q208.03438 30.315624 208.03438 32.378124ZM223.84688 37.55L223.84688 27.175L225.425 27.175L225.425 28.753124Q226.03438 27.64375 226.55 27.3Q227.06563 26.940624 227.675 26.940624Q228.56563 26.940624 229.4875 27.503124L228.87813 29.14375Q228.2375 28.753124 227.59688 28.753124Q227.01875 28.753124 226.55 29.1125Q226.09688 29.45625 225.89375 30.065624Q225.6125 31.003124 225.6125 32.1125L225.6125 37.55L223.84688 37.55ZM237.97188 34.20625L239.78438 34.440624Q239.3625 36.01875 238.19063 36.909374Q237.03438 37.784374 235.22188 37.784374Q232.95625 37.784374 231.6125 36.39375Q230.28438 34.9875 230.28438 32.45625Q230.28438 29.83125 231.62813 28.39375Q232.97188 26.940624 235.12813 26.940624Q237.20625 26.940624 238.51875 28.3625Q239.84688 29.76875 239.84688 32.346874Q239.84688 32.503124 239.83125 32.815624L232.09688 32.815624Q232.19063 34.51875 233.06563 35.425Q233.94063 36.33125 235.2375 36.33125Q236.20625 36.33125 236.87813 35.83125Q237.56563 35.315624 237.97188 34.20625ZM232.19063 31.3625L237.9875 31.3625Q237.87813 30.065624 237.33125 29.409374Q236.4875 28.39375 235.14375 28.39375Q233.94063 28.39375 233.1125 29.20625Q232.28438 30.003124 232.19063 31.3625ZM241.83125 37.55L241.83125 23.2375L243.58125 23.2375L243.58125 37.55L241.83125 37.55ZM245.87813 25.253124L245.87813 23.2375L247.64375 23.2375L247.64375 25.253124L245.87813 25.253124ZM245.87813 37.55L245.87813 27.175L247.64375 27.175L247.64375 37.55L245.87813 37.55ZM249.55 38.409374L251.25313 38.659374Q251.3625 39.45625 251.84688 39.815624Q252.50313 40.3 253.64375 40.3Q254.8625 40.3 255.51875 39.815624Q256.1906 39.33125 256.425 38.45625Q256.5656 37.909374 256.55 36.190624Q255.39375 37.55 253.675 37.55Q251.53438 37.55 250.3625 36.003124Q249.19063 34.45625 249.19063 32.3Q249.19063 30.815624 249.72188 29.565624Q250.26875 28.315624 251.28438 27.628124Q252.31563 26.940624 253.69063 26.940624Q255.51875 26.940624 256.72186 28.425L256.72186 27.175L258.33124 27.175L258.33124 36.14375Q258.33124 38.565624 257.83124 39.565624Q257.34686 40.58125 256.26874 41.159374Q255.20625 41.753124 253.64375 41.753124Q251.8 41.753124 250.64375 40.925Q249.50313 40.096874 249.55 38.409374ZM251.00313 32.175Q251.00313 34.221874 251.81563 35.159374Q252.62813 36.096874 253.84688 36.096874Q255.05 36.096874 255.8625 35.159374Q256.6906 34.221874 256.6906 32.2375Q256.6906 30.33125 255.84688 29.3625Q255.00313 28.39375 253.81563 28.39375Q252.64375 28.39375 251.81563 29.346874Q251.00313 30.3 251.00313 32.175ZM260.8781 25.253124L260.8781 23.2375L262.64374 23.2375L262.64374 25.253124L260.8781 25.253124ZM260.8781 37.55L260.8781 27.175L262.64374 27.175L262.64374 37.55L260.8781 37.55ZM264.22186 32.3625Q264.22186 29.4875 265.8156 28.096874Q267.15936 26.940624 269.08124 26.940624Q271.22186 26.940624 272.5656 28.346874Q273.925 29.753124 273.925 32.221874Q273.925 34.221874 273.33124 35.378124Q272.7375 36.51875 271.58124 37.159374Q270.4406 37.784374 269.08124 37.784374Q266.89374 37.784374 265.55 36.39375Q264.22186 34.9875 264.22186 32.3625ZM266.01874 32.3625Q266.01874 34.3625 266.8781 35.346874Q267.7531 36.33125 269.08124 36.33125Q270.39374 36.33125 271.2531 35.346874Q272.1281 34.346874 272.1281 32.3Q272.1281 30.378124 271.2531 29.39375Q270.3781 28.39375 269.08124 28.39375Q267.7531 28.39375 266.8781 29.39375Q266.01874 30.378124 266.01874 32.3625ZM282.65936 37.55L282.65936 36.01875Q281.45624 37.784374 279.3781 37.784374Q278.45624 37.784374 277.65936 37.440624Q276.8625 37.08125 276.47186 36.55Q276.09686 36.01875 275.9406 35.2375Q275.83124 34.721874 275.83124 33.596874L275.83124 27.175L277.58124 27.175L277.58124 32.925Q277.58124 34.3 277.6906 34.784374Q277.8625 35.471874 278.39374 35.878124Q278.9406 36.26875 279.72186 36.26875Q280.51874 36.26875 281.20624 35.8625Q281.90936 35.45625 282.1906 34.76875Q282.4875 34.065624 282.4875 32.7375L282.4875 27.175L284.2375 27.175L284.2375 37.55L282.65936 37.55ZM285.15936 34.45625L286.90936 34.175Q287.05 35.221874 287.72186 35.784374Q288.39374 36.33125 289.59686 36.33125Q290.8 36.33125 291.3781 35.846874Q291.97186 35.346874 291.97186 34.690624Q291.97186 34.096874 291.45624 33.753124Q291.09686 33.51875 289.65936 33.159374Q287.72186 32.659374 286.97186 32.315624Q286.2375 31.95625 285.84686 31.33125Q285.45624 30.690624 285.45624 29.925Q285.45624 29.2375 285.76874 28.64375Q286.09686 28.05 286.64374 27.659374Q287.05 27.3625 287.7531 27.159374Q288.47186 26.940624 289.28436 26.940624Q290.5031 26.940624 291.425 27.3Q292.34686 27.64375 292.78436 28.253124Q293.22186 28.846874 293.39374 29.846874L291.675 30.08125Q291.55 29.284374 290.9875 28.846874Q290.425 28.39375 289.40936 28.39375Q288.1906 28.39375 287.675 28.8Q287.15936 29.190624 287.15936 29.721874Q287.15936 30.065624 287.3781 30.346874Q287.58124 30.628124 288.05 30.815624Q288.3156 30.909374 289.59686 31.253124Q291.47186 31.753124 292.20624 32.08125Q292.9406 32.39375 293.3625 33.003124Q293.78436 33.596874 293.78436 34.503124Q293.78436 35.378124 293.26874 36.159374Q292.7531 36.940624 291.78436 37.3625Q290.8156 37.784374 289.59686 37.784374Q287.58124 37.784374 286.51874 36.940624Q285.45624 36.096874 285.15936 34.45625ZM301.8781 25.253124L301.8781 23.2375L303.64374 23.2375L303.64374 25.253124L301.8781 25.253124ZM301.8781 37.55L301.8781 27.175L303.64374 27.175L303.64374 37.55L301.8781 37.55ZM312.59686 37.55L312.59686 36.2375Q311.6125 37.784374 309.6906 37.784374Q308.45624 37.784374 307.40936 37.096874Q306.3781 36.409374 305.8 35.190624Q305.2375 33.971874 305.2375 32.378124Q305.2375 30.815624 305.7531 29.55Q306.26874 28.284374 307.3 27.6125Q308.34686 26.940624 309.6125 26.940624Q310.55 26.940624 311.28436 27.346874Q312.01874 27.7375 312.4875 28.3625L312.4875 23.2375L314.22186 23.2375L314.22186 37.55L312.59686 37.55ZM307.03436 32.378124Q307.03436 34.3625 307.8781 35.346874Q308.72186 36.33125 309.8625 36.33125Q311.01874 36.33125 311.8156 35.39375Q312.6281 34.45625 312.6281 32.51875Q312.6281 30.39375 311.8 29.39375Q310.9875 28.39375 309.78436 28.39375Q308.6125 28.39375 307.8156 29.3625Q307.03436 30.315624 307.03436 32.378124ZM323.97186 34.20625L325.78436 34.440624Q325.3625 36.01875 324.1906 36.909374Q323.03436 37.784374 321.22186 37.784374Q318.95624 37.784374 317.6125 36.39375Q316.28436 34.9875 316.28436 32.45625Q316.28436 29.83125 317.6281 28.39375Q318.97186 26.940624 321.1281 26.940624Q323.20624 26.940624 324.51874 28.3625Q325.84686 29.76875 325.84686 32.346874Q325.84686 32.503124 325.83124 32.815624L318.09686 32.815624Q318.1906 34.51875 319.0656 35.425Q319.9406 36.33125 321.2375 36.33125Q322.20624 36.33125 322.8781 35.83125Q323.5656 35.315624 323.97186 34.20625ZM318.1906 31.3625L323.9875 31.3625Q323.8781 30.065624 323.33124 29.409374Q322.4875 28.39375 321.14374 28.39375Q319.9406 28.39375 319.1125 29.20625Q318.28436 30.003124 318.1906 31.3625ZM327.8625 37.55L327.8625 27.175L329.45624 27.175L329.45624 28.659374Q330.59686 26.940624 332.7531 26.940624Q333.6906 26.940624 334.47186 27.284374Q335.26874 27.6125 335.65936 28.159374Q336.05 28.70625 336.20624 29.45625Q336.3 29.95625 336.3 31.175L336.3 37.55L334.53436 37.55L334.53436 31.2375Q334.53436 30.159374 334.33124 29.628124Q334.1281 29.096874 333.59686 28.784374Q333.08124 28.471874 332.3781 28.471874Q331.2531 28.471874 330.4406 29.190624Q329.6281 29.89375 329.6281 31.878124L329.6281 37.55L327.8625 37.55ZM341.70624 35.971874L341.95624 37.534374Q341.22186 37.690624 340.6281 37.690624Q339.675 37.690624 339.14374 37.39375Q338.6281 37.08125 338.40936 36.596874Q338.1906 36.096874 338.1906 34.51875L338.1906 28.55L336.90936 28.55L336.90936 27.175L338.1906 27.175L338.1906 24.6125L339.9406 23.55L339.9406 27.175L341.70624 27.175L341.70624 28.55L339.9406 28.55L339.9406 34.6125Q339.9406 35.3625 340.03436 35.58125Q340.1281 35.784374 340.33124 35.925Q340.55 36.05 340.9406 36.05Q341.22186 36.05 341.70624 35.971874ZM343.8781 25.253124L343.8781 23.2375L345.64374 23.2375L345.64374 25.253124L343.8781 25.253124ZM343.8781 37.55L343.8781 27.175L345.64374 27.175L345.64374 37.55L343.8781 37.55ZM348.28436 37.55L348.28436 28.55L346.7375 28.55L346.7375 27.175L348.28436 27.175L348.28436 26.08125Q348.28436 25.034374 348.47186 24.51875Q348.72186 23.83125 349.3625 23.409374Q350.0031 22.9875 351.15936 22.9875Q351.90936 22.9875 352.8 23.159374L352.53436 24.690624Q351.9875 24.596874 351.5031 24.596874Q350.70624 24.596874 350.3625 24.940624Q350.03436 25.284374 350.03436 26.221874L350.03436 27.175L352.0656 27.175L352.0656 28.55L350.03436 28.55L350.03436 37.55L348.28436 37.55ZM353.8781 25.253124L353.8781 23.2375L355.64374 23.2375L355.64374 25.253124L353.8781 25.253124ZM353.8781 37.55L353.8781 27.175L355.64374 27.175L355.64374 37.55L353.8781 37.55ZM364.64374 33.753124L366.3625 33.971874Q366.08124 35.76875 364.90936 36.784374Q363.7531 37.784374 362.05 37.784374Q359.925 37.784374 358.6281 36.39375Q357.33124 35.003124 357.33124 32.409374Q357.33124 30.721874 357.8781 29.471874Q358.4406 28.20625 359.58124 27.58125Q360.72186 26.940624 362.0656 26.940624Q363.7531 26.940624 364.8156 27.8Q365.89374 28.659374 366.20624 30.221874L364.4875 30.4875Q364.2531 29.440624 363.6281 28.925Q363.0031 28.39375 362.1281 28.39375Q360.8 28.39375 359.97186 29.346874Q359.14374 30.3 359.14374 32.346874Q359.14374 34.440624 359.9406 35.39375Q360.7375 36.33125 362.03436 36.33125Q363.0656 36.33125 363.7531 35.70625Q364.45624 35.065624 364.64374 33.753124ZM374.64374 36.26875Q373.65936 37.096874 372.7531 37.440624Q371.84686 37.784374 370.8156 37.784374Q369.1125 37.784374 368.1906 36.95625Q367.26874 36.1125 367.26874 34.815624Q367.26874 34.05 367.6125 33.425Q367.97186 32.8 368.53436 32.425Q369.09686 32.034374 369.8 31.83125Q370.3156 31.70625 371.3625 31.565624Q373.4875 31.315624 374.4875 30.971874Q374.5031 30.6125 374.5031 30.503124Q374.5031 29.440624 374.0031 28.9875Q373.33124 28.39375 372.0031 28.39375Q370.7531 28.39375 370.15936 28.83125Q369.58124 29.26875 369.3 30.378124L367.58124 30.14375Q367.8156 29.034374 368.34686 28.3625Q368.8781 27.675 369.89374 27.315624Q370.90936 26.940624 372.2531 26.940624Q373.58124 26.940624 374.40936 27.253124Q375.2375 27.565624 375.6281 28.05Q376.01874 28.51875 376.175 29.2375Q376.26874 29.690624 376.26874 30.8625L376.26874 33.20625Q376.26874 35.659374 376.3781 36.315624Q376.4875 36.95625 376.83124 37.55L374.9875 37.55Q374.72186 37.003124 374.64374 36.26875ZM374.4875 32.346874Q373.53436 32.7375 371.6125 33.003124Q370.53436 33.159374 370.08124 33.3625Q369.64374 33.55 369.39374 33.925Q369.14374 34.3 369.14374 34.76875Q369.14374 35.471874 369.675 35.940624Q370.20624 36.409374 371.2375 36.409374Q372.2531 36.409374 373.03436 35.971874Q373.83124 35.51875 374.20624 34.753124Q374.4875 34.14375 374.4875 32.9875L374.4875 32.346874ZM382.70624 35.971874L382.95624 37.534374Q382.22186 37.690624 381.6281 37.690624Q380.675 37.690624 380.14374 37.39375Q379.6281 37.08125 379.40936 36.596874Q379.1906 36.096874 379.1906 34.51875L379.1906 28.55L377.90936 28.55L377.90936 27.175L379.1906 27.175L379.1906 24.6125L380.9406 23.55L380.9406 27.175L382.70624 27.175L382.70624 28.55L380.9406 28.55L380.9406 34.6125Q380.9406 35.3625 381.03436 35.58125Q381.1281 35.784374 381.33124 35.925Q381.55 36.05 381.9406 36.05Q382.22186 36.05 382.70624 35.971874ZM384.8781 25.253124L384.8781 23.2375L386.64374 23.2375L386.64374 25.253124L384.8781 25.253124ZM384.8781 37.55L384.8781 27.175L386.64374 27.175L386.64374 37.55L384.8781 37.55ZM388.22186 32.3625Q388.22186 29.4875 389.8156 28.096874Q391.15936 26.940624 393.08124 26.940624Q395.22186 26.940624 396.5656 28.346874Q397.925 29.753124 397.925 32.221874Q397.925 34.221874 397.33124 35.378124Q396.7375 36.51875 395.58124 37.159374Q394.4406 37.784374 393.08124 37.784374Q390.89374 37.784374 389.55 36.39375Q388.22186 34.9875 388.22186 32.3625ZM390.01874 32.3625Q390.01874 34.3625 390.8781 35.346874Q391.7531 36.33125 393.08124 36.33125Q394.39374 36.33125 395.2531 35.346874Q396.1281 34.346874 396.1281 32.3Q396.1281 30.378124 395.2531 29.39375Q394.3781 28.39375 393.08124 28.39375Q391.7531 28.39375 390.8781 29.39375Q390.01874 30.378124 390.01874 32.3625ZM399.8625 37.55L399.8625 27.175L401.45624 27.175L401.45624 28.659374Q402.59686 26.940624 404.7531 26.940624Q405.6906 26.940624 406.47186 27.284374Q407.26874 27.6125 407.65936 28.159374Q408.05 28.70625 408.20624 29.45625Q408.3 29.95625 408.3 31.175L408.3 37.55L406.53436 37.55L406.53436 31.2375Q406.53436 30.159374 406.33124 29.628124Q406.1281 29.096874 405.59686 28.784374Q405.08124 28.471874 404.3781 28.471874Q403.2531 28.471874 402.4406 29.190624Q401.6281 29.89375 401.6281 31.878124L401.6281 37.55L399.8625 37.55ZM413.15936 34.01875Q413.14374 33.675 413.14374 33.503124Q413.14374 32.45625 413.4406 31.70625Q413.65936 31.14375 414.14374 30.565624Q414.4875 30.14375 415.39374 29.346874Q416.3156 28.534374 416.58124 28.065624Q416.8625 27.58125 416.8625 27.01875Q416.8625 25.9875 416.05 25.221874Q415.2531 24.440624 414.09686 24.440624Q412.97186 24.440624 412.22186 25.14375Q411.47186 25.846874 411.2375 27.33125L409.425 27.1125Q409.675 25.1125 410.8781 24.05Q412.08124 22.9875 414.0656 22.9875Q416.175 22.9875 417.425 24.128124Q418.675 25.26875 418.675 26.89375Q418.675 27.83125 418.22186 28.628124Q417.78436 29.409374 416.5031 30.55Q415.64374 31.315624 415.3781 31.675Q415.1281 32.034374 414.9875 32.503124Q414.8625 32.971874 414.84686 34.01875L413.15936 34.01875ZM413.05 37.55L413.05 35.55L415.05 35.55L415.05 37.55L413.05 37.55Z" fill-rule="nonzero"/></svg>