<svg version="1.1" viewBox="0.0 0.0 600.0 371.0" fill="none" stroke="none" stroke-linecap="square" stroke-miterlimit="10" width="600" height="371" xmlns:xlink="http://www.w3.org/1999/xlink" xmlns="http://www.w3.org/2000/svg"><path fill="#ffffff" d="M0 0L600.0 0L600.0 371.0L0 371.0L0 0Z" fill-rule="nonzero"/><path stroke="#333333" stroke-width="1.0" stroke-linecap="butt" d="M45.5 300.5L581.5 300.5" fill-rule="nonzero"/><path stroke="#cccccc" stroke-width="1.0" stroke-linecap="butt" d="M45.5 246.5L581.5 246.5" fill-rule="nonzero"/><path stroke="#cccccc" stroke-width="1.0" stroke-linecap="butt" d="M45.5 193.5L581.5 193.5" fill-rule="nonzero"/><path stroke="#cccccc" stroke-width="1.0" stroke-linecap="butt" d="M45.5 139.5L581.5 139.5" fill-rule="nonzero"/><path stroke="#cccccc" stroke-width="1.0" stroke-linecap="butt" d="M45.5 85.5L581.5 85.5" fill-rule="nonzero"/><clipPath id="id_0"><path d="M45.55 85.916664L581.45 85.916664L581.45 300.45L45.55 300.45L45.55 85.916664Z" clip-rule="nonzero"/></clipPath><path stroke="#000000" stroke-width="2.0" stroke-linecap="butt" stroke-opacity="0.0" clip-path="url(#id_0)" d="M206.0 300.0L102.0 300.0L102.0 109.0C102.0 107.89543 102.89543 107.0 104.0 107.0L204.0 107.0C205.10457 107.0 206.0 107.89543 206.0 109.0Z" fill-rule="nonzero"/><path fill="#4285f4" clip-path="url(#id_0)" d="M206.0 300.0L102.0 300.0L102.0 109.0C102.0 107.89543 102.89543 107.0 104.0 107.0L204.0 107.0C205.10457 107.0 206.0 107.89543 206.0 109.0Z" fill-rule="nonzero"/><path stroke="#000000" stroke-width="2.0" stroke-linecap="butt" stroke-opacity="0.0" clip-path="url(#id_0)" d="M366.0 300.0L262.0 300.0L262.0 184.0C262.0 182.89543 262.89542 182.0 264.0 182.0L364.0 182.0C365.10458 182.0 366.0 182.89543 366.0 184.0Z" fill-rule="nonzero"/><path fill="#4285f4" clip-path="url(#id_0)" d="M366.0 300.0L262.0 300.0L262.0 184.0C262.0 182.89543 262.89542 182.0 264.0 182.0L364.0 182.0C365.10458 182.0 366.0 182.89543 366.0 184.0Z" fill-rule="nonzero"/><path stroke="#000000" stroke-width="2.0" stroke-linecap="butt" stroke-opacity="0.0" clip-path="url(#id_0)" d="M525.0 300.0L421.0 300.0L421.0 238.0C421.0 236.89543 421.89542 236.0 423.0 236.0L523.0 236.0C524.10455 236.0 525.0 236.89543 525.0 238.0Z" fill-rule="nonzero"/><path fill="#4285f4" clip-path="url(#id_0)" d="M525.0 300.0L421.0 300.0L421.0 238.0C421.0 236.89543 421.89542 236.0 423.0 236.0L523.0 236.0C524.10455 236.0 525.0 236.89543 525.0 238.0Z" fill-rule="nonzero"/><path fill="#000000" d="M266.9375 349.45L266.9375 340.85626L270.75 340.85626Q271.90625 340.85626 272.5 341.09064Q273.09375 341.325 273.45312 341.91876Q273.8125 342.4969 273.8125 343.2Q273.8125 344.1219 273.21875 344.7469Q272.625 345.3719 271.39062 345.54376Q271.84375 345.7625 272.07812 345.96564Q272.57812 346.41876 273.01562 347.10626L274.51562 349.45L273.07812 349.45L271.95312 347.66876Q271.45312 346.8875 271.125 346.48126Q270.8125 346.075 270.54688 345.91876Q270.29688 345.7469 270.03125 345.66876Q269.84375 345.6375 269.40625 345.6375L268.07812 345.6375L268.07812 349.45L266.9375 349.45ZM268.07812 344.65314L270.53125 344.65314Q271.29688 344.65314 271.73438 344.4969Q272.1875 344.325 272.40625 343.98126Q272.64062 343.6219 272.64062 343.2Q272.64062 342.59064 272.1875 342.2Q271.75 341.8094 270.79688 341.8094L268.07812 341.8094L268.07812 344.65314ZM280.04688 347.45L281.14062 347.575Q280.89062 348.52814 280.1875 349.0594Q279.48438 349.59064 278.40625 349.59064Q277.04688 349.59064 276.23438 348.7469Q275.4375 347.90314 275.4375 346.3875Q275.4375 344.825 276.25 343.96564Q277.0625 343.09064 278.34375 343.09064Q279.59375 343.09064 280.375 343.9344Q281.17188 344.77814 281.17188 346.325Q281.17188 346.41876 281.17188 346.60626L276.53125 346.60626Q276.59375 347.6375 277.10938 348.1844Q277.625 348.71564 278.40625 348.71564Q278.98438 348.71564 279.39062 348.41876Q279.8125 348.10626 280.04688 347.45ZM276.59375 345.7469L280.0625 345.7469Q280.0 344.95 279.67188 344.5594Q279.15625 343.95 278.35938 343.95Q277.625 343.95 277.125 344.4344Q276.64062 344.91876 276.59375 345.7469ZM282.375 347.59064L283.40625 347.4344Q283.5 348.0594 283.89062 348.3875Q284.29688 348.71564 285.03125 348.71564Q285.75 348.71564 286.09375 348.4344Q286.45312 348.1375 286.45312 347.73126Q286.45312 347.3719 286.14062 347.16876Q285.92188 347.02814 285.0625 346.8094Q283.90625 346.5125 283.45312 346.3094Q283.01562 346.09064 282.78125 345.71564Q282.54688 345.34064 282.54688 344.8719Q282.54688 344.46564 282.73438 344.10626Q282.92188 343.7469 283.25 343.5125Q283.5 343.34064 283.92188 343.21564Q284.34375 343.09064 284.84375 343.09064Q285.5625 343.09064 286.10938 343.3094Q286.67188 343.5125 286.9375 343.8719Q287.20312 344.23126 287.29688 344.825L286.26562 344.96564Q286.20312 344.4969 285.85938 344.23126Q285.53125 343.95 284.90625 343.95Q284.1875 343.95 283.875 344.2Q283.5625 344.4344 283.5625 344.7625Q283.5625 344.96564 283.6875 345.1219Q283.82812 345.29376 284.09375 345.40314Q284.25 345.46564 285.03125 345.66876Q286.15625 345.98126 286.59375 346.16876Q287.03125 346.35626 287.28125 346.71564Q287.53125 347.075 287.53125 347.6219Q287.53125 348.15314 287.21875 348.6219Q286.92188 349.075 286.34375 349.34064Q285.76562 349.59064 285.03125 349.59064Q283.8125 349.59064 283.17188 349.09064Q282.54688 348.575 282.375 347.59064ZM289.79688 342.075L289.79688 340.85626L290.85938 340.85626L290.85938 342.075L289.79688 342.075ZM289.79688 349.45L289.79688 343.23126L290.85938 343.23126L290.85938 349.45L289.79688 349.45ZM296.82812 349.45L296.82812 348.66876Q296.23438 349.59064 295.09375 349.59064Q294.34375 349.59064 293.71875 349.1844Q293.09375 348.7625 292.75 348.02814Q292.40625 347.29376 292.40625 346.34064Q292.40625 345.41876 292.71875 344.65314Q293.03125 343.8875 293.65625 343.4969Q294.28125 343.09064 295.04688 343.09064Q295.60938 343.09064 296.04688 343.325Q296.48438 343.5594 296.76562 343.9344L296.76562 340.85626L297.8125 340.85626L297.8125 349.45L296.82812 349.45ZM293.5 346.34064Q293.5 347.54376 294.0 348.1375Q294.5 348.71564 295.1875 348.71564Q295.875 348.71564 296.35938 348.15314Q296.84375 347.59064 296.84375 346.4344Q296.84375 345.15314 296.34375 344.5594Q295.85938 343.96564 295.14062 343.96564Q294.4375 343.96564 293.96875 344.54376Q293.5 345.10626 293.5 346.34064ZM304.04688 347.45L305.14062 347.575Q304.89062 348.52814 304.1875 349.0594Q303.48438 349.59064 302.40625 349.59064Q301.04688 349.59064 300.23438 348.7469Q299.4375 347.90314 299.4375 346.3875Q299.4375 344.825 300.25 343.96564Q301.0625 343.09064 302.34375 343.09064Q303.59375 343.09064 304.375 343.9344Q305.17188 344.77814 305.17188 346.325Q305.17188 346.41876 305.17188 346.60626L300.53125 346.60626Q300.59375 347.6375 301.10938 348.1844Q301.625 348.71564 302.40625 348.71564Q302.98438 348.71564 303.39062 348.41876Q303.8125 348.10626 304.04688 347.45ZM300.59375 345.7469L304.0625 345.7469Q304.0 344.95 303.67188 344.5594Q303.15625 343.95 302.35938 343.95Q301.625 343.95 301.125 344.4344Q300.64062 344.91876 300.59375 345.7469ZM306.79688 349.45L306.79688 343.23126L307.73438 343.23126L307.73438 344.10626Q308.42188 343.09064 309.71875 343.09064Q310.28125 343.09064 310.75 343.29376Q311.23438 343.4969 311.46875 343.825Q311.70312 344.15314 311.79688 344.59064Q311.84375 344.8875 311.84375 345.6219L311.84375 349.45L310.79688 349.45L310.79688 345.66876Q310.79688 345.0125 310.67188 344.7Q310.54688 344.3875 310.23438 344.2Q309.92188 343.9969 309.5 343.9969Q308.82812 343.9969 308.32812 344.4344Q307.84375 344.85626 307.84375 346.04376L307.84375 349.45L306.79688 349.45ZM317.85938 347.16876L318.89062 347.3094Q318.71875 348.3719 318.01562 348.98126Q317.3125 349.59064 316.29688 349.59064Q315.01562 349.59064 314.23438 348.7625Q313.46875 347.91876 313.46875 346.35626Q313.46875 345.35626 313.79688 344.60626Q314.14062 343.84064 314.8125 343.46564Q315.5 343.09064 316.3125 343.09064Q317.3125 343.09064 317.95312 343.60626Q318.60938 344.10626 318.79688 345.0594L317.76562 345.21564Q317.625 344.59064 317.25 344.27814Q316.875 343.95 316.34375 343.95Q315.54688 343.95 315.04688 344.52814Q314.54688 345.09064 314.54688 346.325Q314.54688 347.59064 315.03125 348.15314Q315.51562 348.71564 316.28125 348.71564Q316.90625 348.71564 317.3125 348.34064Q317.73438 347.96564 317.85938 347.16876ZM319.75 351.84064L319.625 350.85626Q319.96875 350.95 320.23438 350.95Q320.57812 350.95 320.78125 350.825Q321.0 350.71564 321.14062 350.5125Q321.23438 350.34064 321.46875 349.71564Q321.48438 349.6375 321.5625 349.46564L319.1875 343.23126L320.32812 343.23126L321.625 346.825Q321.875 347.5125 322.07812 348.27814Q322.26562 347.54376 322.51562 346.85626L323.84375 343.23126L324.89062 343.23126L322.53125 349.5594Q322.14062 350.575 321.9375 350.96564Q321.65625 351.4969 321.28125 351.73126Q320.92188 351.98126 320.42188 351.98126Q320.125 351.98126 319.75 351.84064ZM327.375 347.59064L328.40625 347.4344Q328.5 348.0594 328.89062 348.3875Q329.29688 348.71564 330.03125 348.71564Q330.75 348.71564 331.09375 348.4344Q331.45312 348.1375 331.45312 347.73126Q331.45312 347.3719 331.14062 347.16876Q330.92188 347.02814 330.0625 346.8094Q328.90625 346.5125 328.45312 346.3094Q328.01562 346.09064 327.78125 345.71564Q327.54688 345.34064 327.54688 344.8719Q327.54688 344.46564 327.73438 344.10626Q327.92188 343.7469 328.25 343.5125Q328.5 343.34064 328.92188 343.21564Q329.34375 343.09064 329.84375 343.09064Q330.5625 343.09064 331.10938 343.3094Q331.67188 343.5125 331.9375 343.8719Q332.20312 344.23126 332.29688 344.825L331.26562 344.96564Q331.20312 344.4969 330.85938 344.23126Q330.53125 343.95 329.90625 343.95Q329.1875 343.95 328.875 344.2Q328.5625 344.4344 328.5625 344.7625Q328.5625 344.96564 328.6875 345.1219Q328.82812 345.29376 329.09375 345.40314Q329.25 345.46564 330.03125 345.66876Q331.15625 345.98126 331.59375 346.16876Q332.03125 346.35626 332.28125 346.71564Q332.53125 347.075 332.53125 347.6219Q332.53125 348.15314 332.21875 348.6219Q331.92188 349.075 331.34375 349.34064Q330.76562 349.59064 330.03125 349.59064Q328.8125 349.59064 328.17188 349.09064Q327.54688 348.575 327.375 347.59064ZM337.09375 348.5125L337.25 349.4344Q336.79688 349.52814 336.45312 349.52814Q335.875 349.52814 335.5625 349.35626Q335.25 349.16876 335.10938 348.8719Q334.98438 348.575 334.98438 347.6219L334.98438 344.04376L334.21875 344.04376L334.21875 343.23126L334.98438 343.23126L334.98438 341.6844L336.03125 341.0594L336.03125 343.23126L337.09375 343.23126L337.09375 344.04376L336.03125 344.04376L336.03125 347.6844Q336.03125 348.1375 336.07812 348.2625Q336.14062 348.3875 336.26562 348.46564Q336.39062 348.54376 336.625 348.54376Q336.8125 348.54376 337.09375 348.5125ZM341.85938 348.6844Q341.26562 349.1844 340.71875 349.3875Q340.1875 349.59064 339.5625 349.59064Q338.53125 349.59064 337.98438 349.09064Q337.4375 348.59064 337.4375 347.8094Q337.4375 347.35626 337.64062 346.98126Q337.84375 346.59064 338.1875 346.3719Q338.53125 346.1375 338.95312 346.02814Q339.25 345.9344 339.89062 345.85626Q341.15625 345.71564 341.76562 345.4969Q341.76562 345.27814 341.76562 345.23126Q341.76562 344.575 341.46875 344.3094Q341.0625 343.96564 340.26562 343.96564Q339.53125 343.96564 339.17188 344.23126Q338.8125 344.48126 338.64062 345.1375L337.60938 344.9969Q337.75 344.34064 338.07812 343.9344Q338.40625 343.52814 339.01562 343.3094Q339.625 343.09064 340.42188 343.09064Q341.21875 343.09064 341.71875 343.27814Q342.21875 343.46564 342.45312 343.7469Q342.6875 344.02814 342.78125 344.46564Q342.82812 344.73126 342.82812 345.4344L342.82812 346.84064Q342.82812 348.3094 342.89062 348.7Q342.96875 349.09064 343.17188 349.45L342.0625 349.45Q341.90625 349.1219 341.85938 348.6844ZM341.76562 346.325Q341.1875 346.5594 340.04688 346.73126Q339.39062 346.825 339.125 346.95Q338.85938 347.0594 338.70312 347.27814Q338.5625 347.4969 338.5625 347.77814Q338.5625 348.2 338.875 348.48126Q339.20312 348.7625 339.8125 348.7625Q340.42188 348.7625 340.89062 348.4969Q341.375 348.23126 341.59375 347.7625Q341.76562 347.40314 341.76562 346.71564L341.76562 346.325ZM347.09375 348.5125L347.25 349.4344Q346.79688 349.52814 346.45312 349.52814Q345.875 349.52814 345.5625 349.35626Q345.25 349.16876 345.10938 348.8719Q344.98438 348.575 344.98438 347.6219L344.98438 344.04376L344.21875 344.04376L344.21875 343.23126L344.98438 343.23126L344.98438 341.6844L346.03125 341.0594L346.03125 343.23126L347.09375 343.23126L347.09375 344.04376L346.03125 344.04376L346.03125 347.6844Q346.03125 348.1375 346.07812 348.2625Q346.14062 348.3875 346.26562 348.46564Q346.39062 348.54376 346.625 348.54376Q346.8125 348.54376 347.09375 348.5125ZM351.875 349.45L351.875 348.52814Q351.14062 349.59064 349.89062 349.59064Q349.34375 349.59064 348.85938 349.3875Q348.39062 349.16876 348.15625 348.85626Q347.92188 348.52814 347.82812 348.0594Q347.76562 347.7625 347.76562 347.075L347.76562 343.23126L348.82812 343.23126L348.82812 346.6844Q348.82812 347.4969 348.89062 347.79376Q348.98438 348.2 349.29688 348.45Q349.625 348.6844 350.10938 348.6844Q350.57812 348.6844 350.98438 348.45Q351.40625 348.2 351.57812 347.77814Q351.76562 347.35626 351.76562 346.5594L351.76562 343.23126L352.8125 343.23126L352.8125 349.45L351.875 349.45ZM354.375 347.59064L355.40625 347.4344Q355.5 348.0594 355.89062 348.3875Q356.29688 348.71564 357.03125 348.71564Q357.75 348.71564 358.09375 348.4344Q358.45312 348.1375 358.45312 347.73126Q358.45312 347.3719 358.14062 347.16876Q357.92188 347.02814 357.0625 346.8094Q355.90625 346.5125 355.45312 346.3094Q355.01562 346.09064 354.78125 345.71564Q354.54688 345.34064 354.54688 344.8719Q354.54688 344.46564 354.73438 344.10626Q354.92188 343.7469 355.25 343.5125Q355.5 343.34064 355.92188 343.21564Q356.34375 343.09064 356.84375 343.09064Q357.5625 343.09064 358.10938 343.3094Q358.67188 343.5125 358.9375 343.8719Q359.20312 344.23126 359.29688 344.825L358.26562 344.96564Q358.20312 344.4969 357.85938 344.23126Q357.53125 343.95 356.90625 343.95Q356.1875 343.95 355.875 344.2Q355.5625 344.4344 355.5625 344.7625Q355.5625 344.96564 355.6875 345.1219Q355.82812 345.29376 356.09375 345.40314Q356.25 345.46564 357.03125 345.66876Q358.15625 345.98126 358.59375 346.16876Q359.03125 346.35626 359.28125 346.71564Q359.53125 347.075 359.53125 347.6219Q359.53125 348.15314 359.21875 348.6219Q358.92188 349.075 358.34375 349.34064Q357.76562 349.59064 357.03125 349.59064Q355.8125 349.59064 355.17188 349.09064Q354.54688 348.575 354.375 347.59064Z" fill-rule="nonzero"/><path fill="#000000" d="M33.05 300.21564Q33.05 298.6844 33.3625 297.7625Q33.675 296.825 34.284374 296.325Q34.909374 295.825 35.846874 295.825Q36.534374 295.825 37.05 296.10626Q37.58125 296.3875 37.925 296.91876Q38.26875 297.4344 38.45625 298.1844Q38.64375 298.9344 38.64375 300.21564Q38.64375 301.73126 38.33125 302.65314Q38.034374 303.575 37.409374 304.09064Q36.8 304.59064 35.846874 304.59064Q34.6125 304.59064 33.89375 303.7Q33.05 302.6375 33.05 300.21564ZM34.128124 300.21564Q34.128124 302.325 34.628124 303.02814Q35.128124 303.73126 35.846874 303.73126Q36.58125 303.73126 37.065624 303.02814Q37.565624 302.325 37.565624 300.21564Q37.565624 298.09064 37.065624 297.40314Q36.58125 296.7 35.83125 296.7Q35.1125 296.7 34.675 297.3094Q34.128124 298.09064 34.128124 300.21564Z" fill-rule="nonzero"/><path fill="#000000" d="M33.05 248.56667L34.159374 248.47292Q34.284374 249.28542 34.721874 249.69167Q35.175 250.09792 35.815624 250.09792Q36.565624 250.09792 37.096874 249.51979Q37.628124 248.94167 37.628124 248.00417Q37.628124 247.09792 37.1125 246.58229Q36.6125 246.05104 35.784374 246.05104Q35.284374 246.05104 34.8625 246.28542Q34.45625 246.51979 34.221874 246.87917L33.2375 246.75417L34.065624 242.34792L38.346874 242.34792L38.346874 243.34792L34.909374 243.34792L34.45625 245.66042Q35.221874 245.11354 36.065624 245.11354Q37.190624 245.11354 37.95625 245.89479Q38.7375 246.67604 38.7375 247.91042Q38.7375 249.06667 38.065624 249.92604Q37.2375 250.95729 35.815624 250.95729Q34.64375 250.95729 33.89375 250.30104Q33.159374 249.64479 33.05 248.56667Z" fill-rule="nonzero"/><path fill="#000000" d="M30.01875 197.18333L28.971874 197.18333L28.971874 190.46458Q28.58125 190.82396 27.95625 191.19896Q27.346874 191.55833 26.8625 191.73021L26.8625 190.71458Q27.7375 190.29271 28.39375 189.71458Q29.065624 189.12083 29.346874 188.55833L30.01875 188.55833L30.01875 197.18333ZM33.05 192.94896Q33.05 191.41771 33.3625 190.49583Q33.675 189.55833 34.284374 189.05833Q34.909374 188.55833 35.846874 188.55833Q36.534374 188.55833 37.05 188.83958Q37.58125 189.12083 37.925 189.65208Q38.26875 190.16771 38.45625 190.91771Q38.64375 191.66771 38.64375 192.94896Q38.64375 194.46458 38.33125 195.38646Q38.034374 196.30833 37.409374 196.82396Q36.8 197.32396 35.846874 197.32396Q34.6125 197.32396 33.89375 196.43333Q33.05 195.37083 33.05 192.94896ZM34.128124 192.94896Q34.128124 195.05833 34.628124 195.76146Q35.128124 196.46458 35.846874 196.46458Q36.58125 196.46458 37.065624 195.76146Q37.565624 195.05833 37.565624 192.94896Q37.565624 190.82396 37.065624 190.13646Q36.58125 189.43333 35.83125 189.43333Q35.1125 189.43333 34.675 190.04271Q34.128124 190.82396 34.128124 192.94896Z" fill-rule="nonzero"/><path fill="#000000" d="M30.01875 143.55L28.971874 143.55L28.971874 136.83125Q28.58125 137.19063 27.95625 137.56563Q27.346874 137.925 26.8625 138.09688L26.8625 137.08125Q27.7375 136.65938 28.39375 136.08125Q29.065624 135.4875 29.346874 134.925L30.01875 134.925L30.01875 143.55ZM33.05 141.3L34.159374 141.20625Q34.284374 142.01875 34.721874 142.425Q35.175 142.83125 35.815624 142.83125Q36.565624 142.83125 37.096874 142.25313Q37.628124 141.675 37.628124 140.7375Q37.628124 139.83125 37.1125 139.31563Q36.6125 138.78438 35.784374 138.78438Q35.284374 138.78438 34.8625 139.01875Q34.45625 139.25313 34.221874 139.6125L33.2375 139.4875L34.065624 135.08125L38.346874 135.08125L38.346874 136.08125L34.909374 136.08125L34.45625 138.39375Q35.221874 137.84688 36.065624 137.84688Q37.190624 137.84688 37.95625 138.62813Q38.7375 139.40938 38.7375 140.64375Q38.7375 141.8 38.065624 142.65938Q37.2375 143.69063 35.815624 143.69063Q34.64375 143.69063 33.89375 143.03438Q33.159374 142.37813 33.05 141.3Z" fill-rule="nonzero"/><path fill="#000000" d="M31.596874 88.90104L31.596874 89.916664L25.909374 89.916664Q25.909374 89.541664 26.034374 89.18229Q26.253124 88.604164 26.721874 88.041664Q27.20625 87.479164 28.1125 86.74479Q29.51875 85.58854 30.003124 84.916664Q30.503124 84.24479 30.503124 83.65104Q30.503124 83.02604 30.05 82.604164Q29.596874 82.166664 28.878124 82.166664Q28.1125 82.166664 27.659374 82.61979Q27.20625 83.072914 27.190624 83.885414L26.1125 83.77604Q26.221874 82.55729 26.940624 81.93229Q27.675 81.291664 28.909374 81.291664Q30.14375 81.291664 30.8625 81.979164Q31.58125 82.666664 31.58125 83.68229Q31.58125 84.197914 31.3625 84.697914Q31.159374 85.18229 30.659374 85.74479Q30.175 86.291664 29.05 87.24479Q28.096874 88.041664 27.815624 88.33854Q27.55 88.61979 27.378124 88.90104L31.596874 88.90104ZM33.05 85.68229Q33.05 84.15104 33.3625 83.229164Q33.675 82.291664 34.284374 81.791664Q34.909374 81.291664 35.846874 81.291664Q36.534374 81.291664 37.05 81.572914Q37.58125 81.854164 37.925 82.385414Q38.26875 82.90104 38.45625 83.65104Q38.64375 84.40104 38.64375 85.68229Q38.64375 87.197914 38.33125 88.11979Q38.034374 89.041664 37.409374 89.55729Q36.8 90.05729 35.846874 90.05729Q34.6125 90.05729 33.89375 89.166664Q33.05 88.104164 33.05 85.68229ZM34.128124 85.68229Q34.128124 87.791664 34.628124 88.49479Q35.128124 89.197914 35.846874 89.197914Q36.58125 89.197914 37.065624 88.49479Q37.565624 87.791664 37.565624 85.68229Q37.565624 83.55729 37.065624 82.86979Q36.58125 82.166664 35.83125 82.166664Q35.1125 82.166664 34.675 82.77604Q34.128124 83.55729 34.128124 85.68229Z" fill-rule="nonzero"/><path fill="#000000" d="M134.15485 317.45L134.15485 308.85626L135.27985 308.85626L135.27985 317.45L134.15485 317.45ZM136.82672 317.45L136.82672 311.23126L137.76422 311.23126L137.76422 312.10626Q138.45172 311.09064 139.7486 311.09064Q140.3111 311.09064 140.77985 311.29376Q141.26422 311.4969 141.4986 311.825Q141.73297 312.15314 141.82672 312.59064Q141.8736 312.8875 141.8736 313.6219L141.8736 317.45L140.82672 317.45L140.82672 313.66876Q140.82672 313.0125 140.70172 312.7Q140.57672 312.3875 140.26422 312.2Q139.95172 311.9969 139.52985 311.9969Q138.85797 311.9969 138.35797 312.4344Q137.8736 312.85626 137.8736 314.04376L137.8736 317.45L136.82672 317.45ZM143.40485 314.8719L143.40485 313.8094L146.65485 313.8094L146.65485 314.8719L143.40485 314.8719ZM147.40485 315.59064L148.4361 315.4344Q148.52985 316.0594 148.92047 316.3875Q149.32672 316.71564 150.0611 316.71564Q150.77985 316.71564 151.1236 316.4344Q151.48297 316.1375 151.48297 315.73126Q151.48297 315.3719 151.17047 315.16876Q150.95172 315.02814 150.09235 314.8094Q148.9361 314.5125 148.48297 314.3094Q148.04547 314.09064 147.8111 313.71564Q147.57672 313.34064 147.57672 312.8719Q147.57672 312.46564 147.76422 312.10626Q147.95172 311.7469 148.27985 311.5125Q148.52985 311.34064 148.95172 311.21564Q149.3736 311.09064 149.8736 311.09064Q150.59235 311.09064 151.13922 311.3094Q151.70172 311.5125 151.96735 311.8719Q152.23297 312.23126 152.32672 312.825L151.29547 312.96564Q151.23297 312.4969 150.88922 312.23126Q150.5611 311.95 149.9361 311.95Q149.21735 311.95 148.90485 312.2Q148.59235 312.4344 148.59235 312.7625Q148.59235 312.96564 148.71735 313.1219Q148.85797 313.29376 149.1236 313.40314Q149.27985 313.46564 150.0611 313.66876Q151.1861 313.98126 151.6236 314.16876Q152.0611 314.35626 152.3111 314.71564Q152.5611 315.075 152.5611 315.6219Q152.5611 316.15314 152.2486 316.6219Q151.95172 317.075 151.3736 317.34064Q150.79547 317.59064 150.0611 317.59064Q148.84235 317.59064 148.20172 317.09064Q147.57672 316.575 147.40485 315.59064ZM157.1236 316.5125L157.27985 317.4344Q156.82672 317.52814 156.48297 317.52814Q155.90485 317.52814 155.59235 317.35626Q155.27985 317.16876 155.13922 316.8719Q155.01422 316.575 155.01422 315.6219L155.01422 312.04376L154.2486 312.04376L154.2486 311.23126L155.01422 311.23126L155.01422 309.6844L156.0611 309.0594L156.0611 311.23126L157.1236 311.23126L157.1236 312.04376L156.0611 312.04376L156.0611 315.6844Q156.0611 316.1375 156.10797 316.2625Q156.17047 316.3875 156.29547 316.46564Q156.42047 316.54376 156.65485 316.54376Q156.84235 316.54376 157.1236 316.5125ZM161.88922 316.6844Q161.29547 317.1844 160.7486 317.3875Q160.21735 317.59064 159.59235 317.59064Q158.5611 317.59064 158.01422 317.09064Q157.46735 316.59064 157.46735 315.8094Q157.46735 315.35626 157.67047 314.98126Q157.8736 314.59064 158.21735 314.3719Q158.5611 314.1375 158.98297 314.02814Q159.27985 313.9344 159.92047 313.85626Q161.1861 313.71564 161.79547 313.4969Q161.79547 313.27814 161.79547 313.23126Q161.79547 312.575 161.4986 312.3094Q161.09235 311.96564 160.29547 311.96564Q159.5611 311.96564 159.20172 312.23126Q158.84235 312.48126 158.67047 313.1375L157.63922 312.9969Q157.77985 312.34064 158.10797 311.9344Q158.4361 311.52814 159.04547 311.3094Q159.65485 311.09064 160.45172 311.09064Q161.2486 311.09064 161.7486 311.27814Q162.2486 311.46564 162.48297 311.7469Q162.71735 312.02814 162.8111 312.46564Q162.85797 312.73126 162.85797 313.4344L162.85797 314.84064Q162.85797 316.3094 162.92047 316.7Q162.9986 317.09064 163.20172 317.45L162.09235 317.45Q161.9361 317.1219 161.88922 316.6844ZM161.79547 314.325Q161.21735 314.5594 160.07672 314.73126Q159.42047 314.825 159.15485 314.95Q158.88922 315.0594 158.73297 315.27814Q158.59235 315.4969 158.59235 315.77814Q158.59235 316.2 158.90485 316.48126Q159.23297 316.7625 159.84235 316.7625Q160.45172 316.7625 160.92047 316.4969Q161.40485 316.23126 161.6236 315.7625Q161.79547 315.40314 161.79547 314.71564L161.79547 314.325ZM167.1236 316.5125L167.27985 317.4344Q166.82672 317.52814 166.48297 317.52814Q165.90485 317.52814 165.59235 317.35626Q165.27985 317.16876 165.13922 316.8719Q165.01422 316.575 165.01422 315.6219L165.01422 312.04376L164.2486 312.04376L164.2486 311.23126L165.01422 311.23126L165.01422 309.6844L166.0611 309.0594L166.0611 311.23126L167.1236 311.23126L167.1236 312.04376L166.0611 312.04376L166.0611 315.6844Q166.0611 316.1375 166.10797 316.2625Q166.17047 316.3875 166.29547 316.46564Q166.42047 316.54376 166.65485 316.54376Q166.84235 316.54376 167.1236 316.5125ZM172.07672 315.45L173.17047 315.575Q172.92047 316.52814 172.21735 317.0594Q171.51422 317.59064 170.4361 317.59064Q169.07672 317.59064 168.26422 316.7469Q167.46735 315.90314 167.46735 314.3875Q167.46735 312.825 168.27985 311.96564Q169.09235 311.09064 170.3736 311.09064Q171.6236 311.09064 172.40485 311.9344Q173.20172 312.77814 173.20172 314.325Q173.20172 314.41876 173.20172 314.60626L168.5611 314.60626Q168.6236 315.6375 169.13922 316.1844Q169.65485 316.71564 170.4361 316.71564Q171.01422 316.71564 171.42047 316.41876Q171.84235 316.10626 172.07672 315.45ZM168.6236 313.7469L172.09235 313.7469Q172.02985 312.95 171.70172 312.5594Q171.1861 311.95 170.38922 311.95Q169.65485 311.95 169.15485 312.4344Q168.67047 312.91876 168.6236 313.7469Z" fill-rule="nonzero"/><path fill="#000000" d="M282.07812 313.2625Q282.07812 311.1219 283.21875 309.91876Q284.375 308.7 286.1875 308.7Q287.39062 308.7 288.34375 309.27814Q289.29688 309.84064 289.79688 310.85626Q290.29688 311.8719 290.29688 313.16876Q290.29688 314.46564 289.76562 315.4969Q289.23438 316.52814 288.26562 317.0594Q287.3125 317.59064 286.1875 317.59064Q284.96875 317.59064 284.01562 317.0125Q283.0625 316.41876 282.5625 315.41876Q282.07812 314.40314 282.07812 313.2625ZM283.25 313.27814Q283.25 314.84064 284.07812 315.73126Q284.92188 316.6219 286.1875 316.6219Q287.46875 316.6219 288.29688 315.73126Q289.125 314.825 289.125 313.15314Q289.125 312.10626 288.76562 311.325Q288.42188 310.54376 287.73438 310.1219Q287.04688 309.6844 286.20312 309.6844Q285.0 309.6844 284.125 310.5125Q283.25 311.34064 283.25 313.27814ZM295.375 317.45L295.375 316.52814Q294.64062 317.59064 293.39062 317.59064Q292.84375 317.59064 292.35938 317.3875Q291.89062 317.16876 291.65625 316.85626Q291.42188 316.52814 291.32812 316.0594Q291.26562 315.7625 291.26562 315.075L291.26562 311.23126L292.32812 311.23126L292.32812 314.6844Q292.32812 315.4969 292.39062 315.79376Q292.48438 316.2 292.79688 316.45Q293.125 316.6844 293.60938 316.6844Q294.07812 316.6844 294.48438 316.45Q294.90625 316.2 295.07812 315.77814Q295.26562 315.35626 295.26562 314.5594L295.26562 311.23126L296.3125 311.23126L296.3125 317.45L295.375 317.45ZM300.59375 316.5125L300.75 317.4344Q300.29688 317.52814 299.95312 317.52814Q299.375 317.52814 299.0625 317.35626Q298.75 317.16876 298.60938 316.8719Q298.48438 316.575 298.48438 315.6219L298.48438 312.04376L297.71875 312.04376L297.71875 311.23126L298.48438 311.23126L298.48438 309.6844L299.53125 309.0594L299.53125 311.23126L300.59375 311.23126L300.59375 312.04376L299.53125 312.04376L299.53125 315.6844Q299.53125 316.1375 299.57812 316.2625Q299.64062 316.3875 299.76562 316.46564Q299.89062 316.54376 300.125 316.54376Q300.3125 316.54376 300.59375 316.5125ZM300.875 314.8719L300.875 313.8094L304.125 313.8094L304.125 314.8719L300.875 314.8719ZM304.90625 314.34064Q304.90625 312.60626 305.85938 311.77814Q306.65625 311.09064 307.8125 311.09064Q309.09375 311.09064 309.90625 311.9344Q310.73438 312.7625 310.73438 314.2469Q310.73438 315.45 310.375 316.1375Q310.01562 316.825 309.3125 317.21564Q308.625 317.59064 307.8125 317.59064Q306.51562 317.59064 305.70312 316.7625Q304.90625 315.91876 304.90625 314.34064ZM305.98438 314.34064Q305.98438 315.52814 306.5 316.1219Q307.03125 316.71564 307.8125 316.71564Q308.60938 316.71564 309.125 316.1219Q309.64062 315.52814 309.64062 314.3094Q309.64062 313.15314 309.10938 312.5594Q308.59375 311.96564 307.8125 311.96564Q307.03125 311.96564 306.5 312.5594Q305.98438 313.1375 305.98438 314.34064ZM312.54688 317.45L312.54688 312.04376L311.60938 312.04376L311.60938 311.23126L312.54688 311.23126L312.54688 310.5594Q312.54688 309.9344 312.65625 309.6375Q312.8125 309.21564 313.1875 308.96564Q313.57812 308.71564 314.26562 308.71564Q314.71875 308.71564 315.25 308.825L315.09375 309.73126Q314.76562 309.6844 314.46875 309.6844Q313.98438 309.6844 313.78125 309.8875Q313.59375 310.09064 313.59375 310.65314L313.59375 311.23126L314.8125 311.23126L314.8125 312.04376L313.59375 312.04376L313.59375 317.45L312.54688 317.45ZM314.875 314.8719L314.875 313.8094L318.125 313.8094L318.125 314.8719L314.875 314.8719ZM318.875 315.59064L319.90625 315.4344Q320.0 316.0594 320.39062 316.3875Q320.79688 316.71564 321.53125 316.71564Q322.25 316.71564 322.59375 316.4344Q322.95312 316.1375 322.95312 315.73126Q322.95312 315.3719 322.64062 315.16876Q322.42188 315.02814 321.5625 314.8094Q320.40625 314.5125 319.95312 314.3094Q319.51562 314.09064 319.28125 313.71564Q319.04688 313.34064 319.04688 312.8719Q319.04688 312.46564 319.23438 312.10626Q319.42188 311.7469 319.75 311.5125Q320.0 311.34064 320.42188 311.21564Q320.84375 311.09064 321.34375 311.09064Q322.0625 311.09064 322.60938 311.3094Q323.17188 311.5125 323.4375 311.8719Q323.70312 312.23126 323.79688 312.825L322.76562 312.96564Q322.70312 312.4969 322.35938 312.23126Q322.03125 311.95 321.40625 311.95Q320.6875 311.95 320.375 312.2Q320.0625 312.4344 320.0625 312.7625Q320.0625 312.96564 320.1875 313.1219Q320.32812 313.29376 320.59375 313.40314Q320.75 313.46564 321.53125 313.66876Q322.65625 313.98126 323.09375 314.16876Q323.53125 314.35626 323.78125 314.71564Q324.03125 315.075 324.03125 315.6219Q324.03125 316.15314 323.71875 316.6219Q323.42188 317.075 322.84375 317.34064Q322.26562 317.59064 321.53125 317.59064Q320.3125 317.59064 319.67188 317.09064Q319.04688 316.575 318.875 315.59064ZM328.59375 316.5125L328.75 317.4344Q328.29688 317.52814 327.95312 317.52814Q327.375 317.52814 327.0625 317.35626Q326.75 317.16876 326.60938 316.8719Q326.48438 316.575 326.48438 315.6219L326.48438 312.04376L325.71875 312.04376L325.71875 311.23126L326.48438 311.23126L326.48438 309.6844L327.53125 309.0594L327.53125 311.23126L328.59375 311.23126L328.59375 312.04376L327.53125 312.04376L327.53125 315.6844Q327.53125 316.1375 327.57812 316.2625Q327.64062 316.3875 327.76562 316.46564Q327.89062 316.54376 328.125 316.54376Q328.3125 316.54376 328.59375 316.5125ZM333.35938 316.6844Q332.76562 317.1844 332.21875 317.3875Q331.6875 317.59064 331.0625 317.59064Q330.03125 317.59064 329.48438 317.09064Q328.9375 316.59064 328.9375 315.8094Q328.9375 315.35626 329.14062 314.98126Q329.34375 314.59064 329.6875 314.3719Q330.03125 314.1375 330.45312 314.02814Q330.75 313.9344 331.39062 313.85626Q332.65625 313.71564 333.26562 313.4969Q333.26562 313.27814 333.26562 313.23126Q333.26562 312.575 332.96875 312.3094Q332.5625 311.96564 331.76562 311.96564Q331.03125 311.96564 330.67188 312.23126Q330.3125 312.48126 330.14062 313.1375L329.10938 312.9969Q329.25 312.34064 329.57812 311.9344Q329.90625 311.52814 330.51562 311.3094Q331.125 311.09064 331.92188 311.09064Q332.71875 311.09064 333.21875 311.27814Q333.71875 311.46564 333.95312 311.7469Q334.1875 312.02814 334.28125 312.46564Q334.32812 312.73126 334.32812 313.4344L334.32812 314.84064Q334.32812 316.3094 334.39062 316.7Q334.46875 317.09064 334.67188 317.45L333.5625 317.45Q333.40625 317.1219 333.35938 316.6844ZM333.26562 314.325Q332.6875 314.5594 331.54688 314.73126Q330.89062 314.825 330.625 314.95Q330.35938 315.0594 330.20312 315.27814Q330.0625 315.4969 330.0625 315.77814Q330.0625 316.2 330.375 316.48126Q330.70312 316.7625 331.3125 316.7625Q331.92188 316.7625 332.39062 316.4969Q332.875 316.23126 333.09375 315.7625Q333.26562 315.40314 333.26562 314.71564L333.26562 314.325ZM338.59375 316.5125L338.75 317.4344Q338.29688 317.52814 337.95312 317.52814Q337.375 317.52814 337.0625 317.35626Q336.75 317.16876 336.60938 316.8719Q336.48438 316.575 336.48438 315.6219L336.48438 312.04376L335.71875 312.04376L335.71875 311.23126L336.48438 311.23126L336.48438 309.6844L337.53125 309.0594L337.53125 311.23126L338.59375 311.23126L338.59375 312.04376L337.53125 312.04376L337.53125 315.6844Q337.53125 316.1375 337.57812 316.2625Q337.64062 316.3875 337.76562 316.46564Q337.89062 316.54376 338.125 316.54376Q338.3125 316.54376 338.59375 316.5125ZM343.54688 315.45L344.64062 315.575Q344.39062 316.52814 343.6875 317.0594Q342.98438 317.59064 341.90625 317.59064Q340.54688 317.59064 339.73438 316.7469Q338.9375 315.90314 338.9375 314.3875Q338.9375 312.825 339.75 311.96564Q340.5625 311.09064 341.84375 311.09064Q343.09375 311.09064 343.875 311.9344Q344.67188 312.77814 344.67188 314.325Q344.67188 314.41876 344.67188 314.60626L340.03125 314.60626Q340.09375 315.6375 340.60938 316.1844Q341.125 316.71564 341.90625 316.71564Q342.48438 316.71564 342.89062 316.41876Q343.3125 316.10626 343.54688 315.45ZM340.09375 313.7469L343.5625 313.7469Q343.5 312.95 343.17188 312.5594Q342.65625 311.95 341.85938 311.95Q341.125 311.95 340.625 312.4344Q340.14062 312.91876 340.09375 313.7469Z" fill-rule="nonzero"/><path fill="#000000" d="M440.59515 317.45L440.59515 308.85626L441.72015 308.85626L441.72015 317.45L440.59515 317.45ZM443.26703 317.45L443.26703 311.23126L444.20453 311.23126L444.20453 312.10626Q444.89203 311.09064 446.1889 311.09064Q446.7514 311.09064 447.22015 311.29376Q447.70453 311.4969 447.9389 311.825Q448.17328 312.15314 448.26703 312.59064Q448.3139 312.8875 448.3139 313.6219L448.3139 317.45L447.26703 317.45L447.26703 313.66876Q447.26703 313.0125 447.14203 312.7Q447.01703 312.3875 446.70453 312.2Q446.39203 311.9969 445.97015 311.9969Q445.29828 311.9969 444.79828 312.4344Q444.3139 312.85626 444.3139 314.04376L444.3139 317.45L443.26703 317.45ZM452.5639 316.5125L452.72015 317.4344Q452.26703 317.52814 451.92328 317.52814Q451.34515 317.52814 451.03265 317.35626Q450.72015 317.16876 450.57953 316.8719Q450.45453 316.575 450.45453 315.6219L450.45453 312.04376L449.6889 312.04376L449.6889 311.23126L450.45453 311.23126L450.45453 309.6844L451.5014 309.0594L451.5014 311.23126L452.5639 311.23126L452.5639 312.04376L451.5014 312.04376L451.5014 315.6844Q451.5014 316.1375 451.54828 316.2625Q451.61078 316.3875 451.73578 316.46564Q451.86078 316.54376 452.09515 316.54376Q452.28265 316.54376 452.5639 316.5125ZM457.51703 315.45L458.61078 315.575Q458.36078 316.52814 457.65765 317.0594Q456.95453 317.59064 455.8764 317.59064Q454.51703 317.59064 453.70453 316.7469Q452.90765 315.90314 452.90765 314.3875Q452.90765 312.825 453.72015 311.96564Q454.53265 311.09064 455.8139 311.09064Q457.0639 311.09064 457.84515 311.9344Q458.64203 312.77814 458.64203 314.325Q458.64203 314.41876 458.64203 314.60626L454.0014 314.60626Q454.0639 315.6375 454.57953 316.1844Q455.09515 316.71564 455.8764 316.71564Q456.45453 316.71564 456.86078 316.41876Q457.28265 316.10626 457.51703 315.45ZM454.0639 313.7469L457.53265 313.7469Q457.47015 312.95 457.14203 312.5594Q456.6264 311.95 455.82953 311.95Q455.09515 311.95 454.59515 312.4344Q454.11078 312.91876 454.0639 313.7469ZM460.2514 317.45L460.2514 311.23126L461.20453 311.23126L461.20453 312.16876Q461.5639 311.5125 461.86078 311.3094Q462.17328 311.09064 462.54828 311.09064Q463.07953 311.09064 463.6264 311.41876L463.26703 312.40314Q462.8764 312.16876 462.5014 312.16876Q462.14203 312.16876 461.86078 312.3875Q461.59515 312.59064 461.48578 312.96564Q461.29828 313.52814 461.29828 314.1844L461.29828 317.45L460.2514 317.45ZM464.26703 317.45L464.26703 311.23126L465.20453 311.23126L465.20453 312.10626Q465.89203 311.09064 467.1889 311.09064Q467.7514 311.09064 468.22015 311.29376Q468.70453 311.4969 468.9389 311.825Q469.17328 312.15314 469.26703 312.59064Q469.3139 312.8875 469.3139 313.6219L469.3139 317.45L468.26703 317.45L468.26703 313.66876Q468.26703 313.0125 468.14203 312.7Q468.01703 312.3875 467.70453 312.2Q467.39203 311.9969 466.97015 311.9969Q466.29828 311.9969 465.79828 312.4344Q465.3139 312.85626 465.3139 314.04376L465.3139 317.45L464.26703 317.45ZM475.32953 316.6844Q474.73578 317.1844 474.1889 317.3875Q473.65765 317.59064 473.03265 317.59064Q472.0014 317.59064 471.45453 317.09064Q470.90765 316.59064 470.90765 315.8094Q470.90765 315.35626 471.11078 314.98126Q471.3139 314.59064 471.65765 314.3719Q472.0014 314.1375 472.42328 314.02814Q472.72015 313.9344 473.36078 313.85626Q474.6264 313.71564 475.23578 313.4969Q475.23578 313.27814 475.23578 313.23126Q475.23578 312.575 474.9389 312.3094Q474.53265 311.96564 473.73578 311.96564Q473.0014 311.96564 472.64203 312.23126Q472.28265 312.48126 472.11078 313.1375L471.07953 312.9969Q471.22015 312.34064 471.54828 311.9344Q471.8764 311.52814 472.48578 311.3094Q473.09515 311.09064 473.89203 311.09064Q474.6889 311.09064 475.1889 311.27814Q475.6889 311.46564 475.92328 311.7469Q476.15765 312.02814 476.2514 312.46564Q476.29828 312.73126 476.29828 313.4344L476.29828 314.84064Q476.29828 316.3094 476.36078 316.7Q476.4389 317.09064 476.64203 317.45L475.53265 317.45Q475.3764 317.1219 475.32953 316.6844ZM475.23578 314.325Q474.65765 314.5594 473.51703 314.73126Q472.86078 314.825 472.59515 314.95Q472.32953 315.0594 472.17328 315.27814Q472.03265 315.4969 472.03265 315.77814Q472.03265 316.2 472.34515 316.48126Q472.67328 316.7625 473.28265 316.7625Q473.89203 316.7625 474.36078 316.4969Q474.84515 316.23126 475.0639 315.7625Q475.23578 315.40314 475.23578 314.71564L475.23578 314.325ZM480.5639 316.5125L480.72015 317.4344Q480.26703 317.52814 479.92328 317.52814Q479.34515 317.52814 479.03265 317.35626Q478.72015 317.16876 478.57953 316.8719Q478.45453 316.575 478.45453 315.6219L478.45453 312.04376L477.6889 312.04376L477.6889 311.23126L478.45453 311.23126L478.45453 309.6844L479.5014 309.0594L479.5014 311.23126L480.5639 311.23126L480.5639 312.04376L479.5014 312.04376L479.5014 315.6844Q479.5014 316.1375 479.54828 316.2625Q479.61078 316.3875 479.73578 316.46564Q479.86078 316.54376 480.09515 316.54376Q480.28265 316.54376 480.5639 316.5125ZM481.26703 310.075L481.26703 308.85626L482.32953 308.85626L482.32953 310.075L481.26703 310.075ZM481.26703 317.45L481.26703 311.23126L482.32953 311.23126L482.32953 317.45L481.26703 317.45ZM483.8764 314.34064Q483.8764 312.60626 484.82953 311.77814Q485.6264 311.09064 486.78265 311.09064Q488.0639 311.09064 488.8764 311.9344Q489.70453 312.7625 489.70453 314.2469Q489.70453 315.45 489.34515 316.1375Q488.98578 316.825 488.28265 317.21564Q487.59515 317.59064 486.78265 317.59064Q485.48578 317.59064 484.67328 316.7625Q483.8764 315.91876 483.8764 314.34064ZM484.95453 314.34064Q484.95453 315.52814 485.47015 316.1219Q486.0014 316.71564 486.78265 316.71564Q487.57953 316.71564 488.09515 316.1219Q488.61078 315.52814 488.61078 314.3094Q488.61078 313.15314 488.07953 312.5594Q487.5639 311.96564 486.78265 311.96564Q486.0014 311.96564 485.47015 312.5594Q484.95453 313.1375 484.95453 314.34064ZM491.26703 317.45L491.26703 311.23126L492.20453 311.23126L492.20453 312.10626Q492.89203 311.09064 494.1889 311.09064Q494.7514 311.09064 495.22015 311.29376Q495.70453 311.4969 495.9389 311.825Q496.17328 312.15314 496.26703 312.59064Q496.3139 312.8875 496.3139 313.6219L496.3139 317.45L495.26703 317.45L495.26703 313.66876Q495.26703 313.0125 495.14203 312.7Q495.01703 312.3875 494.70453 312.2Q494.39203 311.9969 493.97015 311.9969Q493.29828 311.9969 492.79828 312.4344Q492.3139 312.85626 492.3139 314.04376L492.3139 317.45L491.26703 317.45ZM502.32953 316.6844Q501.73578 317.1844 501.1889 317.3875Q500.65765 317.59064 500.03265 317.59064Q499.0014 317.59064 498.45453 317.09064Q497.90765 316.59064 497.90765 315.8094Q497.90765 315.35626 498.11078 314.98126Q498.3139 314.59064 498.65765 314.3719Q499.0014 314.1375 499.42328 314.02814Q499.72015 313.9344 500.36078 313.85626Q501.6264 313.71564 502.23578 313.4969Q502.23578 313.27814 502.23578 313.23126Q502.23578 312.575 501.9389 312.3094Q501.53265 311.96564 500.73578 311.96564Q500.0014 311.96564 499.64203 312.23126Q499.28265 312.48126 499.11078 313.1375L498.07953 312.9969Q498.22015 312.34064 498.54828 311.9344Q498.8764 311.52814 499.48578 311.3094Q500.09515 311.09064 500.89203 311.09064Q501.6889 311.09064 502.1889 311.27814Q502.6889 311.46564 502.92328 311.7469Q503.15765 312.02814 503.2514 312.46564Q503.29828 312.73126 503.29828 313.4344L503.29828 314.84064Q503.29828 316.3094 503.36078 316.7Q503.4389 317.09064 503.64203 317.45L502.53265 317.45Q502.3764 317.1219 502.32953 316.6844ZM502.23578 314.325Q501.65765 314.5594 500.51703 314.73126Q499.86078 314.825 499.59515 314.95Q499.32953 315.0594 499.17328 315.27814Q499.03265 315.4969 499.03265 315.77814Q499.03265 316.2 499.34515 316.48126Q499.67328 316.7625 500.28265 316.7625Q500.89203 316.7625 501.36078 316.4969Q501.84515 316.23126 502.0639 315.7625Q502.23578 315.40314 502.23578 314.71564L502.23578 314.325ZM505.23578 317.45L505.23578 308.85626L506.29828 308.85626L506.29828 317.45L505.23578 317.45Z" fill-rule="nonzero"/><path fill="#757575" d="M30.315624 32.534374L32.20625 33.003124Q31.6125 35.346874 30.065624 36.58125Q28.51875 37.8 26.26875 37.8Q23.95625 37.8 22.503124 36.8625Q21.065624 35.909374 20.3 34.128124Q19.55 32.33125 19.55 30.284374Q19.55 28.05 20.39375 26.39375Q21.253124 24.721874 22.83125 23.8625Q24.409374 22.9875 26.3 22.9875Q28.45625 22.9875 29.909374 24.08125Q31.378124 25.175 31.95625 27.159374L30.096874 27.596874Q29.596874 26.034374 28.64375 25.33125Q27.70625 24.6125 26.26875 24.6125Q24.6125 24.6125 23.503124 25.409374Q22.39375 26.190624 21.940624 27.534374Q21.503124 28.8625 21.503124 30.26875Q21.503124 32.096874 22.034374 33.471874Q22.565624 34.83125 23.690624 35.503124Q24.815624 36.175 26.1125 36.175Q27.70625 36.175 28.815624 35.253124Q29.925 34.33125 30.315624 32.534374ZM33.221874 32.3625Q33.221874 29.4875 34.815624 28.096874Q36.159374 26.940624 38.08125 26.940624Q40.221874 26.940624 41.565624 28.346874Q42.925 29.753124 42.925 32.221874Q42.925 34.221874 42.33125 35.378124Q41.7375 36.51875 40.58125 37.159374Q39.440624 37.784374 38.08125 37.784374Q35.89375 37.784374 34.55 36.39375Q33.221874 34.9875 33.221874 32.3625ZM35.01875 32.3625Q35.01875 34.3625 35.878124 35.346874Q36.753124 36.33125 38.08125 36.33125Q39.39375 36.33125 40.253124 35.346874Q41.128124 34.346874 41.128124 32.3Q41.128124 30.378124 40.253124 29.39375Q39.378124 28.39375 38.08125 28.39375Q36.753124 28.39375 35.878124 29.39375Q35.01875 30.378124 35.01875 32.3625ZM51.659374 37.55L51.659374 36.01875Q50.45625 37.784374 48.378124 37.784374Q47.45625 37.784374 46.659374 37.440624Q45.8625 37.08125 45.471874 36.55Q45.096874 36.01875 44.940624 35.2375Q44.83125 34.721874 44.83125 33.596874L44.83125 27.175L46.58125 27.175L46.58125 32.925Q46.58125 34.3 46.690624 34.784374Q46.8625 35.471874 47.39375 35.878124Q47.940624 36.26875 48.721874 36.26875Q49.51875 36.26875 50.20625 35.8625Q50.909374 35.45625 51.190624 34.76875Q51.4875 34.065624 51.4875 32.7375L51.4875 27.175L53.2375 27.175L53.2375 37.55L51.659374 37.55ZM54.8625 37.55L54.8625 27.175L56.45625 27.175L56.45625 28.659374Q57.596874 26.940624 59.753124 26.940624Q60.690624 26.940624 61.471874 27.284374Q62.26875 27.6125 62.659374 28.159374Q63.05 28.70625 63.20625 29.45625Q63.3 29.95625 63.3 31.175L63.3 37.55L61.534374 37.55L61.534374 31.2375Q61.534374 30.159374 61.33125 29.628124Q61.128124 29.096874 60.596874 28.784374Q60.08125 28.471874 59.378124 28.471874Q58.253124 28.471874 57.440624 29.190624Q56.628124 29.89375 56.628124 31.878124L56.628124 37.55L54.8625 37.55ZM68.70625 35.971874L68.95625 37.534374Q68.22188 37.690624 67.62813 37.690624Q66.675 37.690624 66.14375 37.39375Q65.62813 37.08125 65.40938 36.596874Q65.19063 36.096874 65.19063 34.51875L65.19063 28.55L63.909374 28.55L63.909374 27.175L65.19063 27.175L65.19063 24.6125L66.94063 23.55L66.94063 27.175L68.70625 27.175L68.70625 28.55L66.94063 28.55L66.94063 34.6125Q66.94063 35.3625 67.03438 35.58125Q67.12813 35.784374 67.33125 35.925Q67.55 36.05 67.94063 36.05Q68.22188 36.05 68.70625 35.971874ZM76.22188 32.3625Q76.22188 29.4875 77.81563 28.096874Q79.15938 26.940624 81.08125 26.940624Q83.22188 26.940624 84.56563 28.346874Q85.925 29.753124 85.925 32.221874Q85.925 34.221874 85.33125 35.378124Q84.7375 36.51875 83.58125 37.159374Q82.44063 37.784374 81.08125 37.784374Q78.89375 37.784374 77.55 36.39375Q76.22188 34.9875 76.22188 32.3625ZM78.01875 32.3625Q78.01875 34.3625 78.87813 35.346874Q79.75313 36.33125 81.08125 36.33125Q82.39375 36.33125 83.25313 35.346874Q84.12813 34.346874 84.12813 32.3Q84.12813 30.378124 83.25313 29.39375Q82.37813 28.39375 81.08125 28.39375Q79.75313 28.39375 78.87813 29.39375Q78.01875 30.378124 78.01875 32.3625ZM88.28438 37.55L88.28438 28.55L86.7375 28.55L86.7375 27.175L88.28438 27.175L88.28438 26.08125Q88.28438 25.034374 88.47188 24.51875Q88.72188 23.83125 89.3625 23.409374Q90.00313 22.9875 91.15938 22.9875Q91.90938 22.9875 92.8 23.159374L92.53438 24.690624Q91.9875 24.596874 91.50313 24.596874Q90.70625 24.596874 90.3625 24.940624Q90.03438 25.284374 90.03438 26.221874L90.03438 27.175L92.06563 27.175L92.06563 28.55L90.03438 28.55L90.03438 37.55L88.28438 37.55ZM102.59688 37.55L98.8 23.2375L100.7375 23.2375L102.90938 32.6125Q103.26875 34.096874 103.51875 35.55Q104.06563 33.253124 104.15938 32.89375L106.89375 23.2375L109.175 23.2375L111.22188 30.471874Q112.00313 33.175 112.34688 35.55Q112.6125 34.190624 113.05 32.425L115.3 23.2375L117.20625 23.2375L113.28438 37.55L111.45625 37.55L108.44063 26.64375Q108.05 25.26875 107.9875 24.95625Q107.75313 25.940624 107.56563 26.64375L104.53438 37.55L102.59688 37.55ZM118.8625 37.55L118.8625 23.2375L120.62813 23.2375L120.62813 28.3625Q121.8625 26.940624 123.7375 26.940624Q124.87813 26.940624 125.72188 27.39375Q126.58125 27.846874 126.94063 28.659374Q127.31563 29.45625 127.31563 30.971874L127.31563 37.55L125.56563 37.55L125.56563 30.971874Q125.56563 29.659374 124.9875 29.065624Q124.40938 28.45625 123.37813 28.45625Q122.59688 28.45625 121.89375 28.8625Q121.20625 29.26875 120.90938 29.971874Q120.62813 30.659374 120.62813 31.878124L120.62813 37.55L118.8625 37.55ZM135.64375 36.26875Q134.65938 37.096874 133.75313 37.440624Q132.84688 37.784374 131.81563 37.784374Q130.1125 37.784374 129.19063 36.95625Q128.26875 36.1125 128.26875 34.815624Q128.26875 34.05 128.6125 33.425Q128.97188 32.8 129.53438 32.425Q130.09688 32.034374 130.8 31.83125Q131.31563 31.70625 132.3625 31.565624Q134.4875 31.315624 135.4875 30.971874Q135.50313 30.6125 135.50313 30.503124Q135.50313 29.440624 135.00313 28.9875Q134.33125 28.39375 133.00313 28.39375Q131.75313 28.39375 131.15938 28.83125Q130.58125 29.26875 130.3 30.378124L128.58125 30.14375Q128.81563 29.034374 129.34688 28.3625Q129.87813 27.675 130.89375 27.315624Q131.90938 26.940624 133.25313 26.940624Q134.58125 26.940624 135.40938 27.253124Q136.2375 27.565624 136.62813 28.05Q137.01875 28.51875 137.175 29.2375Q137.26875 29.690624 137.26875 30.8625L137.26875 33.20625Q137.26875 35.659374 137.37813 36.315624Q137.4875 36.95625 137.83125 37.55L135.9875 37.55Q135.72188 37.003124 135.64375 36.26875ZM135.4875 32.346874Q134.53438 32.7375 132.6125 33.003124Q131.53438 33.159374 131.08125 33.3625Q130.64375 33.55 130.39375 33.925Q130.14375 34.3 130.14375 34.76875Q130.14375 35.471874 130.675 35.940624Q131.20625 36.409374 132.2375 36.409374Q133.25313 36.409374 134.03438 35.971874Q134.83125 35.51875 135.20625 34.753124Q135.4875 34.14375 135.4875 32.9875L135.4875 32.346874ZM143.70625 35.971874L143.95625 37.534374Q143.22188 37.690624 142.62813 37.690624Q141.675 37.690624 141.14375 37.39375Q140.62813 37.08125 140.40938 36.596874Q140.19063 36.096874 140.19063 34.51875L140.19063 28.55L138.90938 28.55L138.90938 27.175L140.19063 27.175L140.19063 24.6125L141.94063 23.55L141.94063 27.175L143.70625 27.175L143.70625 28.55L141.94063 28.55L141.94063 34.6125Q141.94063 35.3625 142.03438 35.58125Q142.12813 35.784374 142.33125 35.925Q142.55 36.05 142.94063 36.05Q143.22188 36.05 143.70625 35.971874ZM151.87813 25.253124L151.87813 23.2375L153.64375 23.2375L153.64375 25.253124L151.87813 25.253124ZM151.87813 37.55L151.87813 27.175L153.64375 27.175L153.64375 37.55L151.87813 37.55ZM155.15938 34.45625L156.90938 34.175Q157.05 35.221874 157.72188 35.784374Q158.39375 36.33125 159.59688 36.33125Q160.8 36.33125 161.37813 35.846874Q161.97188 35.346874 161.97188 34.690624Q161.97188 34.096874 161.45625 33.753124Q161.09688 33.51875 159.65938 33.159374Q157.72188 32.659374 156.97188 32.315624Q156.2375 31.95625 155.84688 31.33125Q155.45625 30.690624 155.45625 29.925Q155.45625 29.2375 155.76875 28.64375Q156.09688 28.05 156.64375 27.659374Q157.05 27.3625 157.75313 27.159374Q158.47188 26.940624 159.28438 26.940624Q160.50313 26.940624 161.425 27.3Q162.34688 27.64375 162.78438 28.253124Q163.22188 28.846874 163.39375 29.846874L161.675 30.08125Q161.55 29.284374 160.9875 28.846874Q160.425 28.39375 159.40938 28.39375Q158.19063 28.39375 157.675 28.8Q157.15938 29.190624 157.15938 29.721874Q157.15938 30.065624 157.37813 30.346874Q157.58125 30.628124 158.05 30.815624Q158.31563 30.909374 159.59688 31.253124Q161.47188 31.753124 162.20625 32.08125Q162.94063 32.39375 163.3625 33.003124Q163.78438 33.596874 163.78438 34.503124Q163.78438 35.378124 163.26875 36.159374Q162.75313 36.940624 161.78438 37.3625Q160.81563 37.784374 159.59688 37.784374Q157.58125 37.784374 156.51875 36.940624Q155.45625 36.096874 155.15938 34.45625ZM170.55 37.8L174.70625 22.9875L176.1125 22.9875L171.97188 37.8L170.55 37.8ZM185.78438 37.55L182.6125 27.175L184.425 27.175L186.08125 33.159374L186.69063 35.39375Q186.7375 35.221874 187.22188 33.253124L188.87813 27.175L190.69063 27.175L192.2375 33.190624L192.75313 35.175L193.34688 33.175L195.12813 27.175L196.83125 27.175L193.59688 37.55L191.76875 37.55L190.1125 31.33125L189.72188 29.565624L187.6125 37.55L185.78438 37.55ZM205.64375 36.26875Q204.65938 37.096874 203.75313 37.440624Q202.84688 37.784374 201.81563 37.784374Q200.1125 37.784374 199.19063 36.95625Q198.26875 36.1125 198.26875 34.815624Q198.26875 34.05 198.6125 33.425Q198.97188 32.8 199.53438 32.425Q200.09688 32.034374 200.8 31.83125Q201.31563 31.70625 202.3625 31.565624Q204.4875 31.315624 205.4875 30.971874Q205.50313 30.6125 205.50313 30.503124Q205.50313 29.440624 205.00313 28.9875Q204.33125 28.39375 203.00313 28.39375Q201.75313 28.39375 201.15938 28.83125Q200.58125 29.26875 200.3 30.378124L198.58125 30.14375Q198.81563 29.034374 199.34688 28.3625Q199.87813 27.675 200.89375 27.315624Q201.90938 26.940624 203.25313 26.940624Q204.58125 26.940624 205.40938 27.253124Q206.2375 27.565624 206.62813 28.05Q207.01875 28.51875 207.175 29.2375Q207.26875 29.690624 207.26875 30.8625L207.26875 33.20625Q207.26875 35.659374 207.37813 36.315624Q207.4875 36.95625 207.83125 37.55L205.9875 37.55Q205.72188 37.003124 205.64375 36.26875ZM205.4875 32.346874Q204.53438 32.7375 202.6125 33.003124Q201.53438 33.159374 201.08125 33.3625Q200.64375 33.55 200.39375 33.925Q200.14375 34.3 200.14375 34.76875Q200.14375 35.471874 200.675 35.940624Q201.20625 36.409374 202.2375 36.409374Q203.25313 36.409374 204.03438 35.971874Q204.83125 35.51875 205.20625 34.753124Q205.4875 34.14375 205.4875 32.9875L205.4875 32.346874ZM209.15938 34.45625L210.90938 34.175Q211.05 35.221874 211.72188 35.784374Q212.39375 36.33125 213.59688 36.33125Q214.8 36.33125 215.37813 35.846874Q215.97188 35.346874 215.97188 34.690624Q215.97188 34.096874 215.45625 33.753124Q215.09688 33.51875 213.65938 33.159374Q211.72188 32.659374 210.97188 32.315624Q210.2375 31.95625 209.84688 31.33125Q209.45625 30.690624 209.45625 29.925Q209.45625 29.2375 209.76875 28.64375Q210.09688 28.05 210.64375 27.659374Q211.05 27.3625 211.75313 27.159374Q212.47188 26.940624 213.28438 26.940624Q214.50313 26.940624 215.425 27.3Q216.34688 27.64375 216.78438 28.253124Q217.22188 28.846874 217.39375 29.846874L215.675 30.08125Q215.55 29.284374 214.9875 28.846874Q214.425 28.39375 213.40938 28.39375Q212.19063 28.39375 211.675 28.8Q211.15938 29.190624 211.15938 29.721874Q211.15938 30.065624 211.37813 30.346874Q211.58125 30.628124 212.05 30.815624Q212.31563 30.909374 213.59688 31.253124Q215.47188 31.753124 216.20625 32.08125Q216.94063 32.39375 217.3625 33.003124Q217.78438 33.596874 217.78438 34.503124Q217.78438 35.378124 217.26875 36.159374Q216.75313 36.940624 215.78438 37.3625Q214.81563 37.784374 213.59688 37.784374Q211.58125 37.784374 210.51875 36.940624Q209.45625 36.096874 209.15938 34.45625ZM225.78438 41.55L225.59688 39.89375Q226.175 40.05 226.59688 40.05Q227.19063 40.05 227.53438 39.846874Q227.89375 39.659374 228.1125 39.315624Q228.28438 39.05 228.65938 38.003124Q228.70625 37.846874 228.81563 37.565624L224.87813 27.175L226.76875 27.175L228.925 33.190624Q229.34688 34.33125 229.675 35.58125Q229.9875 34.378124 230.39375 33.221874L232.6125 27.175L234.37813 27.175L230.425 37.721874Q229.8 39.440624 229.44063 40.08125Q228.97188 40.95625 228.3625 41.346874Q227.76875 41.753124 226.925 41.753124Q226.40938 41.753124 225.78438 41.55ZM235.22188 32.3625Q235.22188 29.4875 236.81563 28.096874Q238.15938 26.940624 240.08125 26.940624Q242.22188 26.940624 243.56563 28.346874Q244.925 29.753124 244.925 32.221874Q244.925 34.221874 244.33125 35.378124Q243.7375 36.51875 242.58125 37.159374Q241.44063 37.784374 240.08125 37.784374Q237.89375 37.784374 236.55 36.39375Q235.22188 34.9875 235.22188 32.3625ZM237.01875 32.3625Q237.01875 34.3625 237.87813 35.346874Q238.75313 36.33125 240.08125 36.33125Q241.39375 36.33125 242.25313 35.346874Q243.12813 34.346874 243.12813 32.3Q243.12813 30.378124 242.25313 29.39375Q241.37813 28.39375 240.08125 28.39375Q238.75313 28.39375 237.87813 29.39375Q237.01875 30.378124 237.01875 32.3625ZM253.65938 37.55L253.65938 36.01875Q252.45625 37.784374 250.37813 37.784374Q249.45625 37.784374 248.65938 37.440624Q247.8625 37.08125 247.47188 36.55Q247.09688 36.01875 246.94063 35.2375Q246.83125 34.721874 246.83125 33.596874L246.83125 27.175L248.58125 27.175L248.58125 32.925Q248.58125 34.3 248.69063 34.784374Q248.8625 35.471874 249.39375 35.878124Q249.94063 36.26875 250.72188 36.26875Q251.51875 36.26875 252.20625 35.8625Q252.90938 35.45625 253.19063 34.76875Q253.4875 34.065624 253.4875 32.7375L253.4875 27.175L255.2375 27.175L255.2375 37.55L253.65938 37.55ZM256.84686 37.55L256.84686 27.175L258.425 27.175L258.425 28.753124Q259.03436 27.64375 259.55 27.3Q260.0656 26.940624 260.675 26.940624Q261.5656 26.940624 262.4875 27.503124L261.8781 29.14375Q261.2375 28.753124 260.59686 28.753124Q260.01874 28.753124 259.55 29.1125Q259.09686 29.45625 258.89374 30.065624Q258.6125 31.003124 258.6125 32.1125L258.6125 37.55L256.84686 37.55ZM269.15936 34.45625L270.90936 34.175Q271.05 35.221874 271.72186 35.784374Q272.39374 36.33125 273.59686 36.33125Q274.8 36.33125 275.3781 35.846874Q275.97186 35.346874 275.97186 34.690624Q275.97186 34.096874 275.45624 33.753124Q275.09686 33.51875 273.65936 33.159374Q271.72186 32.659374 270.97186 32.315624Q270.2375 31.95625 269.84686 31.33125Q269.45624 30.690624 269.45624 29.925Q269.45624 29.2375 269.76874 28.64375Q270.09686 28.05 270.64374 27.659374Q271.05 27.3625 271.7531 27.159374Q272.47186 26.940624 273.28436 26.940624Q274.5031 26.940624 275.425 27.3Q276.34686 27.64375 276.78436 28.253124Q277.22186 28.846874 277.39374 29.846874L275.675 30.08125Q275.55 29.284374 274.9875 28.846874Q274.425 28.39375 273.40936 28.39375Q272.1906 28.39375 271.675 28.8Q271.15936 29.190624 271.15936 29.721874Q271.15936 30.065624 271.3781 30.346874Q271.58124 30.628124 272.05 30.815624Q272.3156 30.909374 273.59686 31.253124Q275.47186 31.753124 276.20624 32.08125Q276.9406 32.39375 277.3625 33.003124Q277.78436 33.596874 277.78436 34.503124Q277.78436 35.378124 277.26874 36.159374Q276.7531 36.940624 275.78436 37.3625Q274.8156 37.784374 273.59686 37.784374Q271.58124 37.784374 270.51874 36.940624Q269.45624 36.096874 269.15936 34.45625ZM283.70624 35.971874L283.95624 37.534374Q283.22186 37.690624 282.6281 37.690624Q281.675 37.690624 281.14374 37.39375Q280.6281 37.08125 280.40936 36.596874Q280.1906 36.096874 280.1906 34.51875L280.1906 28.55L278.90936 28.55L278.90936 27.175L280.1906 27.175L280.1906 24.6125L281.9406 23.55L281.9406 27.175L283.70624 27.175L283.70624 28.55L281.9406 28.55L281.9406 34.6125Q281.9406 35.3625 282.03436 35.58125Q282.1281 35.784374 282.33124 35.925Q282.55 36.05 282.9406 36.05Q283.22186 36.05 283.70624 35.971874ZM292.65936 37.55L292.65936 36.01875Q291.45624 37.784374 289.3781 37.784374Q288.45624 37.784374 287.65936 37.440624Q286.8625 37.08125 286.47186 36.55Q286.09686 36.01875 285.9406 35.2375Q285.83124 34.721874 285.83124 33.596874L285.83124 27.175L287.58124 27.175L287.58124 32.925Q287.58124 34.3 287.6906 34.784374Q287.8625 35.471874 288.39374 35.878124Q288.9406 36.26875 289.72186 36.26875Q290.51874 36.26875 291.20624 35.8625Q291.90936 35.45625 292.1906 34.76875Q292.4875 34.065624 292.4875 32.7375L292.4875 27.175L294.2375 27.175L294.2375 37.55L292.65936 37.55ZM302.59686 37.55L302.59686 36.2375Q301.6125 37.784374 299.6906 37.784374Q298.45624 37.784374 297.40936 37.096874Q296.3781 36.409374 295.8 35.190624Q295.2375 33.971874 295.2375 32.378124Q295.2375 30.815624 295.7531 29.55Q296.26874 28.284374 297.3 27.6125Q298.34686 26.940624 299.6125 26.940624Q300.55 26.940624 301.28436 27.346874Q302.01874 27.7375 302.4875 28.3625L302.4875 23.2375L304.22186 23.2375L304.22186 37.55L302.59686 37.55ZM297.03436 32.378124Q297.03436 34.3625 297.8781 35.346874Q298.72186 36.33125 299.8625 36.33125Q301.01874 36.33125 301.8156 35.39375Q302.6281 34.45625 302.6281 32.51875Q302.6281 30.39375 301.8 29.39375Q300.9875 28.39375 299.78436 28.39375Q298.6125 28.39375 297.8156 29.3625Q297.03436 30.315624 297.03436 32.378124ZM313.97186 34.20625L315.78436 34.440624Q315.3625 36.01875 314.1906 36.909374Q313.03436 37.784374 311.22186 37.784374Q308.95624 37.784374 307.6125 36.39375Q306.28436 34.9875 306.28436 32.45625Q306.28436 29.83125 307.6281 28.39375Q308.97186 26.940624 311.1281 26.940624Q313.20624 26.940624 314.51874 28.3625Q315.84686 29.76875 315.84686 32.346874Q315.84686 32.503124 315.83124 32.815624L308.09686 32.815624Q308.1906 34.51875 309.0656 35.425Q309.9406 36.33125 311.2375 36.33125Q312.20624 36.33125 312.8781 35.83125Q313.5656 35.315624 313.97186 34.20625ZM308.1906 31.3625L313.9875 31.3625Q313.8781 30.065624 313.33124 29.409374Q312.4875 28.39375 311.14374 28.39375Q309.9406 28.39375 309.1125 29.20625Q308.28436 30.003124 308.1906 31.3625ZM317.8625 37.55L317.8625 27.175L319.45624 27.175L319.45624 28.659374Q320.59686 26.940624 322.7531 26.940624Q323.6906 26.940624 324.47186 27.284374Q325.26874 27.6125 325.65936 28.159374Q326.05 28.70625 326.20624 29.45625Q326.3 29.95625 326.3 31.175L326.3 37.55L324.53436 37.55L324.53436 31.2375Q324.53436 30.159374 324.33124 29.628124Q324.1281 29.096874 323.59686 28.784374Q323.08124 28.471874 322.3781 28.471874Q321.2531 28.471874 320.4406 29.190624Q319.6281 29.89375 319.6281 31.878124L319.6281 37.55L317.8625 37.55ZM331.70624 35.971874L331.95624 37.534374Q331.22186 37.690624 330.6281 37.690624Q329.675 37.690624 329.14374 37.39375Q328.6281 37.08125 328.40936 36.596874Q328.1906 36.096874 328.1906 34.51875L328.1906 28.55L326.90936 28.55L326.90936 27.175L328.1906 27.175L328.1906 24.6125L329.9406 23.55L329.9406 27.175L331.70624 27.175L331.70624 28.55L329.9406 28.55L329.9406 34.6125Q329.9406 35.3625 330.03436 35.58125Q330.1281 35.784374 330.33124 35.925Q330.55 36.05 330.9406 36.05Q331.22186 36.05 331.70624 35.971874ZM339.84686 37.55L339.84686 27.175L341.425 27.175L341.425 28.753124Q342.03436 27.64375 342.55 27.3Q343.0656 26.940624 343.675 26.940624Q344.5656 26.940624 345.4875 27.503124L344.8781 29.14375Q344.2375 28.753124 343.59686 28.753124Q343.01874 28.753124 342.55 29.1125Q342.09686 29.45625 341.89374 30.065624Q341.6125 31.003124 341.6125 32.1125L341.6125 37.55L339.84686 37.55ZM353.97186 34.20625L355.78436 34.440624Q355.3625 36.01875 354.1906 36.909374Q353.03436 37.784374 351.22186 37.784374Q348.95624 37.784374 347.6125 36.39375Q346.28436 34.9875 346.28436 32.45625Q346.28436 29.83125 347.6281 28.39375Q348.97186 26.940624 351.1281 26.940624Q353.20624 26.940624 354.51874 28.3625Q355.84686 29.76875 355.84686 32.346874Q355.84686 32.503124 355.83124 32.815624L348.09686 32.815624Q348.1906 34.51875 349.0656 35.425Q349.9406 36.33125 351.2375 36.33125Q352.20624 36.33125 352.8781 35.83125Q353.5656 35.315624 353.97186 34.20625ZM348.1906 31.3625L353.9875 31.3625Q353.8781 30.065624 353.33124 29.409374Q352.4875 28.39375 351.14374 28.39375Q349.9406 28.39375 349.1125 29.20625Q348.28436 30.003124 348.1906 31.3625ZM357.15936 34.45625L358.90936 34.175Q359.05 35.221874 359.72186 35.784374Q360.39374 36.33125 361.59686 36.33125Q362.8 36.33125 363.3781 35.846874Q363.97186 35.346874 363.97186 34.690624Q363.97186 34.096874 363.45624 33.753124Q363.09686 33.51875 361.65936 33.159374Q359.72186 32.659374 358.97186 32.315624Q358.2375 31.95625 357.84686 31.33125Q357.45624 30.690624 357.45624 29.925Q357.45624 29.2375 357.76874 28.64375Q358.09686 28.05 358.64374 27.659374Q359.05 27.3625 359.7531 27.159374Q360.47186 26.940624 361.28436 26.940624Q362.5031 26.940624 363.425 27.3Q364.34686 27.64375 364.78436 28.253124Q365.22186 28.846874 365.39374 29.846874L363.675 30.08125Q363.55 29.284374 362.9875 28.846874Q362.425 28.39375 361.40936 28.39375Q360.1906 28.39375 359.675 28.8Q359.15936 29.190624 359.15936 29.721874Q359.15936 30.065624 359.3781 30.346874Q359.58124 30.628124 360.05 30.815624Q360.3156 30.909374 361.59686 31.253124Q363.47186 31.753124 364.20624 32.08125Q364.9406 32.39375 365.3625 33.003124Q365.78436 33.596874 365.78436 34.503124Q365.78436 35.378124 365.26874 36.159374Q364.7531 36.940624 363.78436 37.3625Q362.8156 37.784374 361.59686 37.784374Q359.58124 37.784374 358.51874 36.940624Q357.45624 36.096874 357.15936 34.45625ZM367.8781 25.253124L367.8781 23.2375L369.64374 23.2375L369.64374 25.253124L367.8781 25.253124ZM367.8781 37.55L367.8781 27.175L369.64374 27.175L369.64374 37.55L367.8781 37.55ZM378.59686 37.55L378.59686 36.2375Q377.6125 37.784374 375.6906 37.784374Q374.45624 37.784374 373.40936 37.096874Q372.3781 36.409374 371.8 35.190624Q371.2375 33.971874 371.2375 32.378124Q371.2375 30.815624 371.7531 29.55Q372.26874 28.284374 373.3 27.6125Q374.34686 26.940624 375.6125 26.940624Q376.55 26.940624 377.28436 27.346874Q378.01874 27.7375 378.4875 28.3625L378.4875 23.2375L380.22186 23.2375L380.22186 37.55L378.59686 37.55ZM373.03436 32.378124Q373.03436 34.3625 373.8781 35.346874Q374.72186 36.33125 375.8625 36.33125Q377.01874 36.33125 377.8156 35.39375Q378.6281 34.45625 378.6281 32.51875Q378.6281 30.39375 377.8 29.39375Q376.9875 28.39375 375.78436 28.39375Q374.6125 28.39375 373.8156 29.3625Q373.03436 30.315624 373.03436 32.378124ZM389.97186 34.20625L391.78436 34.440624Q391.3625 36.01875 390.1906 36.909374Q389.03436 37.784374 387.22186 37.784374Q384.95624 37.784374 383.6125 36.39375Q382.28436 34.9875 382.28436 32.45625Q382.28436 29.83125 383.6281 28.39375Q384.97186 26.940624 387.1281 26.940624Q389.20624 26.940624 390.51874 28.3625Q391.84686 29.76875 391.84686 32.346874Q391.84686 32.503124 391.83124 32.815624L384.09686 32.815624Q384.1906 34.51875 385.0656 35.425Q385.9406 36.33125 387.2375 36.33125Q388.20624 36.33125 388.8781 35.83125Q389.5656 35.315624 389.97186 34.20625ZM384.1906 31.3625L389.9875 31.3625Q389.8781 30.065624 389.33124 29.409374Q388.4875 28.39375 387.14374 28.39375Q385.9406 28.39375 385.1125 29.20625Q384.28436 30.003124 384.1906 31.3625ZM393.8625 37.55L393.8625 27.175L395.45624 27.175L395.45624 28.659374Q396.59686 26.940624 398.7531 26.940624Q399.6906 26.940624 400.47186 27.284374Q401.26874 27.6125 401.65936 28.159374Q402.05 28.70625 402.20624 29.45625Q402.3 29.95625 402.3 31.175L402.3 37.55L400.53436 37.55L400.53436 31.2375Q400.53436 30.159374 400.33124 29.628124Q400.1281 29.096874 399.59686 28.784374Q399.08124 28.471874 398.3781 28.471874Q397.2531 28.471874 396.4406 29.190624Q395.6281 29.89375 395.6281 31.878124L395.6281 37.55L393.8625 37.55ZM410.64374 33.753124L412.3625 33.971874Q412.08124 35.76875 410.90936 36.784374Q409.7531 37.784374 408.05 37.784374Q405.925 37.784374 404.6281 36.39375Q403.33124 35.003124 403.33124 32.409374Q403.33124 30.721874 403.8781 29.471874Q404.4406 28.20625 405.58124 27.58125Q406.72186 26.940624 408.0656 26.940624Q409.7531 26.940624 410.8156 27.8Q411.89374 28.659374 412.20624 30.221874L410.4875 30.4875Q410.2531 29.440624 409.6281 28.925Q409.0031 28.39375 408.1281 28.39375Q406.8 28.39375 405.97186 29.346874Q405.14374 30.3 405.14374 32.346874Q405.14374 34.440624 405.9406 35.39375Q406.7375 36.33125 408.03436 36.33125Q409.0656 36.33125 409.7531 35.70625Q410.45624 35.065624 410.64374 33.753124ZM413.78436 41.55L413.59686 39.89375Q414.175 40.05 414.59686 40.05Q415.1906 40.05 415.53436 39.846874Q415.89374 39.659374 416.1125 39.315624Q416.28436 39.05 416.65936 38.003124Q416.70624 37.846874 416.8156 37.565624L412.8781 27.175L414.76874 27.175L416.925 33.190624Q417.34686 34.33125 417.675 35.58125Q417.9875 34.378124 418.39374 33.221874L420.6125 27.175L422.3781 27.175L418.425 37.721874Q417.8 39.440624 417.4406 40.08125Q416.97186 40.95625 416.3625 41.346874Q415.76874 41.753124 414.925 41.753124Q414.40936 41.753124 413.78436 41.55ZM429.15936 34.45625L430.90936 34.175Q431.05 35.221874 431.72186 35.784374Q432.39374 36.33125 433.59686 36.33125Q434.8 36.33125 435.3781 35.846874Q435.97186 35.346874 435.97186 34.690624Q435.97186 34.096874 435.45624 33.753124Q435.09686 33.51875 433.65936 33.159374Q431.72186 32.659374 430.97186 32.315624Q430.2375 31.95625 429.84686 31.33125Q429.45624 30.690624 429.45624 29.925Q429.45624 29.2375 429.76874 28.64375Q430.09686 28.05 430.64374 27.659374Q431.05 27.3625 431.7531 27.159374Q432.47186 26.940624 433.28436 26.940624Q434.5031 26.940624 435.425 27.3Q436.34686 27.64375 436.78436 28.253124Q437.22186 28.846874 437.39374 29.846874L435.675 30.08125Q435.55 29.284374 434.9875 28.846874Q434.425 28.39375 433.40936 28.39375Q432.1906 28.39375 431.675 28.8Q431.15936 29.190624 431.15936 29.721874Q431.15936 30.065624 431.3781 30.346874Q431.58124 30.628124 432.05 30.815624Q432.3156 30.909374 433.59686 31.253124Q435.47186 31.753124 436.20624 32.08125Q436.9406 32.39375 437.3625 33.003124Q437.78436 33.596874 437.78436 34.503124Q437.78436 35.378124 437.26874 36.159374Q436.7531 36.940624 435.78436 37.3625Q434.8156 37.784374 433.59686 37.784374Q431.58124 37.784374 430.51874 36.940624Q429.45624 36.096874 429.15936 34.45625ZM443.70624 35.971874L443.95624 37.534374Q443.22186 37.690624 442.6281 37.690624Q441.675 37.690624 441.14374 37.39375Q440.6281 37.08125 440.40936 36.596874Q440.1906 36.096874 440.1906 34.51875L440.1906 28.55L438.90936 28.55L438.90936 27.175L440.1906 27.175L440.1906 24.6125L441.9406 23.55L441.9406 27.175L443.70624 27.175L443.70624 28.55L441.9406 28.55L441.9406 34.6125Q441.9406 35.3625 442.03436 35.58125Q442.1281 35.784374 442.33124 35.925Q442.55 36.05 442.9406 36.05Q443.22186 36.05 443.70624 35.971874ZM452.64374 36.26875Q451.65936 37.096874 450.7531 37.440624Q449.84686 37.784374 448.8156 37.784374Q447.1125 37.784374 446.1906 36.95625Q445.26874 36.1125 445.26874 34.815624Q445.26874 34.05 445.6125 33.425Q445.97186 32.8 446.53436 32.425Q447.09686 32.034374 447.8 31.83125Q448.3156 31.70625 449.3625 31.565624Q451.4875 31.315624 452.4875 30.971874Q452.5031 30.6125 452.5031 30.503124Q452.5031 29.440624 452.0031 28.9875Q451.33124 28.39375 450.0031 28.39375Q448.7531 28.39375 448.15936 28.83125Q447.58124 29.26875 447.3 30.378124L445.58124 30.14375Q445.8156 29.034374 446.34686 28.3625Q446.8781 27.675 447.89374 27.315624Q448.90936 26.940624 450.2531 26.940624Q451.58124 26.940624 452.40936 27.253124Q453.2375 27.565624 453.6281 28.05Q454.01874 28.51875 454.175 29.2375Q454.26874 29.690624 454.26874 30.8625L454.26874 33.20625Q454.26874 35.659374 454.3781 36.315624Q454.4875 36.95625 454.83124 37.55L452.9875 37.55Q452.72186 37.003124 452.64374 36.26875ZM452.4875 32.346874Q451.53436 32.7375 449.6125 33.003124Q448.53436 33.159374 448.08124 33.3625Q447.64374 33.55 447.39374 33.925Q447.14374 34.3 447.14374 34.76875Q447.14374 35.471874 447.675 35.940624Q448.20624 36.409374 449.2375 36.409374Q450.2531 36.409374 451.03436 35.971874Q451.83124 35.51875 452.20624 34.753124Q452.4875 34.14375 452.4875 32.9875L452.4875 32.346874ZM460.70624 35.971874L460.95624 37.534374Q460.22186 37.690624 459.6281 37.690624Q458.675 37.690624 458.14374 37.39375Q457.6281 37.08125 457.40936 36.596874Q457.1906 36.096874 457.1906 34.51875L457.1906 28.55L455.90936 28.55L455.90936 27.175L457.1906 27.175L457.1906 24.6125L458.9406 23.55L458.9406 27.175L460.70624 27.175L460.70624 28.55L458.9406 28.55L458.9406 34.6125Q458.9406 35.3625 459.03436 35.58125Q459.1281 35.784374 459.33124 35.925Q459.55 36.05 459.9406 36.05Q460.22186 36.05 460.70624 35.971874ZM469.65936 37.55L469.65936 36.01875Q468.45624 37.784374 466.3781 37.784374Q465.45624 37.784374 464.65936 37.440624Q463.8625 37.08125 463.47186 36.55Q463.09686 36.01875 462.9406 35.2375Q462.83124 34.721874 462.83124 33.596874L462.83124 27.175L464.58124 27.175L464.58124 32.925Q464.58124 34.3 464.6906 34.784374Q464.8625 35.471874 465.39374 35.878124Q465.9406 36.26875 466.72186 36.26875Q467.51874 36.26875 468.20624 35.8625Q468.90936 35.45625 469.1906 34.76875Q469.4875 34.065624 469.4875 32.7375L469.4875 27.175L471.2375 27.175L471.2375 37.55L469.65936 37.55ZM472.15936 34.45625L473.90936 34.175Q474.05 35.221874 474.72186 35.784374Q475.39374 36.33125 476.59686 36.33125Q477.8 36.33125 478.3781 35.846874Q478.97186 35.346874 478.97186 34.690624Q478.97186 34.096874 478.45624 33.753124Q478.09686 33.51875 476.65936 33.159374Q474.72186 32.659374 473.97186 32.315624Q473.2375 31.95625 472.84686 31.33125Q472.45624 30.690624 472.45624 29.925Q472.45624 29.2375 472.76874 28.64375Q473.09686 28.05 473.64374 27.659374Q474.05 27.3625 474.7531 27.159374Q475.47186 26.940624 476.28436 26.940624Q477.5031 26.940624 478.425 27.3Q479.34686 27.64375 479.78436 28.253124Q480.22186 28.846874 480.39374 29.846874L478.675 30.08125Q478.55 29.284374 477.9875 28.846874Q477.425 28.39375 476.40936 28.39375Q475.1906 28.39375 474.675 28.8Q474.15936 29.190624 474.15936 29.721874Q474.15936 30.065624 474.3781 30.346874Q474.58124 30.628124 475.05 30.815624Q475.3156 30.909374 476.59686 31.253124Q478.47186 31.753124 479.20624 32.08125Q479.9406 32.39375 480.3625 33.003124Q480.78436 33.596874 480.78436 34.503124Q480.78436 35.378124 480.26874 36.159374Q479.7531 36.940624 478.78436 37.3625Q477.8156 37.784374 476.59686 37.784374Q474.58124 37.784374 473.51874 36.940624Q472.45624 36.096874 472.15936 34.45625ZM495.64374 36.26875Q494.65936 37.096874 493.7531 37.440624Q492.84686 37.784374 491.8156 37.784374Q490.1125 37.784374 489.1906 36.95625Q488.26874 36.1125 488.26874 34.815624Q488.26874 34.05 488.6125 33.425Q488.97186 32.8 489.53436 32.425Q490.09686 32.034374 490.8 31.83125Q491.3156 31.70625 492.3625 31.565624Q494.4875 31.315624 495.4875 30.971874Q495.5031 30.6125 495.5031 30.503124Q495.5031 29.440624 495.0031 28.9875Q494.33124 28.39375 493.0031 28.39375Q491.7531 28.39375 491.15936 28.83125Q490.58124 29.26875 490.3 30.378124L488.58124 30.14375Q488.8156 29.034374 489.34686 28.3625Q489.8781 27.675 490.89374 27.315624Q491.90936 26.940624 493.2531 26.940624Q494.58124 26.940624 495.40936 27.253124Q496.2375 27.565624 496.6281 28.05Q497.01874 28.51875 497.175 29.2375Q497.26874 29.690624 497.26874 30.8625L497.26874 33.20625Q497.26874 35.659374 497.3781 36.315624Q497.4875 36.95625 497.83124 37.55L495.9875 37.55Q495.72186 37.003124 495.64374 36.26875ZM495.4875 32.346874Q494.53436 32.7375 492.6125 33.003124Q491.53436 33.159374 491.08124 33.3625Q490.64374 33.55 490.39374 33.925Q490.14374 34.3 490.14374 34.76875Q490.14374 35.471874 490.675 35.940624Q491.20624 36.409374 492.2375 36.409374Q493.2531 36.409374 494.03436 35.971874Q494.83124 35.51875 495.20624 34.753124Q495.4875 34.14375 495.4875 32.9875L495.4875 32.346874ZM506.64374 33.753124L508.3625 33.971874Q508.08124 35.76875 506.90936 36.784374Q505.7531 37.784374 504.05 37.784374Q501.925 37.784374 500.6281 36.39375Q499.33124 35.003124 499.33124 32.409374Q499.33124 30.721874 499.8781 29.471874Q500.4406 28.20625 501.58124 27.58125Q502.72186 26.940624 504.0656 26.940624Q505.7531 26.940624 506.8156 27.8Q507.89374 28.659374 508.20624 30.221874L506.4875 30.4875Q506.2531 29.440624 505.6281 28.925Q505.0031 28.39375 504.1281 28.39375Q502.8 28.39375 501.97186 29.346874Q501.14374 30.3 501.14374 32.346874Q501.14374 34.440624 501.9406 35.39375Q502.7375 36.33125 504.03436 36.33125Q505.0656 36.33125 505.7531 35.70625Q506.45624 35.065624 506.64374 33.753124ZM516.64374 33.753124L518.3625 33.971874Q518.08124 35.76875 516.90936 36.784374Q515.7531 37.784374 514.05 37.784374Q511.925 37.784374 510.6281 36.39375Q509.33124 35.003124 509.33124 32.409374Q509.33124 30.721874 509.8781 29.471874Q510.4406 28.20625 511.58124 27.58125Q512.72186 26.940624 514.0656 26.940624Q515.7531 26.940624 516.8156 27.8Q517.89374 28.659374 518.20624 30.221874L516.4875 30.4875Q516.2531 29.440624 515.6281 28.925Q515.0031 28.39375 514.1281 28.39375Q512.8 28.39375 511.97186 29.346874Q511.14374 30.3 511.14374 32.346874Q511.14374 34.440624 511.9406 35.39375Q512.7375 36.33125 514.03436 36.33125Q515.0656 36.33125 515.7531 35.70625Q516.45624 35.065624 516.64374 33.753124ZM519.22186 32.3625Q519.22186 29.4875 520.8156 28.096874Q522.15936 26.940624 524.08124 26.940624Q526.22186 26.940624 527.5656 28.346874Q528.925 29.753124 528.925 32.221874Q528.925 34.221874 528.33124 35.378124Q527.7375 36.51875 526.58124 37.159374Q525.4406 37.784374 524.08124 37.784374Q521.89374 37.784374 520.55 36.39375Q519.22186 34.9875 519.22186 32.3625ZM521.01874 32.3625Q521.01874 34.3625 521.8781 35.346874Q522.7531 36.33125 524.08124 36.33125Q525.39374 36.33125 526.2531 35.346874Q527.1281 34.346874 527.1281 32.3Q527.1281 30.378124 526.2531 29.39375Q525.3781 28.39375 524.08124 28.39375Q522.7531 28.39375 521.8781 29.39375Q521.01874 30.378124 521.01874 32.3625ZM530.84686 37.55L530.84686 27.175L532.425 27.175L532.425 28.753124Q533.03436 27.64375 533.55 27.3Q534.0656 26.940624 534.675 26.940624Q535.5656 26.940624 536.4875 27.503124L535.8781 29.14375Q535.2375 28.753124 534.59686 28.753124Q534.01874 28.753124 533.55 29.1125Q533.09686 29.45625 532.89374 30.065624Q532.6125 31.003124 532.6125 32.1125L532.6125 37.55L530.84686 37.55ZM544.59686 37.55L544.59686 36.2375Q543.6125 37.784374 541.6906 37.784374Q540.45624 37.784374 539.40936 37.096874Q538.3781 36.409374 537.8 35.190624Q537.2375 33.971874 537.2375 32.378124Q537.2375 30.815624 537.7531 29.55Q538.26874 28.284374 539.3 27.6125Q540.34686 26.940624 541.6125 26.940624Q542.55 26.940624 543.28436 27.346874Q544.01874 27.7375 544.4875 28.3625L544.4875 23.2375L546.22186 23.2375L546.22186 37.55L544.59686 37.55ZM539.03436 32.378124Q539.03436 34.3625 539.8781 35.346874Q540.72186 36.33125 541.8625 36.33125Q543.01874 36.33125 543.8156 35.39375Q544.6281 34.45625 544.6281 32.51875Q544.6281 30.39375 543.8 29.39375Q542.9875 28.39375 541.78436 28.39375Q540.6125 28.39375 539.8156 29.3625Q539.03436 30.315624 539.03436 32.378124ZM548.8781 25.253124L548.8781 23.2375L550.64374 23.2375L550.64374 25.253124L548.8781 25.253124ZM548.8781 37.55L548.8781 27.175L550.64374 27.175L550.64374 37.55L548.8781 37.55ZM552.8625 37.55L552.8625 27.175L554.45624 27.175L554.45624 28.659374Q555.59686 26.940624 557.7531 26.940624Q558.6906 26.940624 559.47186 27.284374Q560.26874 27.6125 560.65936 28.159374Q561.05 28.70625 561.20624 29.45625Q561.3 29.95625 561.3 31.175L561.3 37.55L559.53436 37.55L559.53436 31.2375Q559.53436 30.159374 559.33124 29.628124Q559.1281 29.096874 558.59686 28.784374Q558.08124 28.471874 557.3781 28.471874Q556.2531 28.471874 555.4406 29.190624Q554.6281 29.89375 554.6281 31.878124L554.6281 37.55L552.8625 37.55ZM562.55 38.409374L564.2531 38.659374Q564.3625 39.45625 564.84686 39.815624Q565.5031 40.3 566.64374 40.3Q567.8625 40.3 568.51874 39.815624Q569.1906 39.33125 569.425 38.45625Q569.5656 37.909374 569.55 36.190624Q568.39374 37.55 566.675 37.55Q564.53436 37.55 563.3625 36.003124Q562.1906 34.45625 562.1906 32.3Q562.1906 30.815624 562.72186 29.565624Q563.26874 28.315624 564.28436 27.628124Q565.3156 26.940624 566.6906 26.940624Q568.51874 26.940624 569.72186 28.425L569.72186 27.175L571.33124 27.175L571.33124 36.14375Q571.33124 38.565624 570.83124 39.565624Q570.34686 40.58125 569.26874 41.159374Q568.20624 41.753124 566.64374 41.753124Q564.8 41.753124 563.64374 40.925Q562.5031 40.096874 562.55 38.409374ZM564.0031 32.175Q564.0031 34.221874 564.8156 35.159374Q565.6281 36.096874 566.84686 36.096874Q568.05 36.096874 568.8625 35.159374Q569.6906 34.221874 569.6906 32.2375Q569.6906 30.33125 568.84686 29.3625Q568.0031 28.39375 566.8156 28.39375Q565.64374 28.39375 564.8156 29.346874Q564.0031 30.3 564.0031 32.175Z" fill-rule="nonzero"/><path fill="#757575" d="M23.70625 59.971874L23.95625 61.534374Q23.221874 61.690624 22.628124 61.690624Q21.675 61.690624 21.14375 61.39375Q20.628124 61.08125 20.409374 60.596874Q20.190624 60.096874 20.190624 58.51875L20.190624 52.55L18.909374 52.55L18.909374 51.175L20.190624 51.175L20.190624 48.6125L21.940624 47.55L21.940624 51.175L23.70625 51.175L23.70625 52.55L21.940624 52.55L21.940624 58.6125Q21.940624 59.3625 22.034374 59.58125Q22.128124 59.784374 22.33125 59.925Q22.55 60.05 22.940624 60.05Q23.221874 60.05 23.70625 59.971874ZM25.221874 56.3625Q25.221874 53.4875 26.815624 52.096874Q28.159374 50.940624 30.08125 50.940624Q32.221874 50.940624 33.565624 52.346874Q34.925 53.753124 34.925 56.221874Q34.925 58.221874 34.33125 59.378124Q33.7375 60.51875 32.58125 61.159374Q31.440624 61.784374 30.08125 61.784374Q27.89375 61.784374 26.55 60.39375Q25.221874 58.9875 25.221874 56.3625ZM27.01875 56.3625Q27.01875 58.3625 27.878124 59.346874Q28.753124 60.33125 30.08125 60.33125Q31.39375 60.33125 32.253124 59.346874Q33.128124 58.346874 33.128124 56.3Q33.128124 54.378124 32.253124 53.39375Q31.378124 52.39375 30.08125 52.39375Q28.753124 52.39375 27.878124 53.39375Q27.01875 54.378124 27.01875 56.3625ZM52.4875 47.2375L54.378124 47.2375L54.378124 55.503124Q54.378124 57.659374 53.89375 58.940624Q53.409374 60.20625 52.128124 61.003124Q50.8625 61.8 48.784374 61.8Q46.76875 61.8 45.4875 61.1125Q44.221874 60.409374 43.675 59.096874Q43.128124 57.784374 43.128124 55.503124L43.128124 47.2375L45.01875 47.2375L45.01875 55.4875Q45.01875 57.3625 45.3625 58.253124Q45.70625 59.128124 46.55 59.6125Q47.39375 60.08125 48.628124 60.08125Q50.70625 60.08125 51.596874 59.14375Q52.4875 58.190624 52.4875 55.4875L52.4875 47.2375ZM55.221874 56.3625Q55.221874 53.4875 56.815624 52.096874Q58.159374 50.940624 60.08125 50.940624Q62.221874 50.940624 63.565624 52.346874Q64.925 53.753124 64.925 56.221874Q64.925 58.221874 64.33125 59.378124Q63.7375 60.51875 62.58125 61.159374Q61.440624 61.784374 60.08125 61.784374Q57.89375 61.784374 56.55 60.39375Q55.221874 58.9875 55.221874 56.3625ZM57.01875 56.3625Q57.01875 58.3625 57.878124 59.346874Q58.753124 60.33125 60.08125 60.33125Q61.39375 60.33125 62.253124 59.346874Q63.128124 58.346874 63.128124 56.3Q63.128124 54.378124 62.253124 53.39375Q61.378124 52.39375 60.08125 52.39375Q58.753124 52.39375 57.878124 53.39375Q57.01875 54.378124 57.01875 56.3625ZM67.28438 61.55L67.28438 52.55L65.7375 52.55L65.7375 51.175L67.28438 51.175L67.28438 50.08125Q67.28438 49.034374 67.47188 48.51875Q67.72188 47.83125 68.3625 47.409374Q69.00313 46.9875 70.15938 46.9875Q70.90938 46.9875 71.8 47.159374L71.53438 48.690624Q70.9875 48.596874 70.50313 48.596874Q69.70625 48.596874 69.3625 48.940624Q69.03438 49.284374 69.03438 50.221874L69.03438 51.175L71.06563 51.175L71.06563 52.55L69.03438 52.55L69.03438 61.55L67.28438 61.55ZM73.03438 61.55L73.03438 47.2375L75.89375 47.2375L79.26875 57.3625Q79.7375 58.784374 79.95625 59.4875Q80.20625 58.70625 80.72188 57.190624L84.14375 47.2375L86.69063 47.2375L86.69063 61.55L84.87813 61.55L84.87813 49.565624L80.70625 61.55L79.00313 61.55L74.8625 49.3625L74.8625 61.55L73.03438 61.55ZM93.15938 58.01875Q93.14375 57.675 93.14375 57.503124Q93.14375 56.45625 93.44063 55.70625Q93.65938 55.14375 94.14375 54.565624Q94.4875 54.14375 95.39375 53.346874Q96.31563 52.534374 96.58125 52.065624Q96.8625 51.58125 96.8625 51.01875Q96.8625 49.9875 96.05 49.221874Q95.25313 48.440624 94.09688 48.440624Q92.97188 48.440624 92.22188 49.14375Q91.47188 49.846874 91.2375 51.33125L89.425 51.1125Q89.675 49.1125 90.87813 48.05Q92.08125 46.9875 94.06563 46.9875Q96.175 46.9875 97.425 48.128124Q98.675 49.26875 98.675 50.89375Q98.675 51.83125 98.22188 52.628124Q97.78438 53.409374 96.50313 54.55Q95.64375 55.315624 95.37813 55.675Q95.12813 56.034374 94.9875 56.503124Q94.8625 56.971874 94.84688 58.01875L93.15938 58.01875ZM93.05 61.55L93.05 59.55L95.05 59.55L95.05 61.55L93.05 61.55Z" fill-rule="nonzero"/></svg>