<svg version="1.1" viewBox="0.0 0.0 600.0 371.0" fill="none" stroke="none" stroke-linecap="square" stroke-miterlimit="10" width="600" height="371" xmlns:xlink="http://www.w3.org/1999/xlink" xmlns="http://www.w3.org/2000/svg"><path fill="#ffffff" d="M0 0L600.0 0L600.0 371.0L0 371.0L0 0Z" fill-rule="nonzero"/><path stroke="#333333" stroke-width="1.0" stroke-linecap="butt" d="M45.5 300.5L581.5 300.5" fill-rule="nonzero"/><path stroke="#cccccc" stroke-width="1.0" stroke-linecap="butt" d="M45.5 220.5L581.5 220.5" fill-rule="nonzero"/><path stroke="#cccccc" stroke-width="1.0" stroke-linecap="butt" d="M45.5 141.5L581.5 141.5" fill-rule="nonzero"/><path stroke="#cccccc" stroke-width="1.0" stroke-linecap="butt" d="M45.5 61.5L581.5 61.5" fill-rule="nonzero"/><clipPath id="id_0"><path d="M45.55 61.916668L581.45 61.916668L581.45 300.45L45.55 300.45L45.55 61.916668Z" clip-rule="nonzero"/></clipPath><path stroke="#000000" stroke-width="2.0" stroke-linecap="butt" stroke-opacity="0.0" clip-path="url(#id_0)" d="M146.0 300.0L81.0 300.0L81.0 72.0C81.0 70.89543 81.89543 70.0 83.0 70.0L144.0 70.0C145.10457 70.0 146.0 70.89543 146.0 72.0Z" fill-rule="nonzero"/><path fill="#4285f4" clip-path="url(#id_0)" d="M146.0 300.0L81.0 300.0L81.0 72.0C81.0 70.89543 81.89543 70.0 83.0 70.0L144.0 70.0C145.10457 70.0 146.0 70.89543 146.0 72.0Z" fill-rule="nonzero"/><path stroke="#000000" stroke-width="2.0" stroke-linecap="butt" stroke-opacity="0.0" clip-path="url(#id_0)" d="M246.0 300.0L181.0 300.0L181.0 287.0C181.0 285.89542 181.89543 285.0 183.0 285.0L244.0 285.0C245.10457 285.0 246.0 285.89542 246.0 287.0Z" fill-rule="nonzero"/><path fill="#4285f4" clip-path="url(#id_0)" d="M246.0 300.0L181.0 300.0L181.0 287.0C181.0 285.89542 181.89543 285.0 183.0 285.0L244.0 285.0C245.10457 285.0 246.0 285.89542 246.0 287.0Z" fill-rule="nonzero"/><path stroke="#000000" stroke-width="2.0" stroke-linecap="butt" stroke-opacity="0.0" clip-path="url(#id_0)" d="M347.0 300.0L282.0 300.0L282.0 294.0C282.0 292.89542 282.89542 292.0 284.0 292.0L345.0 292.0C346.10458 292.0 347.0 292.89542 347.0 294.0Z" fill-rule="nonzero"/><path fill="#4285f4" clip-path="url(#id_0)" d="M347.0 300.0L282.0 300.0L282.0 294.0C282.0 292.89542 282.89542 292.0 284.0 292.0L345.0 292.0C346.10458 292.0 347.0 292.89542 347.0 294.0Z" fill-rule="nonzero"/><path stroke="#000000" stroke-width="2.0" stroke-linecap="butt" stroke-opacity="0.0" clip-path="url(#id_0)" d="M447.0 300.0L382.0 300.0L382.0 294.0C382.0 292.89542 382.89542 292.0 384.0 292.0L445.0 292.0C446.10458 292.0 447.0 292.89542 447.0 294.0Z" fill-rule="nonzero"/><path fill="#4285f4" clip-path="url(#id_0)" d="M447.0 300.0L382.0 300.0L382.0 294.0C382.0 292.89542 382.89542 292.0 384.0 292.0L445.0 292.0C446.10458 292.0 447.0 292.89542 447.0 294.0Z" fill-rule="nonzero"/><path stroke="#000000" stroke-width="2.0" stroke-linecap="butt" stroke-opacity="0.0" clip-path="url(#id_0)" d="M547.0 300.0L482.0 300.0L482.0 294.0C482.0 292.89542 482.89542 292.0 484.0 292.0L545.0 292.0C546.10455 292.0 547.0 292.89542 547.0 294.0Z" fill-rule="nonzero"/><path fill="#4285f4" clip-path="url(#id_0)" d="M547.0 300.0L482.0 300.0L482.0 294.0C482.0 292.89542 482.89542 292.0 484.0 292.0L545.0 292.0C546.10455 292.0 547.0 292.89542 547.0 294.0Z" fill-rule="nonzero"/><path fill="#000000" d="M212.0625 346.4344L213.1875 346.73126Q212.82812 348.1219 211.90625 348.85626Q210.98438 349.59064 209.64062 349.59064Q208.25 349.59064 207.375 349.02814Q206.5 348.46564 206.04688 347.40314Q205.59375 346.325 205.59375 345.09064Q205.59375 343.7469 206.10938 342.7469Q206.625 341.7469 207.5625 341.23126Q208.51562 340.71564 209.65625 340.71564Q210.9375 340.71564 211.8125 341.3719Q212.70312 342.02814 213.04688 343.21564L211.92188 343.48126Q211.625 342.54376 211.04688 342.1219Q210.48438 341.6844 209.625 341.6844Q208.64062 341.6844 207.96875 342.16876Q207.3125 342.6375 207.03125 343.4344Q206.76562 344.23126 206.76562 345.09064Q206.76562 346.1844 207.07812 346.9969Q207.40625 347.8094 208.07812 348.21564Q208.75 348.6219 209.54688 348.6219Q210.5 348.6219 211.15625 348.075Q211.82812 347.52814 212.0625 346.4344ZM214.40625 346.34064Q214.40625 344.60626 215.35938 343.77814Q216.15625 343.09064 217.3125 343.09064Q218.59375 343.09064 219.40625 343.9344Q220.23438 344.7625 220.23438 346.2469Q220.23438 347.45 219.875 348.1375Q219.51562 348.825 218.8125 349.21564Q218.125 349.59064 217.3125 349.59064Q216.01562 349.59064 215.20312 348.7625Q214.40625 347.91876 214.40625 346.34064ZM215.48438 346.34064Q215.48438 347.52814 216.0 348.1219Q216.53125 348.71564 217.3125 348.71564Q218.10938 348.71564 218.625 348.1219Q219.14062 347.52814 219.14062 346.3094Q219.14062 345.15314 218.60938 344.5594Q218.09375 343.96564 217.3125 343.96564Q216.53125 343.96564 216.0 344.5594Q215.48438 345.1375 215.48438 346.34064ZM225.875 349.45L225.875 348.52814Q225.14062 349.59064 223.89062 349.59064Q223.34375 349.59064 222.85938 349.3875Q222.39062 349.16876 222.15625 348.85626Q221.92188 348.52814 221.82812 348.0594Q221.76562 347.7625 221.76562 347.075L221.76562 343.23126L222.82812 343.23126L222.82812 346.6844Q222.82812 347.4969 222.89062 347.79376Q222.98438 348.2 223.29688 348.45Q223.625 348.6844 224.10938 348.6844Q224.57812 348.6844 224.98438 348.45Q225.40625 348.2 225.57812 347.77814Q225.76562 347.35626 225.76562 346.5594L225.76562 343.23126L226.8125 343.23126L226.8125 349.45L225.875 349.45ZM228.79688 349.45L228.79688 343.23126L229.73438 343.23126L229.73438 344.10626Q230.42188 343.09064 231.71875 343.09064Q232.28125 343.09064 232.75 343.29376Q233.23438 343.4969 233.46875 343.825Q233.70312 344.15314 233.79688 344.59064Q233.84375 344.8875 233.84375 345.6219L233.84375 349.45L232.79688 349.45L232.79688 345.66876Q232.79688 345.0125 232.67188 344.7Q232.54688 344.3875 232.23438 344.2Q231.92188 343.9969 231.5 343.9969Q230.82812 343.9969 230.32812 344.4344Q229.84375 344.85626 229.84375 346.04376L229.84375 349.45L228.79688 349.45ZM238.09375 348.5125L238.25 349.4344Q237.79688 349.52814 237.45312 349.52814Q236.875 349.52814 236.5625 349.35626Q236.25 349.16876 236.10938 348.8719Q235.98438 348.575 235.98438 347.6219L235.98438 344.04376L235.21875 344.04376L235.21875 343.23126L235.98438 343.23126L235.98438 341.6844L237.03125 341.0594L237.03125 343.23126L238.09375 343.23126L238.09375 344.04376L237.03125 344.04376L237.03125 347.6844Q237.03125 348.1375 237.07812 348.2625Q237.14062 348.3875 237.26562 348.46564Q237.39062 348.54376 237.625 348.54376Q237.8125 348.54376 238.09375 348.5125ZM241.40625 346.34064Q241.40625 344.60626 242.35938 343.77814Q243.15625 343.09064 244.3125 343.09064Q245.59375 343.09064 246.40625 343.9344Q247.23438 344.7625 247.23438 346.2469Q247.23438 347.45 246.875 348.1375Q246.51562 348.825 245.8125 349.21564Q245.125 349.59064 244.3125 349.59064Q243.01562 349.59064 242.20312 348.7625Q241.40625 347.91876 241.40625 346.34064ZM242.48438 346.34064Q242.48438 347.52814 243.0 348.1219Q243.53125 348.71564 244.3125 348.71564Q245.10938 348.71564 245.625 348.1219Q246.14062 347.52814 246.14062 346.3094Q246.14062 345.15314 245.60938 344.5594Q245.09375 343.96564 244.3125 343.96564Q243.53125 343.96564 243.0 344.5594Q242.48438 345.1375 242.48438 346.34064ZM249.04688 349.45L249.04688 344.04376L248.10938 344.04376L248.10938 343.23126L249.04688 343.23126L249.04688 342.5594Q249.04688 341.9344 249.15625 341.6375Q249.3125 341.21564 249.6875 340.96564Q250.07812 340.71564 250.76562 340.71564Q251.21875 340.71564 251.75 340.825L251.59375 341.73126Q251.26562 341.6844 250.96875 341.6844Q250.48438 341.6844 250.28125 341.8875Q250.09375 342.09064 250.09375 342.65314L250.09375 343.23126L251.3125 343.23126L251.3125 344.04376L250.09375 344.04376L250.09375 349.45L249.04688 349.45ZM254.92188 349.45L254.92188 340.85626L257.89062 340.85626Q258.89062 340.85626 259.42188 340.98126Q260.15625 341.15314 260.67188 341.59064Q261.35938 342.16876 261.6875 343.075Q262.03125 343.96564 262.03125 345.10626Q262.03125 346.09064 261.79688 346.84064Q261.57812 347.59064 261.21875 348.09064Q260.85938 348.59064 260.42188 348.8719Q260.0 349.15314 259.40625 349.3094Q258.8125 349.45 258.03125 349.45L254.92188 349.45ZM256.0625 348.4344L257.89062 348.4344Q258.75 348.4344 259.23438 348.27814Q259.71875 348.1219 260.0 347.825Q260.40625 347.4344 260.625 346.7469Q260.85938 346.0594 260.85938 345.09064Q260.85938 343.7469 260.40625 343.02814Q259.96875 342.29376 259.34375 342.04376Q258.875 341.8719 257.875 341.8719L256.0625 341.8719L256.0625 348.4344ZM263.40625 346.34064Q263.40625 344.60626 264.35938 343.77814Q265.15625 343.09064 266.3125 343.09064Q267.59375 343.09064 268.40625 343.9344Q269.23438 344.7625 269.23438 346.2469Q269.23438 347.45 268.875 348.1375Q268.51562 348.825 267.8125 349.21564Q267.125 349.59064 266.3125 349.59064Q265.01562 349.59064 264.20312 348.7625Q263.40625 347.91876 263.40625 346.34064ZM264.48438 346.34064Q264.48438 347.52814 265.0 348.1219Q265.53125 348.71564 266.3125 348.71564Q267.10938 348.71564 267.625 348.1219Q268.14062 347.52814 268.14062 346.3094Q268.14062 345.15314 267.60938 344.5594Q267.09375 343.96564 266.3125 343.96564Q265.53125 343.96564 265.0 344.5594Q264.48438 345.1375 264.48438 346.34064ZM273.75 351.84064L273.625 350.85626Q273.96875 350.95 274.23438 350.95Q274.57812 350.95 274.78125 350.825Q275.0 350.71564 275.14062 350.5125Q275.23438 350.34064 275.46875 349.71564Q275.48438 349.6375 275.5625 349.46564L273.1875 343.23126L274.32812 343.23126L275.625 346.825Q275.875 347.5125 276.07812 348.27814Q276.26562 347.54376 276.51562 346.85626L277.84375 343.23126L278.89062 343.23126L276.53125 349.5594Q276.14062 350.575 275.9375 350.96564Q275.65625 351.4969 275.28125 351.73126Q274.92188 351.98126 274.42188 351.98126Q274.125 351.98126 273.75 351.84064ZM278.40625 346.34064Q278.40625 344.60626 279.35938 343.77814Q280.15625 343.09064 281.3125 343.09064Q282.59375 343.09064 283.40625 343.9344Q284.23438 344.7625 284.23438 346.2469Q284.23438 347.45 283.875 348.1375Q283.51562 348.825 282.8125 349.21564Q282.125 349.59064 281.3125 349.59064Q280.01562 349.59064 279.20312 348.7625Q278.40625 347.91876 278.40625 346.34064ZM279.48438 346.34064Q279.48438 347.52814 280.0 348.1219Q280.53125 348.71564 281.3125 348.71564Q282.10938 348.71564 282.625 348.1219Q283.14062 347.52814 283.14062 346.3094Q283.14062 345.15314 282.60938 344.5594Q282.09375 343.96564 281.3125 343.96564Q280.53125 343.96564 280.0 344.5594Q279.48438 345.1375 279.48438 346.34064ZM289.875 349.45L289.875 348.52814Q289.14062 349.59064 287.89062 349.59064Q287.34375 349.59064 286.85938 349.3875Q286.39062 349.16876 286.15625 348.85626Q285.92188 348.52814 285.82812 348.0594Q285.76562 347.7625 285.76562 347.075L285.76562 343.23126L286.82812 343.23126L286.82812 346.6844Q286.82812 347.4969 286.89062 347.79376Q286.98438 348.2 287.29688 348.45Q287.625 348.6844 288.10938 348.6844Q288.57812 348.6844 288.98438 348.45Q289.40625 348.2 289.57812 347.77814Q289.76562 347.35626 289.76562 346.5594L289.76562 343.23126L290.8125 343.23126L290.8125 349.45L289.875 349.45ZM299.85938 347.16876L300.89062 347.3094Q300.71875 348.3719 300.01562 348.98126Q299.3125 349.59064 298.29688 349.59064Q297.01562 349.59064 296.23438 348.7625Q295.46875 347.91876 295.46875 346.35626Q295.46875 345.35626 295.79688 344.60626Q296.14062 343.84064 296.8125 343.46564Q297.5 343.09064 298.3125 343.09064Q299.3125 343.09064 299.95312 343.60626Q300.60938 344.10626 300.79688 345.0594L299.76562 345.21564Q299.625 344.59064 299.25 344.27814Q298.875 343.95 298.34375 343.95Q297.54688 343.95 297.04688 344.52814Q296.54688 345.09064 296.54688 346.325Q296.54688 347.59064 297.03125 348.15314Q297.51562 348.71564 298.28125 348.71564Q298.90625 348.71564 299.3125 348.34064Q299.73438 347.96564 299.85938 347.16876ZM301.40625 346.34064Q301.40625 344.60626 302.35938 343.77814Q303.15625 343.09064 304.3125 343.09064Q305.59375 343.09064 306.40625 343.9344Q307.23438 344.7625 307.23438 346.2469Q307.23438 347.45 306.875 348.1375Q306.51562 348.825 305.8125 349.21564Q305.125 349.59064 304.3125 349.59064Q303.01562 349.59064 302.20312 348.7625Q301.40625 347.91876 301.40625 346.34064ZM302.48438 346.34064Q302.48438 347.52814 303.0 348.1219Q303.53125 348.71564 304.3125 348.71564Q305.10938 348.71564 305.625 348.1219Q306.14062 347.52814 306.14062 346.3094Q306.14062 345.15314 305.60938 344.5594Q305.09375 343.96564 304.3125 343.96564Q303.53125 343.96564 303.0 344.5594Q302.48438 345.1375 302.48438 346.34064ZM308.79688 349.45L308.79688 343.23126L309.73438 343.23126L309.73438 344.10626Q310.42188 343.09064 311.71875 343.09064Q312.28125 343.09064 312.75 343.29376Q313.23438 343.4969 313.46875 343.825Q313.70312 344.15314 313.79688 344.59064Q313.84375 344.8875 313.84375 345.6219L313.84375 349.45L312.79688 349.45L312.79688 345.66876Q312.79688 345.0125 312.67188 344.7Q312.54688 344.3875 312.23438 344.2Q311.92188 343.9969 311.5 343.9969Q310.82812 343.9969 310.32812 344.4344Q309.84375 344.85626 309.84375 346.04376L309.84375 349.45L308.79688 349.45ZM315.375 347.59064L316.40625 347.4344Q316.5 348.0594 316.89062 348.3875Q317.29688 348.71564 318.03125 348.71564Q318.75 348.71564 319.09375 348.4344Q319.45312 348.1375 319.45312 347.73126Q319.45312 347.3719 319.14062 347.16876Q318.92188 347.02814 318.0625 346.8094Q316.90625 346.5125 316.45312 346.3094Q316.01562 346.09064 315.78125 345.71564Q315.54688 345.34064 315.54688 344.8719Q315.54688 344.46564 315.73438 344.10626Q315.92188 343.7469 316.25 343.5125Q316.5 343.34064 316.92188 343.21564Q317.34375 343.09064 317.84375 343.09064Q318.5625 343.09064 319.10938 343.3094Q319.67188 343.5125 319.9375 343.8719Q320.20312 344.23126 320.29688 344.825L319.26562 344.96564Q319.20312 344.4969 318.85938 344.23126Q318.53125 343.95 317.90625 343.95Q317.1875 343.95 316.875 344.2Q316.5625 344.4344 316.5625 344.7625Q316.5625 344.96564 316.6875 345.1219Q316.82812 345.29376 317.09375 345.40314Q317.25 345.46564 318.03125 345.66876Q319.15625 345.98126 319.59375 346.16876Q320.03125 346.35626 320.28125 346.71564Q320.53125 347.075 320.53125 347.6219Q320.53125 348.15314 320.21875 348.6219Q319.92188 349.075 319.34375 349.34064Q318.76562 349.59064 318.03125 349.59064Q316.8125 349.59064 316.17188 349.09064Q315.54688 348.575 315.375 347.59064ZM322.79688 342.075L322.79688 340.85626L323.85938 340.85626L323.85938 342.075L322.79688 342.075ZM322.79688 349.45L322.79688 343.23126L323.85938 343.23126L323.85938 349.45L322.79688 349.45ZM329.82812 349.45L329.82812 348.66876Q329.23438 349.59064 328.09375 349.59064Q327.34375 349.59064 326.71875 349.1844Q326.09375 348.7625 325.75 348.02814Q325.40625 347.29376 325.40625 346.34064Q325.40625 345.41876 325.71875 344.65314Q326.03125 343.8875 326.65625 343.4969Q327.28125 343.09064 328.04688 343.09064Q328.60938 343.09064 329.04688 343.325Q329.48438 343.5594 329.76562 343.9344L329.76562 340.85626L330.8125 340.85626L330.8125 349.45L329.82812 349.45ZM326.5 346.34064Q326.5 347.54376 327.0 348.1375Q327.5 348.71564 328.1875 348.71564Q328.875 348.71564 329.35938 348.15314Q329.84375 347.59064 329.84375 346.4344Q329.84375 345.15314 329.34375 344.5594Q328.85938 343.96564 328.14062 343.96564Q327.4375 343.96564 326.96875 344.54376Q326.5 345.10626 326.5 346.34064ZM337.04688 347.45L338.14062 347.575Q337.89062 348.52814 337.1875 349.0594Q336.48438 349.59064 335.40625 349.59064Q334.04688 349.59064 333.23438 348.7469Q332.4375 347.90314 332.4375 346.3875Q332.4375 344.825 333.25 343.96564Q334.0625 343.09064 335.34375 343.09064Q336.59375 343.09064 337.375 343.9344Q338.17188 344.77814 338.17188 346.325Q338.17188 346.41876 338.17188 346.60626L333.53125 346.60626Q333.59375 347.6375 334.10938 348.1844Q334.625 348.71564 335.40625 348.71564Q335.98438 348.71564 336.39062 348.41876Q336.8125 348.10626 337.04688 347.45ZM333.59375 345.7469L337.0625 345.7469Q337.0 344.95 336.67188 344.5594Q336.15625 343.95 335.35938 343.95Q334.625 343.95 334.125 344.4344Q333.64062 344.91876 333.59375 345.7469ZM339.78125 349.45L339.78125 343.23126L340.73438 343.23126L340.73438 344.16876Q341.09375 343.5125 341.39062 343.3094Q341.70312 343.09064 342.07812 343.09064Q342.60938 343.09064 343.15625 343.41876L342.79688 344.40314Q342.40625 344.16876 342.03125 344.16876Q341.67188 344.16876 341.39062 344.3875Q341.125 344.59064 341.01562 344.96564Q340.82812 345.52814 340.82812 346.1844L340.82812 349.45L339.78125 349.45ZM346.75 351.84064L346.625 350.85626Q346.96875 350.95 347.23438 350.95Q347.57812 350.95 347.78125 350.825Q348.0 350.71564 348.14062 350.5125Q348.23438 350.34064 348.46875 349.71564Q348.48438 349.6375 348.5625 349.46564L346.1875 343.23126L347.32812 343.23126L348.625 346.825Q348.875 347.5125 349.07812 348.27814Q349.26562 347.54376 349.51562 346.85626L350.84375 343.23126L351.89062 343.23126L349.53125 349.5594Q349.14062 350.575 348.9375 350.96564Q348.65625 351.4969 348.28125 351.73126Q347.92188 351.98126 347.42188 351.98126Q347.125 351.98126 346.75 351.84064ZM351.40625 346.34064Q351.40625 344.60626 352.35938 343.77814Q353.15625 343.09064 354.3125 343.09064Q355.59375 343.09064 356.40625 343.9344Q357.23438 344.7625 357.23438 346.2469Q357.23438 347.45 356.875 348.1375Q356.51562 348.825 355.8125 349.21564Q355.125 349.59064 354.3125 349.59064Q353.01562 349.59064 352.20312 348.7625Q351.40625 347.91876 351.40625 346.34064ZM352.48438 346.34064Q352.48438 347.52814 353.0 348.1219Q353.53125 348.71564 354.3125 348.71564Q355.10938 348.71564 355.625 348.1219Q356.14062 347.52814 356.14062 346.3094Q356.14062 345.15314 355.60938 344.5594Q355.09375 343.96564 354.3125 343.96564Q353.53125 343.96564 353.0 344.5594Q352.48438 345.1375 352.48438 346.34064ZM362.875 349.45L362.875 348.52814Q362.14062 349.59064 360.89062 349.59064Q360.34375 349.59064 359.85938 349.3875Q359.39062 349.16876 359.15625 348.85626Q358.92188 348.52814 358.82812 348.0594Q358.76562 347.7625 358.76562 347.075L358.76562 343.23126L359.82812 343.23126L359.82812 346.6844Q359.82812 347.4969 359.89062 347.79376Q359.98438 348.2 360.29688 348.45Q360.625 348.6844 361.10938 348.6844Q361.57812 348.6844 361.98438 348.45Q362.40625 348.2 362.57812 347.77814Q362.76562 347.35626 362.76562 346.5594L362.76562 343.23126L363.8125 343.23126L363.8125 349.45L362.875 349.45ZM365.78125 349.45L365.78125 343.23126L366.73438 343.23126L366.73438 344.16876Q367.09375 343.5125 367.39062 343.3094Q367.70312 343.09064 368.07812 343.09064Q368.60938 343.09064 369.15625 343.41876L368.79688 344.40314Q368.40625 344.16876 368.03125 344.16876Q367.67188 344.16876 367.39062 344.3875Q367.125 344.59064 367.01562 344.96564Q366.82812 345.52814 366.82812 346.1844L366.82812 349.45L365.78125 349.45ZM369.375 347.59064L370.40625 347.4344Q370.5 348.0594 370.89062 348.3875Q371.29688 348.71564 372.03125 348.71564Q372.75 348.71564 373.09375 348.4344Q373.45312 348.1375 373.45312 347.73126Q373.45312 347.3719 373.14062 347.16876Q372.92188 347.02814 372.0625 346.8094Q370.90625 346.5125 370.45312 346.3094Q370.01562 346.09064 369.78125 345.71564Q369.54688 345.34064 369.54688 344.8719Q369.54688 344.46564 369.73438 344.10626Q369.92188 343.7469 370.25 343.5125Q370.5 343.34064 370.92188 343.21564Q371.34375 343.09064 371.84375 343.09064Q372.5625 343.09064 373.10938 343.3094Q373.67188 343.5125 373.9375 343.8719Q374.20312 344.23126 374.29688 344.825L373.26562 344.96564Q373.20312 344.4969 372.85938 344.23126Q372.53125 343.95 371.90625 343.95Q371.1875 343.95 370.875 344.2Q370.5625 344.4344 370.5625 344.7625Q370.5625 344.96564 370.6875 345.1219Q370.82812 345.29376 371.09375 345.40314Q371.25 345.46564 372.03125 345.66876Q373.15625 345.98126 373.59375 346.16876Q374.03125 346.35626 374.28125 346.71564Q374.53125 347.075 374.53125 347.6219Q374.53125 348.15314 374.21875 348.6219Q373.92188 349.075 373.34375 349.34064Q372.76562 349.59064 372.03125 349.59064Q370.8125 349.59064 370.17188 349.09064Q369.54688 348.575 369.375 347.59064ZM381.04688 347.45L382.14062 347.575Q381.89062 348.52814 381.1875 349.0594Q380.48438 349.59064 379.40625 349.59064Q378.04688 349.59064 377.23438 348.7469Q376.4375 347.90314 376.4375 346.3875Q376.4375 344.825 377.25 343.96564Q378.0625 343.09064 379.34375 343.09064Q380.59375 343.09064 381.375 343.9344Q382.17188 344.77814 382.17188 346.325Q382.17188 346.41876 382.17188 346.60626L377.53125 346.60626Q377.59375 347.6375 378.10938 348.1844Q378.625 348.71564 379.40625 348.71564Q379.98438 348.71564 380.39062 348.41876Q380.8125 348.10626 381.04688 347.45ZM377.59375 345.7469L381.0625 345.7469Q381.0 344.95 380.67188 344.5594Q380.15625 343.95 379.35938 343.95Q378.625 343.95 378.125 344.4344Q377.64062 344.91876 377.59375 345.7469ZM383.76562 349.45L383.76562 340.85626L384.82812 340.85626L384.82812 349.45L383.76562 349.45ZM387.04688 349.45L387.04688 344.04376L386.10938 344.04376L386.10938 343.23126L387.04688 343.23126L387.04688 342.5594Q387.04688 341.9344 387.15625 341.6375Q387.3125 341.21564 387.6875 340.96564Q388.07812 340.71564 388.76562 340.71564Q389.21875 340.71564 389.75 340.825L389.59375 341.73126Q389.26562 341.6844 388.96875 341.6844Q388.48438 341.6844 388.28125 341.8875Q388.09375 342.09064 388.09375 342.65314L388.09375 343.23126L389.3125 343.23126L389.3125 344.04376L388.09375 344.04376L388.09375 349.45L387.04688 349.45ZM395.09375 348.5125L395.25 349.4344Q394.79688 349.52814 394.45312 349.52814Q393.875 349.52814 393.5625 349.35626Q393.25 349.16876 393.10938 348.8719Q392.98438 348.575 392.98438 347.6219L392.98438 344.04376L392.21875 344.04376L392.21875 343.23126L392.98438 343.23126L392.98438 341.6844L394.03125 341.0594L394.03125 343.23126L395.09375 343.23126L395.09375 344.04376L394.03125 344.04376L394.03125 347.6844Q394.03125 348.1375 394.07812 348.2625Q394.14062 348.3875 394.26562 348.46564Q394.39062 348.54376 394.625 348.54376Q394.8125 348.54376 395.09375 348.5125ZM395.40625 346.34064Q395.40625 344.60626 396.35938 343.77814Q397.15625 343.09064 398.3125 343.09064Q399.59375 343.09064 400.40625 343.9344Q401.23438 344.7625 401.23438 346.2469Q401.23438 347.45 400.875 348.1375Q400.51562 348.825 399.8125 349.21564Q399.125 349.59064 398.3125 349.59064Q397.01562 349.59064 396.20312 348.7625Q395.40625 347.91876 395.40625 346.34064ZM396.48438 346.34064Q396.48438 347.52814 397.0 348.1219Q397.53125 348.71564 398.3125 348.71564Q399.10938 348.71564 399.625 348.1219Q400.14062 347.52814 400.14062 346.3094Q400.14062 345.15314 399.60938 344.5594Q399.09375 343.96564 398.3125 343.96564Q397.53125 343.96564 397.0 344.5594Q396.48438 345.1375 396.48438 346.34064ZM406.76562 349.45L405.78125 349.45L405.78125 340.85626L406.84375 340.85626L406.84375 343.91876Q407.51562 343.09064 408.54688 343.09064Q409.125 343.09064 409.625 343.325Q410.14062 343.54376 410.46875 343.96564Q410.8125 344.3875 411.0 344.98126Q411.1875 345.575 411.1875 346.2469Q411.1875 347.84064 410.39062 348.71564Q409.59375 349.59064 408.5 349.59064Q407.39062 349.59064 406.76562 348.66876L406.76562 349.45ZM406.75 346.29376Q406.75 347.40314 407.0625 347.90314Q407.5625 348.71564 408.40625 348.71564Q409.09375 348.71564 409.59375 348.1219Q410.10938 347.52814 410.10938 346.325Q410.10938 345.10626 409.625 344.52814Q409.14062 343.95 408.45312 343.95Q407.76562 343.95 407.25 344.5594Q406.75 345.15314 406.75 346.29376ZM417.04688 347.45L418.14062 347.575Q417.89062 348.52814 417.1875 349.0594Q416.48438 349.59064 415.40625 349.59064Q414.04688 349.59064 413.23438 348.7469Q412.4375 347.90314 412.4375 346.3875Q412.4375 344.825 413.25 343.96564Q414.0625 343.09064 415.34375 343.09064Q416.59375 343.09064 417.375 343.9344Q418.17188 344.77814 418.17188 346.325Q418.17188 346.41876 418.17188 346.60626L413.53125 346.60626Q413.59375 347.6375 414.10938 348.1844Q414.625 348.71564 415.40625 348.71564Q415.98438 348.71564 416.39062 348.41876Q416.8125 348.10626 417.04688 347.45ZM413.59375 345.7469L417.0625 345.7469Q417.0 344.95 416.67188 344.5594Q416.15625 343.95 415.35938 343.95Q414.625 343.95 414.125 344.4344Q413.64062 344.91876 413.59375 345.7469ZM420.07812 344.4344L420.07812 343.23126L421.28125 343.23126L421.28125 344.4344L420.07812 344.4344ZM420.07812 349.45L420.07812 348.2469L421.28125 348.2469L421.28125 349.45L420.07812 349.45Z" fill-rule="nonzero"/><path fill="#000000" d="M33.05 300.21564Q33.05 298.6844 33.3625 297.7625Q33.675 296.825 34.284374 296.325Q34.909374 295.825 35.846874 295.825Q36.534374 295.825 37.05 296.10626Q37.58125 296.3875 37.925 296.91876Q38.26875 297.4344 38.45625 298.1844Q38.64375 298.9344 38.64375 300.21564Q38.64375 301.73126 38.33125 302.65314Q38.034374 303.575 37.409374 304.09064Q36.8 304.59064 35.846874 304.59064Q34.6125 304.59064 33.89375 303.7Q33.05 302.6375 33.05 300.21564ZM34.128124 300.21564Q34.128124 302.325 34.628124 303.02814Q35.128124 303.73126 35.846874 303.73126Q36.58125 303.73126 37.065624 303.02814Q37.565624 302.325 37.565624 300.21564Q37.565624 298.09064 37.065624 297.40314Q36.58125 296.7 35.83125 296.7Q35.1125 296.7 34.675 297.3094Q34.128124 298.09064 34.128124 300.21564Z" fill-rule="nonzero"/><path fill="#000000" d="M30.01875 224.93889L28.971874 224.93889L28.971874 218.22014Q28.58125 218.57951 27.95625 218.95451Q27.346874 219.31389 26.8625 219.48576L26.8625 218.47014Q27.7375 218.04826 28.39375 217.47014Q29.065624 216.87639 29.346874 216.31389L30.01875 216.31389L30.01875 224.93889ZM33.05 220.70451Q33.05 219.17326 33.3625 218.25139Q33.675 217.31389 34.284374 216.81389Q34.909374 216.31389 35.846874 216.31389Q36.534374 216.31389 37.05 216.59514Q37.58125 216.87639 37.925 217.40764Q38.26875 217.92326 38.45625 218.67326Q38.64375 219.42326 38.64375 220.70451Q38.64375 222.22014 38.33125 223.14201Q38.034374 224.06389 37.409374 224.57951Q36.8 225.07951 35.846874 225.07951Q34.6125 225.07951 33.89375 224.18889Q33.05 223.12639 33.05 220.70451ZM34.128124 220.70451Q34.128124 222.81389 34.628124 223.51701Q35.128124 224.22014 35.846874 224.22014Q36.58125 224.22014 37.065624 223.51701Q37.565624 222.81389 37.565624 220.70451Q37.565624 218.57951 37.065624 217.89201Q36.58125 217.18889 35.83125 217.18889Q35.1125 217.18889 34.675 217.79826Q34.128124 218.57951 34.128124 220.70451Z" fill-rule="nonzero"/><path fill="#000000" d="M31.596874 144.41216L31.596874 145.42778L25.909374 145.42778Q25.909374 145.05278 26.034374 144.6934Q26.253124 144.11528 26.721874 143.55278Q27.20625 142.99028 28.1125 142.2559Q29.51875 141.09966 30.003124 140.42778Q30.503124 139.7559 30.503124 139.16216Q30.503124 138.53716 30.05 138.11528Q29.596874 137.67778 28.878124 137.67778Q28.1125 137.67778 27.659374 138.1309Q27.20625 138.58403 27.190624 139.39653L26.1125 139.28716Q26.221874 138.0684 26.940624 137.4434Q27.675 136.80278 28.909374 136.80278Q30.14375 136.80278 30.8625 137.49028Q31.58125 138.17778 31.58125 139.1934Q31.58125 139.70903 31.3625 140.20903Q31.159374 140.6934 30.659374 141.2559Q30.175 141.80278 29.05 142.7559Q28.096874 143.55278 27.815624 143.84966Q27.55 144.1309 27.378124 144.41216L31.596874 144.41216ZM33.05 141.1934Q33.05 139.66216 33.3625 138.74028Q33.675 137.80278 34.284374 137.30278Q34.909374 136.80278 35.846874 136.80278Q36.534374 136.80278 37.05 137.08403Q37.58125 137.36528 37.925 137.89653Q38.26875 138.41216 38.45625 139.16216Q38.64375 139.91216 38.64375 141.1934Q38.64375 142.70903 38.33125 143.6309Q38.034374 144.55278 37.409374 145.0684Q36.8 145.5684 35.846874 145.5684Q34.6125 145.5684 33.89375 144.67778Q33.05 143.61528 33.05 141.1934ZM34.128124 141.1934Q34.128124 143.30278 34.628124 144.0059Q35.128124 144.70903 35.846874 144.70903Q36.58125 144.70903 37.065624 144.0059Q37.565624 143.30278 37.565624 141.1934Q37.565624 139.0684 37.065624 138.3809Q36.58125 137.67778 35.83125 137.67778Q35.1125 137.67778 34.675 138.28716Q34.128124 139.0684 34.128124 141.1934Z" fill-rule="nonzero"/><path fill="#000000" d="M26.05 63.65104L27.1125 63.510414Q27.284374 64.40104 27.721874 64.80729Q28.159374 65.197914 28.784374 65.197914Q29.534374 65.197914 30.05 64.68229Q30.565624 64.166664 30.565624 63.40104Q30.565624 62.68229 30.08125 62.21354Q29.6125 61.729164 28.878124 61.729164Q28.58125 61.729164 28.128124 61.854164L28.253124 60.916664Q28.3625 60.93229 28.425 60.93229Q29.096874 60.93229 29.628124 60.58854Q30.175 60.229164 30.175 59.49479Q30.175 58.916664 29.784374 58.541664Q29.39375 58.15104 28.76875 58.15104Q28.159374 58.15104 27.7375 58.541664Q27.33125 58.93229 27.221874 59.697914L26.159374 59.510414Q26.346874 58.46354 27.034374 57.885414Q27.721874 57.291664 28.7375 57.291664Q29.440624 57.291664 30.034374 57.604164Q30.628124 57.90104 30.940624 58.416664Q31.253124 58.93229 31.253124 59.52604Q31.253124 60.072914 30.95625 60.541664Q30.659374 60.99479 30.08125 61.260414Q30.83125 61.43229 31.253124 61.99479Q31.675 62.541664 31.675 63.385414Q31.675 64.510414 30.846874 65.291664Q30.034374 66.072914 28.784374 66.072914Q27.659374 66.072914 26.909374 65.40104Q26.159374 64.71354 26.05 63.65104ZM33.05 61.68229Q33.05 60.15104 33.3625 59.229164Q33.675 58.291664 34.284374 57.791664Q34.909374 57.291664 35.846874 57.291664Q36.534374 57.291664 37.05 57.572914Q37.58125 57.854164 37.925 58.385414Q38.26875 58.90104 38.45625 59.65104Q38.64375 60.40104 38.64375 61.68229Q38.64375 63.197914 38.33125 64.11979Q38.034374 65.041664 37.409374 65.55729Q36.8 66.05729 35.846874 66.05729Q34.6125 66.05729 33.89375 65.166664Q33.05 64.104164 33.05 61.68229ZM34.128124 61.68229Q34.128124 63.791664 34.628124 64.49479Q35.128124 65.197914 35.846874 65.197914Q36.58125 65.197914 37.065624 64.49479Q37.565624 63.791664 37.565624 61.68229Q37.565624 59.55729 37.065624 58.86979Q36.58125 58.166664 35.83125 58.166664Q35.1125 58.166664 34.675 58.77604Q34.128124 59.55729 34.128124 61.68229Z" fill-rule="nonzero"/><path fill="#000000" d="M48.6323 317.45L48.6323 308.85626L49.7573 308.85626L49.7573 312.3875L54.22605 312.3875L54.22605 308.85626L55.366676 308.85626L55.366676 317.45L54.22605 317.45L54.22605 313.40314L49.7573 313.40314L49.7573 317.45L48.6323 317.45ZM61.710426 315.45L62.804176 315.575Q62.554176 316.52814 61.85105 317.0594Q61.147926 317.59064 60.0698 317.59064Q58.710426 317.59064 57.897926 316.7469Q57.10105 315.90314 57.10105 314.3875Q57.10105 312.825 57.91355 311.96564Q58.72605 311.09064 60.0073 311.09064Q61.2573 311.09064 62.03855 311.9344Q62.835426 312.77814 62.835426 314.325Q62.835426 314.41876 62.835426 314.60626L58.1948 314.60626Q58.2573 315.6375 58.772926 316.1844Q59.28855 316.71564 60.0698 316.71564Q60.647926 316.71564 61.054176 316.41876Q61.47605 316.10626 61.710426 315.45ZM58.2573 313.7469L61.72605 313.7469Q61.66355 312.95 61.335426 312.5594Q60.8198 311.95 60.022926 311.95Q59.28855 311.95 58.78855 312.4344Q58.304176 312.91876 58.2573 313.7469ZM66.7573 316.5125L66.91355 317.4344Q66.46043 317.52814 66.11668 317.52814Q65.53855 317.52814 65.22605 317.35626Q64.91355 317.16876 64.77293 316.8719Q64.64793 316.575 64.64793 315.6219L64.64793 312.04376L63.8823 312.04376L63.8823 311.23126L64.64793 311.23126L64.64793 309.6844L65.6948 309.0594L65.6948 311.23126L66.7573 311.23126L66.7573 312.04376L65.6948 312.04376L65.6948 315.6844Q65.6948 316.1375 65.74168 316.2625Q65.80418 316.3875 65.92918 316.46564Q66.05418 316.54376 66.28855 316.54376Q66.47605 316.54376 66.7573 316.5125ZM71.71043 315.45L72.80418 315.575Q72.55418 316.52814 71.85105 317.0594Q71.14793 317.59064 70.0698 317.59064Q68.71043 317.59064 67.89793 316.7469Q67.10105 315.90314 67.10105 314.3875Q67.10105 312.825 67.91355 311.96564Q68.72605 311.09064 70.0073 311.09064Q71.2573 311.09064 72.03855 311.9344Q72.83543 312.77814 72.83543 314.325Q72.83543 314.41876 72.83543 314.60626L68.1948 314.60626Q68.2573 315.6375 68.77293 316.1844Q69.28855 316.71564 70.0698 316.71564Q70.64793 316.71564 71.05418 316.41876Q71.47605 316.10626 71.71043 315.45ZM68.2573 313.7469L71.72605 313.7469Q71.66355 312.95 71.33543 312.5594Q70.8198 311.95 70.02293 311.95Q69.28855 311.95 68.78855 312.4344Q68.30418 312.91876 68.2573 313.7469ZM74.4448 317.45L74.4448 311.23126L75.39793 311.23126L75.39793 312.16876Q75.7573 311.5125 76.05418 311.3094Q76.36668 311.09064 76.74168 311.09064Q77.27293 311.09064 77.8198 311.41876L77.46043 312.40314Q77.0698 312.16876 76.6948 312.16876Q76.33543 312.16876 76.05418 312.3875Q75.78855 312.59064 75.67918 312.96564Q75.49168 313.52814 75.49168 314.1844L75.49168 317.45L74.4448 317.45ZM78.0698 314.34064Q78.0698 312.60626 79.02293 311.77814Q79.8198 311.09064 80.97605 311.09064Q82.2573 311.09064 83.0698 311.9344Q83.89793 312.7625 83.89793 314.2469Q83.89793 315.45 83.53855 316.1375Q83.17918 316.825 82.47605 317.21564Q81.78855 317.59064 80.97605 317.59064Q79.67918 317.59064 78.86668 316.7625Q78.0698 315.91876 78.0698 314.34064ZM79.14793 314.34064Q79.14793 315.52814 79.66355 316.1219Q80.1948 316.71564 80.97605 316.71564Q81.77293 316.71564 82.28855 316.1219Q82.80418 315.52814 82.80418 314.3094Q82.80418 313.15314 82.27293 312.5594Q81.7573 311.96564 80.97605 311.96564Q80.1948 311.96564 79.66355 312.5594Q79.14793 313.1375 79.14793 314.34064ZM85.03855 315.59064L86.0698 315.4344Q86.16355 316.0594 86.55418 316.3875Q86.96043 316.71564 87.6948 316.71564Q88.41355 316.71564 88.7573 316.4344Q89.11668 316.1375 89.11668 315.73126Q89.11668 315.3719 88.80418 315.16876Q88.58543 315.02814 87.72605 314.8094Q86.5698 314.5125 86.11668 314.3094Q85.67918 314.09064 85.4448 313.71564Q85.21043 313.34064 85.21043 312.8719Q85.21043 312.46564 85.39793 312.10626Q85.58543 311.7469 85.91355 311.5125Q86.16355 311.34064 86.58543 311.21564Q87.0073 311.09064 87.5073 311.09064Q88.22605 311.09064 88.77293 311.3094Q89.33543 311.5125 89.60105 311.8719Q89.86668 312.23126 89.96043 312.825L88.92918 312.96564Q88.86668 312.4969 88.52293 312.23126Q88.1948 311.95 87.5698 311.95Q86.85105 311.95 86.53855 312.2Q86.22605 312.4344 86.22605 312.7625Q86.22605 312.96564 86.35105 313.1219Q86.49168 313.29376 86.7573 313.40314Q86.91355 313.46564 87.6948 313.66876Q88.8198 313.98126 89.2573 314.16876Q89.6948 314.35626 89.9448 314.71564Q90.1948 315.075 90.1948 315.6219Q90.1948 316.15314 89.8823 316.6219Q89.58543 317.075 89.0073 317.34064Q88.42918 317.59064 87.6948 317.59064Q86.47605 317.59064 85.83543 317.09064Q85.21043 316.575 85.03855 315.59064ZM96.71043 315.45L97.80418 315.575Q97.55418 316.52814 96.85105 317.0594Q96.14793 317.59064 95.0698 317.59064Q93.71043 317.59064 92.89793 316.7469Q92.10105 315.90314 92.10105 314.3875Q92.10105 312.825 92.91355 311.96564Q93.72605 311.09064 95.0073 311.09064Q96.2573 311.09064 97.03855 311.9344Q97.83543 312.77814 97.83543 314.325Q97.83543 314.41876 97.83543 314.60626L93.1948 314.60626Q93.2573 315.6375 93.77293 316.1844Q94.28855 316.71564 95.0698 316.71564Q95.64793 316.71564 96.05418 316.41876Q96.47605 316.10626 96.71043 315.45ZM93.2573 313.7469L96.72605 313.7469Q96.66355 312.95 96.33543 312.5594Q95.8198 311.95 95.02293 311.95Q94.28855 311.95 93.78855 312.4344Q93.30418 312.91876 93.2573 313.7469ZM98.7573 317.45L101.02293 314.21564L98.92918 311.23126L100.24168 311.23126L101.1948 312.6844Q101.46043 313.10626 101.6323 313.3875Q101.8823 312.9969 102.10105 312.7L103.14793 311.23126L104.41355 311.23126L102.2573 314.15314L104.5698 317.45L103.28855 317.45L102.0073 315.5125L101.66355 314.9969L100.02293 317.45L98.7573 317.45ZM108.53855 317.45L108.53855 316.52814Q107.80418 317.59064 106.55418 317.59064Q106.0073 317.59064 105.52293 317.3875Q105.05418 317.16876 104.8198 316.85626Q104.58543 316.52814 104.49168 316.0594Q104.42918 315.7625 104.42918 315.075L104.42918 311.23126L105.49168 311.23126L105.49168 314.6844Q105.49168 315.4969 105.55418 315.79376Q105.64793 316.2 105.96043 316.45Q106.28855 316.6844 106.77293 316.6844Q107.24168 316.6844 107.64793 316.45Q108.0698 316.2 108.24168 315.77814Q108.42918 315.35626 108.42918 314.5594L108.42918 311.23126L109.47605 311.23126L109.47605 317.45L108.53855 317.45ZM115.52293 316.6844Q114.92918 317.1844 114.3823 317.3875Q113.85105 317.59064 113.22605 317.59064Q112.1948 317.59064 111.64793 317.09064Q111.10105 316.59064 111.10105 315.8094Q111.10105 315.35626 111.30418 314.98126Q111.5073 314.59064 111.85105 314.3719Q112.1948 314.1375 112.61668 314.02814Q112.91355 313.9344 113.55418 313.85626Q114.8198 313.71564 115.42918 313.4969Q115.42918 313.27814 115.42918 313.23126Q115.42918 312.575 115.1323 312.3094Q114.72605 311.96564 113.92918 311.96564Q113.1948 311.96564 112.83543 312.23126Q112.47605 312.48126 112.30418 313.1375L111.27293 312.9969Q111.41355 312.34064 111.74168 311.9344Q112.0698 311.52814 112.67918 311.3094Q113.28855 311.09064 114.08543 311.09064Q114.8823 311.09064 115.3823 311.27814Q115.8823 311.46564 116.11668 311.7469Q116.35105 312.02814 116.4448 312.46564Q116.49168 312.73126 116.49168 313.4344L116.49168 314.84064Q116.49168 316.3094 116.55418 316.7Q116.6323 317.09064 116.83543 317.45L115.72605 317.45Q115.5698 317.1219 115.52293 316.6844ZM115.42918 314.325Q114.85105 314.5594 113.71043 314.73126Q113.05418 314.825 112.78855 314.95Q112.52293 315.0594 112.36668 315.27814Q112.22605 315.4969 112.22605 315.77814Q112.22605 316.2 112.53855 316.48126Q112.86668 316.7625 113.47605 316.7625Q114.08543 316.7625 114.55418 316.4969Q115.03855 316.23126 115.2573 315.7625Q115.42918 315.40314 115.42918 314.71564L115.42918 314.325ZM118.42918 317.45L118.42918 308.85626L119.49168 308.85626L119.49168 317.45L118.42918 317.45ZM124.0698 314.34064Q124.0698 312.60626 125.02293 311.77814Q125.8198 311.09064 126.97605 311.09064Q128.2573 311.09064 129.0698 311.9344Q129.89792 312.7625 129.89792 314.2469Q129.89792 315.45 129.53854 316.1375Q129.17917 316.825 128.47604 317.21564Q127.78855 317.59064 126.97605 317.59064Q125.67918 317.59064 124.86668 316.7625Q124.0698 315.91876 124.0698 314.34064ZM125.14793 314.34064Q125.14793 315.52814 125.66355 316.1219Q126.1948 316.71564 126.97605 316.71564Q127.77293 316.71564 128.28854 316.1219Q128.80417 315.52814 128.80417 314.3094Q128.80417 313.15314 128.27292 312.5594Q127.7573 311.96564 126.97605 311.96564Q126.1948 311.96564 125.66355 312.5594Q125.14793 313.1375 125.14793 314.34064ZM131.4448 317.45L131.4448 311.23126L132.39792 311.23126L132.39792 312.16876Q132.7573 311.5125 133.05417 311.3094Q133.36667 311.09064 133.74167 311.09064Q134.27292 311.09064 134.8198 311.41876L134.46042 312.40314Q134.0698 312.16876 133.6948 312.16876Q133.33542 312.16876 133.05417 312.3875Q132.78854 312.59064 132.67917 312.96564Q132.49167 313.52814 132.49167 314.1844L132.49167 317.45L131.4448 317.45ZM138.03854 315.59064L139.0698 315.4344Q139.16354 316.0594 139.55417 316.3875Q139.96042 316.71564 140.6948 316.71564Q141.41354 316.71564 141.7573 316.4344Q142.11667 316.1375 142.11667 315.73126Q142.11667 315.3719 141.80417 315.16876Q141.58542 315.02814 140.72604 314.8094Q139.5698 314.5125 139.11667 314.3094Q138.67917 314.09064 138.4448 313.71564Q138.21042 313.34064 138.21042 312.8719Q138.21042 312.46564 138.39792 312.10626Q138.58542 311.7469 138.91354 311.5125Q139.16354 311.34064 139.58542 311.21564Q140.0073 311.09064 140.5073 311.09064Q141.22604 311.09064 141.77292 311.3094Q142.33542 311.5125 142.60104 311.8719Q142.86667 312.23126 142.96042 312.825L141.92917 312.96564Q141.86667 312.4969 141.52292 312.23126Q141.1948 311.95 140.5698 311.95Q139.85104 311.95 139.53854 312.2Q139.22604 312.4344 139.22604 312.7625Q139.22604 312.96564 139.35104 313.1219Q139.49167 313.29376 139.7573 313.40314Q139.91354 313.46564 140.6948 313.66876Q141.8198 313.98126 142.2573 314.16876Q142.6948 314.35626 142.9448 314.71564Q143.1948 315.075 143.1948 315.6219Q143.1948 316.15314 142.8823 316.6219Q142.58542 317.075 142.0073 317.34064Q141.42917 317.59064 140.6948 317.59064Q139.47604 317.59064 138.83542 317.09064Q138.21042 316.575 138.03854 315.59064ZM147.7573 316.5125L147.91354 317.4344Q147.46042 317.52814 147.11667 317.52814Q146.53854 317.52814 146.22604 317.35626Q145.91354 317.16876 145.77292 316.8719Q145.64792 316.575 145.64792 315.6219L145.64792 312.04376L144.8823 312.04376L144.8823 311.23126L145.64792 311.23126L145.64792 309.6844L146.6948 309.0594L146.6948 311.23126L147.7573 311.23126L147.7573 312.04376L146.6948 312.04376L146.6948 315.6844Q146.6948 316.1375 146.74167 316.2625Q146.80417 316.3875 146.92917 316.46564Q147.05417 316.54376 147.28854 316.54376Q147.47604 316.54376 147.7573 316.5125ZM148.4448 317.45L148.4448 311.23126L149.39792 311.23126L149.39792 312.16876Q149.7573 311.5125 150.05417 311.3094Q150.36667 311.09064 150.74167 311.09064Q151.27292 311.09064 151.8198 311.41876L151.46042 312.40314Q151.0698 312.16876 150.6948 312.16876Q150.33542 312.16876 150.05417 312.3875Q149.78854 312.59064 149.67917 312.96564Q149.49167 313.52814 149.49167 314.1844L149.49167 317.45L148.4448 317.45ZM156.52292 316.6844Q155.92917 317.1844 155.3823 317.3875Q154.85104 317.59064 154.22604 317.59064Q153.1948 317.59064 152.64792 317.09064Q152.10104 316.59064 152.10104 315.8094Q152.10104 315.35626 152.30417 314.98126Q152.5073 314.59064 152.85104 314.3719Q153.1948 314.1375 153.61667 314.02814Q153.91354 313.9344 154.55417 313.85626Q155.8198 313.71564 156.42917 313.4969Q156.42917 313.27814 156.42917 313.23126Q156.42917 312.575 156.1323 312.3094Q155.72604 311.96564 154.92917 311.96564Q154.1948 311.96564 153.83542 312.23126Q153.47604 312.48126 153.30417 313.1375L152.27292 312.9969Q152.41354 312.34064 152.74167 311.9344Q153.0698 311.52814 153.67917 311.3094Q154.28854 311.09064 155.08542 311.09064Q155.8823 311.09064 156.3823 311.27814Q156.8823 311.46564 157.11667 311.7469Q157.35104 312.02814 157.4448 312.46564Q157.49167 312.73126 157.49167 313.4344L157.49167 314.84064Q157.49167 316.3094 157.55417 316.7Q157.6323 317.09064 157.83542 317.45L156.72604 317.45Q156.5698 317.1219 156.52292 316.6844ZM156.42917 314.325Q155.85104 314.5594 154.71042 314.73126Q154.05417 314.825 153.78854 314.95Q153.52292 315.0594 153.36667 315.27814Q153.22604 315.4969 153.22604 315.77814Q153.22604 316.2 153.53854 316.48126Q153.86667 316.7625 154.47604 316.7625Q155.08542 316.7625 155.55417 316.4969Q156.03854 316.23126 156.2573 315.7625Q156.42917 315.40314 156.42917 314.71564L156.42917 314.325ZM159.46042 310.075L159.46042 308.85626L160.52292 308.85626L160.52292 310.075L159.46042 310.075ZM159.46042 317.45L159.46042 311.23126L160.52292 311.23126L160.52292 317.45L159.46042 317.45ZM162.2573 317.96564L163.28854 318.1219Q163.35104 318.59064 163.64792 318.8094Q164.03854 319.10626 164.71042 319.10626Q165.4448 319.10626 165.83542 318.8094Q166.24167 318.5125 166.3823 317.9969Q166.47604 317.66876 166.46042 316.6375Q165.77292 317.45 164.74167 317.45Q163.46042 317.45 162.7573 316.52814Q162.05417 315.59064 162.05417 314.3094Q162.05417 313.41876 162.36667 312.66876Q162.6948 311.90314 163.30417 311.4969Q163.91354 311.09064 164.74167 311.09064Q165.85104 311.09064 166.5698 311.98126L166.5698 311.23126L167.53854 311.23126L167.53854 316.60626Q167.53854 318.0594 167.24167 318.66876Q166.9448 319.27814 166.30417 319.6219Q165.66354 319.98126 164.72604 319.98126Q163.61667 319.98126 162.92917 319.48126Q162.24167 318.98126 162.2573 317.96564ZM163.1323 314.23126Q163.1323 315.45 163.61667 316.0125Q164.10104 316.575 164.83542 316.575Q165.5698 316.575 166.05417 316.0125Q166.55417 315.45 166.55417 314.2625Q166.55417 313.1219 166.03854 312.54376Q165.53854 311.96564 164.8198 311.96564Q164.11667 311.96564 163.61667 312.54376Q163.1323 313.10626 163.1323 314.23126ZM169.46042 317.45L169.46042 308.85626L170.5073 308.85626L170.5073 311.9344Q171.24167 311.09064 172.36667 311.09064Q173.0698 311.09064 173.5698 311.3719Q174.08542 311.6375 174.30417 312.1219Q174.52292 312.59064 174.52292 313.5125L174.52292 317.45L173.47604 317.45L173.47604 313.5125Q173.47604 312.71564 173.1323 312.35626Q172.78854 311.9969 172.16354 311.9969Q171.6948 311.9969 171.27292 312.2469Q170.86667 312.48126 170.67917 312.90314Q170.5073 313.3094 170.5073 314.04376L170.5073 317.45L169.46042 317.45ZM178.7573 316.5125L178.91354 317.4344Q178.46042 317.52814 178.11667 317.52814Q177.53854 317.52814 177.22604 317.35626Q176.91354 317.16876 176.77292 316.8719Q176.64792 316.575 176.64792 315.6219L176.64792 312.04376L175.8823 312.04376L175.8823 311.23126L176.64792 311.23126L176.64792 309.6844L177.6948 309.0594L177.6948 311.23126L178.7573 311.23126L178.7573 312.04376L177.6948 312.04376L177.6948 315.6844Q177.6948 316.1375 177.74167 316.2625Q177.80417 316.3875 177.92917 316.46564Q178.05417 316.54376 178.28854 316.54376Q178.47604 316.54376 178.7573 316.5125Z" fill-rule="nonzero"/><path fill="#000000" d="M190.70677 317.45L190.70677 308.85626L193.94115 308.85626Q194.92552 308.85626 195.51927 309.1219Q196.11302 309.3875 196.44115 309.9344Q196.7849 310.46564 196.7849 311.0594Q196.7849 311.60626 196.48802 312.09064Q196.19115 312.575 195.58177 312.8719Q196.36302 313.10626 196.76927 313.66876Q197.19115 314.21564 197.19115 314.96564Q197.19115 315.5594 196.94115 316.09064Q196.69115 316.60626 196.31615 316.8875Q195.94115 317.16876 195.36302 317.3094Q194.80052 317.45 193.98802 317.45L190.70677 317.45ZM191.8474 312.46564L193.70677 312.46564Q194.45677 312.46564 194.7849 312.3719Q195.2224 312.2469 195.44115 311.95Q195.6599 311.6375 195.6599 311.1844Q195.6599 310.7625 195.45677 310.4344Q195.25365 310.10626 194.86302 309.9969Q194.48802 309.8719 193.56615 309.8719L191.8474 309.8719L191.8474 312.46564ZM191.8474 316.4344L193.98802 316.4344Q194.5349 316.4344 194.75365 316.3875Q195.1599 316.325 195.4099 316.16876Q195.67552 315.9969 195.8474 315.6844Q196.01927 315.3719 196.01927 314.96564Q196.01927 314.48126 195.76927 314.1219Q195.5349 313.7625 195.0974 313.6219Q194.6599 313.48126 193.83177 313.48126L191.8474 313.48126L191.8474 316.4344ZM198.62865 310.075L198.62865 308.85626L199.69115 308.85626L199.69115 310.075L198.62865 310.075ZM198.62865 317.45L198.62865 311.23126L199.69115 311.23126L199.69115 317.45L198.62865 317.45ZM201.20677 315.59064L202.23802 315.4344Q202.33177 316.0594 202.7224 316.3875Q203.12865 316.71564 203.86302 316.71564Q204.58177 316.71564 204.92552 316.4344Q205.2849 316.1375 205.2849 315.73126Q205.2849 315.3719 204.9724 315.16876Q204.75365 315.02814 203.89427 314.8094Q202.73802 314.5125 202.2849 314.3094Q201.8474 314.09064 201.61302 313.71564Q201.37865 313.34064 201.37865 312.8719Q201.37865 312.46564 201.56615 312.10626Q201.75365 311.7469 202.08177 311.5125Q202.33177 311.34064 202.75365 311.21564Q203.17552 311.09064 203.67552 311.09064Q204.39427 311.09064 204.94115 311.3094Q205.50365 311.5125 205.76927 311.8719Q206.0349 312.23126 206.12865 312.825L205.0974 312.96564Q205.0349 312.4969 204.69115 312.23126Q204.36302 311.95 203.73802 311.95Q203.01927 311.95 202.70677 312.2Q202.39427 312.4344 202.39427 312.7625Q202.39427 312.96564 202.51927 313.1219Q202.6599 313.29376 202.92552 313.40314Q203.08177 313.46564 203.86302 313.66876Q204.98802 313.98126 205.42552 314.16876Q205.86302 314.35626 206.11302 314.71564Q206.36302 315.075 206.36302 315.6219Q206.36302 316.15314 206.05052 316.6219Q205.75365 317.075 205.17552 317.34064Q204.5974 317.59064 203.86302 317.59064Q202.64427 317.59064 202.00365 317.09064Q201.37865 316.575 201.20677 315.59064ZM212.87865 315.45L213.9724 315.575Q213.7224 316.52814 213.01927 317.0594Q212.31615 317.59064 211.23802 317.59064Q209.87865 317.59064 209.06615 316.7469Q208.26927 315.90314 208.26927 314.3875Q208.26927 312.825 209.08177 311.96564Q209.89427 311.09064 211.17552 311.09064Q212.42552 311.09064 213.20677 311.9344Q214.00365 312.77814 214.00365 314.325Q214.00365 314.41876 214.00365 314.60626L209.36302 314.60626Q209.42552 315.6375 209.94115 316.1844Q210.45677 316.71564 211.23802 316.71564Q211.81615 316.71564 212.2224 316.41876Q212.64427 316.10626 212.87865 315.45ZM209.42552 313.7469L212.89427 313.7469Q212.83177 312.95 212.50365 312.5594Q211.98802 311.95 211.19115 311.95Q210.45677 311.95 209.95677 312.4344Q209.4724 312.91876 209.42552 313.7469ZM214.92552 317.45L217.19115 314.21564L215.0974 311.23126L216.4099 311.23126L217.36302 312.6844Q217.62865 313.10626 217.80052 313.3875Q218.05052 312.9969 218.26927 312.7L219.31615 311.23126L220.58177 311.23126L218.42552 314.15314L220.73802 317.45L219.45677 317.45L218.17552 315.5125L217.83177 314.9969L216.19115 317.45L214.92552 317.45ZM224.70677 317.45L224.70677 316.52814Q223.9724 317.59064 222.7224 317.59064Q222.17552 317.59064 221.69115 317.3875Q221.2224 317.16876 220.98802 316.85626Q220.75365 316.52814 220.6599 316.0594Q220.5974 315.7625 220.5974 315.075L220.5974 311.23126L221.6599 311.23126L221.6599 314.6844Q221.6599 315.4969 221.7224 315.79376Q221.81615 316.2 222.12865 316.45Q222.45677 316.6844 222.94115 316.6844Q223.4099 316.6844 223.81615 316.45Q224.23802 316.2 224.4099 315.77814Q224.5974 315.35626 224.5974 314.5594L224.5974 311.23126L225.64427 311.23126L225.64427 317.45L224.70677 317.45ZM231.69115 316.6844Q231.0974 317.1844 230.55052 317.3875Q230.01927 317.59064 229.39427 317.59064Q228.36302 317.59064 227.81615 317.09064Q227.26927 316.59064 227.26927 315.8094Q227.26927 315.35626 227.4724 314.98126Q227.67552 314.59064 228.01927 314.3719Q228.36302 314.1375 228.7849 314.02814Q229.08177 313.9344 229.7224 313.85626Q230.98802 313.71564 231.5974 313.4969Q231.5974 313.27814 231.5974 313.23126Q231.5974 312.575 231.30052 312.3094Q230.89427 311.96564 230.0974 311.96564Q229.36302 311.96564 229.00365 312.23126Q228.64427 312.48126 228.4724 313.1375L227.44115 312.9969Q227.58177 312.34064 227.9099 311.9344Q228.23802 311.52814 228.8474 311.3094Q229.45677 311.09064 230.25365 311.09064Q231.05052 311.09064 231.55052 311.27814Q232.05052 311.46564 232.2849 311.7469Q232.51927 312.02814 232.61302 312.46564Q232.6599 312.73126 232.6599 313.4344L232.6599 314.84064Q232.6599 316.3094 232.7224 316.7Q232.80052 317.09064 233.00365 317.45L231.89427 317.45Q231.73802 317.1219 231.69115 316.6844ZM231.5974 314.325Q231.01927 314.5594 229.87865 314.73126Q229.2224 314.825 228.95677 314.95Q228.69115 315.0594 228.5349 315.27814Q228.39427 315.4969 228.39427 315.77814Q228.39427 316.2 228.70677 316.48126Q229.0349 316.7625 229.64427 316.7625Q230.25365 316.7625 230.7224 316.4969Q231.20677 316.23126 231.42552 315.7625Q231.5974 315.40314 231.5974 314.71564L231.5974 314.325ZM234.5974 317.45L234.5974 308.85626L235.6599 308.85626L235.6599 317.45L234.5974 317.45Z" fill-rule="nonzero"/><path fill="#000000" d="M278.95312 314.075L278.95312 313.075L282.57812 313.0594L282.57812 316.2469Q281.75 316.91876 280.85938 317.2625Q279.96875 317.59064 279.03125 317.59064Q277.76562 317.59064 276.71875 317.0594Q275.6875 316.5125 275.15625 315.4969Q274.64062 314.46564 274.64062 313.2Q274.64062 311.9344 275.15625 310.85626Q275.6875 309.7625 276.67188 309.2469Q277.65625 308.71564 278.9375 308.71564Q279.875 308.71564 280.625 309.0125Q281.375 309.3094 281.79688 309.85626Q282.23438 310.3875 282.45312 311.2625L281.4375 311.54376Q281.23438 310.8875 280.9375 310.5125Q280.65625 310.1375 280.125 309.91876Q279.59375 309.6844 278.95312 309.6844Q278.17188 309.6844 277.59375 309.91876Q277.03125 310.15314 276.67188 310.54376Q276.32812 310.9344 276.14062 311.40314Q275.8125 312.2 275.8125 313.1219Q275.8125 314.27814 276.20312 315.0594Q276.60938 315.825 277.35938 316.2Q278.10938 316.575 278.96875 316.575Q279.70312 316.575 280.40625 316.29376Q281.10938 315.9969 281.46875 315.6844L281.46875 314.075L278.95312 314.075ZM287.85938 316.6844Q287.26562 317.1844 286.71875 317.3875Q286.1875 317.59064 285.5625 317.59064Q284.53125 317.59064 283.98438 317.09064Q283.4375 316.59064 283.4375 315.8094Q283.4375 315.35626 283.64062 314.98126Q283.84375 314.59064 284.1875 314.3719Q284.53125 314.1375 284.95312 314.02814Q285.25 313.9344 285.89062 313.85626Q287.15625 313.71564 287.76562 313.4969Q287.76562 313.27814 287.76562 313.23126Q287.76562 312.575 287.46875 312.3094Q287.0625 311.96564 286.26562 311.96564Q285.53125 311.96564 285.17188 312.23126Q284.8125 312.48126 284.64062 313.1375L283.60938 312.9969Q283.75 312.34064 284.07812 311.9344Q284.40625 311.52814 285.01562 311.3094Q285.625 311.09064 286.42188 311.09064Q287.21875 311.09064 287.71875 311.27814Q288.21875 311.46564 288.45312 311.7469Q288.6875 312.02814 288.78125 312.46564Q288.82812 312.73126 288.82812 313.4344L288.82812 314.84064Q288.82812 316.3094 288.89062 316.7Q288.96875 317.09064 289.17188 317.45L288.0625 317.45Q287.90625 317.1219 287.85938 316.6844ZM287.76562 314.325Q287.1875 314.5594 286.04688 314.73126Q285.39062 314.825 285.125 314.95Q284.85938 315.0594 284.70312 315.27814Q284.5625 315.4969 284.5625 315.77814Q284.5625 316.2 284.875 316.48126Q285.20312 316.7625 285.8125 316.7625Q286.42188 316.7625 286.89062 316.4969Q287.375 316.23126 287.59375 315.7625Q287.76562 315.40314 287.76562 314.71564L287.76562 314.325ZM290.75 319.84064L290.625 318.85626Q290.96875 318.95 291.23438 318.95Q291.57812 318.95 291.78125 318.825Q292.0 318.71564 292.14062 318.5125Q292.23438 318.34064 292.46875 317.71564Q292.48438 317.6375 292.5625 317.46564L290.1875 311.23126L291.32812 311.23126L292.625 314.825Q292.875 315.5125 293.07812 316.27814Q293.26562 315.54376 293.51562 314.85626L294.84375 311.23126L295.89062 311.23126L293.53125 317.5594Q293.14062 318.575 292.9375 318.96564Q292.65625 319.4969 292.28125 319.73126Q291.92188 319.98126 291.42188 319.98126Q291.125 319.98126 290.75 319.84064ZM298.40625 314.34064Q298.40625 312.60626 299.35938 311.77814Q300.15625 311.09064 301.3125 311.09064Q302.59375 311.09064 303.40625 311.9344Q304.23438 312.7625 304.23438 314.2469Q304.23438 315.45 303.875 316.1375Q303.51562 316.825 302.8125 317.21564Q302.125 317.59064 301.3125 317.59064Q300.01562 317.59064 299.20312 316.7625Q298.40625 315.91876 298.40625 314.34064ZM299.48438 314.34064Q299.48438 315.52814 300.0 316.1219Q300.53125 316.71564 301.3125 316.71564Q302.10938 316.71564 302.625 316.1219Q303.14062 315.52814 303.14062 314.3094Q303.14062 313.15314 302.60938 312.5594Q302.09375 311.96564 301.3125 311.96564Q300.53125 311.96564 300.0 312.5594Q299.48438 313.1375 299.48438 314.34064ZM305.78125 317.45L305.78125 311.23126L306.73438 311.23126L306.73438 312.16876Q307.09375 311.5125 307.39062 311.3094Q307.70312 311.09064 308.07812 311.09064Q308.60938 311.09064 309.15625 311.41876L308.79688 312.40314Q308.40625 312.16876 308.03125 312.16876Q307.67188 312.16876 307.39062 312.3875Q307.125 312.59064 307.01562 312.96564Q306.82812 313.52814 306.82812 314.1844L306.82812 317.45L305.78125 317.45ZM312.76562 317.45L312.76562 308.85626L313.82812 308.85626L313.82812 317.45L312.76562 317.45ZM320.04688 315.45L321.14062 315.575Q320.89062 316.52814 320.1875 317.0594Q319.48438 317.59064 318.40625 317.59064Q317.04688 317.59064 316.23438 316.7469Q315.4375 315.90314 315.4375 314.3875Q315.4375 312.825 316.25 311.96564Q317.0625 311.09064 318.34375 311.09064Q319.59375 311.09064 320.375 311.9344Q321.17188 312.77814 321.17188 314.325Q321.17188 314.41876 321.17188 314.60626L316.53125 314.60626Q316.59375 315.6375 317.10938 316.1844Q317.625 316.71564 318.40625 316.71564Q318.98438 316.71564 319.39062 316.41876Q319.8125 316.10626 320.04688 315.45ZM316.59375 313.7469L320.0625 313.7469Q320.0 312.95 319.67188 312.5594Q319.15625 311.95 318.35938 311.95Q317.625 311.95 317.125 312.4344Q316.64062 312.91876 316.59375 313.7469ZM322.375 315.59064L323.40625 315.4344Q323.5 316.0594 323.89062 316.3875Q324.29688 316.71564 325.03125 316.71564Q325.75 316.71564 326.09375 316.4344Q326.45312 316.1375 326.45312 315.73126Q326.45312 315.3719 326.14062 315.16876Q325.92188 315.02814 325.0625 314.8094Q323.90625 314.5125 323.45312 314.3094Q323.01562 314.09064 322.78125 313.71564Q322.54688 313.34064 322.54688 312.8719Q322.54688 312.46564 322.73438 312.10626Q322.92188 311.7469 323.25 311.5125Q323.5 311.34064 323.92188 311.21564Q324.34375 311.09064 324.84375 311.09064Q325.5625 311.09064 326.10938 311.3094Q326.67188 311.5125 326.9375 311.8719Q327.20312 312.23126 327.29688 312.825L326.26562 312.96564Q326.20312 312.4969 325.85938 312.23126Q325.53125 311.95 324.90625 311.95Q324.1875 311.95 323.875 312.2Q323.5625 312.4344 323.5625 312.7625Q323.5625 312.96564 323.6875 313.1219Q323.82812 313.29376 324.09375 313.40314Q324.25 313.46564 325.03125 313.66876Q326.15625 313.98126 326.59375 314.16876Q327.03125 314.35626 327.28125 314.71564Q327.53125 315.075 327.53125 315.6219Q327.53125 316.15314 327.21875 316.6219Q326.92188 317.075 326.34375 317.34064Q325.76562 317.59064 325.03125 317.59064Q323.8125 317.59064 323.17188 317.09064Q322.54688 316.575 322.375 315.59064ZM330.76562 317.45L329.78125 317.45L329.78125 308.85626L330.84375 308.85626L330.84375 311.91876Q331.51562 311.09064 332.54688 311.09064Q333.125 311.09064 333.625 311.325Q334.14062 311.54376 334.46875 311.96564Q334.8125 312.3875 335.0 312.98126Q335.1875 313.575 335.1875 314.2469Q335.1875 315.84064 334.39062 316.71564Q333.59375 317.59064 332.5 317.59064Q331.39062 317.59064 330.76562 316.66876L330.76562 317.45ZM330.75 314.29376Q330.75 315.40314 331.0625 315.90314Q331.5625 316.71564 332.40625 316.71564Q333.09375 316.71564 333.59375 316.1219Q334.10938 315.52814 334.10938 314.325Q334.10938 313.10626 333.625 312.52814Q333.14062 311.95 332.45312 311.95Q331.76562 311.95 331.25 312.5594Q330.75 313.15314 330.75 314.29376ZM336.79688 310.075L336.79688 308.85626L337.85938 308.85626L337.85938 310.075L336.79688 310.075ZM336.79688 317.45L336.79688 311.23126L337.85938 311.23126L337.85938 317.45L336.79688 317.45ZM343.85938 316.6844Q343.26562 317.1844 342.71875 317.3875Q342.1875 317.59064 341.5625 317.59064Q340.53125 317.59064 339.98438 317.09064Q339.4375 316.59064 339.4375 315.8094Q339.4375 315.35626 339.64062 314.98126Q339.84375 314.59064 340.1875 314.3719Q340.53125 314.1375 340.95312 314.02814Q341.25 313.9344 341.89062 313.85626Q343.15625 313.71564 343.76562 313.4969Q343.76562 313.27814 343.76562 313.23126Q343.76562 312.575 343.46875 312.3094Q343.0625 311.96564 342.26562 311.96564Q341.53125 311.96564 341.17188 312.23126Q340.8125 312.48126 340.64062 313.1375L339.60938 312.9969Q339.75 312.34064 340.07812 311.9344Q340.40625 311.52814 341.01562 311.3094Q341.625 311.09064 342.42188 311.09064Q343.21875 311.09064 343.71875 311.27814Q344.21875 311.46564 344.45312 311.7469Q344.6875 312.02814 344.78125 312.46564Q344.82812 312.73126 344.82812 313.4344L344.82812 314.84064Q344.82812 316.3094 344.89062 316.7Q344.96875 317.09064 345.17188 317.45L344.0625 317.45Q343.90625 317.1219 343.85938 316.6844ZM343.76562 314.325Q343.1875 314.5594 342.04688 314.73126Q341.39062 314.825 341.125 314.95Q340.85938 315.0594 340.70312 315.27814Q340.5625 315.4969 340.5625 315.77814Q340.5625 316.2 340.875 316.48126Q341.20312 316.7625 341.8125 316.7625Q342.42188 316.7625 342.89062 316.4969Q343.375 316.23126 343.59375 315.7625Q343.76562 315.40314 343.76562 314.71564L343.76562 314.325ZM346.79688 317.45L346.79688 311.23126L347.73438 311.23126L347.73438 312.10626Q348.42188 311.09064 349.71875 311.09064Q350.28125 311.09064 350.75 311.29376Q351.23438 311.4969 351.46875 311.825Q351.70312 312.15314 351.79688 312.59064Q351.84375 312.8875 351.84375 313.6219L351.84375 317.45L350.79688 317.45L350.79688 313.66876Q350.79688 313.0125 350.67188 312.7Q350.54688 312.3875 350.23438 312.2Q349.92188 311.9969 349.5 311.9969Q348.82812 311.9969 348.32812 312.4344Q347.84375 312.85626 347.84375 314.04376L347.84375 317.45L346.79688 317.45Z" fill-rule="nonzero"/><path fill="#000000" d="M404.1057 316.52814Q404.9026 317.075 405.55884 317.325L405.2307 318.1219Q404.30884 317.77814 403.38696 317.0594Q402.43384 317.59064 401.2776 317.59064Q400.1057 317.59064 399.1526 317.02814Q398.2151 316.46564 397.69946 315.45Q397.18384 314.4344 397.18384 313.15314Q397.18384 311.8875 397.69946 310.84064Q398.2151 309.79376 399.1682 309.2469Q400.12134 308.7 401.2932 308.7Q402.4807 308.7 403.43384 309.27814Q404.4026 309.84064 404.9026 310.85626Q405.4026 311.8719 405.4026 313.15314Q405.4026 314.21564 405.07446 315.0594Q404.76196 315.90314 404.1057 316.52814ZM401.6057 315.075Q402.5901 315.35626 403.2307 315.90314Q404.2307 314.98126 404.2307 313.15314Q404.2307 312.10626 403.87134 311.325Q403.51196 310.54376 402.82446 310.1219Q402.1526 309.6844 401.30884 309.6844Q400.0276 309.6844 399.18384 310.5594Q398.3557 311.41876 398.3557 313.15314Q398.3557 314.825 399.18384 315.73126Q400.01196 316.6219 401.30884 316.6219Q401.9182 316.6219 402.44946 316.3875Q401.9182 316.04376 401.32446 315.90314L401.6057 315.075ZM410.5432 317.45L410.5432 316.52814Q409.80884 317.59064 408.55884 317.59064Q408.01196 317.59064 407.5276 317.3875Q407.05884 317.16876 406.82446 316.85626Q406.5901 316.52814 406.49634 316.0594Q406.43384 315.7625 406.43384 315.075L406.43384 311.23126L407.49634 311.23126L407.49634 314.6844Q407.49634 315.4969 407.55884 315.79376Q407.6526 316.2 407.9651 316.45Q408.2932 316.6844 408.7776 316.6844Q409.24634 316.6844 409.6526 316.45Q410.07446 316.2 410.24634 315.77814Q410.43384 315.35626 410.43384 314.5594L410.43384 311.23126L411.4807 311.23126L411.4807 317.45L410.5432 317.45ZM417.7151 315.45L418.80884 315.575Q418.55884 316.52814 417.8557 317.0594Q417.1526 317.59064 416.07446 317.59064Q414.7151 317.59064 413.9026 316.7469Q413.1057 315.90314 413.1057 314.3875Q413.1057 312.825 413.9182 311.96564Q414.7307 311.09064 416.01196 311.09064Q417.26196 311.09064 418.0432 311.9344Q418.8401 312.77814 418.8401 314.325Q418.8401 314.41876 418.8401 314.60626L414.19946 314.60626Q414.26196 315.6375 414.7776 316.1844Q415.2932 316.71564 416.07446 316.71564Q416.6526 316.71564 417.05884 316.41876Q417.4807 316.10626 417.7151 315.45ZM414.26196 313.7469L417.7307 313.7469Q417.6682 312.95 417.3401 312.5594Q416.82446 311.95 416.0276 311.95Q415.2932 311.95 414.7932 312.4344Q414.30884 312.91876 414.26196 313.7469ZM424.7151 315.45L425.80884 315.575Q425.55884 316.52814 424.8557 317.0594Q424.1526 317.59064 423.07446 317.59064Q421.7151 317.59064 420.9026 316.7469Q420.1057 315.90314 420.1057 314.3875Q420.1057 312.825 420.9182 311.96564Q421.7307 311.09064 423.01196 311.09064Q424.26196 311.09064 425.0432 311.9344Q425.8401 312.77814 425.8401 314.325Q425.8401 314.41876 425.8401 314.60626L421.19946 314.60626Q421.26196 315.6375 421.7776 316.1844Q422.2932 316.71564 423.07446 316.71564Q423.6526 316.71564 424.05884 316.41876Q424.4807 316.10626 424.7151 315.45ZM421.26196 313.7469L424.7307 313.7469Q424.6682 312.95 424.3401 312.5594Q423.82446 311.95 423.0276 311.95Q422.2932 311.95 421.7932 312.4344Q421.30884 312.91876 421.26196 313.7469ZM427.44946 317.45L427.44946 311.23126L428.4026 311.23126L428.4026 312.16876Q428.76196 311.5125 429.05884 311.3094Q429.37134 311.09064 429.74634 311.09064Q430.2776 311.09064 430.82446 311.41876L430.4651 312.40314Q430.07446 312.16876 429.69946 312.16876Q429.3401 312.16876 429.05884 312.3875Q428.7932 312.59064 428.68384 312.96564Q428.49634 313.52814 428.49634 314.1844L428.49634 317.45L427.44946 317.45Z" fill-rule="nonzero"/><path fill="#000000" d="M449.78958 314.075L449.78958 313.075L453.41458 313.0594L453.41458 316.2469Q452.58646 316.91876 451.69583 317.2625Q450.8052 317.59064 449.8677 317.59064Q448.60208 317.59064 447.5552 317.0594Q446.52396 316.5125 445.9927 315.4969Q445.47708 314.46564 445.47708 313.2Q445.47708 311.9344 445.9927 310.85626Q446.52396 309.7625 447.50833 309.2469Q448.4927 308.71564 449.77396 308.71564Q450.71146 308.71564 451.46146 309.0125Q452.21146 309.3094 452.63333 309.85626Q453.07083 310.3875 453.28958 311.2625L452.27396 311.54376Q452.07083 310.8875 451.77396 310.5125Q451.4927 310.1375 450.96146 309.91876Q450.4302 309.6844 449.78958 309.6844Q449.00833 309.6844 448.4302 309.91876Q447.8677 310.15314 447.50833 310.54376Q447.16458 310.9344 446.97708 311.40314Q446.64896 312.2 446.64896 313.1219Q446.64896 314.27814 447.03958 315.0594Q447.44583 315.825 448.19583 316.2Q448.94583 316.575 449.8052 316.575Q450.53958 316.575 451.2427 316.29376Q451.94583 315.9969 452.3052 315.6844L452.3052 314.075L449.78958 314.075ZM458.69583 316.6844Q458.10208 317.1844 457.5552 317.3875Q457.02396 317.59064 456.39896 317.59064Q455.3677 317.59064 454.82083 317.09064Q454.27396 316.59064 454.27396 315.8094Q454.27396 315.35626 454.47708 314.98126Q454.6802 314.59064 455.02396 314.3719Q455.3677 314.1375 455.78958 314.02814Q456.08646 313.9344 456.72708 313.85626Q457.9927 313.71564 458.60208 313.4969Q458.60208 313.27814 458.60208 313.23126Q458.60208 312.575 458.3052 312.3094Q457.89896 311.96564 457.10208 311.96564Q456.3677 311.96564 456.00833 312.23126Q455.64896 312.48126 455.47708 313.1375L454.44583 312.9969Q454.58646 312.34064 454.91458 311.9344Q455.2427 311.52814 455.85208 311.3094Q456.46146 311.09064 457.25833 311.09064Q458.0552 311.09064 458.5552 311.27814Q459.0552 311.46564 459.28958 311.7469Q459.52396 312.02814 459.6177 312.46564Q459.66458 312.73126 459.66458 313.4344L459.66458 314.84064Q459.66458 316.3094 459.72708 316.7Q459.8052 317.09064 460.00833 317.45L458.89896 317.45Q458.7427 317.1219 458.69583 316.6844ZM458.60208 314.325Q458.02396 314.5594 456.88333 314.73126Q456.22708 314.825 455.96146 314.95Q455.69583 315.0594 455.53958 315.27814Q455.39896 315.4969 455.39896 315.77814Q455.39896 316.2 455.71146 316.48126Q456.03958 316.7625 456.64896 316.7625Q457.25833 316.7625 457.72708 316.4969Q458.21146 316.23126 458.4302 315.7625Q458.60208 315.40314 458.60208 314.71564L458.60208 314.325ZM461.58646 319.84064L461.46146 318.85626Q461.8052 318.95 462.07083 318.95Q462.41458 318.95 462.6177 318.825Q462.83646 318.71564 462.97708 318.5125Q463.07083 318.34064 463.3052 317.71564Q463.32083 317.6375 463.39896 317.46564L461.02396 311.23126L462.16458 311.23126L463.46146 314.825Q463.71146 315.5125 463.91458 316.27814Q464.10208 315.54376 464.35208 314.85626L465.6802 311.23126L466.72708 311.23126L464.3677 317.5594Q463.97708 318.575 463.77396 318.96564Q463.4927 319.4969 463.1177 319.73126Q462.75833 319.98126 462.25833 319.98126Q461.96146 319.98126 461.58646 319.84064ZM469.2427 314.34064Q469.2427 312.60626 470.19583 311.77814Q470.9927 311.09064 472.14896 311.09064Q473.4302 311.09064 474.2427 311.9344Q475.07083 312.7625 475.07083 314.2469Q475.07083 315.45 474.71146 316.1375Q474.35208 316.825 473.64896 317.21564Q472.96146 317.59064 472.14896 317.59064Q470.85208 317.59064 470.03958 316.7625Q469.2427 315.91876 469.2427 314.34064ZM470.32083 314.34064Q470.32083 315.52814 470.83646 316.1219Q471.3677 316.71564 472.14896 316.71564Q472.94583 316.71564 473.46146 316.1219Q473.97708 315.52814 473.97708 314.3094Q473.97708 313.15314 473.44583 312.5594Q472.9302 311.96564 472.14896 311.96564Q471.3677 311.96564 470.83646 312.5594Q470.32083 313.1375 470.32083 314.34064ZM476.6177 317.45L476.6177 311.23126L477.57083 311.23126L477.57083 312.16876Q477.9302 311.5125 478.22708 311.3094Q478.53958 311.09064 478.91458 311.09064Q479.44583 311.09064 479.9927 311.41876L479.63333 312.40314Q479.2427 312.16876 478.8677 312.16876Q478.50833 312.16876 478.22708 312.3875Q477.96146 312.59064 477.85208 312.96564Q477.66458 313.52814 477.66458 314.1844L477.66458 317.45L476.6177 317.45ZM483.60208 317.45L483.60208 308.85626L484.66458 308.85626L484.66458 317.45L483.60208 317.45ZM490.88333 315.45L491.97708 315.575Q491.72708 316.52814 491.02396 317.0594Q490.32083 317.59064 489.2427 317.59064Q487.88333 317.59064 487.07083 316.7469Q486.27396 315.90314 486.27396 314.3875Q486.27396 312.825 487.08646 311.96564Q487.89896 311.09064 489.1802 311.09064Q490.4302 311.09064 491.21146 311.9344Q492.00833 312.77814 492.00833 314.325Q492.00833 314.41876 492.00833 314.60626L487.3677 314.60626Q487.4302 315.6375 487.94583 316.1844Q488.46146 316.71564 489.2427 316.71564Q489.82083 316.71564 490.22708 316.41876Q490.64896 316.10626 490.88333 315.45ZM487.4302 313.7469L490.89896 313.7469Q490.83646 312.95 490.50833 312.5594Q489.9927 311.95 489.19583 311.95Q488.46146 311.95 487.96146 312.4344Q487.47708 312.91876 487.4302 313.7469ZM493.21146 315.59064L494.2427 315.4344Q494.33646 316.0594 494.72708 316.3875Q495.13333 316.71564 495.8677 316.71564Q496.58646 316.71564 496.9302 316.4344Q497.28958 316.1375 497.28958 315.73126Q497.28958 315.3719 496.97708 315.16876Q496.75833 315.02814 495.89896 314.8094Q494.7427 314.5125 494.28958 314.3094Q493.85208 314.09064 493.6177 313.71564Q493.38333 313.34064 493.38333 312.8719Q493.38333 312.46564 493.57083 312.10626Q493.75833 311.7469 494.08646 311.5125Q494.33646 311.34064 494.75833 311.21564Q495.1802 311.09064 495.6802 311.09064Q496.39896 311.09064 496.94583 311.3094Q497.50833 311.5125 497.77396 311.8719Q498.03958 312.23126 498.13333 312.825L497.10208 312.96564Q497.03958 312.4969 496.69583 312.23126Q496.3677 311.95 495.7427 311.95Q495.02396 311.95 494.71146 312.2Q494.39896 312.4344 494.39896 312.7625Q494.39896 312.96564 494.52396 313.1219Q494.66458 313.29376 494.9302 313.40314Q495.08646 313.46564 495.8677 313.66876Q496.9927 313.98126 497.4302 314.16876Q497.8677 314.35626 498.1177 314.71564Q498.3677 315.075 498.3677 315.6219Q498.3677 316.15314 498.0552 316.6219Q497.75833 317.075 497.1802 317.34064Q496.60208 317.59064 495.8677 317.59064Q494.64896 317.59064 494.00833 317.09064Q493.38333 316.575 493.21146 315.59064ZM501.60208 317.45L500.6177 317.45L500.6177 308.85626L501.6802 308.85626L501.6802 311.91876Q502.35208 311.09064 503.38333 311.09064Q503.96146 311.09064 504.46146 311.325Q504.97708 311.54376 505.3052 311.96564Q505.64896 312.3875 505.83646 312.98126Q506.02396 313.575 506.02396 314.2469Q506.02396 315.84064 505.22708 316.71564Q504.4302 317.59064 503.33646 317.59064Q502.22708 317.59064 501.60208 316.66876L501.60208 317.45ZM501.58646 314.29376Q501.58646 315.40314 501.89896 315.90314Q502.39896 316.71564 503.2427 316.71564Q503.9302 316.71564 504.4302 316.1219Q504.94583 315.52814 504.94583 314.325Q504.94583 313.10626 504.46146 312.52814Q503.97708 311.95 503.28958 311.95Q502.60208 311.95 502.08646 312.5594Q501.58646 313.15314 501.58646 314.29376ZM507.63333 310.075L507.63333 308.85626L508.69583 308.85626L508.69583 310.075L507.63333 310.075ZM507.63333 317.45L507.63333 311.23126L508.69583 311.23126L508.69583 317.45L507.63333 317.45ZM514.6958 316.6844Q514.10205 317.1844 513.5552 317.3875Q513.0239 317.59064 512.3989 317.59064Q511.3677 317.59064 510.82083 317.09064Q510.27396 316.59064 510.27396 315.8094Q510.27396 315.35626 510.47708 314.98126Q510.6802 314.59064 511.02396 314.3719Q511.3677 314.1375 511.78958 314.02814Q512.0864 313.9344 512.72705 313.85626Q513.9927 313.71564 514.60205 313.4969Q514.60205 313.27814 514.60205 313.23126Q514.60205 312.575 514.3052 312.3094Q513.8989 311.96564 513.10205 311.96564Q512.3677 311.96564 512.0083 312.23126Q511.64896 312.48126 511.47708 313.1375L510.44583 312.9969Q510.58646 312.34064 510.91458 311.9344Q511.2427 311.52814 511.85208 311.3094Q512.4614 311.09064 513.2583 311.09064Q514.0552 311.09064 514.5552 311.27814Q515.0552 311.46564 515.28955 311.7469Q515.5239 312.02814 515.6177 312.46564Q515.66455 312.73126 515.66455 313.4344L515.66455 314.84064Q515.66455 316.3094 515.72705 316.7Q515.8052 317.09064 516.0083 317.45L514.8989 317.45Q514.7427 317.1219 514.6958 316.6844ZM514.60205 314.325Q514.0239 314.5594 512.8833 314.73126Q512.22705 314.825 511.96146 314.95Q511.69583 315.0594 511.53958 315.27814Q511.39896 315.4969 511.39896 315.77814Q511.39896 316.2 511.71146 316.48126Q512.03955 316.7625 512.6489 316.7625Q513.2583 316.7625 513.72705 316.4969Q514.2114 316.23126 514.4302 315.7625Q514.60205 315.40314 514.60205 314.71564L514.60205 314.325ZM517.6333 317.45L517.6333 311.23126L518.5708 311.23126L518.5708 312.10626Q519.2583 311.09064 520.5552 311.09064Q521.1177 311.09064 521.5864 311.29376Q522.0708 311.4969 522.3052 311.825Q522.53955 312.15314 522.6333 312.59064Q522.6802 312.8875 522.6802 313.6219L522.6802 317.45L521.6333 317.45L521.6333 313.66876Q521.6333 313.0125 521.5083 312.7Q521.3833 312.3875 521.0708 312.2Q520.7583 311.9969 520.3364 311.9969Q519.66455 311.9969 519.16455 312.4344Q518.6802 312.85626 518.6802 314.04376L518.6802 317.45L517.6333 317.45ZM529.8364 316.0594L529.8364 313.7L527.5083 313.7L527.5083 312.71564L529.8364 312.71564L529.8364 310.3875L530.8364 310.3875L530.8364 312.71564L533.1802 312.71564L533.1802 313.7L530.8364 313.7L530.8364 316.0594L529.8364 316.0594ZM538.60205 317.45L537.6177 317.45L537.6177 308.85626L538.6802 308.85626L538.6802 311.91876Q539.35205 311.09064 540.3833 311.09064Q540.9614 311.09064 541.4614 311.325Q541.97705 311.54376 542.3052 311.96564Q542.6489 312.3875 542.8364 312.98126Q543.0239 313.575 543.0239 314.2469Q543.0239 315.84064 542.22705 316.71564Q541.4302 317.59064 540.3364 317.59064Q539.22705 317.59064 538.60205 316.66876L538.60205 317.45ZM538.5864 314.29376Q538.5864 315.40314 538.8989 315.90314Q539.3989 316.71564 540.2427 316.71564Q540.9302 316.71564 541.4302 316.1219Q541.9458 315.52814 541.9458 314.325Q541.9458 313.10626 541.4614 312.52814Q540.97705 311.95 540.28955 311.95Q539.60205 311.95 539.0864 312.5594Q538.5864 313.15314 538.5864 314.29376ZM544.6333 310.075L544.6333 308.85626L545.6958 308.85626L545.6958 310.075L544.6333 310.075ZM544.6333 317.45L544.6333 311.23126L545.6958 311.23126L545.6958 317.45L544.6333 317.45ZM547.2114 315.59064L548.2427 315.4344Q548.3364 316.0594 548.72705 316.3875Q549.1333 316.71564 549.8677 316.71564Q550.5864 316.71564 550.9302 316.4344Q551.28955 316.1375 551.28955 315.73126Q551.28955 315.3719 550.97705 315.16876Q550.7583 315.02814 549.8989 314.8094Q548.7427 314.5125 548.28955 314.3094Q547.85205 314.09064 547.6177 313.71564Q547.3833 313.34064 547.3833 312.8719Q547.3833 312.46564 547.5708 312.10626Q547.7583 311.7469 548.0864 311.5125Q548.3364 311.34064 548.7583 311.21564Q549.1802 311.09064 549.6802 311.09064Q550.3989 311.09064 550.9458 311.3094Q551.5083 311.5125 551.7739 311.8719Q552.03955 312.23126 552.1333 312.825L551.10205 312.96564Q551.03955 312.4969 550.6958 312.23126Q550.3677 311.95 549.7427 311.95Q549.0239 311.95 548.7114 312.2Q548.3989 312.4344 548.3989 312.7625Q548.3989 312.96564 548.5239 313.1219Q548.66455 313.29376 548.9302 313.40314Q549.0864 313.46564 549.8677 313.66876Q550.9927 313.98126 551.4302 314.16876Q551.8677 314.35626 552.1177 314.71564Q552.3677 315.075 552.3677 315.6219Q552.3677 316.15314 552.0552 316.6219Q551.7583 317.075 551.1802 317.34064Q550.60205 317.59064 549.8677 317.59064Q548.6489 317.59064 548.0083 317.09064Q547.3833 316.575 547.2114 315.59064ZM558.8833 315.45L559.97705 315.575Q559.72705 316.52814 559.0239 317.0594Q558.3208 317.59064 557.2427 317.59064Q555.8833 317.59064 555.0708 316.7469Q554.2739 315.90314 554.2739 314.3875Q554.2739 312.825 555.0864 311.96564Q555.8989 311.09064 557.1802 311.09064Q558.4302 311.09064 559.2114 311.9344Q560.0083 312.77814 560.0083 314.325Q560.0083 314.41876 560.0083 314.60626L555.3677 314.60626Q555.4302 315.6375 555.9458 316.1844Q556.4614 316.71564 557.2427 316.71564Q557.8208 316.71564 558.22705 316.41876Q558.6489 316.10626 558.8833 315.45ZM555.4302 313.7469L558.8989 313.7469Q558.8364 312.95 558.5083 312.5594Q557.9927 311.95 557.1958 311.95Q556.4614 311.95 555.9614 312.4344Q555.47705 312.91876 555.4302 313.7469ZM560.9302 317.45L563.1958 314.21564L561.10205 311.23126L562.41455 311.23126L563.3677 312.6844Q563.6333 313.10626 563.8052 313.3875Q564.0552 312.9969 564.2739 312.7L565.3208 311.23126L566.5864 311.23126L564.4302 314.15314L566.7427 317.45L565.4614 317.45L564.1802 315.5125L563.8364 314.9969L562.1958 317.45L560.9302 317.45ZM570.7114 317.45L570.7114 316.52814Q569.97705 317.59064 568.72705 317.59064Q568.1802 317.59064 567.6958 317.3875Q567.22705 317.16876 566.9927 316.85626Q566.7583 316.52814 566.66455 316.0594Q566.60205 315.7625 566.60205 315.075L566.60205 311.23126L567.66455 311.23126L567.66455 314.6844Q567.66455 315.4969 567.72705 315.79376Q567.8208 316.2 568.1333 316.45Q568.4614 316.6844 568.9458 316.6844Q569.41455 316.6844 569.8208 316.45Q570.2427 316.2 570.41455 315.77814Q570.60205 315.35626 570.60205 314.5594L570.60205 311.23126L571.6489 311.23126L571.6489 317.45L570.7114 317.45ZM577.6958 316.6844Q577.10205 317.1844 576.5552 317.3875Q576.0239 317.59064 575.3989 317.59064Q574.3677 317.59064 573.8208 317.09064Q573.2739 316.59064 573.2739 315.8094Q573.2739 315.35626 573.47705 314.98126Q573.6802 314.59064 574.0239 314.3719Q574.3677 314.1375 574.78955 314.02814Q575.0864 313.9344 575.72705 313.85626Q576.9927 313.71564 577.60205 313.4969Q577.60205 313.27814 577.60205 313.23126Q577.60205 312.575 577.3052 312.3094Q576.8989 311.96564 576.10205 311.96564Q575.3677 311.96564 575.0083 312.23126Q574.6489 312.48126 574.47705 313.1375L573.4458 312.9969Q573.5864 312.34064 573.91455 311.9344Q574.2427 311.52814 574.85205 311.3094Q575.4614 311.09064 576.2583 311.09064Q577.0552 311.09064 577.5552 311.27814Q578.0552 311.46564 578.28955 311.7469Q578.5239 312.02814 578.6177 312.46564Q578.66455 312.73126 578.66455 313.4344L578.66455 314.84064Q578.66455 316.3094 578.72705 316.7Q578.8052 317.09064 579.0083 317.45L577.8989 317.45Q577.7427 317.1219 577.6958 316.6844ZM577.60205 314.325Q577.0239 314.5594 575.8833 314.73126Q575.22705 314.825 574.9614 314.95Q574.6958 315.0594 574.53955 315.27814Q574.3989 315.4969 574.3989 315.77814Q574.3989 316.2 574.7114 316.48126Q575.03955 316.7625 575.6489 316.7625Q576.2583 316.7625 576.72705 316.4969Q577.2114 316.23126 577.4302 315.7625Q577.60205 315.40314 577.60205 314.71564L577.60205 314.325ZM580.60205 317.45L580.60205 308.85626L581.66455 308.85626L581.66455 317.45L580.60205 317.45Z" fill-rule="nonzero"/><path fill="#757575" d="M20.096874 36.55L20.096874 22.2375L25.01875 22.2375Q26.690624 22.2375 27.58125 22.440624Q28.8 22.721874 29.675 23.45625Q30.8 24.425 31.3625 25.909374Q31.925 27.39375 31.925 29.315624Q31.925 30.940624 31.55 32.20625Q31.175 33.45625 30.565624 34.284374Q29.971874 35.1125 29.26875 35.596874Q28.565624 36.065624 27.565624 36.315624Q26.565624 36.55 25.253124 36.55L20.096874 36.55ZM21.9875 34.8625L25.05 34.8625Q26.45625 34.8625 27.253124 34.596874Q28.065624 34.33125 28.55 33.846874Q29.221874 33.175 29.596874 32.05Q29.971874 30.909374 29.971874 29.284374Q29.971874 27.034374 29.2375 25.83125Q28.503124 24.628124 27.440624 24.221874Q26.690624 23.925 25.003124 23.925L21.9875 23.925L21.9875 34.8625ZM33.221874 31.3625Q33.221874 28.4875 34.815624 27.096874Q36.159374 25.940624 38.08125 25.940624Q40.221874 25.940624 41.565624 27.346874Q42.925 28.753124 42.925 31.221874Q42.925 33.221874 42.33125 34.378124Q41.7375 35.51875 40.58125 36.159374Q39.440624 36.784374 38.08125 36.784374Q35.89375 36.784374 34.55 35.39375Q33.221874 33.9875 33.221874 31.3625ZM35.01875 31.3625Q35.01875 33.3625 35.878124 34.346874Q36.753124 35.33125 38.08125 35.33125Q39.39375 35.33125 40.253124 34.346874Q41.128124 33.346874 41.128124 31.3Q41.128124 29.378124 40.253124 28.39375Q39.378124 27.39375 38.08125 27.39375Q36.753124 27.39375 35.878124 28.39375Q35.01875 29.378124 35.01875 31.3625ZM50.784374 40.55L50.596874 38.89375Q51.175 39.05 51.596874 39.05Q52.190624 39.05 52.534374 38.846874Q52.89375 38.659374 53.1125 38.315624Q53.284374 38.05 53.659374 37.003124Q53.70625 36.846874 53.815624 36.565624L49.878124 26.175L51.76875 26.175L53.925 32.190624Q54.346874 33.33125 54.675 34.58125Q54.9875 33.378124 55.39375 32.221874L57.6125 26.175L59.378124 26.175L55.425 36.721874Q54.8 38.440624 54.440624 39.08125Q53.971874 39.95625 53.3625 40.346874Q52.76875 40.753124 51.925 40.753124Q51.409374 40.753124 50.784374 40.55ZM60.221874 31.3625Q60.221874 28.4875 61.815624 27.096874Q63.159374 25.940624 65.08125 25.940624Q67.22188 25.940624 68.56563 27.346874Q69.925 28.753124 69.925 31.221874Q69.925 33.221874 69.33125 34.378124Q68.7375 35.51875 67.58125 36.159374Q66.44063 36.784374 65.08125 36.784374Q62.89375 36.784374 61.55 35.39375Q60.221874 33.9875 60.221874 31.3625ZM62.01875 31.3625Q62.01875 33.3625 62.878124 34.346874Q63.753124 35.33125 65.08125 35.33125Q66.39375 35.33125 67.25313 34.346874Q68.12813 33.346874 68.12813 31.3Q68.12813 29.378124 67.25313 28.39375Q66.37813 27.39375 65.08125 27.39375Q63.753124 27.39375 62.878124 28.39375Q62.01875 29.378124 62.01875 31.3625ZM78.65938 36.55L78.65938 35.01875Q77.45625 36.784374 75.37813 36.784374Q74.45625 36.784374 73.65938 36.440624Q72.8625 36.08125 72.47188 35.55Q72.09688 35.01875 71.94063 34.2375Q71.83125 33.721874 71.83125 32.596874L71.83125 26.175L73.58125 26.175L73.58125 31.925Q73.58125 33.3 73.69063 33.784374Q73.8625 34.471874 74.39375 34.878124Q74.94063 35.26875 75.72188 35.26875Q76.51875 35.26875 77.20625 34.8625Q77.90938 34.45625 78.19063 33.76875Q78.4875 33.065624 78.4875 31.7375L78.4875 26.175L80.2375 26.175L80.2375 36.55L78.65938 36.55ZM94.64375 32.753124L96.3625 32.971874Q96.08125 34.76875 94.90938 35.784374Q93.75313 36.784374 92.05 36.784374Q89.925 36.784374 88.62813 35.39375Q87.33125 34.003124 87.33125 31.409374Q87.33125 29.721874 87.87813 28.471874Q88.44063 27.20625 89.58125 26.58125Q90.72188 25.940624 92.06563 25.940624Q93.75313 25.940624 94.81563 26.8Q95.89375 27.659374 96.20625 29.221874L94.4875 29.4875Q94.25313 28.440624 93.62813 27.925Q93.00313 27.39375 92.12813 27.39375Q90.8 27.39375 89.97188 28.346874Q89.14375 29.3 89.14375 31.346874Q89.14375 33.440624 89.94063 34.39375Q90.7375 35.33125 92.03438 35.33125Q93.06563 35.33125 93.75313 34.70625Q94.45625 34.065624 94.64375 32.753124ZM97.22188 31.3625Q97.22188 28.4875 98.81563 27.096874Q100.15938 25.940624 102.08125 25.940624Q104.22188 25.940624 105.56563 27.346874Q106.925 28.753124 106.925 31.221874Q106.925 33.221874 106.33125 34.378124Q105.7375 35.51875 104.58125 36.159374Q103.44063 36.784374 102.08125 36.784374Q99.89375 36.784374 98.55 35.39375Q97.22188 33.9875 97.22188 31.3625ZM99.01875 31.3625Q99.01875 33.3625 99.87813 34.346874Q100.75313 35.33125 102.08125 35.33125Q103.39375 35.33125 104.25313 34.346874Q105.12813 33.346874 105.12813 31.3Q105.12813 29.378124 104.25313 28.39375Q103.37813 27.39375 102.08125 27.39375Q100.75313 27.39375 99.87813 28.39375Q99.01875 29.378124 99.01875 31.3625ZM108.8625 36.55L108.8625 26.175L110.45625 26.175L110.45625 27.659374Q111.59688 25.940624 113.75313 25.940624Q114.69063 25.940624 115.47188 26.284374Q116.26875 26.6125 116.65938 27.159374Q117.05 27.70625 117.20625 28.45625Q117.3 28.95625 117.3 30.175L117.3 36.55L115.53438 36.55L115.53438 30.2375Q115.53438 29.159374 115.33125 28.628124Q115.12813 28.096874 114.59688 27.784374Q114.08125 27.471874 113.37813 27.471874Q112.25313 27.471874 111.44063 28.190624Q110.62813 28.89375 110.62813 30.878124L110.62813 36.55L108.8625 36.55ZM118.15938 33.45625L119.90938 33.175Q120.05 34.221874 120.72188 34.784374Q121.39375 35.33125 122.59688 35.33125Q123.8 35.33125 124.37813 34.846874Q124.97188 34.346874 124.97188 33.690624Q124.97188 33.096874 124.45625 32.753124Q124.09688 32.51875 122.65938 32.159374Q120.72188 31.659374 119.97188 31.315624Q119.2375 30.95625 118.84688 30.33125Q118.45625 29.690624 118.45625 28.925Q118.45625 28.2375 118.76875 27.64375Q119.09688 27.05 119.64375 26.659374Q120.05 26.3625 120.75313 26.159374Q121.47188 25.940624 122.28438 25.940624Q123.50313 25.940624 124.425 26.3Q125.34688 26.64375 125.78438 27.253124Q126.22188 27.846874 126.39375 28.846874L124.675 29.08125Q124.55 28.284374 123.9875 27.846874Q123.425 27.39375 122.40938 27.39375Q121.19063 27.39375 120.675 27.8Q120.15938 28.190624 120.15938 28.721874Q120.15938 29.065624 120.37813 29.346874Q120.58125 29.628124 121.05 29.815624Q121.31563 29.909374 122.59688 30.253124Q124.47188 30.753124 125.20625 31.08125Q125.94063 31.39375 126.3625 32.003124Q126.78438 32.596874 126.78438 33.503124Q126.78438 34.378124 126.26875 35.159374Q125.75313 35.940624 124.78438 36.3625Q123.81563 36.784374 122.59688 36.784374Q120.58125 36.784374 119.51875 35.940624Q118.45625 35.096874 118.15938 33.45625ZM128.87813 24.253124L128.87813 22.2375L130.64375 22.2375L130.64375 24.253124L128.87813 24.253124ZM128.87813 36.55L128.87813 26.175L130.64375 26.175L130.64375 36.55L128.87813 36.55ZM139.59688 36.55L139.59688 35.2375Q138.6125 36.784374 136.69063 36.784374Q135.45625 36.784374 134.40938 36.096874Q133.37813 35.409374 132.8 34.190624Q132.2375 32.971874 132.2375 31.378124Q132.2375 29.815624 132.75313 28.55Q133.26875 27.284374 134.3 26.6125Q135.34688 25.940624 136.6125 25.940624Q137.55 25.940624 138.28438 26.346874Q139.01875 26.7375 139.4875 27.3625L139.4875 22.2375L141.22188 22.2375L141.22188 36.55L139.59688 36.55ZM134.03438 31.378124Q134.03438 33.3625 134.87813 34.346874Q135.72188 35.33125 136.8625 35.33125Q138.01875 35.33125 138.81563 34.39375Q139.62813 33.45625 139.62813 31.51875Q139.62813 29.39375 138.8 28.39375Q137.9875 27.39375 136.78438 27.39375Q135.6125 27.39375 134.81563 28.3625Q134.03438 29.315624 134.03438 31.378124ZM150.97188 33.20625L152.78438 33.440624Q152.3625 35.01875 151.19063 35.909374Q150.03438 36.784374 148.22188 36.784374Q145.95625 36.784374 144.6125 35.39375Q143.28438 33.9875 143.28438 31.45625Q143.28438 28.83125 144.62813 27.39375Q145.97188 25.940624 148.12813 25.940624Q150.20625 25.940624 151.51875 27.3625Q152.84688 28.76875 152.84688 31.346874Q152.84688 31.503124 152.83125 31.815624L145.09688 31.815624Q145.19063 33.51875 146.06563 34.425Q146.94063 35.33125 148.2375 35.33125Q149.20625 35.33125 149.87813 34.83125Q150.56563 34.315624 150.97188 33.20625ZM145.19063 30.3625L150.9875 30.3625Q150.87813 29.065624 150.33125 28.409374Q149.4875 27.39375 148.14375 27.39375Q146.94063 27.39375 146.1125 28.20625Q145.28438 29.003124 145.19063 30.3625ZM154.84688 36.55L154.84688 26.175L156.425 26.175L156.425 27.753124Q157.03438 26.64375 157.55 26.3Q158.06563 25.940624 158.675 25.940624Q159.56563 25.940624 160.4875 26.503124L159.87813 28.14375Q159.2375 27.753124 158.59688 27.753124Q158.01875 27.753124 157.55 28.1125Q157.09688 28.45625 156.89375 29.065624Q156.6125 30.003124 156.6125 31.1125L156.6125 36.55L154.84688 36.55ZM167.78438 40.55L167.59688 38.89375Q168.175 39.05 168.59688 39.05Q169.19063 39.05 169.53438 38.846874Q169.89375 38.659374 170.1125 38.315624Q170.28438 38.05 170.65938 37.003124Q170.70625 36.846874 170.81563 36.565624L166.87813 26.175L168.76875 26.175L170.925 32.190624Q171.34688 33.33125 171.675 34.58125Q171.9875 33.378124 172.39375 32.221874L174.6125 26.175L176.37813 26.175L172.425 36.721874Q171.8 38.440624 171.44063 39.08125Q170.97188 39.95625 170.3625 40.346874Q169.76875 40.753124 168.925 40.753124Q168.40938 40.753124 167.78438 40.55ZM177.22188 31.3625Q177.22188 28.4875 178.81563 27.096874Q180.15938 25.940624 182.08125 25.940624Q184.22188 25.940624 185.56563 27.346874Q186.925 28.753124 186.925 31.221874Q186.925 33.221874 186.33125 34.378124Q185.7375 35.51875 184.58125 36.159374Q183.44063 36.784374 182.08125 36.784374Q179.89375 36.784374 178.55 35.39375Q177.22188 33.9875 177.22188 31.3625ZM179.01875 31.3625Q179.01875 33.3625 179.87813 34.346874Q180.75313 35.33125 182.08125 35.33125Q183.39375 35.33125 184.25313 34.346874Q185.12813 33.346874 185.12813 31.3Q185.12813 29.378124 184.25313 28.39375Q183.37813 27.39375 182.08125 27.39375Q180.75313 27.39375 179.87813 28.39375Q179.01875 29.378124 179.01875 31.3625ZM195.65938 36.55L195.65938 35.01875Q194.45625 36.784374 192.37813 36.784374Q191.45625 36.784374 190.65938 36.440624Q189.8625 36.08125 189.47188 35.55Q189.09688 35.01875 188.94063 34.2375Q188.83125 33.721874 188.83125 32.596874L188.83125 26.175L190.58125 26.175L190.58125 31.925Q190.58125 33.3 190.69063 33.784374Q190.8625 34.471874 191.39375 34.878124Q191.94063 35.26875 192.72188 35.26875Q193.51875 35.26875 194.20625 34.8625Q194.90938 34.45625 195.19063 33.76875Q195.4875 33.065624 195.4875 31.7375L195.4875 26.175L197.2375 26.175L197.2375 36.55L195.65938 36.55ZM198.84688 36.55L198.84688 26.175L200.425 26.175L200.425 27.753124Q201.03438 26.64375 201.55 26.3Q202.06563 25.940624 202.675 25.940624Q203.56563 25.940624 204.4875 26.503124L203.87813 28.14375Q203.2375 27.753124 202.59688 27.753124Q202.01875 27.753124 201.55 28.1125Q201.09688 28.45625 200.89375 29.065624Q200.6125 30.003124 200.6125 31.1125L200.6125 36.55L198.84688 36.55ZM205.15938 33.45625L206.90938 33.175Q207.05 34.221874 207.72188 34.784374Q208.39375 35.33125 209.59688 35.33125Q210.8 35.33125 211.37813 34.846874Q211.97188 34.346874 211.97188 33.690624Q211.97188 33.096874 211.45625 32.753124Q211.09688 32.51875 209.65938 32.159374Q207.72188 31.659374 206.97188 31.315624Q206.2375 30.95625 205.84688 30.33125Q205.45625 29.690624 205.45625 28.925Q205.45625 28.2375 205.76875 27.64375Q206.09688 27.05 206.64375 26.659374Q207.05 26.3625 207.75313 26.159374Q208.47188 25.940624 209.28438 25.940624Q210.50313 25.940624 211.425 26.3Q212.34688 26.64375 212.78438 27.253124Q213.22188 27.846874 213.39375 28.846874L211.675 29.08125Q211.55 28.284374 210.9875 27.846874Q210.425 27.39375 209.40938 27.39375Q208.19063 27.39375 207.675 27.8Q207.15938 28.190624 207.15938 28.721874Q207.15938 29.065624 207.37813 29.346874Q207.58125 29.628124 208.05 29.815624Q208.31563 29.909374 209.59688 30.253124Q211.47188 30.753124 212.20625 31.08125Q212.94063 31.39375 213.3625 32.003124Q213.78438 32.596874 213.78438 33.503124Q213.78438 34.378124 213.26875 35.159374Q212.75313 35.940624 211.78438 36.3625Q210.81563 36.784374 209.59688 36.784374Q207.58125 36.784374 206.51875 35.940624Q205.45625 35.096874 205.15938 33.45625ZM222.97188 33.20625L224.78438 33.440624Q224.3625 35.01875 223.19063 35.909374Q222.03438 36.784374 220.22188 36.784374Q217.95625 36.784374 216.6125 35.39375Q215.28438 33.9875 215.28438 31.45625Q215.28438 28.83125 216.62813 27.39375Q217.97188 25.940624 220.12813 25.940624Q222.20625 25.940624 223.51875 27.3625Q224.84688 28.76875 224.84688 31.346874Q224.84688 31.503124 224.83125 31.815624L217.09688 31.815624Q217.19063 33.51875 218.06563 34.425Q218.94063 35.33125 220.2375 35.33125Q221.20625 35.33125 221.87813 34.83125Q222.56563 34.315624 222.97188 33.20625ZM217.19063 30.3625L222.9875 30.3625Q222.87813 29.065624 222.33125 28.409374Q221.4875 27.39375 220.14375 27.39375Q218.94063 27.39375 218.1125 28.20625Q217.28438 29.003124 217.19063 30.3625ZM226.83125 36.55L226.83125 22.2375L228.58125 22.2375L228.58125 36.55L226.83125 36.55ZM231.28438 36.55L231.28438 27.55L229.7375 27.55L229.7375 26.175L231.28438 26.175L231.28438 25.08125Q231.28438 24.034374 231.47188 23.51875Q231.72188 22.83125 232.3625 22.409374Q233.00313 21.9875 234.15938 21.9875Q234.90938 21.9875 235.8 22.159374L235.53438 23.690624Q234.9875 23.596874 234.50313 23.596874Q233.70625 23.596874 233.3625 23.940624Q233.03438 24.284374 233.03438 25.221874L233.03438 26.175L235.06563 26.175L235.06563 27.55L233.03438 27.55L233.03438 36.55L231.28438 36.55ZM246.70625 34.971874L246.95625 36.534374Q246.22188 36.690624 245.62813 36.690624Q244.675 36.690624 244.14375 36.39375Q243.62813 36.08125 243.40938 35.596874Q243.19063 35.096874 243.19063 33.51875L243.19063 27.55L241.90938 27.55L241.90938 26.175L243.19063 26.175L243.19063 23.6125L244.94063 22.55L244.94063 26.175L246.70625 26.175L246.70625 27.55L244.94063 27.55L244.94063 33.6125Q244.94063 34.3625 245.03438 34.58125Q245.12813 34.784374 245.33125 34.925Q245.55 35.05 245.94063 35.05Q246.22188 35.05 246.70625 34.971874ZM248.22188 31.3625Q248.22188 28.4875 249.81563 27.096874Q251.15938 25.940624 253.08125 25.940624Q255.22188 25.940624 256.5656 27.346874Q257.925 28.753124 257.925 31.221874Q257.925 33.221874 257.33124 34.378124Q256.7375 35.51875 255.58125 36.159374Q254.44063 36.784374 253.08125 36.784374Q250.89375 36.784374 249.55 35.39375Q248.22188 33.9875 248.22188 31.3625ZM250.01875 31.3625Q250.01875 33.3625 250.87813 34.346874Q251.75313 35.33125 253.08125 35.33125Q254.39375 35.33125 255.25313 34.346874Q256.1281 33.346874 256.1281 31.3Q256.1281 29.378124 255.25313 28.39375Q254.37813 27.39375 253.08125 27.39375Q251.75313 27.39375 250.87813 28.39375Q250.01875 29.378124 250.01875 31.3625ZM267.4875 36.55L265.8625 36.55L265.8625 22.2375L267.6125 22.2375L267.6125 27.346874Q268.7375 25.940624 270.45624 25.940624Q271.40936 25.940624 272.26874 26.33125Q273.1281 26.721874 273.675 27.425Q274.22186 28.1125 274.53436 29.096874Q274.84686 30.08125 274.84686 31.20625Q274.84686 33.878124 273.53436 35.33125Q272.22186 36.784374 270.3781 36.784374Q268.53436 36.784374 267.4875 35.253124L267.4875 36.55ZM267.47186 31.284374Q267.47186 33.14375 267.97186 33.9875Q268.8156 35.33125 270.22186 35.33125Q271.3781 35.33125 272.20624 34.33125Q273.05 33.33125 273.05 31.346874Q273.05 29.315624 272.2375 28.3625Q271.4406 27.39375 270.3 27.39375Q269.14374 27.39375 268.3 28.39375Q267.47186 29.39375 267.47186 31.284374ZM283.97186 33.20625L285.78436 33.440624Q285.3625 35.01875 284.1906 35.909374Q283.03436 36.784374 281.22186 36.784374Q278.95624 36.784374 277.6125 35.39375Q276.28436 33.9875 276.28436 31.45625Q276.28436 28.83125 277.6281 27.39375Q278.97186 25.940624 281.1281 25.940624Q283.20624 25.940624 284.51874 27.3625Q285.84686 28.76875 285.84686 31.346874Q285.84686 31.503124 285.83124 31.815624L278.09686 31.815624Q278.1906 33.51875 279.0656 34.425Q279.9406 35.33125 281.2375 35.33125Q282.20624 35.33125 282.8781 34.83125Q283.5656 34.315624 283.97186 33.20625ZM278.1906 30.3625L283.9875 30.3625Q283.8781 29.065624 283.33124 28.409374Q282.4875 27.39375 281.14374 27.39375Q279.9406 27.39375 279.1125 28.20625Q278.28436 29.003124 278.1906 30.3625ZM288.3625 28.175L288.3625 26.175L290.3625 26.175L290.3625 28.175L288.3625 28.175ZM288.3625 36.55L288.3625 34.55L290.3625 34.55L290.3625 36.55L288.3625 36.55Z" fill-rule="nonzero"/></svg>