<svg version="1.1" viewBox="0.0 0.0 600.0 371.0" fill="none" stroke="none" stroke-linecap="square" stroke-miterlimit="10" width="600" height="371" xmlns:xlink="http://www.w3.org/1999/xlink" xmlns="http://www.w3.org/2000/svg"><path fill="#ffffff" d="M0 0L600.0 0L600.0 371.0L0 371.0L0 0Z" fill-rule="nonzero"/><path stroke="#333333" stroke-width="1.0" stroke-linecap="butt" d="M45.5 300.5L581.5 300.5" fill-rule="nonzero"/><path stroke="#cccccc" stroke-width="1.0" stroke-linecap="butt" d="M45.5 257.5L581.5 257.5" fill-rule="nonzero"/><path stroke="#cccccc" stroke-width="1.0" stroke-linecap="butt" d="M45.5 214.5L581.5 214.5" fill-rule="nonzero"/><path stroke="#cccccc" stroke-width="1.0" stroke-linecap="butt" d="M45.5 171.5L581.5 171.5" fill-rule="nonzero"/><path stroke="#cccccc" stroke-width="1.0" stroke-linecap="butt" d="M45.5 128.5L581.5 128.5" fill-rule="nonzero"/><path stroke="#cccccc" stroke-width="1.0" stroke-linecap="butt" d="M45.5 85.5L581.5 85.5" fill-rule="nonzero"/><clipPath id="id_0"><path d="M45.55 85.916664L581.45 85.916664L581.45 300.45L45.55 300.45L45.55 85.916664Z" clip-rule="nonzero"/></clipPath><path stroke="#000000" stroke-width="2.0" stroke-linecap="butt" stroke-opacity="0.0" clip-path="url(#id_0)" d="M206.0 300.0L102.0 300.0L102.0 268.0C102.0 266.89542 102.89543 266.0 104.0 266.0L204.0 266.0C205.10457 266.0 206.0 266.89542 206.0 268.0Z" fill-rule="nonzero"/><path fill="#4285f4" clip-path="url(#id_0)" d="M206.0 300.0L102.0 300.0L102.0 268.0C102.0 266.89542 102.89543 266.0 104.0 266.0L204.0 266.0C205.10457 266.0 206.0 266.89542 206.0 268.0Z" fill-rule="nonzero"/><path stroke="#000000" stroke-width="2.0" stroke-linecap="butt" stroke-opacity="0.0" clip-path="url(#id_0)" d="M366.0 300.0L262.0 300.0L262.0 122.0C262.0 120.89543 262.89542 120.0 264.0 120.0L364.0 120.0C365.10458 120.0 366.0 120.89543 366.0 122.0Z" fill-rule="nonzero"/><path fill="#4285f4" clip-path="url(#id_0)" d="M366.0 300.0L262.0 300.0L262.0 122.0C262.0 120.89543 262.89542 120.0 264.0 120.0L364.0 120.0C365.10458 120.0 366.0 120.89543 366.0 122.0Z" fill-rule="nonzero"/><path stroke="#000000" stroke-width="2.0" stroke-linecap="butt" stroke-opacity="0.0" clip-path="url(#id_0)" d="M525.0 300.0L421.0 300.0L421.0 234.0C421.0 232.89543 421.89542 232.0 423.0 232.0L523.0 232.0C524.10455 232.0 525.0 232.89543 525.0 234.0Z" fill-rule="nonzero"/><path fill="#4285f4" clip-path="url(#id_0)" d="M525.0 300.0L421.0 300.0L421.0 234.0C421.0 232.89543 421.89542 232.0 423.0 232.0L523.0 232.0C524.10455 232.0 525.0 232.89543 525.0 234.0Z" fill-rule="nonzero"/><path fill="#000000" d="M280.54688 346.6844L281.60938 346.59064Q281.6875 347.2469 281.96875 347.65314Q282.25 348.0594 282.82812 348.325Q283.42188 348.575 284.15625 348.575Q284.79688 348.575 285.29688 348.3875Q285.79688 348.1844 286.03125 347.85626Q286.28125 347.5125 286.28125 347.1219Q286.28125 346.71564 286.04688 346.41876Q285.8125 346.10626 285.28125 345.90314Q284.92188 345.7625 283.73438 345.48126Q282.5625 345.2 282.09375 344.95Q281.46875 344.6219 281.17188 344.15314Q280.875 343.66876 280.875 343.075Q280.875 342.4344 281.23438 341.8719Q281.60938 341.29376 282.3125 341.0125Q283.03125 340.71564 283.89062 340.71564Q284.84375 340.71564 285.57812 341.02814Q286.3125 341.325 286.70312 341.9344Q287.09375 342.52814 287.125 343.27814L286.03125 343.35626Q285.9375 342.54376 285.42188 342.1375Q284.92188 341.71564 283.9375 341.71564Q282.90625 341.71564 282.4375 342.09064Q281.96875 342.46564 281.96875 342.9969Q281.96875 343.46564 282.29688 343.7625Q282.625 344.0594 284.0 344.3719Q285.39062 344.6844 285.90625 344.91876Q286.65625 345.27814 287.01562 345.8094Q287.375 346.325 287.375 347.02814Q287.375 347.71564 286.98438 348.325Q286.59375 348.91876 285.85938 349.2625Q285.125 349.59064 284.20312 349.59064Q283.03125 349.59064 282.23438 349.2625Q281.45312 348.91876 281.0 348.23126Q280.5625 347.54376 280.54688 346.6844ZM288.40625 346.34064Q288.40625 344.60626 289.35938 343.77814Q290.15625 343.09064 291.3125 343.09064Q292.59375 343.09064 293.40625 343.9344Q294.23438 344.7625 294.23438 346.2469Q294.23438 347.45 293.875 348.1375Q293.51562 348.825 292.8125 349.21564Q292.125 349.59064 291.3125 349.59064Q290.01562 349.59064 289.20312 348.7625Q288.40625 347.91876 288.40625 346.34064ZM289.48438 346.34064Q289.48438 347.52814 290.0 348.1219Q290.53125 348.71564 291.3125 348.71564Q292.10938 348.71564 292.625 348.1219Q293.14062 347.52814 293.14062 346.3094Q293.14062 345.15314 292.60938 344.5594Q292.09375 343.96564 291.3125 343.96564Q290.53125 343.96564 290.0 344.5594Q289.48438 345.1375 289.48438 346.34064ZM299.85938 347.16876L300.89062 347.3094Q300.71875 348.3719 300.01562 348.98126Q299.3125 349.59064 298.29688 349.59064Q297.01562 349.59064 296.23438 348.7625Q295.46875 347.91876 295.46875 346.35626Q295.46875 345.35626 295.79688 344.60626Q296.14062 343.84064 296.8125 343.46564Q297.5 343.09064 298.3125 343.09064Q299.3125 343.09064 299.95312 343.60626Q300.60938 344.10626 300.79688 345.0594L299.76562 345.21564Q299.625 344.59064 299.25 344.27814Q298.875 343.95 298.34375 343.95Q297.54688 343.95 297.04688 344.52814Q296.54688 345.09064 296.54688 346.325Q296.54688 347.59064 297.03125 348.15314Q297.51562 348.71564 298.28125 348.71564Q298.90625 348.71564 299.3125 348.34064Q299.73438 347.96564 299.85938 347.16876ZM301.79688 342.075L301.79688 340.85626L302.85938 340.85626L302.85938 342.075L301.79688 342.075ZM301.79688 349.45L301.79688 343.23126L302.85938 343.23126L302.85938 349.45L301.79688 349.45ZM308.85938 348.6844Q308.26562 349.1844 307.71875 349.3875Q307.1875 349.59064 306.5625 349.59064Q305.53125 349.59064 304.98438 349.09064Q304.4375 348.59064 304.4375 347.8094Q304.4375 347.35626 304.64062 346.98126Q304.84375 346.59064 305.1875 346.3719Q305.53125 346.1375 305.95312 346.02814Q306.25 345.9344 306.89062 345.85626Q308.15625 345.71564 308.76562 345.4969Q308.76562 345.27814 308.76562 345.23126Q308.76562 344.575 308.46875 344.3094Q308.0625 343.96564 307.26562 343.96564Q306.53125 343.96564 306.17188 344.23126Q305.8125 344.48126 305.64062 345.1375L304.60938 344.9969Q304.75 344.34064 305.07812 343.9344Q305.40625 343.52814 306.01562 343.3094Q306.625 343.09064 307.42188 343.09064Q308.21875 343.09064 308.71875 343.27814Q309.21875 343.46564 309.45312 343.7469Q309.6875 344.02814 309.78125 344.46564Q309.82812 344.73126 309.82812 345.4344L309.82812 346.84064Q309.82812 348.3094 309.89062 348.7Q309.96875 349.09064 310.17188 349.45L309.0625 349.45Q308.90625 349.1219 308.85938 348.6844ZM308.76562 346.325Q308.1875 346.5594 307.04688 346.73126Q306.39062 346.825 306.125 346.95Q305.85938 347.0594 305.70312 347.27814Q305.5625 347.4969 305.5625 347.77814Q305.5625 348.2 305.875 348.48126Q306.20312 348.7625 306.8125 348.7625Q307.42188 348.7625 307.89062 348.4969Q308.375 348.23126 308.59375 347.7625Q308.76562 347.40314 308.76562 346.71564L308.76562 346.325ZM311.76562 349.45L311.76562 340.85626L312.82812 340.85626L312.82812 349.45L311.76562 349.45ZM321.85938 347.16876L322.89062 347.3094Q322.71875 348.3719 322.01562 348.98126Q321.3125 349.59064 320.29688 349.59064Q319.01562 349.59064 318.23438 348.7625Q317.46875 347.91876 317.46875 346.35626Q317.46875 345.35626 317.79688 344.60626Q318.14062 343.84064 318.8125 343.46564Q319.5 343.09064 320.3125 343.09064Q321.3125 343.09064 321.95312 343.60626Q322.60938 344.10626 322.79688 345.0594L321.76562 345.21564Q321.625 344.59064 321.25 344.27814Q320.875 343.95 320.34375 343.95Q319.54688 343.95 319.04688 344.52814Q318.54688 345.09064 318.54688 346.325Q318.54688 347.59064 319.03125 348.15314Q319.51562 348.71564 320.28125 348.71564Q320.90625 348.71564 321.3125 348.34064Q321.73438 347.96564 321.85938 347.16876ZM323.76562 349.45L323.76562 340.85626L324.82812 340.85626L324.82812 349.45L323.76562 349.45ZM330.85938 348.6844Q330.26562 349.1844 329.71875 349.3875Q329.1875 349.59064 328.5625 349.59064Q327.53125 349.59064 326.98438 349.09064Q326.4375 348.59064 326.4375 347.8094Q326.4375 347.35626 326.64062 346.98126Q326.84375 346.59064 327.1875 346.3719Q327.53125 346.1375 327.95312 346.02814Q328.25 345.9344 328.89062 345.85626Q330.15625 345.71564 330.76562 345.4969Q330.76562 345.27814 330.76562 345.23126Q330.76562 344.575 330.46875 344.3094Q330.0625 343.96564 329.26562 343.96564Q328.53125 343.96564 328.17188 344.23126Q327.8125 344.48126 327.64062 345.1375L326.60938 344.9969Q326.75 344.34064 327.07812 343.9344Q327.40625 343.52814 328.01562 343.3094Q328.625 343.09064 329.42188 343.09064Q330.21875 343.09064 330.71875 343.27814Q331.21875 343.46564 331.45312 343.7469Q331.6875 344.02814 331.78125 344.46564Q331.82812 344.73126 331.82812 345.4344L331.82812 346.84064Q331.82812 348.3094 331.89062 348.7Q331.96875 349.09064 332.17188 349.45L331.0625 349.45Q330.90625 349.1219 330.85938 348.6844ZM330.76562 346.325Q330.1875 346.5594 329.04688 346.73126Q328.39062 346.825 328.125 346.95Q327.85938 347.0594 327.70312 347.27814Q327.5625 347.4969 327.5625 347.77814Q327.5625 348.2 327.875 348.48126Q328.20312 348.7625 328.8125 348.7625Q329.42188 348.7625 329.89062 348.4969Q330.375 348.23126 330.59375 347.7625Q330.76562 347.40314 330.76562 346.71564L330.76562 346.325ZM333.375 347.59064L334.40625 347.4344Q334.5 348.0594 334.89062 348.3875Q335.29688 348.71564 336.03125 348.71564Q336.75 348.71564 337.09375 348.4344Q337.45312 348.1375 337.45312 347.73126Q337.45312 347.3719 337.14062 347.16876Q336.92188 347.02814 336.0625 346.8094Q334.90625 346.5125 334.45312 346.3094Q334.01562 346.09064 333.78125 345.71564Q333.54688 345.34064 333.54688 344.8719Q333.54688 344.46564 333.73438 344.10626Q333.92188 343.7469 334.25 343.5125Q334.5 343.34064 334.92188 343.21564Q335.34375 343.09064 335.84375 343.09064Q336.5625 343.09064 337.10938 343.3094Q337.67188 343.5125 337.9375 343.8719Q338.20312 344.23126 338.29688 344.825L337.26562 344.96564Q337.20312 344.4969 336.85938 344.23126Q336.53125 343.95 335.90625 343.95Q335.1875 343.95 334.875 344.2Q334.5625 344.4344 334.5625 344.7625Q334.5625 344.96564 334.6875 345.1219Q334.82812 345.29376 335.09375 345.40314Q335.25 345.46564 336.03125 345.66876Q337.15625 345.98126 337.59375 346.16876Q338.03125 346.35626 338.28125 346.71564Q338.53125 347.075 338.53125 347.6219Q338.53125 348.15314 338.21875 348.6219Q337.92188 349.075 337.34375 349.34064Q336.76562 349.59064 336.03125 349.59064Q334.8125 349.59064 334.17188 349.09064Q333.54688 348.575 333.375 347.59064ZM340.375 347.59064L341.40625 347.4344Q341.5 348.0594 341.89062 348.3875Q342.29688 348.71564 343.03125 348.71564Q343.75 348.71564 344.09375 348.4344Q344.45312 348.1375 344.45312 347.73126Q344.45312 347.3719 344.14062 347.16876Q343.92188 347.02814 343.0625 346.8094Q341.90625 346.5125 341.45312 346.3094Q341.01562 346.09064 340.78125 345.71564Q340.54688 345.34064 340.54688 344.8719Q340.54688 344.46564 340.73438 344.10626Q340.92188 343.7469 341.25 343.5125Q341.5 343.34064 341.92188 343.21564Q342.34375 343.09064 342.84375 343.09064Q343.5625 343.09064 344.10938 343.3094Q344.67188 343.5125 344.9375 343.8719Q345.20312 344.23126 345.29688 344.825L344.26562 344.96564Q344.20312 344.4969 343.85938 344.23126Q343.53125 343.95 342.90625 343.95Q342.1875 343.95 341.875 344.2Q341.5625 344.4344 341.5625 344.7625Q341.5625 344.96564 341.6875 345.1219Q341.82812 345.29376 342.09375 345.40314Q342.25 345.46564 343.03125 345.66876Q344.15625 345.98126 344.59375 346.16876Q345.03125 346.35626 345.28125 346.71564Q345.53125 347.075 345.53125 347.6219Q345.53125 348.15314 345.21875 348.6219Q344.92188 349.075 344.34375 349.34064Q343.76562 349.59064 343.03125 349.59064Q341.8125 349.59064 341.17188 349.09064Q340.54688 348.575 340.375 347.59064Z" fill-rule="nonzero"/><path fill="#000000" d="M33.05 300.21564Q33.05 298.6844 33.3625 297.7625Q33.675 296.825 34.284374 296.325Q34.909374 295.825 35.846874 295.825Q36.534374 295.825 37.05 296.10626Q37.58125 296.3875 37.925 296.91876Q38.26875 297.4344 38.45625 298.1844Q38.64375 298.9344 38.64375 300.21564Q38.64375 301.73126 38.33125 302.65314Q38.034374 303.575 37.409374 304.09064Q36.8 304.59064 35.846874 304.59064Q34.6125 304.59064 33.89375 303.7Q33.05 302.6375 33.05 300.21564ZM34.128124 300.21564Q34.128124 302.325 34.628124 303.02814Q35.128124 303.73126 35.846874 303.73126Q36.58125 303.73126 37.065624 303.02814Q37.565624 302.325 37.565624 300.21564Q37.565624 298.09064 37.065624 297.40314Q36.58125 296.7 35.83125 296.7Q35.1125 296.7 34.675 297.3094Q34.128124 298.09064 34.128124 300.21564Z" fill-rule="nonzero"/><path fill="#000000" d="M33.05 259.29333L34.159374 259.1996Q34.284374 260.0121 34.721874 260.41833Q35.175 260.8246 35.815624 260.8246Q36.565624 260.8246 37.096874 260.24646Q37.628124 259.66833 37.628124 258.73083Q37.628124 257.8246 37.1125 257.30896Q36.6125 256.7777 35.784374 256.7777Q35.284374 256.7777 34.8625 257.0121Q34.45625 257.24646 34.221874 257.60583L33.2375 257.48083L34.065624 253.07458L38.346874 253.07458L38.346874 254.07458L34.909374 254.07458L34.45625 256.3871Q35.221874 255.84021 36.065624 255.84021Q37.190624 255.84021 37.95625 256.62146Q38.7375 257.4027 38.7375 258.6371Q38.7375 259.79333 38.065624 260.6527Q37.2375 261.68396 35.815624 261.68396Q34.64375 261.68396 33.89375 261.0277Q33.159374 260.37146 33.05 259.29333Z" fill-rule="nonzero"/><path fill="#000000" d="M30.01875 218.63667L28.971874 218.63667L28.971874 211.91792Q28.58125 212.2773 27.95625 212.6523Q27.346874 213.01167 26.8625 213.18355L26.8625 212.16792Q27.7375 211.74605 28.39375 211.16792Q29.065624 210.57417 29.346874 210.01167L30.01875 210.01167L30.01875 218.63667ZM33.05 214.4023Q33.05 212.87105 33.3625 211.94917Q33.675 211.01167 34.284374 210.51167Q34.909374 210.01167 35.846874 210.01167Q36.534374 210.01167 37.05 210.29292Q37.58125 210.57417 37.925 211.10542Q38.26875 211.62105 38.45625 212.37105Q38.64375 213.12105 38.64375 214.4023Q38.64375 215.91792 38.33125 216.8398Q38.034374 217.76167 37.409374 218.2773Q36.8 218.7773 35.846874 218.7773Q34.6125 218.7773 33.89375 217.88667Q33.05 216.82417 33.05 214.4023ZM34.128124 214.4023Q34.128124 216.51167 34.628124 217.2148Q35.128124 217.91792 35.846874 217.91792Q36.58125 217.91792 37.065624 217.2148Q37.565624 216.51167 37.565624 214.4023Q37.565624 212.2773 37.065624 211.5898Q36.58125 210.88667 35.83125 210.88667Q35.1125 210.88667 34.675 211.49605Q34.128124 212.2773 34.128124 214.4023Z" fill-rule="nonzero"/><path fill="#000000" d="M30.01875 175.73L28.971874 175.73L28.971874 169.01125Q28.58125 169.37062 27.95625 169.74562Q27.346874 170.105 26.8625 170.27687L26.8625 169.26125Q27.7375 168.83937 28.39375 168.26125Q29.065624 167.6675 29.346874 167.105L30.01875 167.105L30.01875 175.73ZM33.05 173.48L34.159374 173.38625Q34.284374 174.19875 34.721874 174.605Q35.175 175.01125 35.815624 175.01125Q36.565624 175.01125 37.096874 174.43312Q37.628124 173.855 37.628124 172.9175Q37.628124 172.01125 37.1125 171.49562Q36.6125 170.96437 35.784374 170.96437Q35.284374 170.96437 34.8625 171.19875Q34.45625 171.43312 34.221874 171.7925L33.2375 171.6675L34.065624 167.26125L38.346874 167.26125L38.346874 168.26125L34.909374 168.26125L34.45625 170.57375Q35.221874 170.02687 36.065624 170.02687Q37.190624 170.02687 37.95625 170.80812Q38.7375 171.58937 38.7375 172.82375Q38.7375 173.98 38.065624 174.83937Q37.2375 175.87062 35.815624 175.87062Q34.64375 175.87062 33.89375 175.21437Q33.159374 174.55812 33.05 173.48Z" fill-rule="nonzero"/><path fill="#000000" d="M31.596874 131.80771L31.596874 132.82333L25.909374 132.82333Q25.909374 132.44833 26.034374 132.08896Q26.253124 131.51083 26.721874 130.94833Q27.20625 130.38583 28.1125 129.65146Q29.51875 128.49521 30.003124 127.82333Q30.503124 127.15146 30.503124 126.55771Q30.503124 125.93271 30.05 125.51083Q29.596874 125.07333 28.878124 125.07333Q28.1125 125.07333 27.659374 125.52646Q27.20625 125.97958 27.190624 126.79208L26.1125 126.68271Q26.221874 125.46396 26.940624 124.83896Q27.675 124.19833 28.909374 124.19833Q30.14375 124.19833 30.8625 124.88583Q31.58125 125.57333 31.58125 126.58896Q31.58125 127.10458 31.3625 127.60458Q31.159374 128.08896 30.659374 128.65146Q30.175 129.19833 29.05 130.15146Q28.096874 130.94833 27.815624 131.24521Q27.55 131.52646 27.378124 131.80771L31.596874 131.80771ZM33.05 128.58896Q33.05 127.05771 33.3625 126.13583Q33.675 125.19833 34.284374 124.69833Q34.909374 124.19833 35.846874 124.19833Q36.534374 124.19833 37.05 124.47958Q37.58125 124.76083 37.925 125.29208Q38.26875 125.80771 38.45625 126.55771Q38.64375 127.30771 38.64375 128.58896Q38.64375 130.10458 38.33125 131.02646Q38.034374 131.94833 37.409374 132.46396Q36.8 132.96396 35.846874 132.96396Q34.6125 132.96396 33.89375 132.07333Q33.05 131.01083 33.05 128.58896ZM34.128124 128.58896Q34.128124 130.69833 34.628124 131.40146Q35.128124 132.10458 35.846874 132.10458Q36.58125 132.10458 37.065624 131.40146Q37.565624 130.69833 37.565624 128.58896Q37.565624 126.46396 37.065624 125.77646Q36.58125 125.07333 35.83125 125.07333Q35.1125 125.07333 34.675 125.68271Q34.128124 126.46396 34.128124 128.58896Z" fill-rule="nonzero"/><path fill="#000000" d="M31.596874 88.90104L31.596874 89.916664L25.909374 89.916664Q25.909374 89.541664 26.034374 89.18229Q26.253124 88.604164 26.721874 88.041664Q27.20625 87.479164 28.1125 86.74479Q29.51875 85.58854 30.003124 84.916664Q30.503124 84.24479 30.503124 83.65104Q30.503124 83.02604 30.05 82.604164Q29.596874 82.166664 28.878124 82.166664Q28.1125 82.166664 27.659374 82.61979Q27.20625 83.072914 27.190624 83.885414L26.1125 83.77604Q26.221874 82.55729 26.940624 81.93229Q27.675 81.291664 28.909374 81.291664Q30.14375 81.291664 30.8625 81.979164Q31.58125 82.666664 31.58125 83.68229Q31.58125 84.197914 31.3625 84.697914Q31.159374 85.18229 30.659374 85.74479Q30.175 86.291664 29.05 87.24479Q28.096874 88.041664 27.815624 88.33854Q27.55 88.61979 27.378124 88.90104L31.596874 88.90104ZM33.05 87.666664L34.159374 87.572914Q34.284374 88.385414 34.721874 88.791664Q35.175 89.197914 35.815624 89.197914Q36.565624 89.197914 37.096874 88.61979Q37.628124 88.041664 37.628124 87.104164Q37.628124 86.197914 37.1125 85.68229Q36.6125 85.15104 35.784374 85.15104Q35.284374 85.15104 34.8625 85.385414Q34.45625 85.61979 34.221874 85.979164L33.2375 85.854164L34.065624 81.447914L38.346874 81.447914L38.346874 82.447914L34.909374 82.447914L34.45625 84.760414Q35.221874 84.21354 36.065624 84.21354Q37.190624 84.21354 37.95625 84.99479Q38.7375 85.77604 38.7375 87.010414Q38.7375 88.166664 38.065624 89.02604Q37.2375 90.05729 35.815624 90.05729Q34.64375 90.05729 33.89375 89.40104Q33.159374 88.74479 33.05 87.666664Z" fill-rule="nonzero"/><path fill="#000000" d="M115.45173 317.45L113.17048 308.85626L114.342354 308.85626L115.654854 314.4969Q115.85798 315.3719 116.01423 316.2469Q116.342354 314.8719 116.404854 314.65314L118.029854 308.85626L119.404854 308.85626L120.63923 313.2Q121.092354 314.825 121.311104 316.2469Q121.467354 315.4344 121.73298 314.3719L123.07673 308.85626L124.217354 308.85626L121.873604 317.45L120.76423 317.45L118.967354 310.90314Q118.73298 310.09064 118.686104 309.90314Q118.561104 310.48126 118.436104 310.90314L116.623604 317.45L115.45173 317.45ZM124.436104 314.34064Q124.436104 312.60626 125.38923 311.77814Q126.186104 311.09064 127.342354 311.09064Q128.6236 311.09064 129.4361 311.9344Q130.26422 312.7625 130.26422 314.2469Q130.26422 315.45 129.90485 316.1375Q129.54547 316.825 128.84235 317.21564Q128.15485 317.59064 127.342354 317.59064Q126.04548 317.59064 125.23298 316.7625Q124.436104 315.91876 124.436104 314.34064ZM125.51423 314.34064Q125.51423 315.52814 126.029854 316.1219Q126.561104 316.71564 127.342354 316.71564Q128.13922 316.71564 128.65485 316.1219Q129.17047 315.52814 129.17047 314.3094Q129.17047 313.15314 128.63922 312.5594Q128.1236 311.96564 127.342354 311.96564Q126.561104 311.96564 126.029854 312.5594Q125.51423 313.1375 125.51423 314.34064ZM131.8111 317.45L131.8111 311.23126L132.76422 311.23126L132.76422 312.16876Q133.1236 311.5125 133.42047 311.3094Q133.73297 311.09064 134.10797 311.09064Q134.63922 311.09064 135.1861 311.41876L134.82672 312.40314Q134.4361 312.16876 134.0611 312.16876Q133.70172 312.16876 133.42047 312.3875Q133.15485 312.59064 133.04547 312.96564Q132.85797 313.52814 132.85797 314.1844L132.85797 317.45L131.8111 317.45ZM135.82672 317.45L135.82672 308.85626L136.88922 308.85626L136.88922 313.7625L139.3736 311.23126L140.7486 311.23126L138.35797 313.52814L140.98297 317.45L139.6861 317.45L137.6236 314.2625L136.88922 314.98126L136.88922 317.45L135.82672 317.45ZM141.82672 310.075L141.82672 308.85626L142.88922 308.85626L142.88922 310.075L141.82672 310.075ZM141.82672 317.45L141.82672 311.23126L142.88922 311.23126L142.88922 317.45L141.82672 317.45ZM144.82672 317.45L144.82672 311.23126L145.76422 311.23126L145.76422 312.10626Q146.45172 311.09064 147.7486 311.09064Q148.3111 311.09064 148.77985 311.29376Q149.26422 311.4969 149.4986 311.825Q149.73297 312.15314 149.82672 312.59064Q149.8736 312.8875 149.8736 313.6219L149.8736 317.45L148.82672 317.45L148.82672 313.66876Q148.82672 313.0125 148.70172 312.7Q148.57672 312.3875 148.26422 312.2Q147.95172 311.9969 147.52985 311.9969Q146.85797 311.9969 146.35797 312.4344Q145.8736 312.85626 145.8736 314.04376L145.8736 317.45L144.82672 317.45ZM151.6236 317.96564L152.65485 318.1219Q152.71735 318.59064 153.01422 318.8094Q153.40485 319.10626 154.07672 319.10626Q154.8111 319.10626 155.20172 318.8094Q155.60797 318.5125 155.7486 317.9969Q155.84235 317.66876 155.82672 316.6375Q155.13922 317.45 154.10797 317.45Q152.82672 317.45 152.1236 316.52814Q151.42047 315.59064 151.42047 314.3094Q151.42047 313.41876 151.73297 312.66876Q152.0611 311.90314 152.67047 311.4969Q153.27985 311.09064 154.10797 311.09064Q155.21735 311.09064 155.9361 311.98126L155.9361 311.23126L156.90485 311.23126L156.90485 316.60626Q156.90485 318.0594 156.60797 318.66876Q156.3111 319.27814 155.67047 319.6219Q155.02985 319.98126 154.09235 319.98126Q152.98297 319.98126 152.29547 319.48126Q151.60797 318.98126 151.6236 317.96564ZM152.4986 314.23126Q152.4986 315.45 152.98297 316.0125Q153.46735 316.575 154.20172 316.575Q154.9361 316.575 155.42047 316.0125Q155.92047 315.45 155.92047 314.2625Q155.92047 313.1219 155.40485 312.54376Q154.90485 311.96564 154.1861 311.96564Q153.48297 311.96564 152.98297 312.54376Q152.4986 313.10626 152.4986 314.23126ZM168.09235 314.4344L169.21735 314.73126Q168.85797 316.1219 167.9361 316.85626Q167.01422 317.59064 165.67047 317.59064Q164.27985 317.59064 163.40485 317.02814Q162.52985 316.46564 162.07672 315.40314Q161.6236 314.325 161.6236 313.09064Q161.6236 311.7469 162.13922 310.7469Q162.65485 309.7469 163.59235 309.23126Q164.54547 308.71564 165.6861 308.71564Q166.96735 308.71564 167.84235 309.3719Q168.73297 310.02814 169.07672 311.21564L167.95172 311.48126Q167.65485 310.54376 167.07672 310.1219Q166.51422 309.6844 165.65485 309.6844Q164.67047 309.6844 163.9986 310.16876Q163.34235 310.6375 163.0611 311.4344Q162.79547 312.23126 162.79547 313.09064Q162.79547 314.1844 163.10797 314.9969Q163.4361 315.8094 164.10797 316.21564Q164.77985 316.6219 165.57672 316.6219Q166.52985 316.6219 167.1861 316.075Q167.85797 315.52814 168.09235 314.4344ZM170.79547 317.45L170.79547 308.85626L171.85797 308.85626L171.85797 317.45L170.79547 317.45ZM177.88922 316.6844Q177.29547 317.1844 176.7486 317.3875Q176.21735 317.59064 175.59235 317.59064Q174.5611 317.59064 174.01422 317.09064Q173.46735 316.59064 173.46735 315.8094Q173.46735 315.35626 173.67047 314.98126Q173.8736 314.59064 174.21735 314.3719Q174.5611 314.1375 174.98297 314.02814Q175.27985 313.9344 175.92047 313.85626Q177.1861 313.71564 177.79547 313.4969Q177.79547 313.27814 177.79547 313.23126Q177.79547 312.575 177.4986 312.3094Q177.09235 311.96564 176.29547 311.96564Q175.5611 311.96564 175.20172 312.23126Q174.84235 312.48126 174.67047 313.1375L173.63922 312.9969Q173.77985 312.34064 174.10797 311.9344Q174.4361 311.52814 175.04547 311.3094Q175.65485 311.09064 176.45172 311.09064Q177.2486 311.09064 177.7486 311.27814Q178.2486 311.46564 178.48297 311.7469Q178.71735 312.02814 178.8111 312.46564Q178.85797 312.73126 178.85797 313.4344L178.85797 314.84064Q178.85797 316.3094 178.92047 316.7Q178.9986 317.09064 179.20172 317.45L178.09235 317.45Q177.9361 317.1219 177.88922 316.6844ZM177.79547 314.325Q177.21735 314.5594 176.07672 314.73126Q175.42047 314.825 175.15485 314.95Q174.88922 315.0594 174.73297 315.27814Q174.59235 315.4969 174.59235 315.77814Q174.59235 316.2 174.90485 316.48126Q175.23297 316.7625 175.84235 316.7625Q176.45172 316.7625 176.92047 316.4969Q177.40485 316.23126 177.6236 315.7625Q177.79547 315.40314 177.79547 314.71564L177.79547 314.325ZM180.40485 315.59064L181.4361 315.4344Q181.52985 316.0594 181.92047 316.3875Q182.32672 316.71564 183.0611 316.71564Q183.77985 316.71564 184.1236 316.4344Q184.48297 316.1375 184.48297 315.73126Q184.48297 315.3719 184.17047 315.16876Q183.95172 315.02814 183.09235 314.8094Q181.9361 314.5125 181.48297 314.3094Q181.04547 314.09064 180.8111 313.71564Q180.57672 313.34064 180.57672 312.8719Q180.57672 312.46564 180.76422 312.10626Q180.95172 311.7469 181.27985 311.5125Q181.52985 311.34064 181.95172 311.21564Q182.3736 311.09064 182.8736 311.09064Q183.59235 311.09064 184.13922 311.3094Q184.70172 311.5125 184.96735 311.8719Q185.23297 312.23126 185.32672 312.825L184.29547 312.96564Q184.23297 312.4969 183.88922 312.23126Q183.5611 311.95 182.9361 311.95Q182.21735 311.95 181.90485 312.2Q181.59235 312.4344 181.59235 312.7625Q181.59235 312.96564 181.71735 313.1219Q181.85797 313.29376 182.1236 313.40314Q182.27985 313.46564 183.0611 313.66876Q184.1861 313.98126 184.6236 314.16876Q185.0611 314.35626 185.3111 314.71564Q185.5611 315.075 185.5611 315.6219Q185.5611 316.15314 185.2486 316.6219Q184.95172 317.075 184.3736 317.34064Q183.79547 317.59064 183.0611 317.59064Q181.84235 317.59064 181.20172 317.09064Q180.57672 316.575 180.40485 315.59064ZM187.40485 315.59064L188.4361 315.4344Q188.52985 316.0594 188.92047 316.3875Q189.32672 316.71564 190.0611 316.71564Q190.77985 316.71564 191.1236 316.4344Q191.48297 316.1375 191.48297 315.73126Q191.48297 315.3719 191.17047 315.16876Q190.95172 315.02814 190.09235 314.8094Q188.9361 314.5125 188.48297 314.3094Q188.04547 314.09064 187.8111 313.71564Q187.57672 313.34064 187.57672 312.8719Q187.57672 312.46564 187.76422 312.10626Q187.95172 311.7469 188.27985 311.5125Q188.52985 311.34064 188.95172 311.21564Q189.3736 311.09064 189.8736 311.09064Q190.59235 311.09064 191.13922 311.3094Q191.70172 311.5125 191.96735 311.8719Q192.23297 312.23126 192.32672 312.825L191.29547 312.96564Q191.23297 312.4969 190.88922 312.23126Q190.5611 311.95 189.9361 311.95Q189.21735 311.95 188.90485 312.2Q188.59235 312.4344 188.59235 312.7625Q188.59235 312.96564 188.71735 313.1219Q188.85797 313.29376 189.1236 313.40314Q189.27985 313.46564 190.0611 313.66876Q191.1861 313.98126 191.6236 314.16876Q192.0611 314.35626 192.3111 314.71564Q192.5611 315.075 192.5611 315.6219Q192.5611 316.15314 192.2486 316.6219Q191.95172 317.075 191.3736 317.34064Q190.79547 317.59064 190.0611 317.59064Q188.84235 317.59064 188.20172 317.09064Q187.57672 316.575 187.40485 315.59064Z" fill-rule="nonzero"/><path fill="#000000" d="M278.39062 317.45L278.39062 308.85626L280.10938 308.85626L282.14062 314.9344Q282.42188 315.79376 282.54688 316.21564Q282.6875 315.7469 283.0 314.84064L285.0625 308.85626L286.59375 308.85626L286.59375 317.45L285.5 317.45L285.5 310.2625L283.0 317.45L281.96875 317.45L279.48438 310.1375L279.48438 317.45L278.39062 317.45ZM287.29688 310.075L287.29688 308.85626L288.35938 308.85626L288.35938 310.075L287.29688 310.075ZM287.29688 317.45L287.29688 311.23126L288.35938 311.23126L288.35938 317.45L287.29688 317.45ZM294.32812 317.45L294.32812 316.66876Q293.73438 317.59064 292.59375 317.59064Q291.84375 317.59064 291.21875 317.1844Q290.59375 316.7625 290.25 316.02814Q289.90625 315.29376 289.90625 314.34064Q289.90625 313.41876 290.21875 312.65314Q290.53125 311.8875 291.15625 311.4969Q291.78125 311.09064 292.54688 311.09064Q293.10938 311.09064 293.54688 311.325Q293.98438 311.5594 294.26562 311.9344L294.26562 308.85626L295.3125 308.85626L295.3125 317.45L294.32812 317.45ZM291.0 314.34064Q291.0 315.54376 291.5 316.1375Q292.0 316.71564 292.6875 316.71564Q293.375 316.71564 293.85938 316.15314Q294.34375 315.59064 294.34375 314.4344Q294.34375 313.15314 293.84375 312.5594Q293.35938 311.96564 292.64062 311.96564Q291.9375 311.96564 291.46875 312.54376Q291.0 313.10626 291.0 314.34064ZM301.32812 317.45L301.32812 316.66876Q300.73438 317.59064 299.59375 317.59064Q298.84375 317.59064 298.21875 317.1844Q297.59375 316.7625 297.25 316.02814Q296.90625 315.29376 296.90625 314.34064Q296.90625 313.41876 297.21875 312.65314Q297.53125 311.8875 298.15625 311.4969Q298.78125 311.09064 299.54688 311.09064Q300.10938 311.09064 300.54688 311.325Q300.98438 311.5594 301.26562 311.9344L301.26562 308.85626L302.3125 308.85626L302.3125 317.45L301.32812 317.45ZM298.0 314.34064Q298.0 315.54376 298.5 316.1375Q299.0 316.71564 299.6875 316.71564Q300.375 316.71564 300.85938 316.15314Q301.34375 315.59064 301.34375 314.4344Q301.34375 313.15314 300.84375 312.5594Q300.35938 311.96564 299.64062 311.96564Q298.9375 311.96564 298.46875 312.54376Q298.0 313.10626 298.0 314.34064ZM304.26562 317.45L304.26562 308.85626L305.32812 308.85626L305.32812 317.45L304.26562 317.45ZM311.54688 315.45L312.64062 315.575Q312.39062 316.52814 311.6875 317.0594Q310.98438 317.59064 309.90625 317.59064Q308.54688 317.59064 307.73438 316.7469Q306.9375 315.90314 306.9375 314.3875Q306.9375 312.825 307.75 311.96564Q308.5625 311.09064 309.84375 311.09064Q311.09375 311.09064 311.875 311.9344Q312.67188 312.77814 312.67188 314.325Q312.67188 314.41876 312.67188 314.60626L308.03125 314.60626Q308.09375 315.6375 308.60938 316.1844Q309.125 316.71564 309.90625 316.71564Q310.48438 316.71564 310.89062 316.41876Q311.3125 316.10626 311.54688 315.45ZM308.09375 313.7469L311.5625 313.7469Q311.5 312.95 311.17188 312.5594Q310.65625 311.95 309.85938 311.95Q309.125 311.95 308.625 312.4344Q308.14062 312.91876 308.09375 313.7469ZM323.5625 314.4344L324.6875 314.73126Q324.32812 316.1219 323.40625 316.85626Q322.48438 317.59064 321.14062 317.59064Q319.75 317.59064 318.875 317.02814Q318.0 316.46564 317.54688 315.40314Q317.09375 314.325 317.09375 313.09064Q317.09375 311.7469 317.60938 310.7469Q318.125 309.7469 319.0625 309.23126Q320.01562 308.71564 321.15625 308.71564Q322.4375 308.71564 323.3125 309.3719Q324.20312 310.02814 324.54688 311.21564L323.42188 311.48126Q323.125 310.54376 322.54688 310.1219Q321.98438 309.6844 321.125 309.6844Q320.14062 309.6844 319.46875 310.16876Q318.8125 310.6375 318.53125 311.4344Q318.26562 312.23126 318.26562 313.09064Q318.26562 314.1844 318.57812 314.9969Q318.90625 315.8094 319.57812 316.21564Q320.25 316.6219 321.04688 316.6219Q322.0 316.6219 322.65625 316.075Q323.32812 315.52814 323.5625 314.4344ZM326.26562 317.45L326.26562 308.85626L327.32812 308.85626L327.32812 317.45L326.26562 317.45ZM333.35938 316.6844Q332.76562 317.1844 332.21875 317.3875Q331.6875 317.59064 331.0625 317.59064Q330.03125 317.59064 329.48438 317.09064Q328.9375 316.59064 328.9375 315.8094Q328.9375 315.35626 329.14062 314.98126Q329.34375 314.59064 329.6875 314.3719Q330.03125 314.1375 330.45312 314.02814Q330.75 313.9344 331.39062 313.85626Q332.65625 313.71564 333.26562 313.4969Q333.26562 313.27814 333.26562 313.23126Q333.26562 312.575 332.96875 312.3094Q332.5625 311.96564 331.76562 311.96564Q331.03125 311.96564 330.67188 312.23126Q330.3125 312.48126 330.14062 313.1375L329.10938 312.9969Q329.25 312.34064 329.57812 311.9344Q329.90625 311.52814 330.51562 311.3094Q331.125 311.09064 331.92188 311.09064Q332.71875 311.09064 333.21875 311.27814Q333.71875 311.46564 333.95312 311.7469Q334.1875 312.02814 334.28125 312.46564Q334.32812 312.73126 334.32812 313.4344L334.32812 314.84064Q334.32812 316.3094 334.39062 316.7Q334.46875 317.09064 334.67188 317.45L333.5625 317.45Q333.40625 317.1219 333.35938 316.6844ZM333.26562 314.325Q332.6875 314.5594 331.54688 314.73126Q330.89062 314.825 330.625 314.95Q330.35938 315.0594 330.20312 315.27814Q330.0625 315.4969 330.0625 315.77814Q330.0625 316.2 330.375 316.48126Q330.70312 316.7625 331.3125 316.7625Q331.92188 316.7625 332.39062 316.4969Q332.875 316.23126 333.09375 315.7625Q333.26562 315.40314 333.26562 314.71564L333.26562 314.325ZM335.875 315.59064L336.90625 315.4344Q337.0 316.0594 337.39062 316.3875Q337.79688 316.71564 338.53125 316.71564Q339.25 316.71564 339.59375 316.4344Q339.95312 316.1375 339.95312 315.73126Q339.95312 315.3719 339.64062 315.16876Q339.42188 315.02814 338.5625 314.8094Q337.40625 314.5125 336.95312 314.3094Q336.51562 314.09064 336.28125 313.71564Q336.04688 313.34064 336.04688 312.8719Q336.04688 312.46564 336.23438 312.10626Q336.42188 311.7469 336.75 311.5125Q337.0 311.34064 337.42188 311.21564Q337.84375 311.09064 338.34375 311.09064Q339.0625 311.09064 339.60938 311.3094Q340.17188 311.5125 340.4375 311.8719Q340.70312 312.23126 340.79688 312.825L339.76562 312.96564Q339.70312 312.4969 339.35938 312.23126Q339.03125 311.95 338.40625 311.95Q337.6875 311.95 337.375 312.2Q337.0625 312.4344 337.0625 312.7625Q337.0625 312.96564 337.1875 313.1219Q337.32812 313.29376 337.59375 313.40314Q337.75 313.46564 338.53125 313.66876Q339.65625 313.98126 340.09375 314.16876Q340.53125 314.35626 340.78125 314.71564Q341.03125 315.075 341.03125 315.6219Q341.03125 316.15314 340.71875 316.6219Q340.42188 317.075 339.84375 317.34064Q339.26562 317.59064 338.53125 317.59064Q337.3125 317.59064 336.67188 317.09064Q336.04688 316.575 335.875 315.59064ZM342.875 315.59064L343.90625 315.4344Q344.0 316.0594 344.39062 316.3875Q344.79688 316.71564 345.53125 316.71564Q346.25 316.71564 346.59375 316.4344Q346.95312 316.1375 346.95312 315.73126Q346.95312 315.3719 346.64062 315.16876Q346.42188 315.02814 345.5625 314.8094Q344.40625 314.5125 343.95312 314.3094Q343.51562 314.09064 343.28125 313.71564Q343.04688 313.34064 343.04688 312.8719Q343.04688 312.46564 343.23438 312.10626Q343.42188 311.7469 343.75 311.5125Q344.0 311.34064 344.42188 311.21564Q344.84375 311.09064 345.34375 311.09064Q346.0625 311.09064 346.60938 311.3094Q347.17188 311.5125 347.4375 311.8719Q347.70312 312.23126 347.79688 312.825L346.76562 312.96564Q346.70312 312.4969 346.35938 312.23126Q346.03125 311.95 345.40625 311.95Q344.6875 311.95 344.375 312.2Q344.0625 312.4344 344.0625 312.7625Q344.0625 312.96564 344.1875 313.1219Q344.32812 313.29376 344.59375 313.40314Q344.75 313.46564 345.53125 313.66876Q346.65625 313.98126 347.09375 314.16876Q347.53125 314.35626 347.78125 314.71564Q348.03125 315.075 348.03125 315.6219Q348.03125 316.15314 347.71875 316.6219Q347.42188 317.075 346.84375 317.34064Q346.26562 317.59064 345.53125 317.59064Q344.3125 317.59064 343.67188 317.09064Q343.04688 316.575 342.875 315.59064Z" fill-rule="nonzero"/><path fill="#000000" d="M445.03265 308.85626L446.17328 308.85626L446.17328 313.825Q446.17328 315.1219 445.8764 315.8875Q445.57953 316.6375 444.8139 317.1219Q444.04828 317.59064 442.8139 317.59064Q441.61078 317.59064 440.82953 317.1844Q440.0639 316.7625 439.73578 315.98126Q439.40765 315.1844 439.40765 313.825L439.40765 308.85626L440.54828 308.85626L440.54828 313.8094Q440.54828 314.9344 440.7514 315.46564Q440.97015 315.9969 441.47015 316.29376Q441.98578 316.575 442.72015 316.575Q443.97015 316.575 444.5014 316.0125Q445.03265 315.4344 445.03265 313.8094L445.03265 308.85626ZM448.26703 319.84064L448.26703 311.23126L449.22015 311.23126L449.22015 312.02814Q449.5639 311.5594 449.98578 311.325Q450.42328 311.09064 451.03265 311.09064Q451.82953 311.09064 452.4389 311.4969Q453.04828 311.90314 453.34515 312.65314Q453.65765 313.40314 453.65765 314.29376Q453.65765 315.2469 453.3139 316.0125Q452.98578 316.77814 452.32953 317.1844Q451.67328 317.59064 450.95453 317.59064Q450.42328 317.59064 450.0014 317.3719Q449.57953 317.1375 449.3139 316.8094L449.3139 319.84064L448.26703 319.84064ZM449.22015 314.3719Q449.22015 315.575 449.70453 316.15314Q450.1889 316.71564 450.8764 316.71564Q451.57953 316.71564 452.07953 316.1219Q452.57953 315.52814 452.57953 314.27814Q452.57953 313.09064 452.09515 312.5125Q451.61078 311.91876 450.92328 311.91876Q450.2514 311.91876 449.73578 312.54376Q449.22015 313.16876 449.22015 314.3719ZM455.26703 319.84064L455.26703 311.23126L456.22015 311.23126L456.22015 312.02814Q456.5639 311.5594 456.98578 311.325Q457.42328 311.09064 458.03265 311.09064Q458.82953 311.09064 459.4389 311.4969Q460.04828 311.90314 460.34515 312.65314Q460.65765 313.40314 460.65765 314.29376Q460.65765 315.2469 460.3139 316.0125Q459.98578 316.77814 459.32953 317.1844Q458.67328 317.59064 457.95453 317.59064Q457.42328 317.59064 457.0014 317.3719Q456.57953 317.1375 456.3139 316.8094L456.3139 319.84064L455.26703 319.84064ZM456.22015 314.3719Q456.22015 315.575 456.70453 316.15314Q457.1889 316.71564 457.8764 316.71564Q458.57953 316.71564 459.07953 316.1219Q459.57953 315.52814 459.57953 314.27814Q459.57953 313.09064 459.09515 312.5125Q458.61078 311.91876 457.92328 311.91876Q457.2514 311.91876 456.73578 312.54376Q456.22015 313.16876 456.22015 314.3719ZM466.51703 315.45L467.61078 315.575Q467.36078 316.52814 466.65765 317.0594Q465.95453 317.59064 464.8764 317.59064Q463.51703 317.59064 462.70453 316.7469Q461.90765 315.90314 461.90765 314.3875Q461.90765 312.825 462.72015 311.96564Q463.53265 311.09064 464.8139 311.09064Q466.0639 311.09064 466.84515 311.9344Q467.64203 312.77814 467.64203 314.325Q467.64203 314.41876 467.64203 314.60626L463.0014 314.60626Q463.0639 315.6375 463.57953 316.1844Q464.09515 316.71564 464.8764 316.71564Q465.45453 316.71564 465.86078 316.41876Q466.28265 316.10626 466.51703 315.45ZM463.0639 313.7469L466.53265 313.7469Q466.47015 312.95 466.14203 312.5594Q465.6264 311.95 464.82953 311.95Q464.09515 311.95 463.59515 312.4344Q463.11078 312.91876 463.0639 313.7469ZM469.2514 317.45L469.2514 311.23126L470.20453 311.23126L470.20453 312.16876Q470.5639 311.5125 470.86078 311.3094Q471.17328 311.09064 471.54828 311.09064Q472.07953 311.09064 472.6264 311.41876L472.26703 312.40314Q471.8764 312.16876 471.5014 312.16876Q471.14203 312.16876 470.86078 312.3875Q470.59515 312.59064 470.48578 312.96564Q470.29828 313.52814 470.29828 314.1844L470.29828 317.45L469.2514 317.45ZM482.53265 314.4344L483.65765 314.73126Q483.29828 316.1219 482.3764 316.85626Q481.45453 317.59064 480.11078 317.59064Q478.72015 317.59064 477.84515 317.02814Q476.97015 316.46564 476.51703 315.40314Q476.0639 314.325 476.0639 313.09064Q476.0639 311.7469 476.57953 310.7469Q477.09515 309.7469 478.03265 309.23126Q478.98578 308.71564 480.1264 308.71564Q481.40765 308.71564 482.28265 309.3719Q483.17328 310.02814 483.51703 311.21564L482.39203 311.48126Q482.09515 310.54376 481.51703 310.1219Q480.95453 309.6844 480.09515 309.6844Q479.11078 309.6844 478.4389 310.16876Q477.78265 310.6375 477.5014 311.4344Q477.23578 312.23126 477.23578 313.09064Q477.23578 314.1844 477.54828 314.9969Q477.8764 315.8094 478.54828 316.21564Q479.22015 316.6219 480.01703 316.6219Q480.97015 316.6219 481.6264 316.075Q482.29828 315.52814 482.53265 314.4344ZM485.23578 317.45L485.23578 308.85626L486.29828 308.85626L486.29828 317.45L485.23578 317.45ZM492.32953 316.6844Q491.73578 317.1844 491.1889 317.3875Q490.65765 317.59064 490.03265 317.59064Q489.0014 317.59064 488.45453 317.09064Q487.90765 316.59064 487.90765 315.8094Q487.90765 315.35626 488.11078 314.98126Q488.3139 314.59064 488.65765 314.3719Q489.0014 314.1375 489.42328 314.02814Q489.72015 313.9344 490.36078 313.85626Q491.6264 313.71564 492.23578 313.4969Q492.23578 313.27814 492.23578 313.23126Q492.23578 312.575 491.9389 312.3094Q491.53265 311.96564 490.73578 311.96564Q490.0014 311.96564 489.64203 312.23126Q489.28265 312.48126 489.11078 313.1375L488.07953 312.9969Q488.22015 312.34064 488.54828 311.9344Q488.8764 311.52814 489.48578 311.3094Q490.09515 311.09064 490.89203 311.09064Q491.6889 311.09064 492.1889 311.27814Q492.6889 311.46564 492.92328 311.7469Q493.15765 312.02814 493.2514 312.46564Q493.29828 312.73126 493.29828 313.4344L493.29828 314.84064Q493.29828 316.3094 493.36078 316.7Q493.4389 317.09064 493.64203 317.45L492.53265 317.45Q492.3764 317.1219 492.32953 316.6844ZM492.23578 314.325Q491.65765 314.5594 490.51703 314.73126Q489.86078 314.825 489.59515 314.95Q489.32953 315.0594 489.17328 315.27814Q489.03265 315.4969 489.03265 315.77814Q489.03265 316.2 489.34515 316.48126Q489.67328 316.7625 490.28265 316.7625Q490.89203 316.7625 491.36078 316.4969Q491.84515 316.23126 492.0639 315.7625Q492.23578 315.40314 492.23578 314.71564L492.23578 314.325ZM494.84515 315.59064L495.8764 315.4344Q495.97015 316.0594 496.36078 316.3875Q496.76703 316.71564 497.5014 316.71564Q498.22015 316.71564 498.5639 316.4344Q498.92328 316.1375 498.92328 315.73126Q498.92328 315.3719 498.61078 315.16876Q498.39203 315.02814 497.53265 314.8094Q496.3764 314.5125 495.92328 314.3094Q495.48578 314.09064 495.2514 313.71564Q495.01703 313.34064 495.01703 312.8719Q495.01703 312.46564 495.20453 312.10626Q495.39203 311.7469 495.72015 311.5125Q495.97015 311.34064 496.39203 311.21564Q496.8139 311.09064 497.3139 311.09064Q498.03265 311.09064 498.57953 311.3094Q499.14203 311.5125 499.40765 311.8719Q499.67328 312.23126 499.76703 312.825L498.73578 312.96564Q498.67328 312.4969 498.32953 312.23126Q498.0014 311.95 497.3764 311.95Q496.65765 311.95 496.34515 312.2Q496.03265 312.4344 496.03265 312.7625Q496.03265 312.96564 496.15765 313.1219Q496.29828 313.29376 496.5639 313.40314Q496.72015 313.46564 497.5014 313.66876Q498.6264 313.98126 499.0639 314.16876Q499.5014 314.35626 499.7514 314.71564Q500.0014 315.075 500.0014 315.6219Q500.0014 316.15314 499.6889 316.6219Q499.39203 317.075 498.8139 317.34064Q498.23578 317.59064 497.5014 317.59064Q496.28265 317.59064 495.64203 317.09064Q495.01703 316.575 494.84515 315.59064ZM501.84515 315.59064L502.8764 315.4344Q502.97015 316.0594 503.36078 316.3875Q503.76703 316.71564 504.5014 316.71564Q505.22015 316.71564 505.5639 316.4344Q505.92328 316.1375 505.92328 315.73126Q505.92328 315.3719 505.61078 315.16876Q505.39203 315.02814 504.53265 314.8094Q503.3764 314.5125 502.92328 314.3094Q502.48578 314.09064 502.2514 313.71564Q502.01703 313.34064 502.01703 312.8719Q502.01703 312.46564 502.20453 312.10626Q502.39203 311.7469 502.72015 311.5125Q502.97015 311.34064 503.39203 311.21564Q503.8139 311.09064 504.3139 311.09064Q505.03265 311.09064 505.57953 311.3094Q506.14203 311.5125 506.40765 311.8719Q506.67328 312.23126 506.76703 312.825L505.73578 312.96564Q505.67328 312.4969 505.32953 312.23126Q505.0014 311.95 504.3764 311.95Q503.65765 311.95 503.34515 312.2Q503.03265 312.4344 503.03265 312.7625Q503.03265 312.96564 503.15765 313.1219Q503.29828 313.29376 503.5639 313.40314Q503.72015 313.46564 504.5014 313.66876Q505.6264 313.98126 506.0639 314.16876Q506.5014 314.35626 506.7514 314.71564Q507.0014 315.075 507.0014 315.6219Q507.0014 316.15314 506.6889 316.6219Q506.39203 317.075 505.8139 317.34064Q505.23578 317.59064 504.5014 317.59064Q503.28265 317.59064 502.64203 317.09064Q502.01703 316.575 501.84515 315.59064Z" fill-rule="nonzero"/><path fill="#757575" d="M20.01875 37.55L20.01875 23.2375L25.39375 23.2375Q27.034374 23.2375 28.01875 23.675Q29.003124 24.096874 29.565624 25.003124Q30.128124 25.909374 30.128124 26.89375Q30.128124 27.815624 29.628124 28.628124Q29.14375 29.440624 28.128124 29.925Q29.425 30.315624 30.128124 31.2375Q30.83125 32.14375 30.83125 33.39375Q30.83125 34.409374 30.39375 35.26875Q29.971874 36.128124 29.346874 36.596874Q28.721874 37.065624 27.784374 37.315624Q26.846874 37.55 25.471874 37.55L20.01875 37.55ZM21.909374 29.253124L25.003124 29.253124Q26.26875 29.253124 26.815624 29.08125Q27.534374 28.8625 27.89375 28.378124Q28.26875 27.878124 28.26875 27.1125Q28.26875 26.409374 27.925 25.8625Q27.58125 25.315624 26.940624 25.128124Q26.315624 24.925 24.76875 24.925L21.909374 24.925L21.909374 29.253124ZM21.909374 35.8625L25.471874 35.8625Q26.39375 35.8625 26.76875 35.784374Q27.425 35.675 27.8625 35.409374Q28.3 35.128124 28.58125 34.6125Q28.8625 34.08125 28.8625 33.39375Q28.8625 32.596874 28.45625 32.003124Q28.05 31.409374 27.315624 31.175Q26.58125 30.940624 25.221874 30.940624L21.909374 30.940624L21.909374 35.8625ZM39.971874 34.20625L41.784374 34.440624Q41.3625 36.01875 40.190624 36.909374Q39.034374 37.784374 37.221874 37.784374Q34.95625 37.784374 33.6125 36.39375Q32.284374 34.9875 32.284374 32.45625Q32.284374 29.83125 33.628124 28.39375Q34.971874 26.940624 37.128124 26.940624Q39.20625 26.940624 40.51875 28.3625Q41.846874 29.76875 41.846874 32.346874Q41.846874 32.503124 41.83125 32.815624L34.096874 32.815624Q34.190624 34.51875 35.065624 35.425Q35.940624 36.33125 37.2375 36.33125Q38.20625 36.33125 38.878124 35.83125Q39.565624 35.315624 39.971874 34.20625ZM34.190624 31.3625L39.9875 31.3625Q39.878124 30.065624 39.33125 29.409374Q38.4875 28.39375 37.14375 28.39375Q35.940624 28.39375 35.1125 29.20625Q34.284374 30.003124 34.190624 31.3625ZM44.284374 37.55L44.284374 28.55L42.7375 28.55L42.7375 27.175L44.284374 27.175L44.284374 26.08125Q44.284374 25.034374 44.471874 24.51875Q44.721874 23.83125 45.3625 23.409374Q46.003124 22.9875 47.159374 22.9875Q47.909374 22.9875 48.8 23.159374L48.534374 24.690624Q47.9875 24.596874 47.503124 24.596874Q46.70625 24.596874 46.3625 24.940624Q46.034374 25.284374 46.034374 26.221874L46.034374 27.175L48.065624 27.175L48.065624 28.55L46.034374 28.55L46.034374 37.55L44.284374 37.55ZM49.221874 32.3625Q49.221874 29.4875 50.815624 28.096874Q52.159374 26.940624 54.08125 26.940624Q56.221874 26.940624 57.565624 28.346874Q58.925 29.753124 58.925 32.221874Q58.925 34.221874 58.33125 35.378124Q57.7375 36.51875 56.58125 37.159374Q55.440624 37.784374 54.08125 37.784374Q51.89375 37.784374 50.55 36.39375Q49.221874 34.9875 49.221874 32.3625ZM51.01875 32.3625Q51.01875 34.3625 51.878124 35.346874Q52.753124 36.33125 54.08125 36.33125Q55.39375 36.33125 56.253124 35.346874Q57.128124 34.346874 57.128124 32.3Q57.128124 30.378124 56.253124 29.39375Q55.378124 28.39375 54.08125 28.39375Q52.753124 28.39375 51.878124 29.39375Q51.01875 30.378124 51.01875 32.3625ZM60.846874 37.55L60.846874 27.175L62.425 27.175L62.425 28.753124Q63.034374 27.64375 63.55 27.3Q64.06563 26.940624 64.675 26.940624Q65.56563 26.940624 66.4875 27.503124L65.87813 29.14375Q65.2375 28.753124 64.59688 28.753124Q64.01875 28.753124 63.55 29.1125Q63.096874 29.45625 62.89375 30.065624Q62.6125 31.003124 62.6125 32.1125L62.6125 37.55L60.846874 37.55ZM74.97188 34.20625L76.78438 34.440624Q76.3625 36.01875 75.19063 36.909374Q74.03438 37.784374 72.22188 37.784374Q69.95625 37.784374 68.6125 36.39375Q67.28438 34.9875 67.28438 32.45625Q67.28438 29.83125 68.62813 28.39375Q69.97188 26.940624 72.12813 26.940624Q74.20625 26.940624 75.51875 28.3625Q76.84688 29.76875 76.84688 32.346874Q76.84688 32.503124 76.83125 32.815624L69.09688 32.815624Q69.19063 34.51875 70.06563 35.425Q70.94063 36.33125 72.2375 36.33125Q73.20625 36.33125 73.87813 35.83125Q74.56563 35.315624 74.97188 34.20625ZM69.19063 31.3625L74.9875 31.3625Q74.87813 30.065624 74.33125 29.409374Q73.4875 28.39375 72.14375 28.39375Q70.94063 28.39375 70.1125 29.20625Q69.28438 30.003124 69.19063 31.3625ZM91.64375 33.753124L93.3625 33.971874Q93.08125 35.76875 91.90938 36.784374Q90.75313 37.784374 89.05 37.784374Q86.925 37.784374 85.62813 36.39375Q84.33125 35.003124 84.33125 32.409374Q84.33125 30.721874 84.87813 29.471874Q85.44063 28.20625 86.58125 27.58125Q87.72188 26.940624 89.06563 26.940624Q90.75313 26.940624 91.81563 27.8Q92.89375 28.659374 93.20625 30.221874L91.4875 30.4875Q91.25313 29.440624 90.62813 28.925Q90.00313 28.39375 89.12813 28.39375Q87.8 28.39375 86.97188 29.346874Q86.14375 30.3 86.14375 32.346874Q86.14375 34.440624 86.94063 35.39375Q87.7375 36.33125 89.03438 36.33125Q90.06563 36.33125 90.75313 35.70625Q91.45625 35.065624 91.64375 33.753124ZM94.22188 32.3625Q94.22188 29.4875 95.81563 28.096874Q97.15938 26.940624 99.08125 26.940624Q101.22188 26.940624 102.56563 28.346874Q103.925 29.753124 103.925 32.221874Q103.925 34.221874 103.33125 35.378124Q102.7375 36.51875 101.58125 37.159374Q100.44063 37.784374 99.08125 37.784374Q96.89375 37.784374 95.55 36.39375Q94.22188 34.9875 94.22188 32.3625ZM96.01875 32.3625Q96.01875 34.3625 96.87813 35.346874Q97.75313 36.33125 99.08125 36.33125Q100.39375 36.33125 101.25313 35.346874Q102.12813 34.346874 102.12813 32.3Q102.12813 30.378124 101.25313 29.39375Q100.37813 28.39375 99.08125 28.39375Q97.75313 28.39375 96.87813 29.39375Q96.01875 30.378124 96.01875 32.3625ZM105.8625 37.55L105.8625 27.175L107.44063 27.175L107.44063 28.628124Q107.925 27.878124 108.7375 27.409374Q109.55 26.940624 110.58125 26.940624Q111.7375 26.940624 112.47188 27.425Q113.20625 27.89375 113.51875 28.753124Q114.75313 26.940624 116.72188 26.940624Q118.26875 26.940624 119.09688 27.8Q119.925 28.659374 119.925 30.425L119.925 37.55L118.175 37.55L118.175 31.01875Q118.175 29.95625 118.00313 29.503124Q117.83125 29.034374 117.37813 28.753124Q116.94063 28.471874 116.33125 28.471874Q115.2375 28.471874 114.50313 29.20625Q113.78438 29.925 113.78438 31.51875L113.78438 37.55L112.03438 37.55L112.03438 30.815624Q112.03438 29.64375 111.59688 29.065624Q111.175 28.471874 110.19063 28.471874Q109.45625 28.471874 108.81563 28.8625Q108.19063 29.253124 107.90938 30.003124Q107.62813 30.753124 107.62813 32.175L107.62813 37.55L105.8625 37.55ZM121.87813 25.253124L121.87813 23.2375L123.64375 23.2375L123.64375 25.253124L121.87813 25.253124ZM121.87813 37.55L121.87813 27.175L123.64375 27.175L123.64375 37.55L121.87813 37.55ZM125.8625 37.55L125.8625 27.175L127.45625 27.175L127.45625 28.659374Q128.59688 26.940624 130.75313 26.940624Q131.69063 26.940624 132.47188 27.284374Q133.26875 27.6125 133.65938 28.159374Q134.05 28.70625 134.20625 29.45625Q134.3 29.95625 134.3 31.175L134.3 37.55L132.53438 37.55L132.53438 31.2375Q132.53438 30.159374 132.33125 29.628124Q132.12813 29.096874 131.59688 28.784374Q131.08125 28.471874 130.37813 28.471874Q129.25313 28.471874 128.44063 29.190624Q127.62813 29.89375 127.62813 31.878124L127.62813 37.55L125.8625 37.55ZM135.55 38.409374L137.25313 38.659374Q137.3625 39.45625 137.84688 39.815624Q138.50313 40.3 139.64375 40.3Q140.8625 40.3 141.51875 39.815624Q142.19063 39.33125 142.425 38.45625Q142.56563 37.909374 142.55 36.190624Q141.39375 37.55 139.675 37.55Q137.53438 37.55 136.3625 36.003124Q135.19063 34.45625 135.19063 32.3Q135.19063 30.815624 135.72188 29.565624Q136.26875 28.315624 137.28438 27.628124Q138.31563 26.940624 139.69063 26.940624Q141.51875 26.940624 142.72188 28.425L142.72188 27.175L144.33125 27.175L144.33125 36.14375Q144.33125 38.565624 143.83125 39.565624Q143.34688 40.58125 142.26875 41.159374Q141.20625 41.753124 139.64375 41.753124Q137.8 41.753124 136.64375 40.925Q135.50313 40.096874 135.55 38.409374ZM137.00313 32.175Q137.00313 34.221874 137.81563 35.159374Q138.62813 36.096874 139.84688 36.096874Q141.05 36.096874 141.8625 35.159374Q142.69063 34.221874 142.69063 32.2375Q142.69063 30.33125 141.84688 29.3625Q141.00313 28.39375 139.81563 28.39375Q138.64375 28.39375 137.81563 29.346874Q137.00313 30.3 137.00313 32.175ZM156.70625 35.971874L156.95625 37.534374Q156.22188 37.690624 155.62813 37.690624Q154.675 37.690624 154.14375 37.39375Q153.62813 37.08125 153.40938 36.596874Q153.19063 36.096874 153.19063 34.51875L153.19063 28.55L151.90938 28.55L151.90938 27.175L153.19063 27.175L153.19063 24.6125L154.94063 23.55L154.94063 27.175L156.70625 27.175L156.70625 28.55L154.94063 28.55L154.94063 34.6125Q154.94063 35.3625 155.03438 35.58125Q155.12813 35.784374 155.33125 35.925Q155.55 36.05 155.94063 36.05Q156.22188 36.05 156.70625 35.971874ZM158.22188 32.3625Q158.22188 29.4875 159.81563 28.096874Q161.15938 26.940624 163.08125 26.940624Q165.22188 26.940624 166.56563 28.346874Q167.925 29.753124 167.925 32.221874Q167.925 34.221874 167.33125 35.378124Q166.7375 36.51875 165.58125 37.159374Q164.44063 37.784374 163.08125 37.784374Q160.89375 37.784374 159.55 36.39375Q158.22188 34.9875 158.22188 32.3625ZM160.01875 32.3625Q160.01875 34.3625 160.87813 35.346874Q161.75313 36.33125 163.08125 36.33125Q164.39375 36.33125 165.25313 35.346874Q166.12813 34.346874 166.12813 32.3Q166.12813 30.378124 165.25313 29.39375Q164.37813 28.39375 163.08125 28.39375Q161.75313 28.39375 160.87813 29.39375Q160.01875 30.378124 160.01875 32.3625ZM182.64375 33.753124L184.3625 33.971874Q184.08125 35.76875 182.90938 36.784374Q181.75313 37.784374 180.05 37.784374Q177.925 37.784374 176.62813 36.39375Q175.33125 35.003124 175.33125 32.409374Q175.33125 30.721874 175.87813 29.471874Q176.44063 28.20625 177.58125 27.58125Q178.72188 26.940624 180.06563 26.940624Q181.75313 26.940624 182.81563 27.8Q183.89375 28.659374 184.20625 30.221874L182.4875 30.4875Q182.25313 29.440624 181.62813 28.925Q181.00313 28.39375 180.12813 28.39375Q178.8 28.39375 177.97188 29.346874Q177.14375 30.3 177.14375 32.346874Q177.14375 34.440624 177.94063 35.39375Q178.7375 36.33125 180.03438 36.33125Q181.06563 36.33125 181.75313 35.70625Q182.45625 35.065624 182.64375 33.753124ZM185.22188 32.3625Q185.22188 29.4875 186.81563 28.096874Q188.15938 26.940624 190.08125 26.940624Q192.22188 26.940624 193.56563 28.346874Q194.925 29.753124 194.925 32.221874Q194.925 34.221874 194.33125 35.378124Q193.7375 36.51875 192.58125 37.159374Q191.44063 37.784374 190.08125 37.784374Q187.89375 37.784374 186.55 36.39375Q185.22188 34.9875 185.22188 32.3625ZM187.01875 32.3625Q187.01875 34.3625 187.87813 35.346874Q188.75313 36.33125 190.08125 36.33125Q191.39375 36.33125 192.25313 35.346874Q193.12813 34.346874 193.12813 32.3Q193.12813 30.378124 192.25313 29.39375Q191.37813 28.39375 190.08125 28.39375Q188.75313 28.39375 187.87813 29.39375Q187.01875 30.378124 187.01875 32.3625ZM196.83125 37.55L196.83125 23.2375L198.58125 23.2375L198.58125 37.55L196.83125 37.55ZM200.83125 37.55L200.83125 23.2375L202.58125 23.2375L202.58125 37.55L200.83125 37.55ZM211.97188 34.20625L213.78438 34.440624Q213.3625 36.01875 212.19063 36.909374Q211.03438 37.784374 209.22188 37.784374Q206.95625 37.784374 205.6125 36.39375Q204.28438 34.9875 204.28438 32.45625Q204.28438 29.83125 205.62813 28.39375Q206.97188 26.940624 209.12813 26.940624Q211.20625 26.940624 212.51875 28.3625Q213.84688 29.76875 213.84688 32.346874Q213.84688 32.503124 213.83125 32.815624L206.09688 32.815624Q206.19063 34.51875 207.06563 35.425Q207.94063 36.33125 209.2375 36.33125Q210.20625 36.33125 210.87813 35.83125Q211.56563 35.315624 211.97188 34.20625ZM206.19063 31.3625L211.9875 31.3625Q211.87813 30.065624 211.33125 29.409374Q210.4875 28.39375 209.14375 28.39375Q207.94063 28.39375 207.1125 29.20625Q206.28438 30.003124 206.19063 31.3625ZM215.55 38.409374L217.25313 38.659374Q217.3625 39.45625 217.84688 39.815624Q218.50313 40.3 219.64375 40.3Q220.8625 40.3 221.51875 39.815624Q222.19063 39.33125 222.425 38.45625Q222.56563 37.909374 222.55 36.190624Q221.39375 37.55 219.675 37.55Q217.53438 37.55 216.3625 36.003124Q215.19063 34.45625 215.19063 32.3Q215.19063 30.815624 215.72188 29.565624Q216.26875 28.315624 217.28438 27.628124Q218.31563 26.940624 219.69063 26.940624Q221.51875 26.940624 222.72188 28.425L222.72188 27.175L224.33125 27.175L224.33125 36.14375Q224.33125 38.565624 223.83125 39.565624Q223.34688 40.58125 222.26875 41.159374Q221.20625 41.753124 219.64375 41.753124Q217.8 41.753124 216.64375 40.925Q215.50313 40.096874 215.55 38.409374ZM217.00313 32.175Q217.00313 34.221874 217.81563 35.159374Q218.62813 36.096874 219.84688 36.096874Q221.05 36.096874 221.8625 35.159374Q222.69063 34.221874 222.69063 32.2375Q222.69063 30.33125 221.84688 29.3625Q221.00313 28.39375 219.81563 28.39375Q218.64375 28.39375 217.81563 29.346874Q217.00313 30.3 217.00313 32.175ZM233.97188 34.20625L235.78438 34.440624Q235.3625 36.01875 234.19063 36.909374Q233.03438 37.784374 231.22188 37.784374Q228.95625 37.784374 227.6125 36.39375Q226.28438 34.9875 226.28438 32.45625Q226.28438 29.83125 227.62813 28.39375Q228.97188 26.940624 231.12813 26.940624Q233.20625 26.940624 234.51875 28.3625Q235.84688 29.76875 235.84688 32.346874Q235.84688 32.503124 235.83125 32.815624L228.09688 32.815624Q228.19063 34.51875 229.06563 35.425Q229.94063 36.33125 231.2375 36.33125Q232.20625 36.33125 232.87813 35.83125Q233.56563 35.315624 233.97188 34.20625ZM228.19063 31.3625L233.9875 31.3625Q233.87813 30.065624 233.33125 29.409374Q232.4875 28.39375 231.14375 28.39375Q229.94063 28.39375 229.1125 29.20625Q228.28438 30.003124 228.19063 31.3625ZM238.33125 37.55L238.33125 35.55L240.33125 35.55L240.33125 37.55Q240.33125 38.659374 239.94063 39.33125Q239.55 40.01875 238.70625 40.378124L238.20625 39.628124Q238.76875 39.39375 239.03438 38.909374Q239.3 38.440624 239.33125 37.55L238.33125 37.55ZM251.78438 37.55L248.6125 27.175L250.425 27.175L252.08125 33.159374L252.69063 35.39375Q252.7375 35.221874 253.22188 33.253124L254.87813 27.175L256.6906 27.175L258.2375 33.190624L258.7531 35.175L259.34686 33.175L261.1281 27.175L262.83124 27.175L259.59686 37.55L257.76874 37.55L256.1125 31.33125L255.72188 29.565624L253.6125 37.55L251.78438 37.55ZM264.8625 37.55L264.8625 23.2375L266.6281 23.2375L266.6281 28.3625Q267.8625 26.940624 269.7375 26.940624Q270.8781 26.940624 271.72186 27.39375Q272.58124 27.846874 272.9406 28.659374Q273.3156 29.45625 273.3156 30.971874L273.3156 37.55L271.5656 37.55L271.5656 30.971874Q271.5656 29.659374 270.9875 29.065624Q270.40936 28.45625 269.3781 28.45625Q268.59686 28.45625 267.89374 28.8625Q267.20624 29.26875 266.90936 29.971874Q266.6281 30.659374 266.6281 31.878124L266.6281 37.55L264.8625 37.55ZM274.8781 25.253124L274.8781 23.2375L276.64374 23.2375L276.64374 25.253124L274.8781 25.253124ZM274.8781 37.55L274.8781 27.175L276.64374 27.175L276.64374 37.55L274.8781 37.55ZM285.64374 33.753124L287.3625 33.971874Q287.08124 35.76875 285.90936 36.784374Q284.7531 37.784374 283.05 37.784374Q280.925 37.784374 279.6281 36.39375Q278.33124 35.003124 278.33124 32.409374Q278.33124 30.721874 278.8781 29.471874Q279.4406 28.20625 280.58124 27.58125Q281.72186 26.940624 283.0656 26.940624Q284.7531 26.940624 285.8156 27.8Q286.89374 28.659374 287.20624 30.221874L285.4875 30.4875Q285.2531 29.440624 284.6281 28.925Q284.0031 28.39375 283.1281 28.39375Q281.8 28.39375 280.97186 29.346874Q280.14374 30.3 280.14374 32.346874Q280.14374 34.440624 280.9406 35.39375Q281.7375 36.33125 283.03436 36.33125Q284.0656 36.33125 284.7531 35.70625Q285.45624 35.065624 285.64374 33.753124ZM288.8625 37.55L288.8625 23.2375L290.6281 23.2375L290.6281 28.3625Q291.8625 26.940624 293.7375 26.940624Q294.8781 26.940624 295.72186 27.39375Q296.58124 27.846874 296.9406 28.659374Q297.3156 29.45625 297.3156 30.971874L297.3156 37.55L295.5656 37.55L295.5656 30.971874Q295.5656 29.659374 294.9875 29.065624Q294.40936 28.45625 293.3781 28.45625Q292.59686 28.45625 291.89374 28.8625Q291.20624 29.26875 290.90936 29.971874Q290.6281 30.659374 290.6281 31.878124L290.6281 37.55L288.8625 37.55ZM304.15936 34.45625L305.90936 34.175Q306.05 35.221874 306.72186 35.784374Q307.39374 36.33125 308.59686 36.33125Q309.8 36.33125 310.3781 35.846874Q310.97186 35.346874 310.97186 34.690624Q310.97186 34.096874 310.45624 33.753124Q310.09686 33.51875 308.65936 33.159374Q306.72186 32.659374 305.97186 32.315624Q305.2375 31.95625 304.84686 31.33125Q304.45624 30.690624 304.45624 29.925Q304.45624 29.2375 304.76874 28.64375Q305.09686 28.05 305.64374 27.659374Q306.05 27.3625 306.7531 27.159374Q307.47186 26.940624 308.28436 26.940624Q309.5031 26.940624 310.425 27.3Q311.34686 27.64375 311.78436 28.253124Q312.22186 28.846874 312.39374 29.846874L310.675 30.08125Q310.55 29.284374 309.9875 28.846874Q309.425 28.39375 308.40936 28.39375Q307.1906 28.39375 306.675 28.8Q306.15936 29.190624 306.15936 29.721874Q306.15936 30.065624 306.3781 30.346874Q306.58124 30.628124 307.05 30.815624Q307.3156 30.909374 308.59686 31.253124Q310.47186 31.753124 311.20624 32.08125Q311.9406 32.39375 312.3625 33.003124Q312.78436 33.596874 312.78436 34.503124Q312.78436 35.378124 312.26874 36.159374Q311.7531 36.940624 310.78436 37.3625Q309.8156 37.784374 308.59686 37.784374Q306.58124 37.784374 305.51874 36.940624Q304.45624 36.096874 304.15936 34.45625ZM314.22186 32.3625Q314.22186 29.4875 315.8156 28.096874Q317.15936 26.940624 319.08124 26.940624Q321.22186 26.940624 322.5656 28.346874Q323.925 29.753124 323.925 32.221874Q323.925 34.221874 323.33124 35.378124Q322.7375 36.51875 321.58124 37.159374Q320.4406 37.784374 319.08124 37.784374Q316.89374 37.784374 315.55 36.39375Q314.22186 34.9875 314.22186 32.3625ZM316.01874 32.3625Q316.01874 34.3625 316.8781 35.346874Q317.7531 36.33125 319.08124 36.33125Q320.39374 36.33125 321.2531 35.346874Q322.1281 34.346874 322.1281 32.3Q322.1281 30.378124 321.2531 29.39375Q320.3781 28.39375 319.08124 28.39375Q317.7531 28.39375 316.8781 29.39375Q316.01874 30.378124 316.01874 32.3625ZM332.64374 33.753124L334.3625 33.971874Q334.08124 35.76875 332.90936 36.784374Q331.7531 37.784374 330.05 37.784374Q327.925 37.784374 326.6281 36.39375Q325.33124 35.003124 325.33124 32.409374Q325.33124 30.721874 325.8781 29.471874Q326.4406 28.20625 327.58124 27.58125Q328.72186 26.940624 330.0656 26.940624Q331.7531 26.940624 332.8156 27.8Q333.89374 28.659374 334.20624 30.221874L332.4875 30.4875Q332.2531 29.440624 331.6281 28.925Q331.0031 28.39375 330.1281 28.39375Q328.8 28.39375 327.97186 29.346874Q327.14374 30.3 327.14374 32.346874Q327.14374 34.440624 327.9406 35.39375Q328.7375 36.33125 330.03436 36.33125Q331.0656 36.33125 331.7531 35.70625Q332.45624 35.065624 332.64374 33.753124ZM335.8781 25.253124L335.8781 23.2375L337.64374 23.2375L337.64374 25.253124L335.8781 25.253124ZM335.8781 37.55L335.8781 27.175L337.64374 27.175L337.64374 37.55L335.8781 37.55ZM346.64374 36.26875Q345.65936 37.096874 344.7531 37.440624Q343.84686 37.784374 342.8156 37.784374Q341.1125 37.784374 340.1906 36.95625Q339.26874 36.1125 339.26874 34.815624Q339.26874 34.05 339.6125 33.425Q339.97186 32.8 340.53436 32.425Q341.09686 32.034374 341.8 31.83125Q342.3156 31.70625 343.3625 31.565624Q345.4875 31.315624 346.4875 30.971874Q346.5031 30.6125 346.5031 30.503124Q346.5031 29.440624 346.0031 28.9875Q345.33124 28.39375 344.0031 28.39375Q342.7531 28.39375 342.15936 28.83125Q341.58124 29.26875 341.3 30.378124L339.58124 30.14375Q339.8156 29.034374 340.34686 28.3625Q340.8781 27.675 341.89374 27.315624Q342.90936 26.940624 344.2531 26.940624Q345.58124 26.940624 346.40936 27.253124Q347.2375 27.565624 347.6281 28.05Q348.01874 28.51875 348.175 29.2375Q348.26874 29.690624 348.26874 30.8625L348.26874 33.20625Q348.26874 35.659374 348.3781 36.315624Q348.4875 36.95625 348.83124 37.55L346.9875 37.55Q346.72186 37.003124 346.64374 36.26875ZM346.4875 32.346874Q345.53436 32.7375 343.6125 33.003124Q342.53436 33.159374 342.08124 33.3625Q341.64374 33.55 341.39374 33.925Q341.14374 34.3 341.14374 34.76875Q341.14374 35.471874 341.675 35.940624Q342.20624 36.409374 343.2375 36.409374Q344.2531 36.409374 345.03436 35.971874Q345.83124 35.51875 346.20624 34.753124Q346.4875 34.14375 346.4875 32.9875L346.4875 32.346874ZM350.83124 37.55L350.83124 23.2375L352.58124 23.2375L352.58124 37.55L350.83124 37.55ZM367.64374 33.753124L369.3625 33.971874Q369.08124 35.76875 367.90936 36.784374Q366.7531 37.784374 365.05 37.784374Q362.925 37.784374 361.6281 36.39375Q360.33124 35.003124 360.33124 32.409374Q360.33124 30.721874 360.8781 29.471874Q361.4406 28.20625 362.58124 27.58125Q363.72186 26.940624 365.0656 26.940624Q366.7531 26.940624 367.8156 27.8Q368.89374 28.659374 369.20624 30.221874L367.4875 30.4875Q367.2531 29.440624 366.6281 28.925Q366.0031 28.39375 365.1281 28.39375Q363.8 28.39375 362.97186 29.346874Q362.14374 30.3 362.14374 32.346874Q362.14374 34.440624 362.9406 35.39375Q363.7375 36.33125 365.03436 36.33125Q366.0656 36.33125 366.7531 35.70625Q367.45624 35.065624 367.64374 33.753124ZM370.83124 37.55L370.83124 23.2375L372.58124 23.2375L372.58124 37.55L370.83124 37.55ZM381.64374 36.26875Q380.65936 37.096874 379.7531 37.440624Q378.84686 37.784374 377.8156 37.784374Q376.1125 37.784374 375.1906 36.95625Q374.26874 36.1125 374.26874 34.815624Q374.26874 34.05 374.6125 33.425Q374.97186 32.8 375.53436 32.425Q376.09686 32.034374 376.8 31.83125Q377.3156 31.70625 378.3625 31.565624Q380.4875 31.315624 381.4875 30.971874Q381.5031 30.6125 381.5031 30.503124Q381.5031 29.440624 381.0031 28.9875Q380.33124 28.39375 379.0031 28.39375Q377.7531 28.39375 377.15936 28.83125Q376.58124 29.26875 376.3 30.378124L374.58124 30.14375Q374.8156 29.034374 375.34686 28.3625Q375.8781 27.675 376.89374 27.315624Q377.90936 26.940624 379.2531 26.940624Q380.58124 26.940624 381.40936 27.253124Q382.2375 27.565624 382.6281 28.05Q383.01874 28.51875 383.175 29.2375Q383.26874 29.690624 383.26874 30.8625L383.26874 33.20625Q383.26874 35.659374 383.3781 36.315624Q383.4875 36.95625 383.83124 37.55L381.9875 37.55Q381.72186 37.003124 381.64374 36.26875ZM381.4875 32.346874Q380.53436 32.7375 378.6125 33.003124Q377.53436 33.159374 377.08124 33.3625Q376.64374 33.55 376.39374 33.925Q376.14374 34.3 376.14374 34.76875Q376.14374 35.471874 376.675 35.940624Q377.20624 36.409374 378.2375 36.409374Q379.2531 36.409374 380.03436 35.971874Q380.83124 35.51875 381.20624 34.753124Q381.4875 34.14375 381.4875 32.9875L381.4875 32.346874ZM385.15936 34.45625L386.90936 34.175Q387.05 35.221874 387.72186 35.784374Q388.39374 36.33125 389.59686 36.33125Q390.8 36.33125 391.3781 35.846874Q391.97186 35.346874 391.97186 34.690624Q391.97186 34.096874 391.45624 33.753124Q391.09686 33.51875 389.65936 33.159374Q387.72186 32.659374 386.97186 32.315624Q386.2375 31.95625 385.84686 31.33125Q385.45624 30.690624 385.45624 29.925Q385.45624 29.2375 385.76874 28.64375Q386.09686 28.05 386.64374 27.659374Q387.05 27.3625 387.7531 27.159374Q388.47186 26.940624 389.28436 26.940624Q390.5031 26.940624 391.425 27.3Q392.34686 27.64375 392.78436 28.253124Q393.22186 28.846874 393.39374 29.846874L391.675 30.08125Q391.55 29.284374 390.9875 28.846874Q390.425 28.39375 389.40936 28.39375Q388.1906 28.39375 387.675 28.8Q387.15936 29.190624 387.15936 29.721874Q387.15936 30.065624 387.3781 30.346874Q387.58124 30.628124 388.05 30.815624Q388.3156 30.909374 389.59686 31.253124Q391.47186 31.753124 392.20624 32.08125Q392.9406 32.39375 393.3625 33.003124Q393.78436 33.596874 393.78436 34.503124Q393.78436 35.378124 393.26874 36.159374Q392.7531 36.940624 391.78436 37.3625Q390.8156 37.784374 389.59686 37.784374Q387.58124 37.784374 386.51874 36.940624Q385.45624 36.096874 385.15936 34.45625ZM395.15936 34.45625L396.90936 34.175Q397.05 35.221874 397.72186 35.784374Q398.39374 36.33125 399.59686 36.33125Q400.8 36.33125 401.3781 35.846874Q401.97186 35.346874 401.97186 34.690624Q401.97186 34.096874 401.45624 33.753124Q401.09686 33.51875 399.65936 33.159374Q397.72186 32.659374 396.97186 32.315624Q396.2375 31.95625 395.84686 31.33125Q395.45624 30.690624 395.45624 29.925Q395.45624 29.2375 395.76874 28.64375Q396.09686 28.05 396.64374 27.659374Q397.05 27.3625 397.7531 27.159374Q398.47186 26.940624 399.28436 26.940624Q400.5031 26.940624 401.425 27.3Q402.34686 27.64375 402.78436 28.253124Q403.22186 28.846874 403.39374 29.846874L401.675 30.08125Q401.55 29.284374 400.9875 28.846874Q400.425 28.39375 399.40936 28.39375Q398.1906 28.39375 397.675 28.8Q397.15936 29.190624 397.15936 29.721874Q397.15936 30.065624 397.3781 30.346874Q397.58124 30.628124 398.05 30.815624Q398.3156 30.909374 399.59686 31.253124Q401.47186 31.753124 402.20624 32.08125Q402.9406 32.39375 403.3625 33.003124Q403.78436 33.596874 403.78436 34.503124Q403.78436 35.378124 403.26874 36.159374Q402.7531 36.940624 401.78436 37.3625Q400.8156 37.784374 399.59686 37.784374Q397.58124 37.784374 396.51874 36.940624Q395.45624 36.096874 395.15936 34.45625ZM411.55 38.409374L413.2531 38.659374Q413.3625 39.45625 413.84686 39.815624Q414.5031 40.3 415.64374 40.3Q416.8625 40.3 417.51874 39.815624Q418.1906 39.33125 418.425 38.45625Q418.5656 37.909374 418.55 36.190624Q417.39374 37.55 415.675 37.55Q413.53436 37.55 412.3625 36.003124Q411.1906 34.45625 411.1906 32.3Q411.1906 30.815624 411.72186 29.565624Q412.26874 28.315624 413.28436 27.628124Q414.3156 26.940624 415.6906 26.940624Q417.51874 26.940624 418.72186 28.425L418.72186 27.175L420.33124 27.175L420.33124 36.14375Q420.33124 38.565624 419.83124 39.565624Q419.34686 40.58125 418.26874 41.159374Q417.20624 41.753124 415.64374 41.753124Q413.8 41.753124 412.64374 40.925Q411.5031 40.096874 411.55 38.409374ZM413.0031 32.175Q413.0031 34.221874 413.8156 35.159374Q414.6281 36.096874 415.84686 36.096874Q417.05 36.096874 417.8625 35.159374Q418.6906 34.221874 418.6906 32.2375Q418.6906 30.33125 417.84686 29.3625Q417.0031 28.39375 415.8156 28.39375Q414.64374 28.39375 413.8156 29.346874Q413.0031 30.3 413.0031 32.175ZM422.84686 37.55L422.84686 27.175L424.425 27.175L424.425 28.753124Q425.03436 27.64375 425.55 27.3Q426.0656 26.940624 426.675 26.940624Q427.5656 26.940624 428.4875 27.503124L427.8781 29.14375Q427.2375 28.753124 426.59686 28.753124Q426.01874 28.753124 425.55 29.1125Q425.09686 29.45625 424.89374 30.065624Q424.6125 31.003124 424.6125 32.1125L424.6125 37.55L422.84686 37.55ZM429.22186 32.3625Q429.22186 29.4875 430.8156 28.096874Q432.15936 26.940624 434.08124 26.940624Q436.22186 26.940624 437.5656 28.346874Q438.925 29.753124 438.925 32.221874Q438.925 34.221874 438.33124 35.378124Q437.7375 36.51875 436.58124 37.159374Q435.4406 37.784374 434.08124 37.784374Q431.89374 37.784374 430.55 36.39375Q429.22186 34.9875 429.22186 32.3625ZM431.01874 32.3625Q431.01874 34.3625 431.8781 35.346874Q432.7531 36.33125 434.08124 36.33125Q435.39374 36.33125 436.2531 35.346874Q437.1281 34.346874 437.1281 32.3Q437.1281 30.378124 436.2531 29.39375Q435.3781 28.39375 434.08124 28.39375Q432.7531 28.39375 431.8781 29.39375Q431.01874 30.378124 431.01874 32.3625ZM447.65936 37.55L447.65936 36.01875Q446.45624 37.784374 444.3781 37.784374Q443.45624 37.784374 442.65936 37.440624Q441.8625 37.08125 441.47186 36.55Q441.09686 36.01875 440.9406 35.2375Q440.83124 34.721874 440.83124 33.596874L440.83124 27.175L442.58124 27.175L442.58124 32.925Q442.58124 34.3 442.6906 34.784374Q442.8625 35.471874 443.39374 35.878124Q443.9406 36.26875 444.72186 36.26875Q445.51874 36.26875 446.20624 35.8625Q446.90936 35.45625 447.1906 34.76875Q447.4875 34.065624 447.4875 32.7375L447.4875 27.175L449.2375 27.175L449.2375 37.55L447.65936 37.55ZM450.8625 41.51875L450.8625 27.175L452.47186 27.175L452.47186 28.51875Q453.03436 27.7375 453.7375 27.346874Q454.45624 26.940624 455.47186 26.940624Q456.8 26.940624 457.8156 27.628124Q458.83124 28.315624 459.34686 29.565624Q459.8781 30.8 459.8781 32.284374Q459.8781 33.878124 459.3 35.159374Q458.7375 36.425 457.64374 37.1125Q456.55 37.784374 455.34686 37.784374Q454.47186 37.784374 453.76874 37.409374Q453.08124 37.034374 452.6281 36.471874L452.6281 41.51875L450.8625 41.51875ZM452.45624 32.425Q452.45624 34.425 453.26874 35.378124Q454.08124 36.33125 455.2375 36.33125Q456.40936 36.33125 457.2375 35.346874Q458.08124 34.3625 458.08124 32.26875Q458.08124 30.3 457.2531 29.315624Q456.4406 28.315624 455.3156 28.315624Q454.1906 28.315624 453.3156 29.378124Q452.45624 30.425 452.45624 32.425ZM469.78436 37.55L466.6125 27.175L468.425 27.175L470.08124 33.159374L470.6906 35.39375Q470.7375 35.221874 471.22186 33.253124L472.8781 27.175L474.6906 27.175L476.2375 33.190624L476.7531 35.175L477.34686 33.175L479.1281 27.175L480.83124 27.175L477.59686 37.55L475.76874 37.55L474.1125 31.33125L473.72186 29.565624L471.6125 37.55L469.78436 37.55ZM482.22186 32.3625Q482.22186 29.4875 483.8156 28.096874Q485.15936 26.940624 487.08124 26.940624Q489.22186 26.940624 490.5656 28.346874Q491.925 29.753124 491.925 32.221874Q491.925 34.221874 491.33124 35.378124Q490.7375 36.51875 489.58124 37.159374Q488.4406 37.784374 487.08124 37.784374Q484.89374 37.784374 483.55 36.39375Q482.22186 34.9875 482.22186 32.3625ZM484.01874 32.3625Q484.01874 34.3625 484.8781 35.346874Q485.7531 36.33125 487.08124 36.33125Q488.39374 36.33125 489.2531 35.346874Q490.1281 34.346874 490.1281 32.3Q490.1281 30.378124 489.2531 29.39375Q488.3781 28.39375 487.08124 28.39375Q485.7531 28.39375 484.8781 29.39375Q484.01874 30.378124 484.01874 32.3625ZM500.65936 37.55L500.65936 36.01875Q499.45624 37.784374 497.3781 37.784374Q496.45624 37.784374 495.65936 37.440624Q494.8625 37.08125 494.47186 36.55Q494.09686 36.01875 493.9406 35.2375Q493.83124 34.721874 493.83124 33.596874L493.83124 27.175L495.58124 27.175L495.58124 32.925Q495.58124 34.3 495.6906 34.784374Q495.8625 35.471874 496.39374 35.878124Q496.9406 36.26875 497.72186 36.26875Q498.51874 36.26875 499.20624 35.8625Q499.90936 35.45625 500.1906 34.76875Q500.4875 34.065624 500.4875 32.7375L500.4875 27.175L502.2375 27.175L502.2375 37.55L500.65936 37.55ZM503.83124 37.55L503.83124 23.2375L505.58124 23.2375L505.58124 37.55L503.83124 37.55ZM514.59686 37.55L514.59686 36.2375Q513.6125 37.784374 511.6906 37.784374Q510.45624 37.784374 509.40936 37.096874Q508.3781 36.409374 507.8 35.190624Q507.2375 33.971874 507.2375 32.378124Q507.2375 30.815624 507.7531 29.55Q508.26874 28.284374 509.3 27.6125Q510.34686 26.940624 511.6125 26.940624Q512.55 26.940624 513.28436 27.346874Q514.01874 27.7375 514.4875 28.3625L514.4875 23.2375L516.22186 23.2375L516.22186 37.55L514.59686 37.55ZM509.03436 32.378124Q509.03436 34.3625 509.8781 35.346874Q510.72186 36.33125 511.8625 36.33125Q513.01874 36.33125 513.8156 35.39375Q514.6281 34.45625 514.6281 32.51875Q514.6281 30.39375 513.8 29.39375Q512.9875 28.39375 511.78436 28.39375Q510.6125 28.39375 509.8156 29.3625Q509.03436 30.315624 509.03436 32.378124ZM524.78436 41.55L524.59686 39.89375Q525.175 40.05 525.59686 40.05Q526.1906 40.05 526.53436 39.846874Q526.89374 39.659374 527.1125 39.315624Q527.28436 39.05 527.65936 38.003124Q527.70624 37.846874 527.8156 37.565624L523.8781 27.175L525.76874 27.175L527.925 33.190624Q528.34686 34.33125 528.675 35.58125Q528.9875 34.378124 529.39374 33.221874L531.6125 27.175L533.3781 27.175L529.425 37.721874Q528.8 39.440624 528.4406 40.08125Q527.97186 40.95625 527.3625 41.346874Q526.76874 41.753124 525.925 41.753124Q525.40936 41.753124 524.78436 41.55ZM534.22186 32.3625Q534.22186 29.4875 535.8156 28.096874Q537.15936 26.940624 539.08124 26.940624Q541.22186 26.940624 542.5656 28.346874Q543.925 29.753124 543.925 32.221874Q543.925 34.221874 543.33124 35.378124Q542.7375 36.51875 541.58124 37.159374Q540.4406 37.784374 539.08124 37.784374Q536.89374 37.784374 535.55 36.39375Q534.22186 34.9875 534.22186 32.3625ZM536.01874 32.3625Q536.01874 34.3625 536.8781 35.346874Q537.7531 36.33125 539.08124 36.33125Q540.39374 36.33125 541.2531 35.346874Q542.1281 34.346874 542.1281 32.3Q542.1281 30.378124 541.2531 29.39375Q540.3781 28.39375 539.08124 28.39375Q537.7531 28.39375 536.8781 29.39375Q536.01874 30.378124 536.01874 32.3625ZM552.65936 37.55L552.65936 36.01875Q551.45624 37.784374 549.3781 37.784374Q548.45624 37.784374 547.65936 37.440624Q546.8625 37.08125 546.47186 36.55Q546.09686 36.01875 545.9406 35.2375Q545.83124 34.721874 545.83124 33.596874L545.83124 27.175L547.58124 27.175L547.58124 32.925Q547.58124 34.3 547.6906 34.784374Q547.8625 35.471874 548.39374 35.878124Q548.9406 36.26875 549.72186 36.26875Q550.51874 36.26875 551.20624 35.8625Q551.90936 35.45625 552.1906 34.76875Q552.4875 34.065624 552.4875 32.7375L552.4875 27.175L554.2375 27.175L554.2375 37.55L552.65936 37.55Z" fill-rule="nonzero"/><path fill="#757575" d="M19.8625 61.55L19.8625 47.2375L21.628124 47.2375L21.628124 52.3625Q22.8625 50.940624 24.7375 50.940624Q25.878124 50.940624 26.721874 51.39375Q27.58125 51.846874 27.940624 52.659374Q28.315624 53.45625 28.315624 54.971874L28.315624 61.55L26.565624 61.55L26.565624 54.971874Q26.565624 53.659374 25.9875 53.065624Q25.409374 52.45625 24.378124 52.45625Q23.596874 52.45625 22.89375 52.8625Q22.20625 53.26875 21.909374 53.971874Q21.628124 54.659374 21.628124 55.878124L21.628124 61.55L19.8625 61.55ZM36.64375 60.26875Q35.659374 61.096874 34.753124 61.440624Q33.846874 61.784374 32.815624 61.784374Q31.1125 61.784374 30.190624 60.95625Q29.26875 60.1125 29.26875 58.815624Q29.26875 58.05 29.6125 57.425Q29.971874 56.8 30.534374 56.425Q31.096874 56.034374 31.8 55.83125Q32.315624 55.70625 33.3625 55.565624Q35.4875 55.315624 36.4875 54.971874Q36.503124 54.6125 36.503124 54.503124Q36.503124 53.440624 36.003124 52.9875Q35.33125 52.39375 34.003124 52.39375Q32.753124 52.39375 32.159374 52.83125Q31.58125 53.26875 31.3 54.378124L29.58125 54.14375Q29.815624 53.034374 30.346874 52.3625Q30.878124 51.675 31.89375 51.315624Q32.909374 50.940624 34.253124 50.940624Q35.58125 50.940624 36.409374 51.253124Q37.2375 51.565624 37.628124 52.05Q38.01875 52.51875 38.175 53.2375Q38.26875 53.690624 38.26875 54.8625L38.26875 57.20625Q38.26875 59.659374 38.378124 60.315624Q38.4875 60.95625 38.83125 61.55L36.9875 61.55Q36.721874 61.003124 36.64375 60.26875ZM36.4875 56.346874Q35.534374 56.7375 33.6125 57.003124Q32.534374 57.159374 32.08125 57.3625Q31.64375 57.55 31.39375 57.925Q31.14375 58.3 31.14375 58.76875Q31.14375 59.471874 31.675 59.940624Q32.20625 60.409374 33.2375 60.409374Q34.253124 60.409374 35.034374 59.971874Q35.83125 59.51875 36.20625 58.753124Q36.4875 58.14375 36.4875 56.9875L36.4875 56.346874ZM43.753124 61.55L39.8 51.175L41.659374 51.175L43.89375 57.39375Q44.253124 58.39375 44.55 59.471874Q44.784374 58.659374 45.20625 57.503124L47.503124 51.175L49.315624 51.175L45.39375 61.55L43.753124 61.55ZM56.971874 58.20625L58.784374 58.440624Q58.3625 60.01875 57.190624 60.909374Q56.034374 61.784374 54.221874 61.784374Q51.95625 61.784374 50.6125 60.39375Q49.284374 58.9875 49.284374 56.45625Q49.284374 53.83125 50.628124 52.39375Q51.971874 50.940624 54.128124 50.940624Q56.20625 50.940624 57.51875 52.3625Q58.846874 53.76875 58.846874 56.346874Q58.846874 56.503124 58.83125 56.815624L51.096874 56.815624Q51.190624 58.51875 52.065624 59.425Q52.940624 60.33125 54.2375 60.33125Q55.20625 60.33125 55.878124 59.83125Q56.565624 59.315624 56.971874 58.20625ZM51.190624 55.3625L56.9875 55.3625Q56.878124 54.065624 56.33125 53.409374Q55.4875 52.39375 54.14375 52.39375Q52.940624 52.39375 52.1125 53.20625Q51.284374 54.003124 51.190624 55.3625ZM66.87813 49.253124L66.87813 47.2375L68.64375 47.2375L68.64375 49.253124L66.87813 49.253124ZM66.87813 61.55L66.87813 51.175L68.64375 51.175L68.64375 61.55L66.87813 61.55ZM77.59688 61.55L77.59688 60.2375Q76.6125 61.784374 74.69063 61.784374Q73.45625 61.784374 72.40938 61.096874Q71.37813 60.409374 70.8 59.190624Q70.2375 57.971874 70.2375 56.378124Q70.2375 54.815624 70.75313 53.55Q71.26875 52.284374 72.3 51.6125Q73.34688 50.940624 74.6125 50.940624Q75.55 50.940624 76.28438 51.346874Q77.01875 51.7375 77.4875 52.3625L77.4875 47.2375L79.22188 47.2375L79.22188 61.55L77.59688 61.55ZM72.03438 56.378124Q72.03438 58.3625 72.87813 59.346874Q73.72188 60.33125 74.8625 60.33125Q76.01875 60.33125 76.81563 59.39375Q77.62813 58.45625 77.62813 56.51875Q77.62813 54.39375 76.8 53.39375Q75.9875 52.39375 74.78438 52.39375Q73.6125 52.39375 72.81563 53.3625Q72.03438 54.315624 72.03438 56.378124ZM88.97188 58.20625L90.78438 58.440624Q90.3625 60.01875 89.19063 60.909374Q88.03438 61.784374 86.22188 61.784374Q83.95625 61.784374 82.6125 60.39375Q81.28438 58.9875 81.28438 56.45625Q81.28438 53.83125 82.62813 52.39375Q83.97188 50.940624 86.12813 50.940624Q88.20625 50.940624 89.51875 52.3625Q90.84688 53.76875 90.84688 56.346874Q90.84688 56.503124 90.83125 56.815624L83.09688 56.815624Q83.19063 58.51875 84.06563 59.425Q84.94063 60.33125 86.2375 60.33125Q87.20625 60.33125 87.87813 59.83125Q88.56563 59.315624 88.97188 58.20625ZM83.19063 55.3625L88.9875 55.3625Q88.87813 54.065624 88.33125 53.409374Q87.4875 52.39375 86.14375 52.39375Q84.94063 52.39375 84.1125 53.20625Q83.28438 54.003124 83.19063 55.3625ZM92.8625 61.55L92.8625 51.175L94.45625 51.175L94.45625 52.659374Q95.59688 50.940624 97.75313 50.940624Q98.69063 50.940624 99.47188 51.284374Q100.26875 51.6125 100.65938 52.159374Q101.05 52.70625 101.20625 53.45625Q101.3 53.95625 101.3 55.175L101.3 61.55L99.53438 61.55L99.53438 55.2375Q99.53438 54.159374 99.33125 53.628124Q99.12813 53.096874 98.59688 52.784374Q98.08125 52.471874 97.37813 52.471874Q96.25313 52.471874 95.44063 53.190624Q94.62813 53.89375 94.62813 55.878124L94.62813 61.55L92.8625 61.55ZM106.70625 59.971874L106.95625 61.534374Q106.22188 61.690624 105.62813 61.690624Q104.675 61.690624 104.14375 61.39375Q103.62813 61.08125 103.40938 60.596874Q103.19063 60.096874 103.19063 58.51875L103.19063 52.55L101.90938 52.55L101.90938 51.175L103.19063 51.175L103.19063 48.6125L104.94063 47.55L104.94063 51.175L106.70625 51.175L106.70625 52.55L104.94063 52.55L104.94063 58.6125Q104.94063 59.3625 105.03438 59.58125Q105.12813 59.784374 105.33125 59.925Q105.55 60.05 105.94063 60.05Q106.22188 60.05 106.70625 59.971874ZM108.87813 49.253124L108.87813 47.2375L110.64375 47.2375L110.64375 49.253124L108.87813 49.253124ZM108.87813 61.55L108.87813 51.175L110.64375 51.175L110.64375 61.55L108.87813 61.55ZM113.28438 61.55L113.28438 52.55L111.7375 52.55L111.7375 51.175L113.28438 51.175L113.28438 50.08125Q113.28438 49.034374 113.47188 48.51875Q113.72188 47.83125 114.3625 47.409374Q115.00313 46.9875 116.15938 46.9875Q116.90938 46.9875 117.8 47.159374L117.53438 48.690624Q116.9875 48.596874 116.50313 48.596874Q115.70625 48.596874 115.3625 48.940624Q115.03438 49.284374 115.03438 50.221874L115.03438 51.175L117.06563 51.175L117.06563 52.55L115.03438 52.55L115.03438 61.55L113.28438 61.55ZM118.87813 49.253124L118.87813 47.2375L120.64375 47.2375L120.64375 49.253124L118.87813 49.253124ZM118.87813 61.55L118.87813 51.175L120.64375 51.175L120.64375 61.55L118.87813 61.55ZM129.97188 58.20625L131.78438 58.440624Q131.3625 60.01875 130.19063 60.909374Q129.03438 61.784374 127.22188 61.784374Q124.95625 61.784374 123.6125 60.39375Q122.28438 58.9875 122.28438 56.45625Q122.28438 53.83125 123.62813 52.39375Q124.97188 50.940624 127.12813 50.940624Q129.20625 50.940624 130.51875 52.3625Q131.84688 53.76875 131.84688 56.346874Q131.84688 56.503124 131.83125 56.815624L124.09688 56.815624Q124.19063 58.51875 125.06563 59.425Q125.94063 60.33125 127.2375 60.33125Q128.20625 60.33125 128.87813 59.83125Q129.56563 59.315624 129.97188 58.20625ZM124.19063 55.3625L129.9875 55.3625Q129.87813 54.065624 129.33125 53.409374Q128.4875 52.39375 127.14375 52.39375Q125.94063 52.39375 125.1125 53.20625Q124.28438 54.003124 124.19063 55.3625ZM140.59688 61.55L140.59688 60.2375Q139.6125 61.784374 137.69063 61.784374Q136.45625 61.784374 135.40938 61.096874Q134.37813 60.409374 133.8 59.190624Q133.2375 57.971874 133.2375 56.378124Q133.2375 54.815624 133.75313 53.55Q134.26875 52.284374 135.3 51.6125Q136.34688 50.940624 137.6125 50.940624Q138.55 50.940624 139.28438 51.346874Q140.01875 51.7375 140.4875 52.3625L140.4875 47.2375L142.22188 47.2375L142.22188 61.55L140.59688 61.55ZM135.03438 56.378124Q135.03438 58.3625 135.87813 59.346874Q136.72188 60.33125 137.8625 60.33125Q139.01875 60.33125 139.81563 59.39375Q140.62813 58.45625 140.62813 56.51875Q140.62813 54.39375 139.8 53.39375Q138.9875 52.39375 137.78438 52.39375Q136.6125 52.39375 135.81563 53.3625Q135.03438 54.315624 135.03438 56.378124ZM152.78438 61.55L149.6125 51.175L151.425 51.175L153.08125 57.159374L153.69063 59.39375Q153.7375 59.221874 154.22188 57.253124L155.87813 51.175L157.69063 51.175L159.2375 57.190624L159.75313 59.175L160.34688 57.175L162.12813 51.175L163.83125 51.175L160.59688 61.55L158.76875 61.55L157.1125 55.33125L156.72188 53.565624L154.6125 61.55L152.78438 61.55ZM165.87813 49.253124L165.87813 47.2375L167.64375 47.2375L167.64375 49.253124L165.87813 49.253124ZM165.87813 61.55L165.87813 51.175L167.64375 51.175L167.64375 61.55L165.87813 61.55ZM173.70625 59.971874L173.95625 61.534374Q173.22188 61.690624 172.62813 61.690624Q171.675 61.690624 171.14375 61.39375Q170.62813 61.08125 170.40938 60.596874Q170.19063 60.096874 170.19063 58.51875L170.19063 52.55L168.90938 52.55L168.90938 51.175L170.19063 51.175L170.19063 48.6125L171.94063 47.55L171.94063 51.175L173.70625 51.175L173.70625 52.55L171.94063 52.55L171.94063 58.6125Q171.94063 59.3625 172.03438 59.58125Q172.12813 59.784374 172.33125 59.925Q172.55 60.05 172.94063 60.05Q173.22188 60.05 173.70625 59.971874ZM175.8625 61.55L175.8625 47.2375L177.62813 47.2375L177.62813 52.3625Q178.8625 50.940624 180.7375 50.940624Q181.87813 50.940624 182.72188 51.39375Q183.58125 51.846874 183.94063 52.659374Q184.31563 53.45625 184.31563 54.971874L184.31563 61.55L182.56563 61.55L182.56563 54.971874Q182.56563 53.659374 181.9875 53.065624Q181.40938 52.45625 180.37813 52.45625Q179.59688 52.45625 178.89375 52.8625Q178.20625 53.26875 177.90938 53.971874Q177.62813 54.659374 177.62813 55.878124L177.62813 61.55L175.8625 61.55ZM189.15938 58.01875Q189.14375 57.675 189.14375 57.503124Q189.14375 56.45625 189.44063 55.70625Q189.65938 55.14375 190.14375 54.565624Q190.4875 54.14375 191.39375 53.346874Q192.31563 52.534374 192.58125 52.065624Q192.8625 51.58125 192.8625 51.01875Q192.8625 49.9875 192.05 49.221874Q191.25313 48.440624 190.09688 48.440624Q188.97188 48.440624 188.22188 49.14375Q187.47188 49.846874 187.2375 51.33125L185.425 51.1125Q185.675 49.1125 186.87813 48.05Q188.08125 46.9875 190.06563 46.9875Q192.175 46.9875 193.425 48.128124Q194.675 49.26875 194.675 50.89375Q194.675 51.83125 194.22188 52.628124Q193.78438 53.409374 192.50313 54.55Q191.64375 55.315624 191.37813 55.675Q191.12813 56.034374 190.9875 56.503124Q190.8625 56.971874 190.84688 58.01875L189.15938 58.01875ZM189.05 61.55L189.05 59.55L191.05 59.55L191.05 61.55L189.05 61.55Z" fill-rule="nonzero"/></svg>