<svg version="1.1" viewBox="0.0 0.0 600.0 371.0" fill="none" stroke="none" stroke-linecap="square" stroke-miterlimit="10" width="600" height="371" xmlns:xlink="http://www.w3.org/1999/xlink" xmlns="http://www.w3.org/2000/svg"><path fill="#ffffff" d="M0 0L600.0 0L600.0 371.0L0 371.0L0 0Z" fill-rule="nonzero"/><path stroke="#333333" stroke-width="1.0" stroke-linecap="butt" d="M45.5 332.5L581.5 332.5" fill-rule="nonzero"/><path stroke="#cccccc" stroke-width="1.0" stroke-linecap="butt" d="M45.5 264.5L581.5 264.5" fill-rule="nonzero"/><path stroke="#cccccc" stroke-width="1.0" stroke-linecap="butt" d="M45.5 197.5L581.5 197.5" fill-rule="nonzero"/><path stroke="#cccccc" stroke-width="1.0" stroke-linecap="butt" d="M45.5 129.5L581.5 129.5" fill-rule="nonzero"/><path stroke="#cccccc" stroke-width="1.0" stroke-linecap="butt" d="M45.5 61.5L581.5 61.5" fill-rule="nonzero"/><clipPath id="id_0"><path d="M45.55 61.916668L581.45 61.916668L581.45 332.45L45.55 332.45L45.55 61.916668Z" clip-rule="nonzero"/></clipPath><path stroke="#000000" stroke-width="2.0" stroke-linecap="butt" stroke-opacity="0.0" clip-path="url(#id_0)" d="M273.0 332.0L125.0 332.0L125.0 118.0C125.0 116.89543 125.89543 116.0 127.0 116.0L271.0 116.0C272.10458 116.0 273.0 116.89543 273.0 118.0Z" fill-rule="nonzero"/><path fill="#4285f4" clip-path="url(#id_0)" d="M273.0 332.0L125.0 332.0L125.0 118.0C125.0 116.89543 125.89543 116.0 127.0 116.0L271.0 116.0C272.10458 116.0 273.0 116.89543 273.0 118.0Z" fill-rule="nonzero"/><path stroke="#000000" stroke-width="2.0" stroke-linecap="butt" stroke-opacity="0.0" clip-path="url(#id_0)" d="M502.0 332.0L354.0 332.0L354.0 314.0C354.0 312.89542 354.89542 312.0 356.0 312.0L500.0 312.0C501.10458 312.0 502.0 312.89542 502.0 314.0Z" fill-rule="nonzero"/><path fill="#4285f4" clip-path="url(#id_0)" d="M502.0 332.0L354.0 332.0L354.0 314.0C354.0 312.89542 354.89542 312.0 356.0 312.0L500.0 312.0C501.10458 312.0 502.0 312.89542 502.0 314.0Z" fill-rule="nonzero"/><path fill="#000000" d="M33.05 332.21564Q33.05 330.6844 33.3625 329.7625Q33.675 328.825 34.284374 328.325Q34.909374 327.825 35.846874 327.825Q36.534374 327.825 37.05 328.10626Q37.58125 328.3875 37.925 328.91876Q38.26875 329.4344 38.45625 330.1844Q38.64375 330.9344 38.64375 332.21564Q38.64375 333.73126 38.33125 334.65314Q38.034374 335.575 37.409374 336.09064Q36.8 336.59064 35.846874 336.59064Q34.6125 336.59064 33.89375 335.7Q33.05 334.6375 33.05 332.21564ZM34.128124 332.21564Q34.128124 334.325 34.628124 335.02814Q35.128124 335.73126 35.846874 335.73126Q36.58125 335.73126 37.065624 335.02814Q37.565624 334.325 37.565624 332.21564Q37.565624 330.09064 37.065624 329.40314Q36.58125 328.7 35.83125 328.7Q35.1125 328.7 34.675 329.3094Q34.128124 330.09064 34.128124 332.21564Z" fill-rule="nonzero"/><path fill="#000000" d="M30.01875 268.81668L28.971874 268.81668L28.971874 262.09793Q28.58125 262.4573 27.95625 262.8323Q27.346874 263.19168 26.8625 263.36356L26.8625 262.34793Q27.7375 261.92606 28.39375 261.34793Q29.065624 260.75418 29.346874 260.19168L30.01875 260.19168L30.01875 268.81668ZM33.05 264.5823Q33.05 263.05106 33.3625 262.12918Q33.675 261.19168 34.284374 260.69168Q34.909374 260.19168 35.846874 260.19168Q36.534374 260.19168 37.05 260.47293Q37.58125 260.75418 37.925 261.28543Q38.26875 261.80106 38.45625 262.55106Q38.64375 263.30106 38.64375 264.5823Q38.64375 266.09793 38.33125 267.0198Q38.034374 267.94168 37.409374 268.4573Q36.8 268.9573 35.846874 268.9573Q34.6125 268.9573 33.89375 268.06668Q33.05 267.00418 33.05 264.5823ZM34.128124 264.5823Q34.128124 266.69168 34.628124 267.3948Q35.128124 268.09793 35.846874 268.09793Q36.58125 268.09793 37.065624 267.3948Q37.565624 266.69168 37.565624 264.5823Q37.565624 262.4573 37.065624 261.7698Q36.58125 261.06668 35.83125 261.06668Q35.1125 261.06668 34.675 261.67606Q34.128124 262.4573 34.128124 264.5823Z" fill-rule="nonzero"/><path fill="#000000" d="M31.596874 200.16771L31.596874 201.18333L25.909374 201.18333Q25.909374 200.80833 26.034374 200.44896Q26.253124 199.87083 26.721874 199.30833Q27.20625 198.74583 28.1125 198.01146Q29.51875 196.85521 30.003124 196.18333Q30.503124 195.51146 30.503124 194.91771Q30.503124 194.29271 30.05 193.87083Q29.596874 193.43333 28.878124 193.43333Q28.1125 193.43333 27.659374 193.88646Q27.20625 194.33958 27.190624 195.15208L26.1125 195.04271Q26.221874 193.82396 26.940624 193.19896Q27.675 192.55833 28.909374 192.55833Q30.14375 192.55833 30.8625 193.24583Q31.58125 193.93333 31.58125 194.94896Q31.58125 195.46458 31.3625 195.96458Q31.159374 196.44896 30.659374 197.01146Q30.175 197.55833 29.05 198.51146Q28.096874 199.30833 27.815624 199.60521Q27.55 199.88646 27.378124 200.16771L31.596874 200.16771ZM33.05 196.94896Q33.05 195.41771 33.3625 194.49583Q33.675 193.55833 34.284374 193.05833Q34.909374 192.55833 35.846874 192.55833Q36.534374 192.55833 37.05 192.83958Q37.58125 193.12083 37.925 193.65208Q38.26875 194.16771 38.45625 194.91771Q38.64375 195.66771 38.64375 196.94896Q38.64375 198.46458 38.33125 199.38646Q38.034374 200.30833 37.409374 200.82396Q36.8 201.32396 35.846874 201.32396Q34.6125 201.32396 33.89375 200.43333Q33.05 199.37083 33.05 196.94896ZM34.128124 196.94896Q34.128124 199.05833 34.628124 199.76146Q35.128124 200.46458 35.846874 200.46458Q36.58125 200.46458 37.065624 199.76146Q37.565624 199.05833 37.565624 196.94896Q37.565624 194.82396 37.065624 194.13646Q36.58125 193.43333 35.83125 193.43333Q35.1125 193.43333 34.675 194.04271Q34.128124 194.82396 34.128124 196.94896Z" fill-rule="nonzero"/><path fill="#000000" d="M26.05 131.28438L27.1125 131.14375Q27.284374 132.03438 27.721874 132.44063Q28.159374 132.83125 28.784374 132.83125Q29.534374 132.83125 30.05 132.31563Q30.565624 131.8 30.565624 131.03438Q30.565624 130.31563 30.08125 129.84688Q29.6125 129.3625 28.878124 129.3625Q28.58125 129.3625 28.128124 129.4875L28.253124 128.55Q28.3625 128.56563 28.425 128.56563Q29.096874 128.56563 29.628124 128.22188Q30.175 127.8625 30.175 127.12813Q30.175 126.55 29.784374 126.175Q29.39375 125.78438 28.76875 125.78438Q28.159374 125.78438 27.7375 126.175Q27.33125 126.56563 27.221874 127.33125L26.159374 127.14375Q26.346874 126.09688 27.034374 125.51875Q27.721874 124.925 28.7375 124.925Q29.440624 124.925 30.034374 125.2375Q30.628124 125.53438 30.940624 126.05Q31.253124 126.56563 31.253124 127.15938Q31.253124 127.70625 30.95625 128.175Q30.659374 128.62813 30.08125 128.89375Q30.83125 129.06563 31.253124 129.62813Q31.675 130.175 31.675 131.01875Q31.675 132.14375 30.846874 132.925Q30.034374 133.70625 28.784374 133.70625Q27.659374 133.70625 26.909374 133.03438Q26.159374 132.34688 26.05 131.28438ZM33.05 129.31563Q33.05 127.78438 33.3625 126.8625Q33.675 125.925 34.284374 125.425Q34.909374 124.925 35.846874 124.925Q36.534374 124.925 37.05 125.20625Q37.58125 125.4875 37.925 126.01875Q38.26875 126.53438 38.45625 127.28438Q38.64375 128.03438 38.64375 129.31563Q38.64375 130.83125 38.33125 131.75313Q38.034374 132.675 37.409374 133.19063Q36.8 133.69063 35.846874 133.69063Q34.6125 133.69063 33.89375 132.8Q33.05 131.7375 33.05 129.31563ZM34.128124 129.31563Q34.128124 131.425 34.628124 132.12813Q35.128124 132.83125 35.846874 132.83125Q36.58125 132.83125 37.065624 132.12813Q37.565624 131.425 37.565624 129.31563Q37.565624 127.19063 37.065624 126.50313Q36.58125 125.8 35.83125 125.8Q35.1125 125.8 34.675 126.40938Q34.128124 127.19063 34.128124 129.31563Z" fill-rule="nonzero"/><path fill="#000000" d="M29.425 65.916664L29.425 63.854164L25.70625 63.854164L25.70625 62.885414L29.628124 57.322914L30.4875 57.322914L30.4875 62.885414L31.64375 62.885414L31.64375 63.854164L30.4875 63.854164L30.4875 65.916664L29.425 65.916664ZM29.425 62.885414L29.425 59.02604L26.7375 62.885414L29.425 62.885414ZM33.05 61.68229Q33.05 60.15104 33.3625 59.229164Q33.675 58.291664 34.284374 57.791664Q34.909374 57.291664 35.846874 57.291664Q36.534374 57.291664 37.05 57.572914Q37.58125 57.854164 37.925 58.385414Q38.26875 58.90104 38.45625 59.65104Q38.64375 60.40104 38.64375 61.68229Q38.64375 63.197914 38.33125 64.11979Q38.034374 65.041664 37.409374 65.55729Q36.8 66.05729 35.846874 66.05729Q34.6125 66.05729 33.89375 65.166664Q33.05 64.104164 33.05 61.68229ZM34.128124 61.68229Q34.128124 63.791664 34.628124 64.49479Q35.128124 65.197914 35.846874 65.197914Q36.58125 65.197914 37.065624 64.49479Q37.565624 63.791664 37.565624 61.68229Q37.565624 59.55729 37.065624 58.86979Q36.58125 58.166664 35.83125 58.166664Q35.1125 58.166664 34.675 58.77604Q34.128124 59.55729 34.128124 61.68229Z" fill-rule="nonzero"/><path fill="#000000" d="M192.4006 349.45L192.4006 340.85626L193.55685 340.85626L198.07248 347.60626L198.07248 340.85626L199.16623 340.85626L199.16623 349.45L197.99435 349.45L193.47873 342.7L193.47873 349.45L192.4006 349.45ZM200.88498 346.34064Q200.88498 344.60626 201.8381 343.77814Q202.63498 343.09064 203.79123 343.09064Q205.07248 343.09064 205.88498 343.9344Q206.7131 344.7625 206.7131 346.2469Q206.7131 347.45 206.35373 348.1375Q205.99435 348.825 205.29123 349.21564Q204.60373 349.59064 203.79123 349.59064Q202.49435 349.59064 201.68185 348.7625Q200.88498 347.91876 200.88498 346.34064ZM201.9631 346.34064Q201.9631 347.52814 202.47873 348.1219Q203.00998 348.71564 203.79123 348.71564Q204.5881 348.71564 205.10373 348.1219Q205.61935 347.52814 205.61935 346.3094Q205.61935 345.15314 205.0881 344.5594Q204.57248 343.96564 203.79123 343.96564Q203.00998 343.96564 202.47873 344.5594Q201.9631 345.1375 201.9631 346.34064Z" fill-rule="nonzero"/><path fill="#000000" d="M420.36502 349.45L420.36502 345.8094L417.05252 340.85626L418.44315 340.85626L420.13065 343.45Q420.5994 344.16876 421.00565 344.90314Q421.39627 344.23126 421.94315 343.3875L423.61502 340.85626L424.92752 340.85626L421.50565 345.8094L421.50565 349.45L420.36502 349.45ZM429.06815 347.45L430.1619 347.575Q429.9119 348.52814 429.20877 349.0594Q428.50565 349.59064 427.42752 349.59064Q426.06815 349.59064 425.25565 348.7469Q424.45877 347.90314 424.45877 346.3875Q424.45877 344.825 425.27127 343.96564Q426.08377 343.09064 427.36502 343.09064Q428.61502 343.09064 429.39627 343.9344Q430.19315 344.77814 430.19315 346.325Q430.19315 346.41876 430.19315 346.60626L425.55252 346.60626Q425.61502 347.6375 426.13065 348.1844Q426.64627 348.71564 427.42752 348.71564Q428.00565 348.71564 428.4119 348.41876Q428.83377 348.10626 429.06815 347.45ZM425.61502 345.7469L429.08377 345.7469Q429.02127 344.95 428.69315 344.5594Q428.17752 343.95 427.38065 343.95Q426.64627 343.95 426.14627 344.4344Q425.6619 344.91876 425.61502 345.7469ZM431.39627 347.59064L432.42752 347.4344Q432.52127 348.0594 432.9119 348.3875Q433.31815 348.71564 434.05252 348.71564Q434.77127 348.71564 435.11502 348.4344Q435.4744 348.1375 435.4744 347.73126Q435.4744 347.3719 435.1619 347.16876Q434.94315 347.02814 434.08377 346.8094Q432.92752 346.5125 432.4744 346.3094Q432.0369 346.09064 431.80252 345.71564Q431.56815 345.34064 431.56815 344.8719Q431.56815 344.46564 431.75565 344.10626Q431.94315 343.7469 432.27127 343.5125Q432.52127 343.34064 432.94315 343.21564Q433.36502 343.09064 433.86502 343.09064Q434.58377 343.09064 435.13065 343.3094Q435.69315 343.5125 435.95877 343.8719Q436.2244 344.23126 436.31815 344.825L435.2869 344.96564Q435.2244 344.4969 434.88065 344.23126Q434.55252 343.95 433.92752 343.95Q433.20877 343.95 432.89627 344.2Q432.58377 344.4344 432.58377 344.7625Q432.58377 344.96564 432.70877 345.1219Q432.8494 345.29376 433.11502 345.40314Q433.27127 345.46564 434.05252 345.66876Q435.17752 345.98126 435.61502 346.16876Q436.05252 346.35626 436.30252 346.71564Q436.55252 347.075 436.55252 347.6219Q436.55252 348.15314 436.24002 348.6219Q435.94315 349.075 435.36502 349.34064Q434.7869 349.59064 434.05252 349.59064Q432.83377 349.59064 432.19315 349.09064Q431.56815 348.575 431.39627 347.59064Z" fill-rule="nonzero"/><path fill="#757575" d="M18.51875 37.55L24.01875 23.2375L26.065624 23.2375L31.925 37.55L29.76875 37.55L28.096874 33.20625L22.1125 33.20625L20.534374 37.55L18.51875 37.55ZM22.659374 31.675L27.503124 31.675L26.01875 27.70625Q25.33125 25.89375 25.003124 24.7375Q24.721874 26.1125 24.221874 27.471874L22.659374 31.675ZM32.846874 37.55L32.846874 27.175L34.425 27.175L34.425 28.753124Q35.034374 27.64375 35.55 27.3Q36.065624 26.940624 36.675 26.940624Q37.565624 26.940624 38.4875 27.503124L37.878124 29.14375Q37.2375 28.753124 36.596874 28.753124Q36.01875 28.753124 35.55 29.1125Q35.096874 29.45625 34.89375 30.065624Q34.6125 31.003124 34.6125 32.1125L34.6125 37.55L32.846874 37.55ZM46.971874 34.20625L48.784374 34.440624Q48.3625 36.01875 47.190624 36.909374Q46.034374 37.784374 44.221874 37.784374Q41.95625 37.784374 40.6125 36.39375Q39.284374 34.9875 39.284374 32.45625Q39.284374 29.83125 40.628124 28.39375Q41.971874 26.940624 44.128124 26.940624Q46.20625 26.940624 47.51875 28.3625Q48.846874 29.76875 48.846874 32.346874Q48.846874 32.503124 48.83125 32.815624L41.096874 32.815624Q41.190624 34.51875 42.065624 35.425Q42.940624 36.33125 44.2375 36.33125Q45.20625 36.33125 45.878124 35.83125Q46.565624 35.315624 46.971874 34.20625ZM41.190624 31.3625L46.9875 31.3625Q46.878124 30.065624 46.33125 29.409374Q45.4875 28.39375 44.14375 28.39375Q42.940624 28.39375 42.1125 29.20625Q41.284374 30.003124 41.190624 31.3625ZM55.55 37.8L59.70625 22.9875L61.1125 22.9875L56.971874 37.8L55.55 37.8ZM70.78438 37.55L67.6125 27.175L69.425 27.175L71.08125 33.159374L71.69063 35.39375Q71.7375 35.221874 72.22188 33.253124L73.87813 27.175L75.69063 27.175L77.2375 33.190624L77.75313 35.175L78.34688 33.175L80.12813 27.175L81.83125 27.175L78.59688 37.55L76.76875 37.55L75.1125 31.33125L74.72188 29.565624L72.6125 37.55L70.78438 37.55ZM90.97188 34.20625L92.78438 34.440624Q92.3625 36.01875 91.19063 36.909374Q90.03438 37.784374 88.22188 37.784374Q85.95625 37.784374 84.6125 36.39375Q83.28438 34.9875 83.28438 32.45625Q83.28438 29.83125 84.62813 28.39375Q85.97188 26.940624 88.12813 26.940624Q90.20625 26.940624 91.51875 28.3625Q92.84688 29.76875 92.84688 32.346874Q92.84688 32.503124 92.83125 32.815624L85.09688 32.815624Q85.19063 34.51875 86.06563 35.425Q86.94063 36.33125 88.2375 36.33125Q89.20625 36.33125 89.87813 35.83125Q90.56563 35.315624 90.97188 34.20625ZM85.19063 31.3625L90.9875 31.3625Q90.87813 30.065624 90.33125 29.409374Q89.4875 28.39375 88.14375 28.39375Q86.94063 28.39375 86.1125 29.20625Q85.28438 30.003124 85.19063 31.3625ZM94.84688 37.55L94.84688 27.175L96.425 27.175L96.425 28.753124Q97.03438 27.64375 97.55 27.3Q98.06563 26.940624 98.675 26.940624Q99.56563 26.940624 100.4875 27.503124L99.87813 29.14375Q99.2375 28.753124 98.59688 28.753124Q98.01875 28.753124 97.55 29.1125Q97.09688 29.45625 96.89375 30.065624Q96.6125 31.003124 96.6125 32.1125L96.6125 37.55L94.84688 37.55ZM108.97188 34.20625L110.78438 34.440624Q110.3625 36.01875 109.19063 36.909374Q108.03438 37.784374 106.22188 37.784374Q103.95625 37.784374 102.6125 36.39375Q101.28438 34.9875 101.28438 32.45625Q101.28438 29.83125 102.62813 28.39375Q103.97188 26.940624 106.12813 26.940624Q108.20625 26.940624 109.51875 28.3625Q110.84688 29.76875 110.84688 32.346874Q110.84688 32.503124 110.83125 32.815624L103.09688 32.815624Q103.19063 34.51875 104.06563 35.425Q104.94063 36.33125 106.2375 36.33125Q107.20625 36.33125 107.87813 35.83125Q108.56563 35.315624 108.97188 34.20625ZM103.19063 31.3625L108.9875 31.3625Q108.87813 30.065624 108.33125 29.409374Q107.4875 28.39375 106.14375 28.39375Q104.94063 28.39375 104.1125 29.20625Q103.28438 30.003124 103.19063 31.3625ZM118.78438 41.55L118.59688 39.89375Q119.175 40.05 119.59688 40.05Q120.19063 40.05 120.53438 39.846874Q120.89375 39.659374 121.1125 39.315624Q121.28438 39.05 121.65938 38.003124Q121.70625 37.846874 121.81563 37.565624L117.87813 27.175L119.76875 27.175L121.925 33.190624Q122.34688 34.33125 122.675 35.58125Q122.9875 34.378124 123.39375 33.221874L125.6125 27.175L127.37813 27.175L123.425 37.721874Q122.8 39.440624 122.44063 40.08125Q121.97188 40.95625 121.3625 41.346874Q120.76875 41.753124 119.925 41.753124Q119.40938 41.753124 118.78438 41.55ZM128.22188 32.3625Q128.22188 29.4875 129.81563 28.096874Q131.15938 26.940624 133.08125 26.940624Q135.22188 26.940624 136.56563 28.346874Q137.925 29.753124 137.925 32.221874Q137.925 34.221874 137.33125 35.378124Q136.7375 36.51875 135.58125 37.159374Q134.44063 37.784374 133.08125 37.784374Q130.89375 37.784374 129.55 36.39375Q128.22188 34.9875 128.22188 32.3625ZM130.01875 32.3625Q130.01875 34.3625 130.87813 35.346874Q131.75313 36.33125 133.08125 36.33125Q134.39375 36.33125 135.25313 35.346874Q136.12813 34.346874 136.12813 32.3Q136.12813 30.378124 135.25313 29.39375Q134.37813 28.39375 133.08125 28.39375Q131.75313 28.39375 130.87813 29.39375Q130.01875 30.378124 130.01875 32.3625ZM146.65938 37.55L146.65938 36.01875Q145.45625 37.784374 143.37813 37.784374Q142.45625 37.784374 141.65938 37.440624Q140.8625 37.08125 140.47188 36.55Q140.09688 36.01875 139.94063 35.2375Q139.83125 34.721874 139.83125 33.596874L139.83125 27.175L141.58125 27.175L141.58125 32.925Q141.58125 34.3 141.69063 34.784374Q141.8625 35.471874 142.39375 35.878124Q142.94063 36.26875 143.72188 36.26875Q144.51875 36.26875 145.20625 35.8625Q145.90938 35.45625 146.19063 34.76875Q146.4875 34.065624 146.4875 32.7375L146.4875 27.175L148.2375 27.175L148.2375 37.55L146.65938 37.55ZM162.64375 36.26875Q161.65938 37.096874 160.75313 37.440624Q159.84688 37.784374 158.81563 37.784374Q157.1125 37.784374 156.19063 36.95625Q155.26875 36.1125 155.26875 34.815624Q155.26875 34.05 155.6125 33.425Q155.97188 32.8 156.53438 32.425Q157.09688 32.034374 157.8 31.83125Q158.31563 31.70625 159.3625 31.565624Q161.4875 31.315624 162.4875 30.971874Q162.50313 30.6125 162.50313 30.503124Q162.50313 29.440624 162.00313 28.9875Q161.33125 28.39375 160.00313 28.39375Q158.75313 28.39375 158.15938 28.83125Q157.58125 29.26875 157.3 30.378124L155.58125 30.14375Q155.81563 29.034374 156.34688 28.3625Q156.87813 27.675 157.89375 27.315624Q158.90938 26.940624 160.25313 26.940624Q161.58125 26.940624 162.40938 27.253124Q163.2375 27.565624 163.62813 28.05Q164.01875 28.51875 164.175 29.2375Q164.26875 29.690624 164.26875 30.8625L164.26875 33.20625Q164.26875 35.659374 164.37813 36.315624Q164.4875 36.95625 164.83125 37.55L162.9875 37.55Q162.72188 37.003124 162.64375 36.26875ZM162.4875 32.346874Q161.53438 32.7375 159.6125 33.003124Q158.53438 33.159374 158.08125 33.3625Q157.64375 33.55 157.39375 33.925Q157.14375 34.3 157.14375 34.76875Q157.14375 35.471874 157.675 35.940624Q158.20625 36.409374 159.2375 36.409374Q160.25313 36.409374 161.03438 35.971874Q161.83125 35.51875 162.20625 34.753124Q162.4875 34.14375 162.4875 32.9875L162.4875 32.346874ZM176.70625 35.971874L176.95625 37.534374Q176.22188 37.690624 175.62813 37.690624Q174.675 37.690624 174.14375 37.39375Q173.62813 37.08125 173.40938 36.596874Q173.19063 36.096874 173.19063 34.51875L173.19063 28.55L171.90938 28.55L171.90938 27.175L173.19063 27.175L173.19063 24.6125L174.94063 23.55L174.94063 27.175L176.70625 27.175L176.70625 28.55L174.94063 28.55L174.94063 34.6125Q174.94063 35.3625 175.03438 35.58125Q175.12813 35.784374 175.33125 35.925Q175.55 36.05 175.94063 36.05Q176.22188 36.05 176.70625 35.971874ZM178.84688 37.55L178.84688 27.175L180.425 27.175L180.425 28.753124Q181.03438 27.64375 181.55 27.3Q182.06563 26.940624 182.675 26.940624Q183.56563 26.940624 184.4875 27.503124L183.87813 29.14375Q183.2375 28.753124 182.59688 28.753124Q182.01875 28.753124 181.55 29.1125Q181.09688 29.45625 180.89375 30.065624Q180.6125 31.003124 180.6125 32.1125L180.6125 37.55L178.84688 37.55ZM192.64375 36.26875Q191.65938 37.096874 190.75313 37.440624Q189.84688 37.784374 188.81563 37.784374Q187.1125 37.784374 186.19063 36.95625Q185.26875 36.1125 185.26875 34.815624Q185.26875 34.05 185.6125 33.425Q185.97188 32.8 186.53438 32.425Q187.09688 32.034374 187.8 31.83125Q188.31563 31.70625 189.3625 31.565624Q191.4875 31.315624 192.4875 30.971874Q192.50313 30.6125 192.50313 30.503124Q192.50313 29.440624 192.00313 28.9875Q191.33125 28.39375 190.00313 28.39375Q188.75313 28.39375 188.15938 28.83125Q187.58125 29.26875 187.3 30.378124L185.58125 30.14375Q185.81563 29.034374 186.34688 28.3625Q186.87813 27.675 187.89375 27.315624Q188.90938 26.940624 190.25313 26.940624Q191.58125 26.940624 192.40938 27.253124Q193.2375 27.565624 193.62813 28.05Q194.01875 28.51875 194.175 29.2375Q194.26875 29.690624 194.26875 30.8625L194.26875 33.20625Q194.26875 35.659374 194.37813 36.315624Q194.4875 36.95625 194.83125 37.55L192.9875 37.55Q192.72188 37.003124 192.64375 36.26875ZM192.4875 32.346874Q191.53438 32.7375 189.6125 33.003124Q188.53438 33.159374 188.08125 33.3625Q187.64375 33.55 187.39375 33.925Q187.14375 34.3 187.14375 34.76875Q187.14375 35.471874 187.675 35.940624Q188.20625 36.409374 189.2375 36.409374Q190.25313 36.409374 191.03438 35.971874Q191.83125 35.51875 192.20625 34.753124Q192.4875 34.14375 192.4875 32.9875L192.4875 32.346874ZM196.8625 37.55L196.8625 27.175L198.45625 27.175L198.45625 28.659374Q199.59688 26.940624 201.75313 26.940624Q202.69063 26.940624 203.47188 27.284374Q204.26875 27.6125 204.65938 28.159374Q205.05 28.70625 205.20625 29.45625Q205.3 29.95625 205.3 31.175L205.3 37.55L203.53438 37.55L203.53438 31.2375Q203.53438 30.159374 203.33125 29.628124Q203.12813 29.096874 202.59688 28.784374Q202.08125 28.471874 201.37813 28.471874Q200.25313 28.471874 199.44063 29.190624Q198.62813 29.89375 198.62813 31.878124L198.62813 37.55L196.8625 37.55ZM206.15938 34.45625L207.90938 34.175Q208.05 35.221874 208.72188 35.784374Q209.39375 36.33125 210.59688 36.33125Q211.8 36.33125 212.37813 35.846874Q212.97188 35.346874 212.97188 34.690624Q212.97188 34.096874 212.45625 33.753124Q212.09688 33.51875 210.65938 33.159374Q208.72188 32.659374 207.97188 32.315624Q207.2375 31.95625 206.84688 31.33125Q206.45625 30.690624 206.45625 29.925Q206.45625 29.2375 206.76875 28.64375Q207.09688 28.05 207.64375 27.659374Q208.05 27.3625 208.75313 27.159374Q209.47188 26.940624 210.28438 26.940624Q211.50313 26.940624 212.425 27.3Q213.34688 27.64375 213.78438 28.253124Q214.22188 28.846874 214.39375 29.846874L212.675 30.08125Q212.55 29.284374 211.9875 28.846874Q211.425 28.39375 210.40938 28.39375Q209.19063 28.39375 208.675 28.8Q208.15938 29.190624 208.15938 29.721874Q208.15938 30.065624 208.37813 30.346874Q208.58125 30.628124 209.05 30.815624Q209.31563 30.909374 210.59688 31.253124Q212.47188 31.753124 213.20625 32.08125Q213.94063 32.39375 214.3625 33.003124Q214.78438 33.596874 214.78438 34.503124Q214.78438 35.378124 214.26875 36.159374Q213.75313 36.940624 212.78438 37.3625Q211.81563 37.784374 210.59688 37.784374Q208.58125 37.784374 207.51875 36.940624Q206.45625 36.096874 206.15938 34.45625ZM217.28438 37.55L217.28438 28.55L215.7375 28.55L215.7375 27.175L217.28438 27.175L217.28438 26.08125Q217.28438 25.034374 217.47188 24.51875Q217.72188 23.83125 218.3625 23.409374Q219.00313 22.9875 220.15938 22.9875Q220.90938 22.9875 221.8 23.159374L221.53438 24.690624Q220.9875 24.596874 220.50313 24.596874Q219.70625 24.596874 219.3625 24.940624Q219.03438 25.284374 219.03438 26.221874L219.03438 27.175L221.06563 27.175L221.06563 28.55L219.03438 28.55L219.03438 37.55L217.28438 37.55ZM229.97188 34.20625L231.78438 34.440624Q231.3625 36.01875 230.19063 36.909374Q229.03438 37.784374 227.22188 37.784374Q224.95625 37.784374 223.6125 36.39375Q222.28438 34.9875 222.28438 32.45625Q222.28438 29.83125 223.62813 28.39375Q224.97188 26.940624 227.12813 26.940624Q229.20625 26.940624 230.51875 28.3625Q231.84688 29.76875 231.84688 32.346874Q231.84688 32.503124 231.83125 32.815624L224.09688 32.815624Q224.19063 34.51875 225.06563 35.425Q225.94063 36.33125 227.2375 36.33125Q228.20625 36.33125 228.87813 35.83125Q229.56563 35.315624 229.97188 34.20625ZM224.19063 31.3625L229.9875 31.3625Q229.87813 30.065624 229.33125 29.409374Q228.4875 28.39375 227.14375 28.39375Q225.94063 28.39375 225.1125 29.20625Q224.28438 30.003124 224.19063 31.3625ZM233.84688 37.55L233.84688 27.175L235.425 27.175L235.425 28.753124Q236.03438 27.64375 236.55 27.3Q237.06563 26.940624 237.675 26.940624Q238.56563 26.940624 239.4875 27.503124L238.87813 29.14375Q238.2375 28.753124 237.59688 28.753124Q237.01875 28.753124 236.55 29.1125Q236.09688 29.45625 235.89375 30.065624Q235.6125 31.003124 235.6125 32.1125L235.6125 37.55L233.84688 37.55ZM246.15938 34.45625L247.90938 34.175Q248.05 35.221874 248.72188 35.784374Q249.39375 36.33125 250.59688 36.33125Q251.8 36.33125 252.37813 35.846874Q252.97188 35.346874 252.97188 34.690624Q252.97188 34.096874 252.45625 33.753124Q252.09688 33.51875 250.65938 33.159374Q248.72188 32.659374 247.97188 32.315624Q247.2375 31.95625 246.84688 31.33125Q246.45625 30.690624 246.45625 29.925Q246.45625 29.2375 246.76875 28.64375Q247.09688 28.05 247.64375 27.659374Q248.05 27.3625 248.75313 27.159374Q249.47188 26.940624 250.28438 26.940624Q251.50313 26.940624 252.425 27.3Q253.34688 27.64375 253.78438 28.253124Q254.22188 28.846874 254.39375 29.846874L252.675 30.08125Q252.55 29.284374 251.9875 28.846874Q251.425 28.39375 250.40938 28.39375Q249.19063 28.39375 248.675 28.8Q248.15938 29.190624 248.15938 29.721874Q248.15938 30.065624 248.37813 30.346874Q248.58125 30.628124 249.05 30.815624Q249.31563 30.909374 250.59688 31.253124Q252.47188 31.753124 253.20625 32.08125Q253.94063 32.39375 254.3625 33.003124Q254.78438 33.596874 254.78438 34.503124Q254.78438 35.378124 254.26875 36.159374Q253.75313 36.940624 252.78438 37.3625Q251.81563 37.784374 250.59688 37.784374Q248.58125 37.784374 247.51875 36.940624Q246.45625 36.096874 246.15938 34.45625ZM260.70624 35.971874L260.95624 37.534374Q260.22186 37.690624 259.6281 37.690624Q258.675 37.690624 258.14374 37.39375Q257.6281 37.08125 257.40936 36.596874Q257.1906 36.096874 257.1906 34.51875L257.1906 28.55L255.90938 28.55L255.90938 27.175L257.1906 27.175L257.1906 24.6125L258.9406 23.55L258.9406 27.175L260.70624 27.175L260.70624 28.55L258.9406 28.55L258.9406 34.6125Q258.9406 35.3625 259.03436 35.58125Q259.1281 35.784374 259.33124 35.925Q259.55 36.05 259.9406 36.05Q260.22186 36.05 260.70624 35.971874ZM269.65936 37.55L269.65936 36.01875Q268.45624 37.784374 266.3781 37.784374Q265.45624 37.784374 264.65936 37.440624Q263.8625 37.08125 263.47186 36.55Q263.09686 36.01875 262.9406 35.2375Q262.83124 34.721874 262.83124 33.596874L262.83124 27.175L264.58124 27.175L264.58124 32.925Q264.58124 34.3 264.6906 34.784374Q264.8625 35.471874 265.39374 35.878124Q265.9406 36.26875 266.72186 36.26875Q267.51874 36.26875 268.20624 35.8625Q268.90936 35.45625 269.1906 34.76875Q269.4875 34.065624 269.4875 32.7375L269.4875 27.175L271.2375 27.175L271.2375 37.55L269.65936 37.55ZM279.59686 37.55L279.59686 36.2375Q278.6125 37.784374 276.6906 37.784374Q275.45624 37.784374 274.40936 37.096874Q273.3781 36.409374 272.8 35.190624Q272.2375 33.971874 272.2375 32.378124Q272.2375 30.815624 272.7531 29.55Q273.26874 28.284374 274.3 27.6125Q275.34686 26.940624 276.6125 26.940624Q277.55 26.940624 278.28436 27.346874Q279.01874 27.7375 279.4875 28.3625L279.4875 23.2375L281.22186 23.2375L281.22186 37.55L279.59686 37.55ZM274.03436 32.378124Q274.03436 34.3625 274.8781 35.346874Q275.72186 36.33125 276.8625 36.33125Q278.01874 36.33125 278.8156 35.39375Q279.6281 34.45625 279.6281 32.51875Q279.6281 30.39375 278.8 29.39375Q277.9875 28.39375 276.78436 28.39375Q275.6125 28.39375 274.8156 29.3625Q274.03436 30.315624 274.03436 32.378124ZM290.97186 34.20625L292.78436 34.440624Q292.3625 36.01875 291.1906 36.909374Q290.03436 37.784374 288.22186 37.784374Q285.95624 37.784374 284.6125 36.39375Q283.28436 34.9875 283.28436 32.45625Q283.28436 29.83125 284.6281 28.39375Q285.97186 26.940624 288.1281 26.940624Q290.20624 26.940624 291.51874 28.3625Q292.84686 29.76875 292.84686 32.346874Q292.84686 32.503124 292.83124 32.815624L285.09686 32.815624Q285.1906 34.51875 286.0656 35.425Q286.9406 36.33125 288.2375 36.33125Q289.20624 36.33125 289.8781 35.83125Q290.5656 35.315624 290.97186 34.20625ZM285.1906 31.3625L290.9875 31.3625Q290.8781 30.065624 290.33124 29.409374Q289.4875 28.39375 288.14374 28.39375Q286.9406 28.39375 286.1125 29.20625Q285.28436 30.003124 285.1906 31.3625ZM294.8625 37.55L294.8625 27.175L296.45624 27.175L296.45624 28.659374Q297.59686 26.940624 299.7531 26.940624Q300.6906 26.940624 301.47186 27.284374Q302.26874 27.6125 302.65936 28.159374Q303.05 28.70625 303.20624 29.45625Q303.3 29.95625 303.3 31.175L303.3 37.55L301.53436 37.55L301.53436 31.2375Q301.53436 30.159374 301.33124 29.628124Q301.1281 29.096874 300.59686 28.784374Q300.08124 28.471874 299.3781 28.471874Q298.2531 28.471874 297.4406 29.190624Q296.6281 29.89375 296.6281 31.878124L296.6281 37.55L294.8625 37.55ZM308.70624 35.971874L308.95624 37.534374Q308.22186 37.690624 307.6281 37.690624Q306.675 37.690624 306.14374 37.39375Q305.6281 37.08125 305.40936 36.596874Q305.1906 36.096874 305.1906 34.51875L305.1906 28.55L303.90936 28.55L303.90936 27.175L305.1906 27.175L305.1906 24.6125L306.9406 23.55L306.9406 27.175L308.70624 27.175L308.70624 28.55L306.9406 28.55L306.9406 34.6125Q306.9406 35.3625 307.03436 35.58125Q307.1281 35.784374 307.33124 35.925Q307.55 36.05 307.9406 36.05Q308.22186 36.05 308.70624 35.971874ZM320.70624 35.971874L320.95624 37.534374Q320.22186 37.690624 319.6281 37.690624Q318.675 37.690624 318.14374 37.39375Q317.6281 37.08125 317.40936 36.596874Q317.1906 36.096874 317.1906 34.51875L317.1906 28.55L315.90936 28.55L315.90936 27.175L317.1906 27.175L317.1906 24.6125L318.9406 23.55L318.9406 27.175L320.70624 27.175L320.70624 28.55L318.9406 28.55L318.9406 34.6125Q318.9406 35.3625 319.03436 35.58125Q319.1281 35.784374 319.33124 35.925Q319.55 36.05 319.9406 36.05Q320.22186 36.05 320.70624 35.971874ZM322.22186 32.3625Q322.22186 29.4875 323.8156 28.096874Q325.15936 26.940624 327.08124 26.940624Q329.22186 26.940624 330.5656 28.346874Q331.925 29.753124 331.925 32.221874Q331.925 34.221874 331.33124 35.378124Q330.7375 36.51875 329.58124 37.159374Q328.4406 37.784374 327.08124 37.784374Q324.89374 37.784374 323.55 36.39375Q322.22186 34.9875 322.22186 32.3625ZM324.01874 32.3625Q324.01874 34.3625 324.8781 35.346874Q325.7531 36.33125 327.08124 36.33125Q328.39374 36.33125 329.2531 35.346874Q330.1281 34.346874 330.1281 32.3Q330.1281 30.378124 329.2531 29.39375Q328.3781 28.39375 327.08124 28.39375Q325.7531 28.39375 324.8781 29.39375Q324.01874 30.378124 324.01874 32.3625ZM349.4875 23.2375L351.3781 23.2375L351.3781 31.503124Q351.3781 33.659374 350.89374 34.940624Q350.40936 36.20625 349.1281 37.003124Q347.8625 37.8 345.78436 37.8Q343.76874 37.8 342.4875 37.1125Q341.22186 36.409374 340.675 35.096874Q340.1281 33.784374 340.1281 31.503124L340.1281 23.2375L342.01874 23.2375L342.01874 31.4875Q342.01874 33.3625 342.3625 34.253124Q342.70624 35.128124 343.55 35.6125Q344.39374 36.08125 345.6281 36.08125Q347.70624 36.08125 348.59686 35.14375Q349.4875 34.190624 349.4875 31.4875L349.4875 23.2375ZM352.22186 32.3625Q352.22186 29.4875 353.8156 28.096874Q355.15936 26.940624 357.08124 26.940624Q359.22186 26.940624 360.5656 28.346874Q361.925 29.753124 361.925 32.221874Q361.925 34.221874 361.33124 35.378124Q360.7375 36.51875 359.58124 37.159374Q358.4406 37.784374 357.08124 37.784374Q354.89374 37.784374 353.55 36.39375Q352.22186 34.9875 352.22186 32.3625ZM354.01874 32.3625Q354.01874 34.3625 354.8781 35.346874Q355.7531 36.33125 357.08124 36.33125Q358.39374 36.33125 359.2531 35.346874Q360.1281 34.346874 360.1281 32.3Q360.1281 30.378124 359.2531 29.39375Q358.3781 28.39375 357.08124 28.39375Q355.7531 28.39375 354.8781 29.39375Q354.01874 30.378124 354.01874 32.3625ZM364.28436 37.55L364.28436 28.55L362.7375 28.55L362.7375 27.175L364.28436 27.175L364.28436 26.08125Q364.28436 25.034374 364.47186 24.51875Q364.72186 23.83125 365.3625 23.409374Q366.0031 22.9875 367.15936 22.9875Q367.90936 22.9875 368.8 23.159374L368.53436 24.690624Q367.9875 24.596874 367.5031 24.596874Q366.70624 24.596874 366.3625 24.940624Q366.03436 25.284374 366.03436 26.221874L366.03436 27.175L368.0656 27.175L368.0656 28.55L366.03436 28.55L366.03436 37.55L364.28436 37.55ZM370.03436 37.55L370.03436 23.2375L372.89374 23.2375L376.26874 33.3625Q376.7375 34.784374 376.95624 35.4875Q377.20624 34.70625 377.72186 33.190624L381.14374 23.2375L383.6906 23.2375L383.6906 37.55L381.8781 37.55L381.8781 25.565624L377.70624 37.55L376.0031 37.55L371.8625 25.3625L371.8625 37.55L370.03436 37.55ZM390.15936 34.01875Q390.14374 33.675 390.14374 33.503124Q390.14374 32.45625 390.4406 31.70625Q390.65936 31.14375 391.14374 30.565624Q391.4875 30.14375 392.39374 29.346874Q393.3156 28.534374 393.58124 28.065624Q393.8625 27.58125 393.8625 27.01875Q393.8625 25.9875 393.05 25.221874Q392.2531 24.440624 391.09686 24.440624Q389.97186 24.440624 389.22186 25.14375Q388.47186 25.846874 388.2375 27.33125L386.425 27.1125Q386.675 25.1125 387.8781 24.05Q389.08124 22.9875 391.0656 22.9875Q393.175 22.9875 394.425 24.128124Q395.675 25.26875 395.675 26.89375Q395.675 27.83125 395.22186 28.628124Q394.78436 29.409374 393.5031 30.55Q392.64374 31.315624 392.3781 31.675Q392.1281 32.034374 391.9875 32.503124Q391.8625 32.971874 391.84686 34.01875L390.15936 34.01875ZM390.05 37.55L390.05 35.55L392.05 35.55L392.05 37.55L390.05 37.55Z" fill-rule="nonzero"/></svg>