<?xml version="1.0" standalone="no"?>
<!DOCTYPE svg PUBLIC "-//W3C//DTD SVG 20010904//EN"
 "http://www.w3.org/TR/2001/REC-SVG-20010904/DTD/svg10.dtd">
<svg version="1.0" xmlns="http://www.w3.org/2000/svg"
 width="1500.000000pt" height="1500.000000pt" viewBox="0 0 1500.000000 1500.000000"
 preserveAspectRatio="xMidYMid meet">
<metadata>
Created by potrace 1.14, written by Peter Selinger 2001-2017
</metadata>
<g transform="translate(0.000000,1500.000000) scale(0.100000,-0.100000)"
fill="#000000" stroke="none">
<path d="M3140 14232 c0 -8 -8 -21 -17 -28 -15 -11 -15 -13 -3 -14 13 0 13 -1
0 -10 -11 -7 -11 -10 -2 -10 7 0 10 -5 7 -10 -4 -6 -10 -8 -14 -5 -5 2 -6 -7
-3 -22 4 -20 2 -24 -9 -18 -12 7 -12 6 -1 -7 8 -10 9 -18 3 -22 -6 -4 -7 -14
-4 -23 5 -12 3 -14 -8 -8 -11 6 -12 5 -2 -5 10 -11 9 -16 -5 -27 -9 -8 -11
-12 -4 -8 15 8 16 -7 1 -22 -8 -8 -8 -13 0 -17 15 -10 14 -29 -1 -21 -7 4 -4
-1 6 -9 20 -16 20 -16 0 -16 -14 0 -16 -2 -6 -9 8 -4 13 -11 13 -15 -1 -3 -1
-7 0 -8 5 -17 4 -48 -3 -48 -4 0 -8 5 -8 12 0 6 -2 9 -5 6 -7 -7 5 -39 14 -34
3 2 6 -11 6 -30 0 -19 -3 -34 -7 -34 -5 0 -8 5 -8 12 0 6 -2 9 -5 6 -9 -8 6
-38 16 -32 5 3 6 -2 3 -10 -10 -25 -10 -116 0 -116 5 0 3 -6 -3 -14 -8 -10 -9
-16 -1 -21 7 -4 7 -12 0 -25 -7 -12 -7 -21 0 -25 6 -4 4 -15 -6 -31 -9 -13
-13 -24 -8 -24 4 0 -3 -11 -16 -25 -12 -13 -27 -22 -31 -19 -15 9 -39 -42 -40
-89 -2 -28 -6 -44 -12 -40 -6 4 -7 1 -2 -8 13 -20 14 -52 3 -66 -7 -9 -7 -13
2 -13 9 0 9 -4 -1 -17 -8 -10 -9 -14 -2 -10 15 9 14 -35 -2 -45 -6 -5 -5 -8 4
-8 11 0 11 -3 0 -17 -8 -9 -9 -14 -3 -10 7 4 11 -6 12 -29 1 -20 -3 -32 -8
-29 -6 4 -6 -5 0 -21 6 -16 7 -30 2 -33 -9 -6 -27 -60 -24 -73 1 -4 -5 -5 -14
-1 -8 3 -14 2 -13 -3 4 -17 -13 -44 -25 -38 -6 3 -3 -1 6 -8 15 -13 15 -15 0
-26 -9 -6 -12 -11 -7 -11 23 3 29 -2 15 -11 -13 -9 -13 -10 0 -10 13 0 13 -1
0 -10 -9 -6 -11 -10 -3 -10 7 0 10 -7 6 -17 -5 -12 -3 -14 7 -8 9 5 11 4 6 -4
-4 -6 -3 -18 4 -26 9 -11 7 -12 -12 -9 -19 5 -20 4 -7 -5 19 -12 24 -105 5
-94 -6 4 -6 0 1 -8 15 -19 12 -69 -4 -87 -7 -7 -13 -25 -14 -40 -1 -34 -6 -71
-13 -99 -2 -13 -1 -25 3 -27 4 -3 6 -20 5 -38 -2 -18 -6 -82 -8 -142 -6 -119
-12 -150 -27 -140 -6 3 -19 -2 -29 -11 -10 -9 -24 -14 -31 -9 -8 4 -10 3 -5
-4 4 -7 2 -12 -3 -12 -6 0 -11 5 -11 10 0 6 -5 10 -11 10 -8 0 -7 -5 1 -15 7
-9 22 -14 34 -13 19 3 21 -2 23 -69 2 -54 -1 -76 -13 -87 -37 -37 -91 11 -96
87 -1 20 -6 37 -11 37 -5 0 -7 5 -5 12 2 6 -7 23 -20 37 -39 42 -63 96 -49
110 9 10 8 11 -5 6 -13 -5 -16 -1 -14 24 1 16 -1 28 -5 26 -3 -3 -19 26 -34
63 -38 93 -69 147 -83 145 -6 -2 -9 4 -6 11 3 8 -4 24 -15 35 -12 12 -20 22
-20 24 4 6 -13 47 -20 47 -4 0 -16 18 -26 40 -10 22 -22 40 -27 40 -4 0 -7 3
-6 8 3 16 -22 61 -46 80 -14 11 -26 25 -26 31 0 6 -4 11 -10 11 -5 0 -9 3 -8
8 3 8 -88 139 -100 144 -4 2 -25 28 -47 58 -22 30 -42 57 -45 60 -19 18 -70
91 -70 100 0 6 -4 9 -8 6 -5 -3 -16 8 -26 25 -9 16 -20 29 -24 29 -12 0 -92
79 -92 91 0 5 -4 8 -8 5 -5 -3 -15 3 -24 12 -33 37 -168 132 -187 132 -6 0
-11 3 -11 8 0 4 -17 15 -38 24 -145 67 -178 84 -192 98 -3 3 -9 5 -15 6 -5 1
-35 8 -65 18 -43 12 -88 16 -202 13 -80 -1 -149 -5 -152 -8 -10 -10 26 -71 44
-76 15 -4 35 -53 31 -75 0 -5 4 -8 10 -8 6 0 9 -7 5 -15 -3 -8 -2 -15 3 -15 4
0 8 -6 8 -12 0 -7 14 -43 32 -80 18 -37 34 -75 36 -85 3 -10 11 -42 20 -72 8
-29 12 -57 10 -62 -3 -4 4 -14 15 -22 14 -10 22 -28 25 -55 2 -23 13 -62 25
-89 11 -26 22 -59 24 -73 2 -14 13 -47 25 -74 13 -27 24 -57 26 -67 2 -10 9
-27 15 -39 6 -12 9 -24 7 -27 -3 -2 1 -20 9 -39 8 -19 12 -39 9 -44 -4 -6 -1
-10 5 -10 6 0 8 -5 5 -10 -5 -8 -12 -7 -23 2 -15 11 -15 11 -6 -2 6 -8 10 -25
9 -37 -1 -13 2 -23 6 -23 6 0 24 -48 21 -61 0 -3 6 -6 13 -6 9 0 11 4 6 11 -5
6 -11 28 -15 49 -4 20 -11 37 -17 37 -6 0 -7 5 -4 10 3 6 11 10 17 10 6 0 9
-3 5 -6 -3 -4 0 -22 8 -40 8 -19 12 -34 9 -34 -3 0 0 -9 6 -21 9 -17 8 -23 -6
-33 -13 -10 -14 -15 -4 -21 9 -5 11 -4 6 3 -4 7 -1 12 8 12 10 0 16 -9 16 -26
0 -17 -4 -23 -12 -19 -7 4 -4 -2 8 -12 37 -32 52 -77 66 -200 1 -7 4 -13 7
-13 3 0 7 -10 8 -23 2 -21 9 -57 14 -67 1 -3 3 -25 4 -50 1 -25 3 -47 5 -50 1
-3 3 -14 5 -25 2 -11 6 -40 10 -65 4 -25 12 -48 17 -51 6 -4 8 -11 4 -17 -3
-6 -2 -13 4 -17 6 -4 8 -11 5 -16 -4 -5 -1 -9 6 -9 6 0 9 -8 6 -20 -3 -11 0
-18 7 -17 6 1 10 -6 10 -15 -1 -10 2 -16 6 -13 4 3 11 -2 14 -11 9 -24 7 -31
-4 -14 -6 9 -10 10 -10 3 0 -6 5 -15 11 -18 6 -4 8 -13 5 -21 -3 -8 -2 -13 2
-13 19 3 23 -2 12 -16 -10 -12 -9 -16 2 -20 10 -4 13 -16 10 -37 -3 -23 -1
-29 8 -23 7 4 4 -5 -6 -21 -11 -15 -14 -25 -8 -21 8 4 11 -3 10 -22 0 -17 -5
-27 -11 -23 -5 3 -4 -2 4 -11 12 -15 9 -21 -9 -19 -10 1 -6 -43 4 -50 7 -5 4
-8 -7 -8 -10 0 -15 -4 -12 -10 3 -5 2 -10 -3 -10 -5 0 -10 -24 -11 -52 -3 -53
-8 -99 -11 -108 -1 -3 -2 -8 -1 -12 0 -5 -3 -8 -8 -8 -5 0 -7 -9 -4 -20 6 -21
-14 -80 -26 -80 -9 0 -45 -72 -43 -82 1 -5 -3 -8 -8 -8 -5 0 -9 -3 -8 -7 1 -5
-4 -19 -12 -33 -8 -14 -15 -31 -16 -39 -2 -8 -9 -18 -16 -22 -7 -5 -9 -9 -4
-9 6 0 1 -7 -10 -16 -10 -8 -12 -12 -4 -8 13 7 13 5 1 -9 -7 -9 -17 -14 -22
-11 -5 3 -6 -2 -3 -10 3 -9 1 -16 -5 -16 -6 0 -11 -12 -11 -26 0 -16 -4 -23
-12 -18 -7 4 -8 3 -4 -4 4 -7 4 -18 -1 -24 -4 -7 -8 -16 -9 -20 -1 -5 -2 -9
-4 -10 -1 -2 -3 -12 -5 -22 -2 -10 -9 -22 -15 -26 -7 -4 -12 -11 -12 -16 0 -5
-5 -20 -10 -34 -5 -14 -10 -33 -11 -42 -1 -10 -5 -18 -9 -18 -4 0 -8 -5 -8
-11 0 -5 4 -7 10 -4 5 3 10 1 10 -4 0 -6 -6 -11 -12 -12 -7 0 -4 -4 7 -9 17
-7 17 -9 3 -9 -16 -1 -24 -21 -18 -46 3 -12 3 -34 1 -53 0 -7 -6 -10 -11 -7
-6 4 -7 11 -4 17 4 7 2 8 -4 4 -9 -5 -8 -13 3 -30 13 -19 13 -25 -1 -44 -12
-17 -12 -22 -2 -22 9 0 9 -3 2 -8 -5 -4 -10 -28 -10 -54 1 -36 -3 -48 -14 -48
-11 0 -12 -2 -2 -8 21 -14 24 -52 4 -52 -11 0 -13 -3 -6 -8 15 -9 23 -82 9
-82 -5 0 -3 -5 5 -10 12 -8 12 -10 1 -10 -11 0 -11 -3 -1 -15 9 -10 9 -15 1
-15 -6 0 -11 -5 -11 -11 0 -5 4 -8 9 -4 6 3 9 -3 9 -12 0 -10 2 -30 5 -45 3
-16 1 -28 -4 -28 -5 0 -9 -5 -9 -11 0 -5 4 -7 10 -4 5 3 10 2 10 -4 0 -5 -5
-13 -11 -16 -7 -5 -3 -15 10 -29 12 -12 18 -26 14 -29 -10 -11 -14 -47 -5 -47
5 0 9 -7 9 -15 0 -8 -4 -12 -9 -9 -4 3 -8 1 -8 -5 0 -5 6 -11 13 -14 9 -3 9
-7 -2 -20 -11 -14 -11 -17 0 -17 10 0 10 -3 1 -12 -7 -7 -12 -17 -12 -23 0 -5
5 -3 10 5 8 12 10 9 10 -13 0 -20 -4 -26 -12 -21 -10 6 -10 5 -1 -7 6 -8 13
-26 15 -39 2 -14 7 -30 11 -36 4 -7 7 -23 7 -35 0 -44 3 -59 14 -59 7 0 7 -3
1 -8 -14 -10 -17 -32 -5 -32 12 0 9 -22 -5 -32 -5 -4 -1 -8 10 -8 17 0 17 -2
5 -10 -10 -6 -11 -10 -2 -10 6 0 12 -5 12 -11 0 -5 -4 -8 -8 -5 -5 3 -9 -1 -9
-9 0 -8 4 -15 8 -15 4 0 10 -7 13 -16 5 -12 2 -15 -11 -10 -17 6 -17 5 0 -8
12 -9 15 -16 7 -21 -6 -4 -7 -11 -2 -18 5 -7 9 -23 10 -35 0 -13 9 -31 19 -39
10 -8 11 -11 3 -7 -15 8 14 -33 35 -48 7 -5 7 -8 0 -8 -5 0 -2 -7 8 -14 10 -8
19 -18 20 -23 1 -4 4 -7 7 -6 3 1 7 -10 8 -25 1 -14 5 -28 10 -31 4 -3 9 -17
10 -31 2 -14 8 -26 13 -28 5 -2 9 -10 9 -17 0 -8 5 -17 12 -21 8 -5 9 -2 4 11
-7 18 -6 18 13 1 21 -19 87 -145 83 -158 -1 -5 3 -8 10 -8 8 0 7 -4 -3 -12 -8
-7 -12 -12 -10 -10 3 1 14 -14 25 -35 12 -20 28 -38 36 -40 11 -3 11 -1 -2 10
-10 7 -22 27 -28 43 l-11 29 26 -27 c14 -15 29 -38 34 -51 5 -12 9 -419 9
-905 0 -485 3 -885 5 -889 3 -5 203 -8 444 -8 l438 0 0 -1120 c-1 -616 -4
-1126 -8 -1133 -5 -6 -5 -12 0 -12 9 0 8 -94 -2 -109 -3 -6 -3 -11 2 -11 12 0
9 -156 -4 -171 -15 -18 -44 -123 -58 -208 -4 -24 -14 -60 -22 -80 -8 -20 -16
-61 -17 -91 -2 -31 -6 -61 -9 -67 -4 -7 -3 -14 3 -18 6 -4 8 -11 4 -16 -3 -5
-10 -6 -16 -3 -6 4 -9 3 -5 -2 3 -5 -5 -26 -18 -47 -15 -26 -24 -34 -28 -24
-3 8 -15 17 -26 20 -12 3 -19 1 -15 -4 3 -5 -2 -9 -10 -9 -9 0 -16 5 -16 11 0
5 -4 7 -10 4 -6 -3 -10 -1 -10 5 0 6 -4 8 -10 5 -5 -3 -10 0 -10 9 0 8 -4 16
-8 18 -5 1 -12 16 -16 31 -5 22 -4 27 6 22 7 -4 4 1 -6 9 -15 12 -16 16 -5 16
9 0 10 3 4 8 -6 4 -12 21 -13 37 -4 58 -8 80 -16 93 -4 7 -5 16 -2 19 3 3 0
13 -7 21 -10 13 -9 14 3 7 12 -6 12 -5 3 5 -6 7 -9 18 -7 25 3 7 0 16 -6 20
-8 5 -5 11 7 21 12 9 13 12 3 9 -12 -4 -15 3 -16 30 0 19 4 35 9 35 5 0 4 6
-2 14 -8 9 -8 16 -2 20 6 4 7 14 4 23 -5 12 -3 14 8 9 8 -4 6 -1 -3 6 -15 13
-15 15 0 26 9 7 12 10 6 7 -7 -2 -15 2 -18 11 -3 8 -2 12 3 9 5 -3 3 7 -4 23
-8 15 -13 38 -10 50 2 13 0 20 -6 17 -10 -7 -11 -4 -13 43 -1 19 -7 37 -13 40
-6 4 -14 23 -19 42 -12 51 -19 73 -35 102 -5 10 -9 26 -9 36 0 9 -7 28 -16 40
-12 17 -12 22 -2 22 9 0 10 2 1 8 -6 4 -10 21 -9 39 1 17 -2 30 -6 27 -4 -3
-8 4 -8 15 0 12 -5 21 -12 21 -6 0 -9 3 -5 6 3 3 -1 23 -8 44 -8 23 -10 42 -4
49 5 6 6 9 2 6 -10 -7 -64 106 -56 118 3 6 1 7 -5 3 -11 -7 -25 23 -20 45 2 7
-4 13 -12 14 -8 0 -14 8 -14 18 1 9 -2 14 -7 11 -5 -3 -10 0 -10 5 -2 12 -5
26 -9 39 -1 4 -2 11 -1 15 1 5 -3 6 -8 3 -5 -3 -19 15 -32 41 -12 27 -25 50
-28 53 -15 13 -50 88 -44 94 3 3 1 6 -6 6 -8 0 -11 7 -7 15 3 8 1 15 -4 15 -6
0 -10 7 -10 15 0 8 -5 15 -11 15 -8 0 -7 5 1 16 11 13 10 16 -8 21 -20 5 -26
15 -23 36 0 4 -4 7 -10 7 -5 0 -7 4 -4 10 3 6 -1 10 -10 10 -9 0 -14 4 -10 9
3 5 -1 16 -9 24 -8 8 -13 17 -10 19 2 3 -2 11 -11 18 -8 7 -15 21 -15 30 0 10
-5 20 -11 22 -6 2 -12 15 -12 30 -1 14 -6 24 -11 20 -5 -3 -7 2 -3 11 4 10 1
17 -5 17 -6 0 -9 3 -5 6 3 4 -1 13 -9 21 -8 8 -12 18 -10 22 3 4 -5 13 -17 21
-20 12 -21 12 -8 -3 7 -9 11 -28 9 -42 -3 -14 -2 -28 3 -30 4 -3 6 -14 4 -25
-2 -11 0 -22 6 -25 5 -4 5 -14 -1 -26 -8 -14 -7 -19 2 -19 6 0 3 -7 -8 -16
-10 -8 -14 -13 -8 -10 8 4 11 -3 10 -19 -1 -18 -5 -24 -16 -20 -12 5 -13 4 -3
-6 16 -16 17 -51 1 -67 -9 -9 -9 -12 1 -12 7 0 9 -5 5 -11 -6 -10 -10 -41 -17
-119 -2 -14 -6 -30 -10 -36 -3 -6 -3 -14 0 -18 10 -10 14 -48 5 -42 -4 2 -7
-17 -7 -42 1 -26 -2 -54 -6 -63 -4 -8 -4 -21 1 -29 11 -17 1 -42 -14 -33 -6 3
-1 -4 12 -16 23 -23 30 -37 12 -26 -7 4 -9 -3 -6 -19 3 -16 0 -26 -7 -26 -9 0
-9 -2 0 -8 17 -11 9 -133 -11 -147 -9 -7 -13 -15 -9 -18 3 -4 1 -7 -5 -7 -6 0
-9 -6 -6 -13 3 -8 0 -27 -6 -43 -7 -16 -14 -42 -16 -58 -2 -16 -8 -33 -15 -36
-6 -4 -11 -11 -12 -16 -1 -5 -6 -8 -11 -6 -5 2 -4 -4 3 -12 7 -9 9 -21 5 -28
-11 -18 -14 -37 -5 -42 4 -3 6 -25 6 -50 -1 -25 1 -46 4 -46 3 0 6 -36 6 -79
0 -44 -3 -77 -7 -74 -5 2 -8 -1 -8 -6 0 -6 0 -13 0 -16 0 -11 -41 -45 -49 -41
-5 3 -16 -3 -25 -13 -16 -18 -16 -20 6 -35 12 -9 28 -16 36 -16 10 0 12 -14
10 -52 -2 -42 -7 -54 -22 -56 -24 -5 -38 10 -42 45 -6 51 -33 123 -47 123 -4
0 -5 4 -2 10 4 6 -1 7 -12 3 -10 -3 -15 -3 -11 2 4 4 1 13 -8 19 -8 6 -17 25
-19 41 -11 72 -15 84 -43 145 -8 19 -15 38 -14 41 1 4 -8 15 -18 24 -11 10
-20 24 -20 30 0 17 -17 48 -76 135 -89 132 -104 153 -104 144 0 -5 -8 3 -17
16 -25 36 -36 49 -56 68 -9 9 -17 22 -17 29 0 7 -4 13 -10 13 -5 0 -10 9 -10
20 0 11 -3 19 -8 19 -20 -3 -32 2 -32 16 0 8 -9 19 -20 25 -11 6 -20 17 -20
25 0 16 -57 75 -72 75 -6 0 -38 13 -72 30 -33 16 -82 32 -108 34 -26 3 -52 7
-57 10 -5 4 -12 2 -15 -3 -4 -5 -19 -6 -34 -2 -15 3 -45 4 -67 0 -22 -3 -34
-7 -26 -8 8 0 11 -9 8 -20 -3 -11 1 -22 8 -24 7 -3 15 -18 18 -34 3 -15 14
-46 23 -68 10 -22 19 -46 20 -54 2 -8 9 -18 16 -22 7 -5 9 -9 5 -9 -5 0 3 -21
18 -46 15 -26 22 -44 16 -40 -7 5 -9 1 -5 -8 3 -9 11 -16 17 -16 6 0 8 -3 4
-6 -3 -3 -2 -17 4 -31 7 -18 6 -23 -4 -18 -6 4 -4 0 6 -8 13 -11 15 -17 6 -23
-9 -5 -7 -11 7 -21 16 -12 17 -15 4 -23 -13 -9 -13 -10 0 -10 9 0 16 -9 17
-20 1 -13 -2 -18 -10 -13 -9 5 -9 3 -1 -8 16 -20 24 -59 12 -59 -5 0 -6 -6 -1
-12 4 -7 8 -17 10 -23 1 -5 6 -24 11 -42 6 -17 8 -34 4 -37 -3 -3 0 -6 7 -6 9
0 9 -5 0 -21 -6 -12 -7 -19 -1 -15 14 8 21 -41 8 -55 -8 -9 -8 -10 0 -6 7 4
15 0 18 -9 3 -8 2 -12 -4 -9 -6 3 -10 1 -10 -4 0 -6 5 -11 11 -11 14 0 39 -63
34 -89 -2 -11 0 -23 4 -26 9 -5 18 -53 26 -140 3 -27 13 -86 23 -130 13 -60
17 -126 17 -265 l0 -185 -28 -39 c-15 -21 -27 -45 -27 -52 0 -7 -4 -14 -10
-16 -5 -1 -11 -12 -13 -23 -1 -11 -16 -39 -33 -61 -17 -23 -36 -67 -43 -98 -7
-31 -16 -54 -21 -51 -5 3 -7 14 -5 25 2 12 0 18 -5 15 -5 -3 -7 -15 -5 -26 3
-16 0 -19 -12 -15 -12 5 -13 4 -5 -7 7 -8 9 -17 5 -21 -10 -10 -15 -44 -16
-106 -1 -30 -6 -58 -12 -62 -6 -5 -5 -8 4 -8 11 0 11 -3 0 -17 -12 -16 -12
-17 2 -6 8 7 16 31 18 55 3 66 11 59 11 -11 0 -34 -4 -60 -8 -57 -4 2 -14 1
-22 -5 -13 -7 -12 -9 2 -9 15 0 17 -10 15 -79 -1 -44 -5 -77 -9 -74 -5 2 -3
-8 2 -23 6 -15 8 -35 5 -45 -4 -11 -2 -19 2 -19 8 0 14 -33 16 -92 1 -10 4
-18 7 -18 7 0 12 -31 13 -78 0 -17 4 -32 8 -32 8 0 6 -26 -3 -36 -4 -3 0 -21
8 -40 8 -19 11 -34 8 -34 -4 0 -2 -6 5 -13 8 -10 7 -17 -2 -27 -10 -10 -9 -11
2 -5 11 6 13 4 8 -8 -4 -10 -2 -17 4 -17 6 0 9 -7 6 -15 -4 -8 -1 -17 5 -21 7
-4 6 -9 -3 -15 -11 -7 -11 -9 -1 -9 7 0 10 -4 7 -10 -4 -6 1 -7 11 -3 11 4 15
3 10 -5 -3 -6 -2 -13 4 -17 5 -3 10 -15 10 -26 0 -11 4 -18 9 -14 6 3 8 -4 6
-15 -2 -11 -1 -19 3 -16 4 2 13 -2 20 -10 8 -9 9 -14 2 -14 -6 0 1 -12 15 -26
15 -14 24 -33 21 -41 -3 -8 -2 -11 4 -8 13 8 43 -41 34 -56 -4 -8 -3 -9 4 -5
7 4 12 1 12 -8 0 -9 5 -16 11 -16 5 0 8 -4 4 -9 -3 -5 -1 -12 5 -16 5 -3 19
-26 30 -50 11 -24 25 -47 31 -50 6 -4 8 -13 5 -21 -3 -7 0 -11 7 -9 15 4 72
-63 62 -73 -4 -4 -10 -1 -12 6 -3 6 -11 12 -18 12 -8 0 -17 -6 -21 -12 -4 -7
-4 -10 1 -6 9 9 47 -10 42 -20 -3 -4 7 -18 21 -32 13 -14 21 -18 17 -10 -5 8
6 0 23 -17 30 -31 44 -38 65 -34 5 1 6 -3 3 -8 -4 -5 -2 -12 4 -16 6 -4 7 -11
4 -17 -4 -7 -2 -8 5 -4 6 4 9 11 6 16 -3 5 4 7 16 5 13 -3 25 -9 29 -14 3 -6
22 -17 42 -25 20 -9 39 -20 43 -26 3 -5 15 -10 25 -10 10 0 32 -12 47 -26 22
-20 23 -24 8 -19 -11 3 -16 3 -12 -1 4 -4 1 -14 -6 -23 -10 -14 -10 -14 3 -5
12 9 19 7 35 -9 12 -12 14 -17 5 -13 -8 4 -5 -1 8 -10 12 -9 22 -23 22 -30 0
-8 4 -14 8 -14 4 0 13 -15 20 -33 10 -26 14 -29 23 -17 9 12 10 12 5 -3 -7
-21 30 -80 45 -72 5 4 6 -2 2 -11 -5 -13 -3 -15 7 -9 8 5 11 4 6 -3 -4 -6 8
-33 26 -59 19 -26 49 -74 68 -106 19 -31 38 -57 42 -57 4 0 8 -9 8 -20 0 -36
28 -81 43 -67 1 1 13 -8 27 -21 13 -12 39 -32 57 -45 18 -12 33 -27 33 -32 0
-16 54 -45 82 -45 13 0 29 5 35 11 7 7 13 7 17 1 4 -7 18 -7 41 -1 19 6 40 7
45 4 5 -3 22 6 37 22 l28 28 2030 0 2030 0 3 1167 2 1168 -472 2 -473 3 0 818
c0 451 3 824 7 830 5 8 8 6 8 -5 0 -9 4 -18 8 -20 4 -1 21 -25 36 -53 34 -58
193 -215 218 -215 10 0 18 -5 18 -11 0 -5 4 -8 9 -5 5 3 11 -1 15 -9 7 -18 52
-20 59 -2 4 9 7 9 14 0 6 -8 20 -9 48 -3 21 5 43 7 47 4 4 -3 8 -2 8 3 0 4 23
8 50 8 34 0 54 5 60 15 5 8 10 11 10 6 0 -5 6 -4 13 1 6 5 19 9 27 8 8 -1 23
2 32 7 18 9 30 -6 308 -387 47 -64 119 -163 160 -219 41 -56 114 -156 162
-221 330 -452 900 -1231 986 -1347 35 -49 67 -88 71 -88 3 1 89 116 191 256
102 141 190 261 195 267 6 7 17 22 25 34 8 12 66 91 127 175 62 84 180 245
263 358 82 113 156 214 164 225 56 76 243 331 301 411 39 53 90 124 115 158
25 33 137 187 250 341 112 154 214 290 226 301 13 12 21 24 18 27 -2 2 9 18
25 36 16 17 27 31 25 31 -3 0 14 25 37 55 23 30 43 55 45 55 10 0 35 -64 30
-76 -3 -8 -2 -13 3 -10 11 7 23 -22 14 -36 -3 -7 -1 -8 5 -4 7 4 12 4 13 -1 0
-4 2 -19 5 -32 2 -13 -1 -30 -7 -38 -10 -11 -8 -12 6 -6 15 5 17 3 12 -11 -4
-9 -3 -15 2 -12 5 3 12 -5 15 -19 10 -41 68 -63 155 -59 40 1 78 7 84 13 6 6
14 11 17 11 3 0 6 -353 7 -785 l0 -785 -468 0 c-440 0 -469 -1 -470 -17 0 -10
-1 -103 -2 -208 0 -104 -2 -181 -5 -170 -8 36 -70 110 -111 133 -41 23 -41 23
-41 3 0 -13 -7 -21 -17 -21 -14 0 -15 -2 -4 -9 9 -6 10 -11 2 -15 -6 -4 -11
-18 -11 -32 0 -13 -5 -24 -11 -24 -5 0 -7 -4 -4 -10 3 -5 1 -10 -6 -10 -7 0
-9 -3 -6 -6 3 -4 2 -15 -4 -25 -7 -14 -6 -19 3 -19 9 0 9 -3 2 -8 -13 -8 -14
-72 -2 -72 5 0 6 -5 3 -10 -4 -6 -11 -8 -16 -5 -5 3 -6 -1 -3 -9 3 -9 10 -13
15 -10 16 10 9 -8 -8 -23 -10 -8 -13 -12 -6 -9 20 11 26 -15 7 -30 -18 -14
-18 -14 0 -8 17 7 17 5 2 -23 -8 -17 -13 -33 -10 -36 3 -3 -3 -12 -15 -19 -12
-7 -21 -16 -21 -21 0 -4 5 -5 11 -1 8 4 9 -1 4 -16 -4 -14 -3 -20 3 -16 6 4 7
-6 2 -29 -4 -19 -5 -36 -2 -39 5 -6 -14 -10 -31 -7 -5 1 -6 -3 -2 -9 3 -6 11
-8 16 -5 5 3 6 -1 3 -9 -3 -9 -10 -13 -15 -10 -5 3 -9 -2 -9 -10 0 -9 -6 -16
-12 -16 -10 0 -9 -3 1 -9 7 -5 9 -11 5 -14 -5 -3 -9 -35 -8 -71 1 -37 -2 -69
-6 -71 -5 -3 -4 -22 1 -42 5 -21 9 -48 9 -61 0 -37 -33 -23 -44 18 -5 19 -13
37 -17 40 -3 3 -10 19 -13 37 -4 17 -18 38 -31 47 -13 8 -29 32 -35 53 -14 43
-50 108 -77 139 -20 23 -40 51 -50 74 -4 8 -16 24 -28 36 -11 11 -34 36 -52
55 -57 62 -112 109 -125 109 -8 0 -24 7 -36 16 -12 8 -22 12 -22 8 0 -3 -6 -2
-12 3 -7 6 -50 11 -96 12 l-83 2 19 -38 c11 -21 20 -40 20 -43 1 -3 8 -22 16
-42 9 -21 18 -45 19 -55 2 -10 9 -31 15 -46 7 -15 15 -40 18 -55 4 -15 11 -32
16 -39 5 -6 10 -27 11 -46 1 -19 6 -33 11 -29 5 3 6 -7 2 -22 -4 -15 -3 -25 1
-23 4 3 8 -8 7 -25 0 -17 5 -56 12 -87 8 -31 17 -76 20 -101 3 -24 10 -53 14
-65 7 -16 9 -14 11 15 l1 35 7 -30 c4 -16 4 -34 -1 -39 -4 -6 -8 -15 -8 -20 0
-6 5 -4 10 4 9 13 10 13 11 0 0 -8 3 -24 5 -35 11 -48 5 -175 -9 -202 -8 -15
-30 -58 -50 -96 l-36 -67 -15 30 c-8 17 -10 28 -5 25 8 -6 0 23 -20 70 -9 21
-26 82 -36 128 -3 15 -13 31 -23 34 -24 9 -52 39 -52 58 0 8 -4 15 -10 15 -5
0 -7 7 -4 15 4 9 -8 28 -28 48 -19 18 -33 38 -30 45 2 7 -3 15 -12 18 -9 3
-14 10 -11 14 3 4 -2 13 -10 20 -8 7 -15 19 -15 27 0 8 -5 11 -12 7 -6 -4 -8
-3 -4 4 10 16 -12 64 -26 56 -7 -4 -8 -3 -4 4 12 20 -4 34 -22 20 -15 -12 -16
-11 -3 5 16 20 17 18 -28 39 -38 18 -75 13 -67 -9 3 -8 1 -11 -4 -8 -6 3 -10
2 -10 -4 0 -5 6 -12 13 -14 9 -4 9 -6 0 -6 -14 -1 18 -79 37 -91 6 -4 12 -11
13 -16 1 -5 5 -8 8 -7 3 1 6 -4 6 -12 0 -8 -4 -12 -7 -10 -4 3 -7 -6 -7 -20
-1 -14 3 -22 8 -19 5 3 9 0 9 -5 0 -6 -5 -11 -10 -11 -7 0 -7 -6 -1 -19 6 -10
7 -21 4 -25 -4 -3 2 -13 13 -22 10 -8 13 -13 7 -9 -15 7 -16 -18 -7 -77 4 -22
11 -35 17 -31 5 3 7 1 4 -4 -10 -16 13 -74 26 -66 6 3 7 1 3 -6 -8 -13 42
-161 54 -161 4 0 7 -6 7 -12 0 -7 13 -40 28 -73 16 -33 29 -63 29 -67 1 -4 7
-13 14 -20 6 -6 12 -18 12 -25 0 -7 11 -36 24 -65 13 -29 27 -63 31 -76 3 -12
11 -19 17 -16 7 4 8 2 4 -5 -10 -16 3 -53 16 -45 8 5 9 1 5 -11 -4 -9 -3 -23
2 -29 5 -6 23 -47 41 -91 17 -44 42 -96 54 -115 13 -19 26 -46 30 -58 5 -13
10 -21 14 -18 3 3 14 -8 24 -25 11 -17 17 -33 15 -35 -2 -3 30 -39 72 -82 77
-78 215 -178 261 -189 14 -3 34 -11 45 -16 29 -16 63 -19 70 -7 4 6 13 7 23 1
9 -4 26 -6 37 -4 11 3 49 6 85 8 36 2 94 10 130 19 36 8 86 18 111 21 25 3 62
14 82 24 33 17 42 18 81 6 24 -8 46 -11 49 -9 3 3 23 7 46 9 24 3 68 20 107
44 36 22 78 43 93 46 30 6 141 99 141 117 0 6 17 27 37 47 l37 36 1811 1 c995
1 1812 2 1815 3 3 0 5 524 5 1163 l0 1163 -445 5 -445 5 0 750 c0 502 3 752
10 757 7 5 7 8 0 8 -8 0 -13 130 -6 160 1 3 10 -10 21 -28 36 -59 85 -68 208
-39 39 10 62 11 62 5 0 -6 11 -8 25 -6 14 3 25 2 25 -3 0 -9 114 -4 130 6 6 4
14 4 17 1 3 -3 12 2 20 12 10 11 12 12 8 2 -4 -10 -2 -9 8 2 8 10 17 15 20 11
4 -3 7 -1 7 6 0 7 5 9 10 6 5 -3 10 -1 10 5 0 7 7 10 15 6 8 -3 15 -1 15 4 0
5 7 7 15 4 8 -4 15 -1 15 5 0 6 7 8 15 5 8 -4 17 1 21 10 3 9 10 13 15 10 5
-3 12 2 15 10 3 9 9 14 14 11 4 -2 18 6 31 18 13 12 27 21 32 19 4 -1 10 5 13
13 3 8 10 13 14 10 4 -2 19 6 33 19 14 13 28 21 31 19 3 -3 8 2 12 11 3 9 10
14 14 11 5 -3 19 8 33 24 14 17 28 27 31 24 3 -4 6 -2 6 4 0 6 11 8 25 5 15
-2 25 0 25 7 0 7 5 9 10 6 6 -3 10 -1 10 5 0 6 4 9 9 5 5 -3 15 0 23 7 7 7 20
14 28 16 8 2 16 7 18 12 2 5 10 6 18 3 8 -3 14 0 14 6 0 6 7 8 15 5 8 -4 15
-1 15 5 0 6 7 8 15 5 8 -4 15 -2 15 3 0 5 20 9 45 8 27 -1 50 3 56 12 6 7 9
13 5 13 -3 0 3 9 14 20 12 12 18 24 16 29 -3 4 6 13 19 19 14 7 25 15 25 19 0
5 12 9 27 10 15 0 29 6 31 12 2 6 8 9 12 6 5 -3 15 4 23 15 7 11 17 17 20 13
4 -3 7 -1 7 5 0 6 6 9 14 6 8 -3 17 0 22 7 5 8 3 10 -7 5 -8 -4 -3 2 11 13 14
11 21 21 16 21 -6 0 -1 7 10 15 10 8 16 15 12 15 -3 0 28 34 70 75 42 41 72
75 67 75 -5 0 0 7 11 15 10 8 15 15 9 15 -5 0 -3 5 5 10 8 5 15 13 15 17 0 4
17 26 38 47 22 23 35 46 32 54 -4 11 -2 12 8 4 10 -8 13 -6 14 9 1 11 -2 17
-8 14 -5 -4 -9 -4 -9 0 0 3 11 10 25 15 23 9 25 12 14 32 -11 20 -10 21 2 11
12 -10 15 -8 14 10 0 12 -4 28 -9 36 -6 10 -6 12 2 7 7 -4 12 -1 12 9 0 12 5
15 16 11 15 -6 15 -4 3 10 -10 13 -11 18 -2 21 7 2 9 11 6 19 -3 8 0 14 6 14
6 0 8 7 5 15 -4 8 -1 15 6 15 6 0 9 4 5 9 -3 6 4 15 15 21 11 6 18 15 15 21
-4 5 -2 9 4 9 6 0 8 7 5 15 -4 8 -1 15 6 15 7 0 10 7 6 15 -3 8 -1 15 5 15 6
0 7 5 4 10 -3 6 -1 10 5 10 6 0 9 4 5 9 -3 5 -1 12 4 15 5 4 8 20 6 36 -2 16
0 32 6 35 5 4 7 11 4 16 -4 5 -1 9 5 9 6 0 8 4 5 10 -3 6 -1 10 5 10 6 0 8 5
5 10 -3 6 -1 10 5 10 6 0 8 5 5 10 -3 6 -2 10 3 10 10 0 13 19 12 68 0 17 5
32 11 32 5 0 7 5 4 10 -3 6 -1 10 5 10 6 0 8 5 5 10 -3 6 -1 10 5 10 6 0 8 5
5 10 -3 6 -2 10 4 10 6 0 8 7 5 15 -4 8 -1 15 6 15 7 0 10 7 6 15 -3 8 -1 15
4 15 5 0 7 7 4 15 -4 8 -1 15 6 15 6 0 8 5 5 10 -3 6 -1 10 5 10 7 0 10 7 7
15 -4 8 -3 16 1 19 4 2 7 59 7 125 0 67 4 121 9 121 5 0 7 3 3 6 -3 3 6 17 21
29 25 21 28 29 27 84 -1 34 3 61 8 61 5 0 7 7 3 15 -3 8 -1 15 4 15 5 0 7 7 4
15 -4 8 -2 15 3 15 5 0 8 139 8 315 0 173 4 315 8 315 5 0 5 9 2 20 -4 12 -2
20 5 20 7 0 9 8 5 20 -3 11 -2 20 3 20 5 0 9 143 8 345 -1 190 -5 345 -9 345
-5 0 -5 5 -2 10 3 6 1 10 -5 10 -7 0 -10 7 -6 15 3 8 2 15 -3 15 -4 0 -7 20
-6 45 1 25 -2 45 -7 45 -5 0 -6 9 -3 20 4 12 2 20 -5 20 -7 0 -9 8 -5 20 4 11
2 20 -4 20 -6 0 -8 7 -5 15 4 8 1 15 -5 15 -6 0 -8 7 -5 15 4 8 1 15 -5 15 -6
0 -8 7 -5 15 4 8 2 15 -3 15 -5 0 -8 20 -8 45 1 25 -2 45 -6 45 -5 0 -6 7 -3
15 4 8 1 15 -6 15 -7 0 -10 7 -6 15 3 8 2 15 -2 15 -4 0 -7 68 -7 150 0 83 -3
150 -7 150 -4 0 -5 7 -2 15 4 8 1 15 -5 15 -6 0 -8 7 -5 15 4 8 2 15 -2 15 -5
0 -9 146 -9 325 0 179 -4 325 -8 325 -5 0 -5 5 -2 10 3 6 1 10 -5 10 -6 0 -8
5 -5 10 3 6 1 10 -5 10 -7 0 -10 7 -6 15 3 8 1 15 -4 15 -5 0 -7 7 -4 15 4 8
1 15 -6 15 -7 0 -10 7 -6 15 3 8 1 15 -5 15 -6 0 -8 8 -4 19 3 12 0 21 -10 25
-9 3 -13 10 -10 16 3 5 2 10 -2 10 -5 0 -8 38 -8 85 1 47 -2 85 -6 85 -5 0 -6
7 -3 15 4 8 1 15 -5 15 -6 0 -8 7 -5 15 4 8 2 15 -2 15 -5 0 -9 155 -9 345 0
190 4 345 9 345 4 0 6 7 2 15 -3 8 -1 15 5 15 6 0 9 7 5 15 -3 8 -2 15 3 15 5
0 8 54 7 120 -1 66 2 120 7 120 5 0 5 9 2 20 -4 12 -2 20 5 20 7 0 9 8 5 20
-4 12 -2 20 5 20 7 0 9 8 5 20 -4 12 -2 20 5 20 6 0 9 4 5 9 -3 5 -1 12 5 16
6 4 8 10 5 15 -3 5 -2 11 3 14 4 3 8 39 8 80 -1 42 3 76 8 76 4 0 6 7 2 15 -3
8 -1 15 5 15 6 0 9 7 5 15 -3 8 -2 15 2 15 10 0 9 176 0 186 -5 4 -8 2 -8 -4
0 -6 -24 -34 -52 -63 -29 -29 -46 -49 -38 -45 8 5 2 -4 -15 -19 -16 -14 -23
-23 -15 -20 8 4 2 -5 -15 -20 -16 -14 -23 -23 -15 -20 8 4 2 -5 -15 -20 -16
-14 -24 -23 -16 -19 8 4 -5 -12 -28 -36 -22 -23 -41 -46 -41 -51 0 -4 -25 -33
-55 -63 -30 -31 -52 -56 -48 -56 4 0 -2 -7 -13 -15 -10 -8 -14 -15 -9 -15 6 0
3 -5 -5 -10 -8 -5 -15 -13 -15 -17 0 -4 -17 -24 -38 -44 -20 -20 -34 -39 -30
-42 3 -4 1 -7 -6 -7 -7 0 -9 -4 -6 -10 3 -5 1 -10 -4 -10 -6 0 -11 -7 -11 -15
0 -8 -5 -15 -11 -15 -5 0 -8 -4 -5 -9 3 -5 -1 -12 -10 -15 -8 -3 -13 -10 -10
-15 3 -5 -1 -12 -10 -15 -8 -3 -13 -10 -10 -15 3 -5 -1 -12 -10 -15 -8 -3 -13
-10 -10 -15 3 -5 -1 -12 -10 -15 -8 -3 -13 -10 -10 -15 3 -5 -1 -12 -10 -15
-9 -4 -15 -9 -12 -12 3 -3 -21 -30 -53 -61 -32 -30 -56 -59 -54 -63 3 -4 -2
-11 -11 -14 -8 -3 -13 -10 -10 -15 3 -5 -1 -12 -10 -15 -9 -4 -14 -9 -11 -12
3 -4 -8 -18 -24 -31 -16 -14 -28 -28 -25 -30 3 -3 -2 -12 -10 -20 -8 -8 -12
-18 -10 -21 4 -8 -25 -38 -34 -35 -11 3 -59 -31 -54 -39 3 -4 0 -8 -6 -8 -6 0
-8 -4 -5 -10 3 -5 1 -10 -5 -10 -6 0 -9 -4 -6 -9 3 -5 -1 -12 -10 -15 -8 -3
-13 -10 -10 -15 3 -5 -1 -12 -10 -15 -8 -3 -13 -10 -10 -15 3 -5 -1 -12 -10
-15 -8 -3 -13 -10 -10 -15 3 -5 -1 -12 -10 -15 -8 -3 -13 -10 -10 -15 3 -5 -1
-12 -10 -15 -8 -3 -13 -10 -10 -15 3 -5 -1 -12 -10 -15 -9 -4 -14 -9 -11 -12
3 -4 -8 -18 -24 -31 -17 -14 -28 -32 -25 -39 3 -8 1 -14 -4 -14 -6 0 -10 -5
-10 -10 0 -6 -16 -25 -36 -42 -19 -17 -33 -37 -30 -44 3 -8 1 -14 -4 -14 -5 0
-7 -9 -5 -20 2 -11 -1 -20 -7 -20 -6 0 -8 -3 -5 -7 4 -3 0 -17 -9 -31 -8 -13
-13 -30 -10 -38 3 -8 1 -14 -5 -14 -6 0 -9 -7 -5 -15 3 -8 1 -15 -5 -15 -6 0
-9 -7 -5 -15 3 -8 1 -15 -5 -15 -6 0 -9 -7 -5 -15 3 -8 1 -15 -5 -15 -6 0 -9
-7 -5 -15 3 -8 1 -15 -5 -15 -6 0 -9 -7 -5 -15 3 -8 1 -15 -5 -15 -6 0 -8 -9
-4 -20 4 -12 2 -20 -6 -20 -7 0 -9 -10 -5 -30 3 -19 1 -30 -5 -30 -7 0 -9 -12
-7 -30 3 -16 1 -30 -4 -30 -5 0 -8 -8 -7 -17 1 -10 -3 -29 -8 -43 -6 -14 -9
-28 -6 -32 2 -5 -1 -8 -7 -8 -7 0 -10 -6 -8 -12 3 -7 -2 -19 -9 -27 -8 -7 -12
-20 -9 -27 3 -8 1 -14 -5 -14 -6 0 -9 -7 -5 -15 3 -8 1 -15 -5 -15 -6 0 -7 -4
-4 -10 3 -5 1 -10 -5 -10 -7 0 -10 -7 -6 -15 3 -8 1 -15 -5 -15 -6 0 -9 -7 -5
-15 3 -8 0 -15 -5 -15 -7 0 -9 -11 -7 -25 3 -14 1 -25 -4 -25 -6 0 -7 -11 -4
-25 4 -16 2 -25 -5 -25 -6 0 -9 -9 -6 -20 3 -11 1 -20 -5 -20 -5 0 -8 -10 -7
-22 1 -13 -1 -31 -6 -40 -4 -10 -5 -24 -2 -32 3 -8 3 -16 -1 -18 -4 -2 -15
-28 -26 -58 -10 -30 -30 -80 -43 -110 l-25 -55 -12 39 c-6 21 -14 38 -18 37
-5 0 -12 -1 -18 -1 -5 0 -10 -5 -10 -11 0 -8 5 -7 15 1 13 11 14 10 9 -4 -3
-9 -10 -16 -16 -16 -5 0 -6 -5 -3 -10 7 -11 -15 -81 -29 -91 -14 -10 -95 -9
-101 1 -4 6 -1 10 6 10 8 0 5 5 -5 13 -10 7 -16 20 -15 28 2 7 -2 29 -10 47
-11 25 -11 35 -1 47 7 8 17 12 22 9 6 -4 5 3 -2 15 -9 18 -30 21 -30 5 0 -3 5
-2 11 2 7 4 10 1 7 -6 -6 -18 -24 -24 -26 -8 -4 33 -14 84 -19 98 -3 8 -8 24
-10 35 -2 11 -6 27 -10 35 -11 28 -11 40 0 33 7 -3 3 4 -8 16 -22 26 -23 30
-3 42 10 7 10 9 -2 9 -14 0 -20 18 -23 77 0 9 -4 10 -12 3 -14 -12 -30 14 -19
31 3 5 0 9 -5 9 -6 0 -10 3 -9 8 1 8 -9 39 -23 64 -11 22 -12 31 0 24 11 -7 8
21 -4 31 -4 4 -5 2 0 -6 5 -9 4 -12 -3 -7 -11 7 -31 96 -29 134 1 12 6 21 12
18 13 -5 12 30 -2 64 -8 19 -7 29 4 42 13 15 13 16 -5 11 -14 -3 -21 1 -25 16
-3 14 -1 19 6 15 7 -3 3 2 -7 10 -11 9 -14 16 -8 16 9 0 8 7 -3 23 -8 13 -12
27 -8 30 3 4 2 7 -3 7 -5 0 -10 11 -10 25 -1 14 2 23 6 20 5 -3 12 -1 15 5 4
6 1 9 -7 8 -16 -4 -19 41 -5 60 6 7 6 12 1 11 -19 -3 -22 2 -14 36 4 19 4 35
-1 35 -4 0 -6 7 -3 15 4 8 0 23 -7 32 -11 13 -11 15 -1 9 11 -6 11 -4 3 10
-18 32 -34 78 -32 93 1 7 -2 10 -7 7 -5 -3 -8 6 -6 19 1 14 -2 27 -6 30 -5 3
-7 12 -3 20 3 8 0 15 -6 15 -9 0 -9 5 0 21 8 15 8 19 0 15 -10 -6 -15 6 -12
27 0 4 -4 7 -11 7 -6 0 -8 3 -5 7 4 3 2 12 -5 20 -6 7 -8 16 -5 19 3 3 0 20
-8 37 -7 18 -11 42 -10 54 1 12 -2 20 -7 17 -13 -8 -9 11 5 25 10 10 9 12 -3
9 -10 -2 -16 6 -17 27 -1 17 -6 44 -11 62 -6 17 -8 34 -4 37 3 3 1 6 -5 6 -5
0 -16 19 -23 43 -8 23 -18 48 -23 55 -5 6 -7 12 -3 12 4 0 0 12 -7 28 -7 15
-13 34 -12 42 1 8 -3 20 -8 27 -5 7 -6 17 -2 23 3 5 1 10 -4 10 -6 0 -11 11
-11 25 0 14 -5 25 -11 25 -5 0 -8 4 -5 8 3 4 0 26 -5 48 -5 21 -11 44 -12 49
-1 6 -6 15 -10 22 -4 6 -4 19 0 29 4 12 3 15 -5 10 -8 -5 -12 0 -13 13 -2 21
-5 39 -9 44 -2 3 -11 40 -12 55 -1 6 -4 12 -7 12 -3 0 -7 16 -8 37 -3 51 -20
94 -112 283 -28 58 -51 113 -51 123 0 9 -4 17 -8 17 -4 0 -9 11 -10 24 -1 14
-8 42 -15 63 -7 21 -12 55 -12 76 1 20 -3 37 -8 37 -5 0 -6 -8 -2 -17 5 -14 4
-15 -6 -6 -9 10 -10 15 0 27 9 11 9 16 0 22 -8 5 -9 3 -4 -7 7 -12 6 -12 -7
-1 -10 8 -14 20 -11 29 4 11 2 14 -5 9 -7 -4 -12 -2 -12 4 0 7 8 9 21 5 15 -5
19 -4 15 4 -4 6 -14 11 -22 11 -15 0 -19 12 -7 24 11 10 12 36 2 36 -8 0 -13
-13 -11 -31 1 -3 -5 -6 -13 -6 -8 0 -12 4 -9 8 2 4 0 10 -6 14 -6 4 -8 10 -5
15 3 5 1 12 -5 15 -8 5 -7 11 1 21 6 8 8 14 3 14 -5 1 2 7 16 15 30 17 21 19
-15 3 -18 -8 -22 -14 -13 -20 9 -5 10 -8 1 -8 -24 0 -23 20 4 46 l28 27 -30
-21 c-30 -20 -31 -20 -32 -1 -1 11 -12 29 -25 40 -13 11 -18 19 -13 16 6 -2
18 4 28 15 19 20 9 25 -12 6 -10 -11 -15 -9 -24 7 -6 11 -11 32 -12 46 0 14
-8 34 -18 43 -9 10 -15 21 -12 26 3 5 -1 11 -7 14 -7 3 -3 3 10 0 13 -3 22 -1
22 6 0 6 -4 9 -9 5 -5 -3 -17 2 -26 12 -16 16 -16 17 0 29 16 12 15 14 -8 19
-18 5 -23 12 -20 26 3 10 1 19 -5 19 -5 0 -12 9 -15 20 -3 11 -13 20 -22 20
-15 0 -16 2 -4 17 8 9 9 14 2 10 -6 -4 -18 -1 -26 7 -8 8 -16 14 -18 13 -2 -1
4 5 15 14 14 13 16 18 6 24 -9 6 -11 4 -5 -5 6 -10 4 -12 -9 -7 -10 4 -15 3
-11 -3 3 -6 2 -10 -2 -10 -5 0 -14 9 -21 21 -12 19 -11 20 10 14 21 -5 21 -5
4 6 -16 10 -21 9 -31 -5 -11 -15 -13 -15 -19 -1 -3 9 -2 13 4 10 6 -3 10 1 10
10 0 11 -5 15 -14 12 -10 -4 -13 -1 -9 9 3 9 0 14 -8 12 -8 -2 -13 4 -11 14 1
9 -3 18 -10 21 -7 2 -4 3 7 1 11 -2 27 1 35 7 11 8 9 9 -10 3 -22 -6 -23 -5
-11 10 10 12 10 16 1 16 -9 0 -9 4 1 18 13 15 12 16 -3 4 -9 -8 -14 -20 -11
-28 3 -8 1 -14 -5 -14 -6 0 -9 11 -8 25 2 13 0 22 -5 20 -4 -3 -10 -1 -13 4
-4 5 -1 13 5 17 8 4 9 3 5 -4 -5 -8 -1 -10 10 -5 15 5 15 7 0 15 -9 5 -13 15
-9 21 3 7 -4 3 -18 -8 -13 -11 -18 -13 -12 -5 7 10 8 21 3 30 -5 8 -6 19 -2
25 3 5 -1 4 -10 -3 -14 -11 -16 -10 -11 6 2 11 0 23 -6 26 -7 5 -9 0 -6 -11 3
-10 0 -6 -7 8 -7 14 -19 24 -26 21 -11 -3 -12 0 -2 19 10 19 10 22 0 12 -10
-9 -18 -6 -39 13 -14 13 -34 32 -44 42 -11 9 -24 16 -30 14 -6 -2 -5 4 3 12
12 15 10 17 -15 16 -3 0 -15 8 -26 18 -37 36 -188 103 -239 108 -35 3 -35 3
-10 -11 14 -8 20 -14 14 -15 -12 0 -14 -80 -14 -508 0 -252 -2 -296 -16 -317
-9 -13 -17 -43 -17 -65 -1 -22 -5 -40 -8 -40 -4 0 -10 -7 -13 -16 -3 -8 -2
-12 4 -9 6 3 10 -1 10 -10 0 -9 -4 -14 -9 -10 -5 3 -13 1 -16 -5 -4 -6 -1 -9
6 -8 6 2 14 -3 17 -11 2 -8 0 -11 -5 -8 -5 3 -10 0 -10 -8 0 -8 3 -12 7 -10 3
2 6 -7 6 -21 0 -13 -4 -24 -8 -24 -4 0 -8 -14 -8 -31 0 -21 4 -28 13 -24 6 4
4 0 -6 -8 -18 -15 -18 -15 0 -20 17 -4 17 -5 0 -6 -12 -1 -15 -5 -11 -13 12
-19 12 -48 1 -55 -6 -3 -7 -1 -3 5 4 7 2 12 -3 12 -17 0 -13 -21 7 -37 9 -8
12 -12 5 -9 -6 4 -14 0 -16 -6 -4 -10 -6 -10 -6 0 -1 6 -6 12 -11 12 -6 0 -5
-8 2 -19 7 -11 16 -17 21 -14 5 3 2 -8 -7 -24 -8 -17 -12 -40 -9 -53 4 -15 2
-21 -4 -17 -6 4 -16 0 -23 -8 -10 -12 -9 -16 4 -21 14 -5 14 -9 4 -22 -7 -9
-8 -13 -2 -9 6 3 11 -1 11 -9 0 -8 -6 -13 -12 -10 -6 2 -12 -2 -12 -10 0 -7 5
-10 10 -7 5 3 7 0 5 -8 -3 -8 -14 -13 -24 -12 -10 1 -13 0 -6 -3 17 -8 15 -27
-3 -21 -8 4 -17 2 -20 -4 -4 -5 -3 -9 2 -8 20 3 29 -2 29 -20 0 -11 -4 -17 -8
-15 -4 3 -8 -2 -8 -10 0 -29 -1 -31 -23 -44 -14 -9 -16 -11 -4 -8 14 5 16 1
11 -22 -4 -15 -12 -30 -18 -34 -7 -5 -3 -8 9 -8 17 0 17 -2 5 -10 -8 -5 -11
-10 -6 -10 5 0 3 -7 -4 -15 -7 -8 -9 -15 -4 -15 4 0 -1 -7 -12 -16 -10 -8 -13
-13 -6 -9 9 5 11 -2 7 -26 -3 -17 -10 -40 -15 -49 -5 -10 -6 -21 -2 -25 4 -5
1 -5 -6 -1 -7 4 -10 12 -7 17 4 5 1 9 -5 9 -12 0 -9 -37 4 -59 7 -11 6 -12 -5
-5 -22 13 -36 13 -36 -1 0 -7 6 -11 12 -9 6 3 12 -2 12 -10 0 -8 -6 -12 -12
-10 -8 3 -12 -7 -11 -28 1 -22 -3 -32 -12 -30 -8 1 -11 -2 -7 -8 3 -6 11 -8
16 -5 5 4 9 2 9 -4 0 -5 -6 -12 -12 -14 -10 -4 -10 -6 0 -6 7 -1 11 -5 8 -9
-3 -4 -7 -26 -10 -48 -13 -106 -19 -141 -28 -157 -5 -10 -7 -21 -4 -24 3 -3
-1 -18 -10 -34 -11 -22 -12 -29 -2 -29 9 0 9 -3 -2 -9 -8 -6 -19 -7 -25 -4 -5
4 -2 -3 8 -14 18 -21 23 -38 8 -29 -5 3 -15 -2 -22 -12 -13 -15 -12 -16 3 -4
11 9 18 10 23 2 3 -5 2 -10 -4 -10 -7 0 -7 -8 -1 -25 5 -14 6 -25 2 -25 -4 0
0 -5 8 -10 10 -6 11 -10 3 -10 -7 0 -13 -9 -13 -20 0 -11 -8 -28 -17 -38 -18
-17 -24 -67 -11 -88 5 -7 -2 -10 -20 -8 -15 2 -20 1 -11 -2 9 -3 19 -19 21
-35 3 -20 1 -28 -7 -25 -6 2 -12 -2 -12 -9 0 -7 6 -11 13 -8 6 2 15 -1 20 -8
4 -8 3 -10 -5 -5 -9 6 -10 -7 -6 -51 4 -32 9 -61 11 -65 2 -3 0 -9 -5 -13 -10
-6 -7 -37 4 -56 11 -16 15 -200 5 -194 -14 9 -21 -64 -16 -166 4 -90 3 -98
-17 -115 -22 -19 -77 -27 -77 -11 0 4 -4 6 -8 3 -5 -3 -15 6 -22 19 -7 14 -16
25 -20 25 -3 0 -5 25 -3 55 1 30 -2 55 -7 55 -5 0 -7 7 -4 15 4 8 1 15 -5 15
-6 0 -8 7 -5 15 4 8 -1 17 -10 21 -9 3 -13 10 -10 15 3 5 -2 12 -10 15 -9 3
-13 10 -10 15 3 5 -1 12 -10 15 -8 3 -12 12 -10 19 3 7 1 16 -4 19 -6 3 -8 15
-5 26 3 11 0 20 -6 20 -5 0 -8 7 -5 15 4 8 1 15 -5 15 -6 0 -8 7 -5 15 4 8 1
15 -5 15 -7 0 -9 9 -5 25 4 16 2 25 -6 25 -6 0 -8 5 -5 10 3 6 1 10 -5 10 -6
0 -8 5 -5 10 3 6 1 10 -5 10 -6 0 -8 5 -5 10 3 6 1 10 -5 10 -6 0 -8 5 -5 10
3 6 1 10 -5 10 -6 0 -8 5 -5 10 3 6 1 10 -5 10 -6 0 -8 5 -5 10 4 6 -7 23 -23
40 -16 16 -27 32 -24 35 3 3 0 5 -7 5 -7 0 -10 4 -6 9 3 5 -9 24 -27 42 -18
18 -24 26 -13 18 18 -12 17 -10 -1 7 -13 12 -20 25 -17 28 4 3 1 6 -6 6 -7 0
-9 5 -6 10 3 6 1 10 -5 10 -6 0 -9 4 -5 9 3 5 -1 16 -9 24 -8 8 -12 17 -9 21
4 3 1 6 -6 6 -7 0 -9 5 -6 10 3 6 1 10 -5 10 -6 0 -8 5 -5 10 3 6 1 10 -4 10
-6 0 -11 4 -11 10 0 9 -26 43 -62 81 -9 9 -14 20 -10 23 3 3 0 6 -7 6 -7 0 -9
5 -6 10 3 6 1 10 -5 10 -6 0 -8 5 -5 10 3 6 1 10 -5 10 -6 0 -8 5 -5 10 3 6 1
10 -5 10 -6 0 -8 5 -5 10 3 6 1 10 -5 10 -6 0 -8 5 -5 10 3 6 1 10 -5 10 -6 0
-8 5 -5 10 3 6 1 10 -4 10 -6 0 -10 4 -9 9 2 5 -14 24 -34 44 -20 19 -34 37
-31 41 4 3 1 6 -6 6 -7 0 -9 5 -6 10 3 6 1 10 -5 10 -6 0 -9 4 -6 9 3 5 -12
24 -34 42 -21 18 -37 36 -34 41 3 4 0 8 -6 8 -6 0 -8 5 -5 10 3 6 1 10 -5 10
-6 0 -9 4 -6 9 3 5 -12 25 -34 45 -22 20 -37 36 -33 36 5 0 -1 7 -11 15 -11 8
-16 15 -10 15 5 0 0 7 -10 15 -11 8 -16 15 -12 15 5 0 -8 17 -28 37 -20 21
-36 41 -36 45 0 4 -13 20 -28 35 -16 16 -39 44 -52 63 -14 19 -30 41 -37 48
-7 7 -13 17 -13 21 0 5 -28 37 -62 72 -35 35 -54 57 -43 49 11 -8 2 8 -20 36
-22 29 -43 50 -47 47 -5 -2 -8 1 -8 7 0 6 -4 8 -10 5 -5 -3 -10 -1 -10 5 0 6
-4 9 -9 6 -4 -3 -19 8 -31 24 -12 16 -26 27 -31 25 -4 -3 -10 -1 -14 5 -4 6
-11 7 -17 4 -7 -4 -8 -2 -4 4 4 7 1 12 -9 12 -9 0 -14 4 -10 9 3 5 -2 17 -11
25 -8 9 -12 16 -8 16 4 0 -10 16 -32 36 -45 42 -143 100 -161 96 -7 -2 -13 2
-13 9 0 6 -7 9 -15 5 -8 -3 -15 -1 -15 5 0 6 -5 7 -10 4 -5 -3 -10 -1 -10 5 0
6 -4 8 -10 5 -5 -3 -10 -1 -10 6 0 7 -3 10 -6 6 -4 -3 -13 1 -22 9 -8 9 -23
13 -33 11 -11 -3 -19 -1 -19 5 0 5 -4 7 -9 4 -5 -3 -12 1 -15 10 -3 9 -13 14
-21 10 -8 -3 -17 -1 -20 5 -4 5 -11 7 -16 4 -5 -4 -9 -1 -9 5 0 6 -4 8 -10 5
-5 -3 -10 -1 -10 5 0 7 -15 9 -40 6 -25 -3 -40 -1 -40 6 0 7 -17 9 -52 4 -56
-7 -93 -13 -93 -16 0 -1 -12 -3 -26 -4 -14 -2 -31 -6 -37 -10 -6 -3 -13 -2
-17 4 -4 6 -11 8 -16 4 -5 -3 -38 -8 -72 -10 -34 -3 -89 -7 -122 -10 -33 -3
-65 -6 -72 -6 -15 -2 1 -35 28 -59 10 -9 16 -19 12 -23 -3 -3 -1 -6 5 -6 6 0
9 -7 6 -15 -4 -8 -1 -15 5 -15 6 0 8 -7 5 -15 -4 -8 -1 -15 6 -15 7 0 10 -7 6
-15 -3 -8 -1 -15 5 -15 6 0 8 -4 4 -9 -3 -5 0 -13 6 -16 5 -4 8 -13 5 -21 -3
-8 -1 -14 5 -14 6 0 9 -7 5 -15 -3 -8 -1 -15 5 -15 6 0 7 -4 4 -10 -3 -5 -1
-10 5 -10 6 0 8 -4 5 -10 -3 -5 -1 -10 5 -10 6 0 8 -4 5 -10 -3 -5 -1 -10 5
-10 6 0 9 -4 5 -9 -3 -5 1 -16 9 -24 8 -8 12 -17 9 -21 -4 -3 -1 -6 5 -6 6 0
9 -7 6 -15 -4 -8 -1 -15 5 -15 6 0 8 -7 5 -15 -4 -8 -1 -15 5 -15 6 0 8 -7 5
-15 -4 -8 -1 -15 5 -15 6 0 8 -7 5 -15 -4 -8 -1 -15 5 -15 6 0 8 -7 5 -15 -4
-8 -1 -15 5 -15 6 0 8 -7 5 -15 -4 -8 -1 -15 6 -15 7 0 10 -7 6 -15 -10 -26 5
-74 33 -102 14 -14 19 -23 11 -19 -9 5 -8 2 2 -7 11 -8 16 -23 13 -37 -3 -13
1 -28 8 -32 8 -5 9 -8 0 -8 -8 0 -8 -6 0 -24 7 -13 14 -23 17 -21 3 2 6 -10 6
-27 1 -17 7 -34 14 -38 10 -6 9 -9 -1 -13 -10 -4 -10 -6 -1 -6 6 -1 12 -10 12
-21 0 -11 4 -20 9 -20 5 0 7 -16 4 -36 -3 -24 -1 -34 5 -30 6 3 13 2 17 -4 3
-5 0 -10 -7 -10 -8 -1 -7 -5 5 -14 14 -11 15 -15 5 -19 -8 -3 -6 -6 6 -6 12
-1 16 -6 12 -16 -3 -8 -1 -15 5 -15 6 0 9 -6 6 -14 -3 -8 -1 -16 4 -18 6 -2
12 -16 12 -31 1 -15 6 -27 11 -27 4 0 6 -7 2 -15 -3 -8 -1 -15 4 -15 5 0 7 -7
4 -15 -4 -8 -1 -15 5 -15 6 0 8 -7 5 -15 -4 -8 -1 -15 6 -15 7 0 9 -8 5 -20
-3 -11 -2 -20 3 -20 6 0 8 -9 5 -20 -3 -12 0 -20 7 -20 7 0 9 -8 5 -20 -4 -12
-2 -20 5 -20 7 0 10 -6 7 -14 -3 -8 -1 -17 6 -19 7 -2 8 -8 4 -13 -11 -12 -37
23 -44 59 -3 15 -10 27 -15 27 -5 0 -6 4 -3 10 3 5 2 17 -3 27 -12 21 -43 27
-35 7 3 -8 11 -14 19 -14 10 0 11 -6 4 -26 -9 -21 -8 -25 4 -21 10 4 14 0 11
-14 -2 -10 -7 -23 -10 -29 -3 -5 6 -15 21 -23 17 -9 23 -17 15 -21 -6 -4 -11
-12 -11 -17 0 -6 4 -8 8 -5 4 2 14 0 22 -6 12 -8 12 -9 -2 -4 -10 3 -18 1 -18
-4 0 -6 6 -10 13 -10 7 -1 5 -6 -6 -14 -9 -7 -17 -17 -17 -21 0 -4 7 -2 16 6
13 10 17 10 25 -2 5 -8 9 -18 9 -24 0 -5 -5 -3 -10 5 -8 13 -11 13 -22 1 -10
-11 -10 -12 0 -7 7 4 15 1 18 -8 3 -9 10 -13 15 -10 5 3 10 -2 10 -10 2 -25 4
-30 12 -43 5 -8 3 -13 -3 -13 -7 0 -10 -6 -7 -12 2 -7 10 -12 16 -11 6 2 12
-4 12 -12 1 -8 2 -21 3 -27 1 -7 -2 -19 -7 -25 -6 -9 -4 -15 5 -18 8 -3 15
-13 15 -21 0 -8 -5 -13 -12 -11 -6 3 -11 -3 -11 -13 0 -11 5 -16 15 -12 10 4
12 1 6 -9 -4 -8 -4 -11 0 -6 5 4 9 25 10 46 1 31 -2 38 -14 33 -10 -4 -12 -2
-5 9 5 8 9 18 9 23 0 5 6 11 14 14 8 3 11 0 7 -7 -4 -6 -2 -11 4 -11 6 0 8 -4
5 -10 -3 -5 -1 -10 5 -10 6 0 8 -4 5 -10 -3 -5 -1 -10 5 -10 6 0 8 -4 5 -10
-3 -5 -2 -10 2 -10 5 0 10 -10 10 -22 1 -13 6 -24 10 -25 4 -2 6 -28 5 -58 -3
-34 0 -55 7 -55 6 0 8 -7 5 -15 -4 -8 -1 -15 5 -15 6 0 8 -7 5 -15 -4 -8 -2
-15 4 -15 6 0 8 -9 5 -20 -3 -11 -1 -20 5 -20 6 0 8 -9 5 -20 -3 -11 -1 -20 5
-20 6 0 8 -9 5 -20 -3 -11 -1 -20 3 -20 5 0 8 -36 7 -80 -1 -49 2 -80 8 -80 6
0 7 -9 4 -20 -3 -11 -2 -20 3 -20 6 0 8 -9 5 -20 -3 -11 -1 -20 4 -20 6 0 8
-11 5 -25 -2 -14 0 -25 5 -25 6 0 8 -11 5 -25 -2 -14 0 -25 5 -25 6 0 8 -11 5
-25 -2 -14 0 -25 5 -25 6 0 8 -11 5 -25 -2 -14 0 -25 6 -25 6 0 9 -11 6 -25
-2 -14 0 -25 4 -25 5 0 7 -11 4 -25 -2 -15 0 -25 8 -25 7 0 9 -8 5 -20 -3 -11
-3 -25 1 -32 4 -6 8 -23 10 -37 1 -14 5 -42 8 -61 9 -61 11 -510 2 -510 -4 0
-6 -9 -3 -20 3 -11 1 -20 -5 -20 -6 0 -8 -9 -5 -20 3 -11 1 -20 -5 -20 -6 0
-8 -18 -6 -42 2 -24 1 -47 -3 -53 -5 -5 -24 -29 -45 -52 -20 -24 -33 -43 -29
-43 3 0 -1 -7 -9 -16 -9 -8 -14 -20 -11 -25 4 -5 1 -9 -5 -9 -6 0 -8 -4 -5
-10 3 -5 1 -10 -5 -10 -6 0 -8 -4 -5 -10 3 -5 1 -10 -6 -10 -7 0 -9 -3 -6 -7
4 -3 -2 -13 -13 -20 -11 -8 -18 -19 -15 -24 4 -5 1 -9 -5 -9 -7 0 -10 -7 -6
-15 3 -8 1 -15 -5 -15 -6 0 -9 -7 -5 -15 3 -8 0 -15 -6 -15 -6 0 -9 -3 -6 -6
3 -3 -14 -24 -37 -47 -24 -22 -42 -44 -40 -48 3 -3 -6 -18 -19 -32 -13 -14
-21 -28 -18 -31 3 -3 0 -6 -7 -6 -7 0 -9 -4 -6 -10 3 -5 2 -10 -4 -10 -5 0 -8
-15 -5 -34 2 -19 -1 -38 -6 -41 -6 -4 -8 -11 -5 -16 4 -5 1 -9 -5 -9 -6 0 -8
-4 -5 -10 3 -5 1 -10 -5 -10 -6 0 -8 -4 -5 -10 3 -5 1 -10 -5 -10 -6 0 -8 -5
-5 -10 3 -5 1 -10 -5 -10 -6 0 -8 -4 -5 -10 3 -5 1 -10 -5 -10 -6 0 -8 -4 -5
-10 3 -5 2 -10 -4 -10 -6 0 -8 -7 -5 -15 4 -8 1 -15 -5 -15 -15 0 -14 35 4
103 19 72 19 83 0 91 -13 4 -14 2 -5 -14 8 -14 8 -20 0 -20 -6 0 -8 -4 -5 -10
3 -6 -1 -7 -9 -4 -16 6 -19 -2 -19 -47 0 -9 -6 -16 -13 -16 -10 0 -11 4 -3 14
8 9 8 13 0 13 -6 0 -11 -3 -12 -7 0 -5 -2 -16 -4 -26 -3 -14 1 -17 13 -12 9 3
13 3 9 -1 -4 -4 -2 -13 4 -21 6 -7 9 -14 5 -14 -3 -1 -10 -3 -16 -4 -5 -1 -13
-3 -16 -4 -4 0 -2 -7 4 -14 6 -7 9 -25 8 -40 -2 -15 3 -32 12 -39 13 -11 14
-11 7 1 -5 9 -4 12 3 8 5 -4 8 -16 5 -27 -5 -19 -6 -19 -18 -3 -8 10 -17 15
-21 10 -4 -4 -2 -7 4 -7 17 0 15 -20 -5 -43 -10 -11 -13 -17 -7 -14 7 4 17 0
24 -8 7 -8 10 -16 6 -16 -3 -1 -10 -2 -15 -3 -5 0 -13 -4 -16 -8 -4 -4 4 -5
18 -2 22 3 25 1 22 -16 -2 -11 -7 -25 -10 -30 -3 -6 -2 -10 3 -10 10 0 9 -30
-2 -48 -4 -7 -2 -12 5 -12 7 0 8 -4 2 -12 -5 -7 -9 -46 -8 -86 1 -40 -3 -75
-7 -78 -5 -3 -6 -10 -3 -15 4 -5 2 -9 -3 -9 -9 0 -15 -70 -14 -175 3 -190 4
-210 15 -217 9 -6 9 -8 0 -8 -7 0 -13 -5 -13 -11 0 -6 8 -8 18 -5 14 5 14 3
-2 -9 -17 -13 -18 -17 -6 -28 10 -10 11 -9 5 3 -5 8 -4 12 0 7 5 -4 8 -25 8
-46 -1 -43 -37 -106 -55 -95 -7 4 -8 2 -4 -5 8 -12 -26 -66 -76 -122 -10 -10
-18 -21 -17 -25 0 -3 -9 -17 -20 -32 -11 -15 -100 -137 -197 -272 -98 -135
-223 -308 -278 -385 -56 -77 -113 -156 -126 -175 -14 -19 -29 -40 -35 -47 -5
-6 -37 -50 -70 -97 -33 -47 -63 -85 -67 -85 -4 -1 -35 38 -70 87 -34 48 -66
92 -71 97 -4 6 -105 145 -224 310 -227 315 -368 510 -513 710 -48 66 -180 248
-294 405 -113 157 -214 296 -223 309 -21 28 -125 172 -243 337 -46 66 -87 121
-90 124 -3 3 -75 101 -160 219 -242 335 -237 326 -202 314 9 -3 14 -3 10 1 -3
4 3 17 14 28 11 11 17 26 14 34 -3 8 -2 13 2 10 11 -7 78 94 84 127 3 15 3 27
1 27 -10 0 -44 -46 -58 -77 -8 -18 -20 -33 -27 -33 -8 0 -9 3 -3 8 10 7 17 27
18 49 0 7 7 15 14 17 8 3 11 10 8 16 -3 5 -1 10 4 10 6 0 11 9 11 19 0 11 4
23 10 26 6 3 10 20 10 37 0 16 11 52 24 79 14 27 23 57 21 68 -2 11 4 30 14
43 10 13 17 33 16 46 -1 12 2 22 6 22 13 0 29 64 27 108 -1 23 1 45 4 48 3 3
2 21 -2 40 -5 23 -4 39 4 47 7 7 12 23 11 37 -2 14 2 33 7 44 8 14 7 17 -4 10
-8 -5 -6 3 6 20 10 16 13 25 7 22 -14 -9 -9 27 7 46 6 8 9 18 5 22 -11 10 -12
37 -2 30 9 -5 11 8 14 101 1 28 5 56 9 63 4 7 3 12 -1 12 -13 0 -10 93 2 103
7 4 7 10 0 15 -11 8 -14 113 -3 106 4 -3 7 4 7 13 2 50 6 73 11 73 3 0 5 14 4
30 -1 22 2 30 14 31 14 0 15 1 2 7 -17 8 -20 68 -3 65 13 -3 12 19 -3 38 -5 8
-9 51 -9 96 0 46 -3 83 -6 83 -3 0 -6 7 -7 15 -1 8 -3 22 -4 30 -1 8 -6 15
-12 15 -6 0 -4 5 4 10 12 8 12 10 -5 11 l-20 0 20 9 20 9 -20 0 c-17 1 -17 3
-5 11 13 9 13 10 0 10 -9 0 -16 9 -17 20 -1 13 2 18 10 13 6 -4 2 6 -11 21
-27 36 -29 57 -2 25 l20 -24 -14 29 c-8 16 -21 33 -28 37 -10 7 -10 9 0 9 9 0
7 8 -5 27 -14 21 -15 25 -3 18 12 -7 13 -6 3 6 -15 18 -20 51 -10 66 5 8 3 11
-5 8 -9 -4 -14 2 -14 14 0 11 4 18 7 15 4 -2 11 1 15 7 4 7 3 9 -4 5 -13 -8
-23 7 -27 40 -1 16 1 22 9 17 7 -5 4 -1 -5 8 -16 14 -16 16 0 27 11 8 11 11 2
9 -7 -1 -15 6 -16 16 -2 9 1 15 6 11 5 -3 9 0 9 5 0 6 -4 11 -8 11 -5 0 -9 18
-9 40 0 25 4 37 11 33 6 -3 5 0 -1 8 -15 16 -17 33 -3 24 6 -3 10 -1 10 4 0 6
-4 11 -9 11 -5 0 -8 11 -8 25 0 14 5 25 11 25 6 0 4 5 -4 10 -13 9 -13 11 0
20 8 5 10 10 4 10 -7 0 -15 7 -18 16 -5 13 -3 14 6 6 10 -8 13 -4 13 18 1 16
-2 27 -6 24 -4 -2 -9 7 -11 20 -4 19 -1 23 11 18 14 -5 14 -3 3 10 -10 13 -10
17 0 21 10 4 10 6 1 6 -7 1 -13 8 -13 17 0 9 5 13 13 9 6 -4 4 0 -6 8 -12 10
-14 16 -6 19 7 2 13 12 15 21 1 9 -2 14 -8 11 -6 -4 -6 1 1 13 6 11 7 23 4 27
-3 3 -2 6 4 6 16 0 9 80 -7 90 -13 8 -13 10 0 11 10 0 7 4 -7 11 -12 6 -23 19
-26 29 -3 11 -2 17 2 14 4 -2 8 2 8 10 0 8 -3 14 -6 13 -19 -2 -22 4 -10 19 8
9 9 14 3 10 -7 -4 -17 0 -24 8 -11 13 -10 14 6 8 17 -6 17 -5 5 10 -7 9 -11
24 -7 32 3 8 1 15 -4 15 -6 0 -10 5 -10 11 0 5 4 8 8 5 5 -3 9 1 9 9 0 8 -4
12 -9 9 -4 -3 -8 -1 -8 5 0 5 5 13 10 16 6 4 7 12 3 18 -13 20 -11 538 2 572
6 16 11 64 9 105 -1 41 4 91 11 110 7 19 10 41 8 48 -3 6 -1 12 5 12 10 0 11
6 16 85 2 33 5 62 6 65 1 3 2 9 1 14 -1 4 2 13 7 20 10 13 13 146 3 146 -6 -1
-99 -126 -146 -197 -15 -24 -32 -43 -37 -43 -5 0 -7 -3 -5 -7 3 -5 -10 -19
-28 -33 -18 -14 -46 -44 -62 -67 -15 -24 -31 -43 -35 -43 -8 0 -63 -93 -60
-102 1 -5 -2 -8 -8 -8 -5 0 -21 -20 -35 -43 -14 -24 -43 -60 -66 -80 -22 -21
-38 -37 -34 -37 3 0 1 -6 -5 -12 -6 -7 -24 -31 -40 -53 -49 -67 -65 -85 -73
-85 -11 0 -39 -28 -35 -34 2 -3 -5 -15 -14 -26 -10 -11 -18 -23 -18 -26 0 -7
-41 -65 -69 -96 -14 -16 -21 -28 -17 -28 4 0 -7 -21 -25 -46 -17 -25 -32 -51
-33 -57 -1 -7 -4 -16 -7 -22 -4 -5 -9 -22 -13 -37 -3 -16 -11 -28 -17 -28 -6
0 -7 -5 -4 -10 4 -6 1 -17 -5 -25 -7 -8 -9 -15 -5 -15 4 0 3 -6 -3 -12 -9 -12
-26 -69 -27 -93 0 -5 -4 -16 -8 -22 -5 -7 -6 -17 -3 -21 7 -12 -15 -92 -26
-92 -5 0 -6 -5 -3 -10 4 -6 2 -16 -3 -23 -5 -7 -13 -27 -17 -44 -3 -18 -10
-33 -14 -33 -4 0 -8 -19 -10 -42 -1 -23 -4 -45 -7 -50 -3 -4 0 -8 7 -8 7 0 8
-4 2 -12 -5 -7 -9 -25 -8 -40 0 -16 -3 -28 -8 -28 -5 0 -6 -7 -3 -16 4 -10 2
-13 -6 -8 -8 5 -9 2 -5 -9 3 -10 2 -17 -4 -17 -6 0 -7 -5 -4 -10 3 -6 0 -12
-7 -15 -8 -3 -22 -28 -33 -55 -19 -48 -35 -57 -35 -19 0 25 -26 35 -47 18 -15
-12 -16 -12 -10 3 5 15 2 16 -18 8 -17 -7 -25 -5 -29 5 -3 8 -12 12 -20 9 -16
-6 -76 45 -76 65 0 6 -3 11 -8 11 -10 0 -34 79 -27 91 4 5 2 9 -3 9 -5 0 -8
10 -7 23 1 12 0 27 -4 32 -3 6 -6 15 -7 20 -1 6 -5 28 -9 50 -4 22 -8 56 -10
76 -1 20 -6 42 -9 48 -4 6 -4 11 1 11 4 0 2 4 -6 9 -10 7 -11 13 -1 31 9 17 9
21 0 15 -8 -5 -10 2 -7 24 3 17 1 33 -4 37 -5 3 -7 10 -4 15 4 5 2 9 -4 9 -6
0 -8 7 -5 15 5 11 2 13 -10 9 -11 -4 -16 -2 -14 7 2 8 -3 13 -10 11 -15 -3
-10 10 17 43 16 19 15 20 -4 3 -20 -16 -21 -16 -34 3 -7 12 -8 18 -2 15 5 -4
3 8 -6 25 -15 30 -15 33 2 46 11 7 14 13 8 13 -7 0 -15 -4 -18 -10 -4 -6 -11
-5 -19 3 -10 9 -11 14 -2 19 7 5 6 8 -4 8 -13 0 -13 1 0 10 13 8 12 10 -3 10
-10 0 -15 5 -12 10 3 6 0 10 -7 10 -9 0 -9 3 2 10 12 8 12 10 -5 10 -15 0 -16
3 -7 9 11 7 11 11 -2 23 -8 9 -12 18 -9 22 4 3 2 6 -4 6 -5 0 -10 6 -11 13 -2
22 -7 42 -15 55 -5 6 -5 12 0 12 4 0 2 4 -6 9 -12 8 -13 12 -1 25 11 14 10 16
-6 9 -17 -6 -18 -5 -4 12 12 15 12 17 1 10 -11 -6 -13 -2 -9 19 3 14 1 29 -3
32 -5 3 -9 18 -9 34 0 16 -5 32 -11 36 -8 4 -7 9 2 15 10 6 11 9 2 9 -7 0 -13
11 -13 24 0 14 -4 27 -8 30 -4 2 -9 19 -10 37 -2 18 -8 36 -13 40 -8 4 -7 8 2
12 12 5 12 6 0 6 -11 1 -11 4 -1 16 11 13 10 14 -6 8 -17 -6 -17 -5 -5 10 11
14 11 18 -2 23 -9 3 -14 15 -12 29 1 15 -2 22 -8 18 -6 -4 -8 0 -4 11 4 10 3
15 -3 11 -6 -4 -10 7 -10 24 0 16 -6 32 -12 34 -9 4 -9 6 1 6 11 1 10 5 -5 17
-10 8 -13 13 -7 9 9 -4 11 -1 7 9 -3 9 -10 16 -15 16 -5 0 -9 5 -9 11 0 5 6 7
13 3 6 -4 4 2 -6 13 -10 11 -15 27 -11 37 4 10 1 16 -7 16 -10 0 -10 3 -1 12
7 7 12 17 12 23 0 5 -4 4 -9 -4 -6 -9 -10 -1 -13 27 -2 25 0 38 7 34 5 -3 2 3
-7 14 -12 14 -14 24 -7 37 7 12 6 17 -2 17 -8 0 -8 4 -2 13 12 15 13 48 1 41
-4 -3 -8 0 -8 5 0 6 6 11 13 11 8 0 8 3 2 8 -6 4 -12 25 -13 47 -2 50 -26 138
-35 129 -4 -4 -7 2 -7 14 0 12 -5 22 -11 22 -8 0 -8 4 0 14 10 12 8 14 -11 10
-13 -2 -17 -2 -11 2 10 4 9 9 -3 21 -8 8 -18 28 -21 44 -3 16 -9 26 -14 23 -5
-3 -9 4 -9 16 0 13 4 19 12 14 7 -4 8 -3 4 4 -4 6 -14 8 -24 5 -9 -3 -14 -3
-10 2 4 4 2 17 -4 29 -7 11 -13 24 -14 29 -1 4 -3 10 -4 15 -1 4 -2 10 -1 15
0 4 -3 7 -9 7 -5 0 -10 9 -10 20 0 11 -5 20 -11 20 -7 0 -9 10 -7 25 3 14 1
28 -5 32 -6 4 -7 1 -2 -7 5 -9 4 -11 -3 -6 -7 4 -12 20 -12 36 0 19 -6 31 -18
34 -10 4 -19 12 -19 19 -1 33 -22 69 -35 60 -4 -2 -5 2 -2 10 3 8 -2 21 -10
30 -8 8 -12 17 -9 21 4 3 -1 6 -10 6 -9 0 -17 5 -17 11 0 5 6 7 13 3 6 -3 -1
6 -16 21 -16 15 -26 33 -23 42 3 8 2 12 -2 9 -15 -9 -41 21 -37 43 2 12 0 19
-6 16 -5 -4 -6 -12 -2 -18 4 -7 -1 -5 -11 3 -11 9 -14 16 -7 18 6 2 0 13 -14
24 -14 11 -22 25 -18 31 3 7 3 9 -1 5 -4 -3 -19 3 -32 15 -23 19 -40 27 -71
29 -7 1 -13 5 -13 10 0 4 -3 7 -7 7 -5 -1 -10 0 -13 1 -23 9 -50 4 -50 -8z
m-595 -1912 c3 -5 1 -10 -4 -10 -6 0 -11 5 -11 10 0 6 2 10 4 10 3 0 8 -4 11
-10z m8398 -195 c-3 -9 -8 -14 -10 -11 -3 3 -2 9 2 15 9 16 15 13 8 -4z m-12
-59 c5 3 9 0 9 -6 0 -7 -7 -9 -16 -6 -9 3 -18 6 -20 6 -3 0 -2 5 2 12 6 9 9 9
12 0 2 -7 8 -10 13 -6z m-2361 -1086 c0 -5 -5 -10 -11 -10 -5 0 -7 5 -4 10 3
6 8 10 11 10 2 0 4 -4 4 -10z m60 -44 c0 -3 -4 -8 -10 -11 -5 -3 -10 -1 -10 4
0 6 5 11 10 11 6 0 10 -2 10 -4z m4 -41 c-4 -8 -1 -15 5 -15 6 0 8 -7 5 -15
-4 -8 -1 -15 5 -15 6 0 8 -7 5 -15 -4 -8 -2 -15 3 -15 5 0 10 -8 11 -17 3 -37
8 -59 16 -71 4 -6 4 -17 0 -24 -5 -7 -10 -4 -16 11 -5 13 -12 19 -19 15 -8 -5
-9 -3 -3 7 9 14 7 57 -4 74 -3 5 -7 16 -9 25 -1 8 -5 27 -9 43 -4 17 -2 27 5
27 5 0 8 -7 5 -15z m-5645 -269 c-9 -8 -10 -7 -5 7 3 10 7 24 7 30 1 7 3 4 6
-7 3 -10 -1 -23 -8 -30z m2746 -185 c3 -5 1 -12 -5 -16 -5 -3 -10 1 -10 9 0
18 6 21 15 7z m-1645 -111 c0 -5 -2 -10 -4 -10 -3 0 -8 5 -11 10 -3 6 -1 10 4
10 6 0 11 -4 11 -10z m-3 -95 c0 -8 -4 -12 -9 -9 -5 3 -6 10 -3 15 9 13 12 11
12 -6z m-1597 -55 c0 -5 -2 -10 -4 -10 -3 0 -8 5 -11 10 -3 6 -1 10 4 10 6 0
11 -4 11 -10z m60 -720 c0 -5 -2 -10 -4 -10 -3 0 -8 5 -11 10 -3 6 -1 10 4 10
6 0 11 -4 11 -10z m2440 -260 c0 -5 -5 -10 -11 -10 -5 0 -7 5 -4 10 3 6 8 10
11 10 2 0 4 -4 4 -10z m3475 -1018 c-3 -3 -11 0 -18 7 -9 10 -8 11 6 5 10 -3
15 -9 12 -12z m5 -22 c0 -5 -5 -10 -11 -10 -5 0 -7 5 -4 10 3 6 8 10 11 10 2
0 4 -4 4 -10z m30 0 c0 -5 -5 -10 -11 -10 -5 0 -7 5 -4 10 3 6 8 10 11 10 2 0
4 -4 4 -10z m-10 -29 c0 -6 -9 -9 -19 -8 -11 0 -17 5 -15 9 7 11 34 10 34 -1z
m-23 -86 c0 -8 -4 -15 -8 -15 -11 0 -20 16 -12 24 11 11 20 7 20 -9z m5213
-1709 c0 -2 -8 -10 -17 -17 -16 -13 -17 -12 -4 4 13 16 21 21 21 13z m-141
-143 c-18 -23 -52 -52 -61 -53 -8 0 63 69 71 70 2 0 -3 -8 -10 -17z m-919
-1181 c0 -9 -33 -27 -67 -37 -18 -5 -22 -3 -17 9 3 8 12 12 20 9 8 -3 14 0 14
7 0 7 7 10 15 6 8 -3 15 -1 15 4 0 6 5 10 10 10 6 0 10 -4 10 -8z m-4505
-2919 c8 -32 14 -67 14 -78 0 -33 -16 4 -22 52 -4 22 -9 54 -13 70 -4 15 -4
25 0 21 4 -3 14 -32 21 -65z m-430 28 c3 -5 2 -12 -3 -15 -5 -3 -9 1 -9 9 0
17 3 19 12 6z m45 -61 c0 -5 -2 -10 -4 -10 -3 0 -8 5 -11 10 -3 6 -1 10 4 10
6 0 11 -4 11 -10z m25 -80 c3 -5 2 -10 -4 -10 -5 0 -13 5 -16 10 -3 6 -2 10 4
10 5 0 13 -4 16 -10z m10 -108 c-3 -3 -11 0 -18 7 -9 10 -8 11 6 5 10 -3 15
-9 12 -12z m60 0 c-3 -3 -11 0 -18 7 -9 10 -8 11 6 5 10 -3 15 -9 12 -12z m85
-106 c0 -2 -7 -7 -16 -10 -8 -3 -12 -2 -9 4 6 10 25 14 25 6z m-10 -40 c0 -2
-8 -10 -17 -17 -16 -13 -17 -12 -4 4 13 16 21 21 21 13z m55 -6 c-3 -5 -12
-10 -18 -10 -7 0 -6 4 3 10 19 12 23 12 15 0z m-7009 -41 c19 -22 19 -22 -3
-10 -24 12 -39 31 -25 31 5 0 17 -10 28 -21z m6849 1 c3 -6 -1 -7 -9 -4 -18 7
-21 14 -7 14 6 0 13 -4 16 -10z m75 -80 c0 -5 -2 -10 -4 -10 -3 0 -8 5 -11 10
-3 6 -1 10 4 10 6 0 11 -4 11 -10z m115 -88 c-3 -3 -11 0 -18 7 -9 10 -8 11 6
5 10 -3 15 -9 12 -12z m-6510 -232 c-3 -5 -12 -10 -18 -10 -7 0 -6 4 3 10 19
12 23 12 15 0z m9 -78 c3 -5 -1 -9 -9 -9 -8 0 -12 4 -9 9 3 4 7 8 9 8 2 0 6
-4 9 -8z m86 -96 c0 -3 -4 -8 -10 -11 -5 -3 -10 -1 -10 4 0 6 5 11 10 11 6 0
10 -2 10 -4z m71 -139 c-10 -9 -11 -8 -5 6 3 10 9 15 12 12 3 -3 0 -11 -7 -18z"/>
<path d="M3030 14206 c0 -2 7 -7 16 -10 8 -3 12 -2 9 4 -6 10 -25 14 -25 6z"/>
<path d="M3546 13858 c3 -5 10 -6 15 -3 13 9 11 12 -6 12 -8 0 -12 -4 -9 -9z"/>
<path d="M11030 13865 c0 -7 30 -13 34 -7 3 4 -4 9 -15 9 -10 1 -19 0 -19 -2z"/>
<path d="M11096 13862 c-3 -4 4 -9 15 -9 23 -2 25 3 4 10 -8 4 -16 3 -19 -1z"/>
<path d="M11016 13818 c3 -4 11 -5 19 -1 21 7 19 12 -4 10 -11 0 -18 -5 -15
-9z"/>
<path d="M11133 13815 c0 -8 4 -12 9 -9 5 3 6 10 3 15 -9 13 -12 11 -12 -6z"/>
<path d="M11066 13798 c3 -5 10 -6 15 -3 13 9 11 12 -6 12 -8 0 -12 -4 -9 -9z"/>
<path d="M10930 13780 c0 -5 5 -10 11 -10 5 0 7 5 4 10 -3 6 -8 10 -11 10 -2
0 -4 -4 -4 -10z"/>
<path d="M11094 13776 c1 -8 5 -18 8 -22 4 -3 5 1 4 10 -1 8 -5 18 -8 22 -4 3
-5 -1 -4 -10z"/>
<path d="M10850 13751 c0 -6 4 -13 10 -16 6 -3 7 1 4 9 -7 18 -14 21 -14 7z"/>
<path d="M10904 13743 c4 -4 16 -8 28 -10 28 -4 18 6 -12 12 -12 2 -20 1 -16
-2z"/>
<path d="M11035 13739 c-3 -4 2 -6 10 -5 21 3 28 13 10 13 -9 0 -18 -4 -20 -8z"/>
<path d="M11154 13742 c4 -3 14 -7 22 -8 9 -1 13 0 10 4 -4 3 -14 7 -22 8 -9
1 -13 0 -10 -4z"/>
<path d="M11214 13742 c4 -3 14 -7 22 -8 9 -1 13 0 10 4 -4 3 -14 7 -22 8 -9
1 -13 0 -10 -4z"/>
<path d="M11155 13699 c-3 -4 2 -6 10 -5 21 3 28 13 10 13 -9 0 -18 -4 -20 -8z"/>
<path d="M11333 13671 c0 -11 5 -18 9 -15 4 3 5 11 1 19 -7 21 -12 19 -10 -4z"/>
<path d="M3025 13560 c-3 -6 1 -7 9 -4 18 7 21 14 7 14 -6 0 -13 -4 -16 -10z"/>
<path d="M11455 13541 c-3 -5 -2 -12 3 -15 5 -3 9 1 9 9 0 17 -3 19 -12 6z"/>
<path d="M2836 13513 c-6 -14 -5 -15 5 -6 7 7 10 15 7 18 -3 3 -9 -2 -12 -12z"/>
<path d="M4636 13518 c3 -5 10 -6 15 -3 13 9 11 12 -6 12 -8 0 -12 -4 -9 -9z"/>
<path d="M4350 13499 c0 -5 5 -7 10 -4 6 3 10 8 10 11 0 2 -4 4 -10 4 -5 0
-10 -5 -10 -11z"/>
<path d="M10935 13500 c3 -5 8 -10 11 -10 2 0 4 5 4 10 0 6 -5 10 -11 10 -5 0
-7 -4 -4 -10z"/>
<path d="M3046 13474 c-5 -14 -4 -15 9 -4 17 14 19 20 6 20 -5 0 -12 -7 -15
-16z"/>
<path d="M10990 13459 c0 -5 5 -7 10 -4 6 3 10 8 10 11 0 2 -4 4 -10 4 -5 0
-10 -5 -10 -11z"/>
<path d="M2915 13440 c3 -5 8 -10 11 -10 2 0 4 5 4 10 0 6 -5 10 -11 10 -5 0
-7 -4 -4 -10z"/>
<path d="M4553 13425 c0 -8 4 -12 9 -9 5 3 6 10 3 15 -9 13 -12 11 -12 -6z"/>
<path d="M11320 13341 c0 -10 39 -46 43 -40 2 2 -7 14 -20 26 -13 12 -23 19
-23 14z"/>
<path d="M4755 13111 c-3 -5 -2 -12 3 -15 5 -3 9 1 9 9 0 17 -3 19 -12 6z"/>
<path d="M4556 13087 c3 -10 9 -15 12 -12 3 3 0 11 -7 18 -10 9 -11 8 -5 -6z"/>
<path d="M2789 13003 c-13 -16 -12 -17 4 -4 16 13 21 21 13 21 -2 0 -10 -8
-17 -17z"/>
<path d="M11534 13009 c-5 -8 -3 -9 6 -4 7 4 16 2 22 -6 8 -12 9 -12 6 0 -6
20 -24 25 -34 10z"/>
<path d="M2790 12920 c0 -5 5 -10 11 -10 5 0 7 5 4 10 -3 6 -8 10 -11 10 -2 0
-4 -4 -4 -10z"/>
<path d="M4756 12882 c-3 -5 1 -9 9 -9 8 0 12 4 9 9 -3 4 -7 8 -9 8 -2 0 -6
-4 -9 -8z"/>
<path d="M4526 12838 c3 -5 10 -6 15 -3 13 9 11 12 -6 12 -8 0 -12 -4 -9 -9z"/>
<path d="M5629 12803 c-5 -37 -5 -73 0 -73 4 0 7 18 7 40 1 35 -4 55 -7 33z"/>
<path d="M5619 12713 c0 -5 -2 -24 -5 -43 -12 -94 -5 -232 14 -267 4 -6 7 62
7 153 0 90 -3 164 -7 164 -5 0 -8 -3 -9 -7z"/>
<path d="M11774 12679 c-3 -6 -1 -16 5 -22 9 -9 10 -7 5 7 -6 15 -4 17 6 11 9
-5 11 -4 6 3 -9 15 -13 15 -22 1z"/>
<path d="M11795 12640 c-3 -5 -1 -10 4 -10 6 0 11 5 11 10 0 6 -2 10 -4 10 -3
0 -8 -4 -11 -10z"/>
<path d="M2865 12600 c-3 -6 1 -7 9 -4 18 7 21 14 7 14 -6 0 -13 -4 -16 -10z"/>
<path d="M11786 12592 c-3 -6 -1 -14 5 -17 15 -10 25 3 12 16 -7 7 -13 7 -17
1z"/>
<path d="M1336 12567 c3 -10 9 -15 12 -12 3 3 0 11 -7 18 -10 9 -11 8 -5 -6z"/>
<path d="M5025 12541 c-3 -5 -2 -12 3 -15 5 -3 9 1 9 9 0 17 -3 19 -12 6z"/>
<path d="M11836 12538 c3 -4 11 -5 19 -1 21 7 19 12 -4 10 -11 0 -18 -5 -15
-9z"/>
<path d="M11810 12526 c0 -2 7 -7 16 -10 8 -3 12 -2 9 4 -6 10 -25 14 -25 6z"/>
<path d="M11855 12520 c-3 -5 -1 -10 4 -10 6 0 11 5 11 10 0 6 -2 10 -4 10 -3
0 -8 -4 -11 -10z"/>
<path d="M2827 12499 c7 -7 15 -10 18 -7 3 3 -2 9 -12 12 -14 6 -15 5 -6 -5z"/>
<path d="M11910 12419 c0 -5 5 -7 10 -4 6 3 10 8 10 11 0 2 -4 4 -10 4 -5 0
-10 -5 -10 -11z"/>
<path d="M11877 12407 c4 -6 8 -15 8 -19 0 -16 11 -15 12 2 1 10 -5 21 -13 24
-10 4 -13 2 -7 -7z"/>
<path d="M11950 12340 c0 -5 5 -10 11 -10 5 0 7 5 4 10 -3 6 -8 10 -11 10 -2
0 -4 -4 -4 -10z"/>
<path d="M11936 12291 c-4 -5 3 -7 14 -4 23 6 26 13 6 13 -8 0 -17 -4 -20 -9z"/>
<path d="M10915 12280 c-3 -5 -1 -10 4 -10 6 0 11 5 11 10 0 6 -2 10 -4 10 -3
0 -8 -4 -11 -10z"/>
<path d="M10910 12160 c0 -5 5 -10 11 -10 5 0 7 5 4 10 -3 6 -8 10 -11 10 -2
0 -4 -4 -4 -10z"/>
<path d="M10900 12111 c0 -7 -5 -9 -12 -5 -7 5 -8 3 -3 -5 5 -9 10 -10 18 -2
6 6 8 14 4 18 -4 3 -7 1 -7 -6z"/>
<path d="M4155 12029 c-4 -6 -5 -12 -2 -15 2 -3 7 2 10 11 7 17 1 20 -8 4z"/>
<path d="M1496 11912 c-4 -6 -2 -21 5 -33 8 -15 8 -19 0 -15 -6 4 -11 2 -11
-3 0 -6 6 -11 13 -11 7 0 8 -3 2 -8 -15 -10 -17 -32 -3 -29 7 1 12 -3 13 -10
0 -6 3 -14 7 -18 9 -9 5 16 -5 33 -5 6 -4 12 1 12 11 0 8 34 -5 69 -6 16 -12
20 -17 13z"/>
<path d="M10810 11740 c-9 -6 -10 -10 -3 -10 6 0 15 5 18 10 8 12 4 12 -15 0z"/>
<path d="M10802 11674 c8 -12 -17 -35 -28 -26 -4 4 -4 1 0 -5 4 -7 14 -13 23
-13 9 0 13 3 10 7 -4 3 -2 12 4 19 7 8 6 14 -2 20 -7 4 -10 3 -7 -2z"/>
<path d="M14666 11602 c-3 -5 1 -9 9 -9 8 0 12 4 9 9 -3 4 -7 8 -9 8 -2 0 -6
-4 -9 -8z"/>
<path d="M14615 11589 c-4 -6 -5 -12 -2 -15 2 -3 7 2 10 11 7 17 1 20 -8 4z"/>
<path d="M14650 11561 c0 -6 4 -12 8 -15 5 -3 9 1 9 9 0 8 -4 15 -9 15 -4 0
-8 -4 -8 -9z"/>
<path d="M14616 11521 c9 -9 34 -9 34 -1 0 5 -9 8 -20 7 -10 -1 -17 -3 -14 -6z"/>
<path d="M14590 11486 c0 -2 7 -7 16 -10 8 -3 12 -2 9 4 -6 10 -25 14 -25 6z"/>
<path d="M1566 11207 c3 -10 9 -15 12 -12 3 3 0 11 -7 18 -10 9 -11 8 -5 -6z"/>
<path d="M8493 11173 c0 -11 7 -20 14 -20 10 0 10 4 1 16 -7 9 -13 18 -15 20
-1 2 -1 -5 0 -16z"/>
<path d="M1559 11173 c0 -5 -2 -16 -4 -25 -2 -10 0 -18 5 -18 4 0 10 11 12 25
3 14 1 25 -3 25 -5 0 -9 -3 -10 -7z"/>
<path d="M8506 11127 c3 -10 9 -15 12 -12 3 3 0 11 -7 18 -10 9 -11 8 -5 -6z"/>
<path d="M1510 11041 c0 -6 4 -13 10 -16 6 -3 7 1 4 9 -7 18 -14 21 -14 7z"/>
<path d="M8525 11000 c3 -5 8 -10 11 -10 2 0 4 5 4 10 0 6 -5 10 -11 10 -5 0
-7 -4 -4 -10z"/>
<path d="M1480 10980 c-9 -6 -10 -10 -3 -10 6 0 15 5 18 10 8 12 4 12 -15 0z"/>
<path d="M8548 10943 c7 -3 16 -2 19 1 4 3 -2 6 -13 5 -11 0 -14 -3 -6 -6z"/>
<path d="M8530 10920 c0 -5 5 -10 10 -10 6 0 10 5 10 10 0 6 -4 10 -10 10 -5
0 -10 -4 -10 -10z"/>
<path d="M10615 10900 c-3 -5 -1 -10 4 -10 6 0 11 5 11 10 0 6 -2 10 -4 10 -3
0 -8 -4 -11 -10z"/>
<path d="M8553 10885 c0 -8 4 -12 9 -9 4 3 8 9 8 15 0 5 -4 9 -8 9 -5 0 -9 -7
-9 -15z"/>
<path d="M12575 10860 c-3 -5 -1 -10 4 -10 6 0 11 5 11 10 0 6 -2 10 -4 10 -3
0 -8 -4 -11 -10z"/>
<path d="M12548 10832 c-3 -11 0 -19 7 -19 7 0 10 8 7 19 -2 10 -6 18 -7 18
-1 0 -5 -8 -7 -18z"/>
<path d="M12616 10833 c-6 -14 -5 -15 5 -6 7 7 10 15 7 18 -3 3 -9 -2 -12 -12z"/>
<path d="M8531 10804 c0 -11 3 -14 6 -6 3 7 2 16 -1 19 -3 4 -6 -2 -5 -13z"/>
<path d="M8559 10818 c-6 -21 -5 -37 2 -32 5 3 7 9 4 14 -3 4 1 11 7 13 10 4
10 6 1 6 -7 1 -13 0 -14 -1z"/>
<path d="M12638 10813 c7 -3 16 -2 19 1 4 3 -2 6 -13 5 -11 0 -14 -3 -6 -6z"/>
<path d="M8590 10806 c0 -3 9 -10 20 -16 11 -6 20 -8 20 -6 0 3 -9 10 -20 16
-11 6 -20 8 -20 6z"/>
<path d="M12581 10796 c-9 -11 -9 -16 0 -22 7 -4 9 -3 5 4 -3 6 2 15 11 21 10
6 13 11 7 11 -6 0 -17 -6 -23 -14z"/>
<path d="M8589 10774 c6 -12 7 -24 3 -28 -3 -4 1 -4 11 0 9 3 17 11 17 17 0 6
-3 7 -7 4 -3 -4 -12 1 -20 11 -13 15 -13 15 -4 -4z"/>
<path d="M8459 10753 c-13 -16 -12 -17 4 -4 16 13 21 21 13 21 -2 0 -10 -8
-17 -17z"/>
<path d="M8510 10760 c0 -5 5 -10 10 -10 6 0 10 5 10 10 0 6 -4 10 -10 10 -5
0 -10 -4 -10 -10z"/>
<path d="M8484 10735 c-4 -8 -9 -13 -13 -11 -4 3 -7 -3 -7 -13 0 -10 6 -18 12
-18 7 0 9 7 6 16 -5 13 -3 14 9 4 13 -10 16 -10 16 2 0 8 -5 11 -10 8 -6 -4
-8 0 -4 10 3 10 4 17 1 17 -2 0 -7 -7 -10 -15z"/>
<path d="M12446 10742 c-3 -5 1 -9 9 -9 8 0 12 4 9 9 -3 4 -7 8 -9 8 -2 0 -6
-4 -9 -8z"/>
<path d="M12573 10729 c-2 -23 3 -25 10 -4 4 8 3 16 -1 19 -4 3 -9 -4 -9 -15z"/>
<path d="M8555 10720 c-2 -3 5 -7 16 -7 10 -1 19 2 19 6 0 9 -29 10 -35 1z"/>
<path d="M14590 10720 c0 -5 5 -10 11 -10 5 0 7 5 4 10 -3 6 -8 10 -11 10 -2
0 -4 -4 -4 -10z"/>
<path d="M8531 10674 c0 -11 3 -14 6 -6 3 7 2 16 -1 19 -3 4 -6 -2 -5 -13z"/>
<path d="M8553 10671 c0 -11 5 -18 9 -15 4 3 5 11 1 19 -7 21 -12 19 -10 -4z"/>
<path d="M8627 10679 c7 -7 15 -10 18 -7 3 3 -2 9 -12 12 -14 6 -15 5 -6 -5z"/>
<path d="M12653 10649 c-2 -23 3 -25 10 -4 4 8 3 16 -1 19 -4 3 -9 -4 -9 -15z"/>
<path d="M8615 10650 c-4 -6 -11 -8 -16 -5 -5 4 -9 2 -9 -3 0 -5 8 -12 18 -14
12 -4 18 1 18 13 0 22 -2 23 -11 9z"/>
<path d="M12615 10640 c-3 -5 -1 -10 4 -10 6 0 11 5 11 10 0 6 -2 10 -4 10 -3
0 -8 -4 -11 -10z"/>
<path d="M12494 10622 c4 -3 14 -7 22 -8 9 -1 13 0 10 4 -4 3 -14 7 -22 8 -9
1 -13 0 -10 -4z"/>
<path d="M8547 10572 c4 -9 2 -13 -4 -9 -5 3 -10 0 -10 -8 0 -10 4 -12 12 -5
7 5 16 6 20 2 5 -4 5 -2 2 5 -4 6 -2 13 5 15 7 3 3 7 -9 10 -17 4 -20 2 -16
-10z"/>
<path d="M8630 10585 c0 -5 5 -17 10 -25 5 -8 10 -10 10 -5 0 6 -5 17 -10 25
-5 8 -10 11 -10 5z"/>
<path d="M12597 10573 c3 -7 6 -13 8 -13 2 0 5 6 8 13 3 8 -1 14 -8 14 -7 0
-11 -6 -8 -14z"/>
<path d="M8494 10569 c-3 -6 -2 -15 3 -20 5 -5 9 -1 9 11 0 23 -2 24 -12 9z"/>
<path d="M12691 10567 c-8 -10 -7 -14 2 -14 8 0 14 6 14 14 0 7 -1 13 -2 13
-2 0 -8 -6 -14 -13z"/>
<path d="M8599 10548 c-6 -16 -4 -56 3 -52 4 3 5 10 2 16 -5 7 -2 9 8 6 8 -4
15 -1 15 7 0 8 -7 11 -15 7 -10 -3 -13 -1 -8 6 4 7 5 12 2 12 -3 0 -6 -1 -7
-2z"/>
<path d="M8676 10536 c6 -15 4 -17 -6 -11 -9 6 -11 4 -5 -4 5 -9 10 -10 18 -2
8 8 7 14 -2 24 -10 10 -11 8 -5 -7z"/>
<path d="M12596 10533 c-6 -14 -5 -15 5 -6 7 7 10 15 7 18 -3 3 -9 -2 -12 -12z"/>
<path d="M12666 10537 c3 -10 9 -15 12 -12 3 3 0 11 -7 18 -10 9 -11 8 -5 -6z"/>
<path d="M12736 10527 c3 -10 9 -15 12 -12 3 3 0 11 -7 18 -10 9 -11 8 -5 -6z"/>
<path d="M8571 10514 c0 -11 3 -14 6 -6 3 7 2 16 -1 19 -3 4 -6 -2 -5 -13z"/>
<path d="M12640 10520 c-9 -6 -10 -10 -3 -10 6 0 15 5 18 10 8 12 4 12 -15 0z"/>
<path d="M8695 10510 c-3 -6 1 -7 9 -4 18 7 21 14 7 14 -6 0 -13 -4 -16 -10z"/>
<path d="M12595 10500 c-3 -5 -1 -10 4 -10 6 0 11 5 11 10 0 6 -2 10 -4 10 -3
0 -8 -4 -11 -10z"/>
<path d="M8528 10493 c-10 -2 -18 -9 -18 -15 0 -6 3 -8 7 -5 3 4 11 3 17 -3 8
-6 12 -3 12 11 0 10 0 18 -1 18 0 -1 -8 -3 -17 -6z"/>
<path d="M8655 10490 c-4 -6 -11 -7 -17 -4 -6 4 -8 2 -4 -4 3 -5 1 -12 -6 -14
-7 -3 -3 -7 9 -10 17 -4 20 -2 16 10 -4 9 -2 13 4 9 5 -3 10 0 10 8 0 18 -3
19 -12 5z"/>
<path d="M12654 10479 c0 -12 4 -15 12 -9 6 6 14 7 17 3 4 -3 7 -2 7 4 0 6 -8
13 -18 15 -12 4 -18 -1 -18 -13z"/>
<path d="M8556 10455 c-9 -26 -7 -32 5 -12 6 10 9 21 6 23 -2 3 -7 -2 -11 -11z"/>
<path d="M12530 10459 c0 -5 5 -7 10 -4 6 3 10 8 10 11 0 2 -4 4 -10 4 -5 0
-10 -5 -10 -11z"/>
<path d="M8670 10440 c0 -5 5 -10 10 -10 6 0 10 5 10 10 0 6 -4 10 -10 10 -5
0 -10 -4 -10 -10z"/>
<path d="M12760 10440 c18 -12 30 -13 30 -2 0 4 -10 9 -22 9 -18 2 -20 0 -8
-7z"/>
<path d="M12715 10431 c3 -5 -1 -12 -7 -14 -10 -4 -10 -6 0 -6 7 -1 11 -5 8
-9 -3 -5 1 -9 9 -9 11 0 12 4 4 13 -7 8 -6 13 3 16 8 3 6 7 -6 11 -9 4 -15 3
-11 -2z"/>
<path d="M8710 10412 c6 -13 14 -21 18 -18 3 4 -2 14 -12 24 -18 16 -18 16 -6
-6z"/>
<path d="M12595 10419 c-3 -4 2 -6 10 -5 21 3 28 13 10 13 -9 0 -18 -4 -20 -8z"/>
<path d="M12667 10419 c7 -7 15 -10 18 -7 3 3 -2 9 -12 12 -14 6 -15 5 -6 -5z"/>
<path d="M8530 10401 c0 -6 4 -13 10 -16 6 -3 7 1 4 9 -7 18 -14 21 -14 7z"/>
<path d="M8593 10403 c4 -3 3 -11 -3 -17 -6 -8 -3 -12 9 -12 12 0 17 6 13 18
-2 10 -9 18 -15 18 -6 0 -7 -3 -4 -7z"/>
<path d="M12779 10393 c-13 -16 -12 -17 4 -4 9 7 17 15 17 17 0 8 -8 3 -21
-13z"/>
<path d="M12685 10379 c-4 -6 -5 -12 -2 -15 2 -3 7 2 10 11 7 17 1 20 -8 4z"/>
<path d="M12615 10351 c-3 -5 -2 -12 3 -15 5 -3 9 1 9 9 0 17 -3 19 -12 6z"/>
<path d="M8535 10339 c-6 -8 -4 -10 5 -4 10 6 12 4 6 -11 -6 -15 -5 -17 5 -6
9 9 10 15 2 23 -8 8 -13 7 -18 -2z"/>
<path d="M8599 10348 c-6 -20 -5 -38 2 -49 7 -10 8 -6 5 13 -3 15 1 29 7 32 9
3 9 5 0 5 -7 1 -13 0 -14 -1z"/>
<path d="M12570 10346 c0 -2 7 -7 16 -10 8 -3 12 -2 9 4 -6 10 -25 14 -25 6z"/>
<path d="M8700 10332 c0 -6 -11 -9 -27 -6 -15 3 -25 3 -22 -1 12 -11 49 -14
55 -4 3 6 3 13 0 16 -3 4 -6 1 -6 -5z"/>
<path d="M8731 10325 c2 -37 -1 -46 -13 -39 -7 4 -8 3 -4 -5 4 -6 12 -9 17 -6
5 4 12 -1 15 -9 3 -9 11 -16 17 -16 5 0 3 8 -6 18 -20 22 -22 36 -4 26 9 -6 9
-4 1 7 -6 8 -14 21 -17 29 -5 11 -6 9 -6 -5z"/>
<path d="M12673 10314 c0 -10 4 -11 13 -3 8 7 14 6 17 -1 3 -6 5 -6 3 1 -3 17
-33 20 -33 3z"/>
<path d="M8644 10299 c-3 -6 0 -17 8 -25 13 -13 15 -13 15 0 0 8 -5 12 -10 9
-6 -4 -8 0 -4 10 7 19 2 23 -9 6z"/>
<path d="M12787 10293 c4 -10 2 -14 -4 -10 -5 3 -10 0 -10 -8 0 -13 4 -12 19
2 22 19 22 19 4 26 -11 4 -13 1 -9 -10z"/>
<path d="M1236 10287 c3 -10 9 -15 12 -12 3 3 0 11 -7 18 -10 9 -11 8 -5 -6z"/>
<path d="M8575 10291 c-3 -5 -2 -12 3 -15 5 -3 9 1 9 9 0 17 -3 19 -12 6z"/>
<path d="M12686 10279 c4 -8 30 -6 38 2 3 3 -5 5 -19 5 -13 0 -22 -3 -19 -7z"/>
<path d="M8556 10262 c-2 -4 -1 -14 4 -22 7 -11 9 -9 7 8 -1 24 -3 26 -11 14z"/>
<path d="M8679 10260 c-4 -34 -3 -44 9 -46 7 -1 8 0 3 2 -5 3 -7 16 -5 30 2
13 2 24 -1 24 -3 0 -6 -4 -6 -10z"/>
<path d="M12570 10260 c0 -5 5 -10 11 -10 5 0 7 5 4 10 -3 6 -8 10 -11 10 -2
0 -4 -4 -4 -10z"/>
<path d="M12752 10260 c3 -8 1 -23 -4 -32 -6 -13 -5 -16 6 -12 14 5 14 40 0
53 -4 3 -4 -1 -2 -9z"/>
<path d="M12795 10261 c-3 -5 0 -13 6 -17 7 -4 9 -3 5 4 -3 5 0 13 6 15 9 4
10 6 1 6 -6 1 -14 -3 -18 -8z"/>
<path d="M12690 10256 c0 -2 8 -10 18 -17 15 -13 16 -12 3 4 -13 16 -21 21
-21 13z"/>
<path d="M8720 10231 c-8 -16 -7 -19 8 -16 9 2 19 4 22 5 3 1 9 2 13 1 5 -1 6
3 2 9 -5 8 -12 7 -23 -2 -13 -11 -15 -10 -9 5 9 23 0 22 -13 -2z"/>
<path d="M12654 10236 c1 -8 5 -18 8 -22 4 -3 5 1 4 10 -1 8 -5 18 -8 22 -4 3
-5 -1 -4 -10z"/>
<path d="M8598 10211 c5 -13 3 -14 -9 -4 -13 10 -16 10 -16 -1 0 -18 27 -14
38 6 5 10 4 15 -5 15 -9 0 -12 -7 -8 -16z"/>
<path d="M12708 10213 c7 -3 16 -2 19 1 4 3 -2 6 -13 5 -11 0 -14 -3 -6 -6z"/>
<path d="M12555 10200 c-3 -5 -1 -10 4 -10 6 0 11 5 11 10 0 6 -2 10 -4 10 -3
0 -8 -4 -11 -10z"/>
<path d="M12585 10200 c-3 -6 1 -7 9 -4 18 7 21 14 7 14 -6 0 -13 -4 -16 -10z"/>
<path d="M12760 10200 c-9 -6 -10 -10 -3 -10 6 0 15 5 18 10 8 12 4 12 -15 0z"/>
<path d="M12790 10206 c0 -2 9 -6 20 -9 11 -3 18 -1 14 4 -5 9 -34 13 -34 5z"/>
<path d="M8642 10178 c-7 -7 -12 -15 -12 -19 0 -9 27 -5 37 6 5 4 2 5 -6 0
-11 -6 -13 -4 -8 8 8 20 5 21 -11 5z"/>
<path d="M8753 10179 c14 -8 16 -14 6 -25 -8 -10 -9 -18 0 -27 6 -8 8 -17 4
-21 -4 -4 0 -4 9 -1 9 4 19 2 23 -4 6 -10 -9 -15 -42 -14 -6 0 -14 -5 -17 -13
-4 -10 0 -11 20 -4 38 15 50 12 28 -6 -10 -8 -13 -13 -6 -9 7 4 12 0 12 -9 0
-9 -4 -16 -10 -16 -5 0 -10 -5 -10 -11 0 -8 5 -8 15 1 18 15 19 1 1 -22 -10
-14 -15 -15 -26 -5 -11 10 -11 8 0 -6 12 -16 16 -17 24 -4 6 8 16 16 21 18 11
4 11 71 -1 97 -9 20 -11 28 -13 43 -1 8 -6 8 -16 -1 -9 -8 -15 -9 -15 -2 0 6
5 14 10 17 13 8 -6 35 -24 35 -6 0 -3 -5 7 -11z"/>
<path d="M12654 10176 c1 -8 5 -18 8 -22 4 -3 5 1 4 10 -1 8 -5 18 -8 22 -4 3
-5 -1 -4 -10z"/>
<path d="M12787 10172 c4 -9 2 -13 -4 -9 -5 3 -10 0 -10 -8 0 -10 4 -12 12 -5
7 5 15 7 19 3 4 -4 4 1 0 11 -6 15 -4 17 7 11 8 -5 11 -4 6 0 -14 16 -36 14
-30 -3z"/>
<path d="M12583 10162 c10 -10 14 -22 10 -27 -5 -4 -2 -5 5 -1 11 6 10 12 -4
27 -9 10 -19 19 -22 19 -3 0 2 -8 11 -18z"/>
<path d="M8596 10138 c3 -4 -1 -8 -8 -8 -9 0 -10 -3 -2 -8 6 -4 10 -15 8 -25
-1 -9 1 -15 6 -12 5 3 7 13 5 23 -1 9 1 22 6 28 5 7 3 11 -6 11 -8 0 -12 -4
-9 -9z"/>
<path d="M12829 10137 c6 -8 9 -16 6 -19 -3 -2 2 -5 10 -5 13 0 13 3 -2 19
-19 21 -31 25 -14 5z"/>
<path d="M8690 10129 c0 -5 -6 -7 -12 -3 -7 4 -10 4 -6 -1 4 -4 3 -13 -2 -20
-7 -8 -5 -12 5 -12 8 0 11 5 8 10 -4 6 0 8 9 4 12 -4 14 -1 11 14 -6 21 -13
26 -13 8z"/>
<path d="M12728 10111 c4 -11 7 -11 10 -3 3 9 8 10 16 3 9 -8 13 -7 13 2 0 7
-10 13 -23 13 -15 0 -20 -4 -16 -15z"/>
<path d="M12590 10099 c0 -5 5 -7 10 -4 6 3 10 8 10 11 0 2 -4 4 -10 4 -5 0
-10 -5 -10 -11z"/>
<path d="M12674 10102 c4 -3 14 -7 22 -8 9 -1 13 0 10 4 -4 3 -14 7 -22 8 -9
1 -13 0 -10 -4z"/>
<path d="M8614 10078 c-3 -5 -2 -8 3 -7 19 3 27 -2 15 -10 -11 -7 -11 -9 0
-14 9 -3 14 3 14 17 0 22 -22 31 -32 14z"/>
<path d="M12790 10080 c0 -5 9 -8 20 -7 21 1 18 10 -5 13 -8 1 -15 -2 -15 -6z"/>
<path d="M8721 10032 c-7 -14 -6 -19 4 -19 7 0 11 7 7 15 -4 11 -1 13 8 7 9
-5 11 -4 6 3 -10 16 -14 15 -25 -6z"/>
<path d="M8615 10020 c-3 -6 1 -7 9 -4 18 7 21 14 7 14 -6 0 -13 -4 -16 -10z"/>
<path d="M12778 10008 c5 -5 16 -8 23 -6 8 3 3 7 -10 11 -17 4 -21 3 -13 -5z"/>
<path d="M8667 9991 c-3 -13 0 -18 7 -15 7 3 13 11 13 19 0 22 -14 18 -20 -4z"/>
<path d="M12600 10006 c0 -2 7 -9 15 -16 13 -11 14 -10 9 4 -5 14 -24 23 -24
12z"/>
<path d="M8720 9974 c-11 -12 -10 -18 3 -30 9 -8 13 -9 7 -3 -6 8 -5 19 1 31
12 22 6 24 -11 2z"/>
<path d="M8630 9970 c-9 -6 -10 -10 -3 -10 6 0 15 5 18 10 8 12 4 12 -15 0z"/>
<path d="M8800 9969 c-11 -8 -12 -12 -2 -16 6 -2 9 -10 5 -16 -3 -7 -2 -9 2
-4 7 5 16 48 11 47 -1 0 -8 -5 -16 -11z"/>
<path d="M12615 9961 c-3 -5 -2 -12 3 -15 5 -3 9 1 9 9 0 17 -3 19 -12 6z"/>
<path d="M12685 9960 c-3 -6 1 -7 9 -4 18 7 21 14 7 14 -6 0 -13 -4 -16 -10z"/>
<path d="M12815 9961 c-3 -5 -2 -12 3 -15 5 -3 9 1 9 9 0 17 -3 19 -12 6z"/>
<path d="M8638 9943 c7 -3 16 -2 19 1 4 3 -2 6 -13 5 -11 0 -14 -3 -6 -6z"/>
<path d="M8768 9933 c-22 -5 -24 -20 -3 -20 8 0 16 6 19 14 3 7 4 12 3 12 -1
-1 -10 -3 -19 -6z"/>
<path d="M12636 9932 c-5 -9 -2 -39 5 -46 3 -3 5 8 4 24 0 32 -1 35 -9 22z"/>
<path d="M8610 9919 c0 -5 5 -7 10 -4 6 3 10 8 10 11 0 2 -4 4 -10 4 -5 0 -10
-5 -10 -11z"/>
<path d="M8715 9900 c6 -10 4 -12 -11 -6 -15 6 -17 5 -6 -5 9 -9 15 -10 23 -2
8 8 7 13 -2 18 -8 6 -10 4 -4 -5z"/>
<path d="M8802 9896 c7 -8 15 -12 17 -11 5 6 -10 25 -20 25 -5 0 -4 -6 3 -14z"/>
<path d="M12715 9899 c-3 -4 2 -6 10 -5 21 3 28 13 10 13 -9 0 -18 -4 -20 -8z"/>
<path d="M12776 9902 c-3 -5 1 -9 9 -9 8 0 12 4 9 9 -3 4 -7 8 -9 8 -2 0 -6
-4 -9 -8z"/>
<path d="M12591 9893 c-1 -7 8 -17 19 -23 16 -9 18 -8 14 5 -3 8 -10 13 -14
10 -5 -3 -11 1 -13 7 -4 10 -6 10 -6 1z"/>
<path d="M8624 9872 c0 -10 6 -19 13 -19 8 0 9 6 2 19 -5 10 -11 18 -12 18 -2
0 -3 -8 -3 -18z"/>
<path d="M8736 9882 c-3 -5 1 -9 9 -9 8 0 12 4 9 9 -3 4 -7 8 -9 8 -2 0 -6 -4
-9 -8z"/>
<path d="M8679 9860 c-4 -34 -3 -44 9 -46 7 -1 8 0 3 2 -5 3 -7 16 -5 30 2 13
2 24 -1 24 -3 0 -6 -4 -6 -10z"/>
<path d="M8793 9848 c-2 -18 0 -20 7 -8 12 18 13 30 2 30 -4 0 -9 -10 -9 -22z"/>
<path d="M12705 9860 c-3 -6 1 -7 9 -4 18 7 21 14 7 14 -6 0 -13 -4 -16 -10z"/>
<path d="M8817 9836 c-4 -10 -1 -13 8 -9 8 3 12 9 9 14 -7 12 -11 11 -17 -5z"/>
<path d="M12636 9835 c-9 -26 -7 -32 5 -12 6 10 9 21 6 23 -2 3 -7 -2 -11 -11z"/>
<path d="M12716 9841 c-3 -5 2 -15 12 -22 15 -12 16 -12 5 2 -7 9 -10 19 -6
22 3 4 4 7 0 7 -3 0 -8 -4 -11 -9z"/>
<path d="M8750 9810 c5 -10 6 -21 2 -26 -4 -5 0 -3 10 4 13 10 17 10 21 0 3
-7 4 -3 4 9 -1 18 -4 20 -16 10 -12 -10 -14 -9 -9 4 4 9 1 16 -7 16 -10 0 -11
-5 -5 -17z"/>
<path d="M12677 9817 c4 -6 0 -8 -8 -5 -10 4 -15 -1 -17 -15 -1 -17 1 -19 8
-7 9 14 14 7 11 -13 -1 -5 3 -6 9 -2 6 3 8 11 4 16 -3 5 -1 16 5 23 8 9 7 13
-4 13 -8 0 -11 -5 -8 -10z"/>
<path d="M8823 9794 c-9 -20 -9 -26 3 -31 7 -3 11 -10 7 -16 -4 -6 -1 -7 7 -2
9 5 10 2 5 -14 -3 -11 -2 -21 3 -21 8 0 9 19 3 53 0 4 -8 7 -17 7 -8 0 -12 5
-9 10 4 6 10 8 15 5 4 -3 6 4 3 15 -7 25 -6 25 -20 -6z"/>
<path d="M12746 9805 c-11 -8 -15 -15 -9 -15 6 0 16 7 23 15 16 19 11 19 -14
0z"/>
<path d="M8636 9793 c-6 -14 -5 -15 5 -6 7 7 10 15 7 18 -3 3 -9 -2 -12 -12z"/>
<path d="M8668 9768 c2 -10 9 -18 15 -18 6 0 7 3 4 7 -4 3 -3 11 3 17 6 8 3
12 -9 12 -12 0 -17 -6 -13 -18z"/>
<path d="M12736 9767 c3 -10 9 -15 12 -12 3 3 0 11 -7 18 -10 9 -11 8 -5 -6z"/>
<path d="M8797 9753 c-10 -9 -9 -23 1 -23 5 0 9 7 9 15 0 17 -1 18 -10 8z"/>
<path d="M8718 9743 c7 -3 16 -2 19 1 4 3 -2 6 -13 5 -11 0 -14 -3 -6 -6z"/>
<path d="M12635 9740 c3 -5 8 -10 11 -10 2 0 4 5 4 10 0 6 -5 10 -11 10 -5 0
-7 -4 -4 -10z"/>
<path d="M12708 9743 c7 -3 16 -2 19 1 4 3 -2 6 -13 5 -11 0 -14 -3 -6 -6z"/>
<path d="M8710 9715 c5 -7 7 -15 3 -18 -3 -4 -1 -7 5 -7 6 0 10 8 9 18 0 10
-7 19 -14 19 -9 0 -10 -4 -3 -12z"/>
<path d="M8655 9709 c-4 -6 -5 -12 -2 -15 2 -3 7 2 10 11 7 17 1 20 -8 4z"/>
<path d="M8794 9712 c3 -5 0 -13 -6 -15 -9 -4 -10 -6 -1 -6 17 -1 25 16 12 25
-7 4 -9 3 -5 -4z"/>
<path d="M8659 9679 c-10 -7 -6 -8 13 -5 15 2 29 0 32 -5 2 -5 3 -4 2 2 -3 15
-29 20 -47 8z"/>
<path d="M12770 9680 c0 -5 5 -10 11 -10 5 0 7 5 4 10 -3 6 -8 10 -11 10 -2 0
-4 -4 -4 -10z"/>
<path d="M8797 9669 c7 -7 15 -10 18 -7 3 3 -2 9 -12 12 -14 6 -15 5 -6 -5z"/>
<path d="M8750 9665 c4 -20 -1 -30 -9 -17 -7 11 -9 11 -14 0 -3 -9 3 -14 18
-14 22 0 27 17 11 33 -4 4 -7 4 -6 -2z"/>
<path d="M8835 9660 c3 -5 8 -10 11 -10 2 0 4 5 4 10 0 6 -5 10 -11 10 -5 0
-7 -4 -4 -10z"/>
<path d="M12753 9650 c-1 -11 2 -20 7 -20 4 0 7 7 6 15 -3 23 -12 26 -13 5z"/>
<path d="M12810 9650 c-9 -6 -10 -10 -3 -10 6 0 15 5 18 10 8 12 4 12 -15 0z"/>
<path d="M8806 9638 c3 -5 10 -6 15 -3 13 9 11 12 -6 12 -8 0 -12 -4 -9 -9z"/>
<path d="M12710 9619 c0 -5 5 -7 10 -4 6 3 10 8 10 11 0 2 -4 4 -10 4 -5 0
-10 -5 -10 -11z"/>
<path d="M8773 9606 c0 -8 5 -12 10 -9 7 4 8 -1 3 -13 -6 -15 -5 -17 5 -6 11
10 10 15 -2 28 -14 13 -16 13 -16 0z"/>
<path d="M12775 9600 c1 -10 7 -25 14 -34 10 -12 11 -16 1 -16 -9 0 -9 -4 1
-17 12 -14 12 -16 -2 -11 -9 4 -16 1 -16 -7 0 -8 7 -11 15 -7 11 4 13 2 7 -9
-7 -11 -6 -12 7 -2 8 7 17 11 19 8 3 -2 6 5 6 17 2 19 1 19 -11 3 -10 -14 -12
-11 -8 21 3 22 12 44 21 51 14 10 14 11 -4 9 -11 -2 -27 0 -36 5 -12 6 -15 3
-14 -11z"/>
<path d="M8833 9603 c4 -3 2 -11 -3 -18 -7 -8 -6 -12 3 -12 7 0 14 9 14 19 1
10 -3 18 -9 18 -6 0 -8 -3 -5 -7z"/>
<path d="M12726 9602 c-3 -5 1 -9 9 -9 8 0 12 4 9 9 -3 4 -7 8 -9 8 -2 0 -6
-4 -9 -8z"/>
<path d="M8676 9591 c-3 -5 1 -11 9 -14 9 -4 12 -1 8 9 -6 16 -10 17 -17 5z"/>
<path d="M12836 9582 c-2 -4 -1 -14 4 -22 7 -11 9 -9 7 8 -1 24 -3 26 -11 14z"/>
<path d="M12715 9570 c-3 -6 1 -7 9 -4 18 7 21 14 7 14 -6 0 -13 -4 -16 -10z"/>
<path d="M8750 9560 c0 -5 5 -10 10 -10 6 0 10 5 10 10 0 6 -4 10 -10 10 -5 0
-10 -4 -10 -10z"/>
<path d="M8675 9541 c-3 -5 0 -13 6 -17 7 -4 9 -3 5 4 -3 5 0 13 6 15 9 4 10
6 1 6 -6 1 -14 -3 -18 -8z"/>
<path d="M8788 9532 c3 -9 1 -13 -5 -9 -5 3 -10 0 -10 -8 0 -17 14 -10 26 14
7 13 6 18 -4 18 -7 0 -11 -7 -7 -15z"/>
<path d="M12853 9525 c0 -8 5 -11 10 -8 6 4 8 -1 4 -11 -4 -9 -3 -15 2 -11 5
3 11 0 13 -7 3 -7 7 -5 11 6 5 11 3 15 -5 10 -8 -5 -9 -1 -4 12 4 10 4 15 0
11 -4 -4 -12 -2 -19 3 -8 7 -12 5 -12 -5z"/>
<path d="M8673 9503 c4 -3 1 -13 -6 -22 -11 -14 -10 -14 6 -2 20 15 22 31 5
31 -6 0 -8 -3 -5 -7z"/>
<path d="M8830 9500 c0 -5 5 -10 10 -10 6 0 10 5 10 10 0 6 -4 10 -10 10 -5 0
-10 -4 -10 -10z"/>
<path d="M12738 9482 c-4 -12 -1 -25 4 -29 7 -4 8 -1 3 7 -6 9 -4 12 7 8 8 -4
15 0 15 8 0 7 -4 11 -8 8 -4 -2 -9 1 -11 8 -3 7 -7 2 -10 -10z"/>
<path d="M8727 9472 c5 -11 7 -11 14 0 8 13 13 3 9 -17 -1 -5 2 -6 6 -2 16 16
11 33 -11 33 -15 0 -21 -5 -18 -14z"/>
<path d="M12840 9480 c8 -5 20 -10 25 -10 6 0 3 5 -5 10 -8 5 -19 10 -25 10
-5 0 -3 -5 5 -10z"/>
<path d="M8867 9456 c-3 -8 1 -20 9 -26 10 -9 14 -9 14 -1 0 6 -4 11 -10 11
-5 0 -7 7 -4 15 4 8 4 15 1 15 -3 0 -7 -6 -10 -14z"/>
<path d="M8828 9453 c6 -2 9 -10 6 -15 -4 -7 -2 -8 5 -4 13 9 5 26 -12 25 -9
0 -8 -2 1 -6z"/>
<path d="M8670 9440 c0 -5 5 -10 11 -10 5 0 7 5 4 10 -3 6 -8 10 -11 10 -2 0
-4 -4 -4 -10z"/>
<path d="M12760 9436 c-5 -5 -10 -15 -10 -20 0 -6 5 -3 11 7 6 9 14 15 19 12
5 -3 11 -2 14 3 7 12 -21 11 -34 -2z"/>
<path d="M12910 9445 c0 -5 5 -17 10 -25 5 -8 10 -10 10 -5 0 6 -5 17 -10 25
-5 8 -10 11 -10 5z"/>
<path d="M8787 9424 c7 -3 9 -13 6 -22 -4 -14 -3 -14 5 -2 12 16 7 30 -11 29
-9 0 -9 -2 0 -5z"/>
<path d="M8845 9420 c-4 -6 -3 -10 2 -9 20 4 24 -2 12 -18 -11 -15 -11 -16 0
-6 7 6 20 9 27 6 22 -8 16 3 -10 21 -16 10 -27 12 -31 6z"/>
<path d="M12876 9418 c5 -7 2 -9 -8 -6 -8 4 -15 0 -15 -7 0 -10 5 -11 19 -4
16 9 17 29 2 29 -3 0 -2 -5 2 -12z"/>
<path d="M8700 9411 c0 -7 -5 -9 -12 -5 -7 4 -10 4 -6 0 3 -4 10 -8 15 -8 4 0
15 -5 23 -11 13 -11 13 -10 0 8 -8 11 -16 22 -17 24 -2 2 -3 -1 -3 -8z"/>
<path d="M12773 9395 c0 -7 6 -11 14 -8 7 3 13 6 13 8 0 2 -6 5 -13 8 -8 3
-14 -1 -14 -8z"/>
<path d="M12895 9399 c-4 -6 -4 -13 -1 -16 3 -4 6 -1 6 7 0 10 4 10 18 -1 15
-13 16 -12 3 4 -16 20 -18 20 -26 6z"/>
<path d="M8690 9376 c0 -2 8 -10 18 -17 15 -13 16 -12 3 4 -13 16 -21 21 -21
13z"/>
<path d="M8775 9370 c-4 -6 -11 -8 -16 -5 -5 4 -9 2 -9 -3 0 -5 8 -12 18 -14
12 -4 18 1 18 13 0 22 -2 23 -11 9z"/>
<path d="M8858 9368 c-9 -5 -6 -7 9 -5 12 2 25 6 28 8 8 9 -23 6 -37 -3z"/>
<path d="M12875 9355 c4 -16 0 -21 -15 -22 -11 -1 -18 2 -16 6 3 4 -1 8 -9 8
-10 0 -12 -4 -5 -12 5 -7 6 -16 2 -20 -4 -5 -2 -5 5 -1 7 3 14 -2 18 -14 3
-11 11 -20 16 -20 6 0 7 4 4 10 -3 5 -1 19 5 30 8 15 8 25 0 38 -10 15 -10 15
-5 -3z"/>
<path d="M8870 9340 c18 -12 30 -13 30 -2 0 4 -10 9 -22 9 -18 2 -20 0 -8 -7z"/>
<path d="M8708 9333 c7 -3 16 -2 19 1 4 3 -2 6 -13 5 -11 0 -14 -3 -6 -6z"/>
<path d="M8865 9314 c13 -14 19 -14 28 -4 9 10 9 11 0 6 -6 -3 -14 -2 -18 4
-3 5 -11 10 -16 10 -6 0 -3 -7 6 -16z"/>
<path d="M12765 9320 c-3 -6 1 -7 9 -4 18 7 21 14 7 14 -6 0 -13 -4 -16 -10z"/>
<path d="M12920 9320 c0 -5 0 -11 1 -12 0 -2 -4 -15 -10 -30 -8 -20 -7 -26 2
-22 10 4 21 74 11 74 -2 0 -4 -4 -4 -10z"/>
<path d="M8815 9310 c-4 -6 1 -7 11 -3 13 5 15 3 9 -7 -5 -9 -4 -11 4 -6 6 4
9 12 6 17 -8 12 -22 12 -30 -1z"/>
<path d="M5646 9283 c-6 -14 -5 -15 5 -6 7 7 10 15 7 18 -3 3 -9 -2 -12 -12z"/>
<path d="M8695 9289 c-4 -6 -5 -12 -2 -15 2 -3 7 2 10 11 7 17 1 20 -8 4z"/>
<path d="M8861 9279 c17 -11 39 -12 39 -1 0 4 -12 8 -27 9 -19 1 -22 -1 -12
-8z"/>
<path d="M8715 9269 c-4 -6 -5 -12 -2 -15 2 -3 7 2 10 11 7 17 1 20 -8 4z"/>
<path d="M8755 9261 c-3 -5 -2 -12 3 -15 5 -3 9 1 9 9 0 17 -3 19 -12 6z"/>
<path d="M8840 9266 c0 -2 7 -7 16 -10 8 -3 12 -2 9 4 -6 10 -25 14 -25 6z"/>
<path d="M8781 9244 c0 -11 3 -14 6 -6 3 7 2 16 -1 19 -3 4 -6 -2 -5 -13z"/>
<path d="M8873 9241 c-13 -11 -23 -22 -23 -26 0 -4 6 -2 14 4 9 7 17 8 20 3 3
-6 0 -12 -7 -15 -8 -3 -13 -16 -12 -29 1 -12 0 -27 -4 -33 -9 -17 -10 -35 0
-29 5 3 9 -2 9 -10 0 -9 -6 -13 -13 -10 -8 3 -19 -1 -25 -9 -9 -11 -8 -14 3
-14 8 0 12 4 9 9 -6 10 10 11 19 1 8 -8 -13 -34 -22 -28 -4 2 -8 -2 -8 -10 0
-8 3 -15 7 -15 16 0 6 -41 -13 -55 -12 -8 -16 -15 -8 -15 10 0 10 -5 -2 -24
-15 -22 -15 -24 1 -22 10 2 16 12 16 27 0 13 4 27 10 31 5 3 10 15 11 25 0 10
5 25 10 33 5 8 10 20 12 25 1 6 4 20 7 32 3 13 0 25 -6 29 -6 4 -5 10 3 15 11
7 11 9 -1 9 -10 0 -11 3 -3 8 15 9 24 70 12 78 -6 3 -5 11 2 20 16 19 8 17
-18 -5z m-3 -195 c0 -3 -4 -8 -10 -11 -5 -3 -10 -1 -10 4 0 6 5 11 10 11 6 0
10 -2 10 -4z"/>
<path d="M12786 9236 c3 -9 13 -16 22 -16 8 0 13 1 11 3 -2 1 -12 9 -22 16
-15 12 -17 12 -11 -3z"/>
<path d="M12850 9240 c0 -5 5 -10 10 -10 6 0 10 5 10 10 0 6 -4 10 -10 10 -5
0 -10 -4 -10 -10z"/>
<path d="M8697 9219 c7 -7 15 -10 18 -7 3 3 -2 9 -12 12 -14 6 -15 5 -6 -5z"/>
<path d="M12907 9210 c3 -11 9 -20 15 -20 5 0 4 9 -2 20 -6 11 -12 20 -14 20
-2 0 -2 -9 1 -20z"/>
<path d="M8798 9213 c7 -3 16 -2 19 1 4 3 -2 6 -13 5 -11 0 -14 -3 -6 -6z"/>
<path d="M8748 9192 c-4 -12 1 -18 13 -18 12 0 15 4 9 12 -6 6 -7 14 -3 17 3
4 2 7 -4 7 -6 0 -13 -8 -15 -18z"/>
<path d="M12806 9198 c3 -5 10 -6 15 -3 13 9 11 12 -6 12 -8 0 -12 -4 -9 -9z"/>
<path d="M8839 9188 c-6 -21 -5 -38 1 -38 5 0 8 9 7 20 -1 17 -5 26 -8 18z"/>
<path d="M8696 9167 c3 -10 9 -15 12 -12 3 3 0 11 -7 18 -10 9 -11 8 -5 -6z"/>
<path d="M12820 9160 c-9 -6 -10 -10 -3 -10 6 0 15 5 18 10 8 12 4 12 -15 0z"/>
<path d="M8680 9151 c0 -6 4 -13 10 -16 6 -3 7 1 4 9 -7 18 -14 21 -14 7z"/>
<path d="M8793 9131 c10 -12 9 -14 -4 -9 -9 4 -16 1 -16 -7 0 -8 7 -11 15 -7
9 3 13 1 9 -5 -3 -5 0 -10 8 -10 12 0 12 3 2 16 -10 12 -9 14 4 9 9 -4 16 -1
16 7 0 8 -7 11 -15 7 -9 -3 -13 -1 -9 5 3 5 0 10 -8 10 -12 0 -12 -3 -2 -16z"/>
<path d="M12870 9140 c0 -5 5 -10 10 -10 6 0 10 5 10 10 0 6 -4 10 -10 10 -5
0 -10 -4 -10 -10z"/>
<path d="M8706 9125 c-18 -14 -18 -14 1 -12 11 0 20 7 20 14 0 7 -1 13 -1 13
-1 0 -9 -7 -20 -15z"/>
<path d="M8741 9114 c0 -11 3 -14 6 -6 3 7 2 16 -1 19 -3 4 -6 -2 -5 -13z"/>
<path d="M8725 9077 c-14 -11 -15 -16 -5 -22 9 -6 11 -4 5 5 -6 9 -4 12 7 8 9
-4 15 0 15 8 0 17 1 17 -22 1z"/>
<path d="M8793 9033 c4 -6 2 -13 -5 -15 -8 -3 -6 -6 4 -10 17 -7 19 15 3 29
-4 4 -5 3 -2 -4z"/>
<path d="M8817 9001 c-4 -17 -3 -21 5 -13 5 5 8 16 6 23 -3 8 -7 3 -11 -10z"/>
<path d="M8730 8998 c0 -6 3 -8 7 -5 3 4 13 1 22 -6 14 -11 14 -10 2 6 -15 20
-31 22 -31 5z"/>
<path d="M8786 8976 c6 -15 4 -17 -6 -11 -9 6 -11 4 -5 -4 5 -9 10 -10 18 -2
8 8 7 14 -2 24 -10 10 -11 8 -5 -7z"/>
<path d="M8719 8928 c14 -19 32 -15 30 5 0 8 -2 8 -6 -1 -4 -10 -8 -10 -21 0
-15 12 -16 11 -3 -4z"/>
<path d="M8670 8920 c0 -5 5 -10 11 -10 5 0 7 5 4 10 -3 6 -8 10 -11 10 -2 0
-4 -4 -4 -10z"/>
<path d="M8751 8908 c-10 -18 -11 -20 0 -10 16 15 33 16 23 0 -4 -7 -3 -8 5
-4 9 6 9 11 0 22 -14 17 -12 18 -28 -8z"/>
<path d="M8785 8879 c-4 -6 -5 -12 -2 -15 2 -3 7 2 10 11 7 17 1 20 -8 4z"/>
<path d="M8756 8867 c3 -10 9 -15 12 -12 3 3 0 11 -7 18 -10 9 -11 8 -5 -6z"/>
<path d="M8716 8858 c3 -5 10 -6 15 -3 13 9 11 12 -6 12 -8 0 -12 -4 -9 -9z"/>
<path d="M8686 8838 c3 -5 9 -7 12 -4 3 3 14 -2 24 -11 18 -16 18 -16 12 0 -3
9 -9 17 -13 18 -3 0 -14 2 -24 4 -9 2 -14 -1 -11 -7z"/>
<path d="M14790 8846 c0 -2 7 -7 16 -10 8 -3 12 -2 9 4 -6 10 -25 14 -25 6z"/>
<path d="M1530 8804 c0 -5 13 -31 30 -57 16 -26 27 -47 24 -47 -2 0 1 -6 8
-14 7 -8 14 -13 16 -11 4 4 -28 68 -38 75 -4 3 -14 19 -23 35 -9 17 -16 25
-17 19z"/>
<path d="M8685 8800 c-3 -6 1 -7 9 -4 18 7 21 14 7 14 -6 0 -13 -4 -16 -10z"/>
<path d="M8715 8789 c-4 -6 -5 -12 -2 -15 2 -3 7 2 10 11 7 17 1 20 -8 4z"/>
<path d="M8746 8776 c6 -15 4 -17 -6 -11 -9 6 -11 4 -5 -4 5 -9 10 -10 18 -2
8 8 7 14 -2 24 -10 10 -11 8 -5 -7z"/>
<path d="M8676 8741 c-3 -4 2 -16 12 -24 16 -15 18 -15 19 6 2 17 0 19 -7 7
-9 -14 -14 -7 -11 13 1 10 -7 9 -13 -2z"/>
<path d="M8430 8397 c0 -2 6 -10 14 -16 11 -9 16 -9 22 1 4 7 4 10 -1 6 -4 -4
-14 -3 -22 3 -7 6 -13 9 -13 6z"/>
<path d="M8415 8220 c3 -5 8 -10 11 -10 2 0 4 5 4 10 0 6 -5 10 -11 10 -5 0
-7 -4 -4 -10z"/>
<path d="M14722 8196 c7 -8 15 -12 17 -11 5 6 -10 25 -20 25 -5 0 -4 -6 3 -14z"/>
<path d="M14713 8171 c1 -11 7 -23 14 -26 11 -4 11 0 2 18 -16 31 -18 32 -16
8z"/>
<path d="M14719 8128 c-5 -15 -3 -78 2 -78 3 0 4 -12 1 -27 -2 -16 -2 -25 2
-22 10 9 13 119 4 125 -4 3 -8 4 -9 2z"/>
<path d="M8336 8042 c-3 -5 1 -9 9 -9 8 0 12 4 9 9 -3 4 -7 8 -9 8 -2 0 -6 -4
-9 -8z"/>
<path d="M14723 7978 c2 -7 0 -23 -4 -35 -12 -32 -2 -56 16 -40 8 8 10 16 4
23 -6 7 -8 24 -5 38 3 14 0 26 -5 26 -6 0 -9 -6 -6 -12z"/>
<path d="M8396 7933 c-6 -14 -5 -15 5 -6 7 7 10 15 7 18 -3 3 -9 -2 -12 -12z"/>
<path d="M8350 7861 c0 -6 4 -13 10 -16 6 -3 7 1 4 9 -7 18 -14 21 -14 7z"/>
<path d="M14730 7860 c0 -5 5 -10 11 -10 5 0 7 5 4 10 -3 6 -8 10 -11 10 -2 0
-4 -4 -4 -10z"/>
<path d="M8400 7760 c-9 -6 -10 -10 -3 -10 6 0 15 5 18 10 8 12 4 12 -15 0z"/>
<path d="M8196 7607 c3 -10 9 -15 12 -12 3 3 0 11 -7 18 -10 9 -11 8 -5 -6z"/>
<path d="M8207 7439 c7 -7 15 -10 18 -7 3 3 -2 9 -12 12 -14 6 -15 5 -6 -5z"/>
<path d="M8244 7322 c4 -3 14 -7 22 -8 9 -1 13 0 10 4 -4 3 -14 7 -22 8 -9 1
-13 0 -10 -4z"/>
<path d="M8350 7061 c0 -6 4 -13 10 -16 6 -3 7 1 4 9 -7 18 -14 21 -14 7z"/>
<path d="M683 6949 c-13 -5 -24 -13 -24 -19 -1 -5 -2 -16 -3 -22 -1 -7 3 -29
10 -50 7 -20 11 -38 8 -40 -12 -13 -9 -57 7 -84 10 -17 26 -60 35 -95 9 -35
20 -71 24 -79 5 -9 11 -36 14 -60 11 -76 48 -220 61 -233 6 -7 15 -26 20 -42
5 -17 9 -32 10 -35 3 -13 17 -91 16 -97 0 -5 6 -18 14 -30 21 -32 26 -65 30
-205 5 -170 23 -202 113 -201 42 1 52 10 57 59 6 61 16 107 28 129 11 21 18
223 8 240 -3 6 -6 21 -7 35 -3 60 -5 69 -17 82 -7 7 -19 36 -27 63 -13 51 -39
108 -40 90 0 -5 -43 75 -96 180 -53 104 -99 194 -103 200 -4 5 -20 48 -35 95
-37 116 -56 137 -103 119z"/>
<path d="M14693 6767 c0 -8 6 -14 14 -14 9 0 10 4 2 14 -6 7 -12 13 -14 13 -1
0 -2 -6 -2 -13z"/>
<path d="M1991 6128 c-16 -46 -1 -208 22 -236 6 -8 12 -41 12 -73 l2 -59 -23
15 c-14 9 -25 11 -29 5 -3 -6 -2 -10 4 -10 10 0 9 -19 -2 -38 -5 -7 -13 -9
-19 -6 -7 4 -8 2 -4 -5 6 -9 11 -9 22 0 14 12 19 3 15 -28 -1 -7 2 -13 6 -13
5 0 10 -12 11 -26 1 -15 12 -42 23 -61 17 -27 19 -37 9 -43 -8 -5 -8 -10 -2
-14 6 -3 13 0 15 6 4 10 8 10 16 -2 5 -8 7 -19 4 -25 -4 -5 -3 -7 2 -3 8 8 35
-15 35 -30 0 -5 9 -17 20 -27 16 -14 17 -21 8 -39 -10 -19 -10 -20 5 -7 14 11
18 11 23 -5 18 -56 22 -56 20 4 -2 34 1 62 6 62 5 0 6 6 1 12 -11 18 -10 52 2
60 6 5 5 8 -3 8 -7 0 -10 5 -7 10 5 8 12 7 23 -2 15 -12 16 -11 2 6 -17 22
-22 46 -9 46 6 0 8 4 5 8 -3 5 -8 24 -11 42 -3 18 -9 38 -13 44 -4 6 -8 38 -9
71 -2 71 -10 123 -28 183 -8 24 -11 50 -9 57 3 7 -4 23 -15 34 -11 11 -29 38
-41 61 -17 33 -25 40 -50 40 -23 0 -33 -6 -39 -22z"/>
<path d="M2076 5473 c-6 -14 -5 -15 5 -6 7 7 10 15 7 18 -3 3 -9 -2 -12 -12z"/>
<path d="M1450 5366 c0 -2 7 -7 16 -10 8 -3 12 -2 9 4 -6 10 -25 14 -25 6z"/>
<path d="M473 5295 c0 -8 4 -12 9 -9 5 3 6 10 3 15 -9 13 -12 11 -12 -6z"/>
<path d="M1860 5300 c-9 -6 -10 -10 -3 -10 6 0 15 5 18 10 8 12 4 12 -15 0z"/>
<path d="M675 5280 c-3 -5 -1 -10 4 -10 6 0 11 5 11 10 0 6 -2 10 -4 10 -3 0
-8 -4 -11 -10z"/>
<path d="M1916 5193 c-6 -14 -5 -15 5 -6 7 7 10 15 7 18 -3 3 -9 -2 -12 -12z"/>
<path d="M2226 5202 c-3 -5 1 -9 9 -9 8 0 12 4 9 9 -3 4 -7 8 -9 8 -2 0 -6 -4
-9 -8z"/>
<path d="M2420 5040 c-9 -6 -10 -10 -3 -10 6 0 15 5 18 10 8 12 4 12 -15 0z"/>
<path d="M1515 4949 c-4 -6 -5 -12 -2 -15 2 -3 7 2 10 11 7 17 1 20 -8 4z"/>
<path d="M13328 4903 c-10 -2 -18 -8 -18 -13 0 -4 9 -6 20 -3 11 3 20 9 20 14
0 5 -1 8 -2 8 -2 -1 -11 -3 -20 -6z"/>
<path d="M13206 4834 c-11 -7 -18 -16 -15 -18 2 -2 13 2 23 10 11 7 18 16 15
18 -2 2 -13 -2 -23 -10z"/>
<path d="M13135 4779 c-4 -6 -5 -12 -2 -15 2 -3 7 2 10 11 7 17 1 20 -8 4z"/>
<path d="M13056 4743 c-6 -14 -5 -15 5 -6 7 7 10 15 7 18 -3 3 -9 -2 -12 -12z"/>
<path d="M9516 4733 c-6 -14 -5 -15 5 -6 7 7 10 15 7 18 -3 3 -9 -2 -12 -12z"/>
<path d="M1407 4719 c7 -7 15 -10 18 -7 3 3 -2 9 -12 12 -14 6 -15 5 -6 -5z"/>
<path d="M9590 4680 c0 -5 5 -10 11 -10 5 0 7 5 4 10 -3 6 -8 10 -11 10 -2 0
-4 -4 -4 -10z"/>
<path d="M12873 4675 c0 -8 4 -12 9 -9 5 3 6 10 3 15 -9 13 -12 11 -12 -6z"/>
<path d="M13070 4678 c0 -4 4 -8 9 -8 6 0 12 4 15 8 3 5 -1 9 -9 9 -8 0 -15
-4 -15 -9z"/>
<path d="M2195 4661 c-3 -5 -2 -12 3 -15 5 -3 9 1 9 9 0 17 -3 19 -12 6z"/>
<path d="M12719 4653 c-13 -16 -12 -17 4 -4 9 7 17 15 17 17 0 8 -8 3 -21 -13z"/>
<path d="M12914 4662 c4 -3 14 -7 22 -8 9 -1 13 0 10 4 -4 3 -14 7 -22 8 -9 1
-13 0 -10 -4z"/>
<path d="M12974 4662 c4 -3 14 -7 22 -8 9 -1 13 0 10 4 -4 3 -14 7 -22 8 -9 1
-13 0 -10 -4z"/>
<path d="M12660 4640 c-9 -6 -10 -10 -3 -10 6 0 15 5 18 10 8 12 4 12 -15 0z"/>
<path d="M12806 4618 c3 -5 10 -6 15 -3 13 9 11 12 -6 12 -8 0 -12 -4 -9 -9z"/>
<path d="M12854 4622 c4 -3 14 -7 22 -8 9 -1 13 0 10 4 -4 3 -14 7 -22 8 -9 1
-13 0 -10 -4z"/>
<path d="M13034 4622 c4 -3 14 -7 22 -8 9 -1 13 0 10 4 -4 3 -14 7 -22 8 -9 1
-13 0 -10 -4z"/>
<path d="M12630 4616 c0 -2 8 -10 18 -17 15 -13 16 -12 3 4 -13 16 -21 21 -21
13z"/>
<path d="M12981 4596 c-9 -11 -9 -16 1 -22 7 -4 10 -4 6 1 -4 4 -3 14 3 22 6
7 9 13 6 13 -2 0 -10 -6 -16 -14z"/>
<path d="M13095 4600 c-3 -6 1 -7 9 -4 18 7 21 14 7 14 -6 0 -13 -4 -16 -10z"/>
<path d="M12510 4581 c0 -6 4 -13 10 -16 6 -3 7 1 4 9 -7 18 -14 21 -14 7z"/>
<path d="M12774 4576 c1 -8 5 -18 8 -22 4 -3 5 1 4 10 -1 8 -5 18 -8 22 -4 3
-5 -1 -4 -10z"/>
<path d="M13116 4578 c3 -5 10 -6 15 -3 13 9 11 12 -6 12 -8 0 -12 -4 -9 -9z"/>
<path d="M13033 4555 c0 -8 4 -12 9 -9 4 3 8 9 8 15 0 5 -4 9 -8 9 -5 0 -9 -7
-9 -15z"/>
<path d="M13107 4559 c7 -7 15 -10 18 -7 3 3 -2 9 -12 12 -14 6 -15 5 -6 -5z"/>
<path d="M12436 4547 c3 -10 9 -15 12 -12 3 3 0 11 -7 18 -10 9 -11 8 -5 -6z"/>
<path d="M12715 4550 c-4 -6 -11 -7 -17 -4 -7 4 -8 2 -4 -5 6 -9 11 -9 22 0
14 11 18 19 10 19 -3 0 -8 -5 -11 -10z"/>
<path d="M12646 4542 c-3 -5 1 -9 9 -9 8 0 12 4 9 9 -3 4 -7 8 -9 8 -2 0 -6
-4 -9 -8z"/>
<path d="M12834 4542 c4 -3 14 -7 22 -8 9 -1 13 0 10 4 -4 3 -14 7 -22 8 -9 1
-13 0 -10 -4z"/>
<path d="M12896 4538 c3 -4 11 -5 19 -1 21 7 19 12 -4 10 -11 0 -18 -5 -15 -9z"/>
<path d="M12973 4535 c0 -8 4 -12 9 -9 5 3 6 10 3 15 -9 13 -12 11 -12 -6z"/>
<path d="M12610 4500 c0 -5 5 -10 11 -10 5 0 7 5 4 10 -3 6 -8 10 -11 10 -2 0
-4 -4 -4 -10z"/>
<path d="M12736 4502 c-3 -4 4 -9 15 -9 23 -2 25 3 4 10 -8 4 -16 3 -19 -1z"/>
<path d="M12876 4493 c-6 -14 -5 -15 5 -6 7 7 10 15 7 18 -3 3 -9 -2 -12 -12z"/>
<path d="M2195 4460 c-3 -5 -1 -10 4 -10 6 0 11 5 11 10 0 6 -2 10 -4 10 -3 0
-8 -4 -11 -10z"/>
<path d="M2335 4360 c3 -5 8 -10 11 -10 2 0 4 5 4 10 0 6 -5 10 -11 10 -5 0
-7 -4 -4 -10z"/>
<path d="M2316 4322 c-3 -5 1 -9 9 -9 8 0 12 4 9 9 -3 4 -7 8 -9 8 -2 0 -6 -4
-9 -8z"/>
<path d="M2500 4160 c-9 -6 -10 -10 -3 -10 6 0 15 5 18 10 8 12 4 12 -15 0z"/>
<path d="M2250 4101 c0 -6 4 -13 10 -16 6 -3 7 1 4 9 -7 18 -14 21 -14 7z"/>
<path d="M2476 4085 c-11 -8 -16 -15 -10 -15 5 0 2 -5 -6 -10 -8 -5 -10 -10
-4 -10 5 0 11 -11 12 -25 1 -14 2 -37 3 -51 2 -40 16 -15 28 50 16 86 14 89
-23 61z"/>
<path d="M2276 4013 c-6 -14 -5 -15 5 -6 7 7 10 15 7 18 -3 3 -9 -2 -12 -12z"/>
<path d="M2356 3933 c-6 -14 -5 -15 5 -6 7 7 10 15 7 18 -3 3 -9 -2 -12 -12z"/>
<path d="M635 3921 c-3 -5 -2 -12 3 -15 5 -3 9 1 9 9 0 17 -3 19 -12 6z"/>
<path d="M2287 3919 c7 -7 15 -10 18 -7 3 3 -2 9 -12 12 -14 6 -15 5 -6 -5z"/>
<path d="M2430 3926 c0 -2 7 -7 16 -10 8 -3 12 -2 9 4 -6 10 -25 14 -25 6z"/>
<path d="M2330 3806 c0 -2 7 -7 16 -10 8 -3 12 -2 9 4 -6 10 -25 14 -25 6z"/>
<path d="M2367 3759 c7 -7 15 -10 18 -7 3 3 -2 9 -12 12 -14 6 -15 5 -6 -5z"/>
<path d="M683 3745 c4 -5 -3 -15 -15 -22 -21 -13 -21 -13 -2 -8 17 4 21 1 20
-17 -1 -13 -4 -27 -7 -33 -3 -5 -5 -26 -4 -45 0 -19 -2 -37 -6 -40 -3 -3 -3
-14 1 -25 6 -15 9 -9 15 29 12 79 13 156 1 163 -6 3 -7 2 -3 -2z"/>
<path d="M480 3240 c-9 -6 -10 -10 -3 -10 6 0 15 5 18 10 8 12 4 12 -15 0z"/>
<path d="M8675 2731 c-3 -5 -2 -12 3 -15 5 -3 9 1 9 9 0 17 -3 19 -12 6z"/>
<path d="M467 2599 c7 -7 15 -10 18 -7 3 3 -2 9 -12 12 -14 6 -15 5 -6 -5z"/>
<path d="M8665 2540 c-3 -6 1 -7 9 -4 18 7 21 14 7 14 -6 0 -13 -4 -16 -10z"/>
<path d="M8680 2469 c0 -5 5 -7 10 -4 6 3 10 8 10 11 0 2 -4 4 -10 4 -5 0 -10
-5 -10 -11z"/>
<path d="M513 2385 c0 -8 4 -12 9 -9 5 3 6 10 3 15 -9 13 -12 11 -12 -6z"/>
<path d="M8593 2143 c-15 -5 -17 -32 -4 -52 6 -9 10 -2 13 23 2 20 4 36 3 35
0 0 -6 -3 -12 -6z"/>
<path d="M753 1825 c0 -8 4 -12 9 -9 5 3 6 10 3 15 -9 13 -12 11 -12 -6z"/>
<path d="M8126 1797 c-3 -17 -8 -52 -11 -78 -3 -25 -9 -59 -14 -77 -14 -46 1
-40 25 11 13 25 22 66 23 103 3 67 -13 95 -23 41z"/>
<path d="M834 1759 c-4 -7 -3 -9 4 -5 5 3 12 0 15 -6 2 -7 7 -10 11 -7 4 3 0
12 -8 18 -11 9 -16 9 -22 0z"/>
<path d="M834 1682 c4 -3 14 -7 22 -8 9 -1 13 0 10 4 -4 3 -14 7 -22 8 -9 1
-13 0 -10 -4z"/>
<path d="M1060 1561 c0 -6 4 -13 10 -16 6 -3 7 1 4 9 -7 18 -14 21 -14 7z"/>
<path d="M1090 1528 c0 -7 10 -14 21 -15 12 -1 20 -1 18 0 -2 2 -12 9 -21 16
-15 11 -18 11 -18 -1z"/>
</g>
</svg>
